<svg viewBox="0 0 24 24" fill="none" xmlns="http://www.w3.org/2000/svg">
<path d="M8.2793 16.6659C9.8532 16.7495 11.1044 18.0506 11.1084 19.6444V20.0311C11.1081 20.583 10.6603 21.0309 10.1084 21.0311C9.55631 21.0311 9.10872 20.5831 9.1084 20.0311V19.6493L9.10254 19.5477C9.05419 19.0838 8.6856 18.7151 8.22168 18.6669L8.12109 18.662H4.9873L4.88672 18.6669C4.38929 18.7184 4.00128 19.1385 4 19.6493V20.0311C3.99968 20.5831 3.55209 21.0311 3 21.0311C2.44791 21.0311 2.00032 20.5831 2 20.0311V19.6444L2.00391 19.4911C2.08719 17.9168 3.38833 16.666 4.98242 16.662H8.12598L8.2793 16.6659Z" fill="currentColor"/>
<path d="M21.0039 18.9999C21.5561 19 22.0039 19.4477 22.0039 19.9999C22.0038 20.552 21.556 20.9997 21.0039 20.9999H14.0039C13.4517 20.9999 13.004 20.5521 13.0039 19.9999C13.0039 19.4476 13.4516 18.9999 14.0039 18.9999H21.0039Z" fill="currentColor"/>
<path d="M15.416 10.4999C15.9682 10.5 16.416 10.9477 16.416 11.4999V16.4999C16.4159 17.052 15.9681 17.4997 15.416 17.4999C14.8638 17.4999 14.4161 17.0521 14.416 16.4999V11.4999C14.416 10.9476 14.8637 10.4999 15.416 10.4999Z" fill="currentColor"/>
<path d="M19.416 10.4999C19.9682 10.5 20.416 10.9477 20.416 11.4999V16.4999C20.4159 17.052 19.9681 17.4997 19.416 17.4999C18.8638 17.4999 18.4161 17.0521 18.416 16.4999V11.4999C18.416 10.9476 18.8637 10.4999 19.416 10.4999Z" fill="currentColor"/>
<path d="M6.55762 10.4999C8.15587 10.4999 9.45262 11.7952 9.4541 13.3934L9.43945 13.6893C9.29256 15.1486 8.06168 16.289 6.56348 16.2919H6.55273C4.95459 16.2889 3.66081 14.9915 3.66211 13.3934L3.67773 13.0975C3.82712 11.6384 5.05937 10.5001 6.55762 10.4999ZM6.55762 12.4999C6.09427 12.5001 5.7132 12.8523 5.66699 13.3036L5.66211 13.3954C5.66189 13.8896 6.06238 14.291 6.55664 14.2919H6.55957C7.02317 14.291 7.40395 13.9378 7.44922 13.4862L7.4541 13.3954C7.45364 12.901 7.05202 12.4999 6.55762 12.4999Z" fill="currentColor"/>
<path d="M12.7383 2.036C12.9407 1.98026 13.1564 1.98914 13.3545 2.06335L21.3545 5.06335L21.4951 5.12878C21.8058 5.30401 22.0039 5.63529 22.0039 5.99987V7.99987C22.0038 8.55201 21.556 8.99972 21.0039 8.99987H5.00391C4.45166 8.99987 4.00398 8.5521 4.00391 7.99987V5.99987C4.00391 5.58307 4.26211 5.20974 4.65234 5.06335L12.6523 2.06335L12.7383 2.036ZM6.00391 6.69226V6.99987H20.0039V6.69323L13.0029 4.06725L6.00391 6.69226Z" fill="currentColor"/>
</svg>
