<svg viewBox="0 0 16 16" fill="none" xmlns="http://www.w3.org/2000/svg">
<path d="M6.02344 11.1055C6.99975 11.207 7.761 12.0307 7.76367 13.0332V13.2657C7.76367 13.6799 7.42789 14.0157 7.01367 14.0157C6.59971 14.0154 6.26367 13.6797 6.26367 13.2657V13.0372L6.25488 12.9483C6.2192 12.7755 6.08299 12.6391 5.91016 12.6036L5.82129 12.5948H3.94238L3.85352 12.6036C3.6522 12.6452 3.50062 12.8236 3.5 13.0372V13.2657C3.5 13.6799 3.16421 14.0157 2.75 14.0157C2.33591 14.0155 2 13.6798 2 13.2657V13.0332L2.01074 12.835C2.11229 11.8589 2.93613 11.0976 3.93848 11.0948H5.8252L6.02344 11.1055Z" fill="currentColor"/>
<path d="M13.5498 12.1983C13.964 12.1983 14.2997 12.5342 14.2998 12.9483C14.2997 13.3624 13.9639 13.6983 13.5498 13.6983H9.35059C8.93672 13.698 8.60071 13.3622 8.60059 12.9483C8.60068 12.5343 8.9367 12.1986 9.35059 12.1983H13.5498Z" fill="currentColor"/>
<path d="M10.1982 7.09868C10.6122 7.09881 10.9479 7.4348 10.9482 7.84868V10.8487C10.9481 11.2627 10.6123 11.5985 10.1982 11.5987C9.78423 11.5985 9.44836 11.2627 9.44824 10.8487V7.84868C9.44854 7.43481 9.78434 7.09883 10.1982 7.09868Z" fill="currentColor"/>
<path d="M12.5977 7.09868C13.0116 7.09875 13.3474 7.43476 13.3477 7.84868V10.8487C13.3475 11.2627 13.0117 11.5986 12.5977 11.5987C12.1836 11.5985 11.8478 11.2627 11.8477 10.8487V7.84868C11.848 7.43481 12.1838 7.09883 12.5977 7.09868Z" fill="currentColor"/>
<path d="M4.88477 7.11333C5.92613 7.11354 6.77041 7.95768 6.77148 8.99907L6.76172 9.19243C6.66584 10.1433 5.86404 10.8859 4.8877 10.8877H4.88086C3.83938 10.8857 2.99611 10.0406 2.99707 8.99907L3.00684 8.80669C3.1041 7.85566 3.90828 7.11347 4.88477 7.11333ZM4.88477 8.61333C4.67137 8.61347 4.4976 8.78669 4.49707 9.00005L4.50488 9.07817C4.54065 9.25464 4.69678 9.38727 4.88379 9.38774C5.09752 9.38735 5.27168 9.21378 5.27148 9.00005L5.26367 8.9229C5.22753 8.74662 5.07166 8.61351 4.88477 8.61333Z" fill="currentColor"/>
<path d="M8.61816 2.01176C8.75013 1.98802 8.88754 2.00029 9.01465 2.0479L13.8135 3.8477L13.918 3.89653C14.1513 4.02785 14.2997 4.27628 14.2998 4.54985V5.74907C14.2998 6.16328 13.964 6.49907 13.5498 6.49907H3.95215C3.53806 6.49892 3.20215 6.16319 3.20215 5.74907V4.54985L3.21094 4.43462C3.25198 4.17015 3.43247 3.94386 3.68848 3.8477L8.4873 2.0479L8.61816 2.01176ZM4.88965 4.99907H12.6123L8.75098 3.55083L4.88965 4.99907Z" fill="currentColor"/>
</svg>
