<svg viewBox="0 0 32 32" fill="none" xmlns="http://www.w3.org/2000/svg">
<path d="M28.4502 25.7948C29.1403 25.7949 29.6998 26.3548 29.7002 27.0448C29.7002 27.7352 29.1405 28.2948 28.4502 28.2948H18.6523C17.9621 28.2947 17.4023 27.7351 17.4023 27.0448C17.4027 26.3549 17.9624 25.795 18.6523 25.7948H28.4502Z" fill="currentColor"/>
<path d="M10.6309 22.4394C12.7553 22.5519 14.4436 24.3077 14.4492 26.4589V26.9999C14.4492 27.6902 13.8895 28.2499 13.1992 28.2499C12.5091 28.2497 11.9493 27.6901 11.9492 26.9999V26.4648L11.9414 26.3085C11.8665 25.5888 11.294 25.017 10.5742 24.9423L10.418 24.9335H6.03125L5.875 24.9423C5.10403 25.0224 4.50236 25.6731 4.5 26.4648V26.9999C4.49993 27.6902 3.94032 28.2499 3.25 28.2499C2.55984 28.2497 2.00007 27.6901 2 26.9999V26.4589L2.00586 26.2519C2.11875 24.1277 3.87441 22.4391 6.02539 22.4335H10.4238L10.6309 22.4394Z" fill="currentColor"/>
<path d="M20.6289 13.8974C21.319 13.8975 21.8786 14.4573 21.8789 15.1474V22.1464C21.8788 22.8366 21.3191 23.3962 20.6289 23.3964C19.9388 23.3962 19.379 22.8366 19.3789 22.1464V15.1474C19.3792 14.4574 19.9389 13.8975 20.6289 13.8974Z" fill="currentColor"/>
<path d="M26.2275 13.8974C26.9177 13.8974 27.4773 14.4572 27.4775 15.1474V22.1464C27.4774 22.8367 26.9178 23.3964 26.2275 23.3964C25.5374 23.3962 24.9776 22.8366 24.9775 22.1464V15.1474C24.9778 14.4574 25.5375 13.8975 26.2275 13.8974Z" fill="currentColor"/>
<path d="M8.23047 13.8095C10.3846 13.8096 12.1314 15.5548 12.1338 17.7089L12.1289 17.9101C12.0264 19.9714 10.3245 21.6123 8.2373 21.6161H8.22266C6.06848 21.6118 4.32418 19.8632 4.32617 17.7089L4.33203 17.5087C4.43843 15.4478 6.14352 13.8097 8.23047 13.8095ZM8.23047 16.3095C7.50443 16.3096 6.90651 16.8612 6.83398 17.5683L6.82617 17.7118C6.82556 18.4863 7.45311 19.1145 8.22754 19.1161H8.23242C8.95858 19.1148 9.55569 18.5626 9.62695 17.8554L9.63379 17.7118C9.63292 16.9374 9.00492 16.3096 8.23047 16.3095Z" fill="currentColor"/>
<path d="M16.9209 2.04483C17.1739 1.97525 17.4439 1.9863 17.6914 2.07901L28.8887 6.27823C29.3765 6.46115 29.7001 6.92819 29.7002 7.44913V10.2489C29.7 10.9391 29.1404 11.4989 28.4502 11.4989H6.05469C5.36461 11.4988 4.8049 10.939 4.80469 10.2489V7.44913C4.80481 6.92832 5.12766 6.46125 5.61523 6.27823L16.8135 2.07901L16.9209 2.04483ZM7.30469 8.31436V8.99893H27.2002V8.31436L17.252 4.58487L7.30469 8.31436Z" fill="currentColor"/>
</svg>
