<svg viewBox="0 0 12 12" fill="none" xmlns="http://www.w3.org/2000/svg">
<path d="M6.47095 8.52742V8.52448H5.53003V8.5284C5.53008 8.65277 5.5792 8.77241 5.66725 8.86034C5.75528 8.94822 5.87507 8.99741 5.99951 8.99743C6.12402 8.99748 6.24461 8.94818 6.33275 8.86034C6.42093 8.77229 6.47095 8.65197 6.47095 8.52742ZM7.84117 4.84174C7.84112 3.82619 7.01694 3.00294 6.00049 3.00281C4.98393 3.00281 4.15986 3.82611 4.15981 4.84174V6.09119C4.15981 6.22405 4.10677 6.35166 4.01279 6.44565L3.4796 6.97638C3.41463 7.04145 3.3788 7.13026 3.37865 7.22215L3.38453 7.2809C3.39607 7.33839 3.42475 7.39158 3.46686 7.43366C3.52305 7.48971 3.59915 7.52179 3.67857 7.52179H8.32241C8.46693 7.52163 8.58735 7.41896 8.61547 7.28286L8.62135 7.22215C8.62124 7.15335 8.6011 7.08671 8.56352 7.03023L8.5204 6.97736L7.98819 6.44565C7.89403 6.35163 7.84117 6.22419 7.84117 6.09119V4.84174ZM8.84482 5.8836L9.23001 6.26842C9.48249 6.52122 9.62459 6.86405 9.625 7.22117C9.62494 7.94017 9.04205 8.5243 8.32241 8.52448H7.4746V8.52742C7.4746 8.91797 7.31885 9.29317 7.04237 9.56928C6.80039 9.81083 6.48302 9.96 6.14555 9.99327L6.00049 10.0001C5.60973 10.0004 5.23507 9.84518 4.95862 9.56928C4.68212 9.29327 4.52643 8.91888 4.52638 8.5284V8.52448H3.67857C3.3329 8.52448 3.0007 8.3868 2.75627 8.14259C2.51208 7.89846 2.37503 7.56731 2.375 7.22215L2.38186 7.088C2.41278 6.77978 2.54907 6.4896 2.76999 6.26842L3.15616 5.88262V4.84174C3.15621 3.27236 4.42961 2.00012 6.00049 2.00012C7.57126 2.00025 8.84477 3.27244 8.84482 4.84174V5.8836Z" fill="currentColor"/>
</svg>
