<svg viewBox="0 0 32 32" fill="none" xmlns="http://www.w3.org/2000/svg">
<path d="M16.4893 2.50781C21.5103 2.76247 25.5037 6.91379 25.5039 11.998V16.7764L26.8828 18.1553L26.8848 18.1562L27.0352 18.3145C27.764 19.121 28.17 20.1715 28.1709 21.2637C28.1709 23.6044 26.2733 25.5038 23.9326 25.5039H20.75C20.5954 26.4007 20.1903 27.2406 19.5742 27.9209L19.4092 28.0947C18.5049 28.9985 17.2776 29.5064 15.999 29.5059C14.8013 29.5063 13.6488 29.0604 12.7646 28.2607L12.5918 28.0957C11.8825 27.387 11.4181 26.4791 11.25 25.5039H8.06738C6.9434 25.5039 5.86512 25.0565 5.07031 24.2617C4.27561 23.4669 3.8291 22.3886 3.8291 21.2646C3.83006 20.0996 4.29228 18.981 5.11523 18.1562L5.11719 18.1553L6.49707 16.7754V11.998C6.49729 6.74976 10.7517 2.49523 16 2.49512L16.4893 2.50781ZM14.7119 25.9736L14.8457 26.0938C15.1696 26.3588 15.5768 26.5062 15.999 26.5059H16.001C16.4836 26.506 16.9467 26.3138 17.2881 25.9727L17.4092 25.8389C17.494 25.7354 17.5653 25.6222 17.625 25.5039H14.375C14.4614 25.6755 14.5735 25.8353 14.7119 25.9736Z" fill="currentColor"/>
</svg>
