<svg viewBox="0 0 24 24" fill="none" xmlns="http://www.w3.org/2000/svg">
<path d="M12.3604 2.00488C16.0602 2.1924 19.0028 5.2526 19.0029 8.99902V12.6328L20.0752 13.7051L20.1836 13.8193C20.7095 14.4012 21.0031 15.1592 21.0039 15.9473C21.0039 17.6336 19.6365 19.0016 17.9502 19.002H15.4531C15.3557 19.6906 15.0579 20.3386 14.5879 20.8574L14.4678 20.9824C13.813 21.6367 12.9247 22.0043 11.999 22.0039C11.1318 22.0042 10.2974 21.6816 9.65723 21.1025L9.53125 20.9834C8.9924 20.4449 8.64806 19.7477 8.54297 19.002H6.05078C5.24093 19.0019 4.46427 18.6801 3.8916 18.1074C3.31901 17.5347 2.99707 16.7581 2.99707 15.9482C2.99792 15.1077 3.33204 14.3001 3.92578 13.7051L4.99805 12.6328V8.99902C4.99818 5.1319 8.13289 1.99631 12 1.99609L12.3604 2.00488ZM10.9453 19.5684L11.0547 19.667C11.3199 19.8841 11.6533 20.0042 11.999 20.0039C12.3942 20.0041 12.7752 19.8476 13.0547 19.5684L13.1533 19.459C13.2653 19.3225 13.3518 19.1672 13.4092 19.002H10.5928C10.6659 19.2128 10.7845 19.4076 10.9453 19.5684Z" fill="currentColor"/>
</svg>
