<svg viewBox="0 0 32 32" fill="none" xmlns="http://www.w3.org/2000/svg">
<path d="M16.4893 2.50781C21.5103 2.76247 25.5037 6.91379 25.5039 11.998V16.7764L26.8828 18.1553L26.8848 18.1562L27.0352 18.3145C27.764 19.121 28.17 20.1715 28.1709 21.2637C28.1709 23.6044 26.2733 25.5038 23.9326 25.5039H20.75C20.5954 26.4007 20.1903 27.2406 19.5742 27.9209L19.4092 28.0947C18.5049 28.9985 17.2776 29.5064 15.999 29.5059C14.8013 29.5063 13.6488 29.0604 12.7646 28.2607L12.5918 28.0957C11.8825 27.387 11.4181 26.4791 11.25 25.5039H8.06738C6.9434 25.5039 5.86512 25.0565 5.07031 24.2617C4.27561 23.4669 3.8291 22.3886 3.8291 21.2646C3.83006 20.0996 4.29228 18.981 5.11523 18.1562L5.11719 18.1553L6.49707 16.7754V11.998C6.49729 6.74976 10.7517 2.49523 16 2.49512L16.4893 2.50781ZM14.375 25.5039C14.4614 25.6755 14.5735 25.8353 14.7119 25.9736L14.8457 26.0938C15.1696 26.3588 15.5768 26.5062 15.999 26.5059H16.001C16.4836 26.506 16.9467 26.3138 17.2881 25.9727L17.4092 25.8389C17.494 25.7354 17.5653 25.6222 17.625 25.5039H14.375ZM16 5.49512C12.4085 5.49523 9.49729 8.40661 9.49707 11.998V17.3984C9.49698 17.7463 9.37575 18.0818 9.15723 18.3486L9.05762 18.459L7.2373 20.2773C6.97607 20.5401 6.8294 20.896 6.8291 21.2666C6.82953 21.5944 6.95969 21.9088 7.19141 22.1406C7.42361 22.3728 7.73905 22.5039 8.06738 22.5039H23.9326C24.616 22.5038 25.17 21.9498 25.1709 21.2666L25.1641 21.1279C25.1322 20.8081 24.9913 20.5072 24.7627 20.2773L22.9434 18.459C22.6619 18.1777 22.504 17.7963 22.5039 17.3984V11.998C22.5037 8.40662 19.5914 5.49525 16 5.49512Z" fill="currentColor"/>
</svg>
