<svg viewBox="0 0 16 16" fill="none" xmlns="http://www.w3.org/2000/svg">
<path d="M8.24414 1.25391C10.7548 1.38116 12.751 3.45773 12.751 6V8.3877L13.4414 9.07812L13.5879 9.24023C13.9077 9.63133 14.0846 10.1232 14.085 10.6328L14.0742 10.8496C13.9655 11.918 13.0629 12.752 11.9658 12.752H10.376C10.3054 13.1615 10.1298 13.5472 9.86523 13.8701L9.70508 14.0469C9.25319 14.4986 8.63988 14.7519 8.00098 14.752C7.44171 14.7524 6.90169 14.5591 6.47266 14.208L6.2959 14.0479C5.94134 13.6935 5.7099 13.2395 5.62598 12.752H4.0332C3.47151 12.7518 2.93244 12.5289 2.53516 12.1318C2.13784 11.7345 1.91419 11.1947 1.91406 10.6328L1.9248 10.415C1.97504 9.91249 2.19787 9.43982 2.55762 9.0791L3.24805 8.3877V6C3.24805 3.37585 5.3759 1.24727 8 1.24707L8.24414 1.25391ZM7.1875 12.752C7.23071 12.8376 7.28734 12.9172 7.35645 12.9863L7.42285 13.0469C7.5848 13.1794 7.7889 13.2531 8 13.2529C8.24119 13.2529 8.47394 13.1569 8.64453 12.9863L8.70508 12.9199C8.74737 12.8683 8.78078 12.8109 8.81055 12.752H7.1875ZM8 2.74805C6.20432 2.74824 4.74805 4.20428 4.74805 6V8.69922C4.74795 8.84838 4.70369 8.99396 4.62207 9.11621L4.52832 9.23047L3.61816 10.1377L3.61914 10.1387C3.48833 10.2701 3.41421 10.4484 3.41406 10.6338C3.41441 10.7976 3.47988 10.9555 3.5957 11.0713C3.71168 11.187 3.86934 11.2518 4.0332 11.252H11.9658C12.3074 11.252 12.5843 10.9752 12.585 10.6338L12.5713 10.4961C12.5443 10.3617 12.4781 10.2372 12.3799 10.1387L11.4707 9.23047C11.33 9.08992 11.2511 8.89805 11.251 8.69922V6C11.251 4.20428 9.79567 2.74825 8 2.74805Z" fill="currentColor"/>
</svg>
