<svg viewBox="0 0 32 32" fill="none" xmlns="http://www.w3.org/2000/svg">
<path d="M16.1523 19.8413L16.1533 19.8423C17.0914 19.9207 17.834 20.7036 17.834 21.6675C17.8335 22.6793 17.0128 23.5001 16.001 23.5005C14.9921 23.5005 14.1737 22.6848 14.168 21.6772L14.167 21.6782L14.168 21.6724L14.167 21.6675C14.1654 20.7027 14.9083 19.9217 15.8428 19.8423C15.894 19.837 15.9464 19.8335 15.999 19.8335L16.1523 19.8413ZM15.8809 22.8276L15.999 22.8335C15.9587 22.8335 15.9184 22.8298 15.8789 22.8267L15.8809 22.8276Z" fill="currentColor"/>
<path d="M16.001 8.50049C16.829 8.50093 17.501 9.17233 17.501 10.0005V16.6675C17.5005 17.4953 16.8288 18.167 16.001 18.1675C15.1728 18.1675 14.5014 17.4955 14.501 16.6675V10.0005C14.501 9.17206 15.1725 8.50049 16.001 8.50049Z" fill="currentColor"/>
<path d="M16 2.50049C23.4564 2.50049 29.5 8.54406 29.5 16.0005C29.4997 23.3401 23.6437 29.3107 16.3486 29.4956L16 29.5005L15.6514 29.4956C8.35627 29.3107 2.50026 23.3401 2.5 16.0005C2.5 8.54406 8.54357 2.50049 16 2.50049ZM16 5.50049C10.2004 5.50049 5.5 10.2009 5.5 16.0005C5.50026 21.7998 10.2006 26.5005 16 26.5005C21.7994 26.5005 26.4997 21.7998 26.5 16.0005C26.5 10.2009 21.7996 5.50049 16 5.50049Z" fill="currentColor"/>
</svg>
