<svg viewBox="0 0 32 32" fill="none" xmlns="http://www.w3.org/2000/svg">
<path d="M15.998 22.834L15.8799 22.8281L15.8779 22.8271C15.9176 22.8303 15.9576 22.834 15.998 22.834Z" fill="currentColor"/>
<path d="M16 4C22.628 4 28 9.372 28 16C28 22.628 22.628 28 16 28C9.372 28 4 22.628 4 16C4 9.372 9.372 4 16 4ZM15.8418 19.8428C14.9073 19.9222 14.1654 20.7032 14.167 21.668V21.6729L14.166 21.6787L14.167 21.6777C14.173 22.6851 14.9913 23.501 16 23.501C17.0118 23.5008 17.8323 22.6797 17.833 21.668C17.833 20.7039 17.0906 19.9209 16.1523 19.8428L16.1514 19.8418L15.998 19.834C15.9453 19.834 15.8932 19.8374 15.8418 19.8428ZM16 8.50098C15.1716 8.50098 14.5 9.17255 14.5 10.001V16.668C14.5007 17.4958 15.172 18.168 16 18.168C16.8278 18.1678 17.4993 17.4957 17.5 16.668V10.001C17.5 9.17266 16.8283 8.50115 16 8.50098Z" fill="currentColor"/>
</svg>
