<svg viewBox="0 0 16 16" fill="none" xmlns="http://www.w3.org/2000/svg">
<path d="M8.09229 9.92114C8.55375 9.96767 8.91634 10.3568 8.9165 10.8333C8.91637 11.3394 8.50564 11.7502 7.99951 11.7502C7.52522 11.7499 7.13529 11.389 7.08838 10.927L7.0835 10.8333C7.08296 10.3514 7.45374 9.96224 7.92041 9.92212C7.94623 9.91942 7.97298 9.91725 7.99951 9.91724L8.09229 9.92114Z" fill="currentColor"/>
<path d="M7.99951 4.25024C8.41373 4.25024 8.74951 4.58603 8.74951 5.00024V8.33325C8.74938 8.74735 8.41364 9.08325 7.99951 9.08325C7.58568 9.0829 7.24964 8.74714 7.24951 8.33325V5.00024C7.24951 4.58625 7.5856 4.2506 7.99951 4.25024Z" fill="currentColor"/>
<path d="M8.00049 1.25024C11.7285 1.25046 14.7505 4.27217 14.7505 8.00024C14.7504 11.6116 11.9145 14.5604 8.34814 14.7415L8.00049 14.7502L7.65283 14.7415C4.0863 14.5606 1.25062 11.6117 1.25049 8.00024C1.25049 4.27203 4.27227 1.25024 8.00049 1.25024ZM8.00049 2.75024C5.1007 2.75024 2.75049 5.10046 2.75049 8.00024C2.75062 10.8999 5.10078 13.2502 8.00049 13.2502C10.9 13.25 13.2504 10.8998 13.2505 8.00024C13.2505 5.10059 10.9001 2.75046 8.00049 2.75024Z" fill="currentColor"/>
</svg>
