<svg viewBox="0 0 24 24" fill="none" xmlns="http://www.w3.org/2000/svg">
<path d="M12.1016 15.0049L12.1064 15.0059C12.7452 15.0603 13.25 15.5936 13.25 16.25C13.25 16.9403 12.6903 17.5 12 17.5C11.3529 17.5 10.8209 17.0081 10.7568 16.3779L10.75 16.25C10.749 15.593 11.2542 15.0608 11.8906 15.0059C11.9262 15.002 11.9624 15 11.999 15L12.1016 15.0049Z" fill="currentColor"/>
<path d="M12 6.5C12.5523 6.5 13 6.94772 13 7.5V12.5C13 13.0523 12.5523 13.5 12 13.5C11.4477 13.5 11 13.0523 11 12.5V7.5C11 6.94772 11.4477 6.5 12 6.5Z" fill="currentColor"/>
<path d="M12 2C17.5233 2 22 6.47672 22 12C22 17.5233 17.5233 22 12 22C6.47672 22 2 17.5233 2 12C2 6.47672 6.47672 2 12 2ZM12 4C7.58128 4 4 7.58128 4 12C4 16.4187 7.58128 20 12 20C16.4187 20 20 16.4187 20 12C20 7.58128 16.4187 4 12 4Z" fill="currentColor"/>
</svg>
