<svg viewBox="0 0 24 24" fill="none" xmlns="http://www.w3.org/2000/svg">
<path d="M12 3C16.971 3 21 7.029 21 12C21 16.971 16.971 21 12 21C7.029 21 3 16.971 3 12C3 7.029 7.029 3 12 3ZM11.8906 15.0059C11.2542 15.0608 10.749 15.593 10.75 16.25L10.7568 16.3779C10.8209 17.0081 11.3529 17.5 12 17.5C12.6903 17.5 13.25 16.9403 13.25 16.25C13.25 15.5936 12.7452 15.0603 12.1064 15.0059L12.1016 15.0049L11.999 15C11.9624 15 11.9262 15.002 11.8906 15.0059ZM12 6.5C11.4477 6.5 11 6.94772 11 7.5V12.5C11 13.0523 11.4477 13.5 12 13.5C12.5523 13.5 13 13.0523 13 12.5V7.5C13 6.94772 12.5523 6.5 12 6.5Z" fill="currentColor"/>
</svg>
