<svg viewBox="0 0 16 16" fill="none" xmlns="http://www.w3.org/2000/svg">
<path d="M8 2C11.314 2 14 4.686 14 8C14 11.314 11.314 14 8 14C4.686 14 2 11.314 2 8C2 4.686 4.686 2 8 2ZM7.9209 9.92188C7.45422 9.96187 7.08361 10.3512 7.08398 10.833L7.08887 10.9268C7.1358 11.3888 7.52561 11.7498 8 11.75C8.50595 11.7498 8.91686 11.339 8.91699 10.833C8.91666 10.3569 8.55395 9.96758 8.09277 9.9209L8 9.91699C7.97354 9.917 7.94666 9.91919 7.9209 9.92188ZM8 4.25C7.58608 4.25022 7.25018 4.58607 7.25 5V8.33301C7.25013 8.74697 7.58605 9.08279 8 9.08301C8.41395 9.08279 8.74987 8.74697 8.75 8.33301V5C8.74982 4.58607 8.41392 4.25022 8 4.25Z" fill="currentColor"/>
</svg>
