<svg viewBox="0 0 32 32" fill="none" xmlns="http://www.w3.org/2000/svg">
<path d="M24.1572 19.6768L24.1582 19.6777C25.006 19.7559 25.6709 20.4677 25.6709 21.3359C25.6706 22.256 24.924 23.0026 24.0039 23.0029C23.141 23.0029 22.4311 22.3463 22.3457 21.5059L22.3369 21.3359L22.3457 21.165C22.4261 20.3755 23.0578 19.7505 23.8496 19.6777C23.9002 19.6726 23.952 19.6689 24.0039 19.6689L24.1572 19.6768ZM23.8672 22.6621L24.0039 22.6689C23.9573 22.6689 23.9108 22.6653 23.8652 22.6611L23.8672 22.6621Z" fill="currentColor"/>
<path d="M24.1572 14.3408L24.1582 14.3418C25.0061 14.42 25.6709 15.1317 25.6709 16C25.6709 16.9203 24.9242 17.6667 24.0039 17.667C23.1408 17.667 22.4309 17.0106 22.3457 16.1699L22.3369 16L22.3457 15.8291C22.4261 15.0396 23.0578 14.4145 23.8496 14.3418C23.9002 14.3366 23.952 14.333 24.0039 14.333L24.1572 14.3408ZM23.8672 17.3262L24.0039 17.333C23.9573 17.333 23.9108 17.3294 23.8652 17.3252L23.8672 17.3262Z" fill="currentColor"/>
<path d="M9.48438 19.6768L9.48535 19.6777C10.3332 19.7559 10.998 20.4677 10.998 21.3359C10.9978 22.2561 10.2512 23.0027 9.33105 23.0029C8.4681 23.0029 7.75824 22.3463 7.67285 21.5059L7.66406 21.3359L7.67285 21.165C7.75324 20.3755 8.38495 19.7505 9.17676 19.6777C9.22739 19.6726 9.27906 19.6689 9.33105 19.6689L9.48438 19.6768ZM9.19434 22.6621L9.33105 22.6689C9.2844 22.6689 9.23795 22.6653 9.19238 22.6611L9.19434 22.6621Z" fill="currentColor"/>
<path d="M14.8193 19.6768L14.8203 19.6777C15.6684 19.7557 16.333 20.4675 16.333 21.3359C16.3327 22.2562 15.5863 23.0029 14.666 23.0029C13.8031 23.0029 13.0932 22.3463 13.0078 21.5059L12.999 21.3359L13.0078 21.165C13.0882 20.3755 13.72 19.7505 14.5117 19.6777C14.5624 19.6726 14.614 19.669 14.666 19.6689L14.8193 19.6768ZM14.5293 22.6621L14.666 22.6689C14.6193 22.6689 14.573 22.6653 14.5273 22.6611L14.5293 22.6621Z" fill="currentColor"/>
<path d="M9.48438 14.3408L9.48535 14.3418C10.3333 14.4199 10.998 15.1317 10.998 16C10.998 16.9204 10.2514 17.6668 9.33105 17.667C8.46793 17.667 7.75802 17.0106 7.67285 16.1699L7.66406 16L7.67285 15.8291C7.75326 15.0396 8.38496 14.4145 9.17676 14.3418C9.22738 14.3366 9.27907 14.333 9.33105 14.333L9.48438 14.3408ZM9.19434 17.3262L9.33105 17.333C9.28439 17.333 9.23796 17.3294 9.19238 17.3252L9.19434 17.3262Z" fill="currentColor"/>
<path d="M14.8193 14.3408L14.8203 14.3418C15.6684 14.4197 16.333 15.1316 16.333 16C16.333 16.9205 15.5865 17.667 14.666 17.667C13.8029 17.6669 13.093 17.0106 13.0078 16.1699L12.999 16L13.0078 15.8291C13.0882 15.0396 13.72 14.4146 14.5117 14.3418C14.5624 14.3366 14.614 14.333 14.666 14.333L14.8193 14.3408ZM14.5293 17.3262L14.666 17.333C14.6193 17.333 14.573 17.3294 14.5273 17.3252L14.5293 17.3262Z" fill="currentColor"/>
<path d="M9.48438 9.00586L9.48535 9.00684C10.3332 9.08497 10.998 9.79675 10.998 10.665C10.9978 11.5852 10.2512 12.3318 9.33105 12.332C8.4681 12.332 7.75824 11.6754 7.67285 10.835L7.66406 10.665L7.67285 10.4941C7.75324 9.70458 8.38495 9.07956 9.17676 9.00684C9.22739 9.00167 9.27906 8.99805 9.33105 8.99805L9.48438 9.00586ZM9.19434 11.9912L9.33105 11.998C9.2844 11.998 9.23795 11.9944 9.19238 11.9902L9.19434 11.9912Z" fill="currentColor"/>
<path d="M14.8193 9.00586L14.8203 9.00684C15.6684 9.08478 16.333 9.79661 16.333 10.665C16.3327 11.5853 15.5863 12.332 14.666 12.332C13.8031 12.332 13.0932 11.6754 13.0078 10.835L12.999 10.665L13.0078 10.4941C13.0882 9.70463 13.72 9.07963 14.5117 9.00684C14.5624 9.00165 14.614 8.99805 14.666 8.99805L14.8193 9.00586ZM14.5293 11.9912L14.666 11.998C14.6193 11.998 14.573 11.9944 14.5273 11.9902L14.5293 11.9912Z" fill="currentColor"/>
<path d="M18.668 3.82812C20.233 3.82823 21.502 5.09804 21.502 6.66309V9.16504H26.6719C28.2367 9.16543 29.5049 10.4342 29.5049 11.999V25.3379C29.5046 26.9025 28.2365 28.1715 26.6719 28.1719H20.002C19.9955 28.1719 19.9888 28.171 19.9824 28.1709H5.3291C3.7643 28.1709 2.49563 26.9026 2.49512 25.3379V6.66309C2.49512 5.09797 3.76399 3.82812 5.3291 3.82812H18.668ZM21.502 25.1719H26.5049V12.165H21.502V25.1719ZM5.49512 25.1709H18.502V6.8291H5.49512V25.1709Z" fill="currentColor"/>
</svg>
