<svg viewBox="0 0 16 16" fill="none" xmlns="http://www.w3.org/2000/svg">
<path d="M13.5669 2.04242L8.23375 0.0424831C8.08335 -0.014161 7.91749 -0.014161 7.7671 0.0424831L2.43393 2.04242C2.30652 2.08987 2.19668 2.17513 2.11911 2.28678C2.04154 2.39843 1.99996 2.53112 1.99994 2.66707V15.3334C1.99994 15.5102 2.07017 15.6797 2.1952 15.8047C2.32022 15.9298 2.48978 16 2.66659 16H6.66646V13.0001C6.66646 12.9117 6.70158 12.8269 6.76409 12.7644C6.8266 12.7019 6.91138 12.6668 6.99979 12.6668H8.99973C9.08813 12.6668 9.17291 12.7019 9.23542 12.7644C9.29793 12.8269 9.33305 12.9117 9.33305 13.0001V16H13.3329C13.5097 16 13.6793 15.9298 13.8043 15.8047C13.9293 15.6797 13.9996 15.5102 13.9996 15.3334V2.66707C13.9997 2.53128 13.9583 2.3987 13.881 2.28707C13.8036 2.17544 13.6941 2.09008 13.5669 2.04242ZM4.99985 10.6668H4.3332C4.2448 10.6668 4.16002 10.6317 4.09751 10.5692C4.035 10.5067 3.99988 10.4219 3.99988 10.3335V9.00021C3.99988 8.91181 4.035 8.82702 4.09751 8.76451C4.16002 8.702 4.2448 8.66689 4.3332 8.66689H4.99985C5.08825 8.66689 5.17303 8.702 5.23554 8.76451C5.29805 8.82702 5.33317 8.91181 5.33317 9.00021V10.3335C5.33317 10.4219 5.29805 10.5067 5.23554 10.5692C5.17303 10.6317 5.08825 10.6668 4.99985 10.6668ZM4.99985 6.66695H4.3332C4.2448 6.66695 4.16002 6.63183 4.09751 6.56932C4.035 6.50681 3.99988 6.42203 3.99988 6.33362V5.00033C3.99988 4.91193 4.035 4.82715 4.09751 4.76464C4.16002 4.70213 4.2448 4.66701 4.3332 4.66701H4.99985C5.08825 4.66701 5.17303 4.70213 5.23554 4.76464C5.29805 4.82715 5.33317 4.91193 5.33317 5.00033V6.33362C5.33317 6.42203 5.29805 6.50681 5.23554 6.56932C5.17303 6.63183 5.08825 6.66695 4.99985 6.66695ZM8.33308 10.6668H7.66643C7.57803 10.6668 7.49325 10.6317 7.43074 10.5692C7.36823 10.5067 7.33311 10.4219 7.33311 10.3335V9.00021C7.33311 8.91181 7.36823 8.82702 7.43074 8.76451C7.49325 8.702 7.57803 8.66689 7.66643 8.66689H8.33308C8.42148 8.66689 8.50626 8.702 8.56877 8.76451C8.63128 8.82702 8.6664 8.91181 8.6664 9.00021V10.3335C8.6664 10.4219 8.63128 10.5067 8.56877 10.5692C8.50626 10.6317 8.42148 10.6668 8.33308 10.6668ZM8.33308 6.66695H7.66643C7.57803 6.66695 7.49325 6.63183 7.43074 6.56932C7.36823 6.50681 7.33311 6.42203 7.33311 6.33362V5.00033C7.33311 4.91193 7.36823 4.82715 7.43074 4.76464C7.49325 4.70213 7.57803 4.66701 7.66643 4.66701H8.33308C8.42148 4.66701 8.50626 4.70213 8.56877 4.76464C8.63128 4.82715 8.6664 4.91193 8.6664 5.00033V6.33362C8.6664 6.42203 8.63128 6.50681 8.56877 6.56932C8.50626 6.63183 8.42148 6.66695 8.33308 6.66695ZM11.6663 10.6668H10.9997C10.9113 10.6668 10.8265 10.6317 10.764 10.5692C10.7015 10.5067 10.6663 10.4219 10.6663 10.3335V9.00021C10.6663 8.91181 10.7015 8.82702 10.764 8.76451C10.8265 8.702 10.9113 8.66689 10.9997 8.66689H11.6663C11.7547 8.66689 11.8395 8.702 11.902 8.76451C11.9645 8.82702 11.9996 8.91181 11.9996 9.00021V10.3335C11.9996 10.4219 11.9645 10.5067 11.902 10.5692C11.8395 10.6317 11.7547 10.6668 11.6663 10.6668ZM11.6663 6.66695H10.9997C10.9113 6.66695 10.8265 6.63183 10.764 6.56932C10.7015 6.50681 10.6663 6.42203 10.6663 6.33362V5.00033C10.6663 4.91193 10.7015 4.82715 10.764 4.76464C10.8265 4.70213 10.9113 4.66701 10.9997 4.66701H11.6663C11.7547 4.66701 11.8395 4.70213 11.902 4.76464C11.9645 4.82715 11.9996 4.91193 11.9996 5.00033V6.33362C11.9996 6.42203 11.9645 6.50681 11.902 6.56932C11.8395 6.63183 11.7547 6.66695 11.6663 6.66695Z" fill="currentColor"/>
</svg>
