<svg viewBox="0 0 24 24" fill="none" xmlns="http://www.w3.org/2000/svg">
<path d="M20.3504 3.06363L12.3506 0.0637247C12.125 -0.0212416 11.8762 -0.0212416 11.6506 0.0637247L3.65089 3.06363C3.45979 3.1348 3.29501 3.2627 3.17866 3.43017C3.0623 3.59764 2.99993 3.79668 2.99991 4.0006V23C2.99991 23.2652 3.10526 23.5196 3.29279 23.7071C3.48032 23.8946 3.73467 24 3.99988 24H9.99969V19.5001C9.99969 19.3675 10.0524 19.2404 10.1461 19.1466C10.2399 19.0528 10.3671 19.0001 10.4997 19.0001H13.4996C13.6322 19.0001 13.7594 19.0528 13.8531 19.1466C13.9469 19.2404 13.9996 19.3675 13.9996 19.5001V24H19.9994C20.2646 24 20.5189 23.8946 20.7065 23.7071C20.894 23.5196 20.9994 23.2652 20.9994 23V4.0006C20.9995 3.79692 20.9374 3.59805 20.8214 3.43061C20.7055 3.26316 20.5411 3.13513 20.3504 3.06363ZM7.49977 16.0002H6.4998C6.3672 16.0002 6.24002 15.9476 6.14626 15.8538C6.05249 15.76 5.99982 15.6329 5.99982 15.5003V13.5003C5.99982 13.3677 6.05249 13.2405 6.14626 13.1468C6.24002 13.053 6.3672 13.0003 6.4998 13.0003H7.49977C7.63238 13.0003 7.75955 13.053 7.85331 13.1468C7.94708 13.2405 7.99976 13.3677 7.99976 13.5003V15.5003C7.99976 15.6329 7.94708 15.76 7.85331 15.8538C7.75955 15.9476 7.63238 16.0002 7.49977 16.0002ZM7.49977 10.0004H6.4998C6.3672 10.0004 6.24002 9.94775 6.14626 9.85398C6.05249 9.76021 5.99982 9.63304 5.99982 9.50044V7.5005C5.99982 7.36789 6.05249 7.24072 6.14626 7.14696C6.24002 7.05319 6.3672 7.00051 6.4998 7.00051H7.49977C7.63238 7.00051 7.75955 7.05319 7.85331 7.14696C7.94708 7.24072 7.99976 7.36789 7.99976 7.5005V9.50044C7.99976 9.63304 7.94708 9.76021 7.85331 9.85398C7.75955 9.94775 7.63238 10.0004 7.49977 10.0004ZM12.4996 16.0002H11.4996C11.367 16.0002 11.2399 15.9476 11.1461 15.8538C11.0523 15.76 10.9997 15.6329 10.9997 15.5003V13.5003C10.9997 13.3677 11.0523 13.2405 11.1461 13.1468C11.2399 13.053 11.367 13.0003 11.4996 13.0003H12.4996C12.6322 13.0003 12.7594 13.053 12.8532 13.1468C12.9469 13.2405 12.9996 13.3677 12.9996 13.5003V15.5003C12.9996 15.6329 12.9469 15.76 12.8532 15.8538C12.7594 15.9476 12.6322 16.0002 12.4996 16.0002ZM12.4996 10.0004H11.4996C11.367 10.0004 11.2399 9.94775 11.1461 9.85398C11.0523 9.76021 10.9997 9.63304 10.9997 9.50044V7.5005C10.9997 7.36789 11.0523 7.24072 11.1461 7.14696C11.2399 7.05319 11.367 7.00051 11.4996 7.00051H12.4996C12.6322 7.00051 12.7594 7.05319 12.8532 7.14696C12.9469 7.24072 12.9996 7.36789 12.9996 7.5005V9.50044C12.9996 9.63304 12.9469 9.76021 12.8532 9.85398C12.7594 9.94775 12.6322 10.0004 12.4996 10.0004ZM17.4995 16.0002H16.4995C16.3669 16.0002 16.2397 15.9476 16.146 15.8538C16.0522 15.76 15.9995 15.6329 15.9995 15.5003V13.5003C15.9995 13.3677 16.0522 13.2405 16.146 13.1468C16.2397 13.053 16.3669 13.0003 16.4995 13.0003H17.4995C17.6321 13.0003 17.7592 13.053 17.853 13.1468C17.9468 13.2405 17.9995 13.3677 17.9995 13.5003V15.5003C17.9995 15.6329 17.9468 15.76 17.853 15.8538C17.7592 15.9476 17.6321 16.0002 17.4995 16.0002ZM17.4995 10.0004H16.4995C16.3669 10.0004 16.2397 9.94775 16.146 9.85398C16.0522 9.76021 15.9995 9.63304 15.9995 9.50044V7.5005C15.9995 7.36789 16.0522 7.24072 16.146 7.14696C16.2397 7.05319 16.3669 7.00051 16.4995 7.00051H17.4995C17.6321 7.00051 17.7592 7.05319 17.853 7.14696C17.9468 7.24072 17.9995 7.36789 17.9995 7.5005V9.50044C17.9995 9.63304 17.9468 9.76021 17.853 9.85398C17.7592 9.94775 17.6321 10.0004 17.4995 10.0004Z" fill="currentColor"/>
</svg>
