<svg viewBox="0 0 24 24" fill="none" xmlns="http://www.w3.org/2000/svg">
<path d="M7.10059 14.882L7.10352 14.8829C7.67521 14.9362 8.12294 15.4165 8.12305 16.0021C8.12278 16.6231 7.61906 17.1269 6.99805 17.1271C6.4158 17.127 5.93675 16.6843 5.87891 16.1173L5.87305 16.0021L5.87891 15.8868C5.9332 15.3541 6.35939 14.9323 6.89355 14.8829C6.92781 14.8794 6.96286 14.8771 6.99805 14.8771L7.10059 14.882ZM6.90918 16.8732L6.99805 16.8771C6.96688 16.8771 6.93571 16.875 6.90527 16.8722L6.90918 16.8732Z" fill="currentColor"/>
<path d="M11.1016 14.882L11.1045 14.8829C11.6764 14.936 12.1239 15.4163 12.124 16.0021C12.1238 16.6232 11.6202 17.1271 10.999 17.1271C10.4169 17.1268 9.93768 16.6842 9.87988 16.1173L9.87402 16.0021L9.87988 15.8868C9.93416 15.3543 10.3606 14.9324 10.8945 14.8829C10.9288 14.8794 10.9639 14.8771 10.999 14.8771L11.1016 14.882ZM10.9102 16.8732L10.999 16.8771C10.9678 16.8771 10.9367 16.875 10.9062 16.8722L10.9102 16.8732Z" fill="currentColor"/>
<path d="M7.10059 10.88L7.10352 10.881C7.67522 10.9343 8.12294 11.4145 8.12305 12.0001C8.12292 12.6212 7.61915 13.1249 6.99805 13.1251C6.41572 13.125 5.93664 12.6825 5.87891 12.1154L5.87305 12.0001L5.87891 11.8849C5.9332 11.3522 6.35939 10.9303 6.89355 10.881C6.9278 10.8774 6.96286 10.8751 6.99805 10.8751L7.10059 10.88ZM6.90918 12.8712L6.99805 12.8751C6.96687 12.8751 6.93572 12.873 6.90527 12.8702L6.90918 12.8712Z" fill="currentColor"/>
<path d="M11.1016 10.88L11.1045 10.881C11.6764 10.9341 12.1239 11.4144 12.124 12.0001C12.1239 12.6214 11.6203 13.1251 10.999 13.1251C10.4168 13.1248 9.93757 12.6824 9.87988 12.1154L9.87402 12.0001L9.87988 11.8849C9.93416 11.3523 10.3605 10.9305 10.8945 10.881C10.9288 10.8774 10.9639 10.8751 10.999 10.8751L11.1016 10.88ZM10.9102 12.8712L10.999 12.8751C10.9678 12.8751 10.9367 12.873 10.9062 12.8702L10.9102 12.8712Z" fill="currentColor"/>
<path d="M7.10059 6.87805L7.10352 6.87903C7.67523 6.9323 8.12294 7.41256 8.12305 7.99817C8.12305 8.6194 7.61923 9.12297 6.99805 9.12317C6.41563 9.12306 5.93652 8.68064 5.87891 8.1134L5.87305 7.99817L5.87891 7.88293C5.93321 7.35023 6.3594 6.92836 6.89355 6.87903C6.92779 6.87547 6.96287 6.87318 6.99805 6.87317L7.10059 6.87805ZM6.90918 8.86926L6.99805 8.87317C6.96687 8.87316 6.93573 8.87109 6.90527 8.86829L6.90918 8.86926Z" fill="currentColor"/>
<path d="M11.1016 6.87805L11.1045 6.87903C11.6764 6.93213 12.1239 7.41244 12.124 7.99817C12.124 8.61952 11.6204 9.12317 10.999 9.12317C10.4168 9.12288 9.93747 8.68054 9.87988 8.1134L9.87402 7.99817L9.87988 7.88293C9.93416 7.35034 10.3605 6.92852 10.8945 6.87903C10.9288 6.87547 10.9639 6.87319 10.999 6.87317L11.1016 6.87805ZM10.9102 8.86926L10.999 8.87317C10.9678 8.87315 10.9367 8.8711 10.9062 8.86829L10.9102 8.86926Z" fill="currentColor"/>
<path d="M18.1045 14.882L18.1074 14.8829C18.6793 14.936 19.1268 15.4163 19.127 16.0021C19.1267 16.6232 18.6231 17.1271 18.002 17.1271C17.4198 17.1268 16.9406 16.6842 16.8828 16.1173L16.877 16.0021L16.8828 15.8868C16.9371 15.3543 17.3635 14.9324 17.8975 14.8829C17.9317 14.8794 17.9668 14.8771 18.002 14.8771L18.1045 14.882ZM17.9131 16.8732L18.002 16.8771C17.9708 16.8771 17.9396 16.875 17.9092 16.8722L17.9131 16.8732Z" fill="currentColor"/>
<path d="M18.1045 10.88L18.1074 10.881C18.6793 10.9341 19.1268 11.4144 19.127 12.0001C19.1268 12.6214 18.6232 13.1251 18.002 13.1251C17.4198 13.1248 16.9405 12.6824 16.8828 12.1154L16.877 12.0001L16.8828 11.8849C16.9371 11.3523 17.3635 10.9305 17.8975 10.881C17.9317 10.8774 17.9668 10.8751 18.002 10.8751L18.1045 10.88ZM17.9131 12.8712L18.002 12.8751C17.9708 12.8751 17.9396 12.873 17.9092 12.8702L17.9131 12.8712Z" fill="currentColor"/>
<path d="M14.001 2.99622C15.1055 2.99638 16.0008 3.89268 16.001 4.99719V6.99817H20.0029C21.1075 6.99817 22.0035 7.89367 22.0039 8.99817V19.0031C22.0037 20.1077 21.1076 21.0031 20.0029 21.0031H15.0186C15.0128 21.0032 15.0068 21.004 15.001 21.004H3.99609C2.89173 21.0037 1.99636 20.1074 1.99609 19.0031V4.99719C1.99632 3.89278 2.89171 2.99654 3.99609 2.99622H14.001ZM3.99609 19.004H14.001V4.99719H3.99609V19.004ZM16.001 19.0031H20.0039V8.99817H16.001V19.0031Z" fill="currentColor"/>
</svg>
