<svg viewBox="0 0 32 32" fill="none" xmlns="http://www.w3.org/2000/svg">
<path d="M27.1338 4.08484L16.4675 0.0849662C16.1667 -0.0283221 15.835 -0.0283221 15.5342 0.0849662L4.86785 4.08484C4.61305 4.17974 4.39335 4.35026 4.23821 4.57356C4.08307 4.79685 3.99991 5.06224 3.99988 5.33414V30.6667C3.99988 31.0203 4.14035 31.3594 4.39039 31.6095C4.64043 31.8595 4.97956 32 5.33317 32H13.3329V26.0002C13.3329 25.8234 13.4032 25.6538 13.5282 25.5288C13.6532 25.4038 13.8228 25.3335 13.9996 25.3335H17.9995C18.1763 25.3335 18.3458 25.4038 18.4708 25.5288C18.5959 25.6538 18.6661 25.8234 18.6661 26.0002V32H26.6659C27.0195 32 27.3586 31.8595 27.6086 31.6095C27.8587 31.3594 27.9991 31.0203 27.9991 30.6667V5.33414C27.9993 5.06256 27.9165 4.7974 27.7619 4.57414C27.6073 4.35088 27.3881 4.18017 27.1338 4.08484ZM9.99969 21.3337H8.6664C8.4896 21.3337 8.32003 21.2634 8.19501 21.1384C8.06999 21.0134 7.99976 20.8438 7.99976 20.667V18.0004C7.99976 17.8236 8.06999 17.654 8.19501 17.529C8.32003 17.404 8.4896 17.3338 8.6664 17.3338H9.99969C10.1765 17.3338 10.3461 17.404 10.4711 17.529C10.5961 17.654 10.6663 17.8236 10.6663 18.0004V20.667C10.6663 20.8438 10.5961 21.0134 10.4711 21.1384C10.3461 21.2634 10.1765 21.3337 9.99969 21.3337ZM9.99969 13.3339H8.6664C8.4896 13.3339 8.32003 13.2637 8.19501 13.1386C8.06999 13.0136 7.99976 12.8441 7.99976 12.6672V10.0007C7.99976 9.82386 8.06999 9.65429 8.19501 9.52927C8.32003 9.40425 8.4896 9.33402 8.6664 9.33402H9.99969C10.1765 9.33402 10.3461 9.40425 10.4711 9.52927C10.5961 9.65429 10.6663 9.82386 10.6663 10.0007V12.6672C10.6663 12.8441 10.5961 13.0136 10.4711 13.1386C10.3461 13.2637 10.1765 13.3339 9.99969 13.3339ZM16.6662 21.3337H15.3329C15.1561 21.3337 14.9865 21.2634 14.8615 21.1384C14.7365 21.0134 14.6662 20.8438 14.6662 20.667V18.0004C14.6662 17.8236 14.7365 17.654 14.8615 17.529C14.9865 17.404 15.1561 17.3338 15.3329 17.3338H16.6662C16.843 17.3338 17.0125 17.404 17.1375 17.529C17.2626 17.654 17.3328 17.8236 17.3328 18.0004V20.667C17.3328 20.8438 17.2626 21.0134 17.1375 21.1384C17.0125 21.2634 16.843 21.3337 16.6662 21.3337ZM16.6662 13.3339H15.3329C15.1561 13.3339 14.9865 13.2637 14.8615 13.1386C14.7365 13.0136 14.6662 12.8441 14.6662 12.6672V10.0007C14.6662 9.82386 14.7365 9.65429 14.8615 9.52927C14.9865 9.40425 15.1561 9.33402 15.3329 9.33402H16.6662C16.843 9.33402 17.0125 9.40425 17.1375 9.52927C17.2626 9.65429 17.3328 9.82386 17.3328 10.0007V12.6672C17.3328 12.8441 17.2626 13.0136 17.1375 13.1386C17.0125 13.2637 16.843 13.3339 16.6662 13.3339ZM23.3326 21.3337H21.9993C21.8225 21.3337 21.653 21.2634 21.5279 21.1384C21.4029 21.0134 21.3327 20.8438 21.3327 20.667V18.0004C21.3327 17.8236 21.4029 17.654 21.5279 17.529C21.653 17.404 21.8225 17.3338 21.9993 17.3338H23.3326C23.5094 17.3338 23.679 17.404 23.804 17.529C23.929 17.654 23.9993 17.8236 23.9993 18.0004V20.667C23.9993 20.8438 23.929 21.0134 23.804 21.1384C23.679 21.2634 23.5094 21.3337 23.3326 21.3337ZM23.3326 13.3339H21.9993C21.8225 13.3339 21.653 13.2637 21.5279 13.1386C21.4029 13.0136 21.3327 12.8441 21.3327 12.6672V10.0007C21.3327 9.82386 21.4029 9.65429 21.5279 9.52927C21.653 9.40425 21.8225 9.33402 21.9993 9.33402H23.3326C23.5094 9.33402 23.679 9.40425 23.804 9.52927C23.929 9.65429 23.9993 9.82386 23.9993 10.0007V12.6672C23.9993 12.8441 23.929 13.0136 23.804 13.1386C23.679 13.2637 23.5094 13.3339 23.3326 13.3339Z" fill="currentColor"/>
</svg>
