<svg viewBox="0 0 16 16" fill="none" xmlns="http://www.w3.org/2000/svg">
<path d="M4.74219 9.83899L4.74609 9.83997C5.16823 9.88063 5.49879 10.2353 5.49902 10.6681C5.49876 11.1281 5.12505 11.502 4.66504 11.5021C4.23404 11.5018 3.87995 11.1737 3.83691 10.754L3.83203 10.6681L3.83691 10.5831C3.87698 10.1898 4.19016 9.87824 4.58398 9.83997C4.61058 9.83709 4.63768 9.8351 4.66504 9.83508L4.74219 9.83899Z" fill="currentColor"/>
<path d="M7.41016 9.83899L7.41406 9.83997C7.83612 9.88072 8.16676 10.2354 8.16699 10.6681C8.16673 11.128 7.79293 11.5019 7.33301 11.5021C6.90201 11.5018 6.54793 11.1737 6.50488 10.754L6.5 10.6681L6.50488 10.5831C6.54495 10.1898 6.85813 9.87824 7.25195 9.83997C7.27849 9.8371 7.30571 9.8351 7.33301 9.83508L7.41016 9.83899Z" fill="currentColor"/>
<path d="M4.74219 7.17102L4.74609 7.172C5.16823 7.21267 5.49879 7.56737 5.49902 8.00012C5.49876 8.46009 5.12505 8.83401 4.66504 8.83411C4.23404 8.83387 3.87995 8.50575 3.83691 8.08606L3.83203 8.00012L3.83691 7.91516C3.87698 7.52187 4.19016 7.21027 4.58398 7.172C4.61058 7.16912 4.63768 7.16713 4.66504 7.16711L4.74219 7.17102Z" fill="currentColor"/>
<path d="M7.41016 7.17102L7.41406 7.172C7.83612 7.21275 8.16676 7.56743 8.16699 8.00012C8.16673 8.46003 7.79293 8.83391 7.33301 8.83411C6.90201 8.83387 6.54793 8.50574 6.50488 8.08606L6.5 8.00012L6.50488 7.91516C6.54495 7.52187 6.85813 7.21027 7.25195 7.172C7.27849 7.16913 7.30571 7.16713 7.33301 7.16711L7.41016 7.17102Z" fill="currentColor"/>
<path d="M4.74219 4.50305L4.74609 4.50403C5.16825 4.54469 5.49879 4.89939 5.49902 5.33215C5.49889 5.79224 5.12513 6.16604 4.66504 6.16614C4.23395 6.1659 3.87984 5.8379 3.83691 5.41809L3.83203 5.33215L3.83691 5.24719C3.87698 4.8539 4.19016 4.5423 4.58398 4.50403C4.61057 4.50116 4.63769 4.49916 4.66504 4.49915L4.74219 4.50305Z" fill="currentColor"/>
<path d="M7.41016 4.50305L7.41406 4.50403C7.83613 4.54477 8.16676 4.89946 8.16699 5.33215C8.16686 5.79218 7.79302 6.16594 7.33301 6.16614C6.90193 6.1659 6.54782 5.83789 6.50488 5.41809L6.5 5.33215L6.50488 5.24719C6.54495 4.8539 6.85813 4.5423 7.25195 4.50403C7.27848 4.50117 7.30572 4.49916 7.33301 4.49915L7.41016 4.50305Z" fill="currentColor"/>
<path d="M12.0781 9.83899L12.082 9.83997C12.5043 9.88053 12.8347 10.2353 12.835 10.6681C12.8347 11.1281 12.4611 11.5021 12.001 11.5021C11.5701 11.5017 11.2159 11.1737 11.1729 10.754L11.168 10.6681L11.1729 10.5831C11.2129 10.1899 11.5262 9.87836 11.9199 9.83997C11.9465 9.83709 11.9737 9.83511 12.001 9.83508L12.0781 9.83899Z" fill="currentColor"/>
<path d="M12.0781 7.17102L12.082 7.172C12.5043 7.21256 12.8347 7.56729 12.835 8.00012C12.8347 8.46015 12.4611 8.83411 12.001 8.83411C11.5701 8.83375 11.2159 8.50569 11.1729 8.08606L11.168 8.00012L11.1729 7.91516C11.2129 7.52196 11.5262 7.21039 11.9199 7.172C11.9465 7.16912 11.9737 7.16714 12.001 7.16711L12.0781 7.17102Z" fill="currentColor"/>
<path d="M9.33301 1.91418C10.1155 1.91418 10.7499 2.54873 10.75 3.33118V4.58215H13.3359C14.1182 4.58235 14.7528 5.21682 14.7529 5.99915V12.6681C14.7529 13.4505 14.1183 14.0849 13.3359 14.0851H10.001H2.66406C1.8817 14.0849 1.24707 13.4505 1.24707 12.6681V3.33118C1.2472 2.54887 1.88178 1.91442 2.66406 1.91418H9.33301ZM2.74707 12.5851H9.25V3.41418H2.74707V12.5851ZM10.751 12.5851H13.2529V6.08215H10.751V12.5851Z" fill="currentColor"/>
</svg>
