<svg viewBox="0 0 16 16" fill="none" xmlns="http://www.w3.org/2000/svg">
<path d="M11.9149 6.19336C12.1549 6.48788 12.1375 6.9218 11.8632 7.19629C11.5885 7.47088 11.1538 7.48847 10.8593 7.24805L10.8026 7.19629L8.74991 5.14355L8.74991 12.666L8.746 12.7432C8.70756 13.1212 8.38805 13.4159 7.99991 13.416C7.61185 13.4158 7.29229 13.1211 7.25382 12.7432L7.24991 12.666L7.24991 5.14355L5.19718 7.19629L5.13956 7.24805C4.84498 7.48816 4.41116 7.47082 4.13663 7.19629C3.86232 6.92174 3.84483 6.48785 4.08487 6.19336L4.13663 6.13574L7.46964 2.80273L7.52628 2.75098L7.56729 2.72168C7.57946 2.71305 7.5927 2.70615 7.60538 2.69824C7.63342 2.68079 7.66168 2.66476 7.69132 2.65137C7.6986 2.64806 7.7054 2.6437 7.7128 2.64062C7.72013 2.63759 7.72786 2.63561 7.73526 2.63281C7.76379 2.62206 7.79277 2.61359 7.82218 2.60645C7.83785 2.60262 7.8532 2.59753 7.86905 2.59473C7.91154 2.58722 7.95527 2.58303 7.99991 2.58301C8.00891 2.58301 8.01833 2.58367 8.02725 2.58398C8.03345 2.58421 8.03962 2.58458 8.04581 2.58496C8.07525 2.58673 8.10429 2.58966 8.13272 2.59473C8.14095 2.59619 8.14895 2.59884 8.15714 2.60059C8.18533 2.60662 8.21267 2.6157 8.24014 2.625C8.25408 2.6297 8.26845 2.63312 8.28214 2.63867L8.2919 2.64258L8.29581 2.64355C8.33066 2.6585 8.36368 2.67778 8.39639 2.69824C8.4029 2.70231 8.41049 2.7047 8.4169 2.70898C8.42192 2.71234 8.4266 2.71623 8.43155 2.71973C8.46618 2.74412 8.4992 2.77178 8.53018 2.80273L11.8632 6.13574L11.9149 6.19336Z" fill="currentColor"/>
</svg>
