<svg viewBox="0 0 24 24" fill="none" xmlns="http://www.w3.org/2000/svg">
<path d="M7.68172 17.7256C7.289 18.0462 6.70909 18.0233 6.34285 17.6572C5.97698 17.2912 5.95436 16.712 6.27449 16.3193L6.34285 16.2432L14.5362 8.0498H9.95028C9.39799 8.0498 8.95028 7.60209 8.95028 7.0498C8.95046 6.49767 9.3981 6.0498 9.95028 6.0498H16.9503C17.0157 6.04982 17.0812 6.05655 17.1456 6.06934L17.1514 6.07031C17.1717 6.07445 17.1913 6.08061 17.211 6.08594C17.2208 6.08857 17.2306 6.09082 17.2403 6.09375C17.2509 6.09695 17.2611 6.10095 17.2716 6.10449C17.3523 6.13186 17.4301 6.16922 17.503 6.21777C17.6119 6.29025 17.7062 6.38284 17.7794 6.49121L17.7852 6.5C17.7906 6.50817 17.7948 6.5171 17.7999 6.52539C17.8271 6.56935 17.8519 6.61495 17.8722 6.66309C17.8793 6.68014 17.8855 6.69749 17.8917 6.71484C17.9071 6.75822 17.9204 6.80273 17.9298 6.84863L17.9317 6.8584C17.944 6.92155 17.9503 6.9857 17.9503 7.0498V14.0498C17.9503 14.602 17.5024 15.0497 16.9503 15.0498C16.398 15.0498 15.9503 14.6021 15.9503 14.0498V9.46387L7.75692 17.6572L7.68172 17.7256Z" fill="currentColor"/>
</svg>
