<svg viewBox="0 0 24 24" fill="none" xmlns="http://www.w3.org/2000/svg">
<path d="M16.3184 17.7256C16.7111 18.0462 17.291 18.0233 17.6572 17.6572C18.0231 17.2912 18.0457 16.712 17.7256 16.3193L17.6572 16.2432L9.46387 8.0498H14.0498C14.6021 8.0498 15.0498 7.60209 15.0498 7.0498C15.0496 6.49767 14.602 6.0498 14.0498 6.0498H7.0498C6.98435 6.04982 6.91893 6.05655 6.85449 6.06934L6.84863 6.07031C6.82842 6.07445 6.80881 6.08061 6.78906 6.08594C6.7793 6.08857 6.76946 6.09082 6.75977 6.09375C6.74919 6.09695 6.73894 6.10095 6.72852 6.10449C6.64781 6.13186 6.57 6.16922 6.49707 6.21777C6.38819 6.29025 6.29388 6.38284 6.2207 6.49121L6.21484 6.5C6.20945 6.50817 6.20532 6.5171 6.2002 6.52539C6.173 6.56935 6.14816 6.61495 6.12793 6.66309C6.12079 6.68014 6.11455 6.69749 6.1084 6.71484C6.09295 6.75822 6.0797 6.80273 6.07031 6.84863L6.06836 6.8584C6.05612 6.92155 6.0498 6.9857 6.0498 7.0498V14.0498C6.0498 14.602 6.49763 15.0497 7.0498 15.0498C7.60209 15.0498 8.0498 14.6021 8.0498 14.0498V9.46387L16.2432 17.6572L16.3184 17.7256Z" fill="currentColor"/>
</svg>
