<svg viewBox="0 0 16 16" fill="none" xmlns="http://www.w3.org/2000/svg">
<path d="M5.17293 4.11816C4.87843 3.87821 4.44451 3.89561 4.17 4.16992C3.8956 4.44459 3.87785 4.87933 4.11825 5.17382L4.17 5.23046L9.48934 10.5498H6.63289L6.55672 10.5537C6.17863 10.5921 5.88306 10.9116 5.88289 11.2998C5.88308 11.688 6.17864 12.0075 6.55672 12.0459L6.63289 12.0498H11.2999L11.377 12.0459C11.5093 12.0324 11.6306 11.9834 11.7335 11.9101C11.7671 11.8862 11.8 11.8602 11.8302 11.8301C11.8615 11.7987 11.8895 11.7646 11.9141 11.7295C11.9176 11.7245 11.9215 11.7199 11.9249 11.7148C11.9344 11.7006 11.9409 11.6846 11.9493 11.6699C11.965 11.6425 11.9811 11.6153 11.9932 11.5859C11.9999 11.5698 12.0034 11.5526 12.0089 11.5361C12.0337 11.4616 12.0508 11.3826 12.0509 11.2998V6.63281C12.0507 6.21883 11.7139 5.88298 11.2999 5.88281C10.886 5.88307 10.55 6.21888 10.5499 6.63281V9.48925L5.23055 4.16992L5.17293 4.11816Z" fill="currentColor"/>
</svg>
