<svg viewBox="0 0 32 32" fill="none" xmlns="http://www.w3.org/2000/svg">
<path d="M26.7939 26.7559C27.4243 26.8198 27.9159 27.3528 27.916 28C27.9159 28.6471 27.4243 29.1793 26.7939 29.2432L26.666 29.25H5.33301C4.64293 29.2498 4.08318 28.6901 4.08301 28C4.08314 27.3099 4.6429 26.7502 5.33301 26.75H26.666L26.7939 26.7559Z" fill="currentColor"/>
<path d="M16 2.75C16.647 2.75016 17.1791 3.24194 17.2432 3.87207L17.25 4V19.6484L21.7832 15.1162L21.8779 15.0303C22.3689 14.6299 23.0932 14.6586 23.5508 15.1162C24.0083 15.5738 24.037 16.2981 23.6367 16.7891L23.5508 16.8838L16.8828 23.5518C16.8764 23.5581 16.8688 23.5631 16.8623 23.5693C16.8458 23.5851 16.8289 23.6004 16.8115 23.6152C16.7989 23.6261 16.7865 23.6371 16.7734 23.6475C16.7573 23.6602 16.7404 23.6717 16.7236 23.6836C16.7059 23.6963 16.6883 23.709 16.6699 23.7207C16.6587 23.7278 16.6472 23.7344 16.6357 23.7412C16.6141 23.754 16.5926 23.7668 16.5703 23.7783C16.555 23.7862 16.5391 23.7926 16.5234 23.7998C16.5042 23.8087 16.4854 23.8183 16.4658 23.8262C16.4526 23.8315 16.4392 23.836 16.4258 23.8408C16.2901 23.8902 16.1462 23.9179 15.999 23.918C15.7088 23.918 15.4285 23.8172 15.2061 23.6348L15.1143 23.5518L8.44824 16.8838L8.3623 16.7891C7.96181 16.2981 7.99059 15.5739 8.44824 15.1162C8.90592 14.6586 9.63017 14.6298 10.1211 15.0303L10.2158 15.1162L14.75 19.6504V4C14.75 3.30977 15.3098 2.7502 16 2.75Z" fill="currentColor"/>
</svg>
