<svg viewBox="0 0 24 24" fill="none" xmlns="http://www.w3.org/2000/svg">
<path d="M9.36914 6.22486C9.76191 5.90451 10.3409 5.92711 10.707 6.29322C11.073 6.65934 11.0957 7.23838 10.7754 7.63111L10.707 7.70729L7.41406 11.0003H19C19.5523 11.0003 20 11.448 20 12.0003C19.9999 12.5524 19.5522 13.0003 19 13.0003H7.41406L10.707 16.2932L10.7754 16.3694C11.0956 16.7622 11.0731 17.3412 10.707 17.7073C10.3409 18.0733 9.76187 18.0959 9.36914 17.7756L9.29297 17.7073L4.29297 12.7073L4.22461 12.6311C4.22024 12.6258 4.21616 12.6199 4.21191 12.6145C4.19657 12.5949 4.18184 12.5748 4.16797 12.554C4.15115 12.5288 4.13538 12.5031 4.12109 12.4768C4.11998 12.4748 4.11829 12.473 4.11719 12.471C4.109 12.4556 4.10206 12.4397 4.09473 12.4241C4.07465 12.3813 4.0569 12.3371 4.04297 12.2913C4.03789 12.2745 4.03445 12.2574 4.03027 12.2405C4.02769 12.2301 4.0247 12.2197 4.02246 12.2092C4.0195 12.1953 4.01702 12.1813 4.01465 12.1672C4.01201 12.1517 4.00971 12.136 4.00781 12.1204C4.00572 12.1029 4.00411 12.0854 4.00293 12.0676C4.00185 12.0517 4.0013 12.0358 4.00098 12.0198C4.00085 12.0133 4 12.0068 4 12.0003C4 11.9935 4.00084 11.9865 4.00098 11.9797C4.00133 11.9618 4.00162 11.9439 4.00293 11.926C4.00425 11.908 4.00555 11.8901 4.00781 11.8723C4.00915 11.8618 4.012 11.8515 4.01367 11.8411C4.02881 11.7464 4.05694 11.6564 4.09668 11.5725C4.10445 11.5561 4.11238 11.5397 4.12109 11.5237C4.12914 11.5089 4.13763 11.4942 4.14648 11.4797C4.15362 11.4681 4.16031 11.456 4.16797 11.4446C4.2045 11.39 4.24669 11.3395 4.29297 11.2932L9.29297 6.29322L9.36914 6.22486Z" fill="currentColor"/>
</svg>
