<svg viewBox="0 0 16 16" fill="none" xmlns="http://www.w3.org/2000/svg">
<path d="M11.9149 9.80664C12.1549 9.51212 12.1375 9.0782 11.8632 8.80371C11.5885 8.52912 11.1538 8.51153 10.8593 8.75195L10.8026 8.80371L8.74991 10.8564L8.74991 3.33398L8.746 3.25684C8.70756 2.8788 8.38805 2.58415 7.99991 2.58398C7.61185 2.58422 7.29229 2.87888 7.25382 3.25684L7.24991 3.33398L7.24991 10.8564L5.19718 8.80371L5.13956 8.75195C4.84498 8.51184 4.41116 8.52918 4.13663 8.80371C3.86232 9.07826 3.84483 9.51215 4.08487 9.80664L4.13663 9.86426L7.46964 13.1973L7.52628 13.249L7.56729 13.2783C7.57946 13.2869 7.5927 13.2939 7.60538 13.3018C7.63342 13.3192 7.66168 13.3352 7.69132 13.3486C7.6986 13.3519 7.7054 13.3563 7.7128 13.3594C7.72013 13.3624 7.72786 13.3644 7.73526 13.3672C7.76379 13.3779 7.79277 13.3864 7.82218 13.3936C7.83785 13.3974 7.8532 13.4025 7.86905 13.4053C7.91154 13.4128 7.95527 13.417 7.99991 13.417C8.00891 13.417 8.01833 13.4163 8.02725 13.416C8.03345 13.4158 8.03962 13.4154 8.04581 13.415C8.07525 13.4133 8.10429 13.4103 8.13272 13.4053C8.14095 13.4038 8.14895 13.4012 8.15714 13.3994C8.18533 13.3934 8.21267 13.3843 8.24014 13.375C8.25408 13.3703 8.26845 13.3669 8.28214 13.3613L8.2919 13.3574L8.29581 13.3564C8.33066 13.3415 8.36368 13.3222 8.39639 13.3018C8.4029 13.2977 8.41049 13.2953 8.4169 13.291C8.42192 13.2877 8.4266 13.2838 8.43155 13.2803C8.46618 13.2559 8.4992 13.2282 8.53018 13.1973L11.8632 9.86426L11.9149 9.80664Z" fill="currentColor"/>
</svg>
