<svg viewBox="0 0 16 16" fill="none" xmlns="http://www.w3.org/2000/svg">
<path d="M1.33301 8C1.33301 6.31907 1.95769 4.78662 2.9834 3.61621H2.9375C2.56931 3.61621 2.27051 3.31741 2.27051 2.94922C2.27055 2.58107 2.56934 2.28223 2.9375 2.28223H4.52832C4.89648 2.28223 5.19527 2.58107 5.19531 2.94922V4.54199C5.1953 4.91017 4.8965 5.20898 4.52832 5.20898C4.19113 5.20889 3.91454 4.95783 3.87012 4.63281C3.11818 5.55112 2.66699 6.72217 2.66699 8C2.667 10.9458 5.0542 13.333 8 13.333C8.313 13.333 8.62317 13.3003 8.93359 13.2451C9.29605 13.1807 9.64253 13.4227 9.70703 13.7852C9.77146 14.1477 9.5295 14.4942 9.16699 14.5586C8.79496 14.6247 8.40543 14.667 8 14.667C4.31782 14.667 1.33302 11.6822 1.33301 8ZM13.333 8C13.333 5.05423 10.9458 2.66705 8 2.66699C7.6869 2.66699 7.37596 2.69871 7.06543 2.75391C6.70312 2.8181 6.35747 2.57712 6.29297 2.21484C6.22854 1.85234 6.4705 1.50584 6.83301 1.44141C7.205 1.37531 7.59461 1.33301 8 1.33301C11.6821 1.33307 14.667 4.31785 14.667 8C14.667 9.68091 14.0423 11.2134 13.0166 12.3838H13.0625C13.4307 12.3838 13.7295 12.6826 13.7295 13.0508C13.7294 13.4189 13.4307 13.7178 13.0625 13.7178H11.4717C11.1035 13.7178 10.8047 13.4189 10.8047 13.0508V11.458C10.8047 11.0898 11.1035 10.791 11.4717 10.791C11.8087 10.7912 12.0834 11.0423 12.1279 11.3672C12.8803 10.4487 13.333 9.27825 13.333 8Z" fill="currentColor"/>
</svg>
