<svg viewBox="0 0 24 24" fill="none" xmlns="http://www.w3.org/2000/svg">
<path d="M7.24794 4.33862C7.63847 3.94819 8.2715 3.94813 8.662 4.33862C9.0524 4.72912 9.0524 5.36218 8.662 5.75268L6.41395 8.00073H15.0272C15.2644 8.00074 15.4987 8.0144 15.7294 8.04077L19.3202 4.4519C19.7107 4.06146 20.3438 4.06141 20.7343 4.4519C21.1245 4.84242 21.1246 5.47554 20.7343 5.86596L6.79286 19.8064C6.40233 20.1969 5.76932 20.1969 5.3788 19.8064C4.98845 19.4159 4.98833 18.7828 5.3788 18.3923L13.7714 10.0007H6.41395L8.662 12.2488C9.05225 12.6393 9.05243 13.2724 8.662 13.6628C8.27156 14.0532 7.63845 14.0531 7.24794 13.6628L3.29286 9.70776C2.90236 9.31726 2.90241 8.68423 3.29286 8.2937L7.24794 4.33862ZM18.9393 13.9236C18.9393 13.0883 18.689 12.3145 18.2597 11.6697C17.9536 11.21 18.0783 10.5891 18.538 10.283C18.9975 9.97727 19.6177 10.1019 19.9237 10.5613C20.565 11.5244 20.9393 12.6819 20.9393 13.9236C20.9393 17.2776 18.221 19.9956 14.8671 19.9958H12.9999C12.4476 19.9958 11.9999 19.5481 11.9999 18.9958C12.0001 18.4437 12.4477 17.9958 12.9999 17.9958H14.8671C17.1164 17.9956 18.9393 16.173 18.9393 13.9236Z" fill="currentColor"/>
</svg>
