<svg viewBox="0 0 32 32" fill="none" xmlns="http://www.w3.org/2000/svg">
<path d="M5.16797 21.2945C5.16859 21.2707 5.16915 21.2469 5.1709 21.2232C5.17271 21.1983 5.17473 21.1735 5.17773 21.149C5.18085 21.1238 5.18603 21.0989 5.19043 21.0738C5.19374 21.0549 5.19619 21.0358 5.2002 21.0172C5.20698 20.9856 5.21577 20.9545 5.22461 20.9234C5.22906 20.9077 5.23333 20.892 5.23828 20.8765C5.24448 20.8571 5.25178 20.8381 5.25879 20.8189C5.29461 20.7209 5.34006 20.6278 5.39453 20.5406C5.41406 20.5093 5.43498 20.4789 5.45703 20.4488C5.50752 20.3798 5.56275 20.3147 5.62402 20.2554L10.9395 14.939L11.0537 14.8365C11.6427 14.3563 12.5115 14.3903 13.0605 14.939C13.6095 15.4881 13.6443 16.3578 13.1641 16.9468L13.0605 17.0601L10.2881 19.8326H25.334C26.1618 19.833 26.8336 20.5048 26.834 21.3326C26.834 22.1607 26.162 22.8321 25.334 22.8326H10.2861L13.0605 25.606C13.6461 26.1917 13.646 27.1414 13.0605 27.7271C12.4748 28.3127 11.5252 28.3127 10.9395 27.7271L5.61523 22.4039C5.57692 22.3663 5.54095 22.3263 5.50684 22.2847L5.50293 22.2799C5.41223 22.1686 5.33912 22.0476 5.28516 21.9205C5.28052 21.9096 5.27684 21.8983 5.27246 21.8873C5.25879 21.8528 5.24636 21.818 5.23535 21.7828C5.23282 21.7747 5.23091 21.7665 5.22852 21.7584C5.21757 21.7212 5.20722 21.6839 5.19922 21.6461C5.19538 21.628 5.19263 21.6097 5.18945 21.5914C5.185 21.5657 5.18084 21.54 5.17773 21.5142C5.17447 21.4871 5.1727 21.4597 5.1709 21.4322C5.16956 21.4117 5.16847 21.3912 5.16797 21.3707C5.16766 21.3581 5.16602 21.3452 5.16602 21.3326C5.16602 21.3198 5.16765 21.3072 5.16797 21.2945Z" fill="currentColor"/>
<path d="M5.16602 10.6666C5.16619 9.83829 5.83867 9.16657 6.66699 9.16657H21.7119L18.9395 6.39313L18.8359 6.27985C18.3557 5.6907 18.3904 4.82112 18.9395 4.27204C19.4885 3.72331 20.3573 3.68937 20.9463 4.1695L21.0605 4.27204L26.3936 9.60603C26.4643 9.67677 26.5275 9.75479 26.583 9.83845C26.5896 9.84833 26.5953 9.85872 26.6016 9.86872C26.6219 9.90091 26.6413 9.93357 26.6592 9.96735C26.6617 9.97212 26.6636 9.97721 26.666 9.982C26.707 10.0616 26.7412 10.1449 26.7676 10.232C26.7736 10.2521 26.779 10.2723 26.7842 10.2925C26.7914 10.3207 26.7991 10.3488 26.8047 10.3775C26.8065 10.3869 26.8069 10.3965 26.8086 10.4058C26.8235 10.4905 26.834 10.5776 26.834 10.6666C26.834 10.7498 26.8246 10.8312 26.8115 10.9107C26.8088 10.9276 26.8071 10.9447 26.8037 10.9615C26.8005 10.9776 26.7957 10.9934 26.792 11.0093C26.7843 11.0424 26.7766 11.0754 26.7666 11.108C26.743 11.1845 26.7127 11.2579 26.6777 11.3287C26.6705 11.3433 26.6639 11.3582 26.6562 11.3726C26.6444 11.3947 26.631 11.4157 26.6182 11.4371C26.6054 11.4583 26.593 11.4798 26.5791 11.5006C26.5221 11.5854 26.4574 11.6645 26.3848 11.7359L21.0605 17.0601L20.9463 17.1636C20.3571 17.6438 19.4885 17.6092 18.9395 17.0601C18.3906 16.5111 18.3559 15.6424 18.8359 15.0533L18.9395 14.939L21.7119 12.1666H6.66699C5.83868 12.1666 5.16621 11.4948 5.16602 10.6666Z" fill="currentColor"/>
</svg>
