<svg viewBox="0 0 32 32" fill="none" xmlns="http://www.w3.org/2000/svg">
<path d="M10.3468 8.23621C9.75761 7.7558 8.88809 7.79059 8.33896 8.33972C7.79031 8.88888 7.75616 9.75758 8.23642 10.3466L8.33896 10.4608L18.9786 21.1005H13.2667L13.1134 21.1083C12.3571 21.1852 11.7667 21.8239 11.7667 22.6005C11.767 23.3768 12.3572 24.0158 13.1134 24.0927L13.2667 24.1005H22.5997C22.6872 24.1005 22.7731 24.0904 22.8565 24.076C22.8679 24.0741 22.8794 24.0724 22.8907 24.0702C22.9291 24.0626 22.9667 24.0533 23.004 24.0428C23.0124 24.0405 23.0211 24.0395 23.0294 24.037C23.065 24.0264 23.0994 24.013 23.1339 23.9999C23.1462 23.9952 23.1588 23.9912 23.171 23.9862C23.1938 23.9768 23.2161 23.9664 23.2384 23.9559C23.2622 23.9447 23.2864 23.9343 23.3097 23.9218C23.327 23.9124 23.3435 23.9015 23.3604 23.8915C23.3847 23.8772 23.4092 23.8633 23.4327 23.8475C23.4591 23.8299 23.4837 23.8101 23.5089 23.7909C23.5236 23.7796 23.5394 23.7696 23.5538 23.7577C23.6669 23.6644 23.766 23.5548 23.8477 23.4325C23.8637 23.4086 23.8782 23.3839 23.8927 23.3593C23.9027 23.3423 23.9136 23.3259 23.9229 23.3085C23.9374 23.2814 23.9493 23.2532 23.962 23.2255C23.9697 23.2088 23.9784 23.1926 23.9854 23.1757C23.9994 23.142 24.0111 23.1076 24.0226 23.0731C24.0263 23.0617 24.0307 23.0505 24.0343 23.0389C24.0424 23.0121 24.0491 22.985 24.0558 22.9579C24.0611 22.9362 24.067 22.9145 24.0714 22.8925C24.0739 22.8795 24.075 22.8664 24.0772 22.8534C24.0913 22.7711 24.1006 22.6868 24.1007 22.6005C24.1007 22.5941 24.0998 22.5873 24.0997 22.5809V13.2665C24.0996 12.4381 23.4281 11.7665 22.5997 11.7665C21.7715 11.7667 21.0998 12.4382 21.0997 13.2665V18.9794L10.4601 8.33972L10.3468 8.23621Z" fill="currentColor"/>
</svg>
