<svg viewBox="0 0 24 24" fill="none" xmlns="http://www.w3.org/2000/svg">
<path d="M2.95312 7.97947C2.95348 7.96188 2.9538 7.94429 2.95508 7.92673C2.95636 7.90903 2.95777 7.89144 2.95996 7.874C2.96211 7.85696 2.96573 7.84015 2.96875 7.82322C2.9705 7.81345 2.97161 7.80359 2.97363 7.79392C2.97885 7.769 2.98505 7.74425 2.99219 7.7197C2.99447 7.71188 2.99656 7.70401 2.99902 7.69627C3.00288 7.68411 3.00738 7.67216 3.01172 7.66013C3.04013 7.58153 3.07787 7.50747 3.12402 7.43943C3.15904 7.38783 3.19938 7.33868 3.24512 7.29295L7.24512 3.29295L7.32129 3.22459C7.71406 2.9043 8.29309 2.92685 8.65918 3.29295C9.02522 3.65905 9.04782 4.23809 8.72754 4.63084L8.65918 4.70701L6.36621 6.99998H14.8818C18.227 7.00004 21 9.67588 21 13C21 16.2201 18.398 18.8318 15.1943 18.9922L14.8818 19H13C12.4478 18.9999 12 18.5522 12 18C12 17.4824 12.3934 17.0563 12.8975 17.0049L13 17H14.8818L15.0947 16.9951C17.2796 16.8861 19 15.1079 19 13C19 10.8241 17.1666 9.00004 14.8818 8.99998L6.36621 8.99998L8.65918 11.2929C9.04962 11.6835 9.04962 12.3165 8.65918 12.707C8.26868 13.0975 7.63565 13.0975 7.24512 12.707L3.24512 8.70701C3.12258 8.5845 3.03226 8.43028 2.98633 8.25779C2.98191 8.24121 2.97718 8.22472 2.97363 8.20798C2.97131 8.19702 2.96973 8.18588 2.96777 8.17478C2.96467 8.15726 2.96213 8.13968 2.95996 8.12205C2.9578 8.10428 2.9563 8.08638 2.95508 8.06834C2.95398 8.0524 2.95346 8.03645 2.95312 8.02048C2.95299 8.01366 2.95215 8.00683 2.95215 7.99998C2.95215 7.99312 2.95299 7.98629 2.95312 7.97947Z" fill="currentColor"/>
</svg>
