<svg viewBox="0 0 24 24" fill="none" xmlns="http://www.w3.org/2000/svg">
<path d="M17.7751 9.36914C18.0954 9.76191 18.0728 10.3409 17.7067 10.707C17.3406 11.073 16.7615 11.0957 16.3688 10.7754L16.2926 10.707L12.9997 7.41406L12.9997 19C12.9997 19.5523 12.5519 20 11.9997 20C11.4475 19.9999 10.9997 19.5522 10.9997 19L10.9997 7.41406L7.70669 10.707L7.63052 10.7754C7.23775 11.0956 6.6587 11.0731 6.29263 10.707C5.92666 10.3409 5.90405 9.76187 6.22427 9.36914L6.29263 9.29297L11.2926 4.29297L11.3688 4.22461C11.3742 4.22024 11.38 4.21616 11.3854 4.21191C11.4051 4.19657 11.4252 4.18184 11.446 4.16797C11.4712 4.15115 11.4968 4.13538 11.5231 4.12109C11.5252 4.11998 11.5269 4.11829 11.529 4.11719C11.5443 4.109 11.5602 4.10206 11.5758 4.09473C11.6186 4.07465 11.6628 4.0569 11.7086 4.04297C11.7254 4.03789 11.7425 4.03445 11.7594 4.03027C11.7699 4.02769 11.7802 4.0247 11.7907 4.02246C11.8046 4.0195 11.8186 4.01702 11.8327 4.01465C11.8483 4.01201 11.8639 4.00971 11.8795 4.00781C11.897 4.00572 11.9146 4.00411 11.9323 4.00293C11.9482 4.00185 11.9642 4.0013 11.9801 4.00098C11.9866 4.00085 11.9931 4 11.9997 4C12.0064 4 12.0134 4.00084 12.0202 4.00098C12.0381 4.00133 12.056 4.00162 12.0739 4.00293C12.0919 4.00425 12.1098 4.00555 12.1276 4.00781C12.1381 4.00915 12.1484 4.012 12.1588 4.01367C12.2535 4.02881 12.3436 4.05694 12.4274 4.09668C12.4438 4.10445 12.4602 4.11238 12.4762 4.12109C12.4911 4.12914 12.5057 4.13763 12.5202 4.14648C12.5319 4.15362 12.5439 4.16031 12.5553 4.16797C12.6099 4.2045 12.6604 4.24669 12.7067 4.29297L17.7067 9.29297L17.7751 9.36914Z" fill="currentColor"/>
</svg>
