<svg viewBox="0 0 16 16" fill="none" xmlns="http://www.w3.org/2000/svg">
<path d="M5.17293 11.8817C4.87843 12.1217 4.44451 12.1043 4.17 11.83C3.8956 11.5553 3.87785 11.1205 4.11825 10.826L4.17 10.7694L9.48934 5.45007H6.63289L6.55672 5.44617C6.17863 5.40778 5.88306 5.08826 5.88289 4.70007C5.88308 4.31191 6.17864 3.99236 6.55672 3.95398L6.63289 3.95007H11.2999L11.377 3.95398C11.5093 3.96749 11.6306 4.01649 11.7335 4.08972C11.7671 4.11365 11.8 4.13965 11.8302 4.1698C11.8615 4.20121 11.8895 4.23525 11.9141 4.27039C11.9176 4.27534 11.9215 4.27999 11.9249 4.28503C11.9344 4.29929 11.9409 4.31522 11.9493 4.32996C11.965 4.35735 11.9811 4.38453 11.9932 4.41394C11.9999 4.43008 12.0034 4.44727 12.0089 4.46375C12.0337 4.53827 12.0508 4.61723 12.0509 4.70007V9.36707C12.0507 9.78104 11.7139 10.1169 11.2999 10.1171C10.886 10.1168 10.55 9.78099 10.5499 9.36707V6.51062L5.23055 11.83L5.17293 11.8817Z" fill="currentColor"/>
</svg>
