<svg viewBox="0 0 24 24" fill="none" xmlns="http://www.w3.org/2000/svg">
<path d="M12.0005 2C14.4012 2.00004 16.6054 2.84709 18.3286 4.25684L19.5435 3.04297C19.934 2.65244 20.567 2.65244 20.9575 3.04297C21.348 3.4335 21.348 4.06652 20.9575 4.45703L7.09521 18.3184C8.45032 19.3721 10.151 20 12.0005 20C12.4701 20 12.9361 19.951 13.4019 19.8682C13.9454 19.7718 14.4643 20.1342 14.561 20.6777C14.6577 21.2215 14.2952 21.7412 13.7515 21.8379C13.1933 21.9371 12.6088 22 12.0005 22C9.59926 22 7.39578 21.1514 5.67236 19.7412L4.45752 20.957C4.06701 21.3475 3.43397 21.3475 3.04346 20.957C2.65295 20.5665 2.65298 19.9335 3.04346 19.543L4.75537 17.8301C4.79742 17.7596 4.8488 17.6933 4.90967 17.6328C4.96845 17.5744 5.03308 17.5251 5.10107 17.4844L16.9048 5.68066C15.5499 4.62738 13.8495 4.00004 12.0005 4C11.5308 4 11.0649 4.04905 10.5991 4.13184C10.0555 4.22832 9.53671 3.86579 9.43994 3.32227C9.3433 2.7785 9.70575 2.25875 10.2495 2.16211C10.8076 2.06292 11.3922 2 12.0005 2ZM20.0005 12C20.0005 11.0631 19.8397 10.1658 19.5454 9.33301C19.3615 8.81235 19.6342 8.2407 20.1548 8.05664C20.6755 7.87262 21.2471 8.14627 21.4312 8.66699C21.8 9.7108 22.0005 10.8331 22.0005 12C22.0005 14.5216 21.0637 16.8205 19.5249 18.5762H19.5942C20.1465 18.5762 20.5942 19.0239 20.5942 19.5762C20.5941 20.1283 20.1464 20.5762 19.5942 20.5762H17.2075C16.6553 20.5762 16.2077 20.1283 16.2075 19.5762V17.1865C16.2077 16.6344 16.6554 16.1865 17.2075 16.1865C17.7121 16.1866 18.1276 16.5611 18.1958 17.0469C19.3224 15.6698 20.0005 13.9155 20.0005 12ZM2.00049 12C2.00049 9.4786 2.93654 7.17944 4.4751 5.42383H4.40576C3.85359 5.4237 3.40576 4.97603 3.40576 4.42383C3.4058 3.87166 3.85361 3.42396 4.40576 3.42383H6.79346C7.34551 3.42407 7.79342 3.87173 7.79346 4.42383V6.8125C7.79346 7.36463 7.34553 7.81226 6.79346 7.8125C6.28879 7.8125 5.87143 7.43899 5.80322 6.95312C4.67707 8.33005 4.00049 10.0849 4.00049 12C4.0005 12.9368 4.16128 13.8342 4.45557 14.667C4.63936 15.1876 4.36584 15.7584 3.84521 15.9424C3.32457 16.1262 2.75381 15.8536 2.56982 15.333C2.20096 14.2892 2.0005 13.167 2.00049 12Z" fill="currentColor"/>
</svg>
