<svg viewBox="0 0 24 24" fill="none" xmlns="http://www.w3.org/2000/svg">
<path d="M4.00098 15.9793C4.00133 15.9617 4.00165 15.9441 4.00293 15.9265C4.00421 15.9088 4.00562 15.8912 4.00781 15.8738C4.0093 15.862 4.01177 15.8504 4.01367 15.8386C4.01671 15.8199 4.02034 15.8014 4.02441 15.783C4.02687 15.7719 4.02939 15.7608 4.03223 15.7498C4.04956 15.6825 4.07429 15.6184 4.10449 15.5574C4.15158 15.4621 4.21362 15.3721 4.29297 15.2927L8.29297 11.2927L8.36914 11.2244C8.7619 10.9041 9.34092 10.9267 9.70703 11.2927C10.0731 11.6588 10.0957 12.2379 9.77539 12.6306L9.70703 12.7068L7.41406 14.9998H19C19.5523 14.9998 20 15.4475 20 15.9998C20 16.552 19.5523 16.9998 19 16.9998H7.41406L9.70703 19.2927C10.0975 19.6832 10.0975 20.3163 9.70703 20.7068C9.31651 21.0973 8.68349 21.0973 8.29297 20.7068L4.29297 16.7068C4.2358 16.6496 4.18656 16.585 4.14453 16.5154C4.13248 16.4954 4.12088 16.4754 4.11035 16.4548C4.07841 16.3925 4.05256 16.3266 4.03418 16.2576C4.02977 16.241 4.02503 16.2245 4.02148 16.2078C4.01917 16.1968 4.01758 16.1857 4.01562 16.1746C4.01252 16.1571 4.00998 16.1395 4.00781 16.1218C4.00565 16.1041 4.00415 16.0862 4.00293 16.0681C4.00184 16.0522 4.00131 16.0362 4.00098 16.0203C4.00084 16.0135 4 16.0066 4 15.9998C4 15.9929 4.00084 15.9861 4.00098 15.9793Z" fill="currentColor"/>
<path d="M4 7.99976C4.00004 7.44751 4.44774 6.99976 5 6.99976H16.5859L14.293 4.7068C13.9025 4.31627 13.9025 3.68325 14.293 3.29273C14.6835 2.90226 15.3165 2.90226 15.707 3.29273L19.707 7.29273C19.7863 7.37198 19.8475 7.46224 19.8945 7.55738C19.9248 7.61843 19.9494 7.68243 19.9668 7.74976C19.9696 7.7608 19.9722 7.77186 19.9746 7.78297C19.9787 7.80137 19.9823 7.81986 19.9854 7.83863C19.9873 7.85037 19.9897 7.862 19.9912 7.87379C19.9934 7.89124 19.9948 7.9088 19.9961 7.92652C19.9974 7.9441 19.9987 7.96164 19.999 7.97926C19.9992 7.98608 20 7.99291 20 7.99976C20 8.0066 19.9992 8.01347 19.999 8.02027C19.9987 8.03626 19.9972 8.05216 19.9961 8.06812C19.9949 8.08618 19.9934 8.10405 19.9912 8.12183C19.989 8.13948 19.9865 8.15704 19.9834 8.17457C19.9814 8.18568 19.9799 8.19679 19.9775 8.20777C19.974 8.22452 19.9693 8.24099 19.9648 8.25758C19.9465 8.32656 19.9216 8.39258 19.8896 8.45484C19.8791 8.4754 19.8675 8.49544 19.8555 8.51539C19.8134 8.58498 19.7642 8.64962 19.707 8.70679L15.707 12.7068L15.6309 12.7752C15.2381 13.0955 14.6591 13.0729 14.293 12.7068C13.9269 12.3407 13.9043 11.7617 14.2246 11.3689L14.293 11.2927L16.5859 8.99976H5C4.44772 8.99976 4 8.55205 4 7.99976Z" fill="currentColor"/>
</svg>
