<svg viewBox="0 0 16 16" fill="none" xmlns="http://www.w3.org/2000/svg">
<path d="M8 1.25C9.59325 1.25003 11.0576 1.80362 12.2119 2.72656L12.9697 1.96973C13.2626 1.67683 13.7374 1.67683 14.0303 1.96973C14.3232 2.26262 14.3232 2.73738 14.0303 3.03027L4.85547 12.2041C5.73222 12.8611 6.82006 13.25 8 13.25C8.3072 13.25 8.61239 13.2176 8.91895 13.1631C9.32669 13.0906 9.71647 13.3628 9.78906 13.7705C9.86155 14.1783 9.58946 14.5681 9.18164 14.6406C8.80574 14.7074 8.41123 14.75 8 14.75C6.40623 14.75 4.94159 14.1959 3.78711 13.2725L3.03027 14.0303C2.73738 14.3232 2.26262 14.3232 1.96973 14.0303C1.67684 13.7374 1.67684 13.2626 1.96973 12.9697L3.10742 11.832C3.1374 11.784 3.17201 11.7379 3.21387 11.6963C3.25441 11.656 3.29922 11.6219 3.3457 11.5928L11.1436 3.79492C10.267 3.13841 9.17946 2.75003 8 2.75C7.69268 2.75 7.38676 2.78241 7.08008 2.83691C6.67251 2.9091 6.28352 2.63701 6.21094 2.22949C6.13845 1.82167 6.41054 1.43186 6.81836 1.35938C7.19423 1.29259 7.58881 1.25 8 1.25ZM13.25 8C13.25 7.38501 13.1443 6.79638 12.9512 6.25C12.8132 5.8596 13.0179 5.43115 13.4082 5.29297C13.7987 5.15497 14.2272 5.35957 14.3652 5.75C14.6143 6.45472 14.75 7.21239 14.75 8C14.75 9.64234 14.1588 11.1426 13.1846 12.3105C13.5408 12.3688 13.8125 12.6781 13.8125 13.0508C13.8124 13.4649 13.4767 13.8008 13.0625 13.8008H11.4717C11.0575 13.8008 10.7217 13.4649 10.7217 13.0508V11.458C10.7217 11.0438 11.0575 10.708 11.4717 10.708C11.7889 10.7081 12.0575 10.9062 12.167 11.1846C12.8455 10.301 13.25 9.19852 13.25 8ZM1.25 8C1.25 6.35733 1.83989 4.85557 2.81445 3.6875C2.45876 3.62881 2.1875 3.32154 2.1875 2.94922C2.18755 2.53504 2.52332 2.19922 2.9375 2.19922H4.52832C4.94251 2.19922 5.27827 2.53504 5.27832 2.94922V4.54199C5.27831 4.9562 4.94253 5.29199 4.52832 5.29199C4.21063 5.29191 3.94126 5.09345 3.83203 4.81445C3.15344 5.69802 2.75 6.80139 2.75 8C2.75 8.61499 2.85574 9.20362 3.04883 9.75C3.18682 10.1405 2.98135 10.569 2.59082 10.707C2.20037 10.8448 1.77176 10.6404 1.63379 10.25C1.38476 9.54531 1.25 8.78757 1.25 8Z" fill="currentColor"/>
</svg>
