<svg viewBox="0 0 16 16" fill="none" xmlns="http://www.w3.org/2000/svg">
<path d="M6.19336 4.0852C6.48788 3.84527 6.9218 3.86263 7.19629 4.13695C7.47088 4.41161 7.48847 4.8463 7.24805 5.14086L7.19629 5.1975L5.14355 7.25023H12.666L12.7432 7.25414C13.1212 7.29259 13.4159 7.61209 13.416 8.00023C13.4158 8.38829 13.1211 8.70786 12.7432 8.74633L12.666 8.75023H5.14355L7.19629 10.803L7.24805 10.8606C7.48816 11.1552 7.47082 11.589 7.19629 11.8635C6.92175 12.1378 6.48785 12.1553 6.19336 11.9153L6.13574 11.8635L2.80273 8.53051L2.75098 8.47387L2.72168 8.43285C2.71305 8.42069 2.70615 8.40745 2.69824 8.39477C2.68079 8.36673 2.66476 8.33846 2.65137 8.30883C2.64806 8.30155 2.6437 8.29475 2.64062 8.28734C2.63759 8.28001 2.63561 8.27229 2.63281 8.26488C2.62206 8.23635 2.61359 8.20737 2.60645 8.17797C2.60262 8.16229 2.59753 8.14694 2.59473 8.13109C2.58722 8.0886 2.58303 8.04487 2.58301 8.00023C2.58301 7.99123 2.58367 7.98182 2.58398 7.97289C2.58421 7.9667 2.58458 7.96052 2.58496 7.95434C2.58673 7.9249 2.58966 7.89585 2.59473 7.86742C2.59619 7.85919 2.59884 7.85119 2.60059 7.84301C2.60662 7.81482 2.6157 7.78748 2.625 7.76C2.6297 7.74607 2.63312 7.7317 2.63867 7.71801L2.64258 7.70824L2.64355 7.70434C2.6585 7.66949 2.67778 7.63646 2.69824 7.60375C2.70231 7.59724 2.7047 7.58965 2.70898 7.58324C2.71234 7.57822 2.71623 7.57355 2.71973 7.56859C2.74412 7.53397 2.77178 7.50095 2.80273 7.46996L6.13574 4.13695L6.19336 4.0852Z" fill="currentColor"/>
</svg>
