<svg viewBox="0 0 32 32" fill="none" xmlns="http://www.w3.org/2000/svg">
<path d="M21.6533 23.7639C22.2425 24.2443 23.112 24.2095 23.6611 23.6604C24.2098 23.1112 24.2439 22.2425 23.7637 21.6536L23.6611 21.5393L13.0215 10.8997H18.7334L18.8867 10.8918C19.643 10.8149 20.2334 10.1762 20.2334 9.39966C20.2331 8.62332 19.6429 7.98429 18.8867 7.90747L18.7334 7.89966H9.40039C9.31286 7.89966 9.22697 7.90968 9.14355 7.92407C9.13216 7.92604 9.12073 7.9277 9.10938 7.92993C9.07099 7.93748 9.03337 7.94686 8.99609 7.95728C8.98774 7.95961 8.97903 7.96066 8.9707 7.96313C8.9351 7.97376 8.90065 7.9871 8.86621 8.00024C8.85389 8.00493 8.84132 8.00889 8.8291 8.01392C8.80627 8.02333 8.78397 8.03369 8.76172 8.04419C8.73793 8.05539 8.71373 8.06585 8.69043 8.07837C8.67305 8.08772 8.65661 8.09863 8.63965 8.10864C8.61544 8.12292 8.59093 8.13684 8.56738 8.15259C8.54103 8.17021 8.51635 8.19001 8.49121 8.20923C8.47647 8.22051 8.4607 8.23053 8.44629 8.24243C8.33316 8.33575 8.23408 8.44537 8.15234 8.56763C8.13635 8.59155 8.1219 8.61627 8.10742 8.64087C8.09743 8.65783 8.08648 8.67427 8.07715 8.69165C8.06265 8.71871 8.05081 8.74694 8.03809 8.77466C8.03043 8.79131 8.02171 8.80749 8.01465 8.82446C8.00067 8.85816 7.98896 8.89257 7.97754 8.927C7.97374 8.93842 7.96935 8.94965 7.96582 8.96118C7.95765 8.98798 7.95098 9.01511 7.94434 9.04224C7.93901 9.06395 7.93308 9.08559 7.92871 9.10767C7.92616 9.12059 7.92506 9.13376 7.92285 9.14673C7.90882 9.22904 7.89945 9.31337 7.89941 9.39966C7.89941 9.40607 7.90031 9.4128 7.90039 9.41919V18.7336C7.90048 19.562 8.57202 20.2336 9.40039 20.2336C10.2286 20.2335 10.9003 19.5619 10.9004 18.7336V13.0208L21.54 23.6604L21.6533 23.7639Z" fill="currentColor"/>
</svg>
