<svg viewBox="0 0 24 24" fill="none" xmlns="http://www.w3.org/2000/svg">
<path d="M14.6309 6.22499C14.2381 5.90463 13.6591 5.92723 13.293 6.29334C12.927 6.65947 12.9043 7.2385 13.2246 7.63124L13.293 7.70741L16.5859 11.0004H5C4.44772 11.0004 4 11.4481 4 12.0004C4.00013 12.5526 4.44779 13.0004 5 13.0004H16.5859L13.293 16.2933L13.2246 16.3695C12.9044 16.7623 12.9269 17.3413 13.293 17.7074C13.6591 18.0734 14.2381 18.096 14.6309 17.7758L14.707 17.7074L19.707 12.7074L19.7754 12.6312C19.7798 12.6259 19.7838 12.6201 19.7881 12.6146C19.8034 12.595 19.8182 12.5749 19.832 12.5541C19.8489 12.5289 19.8646 12.5032 19.8789 12.4769C19.88 12.4749 19.8817 12.4731 19.8828 12.4711C19.891 12.4558 19.8979 12.4399 19.9053 12.4242C19.9254 12.3814 19.9431 12.3372 19.957 12.2914C19.9621 12.2747 19.9655 12.2575 19.9697 12.2406C19.9723 12.2302 19.9753 12.2199 19.9775 12.2094C19.9805 12.1955 19.983 12.1815 19.9854 12.1674C19.988 12.1518 19.9903 12.1362 19.9922 12.1205C19.9943 12.103 19.9959 12.0855 19.9971 12.0678C19.9982 12.0518 19.9987 12.0359 19.999 12.0199C19.9991 12.0134 20 12.0069 20 12.0004C20 11.9936 19.9992 11.9866 19.999 11.9799C19.9987 11.962 19.9984 11.944 19.9971 11.9262C19.9958 11.9081 19.9944 11.8902 19.9922 11.8724C19.9908 11.8619 19.988 11.8517 19.9863 11.8412C19.9712 11.7465 19.9431 11.6565 19.9033 11.5726C19.8956 11.5562 19.8876 11.5399 19.8789 11.5238C19.8709 11.509 19.8624 11.4944 19.8535 11.4799C19.8464 11.4682 19.8397 11.4562 19.832 11.4447C19.7955 11.3901 19.7533 11.3396 19.707 11.2933L14.707 6.29334L14.6309 6.22499Z" fill="currentColor"/>
</svg>
