<svg viewBox="0 0 16 16" fill="none" xmlns="http://www.w3.org/2000/svg">
<path d="M10.8271 4.11816C11.1217 3.87821 11.5556 3.89561 11.8301 4.16992C12.1045 4.44459 12.1222 4.87933 11.8818 5.17382L11.8301 5.23046L6.51074 10.5498H9.36719L9.44336 10.5537C9.82145 10.5921 10.117 10.9116 10.1172 11.2998C10.117 11.688 9.82144 12.0075 9.44336 12.0459L9.36719 12.0498H4.7002L4.62305 12.0459C4.49074 12.0324 4.36952 11.9834 4.2666 11.9101C4.23297 11.8862 4.2001 11.8602 4.16992 11.8301C4.13854 11.7987 4.11059 11.7646 4.08594 11.7295C4.08246 11.7245 4.07855 11.7199 4.0752 11.7148C4.0657 11.7006 4.0592 11.6846 4.05078 11.6699C4.03512 11.6425 4.019 11.6153 4.00684 11.5859C4.00018 11.5698 3.9967 11.5526 3.99121 11.5361C3.96635 11.4616 3.94925 11.3826 3.94922 11.2998V6.63281C3.94937 6.21883 4.28622 5.88298 4.7002 5.88281C5.11409 5.88307 5.45005 6.21888 5.4502 6.63281V9.48925L10.7695 4.16992L10.8271 4.11816Z" fill="currentColor"/>
</svg>
