<svg viewBox="0 0 16 16" fill="none" xmlns="http://www.w3.org/2000/svg">
<path d="M2.58301 5.33387C2.58301 4.91976 2.91894 4.58404 3.33301 4.58387H10.8555L9.46973 3.19715L9.41797 3.13953C9.17811 2.84502 9.19543 2.41107 9.46973 2.1366C9.74436 1.86204 10.1791 1.84448 10.4736 2.08484L10.5303 2.1366L13.1973 4.80262C13.3119 4.91724 13.3795 5.06027 13.4043 5.20887C13.4099 5.2421 13.413 5.27586 13.4141 5.31043C13.4145 5.32512 13.4145 5.33968 13.4141 5.35438C13.4131 5.39094 13.4104 5.42672 13.4043 5.4618C13.4032 5.46828 13.4027 5.47487 13.4014 5.48133C13.3984 5.49605 13.3925 5.5099 13.3887 5.5243C13.3799 5.5575 13.3718 5.59095 13.3584 5.62293C13.3507 5.64141 13.3392 5.65797 13.3301 5.67566C13.2955 5.74261 13.2533 5.80702 13.1973 5.86316L10.5303 8.53016L10.4736 8.58191C10.1791 8.82222 9.74433 8.80476 9.46973 8.53016C9.19519 8.25555 9.17768 7.82081 9.41797 7.52625L9.46973 7.46961L10.8555 6.08387H3.33301C2.91911 6.08369 2.58328 5.74774 2.58301 5.33387Z" fill="currentColor"/>
<path d="M2.58398 10.6405C2.58421 10.634 2.58456 10.6275 2.58496 10.621C2.58728 10.5827 2.59273 10.5452 2.60059 10.5087C2.60893 10.4698 2.62117 10.4318 2.63574 10.3944C2.63837 10.3877 2.63977 10.3805 2.64258 10.3739C2.67909 10.2876 2.73251 10.2069 2.80273 10.1366L5.46973 7.47059L5.52637 7.41883C5.82095 7.17855 6.25568 7.19599 6.53027 7.47059C6.80443 7.74519 6.82117 8.17909 6.58105 8.47352L6.53027 8.53113L5.14453 9.91687H12.666C13.0802 9.91687 13.4159 10.2527 13.416 10.6669C13.4158 11.0809 13.0801 11.4169 12.666 11.4169H5.14258L6.53027 12.8036C6.82284 13.0965 6.82291 13.5713 6.53027 13.8641C6.23744 14.1566 5.76252 14.1566 5.46973 13.8641L2.80273 11.1971L2.75098 11.1405C2.7415 11.1289 2.73426 11.1154 2.72559 11.1034C2.7164 11.0906 2.7076 11.0777 2.69922 11.0643C2.68253 11.0378 2.66831 11.0103 2.65527 10.9823C2.64794 10.9666 2.64102 10.9508 2.63477 10.9345C2.62432 10.9071 2.61553 10.8796 2.6084 10.8514C2.60187 10.8257 2.59462 10.8 2.59082 10.7733C2.59026 10.7694 2.58936 10.7655 2.58887 10.7616C2.58496 10.7306 2.58302 10.6989 2.58301 10.6669C2.58301 10.658 2.58368 10.6493 2.58398 10.6405Z" fill="currentColor"/>
</svg>
