<svg viewBox="0 0 32 32" fill="none" xmlns="http://www.w3.org/2000/svg">
<path d="M16.0005 2.5C19.1873 2.50005 22.1176 3.60592 24.4263 5.45215L25.9399 3.93945C26.5257 3.35367 27.4752 3.35367 28.061 3.93945C28.6468 4.52524 28.6468 5.47478 28.061 6.06055L9.7124 24.4082C11.4658 25.7219 13.6409 26.5 16.0005 26.5C16.6151 26.5 17.226 26.4362 17.8394 26.3271C18.6549 26.1822 19.4335 26.7256 19.5786 27.541C19.7236 28.3565 19.1801 29.1351 18.3647 29.2803C17.6128 29.4139 16.8232 29.5 16.0005 29.5C12.8131 29.5 9.88262 28.3936 7.57373 26.5469L6.06104 28.0605C5.47526 28.6463 4.52571 28.6463 3.93994 28.0605C3.35418 27.4748 3.35422 26.5252 3.93994 25.9395L6.20947 23.6689C6.27031 23.5705 6.3425 23.4768 6.42822 23.3916C6.51184 23.3086 6.60354 23.238 6.69971 23.1787L22.2886 7.58984C20.5354 6.27654 18.3597 5.50005 16.0005 5.5C15.3859 5.5 14.7749 5.56386 14.1616 5.67285C13.346 5.81782 12.5673 5.27365 12.4224 4.45801C12.2777 3.64256 12.8208 2.86375 13.6362 2.71875C14.3882 2.5851 15.1778 2.5 16.0005 2.5ZM26.5005 16C26.5005 14.77 26.289 13.5928 25.9028 12.5C25.6268 11.7189 26.0368 10.862 26.8179 10.5859C27.5989 10.3099 28.4559 10.7189 28.7319 11.5C29.23 12.9094 29.5005 14.4248 29.5005 16C29.5005 19.2839 28.323 22.2874 26.3755 24.623C27.0849 24.7421 27.6255 25.3584 27.6255 26.1016C27.6253 26.9298 26.9538 27.6016 26.1255 27.6016H22.9429C22.1146 27.6016 21.4431 26.9298 21.4429 26.1016V22.916C21.4429 22.0876 22.1144 21.416 22.9429 21.416C23.5782 21.416 24.1197 21.8114 24.3384 22.3691C25.6945 20.6024 26.5005 18.3962 26.5005 16ZM2.50049 16C2.50049 12.7161 3.67689 9.71169 5.62451 7.37598C4.91523 7.25683 4.37451 6.64158 4.37451 5.89844C4.37456 5.07005 5.04612 4.39844 5.87451 4.39844H9.05713C9.88553 4.39844 10.5571 5.07005 10.5571 5.89844V9.08398C10.5571 9.91236 9.88552 10.584 9.05713 10.584C8.42194 10.584 7.88035 10.1885 7.66162 9.63086C6.30569 11.3976 5.50049 13.604 5.50049 16C5.5005 17.2299 5.71104 18.4073 6.09717 19.5C6.37318 20.281 5.96409 21.138 5.18311 21.4141C4.40213 21.6901 3.5452 21.2809 3.26904 20.5C2.77099 19.0906 2.5005 17.5751 2.50049 16Z" fill="currentColor"/>
</svg>
