<svg viewBox="0 0 24 24" fill="none" xmlns="http://www.w3.org/2000/svg">
<path d="M20 20C20.5523 20 21 20.4477 21 21C21 21.5523 20.5523 22 20 22H4C3.44772 22 3 21.5523 3 21C3 20.4477 3.44772 20 4 20H20Z" fill="currentColor"/>
<path d="M12 2C12.5523 2 13 2.44772 13 3V14.585L16.293 11.293C16.6835 10.9024 17.3165 10.9025 17.707 11.293C18.0976 11.6835 18.0976 12.3165 17.707 12.707L12.7061 17.708C12.6691 17.7449 12.6286 17.7772 12.5869 17.8076C12.5765 17.8152 12.5663 17.8229 12.5557 17.8301C12.5178 17.8555 12.4783 17.8775 12.4375 17.8975C12.4191 17.9065 12.4009 17.9159 12.3818 17.9238C12.2615 17.9738 12.1318 18.001 11.999 18.001C11.7338 18.001 11.4795 17.8955 11.292 17.708L6.29199 12.707L6.22363 12.6309C5.90328 12.2381 5.92588 11.6591 6.29199 11.293C6.65812 10.9269 7.23714 10.9043 7.62988 11.2246L7.70605 11.293L11 14.5869V3C11 2.44772 11.4477 2 12 2Z" fill="currentColor"/>
</svg>
