<svg viewBox="0 0 16 16" fill="none" xmlns="http://www.w3.org/2000/svg">
<path d="M8 1.91711C9.65131 1.91721 11.1466 2.57749 12.2422 3.64465V3.0929C12.2422 2.67876 12.5781 2.34302 12.9922 2.3429C13.4062 2.34312 13.7422 2.67882 13.7422 3.0929V5.45032L13.7383 5.52649C13.7255 5.65255 13.6816 5.7695 13.6143 5.86926C13.5604 5.94902 13.4918 6.01847 13.4121 6.07239C13.2925 6.15324 13.1474 6.20024 12.9922 6.20032H10.6357C10.2216 6.20032 9.88588 5.86442 9.88574 5.45032C9.88574 5.06215 10.1806 4.74285 10.5586 4.70422L10.6357 4.70032H11.1768C10.3522 3.90609 9.23336 3.41721 8 3.41711C5.46914 3.41729 3.41717 5.46926 3.41699 8.00012C3.41712 10.531 5.46911 12.5839 8 12.5841C10.5309 12.5839 12.5839 10.531 12.584 8.00012C12.5842 7.58606 12.9199 7.25012 13.334 7.25012C13.7478 7.2505 14.0838 7.58629 14.084 8.00012C14.0839 11.3594 11.3593 14.0839 8 14.0841C4.64068 14.0839 1.91712 11.3594 1.91699 8.00012C1.91717 4.64083 4.64071 1.91729 8 1.91711Z" fill="currentColor"/>
</svg>
