<svg viewBox="0 0 24 24" fill="none" xmlns="http://www.w3.org/2000/svg">
<path d="M12 3C9.45016 3 7.14855 4.06113 5.51172 5.76367V4.63867C5.51154 4.08654 5.06389 3.63867 4.51172 3.63867C3.95967 3.63882 3.5119 4.08663 3.51172 4.63867V8.1748L3.5166 8.27734C3.56798 8.78133 3.99421 9.17466 4.51172 9.1748H8.04688C8.59912 9.1748 9.0468 8.72703 9.04688 8.1748C9.04671 7.65728 8.65343 7.23101 8.14941 7.17969L8.04688 7.1748H6.93066C8.20658 5.83453 10.0064 5 12 5C15.8657 5 19 8.13428 19 12C19 15.8657 15.8657 19 12 19C8.13428 19 5 15.8657 5 12C5 11.4477 4.55228 11 4 11C3.44772 11 3 11.4477 3 12C3 16.9703 7.02972 21 12 21C16.9703 21 21 16.9703 21 12C21 7.02972 16.9703 3 12 3Z" fill="currentColor"/>
</svg>
