<svg viewBox="0 0 32 32" fill="none" xmlns="http://www.w3.org/2000/svg">
<path d="M3.77051 10.6347C3.77114 10.6057 3.77309 10.5768 3.77539 10.5478C3.77681 10.5298 3.77823 10.5119 3.78027 10.4941C3.78356 10.4656 3.78805 10.4374 3.79297 10.4091C3.79706 10.3856 3.80049 10.362 3.80566 10.3388C3.80991 10.3198 3.81531 10.301 3.82031 10.2822C3.82683 10.2576 3.8331 10.233 3.84082 10.2089C3.84765 10.1876 3.85547 10.1665 3.86328 10.1454C3.87252 10.1206 3.8811 10.0955 3.8916 10.0712C3.89765 10.0572 3.90561 10.0441 3.91211 10.0302C3.98648 9.87197 4.0868 9.72854 4.20898 9.60639L9.54199 4.2724L9.65625 4.16986C10.2453 3.68953 11.1139 3.72357 11.6631 4.2724C12.2121 4.82157 12.2471 5.6911 11.7666 6.28021L11.6631 6.3935L8.88965 9.16693L19.8428 9.16693C24.3912 9.16706 28.1668 12.8053 28.167 17.3329C28.167 21.8607 24.3913 25.4998 19.8428 25.4999H17.334C16.5056 25.4999 15.834 24.8284 15.834 23.9999C15.834 23.1715 16.5056 22.4999 17.334 22.4999H19.8428C22.8007 22.4998 25.167 20.1383 25.167 17.3329C25.1668 14.5277 22.8006 12.1671 19.8428 12.1669H8.88965L11.6631 14.9394C12.2487 15.5251 12.2487 16.4747 11.6631 17.0605C11.0773 17.6461 10.1277 17.6461 9.54199 17.0605L4.20898 11.7275L4.10547 11.6132C4.08613 11.5895 4.06845 11.5646 4.05078 11.54C4.04172 11.5274 4.03113 11.5158 4.02246 11.5029C3.94249 11.3839 3.88201 11.2556 3.83984 11.123C3.83391 11.1044 3.82944 11.0853 3.82422 11.0663C3.81653 11.0384 3.80877 11.0106 3.80273 10.9824C3.79907 10.9652 3.79605 10.9479 3.79297 10.9306C3.78905 10.9085 3.78515 10.8864 3.78223 10.8642L3.77734 10.8203C3.77635 10.8105 3.77619 10.8007 3.77539 10.791C3.77269 10.7581 3.77105 10.7253 3.77051 10.6923C3.77037 10.6839 3.76953 10.6754 3.76953 10.6669C3.76953 10.6562 3.77028 10.6454 3.77051 10.6347Z" fill="currentColor"/>
</svg>
