<svg viewBox="0 0 32 32" fill="none" xmlns="http://www.w3.org/2000/svg">
<path d="M21.6533 8.23621C22.2425 7.7558 23.112 7.79059 23.6611 8.33972C24.2098 8.88888 24.2439 9.75758 23.7637 10.3466L23.6611 10.4608L13.0215 21.1005H18.7334L18.8867 21.1083C19.643 21.1852 20.2334 21.8239 20.2334 22.6005C20.2331 23.3768 19.6429 24.0158 18.8867 24.0927L18.7334 24.1005H9.40039C9.31286 24.1005 9.22697 24.0904 9.14355 24.076C9.13216 24.0741 9.12073 24.0724 9.10938 24.0702C9.07099 24.0626 9.03337 24.0533 8.99609 24.0428C8.98774 24.0405 8.97903 24.0395 8.9707 24.037C8.9351 24.0264 8.90065 24.013 8.86621 23.9999C8.85389 23.9952 8.84132 23.9912 8.8291 23.9862C8.80627 23.9768 8.78397 23.9664 8.76172 23.9559C8.73793 23.9447 8.71373 23.9343 8.69043 23.9218C8.67305 23.9124 8.65661 23.9015 8.63965 23.8915C8.61544 23.8772 8.59093 23.8633 8.56738 23.8475C8.54103 23.8299 8.51635 23.8101 8.49121 23.7909C8.47647 23.7796 8.4607 23.7696 8.44629 23.7577C8.33316 23.6644 8.23408 23.5548 8.15234 23.4325C8.13635 23.4086 8.1219 23.3839 8.10742 23.3593C8.09743 23.3423 8.08648 23.3259 8.07715 23.3085C8.06265 23.2814 8.05081 23.2532 8.03809 23.2255C8.03043 23.2088 8.02171 23.1926 8.01465 23.1757C8.00067 23.142 7.98896 23.1076 7.97754 23.0731C7.97374 23.0617 7.96935 23.0505 7.96582 23.0389C7.95765 23.0121 7.95098 22.985 7.94434 22.9579C7.93901 22.9362 7.93308 22.9145 7.92871 22.8925C7.92616 22.8795 7.92506 22.8664 7.92285 22.8534C7.90882 22.7711 7.89945 22.6868 7.89941 22.6005C7.89941 22.5941 7.90031 22.5873 7.90039 22.5809V13.2665C7.90048 12.4381 8.57202 11.7665 9.40039 11.7665C10.2286 11.7667 10.9003 12.4382 10.9004 13.2665V18.9794L21.54 8.33972L21.6533 8.23621Z" fill="currentColor"/>
</svg>
