<svg viewBox="0 0 32 32" fill="none" xmlns="http://www.w3.org/2000/svg">
<path d="M10.3468 23.7639C9.75761 24.2443 8.88809 24.2095 8.33896 23.6604C7.79031 23.1112 7.75616 22.2425 8.23642 21.6536L8.33896 21.5393L18.9786 10.8997H13.2667L13.1134 10.8918C12.3571 10.8149 11.7667 10.1762 11.7667 9.39966C11.767 8.62332 12.3572 7.98429 13.1134 7.90747L13.2667 7.89966H22.5997C22.6872 7.89966 22.7731 7.90968 22.8565 7.92407C22.8679 7.92604 22.8794 7.9277 22.8907 7.92993C22.9291 7.93748 22.9667 7.94686 23.004 7.95728C23.0124 7.95961 23.0211 7.96066 23.0294 7.96313C23.065 7.97376 23.0994 7.9871 23.1339 8.00024C23.1462 8.00493 23.1588 8.00889 23.171 8.01392C23.1938 8.02333 23.2161 8.03369 23.2384 8.04419C23.2622 8.05539 23.2864 8.06585 23.3097 8.07837C23.327 8.08772 23.3435 8.09863 23.3604 8.10864C23.3847 8.12292 23.4092 8.13684 23.4327 8.15259C23.4591 8.17021 23.4837 8.19001 23.5089 8.20923C23.5236 8.22051 23.5394 8.23053 23.5538 8.24243C23.6669 8.33575 23.766 8.44537 23.8477 8.56763C23.8637 8.59155 23.8782 8.61627 23.8927 8.64087C23.9027 8.65783 23.9136 8.67427 23.9229 8.69165C23.9374 8.71871 23.9493 8.74694 23.962 8.77466C23.9697 8.79131 23.9784 8.80749 23.9854 8.82446C23.9994 8.85816 24.0111 8.89257 24.0226 8.927C24.0263 8.93842 24.0307 8.94965 24.0343 8.96118C24.0424 8.98798 24.0491 9.01511 24.0558 9.04224C24.0611 9.06395 24.067 9.08559 24.0714 9.10767C24.0739 9.12059 24.075 9.13376 24.0772 9.14673C24.0913 9.22904 24.1006 9.31337 24.1007 9.39966C24.1007 9.40607 24.0998 9.4128 24.0997 9.41919V18.7336C24.0996 19.562 23.4281 20.2336 22.5997 20.2336C21.7715 20.2335 21.0998 19.5619 21.0997 18.7336V13.0208L10.4601 23.6604L10.3468 23.7639Z" fill="currentColor"/>
</svg>
