<svg viewBox="0 0 16 16" fill="none" xmlns="http://www.w3.org/2000/svg">
<path d="M10.8271 11.8817C11.1217 12.1217 11.5556 12.1043 11.8301 11.83C12.1045 11.5553 12.1222 11.1205 11.8818 10.826L11.8301 10.7694L6.51074 5.45007H9.36719L9.44336 5.44617C9.82145 5.40778 10.117 5.08826 10.1172 4.70007C10.117 4.31191 9.82144 3.99236 9.44336 3.95398L9.36719 3.95007H4.7002L4.62305 3.95398C4.49074 3.96749 4.36952 4.01649 4.2666 4.08972C4.23297 4.11365 4.2001 4.13965 4.16992 4.1698C4.13854 4.20121 4.11059 4.23525 4.08594 4.27039C4.08246 4.27534 4.07855 4.27999 4.0752 4.28503C4.0657 4.29929 4.0592 4.31522 4.05078 4.32996C4.03512 4.35735 4.019 4.38453 4.00684 4.41394C4.00018 4.43008 3.9967 4.44727 3.99121 4.46375C3.96635 4.53827 3.94925 4.61723 3.94922 4.70007V9.36707C3.94937 9.78104 4.28622 10.1169 4.7002 10.1171C5.11409 10.1168 5.45005 9.78099 5.4502 9.36707V6.51062L10.7695 11.83L10.8271 11.8817Z" fill="currentColor"/>
</svg>
