<svg viewBox="0 0 16 16" fill="none" xmlns="http://www.w3.org/2000/svg">
<path d="M1.88574 5.3077C1.88598 5.30085 1.8863 5.29403 1.88672 5.28719C1.88907 5.24853 1.89435 5.21077 1.90234 5.17391C1.90956 5.14063 1.92084 5.10849 1.93262 5.07625C1.93719 5.06377 1.93913 5.05033 1.94434 5.03816C1.95249 5.01908 1.9648 5.00197 1.97461 4.98348C1.98725 4.95968 1.99864 4.93536 2.01367 4.91316C2.03999 4.87433 2.0701 4.83721 2.10449 4.80281L4.77148 2.1368L4.82812 2.08504C5.1227 1.8448 5.55745 1.86222 5.83203 2.1368C6.10625 2.41139 6.12292 2.84528 5.88281 3.13973L5.83203 3.19734L4.44629 4.58309H9.92188C12.1959 4.58339 14.083 6.40333 14.083 8.66707C14.0828 10.9307 12.1958 12.7498 9.92188 12.7501H8.66699C8.25278 12.7501 7.91699 12.4143 7.91699 12.0001C7.91699 11.5859 8.25278 11.2501 8.66699 11.2501H9.92188C11.4005 11.2498 12.5828 10.0695 12.583 8.66707C12.583 7.26452 11.4006 6.08339 9.92188 6.08309H4.44434L5.83203 7.46981C6.12465 7.76265 6.12465 8.23751 5.83203 8.53035C5.53921 8.82318 5.06439 8.82304 4.77148 8.53035L2.10449 5.86336L2.05273 5.80672C2.04443 5.79653 2.03796 5.785 2.03027 5.77449C2.01891 5.75896 2.00822 5.74305 1.99805 5.72664C1.98326 5.70274 1.96986 5.67848 1.95801 5.6534C1.94908 5.63457 1.94096 5.61543 1.93359 5.59578C1.92472 5.572 1.91751 5.54792 1.91113 5.52352C1.90447 5.49815 1.89755 5.47271 1.89355 5.44637C1.89232 5.43822 1.89061 5.43013 1.88965 5.42195C1.88621 5.39282 1.88477 5.36315 1.88477 5.33309C1.88477 5.32458 1.88546 5.31613 1.88574 5.3077Z" fill="currentColor"/>
</svg>
