<svg viewBox="0 0 32 32" fill="none" xmlns="http://www.w3.org/2000/svg">
<path d="M25.252 18.7444C25.252 17.6646 24.929 16.6647 24.3741 15.8314C23.915 15.1418 24.1016 14.2104 24.7911 13.7513C25.4806 13.2922 26.412 13.4789 26.8712 14.1683C27.7439 15.4789 28.252 17.0549 28.252 18.7444C28.2518 23.3084 24.5533 27.007 19.9893 27.0071H17.5001C16.6717 27.0071 16.0001 26.3356 16.0001 25.5071C16.0002 24.6788 16.6717 24.0071 17.5001 24.0071H19.9893C22.8965 24.007 25.2518 21.6516 25.252 18.7444ZM9.71297 5.66437C10.2988 5.07871 11.2483 5.07863 11.8341 5.66437C12.4197 6.25013 12.4197 7.19971 11.8341 7.78547L9.12118 10.4984H20.1915C20.4378 10.4984 20.6818 10.5099 20.9229 10.5325L25.6417 5.81476C26.2274 5.22919 27.177 5.22928 27.7628 5.81476C28.3486 6.40055 28.3486 7.35105 27.7628 7.93683L9.17489 26.5247C8.58916 27.1102 7.63952 27.1102 7.05379 26.5247C6.46801 25.9389 6.46801 24.9884 7.05379 24.4027L17.9581 13.4984H9.12118L11.8341 16.2103C12.4199 16.7961 12.4199 17.7466 11.8341 18.3323C11.2484 18.9179 10.2988 18.9177 9.71297 18.3323L4.43954 13.0589C3.85378 12.4731 3.85385 11.5236 4.43954 10.9378L9.71297 5.66437Z" fill="currentColor"/>
</svg>
