<svg viewBox="0 0 32 32" fill="none" xmlns="http://www.w3.org/2000/svg">
<path d="M23.8302 12.3867C24.3106 12.9759 24.2758 13.8454 23.7267 14.3945C23.1775 14.9431 22.3088 14.9773 21.7199 14.4971L21.6056 14.3945L17.4992 10.2881V25.334L17.4913 25.4873C17.4141 26.2433 16.7755 26.834 15.9992 26.834C15.2231 26.8336 14.5841 26.2431 14.507 25.4873L14.4992 25.334L14.4992 10.2891L10.3937 14.3945L10.2804 14.4971C9.69136 14.9776 8.82181 14.9434 8.2726 14.3945C7.72342 13.8454 7.68953 12.9759 8.17006 12.3867L8.2726 12.2734L14.921 5.625C14.9938 5.54965 15.0741 5.48169 15.1613 5.42285C15.202 5.39532 15.2436 5.36977 15.2863 5.34668L15.2912 5.34375C15.3182 5.32925 15.3464 5.31741 15.3742 5.30469C15.3908 5.29703 15.407 5.28831 15.424 5.28125C15.4532 5.26913 15.4831 5.25921 15.5128 5.24902C15.5243 5.24508 15.5354 5.23998 15.547 5.23633C15.5515 5.2349 15.5561 5.23381 15.5607 5.23242C15.5875 5.22425 15.6146 5.21758 15.6417 5.21094C15.6555 5.20757 15.6689 5.20317 15.6828 5.2002C15.7059 5.19521 15.7295 5.19238 15.7531 5.18848C15.7743 5.18496 15.7952 5.18034 15.8165 5.17773C15.8459 5.17416 15.8755 5.17178 15.9054 5.16992C15.924 5.16876 15.9425 5.16845 15.9611 5.16797C15.9737 5.16765 15.9864 5.16602 15.9992 5.16602C16.0121 5.16602 16.0254 5.16764 16.0382 5.16797C16.0633 5.16861 16.0884 5.16901 16.1134 5.1709C16.136 5.1726 16.1585 5.17504 16.1808 5.17773C16.2152 5.18189 16.2493 5.18781 16.2833 5.19434C16.2944 5.19645 16.3056 5.19783 16.3165 5.2002C16.3384 5.20491 16.3603 5.21012 16.382 5.21582C16.401 5.22081 16.4198 5.22667 16.4386 5.23242C16.4438 5.23402 16.449 5.23565 16.4542 5.2373C16.4746 5.24377 16.4946 5.25143 16.5148 5.25879C16.5336 5.26567 16.5528 5.27164 16.5714 5.2793C16.594 5.2886 16.6159 5.29922 16.6378 5.30957C16.6616 5.32075 16.6858 5.33125 16.7091 5.34375C16.7135 5.3461 16.7175 5.34917 16.7218 5.35156C16.8028 5.39608 16.8809 5.44819 16.9542 5.50879L17.0607 5.60645C17.0643 5.61003 17.0679 5.61357 17.0714 5.61719L23.7267 12.2734L23.8302 12.3867Z" fill="currentColor"/>
</svg>
