<svg viewBox="0 0 24 24" fill="none" xmlns="http://www.w3.org/2000/svg">
<path d="M17.7751 14.6309C18.0954 14.2381 18.0728 13.6591 17.7067 13.293C17.3406 12.927 16.7615 12.9043 16.3688 13.2246L16.2926 13.293L12.9997 16.5859L12.9997 5C12.9997 4.44772 12.5519 4 11.9997 4C11.4475 4.00013 10.9997 4.44779 10.9997 5L10.9997 16.5859L7.70669 13.293L7.63052 13.2246C7.23775 12.9044 6.6587 12.9269 6.29263 13.293C5.92666 13.6591 5.90405 14.2381 6.22427 14.6309L6.29263 14.707L11.2926 19.707L11.3688 19.7754C11.3742 19.7798 11.38 19.7838 11.3854 19.7881C11.4051 19.8034 11.4252 19.8182 11.446 19.832C11.4712 19.8489 11.4968 19.8646 11.5231 19.8789C11.5252 19.88 11.5269 19.8817 11.529 19.8828C11.5443 19.891 11.5602 19.8979 11.5758 19.9053C11.6186 19.9254 11.6628 19.9431 11.7086 19.957C11.7254 19.9621 11.7425 19.9655 11.7594 19.9697C11.7699 19.9723 11.7802 19.9753 11.7907 19.9775C11.8046 19.9805 11.8186 19.983 11.8327 19.9854C11.8483 19.988 11.8639 19.9903 11.8795 19.9922C11.897 19.9943 11.9146 19.9959 11.9323 19.9971C11.9482 19.9982 11.9642 19.9987 11.9801 19.999C11.9866 19.9991 11.9931 20 11.9997 20C12.0064 20 12.0134 19.9992 12.0202 19.999C12.0381 19.9987 12.056 19.9984 12.0739 19.9971C12.0919 19.9958 12.1098 19.9944 12.1276 19.9922C12.1381 19.9908 12.1484 19.988 12.1588 19.9863C12.2535 19.9712 12.3436 19.9431 12.4274 19.9033C12.4438 19.8956 12.4602 19.8876 12.4762 19.8789C12.4911 19.8709 12.5057 19.8624 12.5202 19.8535C12.5319 19.8464 12.5439 19.8397 12.5553 19.832C12.6099 19.7955 12.6604 19.7533 12.7067 19.707L17.7067 14.707L17.7751 14.6309Z" fill="currentColor"/>
</svg>
