<svg viewBox="0 0 32 32" fill="none" xmlns="http://www.w3.org/2000/svg">
<path d="M12.3867 8.16977C12.9759 7.68942 13.8454 7.72418 14.3945 8.27329C14.9431 8.82244 14.9773 9.69118 14.4971 10.2801L14.3945 10.3944L10.2881 14.5008H25.334L25.4873 14.5086C26.2433 14.5858 26.834 15.2245 26.834 16.0008C26.8336 16.7769 26.2431 17.4159 25.4873 17.493L25.334 17.5008H10.2891L14.3945 21.6063L14.4971 21.7196C14.9776 22.3086 14.9434 23.1782 14.3945 23.7274C13.8454 24.2766 12.9759 24.3105 12.3867 23.8299L12.2734 23.7274L5.625 17.079C5.54965 17.0062 5.48169 16.9258 5.42285 16.8387C5.39532 16.798 5.36977 16.7564 5.34668 16.7137L5.34375 16.7088C5.32925 16.6818 5.31741 16.6535 5.30469 16.6258C5.29703 16.6092 5.28831 16.593 5.28125 16.576C5.26913 16.5468 5.25921 16.5169 5.24902 16.4872C5.24508 16.4757 5.23998 16.4646 5.23633 16.453C5.2349 16.4485 5.23381 16.4438 5.23242 16.4393C5.22425 16.4125 5.21758 16.3854 5.21094 16.3582C5.20757 16.3445 5.20317 16.331 5.2002 16.3172C5.19521 16.2941 5.19238 16.2705 5.18848 16.2469C5.18496 16.2257 5.18034 16.2047 5.17773 16.1834C5.17416 16.1541 5.17178 16.1244 5.16992 16.0946C5.16876 16.076 5.16845 16.0575 5.16797 16.0389C5.16765 16.0262 5.16602 16.0136 5.16602 16.0008C5.16602 15.9879 5.16764 15.9746 5.16797 15.9618C5.16861 15.9367 5.16901 15.9116 5.1709 15.8866C5.1726 15.864 5.17504 15.8415 5.17773 15.8192C5.18189 15.7848 5.18781 15.7507 5.19434 15.7166C5.19645 15.7056 5.19783 15.6944 5.2002 15.6834C5.20491 15.6615 5.21012 15.6397 5.21582 15.618C5.22081 15.599 5.22667 15.5802 5.23242 15.5614C5.23402 15.5562 5.23565 15.5509 5.2373 15.5457C5.24377 15.5254 5.25143 15.5054 5.25879 15.4852C5.26567 15.4664 5.27164 15.4472 5.2793 15.4286C5.2886 15.406 5.29922 15.3841 5.30957 15.3622C5.32075 15.3384 5.33125 15.3142 5.34375 15.2909C5.3461 15.2865 5.34917 15.2825 5.35156 15.2782C5.39608 15.1972 5.44819 15.1191 5.50879 15.0457L5.60645 14.9393C5.61003 14.9357 5.61357 14.9321 5.61719 14.9286L12.2734 8.27329L12.3867 8.16977Z" fill="currentColor"/>
</svg>
