<svg viewBox="0 0 32 32" fill="none" xmlns="http://www.w3.org/2000/svg">
<path d="M23.8302 19.6133C24.3106 19.0241 24.2758 18.1546 23.7267 17.6055C23.1775 17.0569 22.3088 17.0227 21.7199 17.5029L21.6056 17.6055L17.4992 21.7119V6.66602L17.4913 6.5127C17.4141 5.75671 16.7755 5.16602 15.9992 5.16602C15.2231 5.16637 14.5841 5.75687 14.507 6.5127L14.4992 6.66602L14.4992 21.7109L10.3937 17.6055L10.2804 17.5029C9.69136 17.0224 8.82181 17.0566 8.2726 17.6055C7.72342 18.1546 7.68953 19.0241 8.17006 19.6133L8.2726 19.7266L14.921 26.375C14.9938 26.4503 15.0741 26.5183 15.1613 26.5771C15.202 26.6047 15.2436 26.6302 15.2863 26.6533L15.2912 26.6562C15.3182 26.6708 15.3464 26.6826 15.3742 26.6953C15.3908 26.703 15.407 26.7117 15.424 26.7188C15.4532 26.7309 15.4831 26.7408 15.5128 26.751C15.5243 26.7549 15.5354 26.76 15.547 26.7637C15.5515 26.7651 15.5561 26.7662 15.5607 26.7676C15.5875 26.7758 15.6146 26.7824 15.6417 26.7891C15.6555 26.7924 15.6689 26.7968 15.6828 26.7998C15.7059 26.8048 15.7295 26.8076 15.7531 26.8115C15.7743 26.815 15.7952 26.8197 15.8165 26.8223C15.8459 26.8258 15.8755 26.8282 15.9054 26.8301C15.924 26.8312 15.9425 26.8316 15.9611 26.832C15.9737 26.8324 15.9864 26.834 15.9992 26.834C16.0121 26.834 16.0254 26.8324 16.0382 26.832C16.0633 26.8314 16.0884 26.831 16.1134 26.8291C16.136 26.8274 16.1585 26.825 16.1808 26.8223C16.2152 26.8181 16.2493 26.8122 16.2833 26.8057C16.2944 26.8035 16.3056 26.8022 16.3165 26.7998C16.3384 26.7951 16.3603 26.7899 16.382 26.7842C16.401 26.7792 16.4198 26.7733 16.4386 26.7676C16.4438 26.766 16.449 26.7643 16.4542 26.7627C16.4746 26.7562 16.4946 26.7486 16.5148 26.7412C16.5336 26.7343 16.5528 26.7284 16.5714 26.7207C16.594 26.7114 16.6159 26.7008 16.6378 26.6904C16.6616 26.6792 16.6858 26.6688 16.7091 26.6562C16.7135 26.6539 16.7175 26.6508 16.7218 26.6484C16.8028 26.6039 16.8809 26.5518 16.9542 26.4912L17.0607 26.3936C17.0643 26.39 17.0679 26.3864 17.0714 26.3828L23.7267 19.7266L23.8302 19.6133Z" fill="currentColor"/>
</svg>
