<svg viewBox="0 0 32 32" fill="none" xmlns="http://www.w3.org/2000/svg">
<path d="M10.7055 5.16797C10.7293 5.16859 10.7531 5.16915 10.7768 5.1709C10.8017 5.17271 10.8265 5.17473 10.851 5.17773C10.8763 5.18085 10.9012 5.18603 10.9262 5.19043C10.9452 5.19374 10.9642 5.19619 10.9829 5.2002C11.0144 5.20698 11.0455 5.21577 11.0766 5.22461C11.0923 5.22906 11.108 5.23333 11.1235 5.23828C11.1429 5.24448 11.1619 5.25178 11.1811 5.25879C11.2791 5.29461 11.3722 5.34006 11.4594 5.39453C11.4907 5.41406 11.5212 5.43498 11.5512 5.45703C11.6202 5.50752 11.6853 5.56275 11.7446 5.62402L17.061 10.9395L17.1635 11.0537C17.6437 11.6427 17.6098 12.5115 17.061 13.0605C16.5119 13.6095 15.6423 13.6443 15.0532 13.1641L14.9399 13.0605L12.1674 10.2881V25.334C12.167 26.1618 11.4953 26.8336 10.6674 26.834C9.83929 26.834 9.16788 26.162 9.16744 25.334V10.2861L6.394 13.0605C5.80831 13.6461 4.85866 13.646 4.27291 13.0605C3.68735 12.4748 3.68736 11.5252 4.27291 10.9395L9.59615 5.61523C9.63376 5.57692 9.67378 5.54095 9.71529 5.50684L9.72018 5.50293C9.83143 5.41223 9.95239 5.33912 10.0796 5.28516C10.0904 5.28052 10.1017 5.27684 10.1128 5.27246C10.1472 5.25879 10.182 5.24636 10.2172 5.23535C10.2253 5.23282 10.2335 5.23091 10.2417 5.22852C10.2789 5.21757 10.3162 5.20722 10.354 5.19922C10.372 5.19538 10.3904 5.19263 10.4087 5.18945C10.4343 5.185 10.46 5.18084 10.4858 5.17773C10.5129 5.17447 10.5403 5.1727 10.5678 5.1709C10.5883 5.16956 10.6088 5.16847 10.6294 5.16797C10.6419 5.16766 10.6548 5.16602 10.6674 5.16602C10.6802 5.16602 10.6929 5.16765 10.7055 5.16797Z" fill="currentColor"/>
<path d="M21.3335 5.16602C22.1617 5.16619 22.8335 5.83867 22.8335 6.66699V21.7119L25.6069 18.9395L25.7202 18.8359C26.3093 18.3557 27.1789 18.3904 27.728 18.9395C28.2767 19.4885 28.3107 20.3573 27.8305 20.9463L27.728 21.0605L22.394 26.3936C22.3233 26.4643 22.2452 26.5275 22.1616 26.583C22.1517 26.5896 22.1413 26.5953 22.1313 26.6016C22.0991 26.6219 22.0665 26.6413 22.0327 26.6592C22.0279 26.6617 22.0228 26.6636 22.018 26.666C21.9384 26.707 21.8551 26.7412 21.768 26.7676C21.748 26.7736 21.7277 26.779 21.7075 26.7842C21.6793 26.7914 21.6513 26.7991 21.6225 26.8047C21.6132 26.8065 21.6036 26.8069 21.5942 26.8086C21.5095 26.8235 21.4224 26.834 21.3335 26.834C21.2502 26.834 21.1689 26.8246 21.0893 26.8115C21.0724 26.8088 21.0553 26.8071 21.0385 26.8037C21.0224 26.8005 21.0066 26.7957 20.9907 26.792C20.9577 26.7843 20.9246 26.7766 20.892 26.7666C20.8155 26.743 20.7421 26.7127 20.6713 26.6777C20.6567 26.6705 20.6418 26.6639 20.6274 26.6562C20.6054 26.6444 20.5843 26.631 20.5629 26.6182C20.5417 26.6054 20.5202 26.593 20.4995 26.5791C20.4146 26.5221 20.3355 26.4574 20.2641 26.3848L14.9399 21.0605L14.8364 20.9463C14.3563 20.3571 14.3909 19.4885 14.9399 18.9395C15.4889 18.3906 16.3577 18.3559 16.9467 18.8359L17.061 18.9395L19.8335 21.7119V6.66699C19.8335 5.83868 20.5052 5.16621 21.3335 5.16602Z" fill="currentColor"/>
</svg>
