<svg viewBox="0 0 32 32" fill="none" xmlns="http://www.w3.org/2000/svg">
<path d="M16 3.83386C19.3008 3.83395 22.2929 5.14968 24.4834 7.2821V6.18542C24.4834 5.35723 25.1553 4.6858 25.9834 4.68542C26.8118 4.68542 27.4834 5.357 27.4834 6.18542V10.9003L27.4766 11.0536C27.456 11.2551 27.395 11.4452 27.3027 11.6151C27.1643 11.8698 26.9539 12.0802 26.6992 12.2186C26.4867 12.3341 26.2423 12.4003 25.9834 12.4003H21.2705C20.4424 12.4001 19.7709 11.7283 19.7705 10.9003C19.7705 10.1237 20.3609 9.48502 21.1172 9.40808L21.2705 9.40027H22.3594C20.7099 7.81025 18.4682 6.83395 16 6.83386C10.9379 6.83399 6.83301 10.9387 6.83301 16.0009C6.83345 21.0626 10.9381 25.1667 16 25.1669C21.0618 25.1667 25.1656 21.0626 25.166 16.0009C25.166 15.1726 25.8379 14.5012 26.666 14.5009C27.4944 14.5009 28.166 15.1724 28.166 16.0009C28.1656 22.7195 22.7187 28.1667 16 28.1669C9.28129 28.1667 3.83345 22.7195 3.83301 16.0009C3.83301 9.28184 9.28102 3.83399 16 3.83386Z" fill="currentColor"/>
</svg>
