<svg viewBox="0 0 16 16" fill="none" xmlns="http://www.w3.org/2000/svg">
<path d="M12.5712 9.38602C12.5712 8.84607 12.4092 8.34565 12.1318 7.92899C11.9025 7.58426 11.9961 7.11843 12.3407 6.88895C12.6855 6.65947 13.1512 6.7532 13.3808 7.09793C13.8171 7.75326 14.0712 8.54125 14.0712 9.38602C14.071 11.668 12.2214 13.5169 9.93937 13.5169H8.69523C8.28102 13.5169 7.94523 13.1811 7.94523 12.7669C7.94545 12.3529 8.28116 12.0169 8.69523 12.0169H9.93937C11.3929 12.0169 12.571 10.8395 12.5712 9.38602ZM4.85637 2.83719C5.14926 2.54436 5.62404 2.54432 5.91691 2.83719C6.20972 3.13007 6.20972 3.60486 5.91691 3.89774L4.56047 5.25418H10.0605C10.1922 5.25418 10.3232 5.25963 10.4521 5.27176L12.8124 2.91239C13.1053 2.61979 13.5802 2.61959 13.873 2.91239C14.1656 3.20519 14.1655 3.68006 13.873 3.97293L4.57902 13.2669C4.28613 13.5598 3.81039 13.5598 3.5175 13.2669C3.22501 12.974 3.22485 12.4991 3.5175 12.2063L8.97062 6.75418H4.56047L5.91691 8.11063C6.20962 8.40354 6.20974 8.87834 5.91691 9.17118C5.62407 9.46395 5.14925 9.46387 4.85637 9.17118L2.21965 6.53446C1.92677 6.24158 1.9268 5.76681 2.21965 5.47391L4.85637 2.83719Z" fill="currentColor"/>
</svg>
