<svg viewBox="0 0 32 32" fill="none" xmlns="http://www.w3.org/2000/svg">
<path d="M2.50049 16C2.50049 12.716 3.67686 9.71169 5.62451 7.37598C4.91555 7.25657 4.37549 6.64136 4.37549 5.89844C4.37558 5.07009 5.04712 4.39844 5.87549 4.39844H9.05811C9.88635 4.39859 10.558 5.07018 10.5581 5.89844V9.08398C10.5581 9.9123 9.88639 10.5838 9.05811 10.584C8.42279 10.584 7.88028 10.1886 7.66162 9.63086C6.30567 11.3976 5.50049 13.604 5.50049 16C5.50051 21.7996 10.2009 26.5 16.0005 26.5C16.6151 26.5 17.226 26.4362 17.8394 26.3271C18.6548 26.1822 19.4334 26.7256 19.5786 27.541C19.7236 28.3565 19.1802 29.1361 18.3647 29.2812C17.6128 29.4149 16.8232 29.5 16.0005 29.5C8.54408 29.5 2.50051 23.4564 2.50049 16ZM26.5005 16C26.5005 10.2004 21.8 5.50004 16.0005 5.5C15.3859 5.5 14.775 5.56384 14.1616 5.67285C13.346 5.81782 12.5673 5.27365 12.4224 4.45801C12.2777 3.64262 12.8209 2.86383 13.6362 2.71875C14.3882 2.5851 15.1778 2.5 16.0005 2.5C23.4569 2.50004 29.5005 8.5436 29.5005 16C29.5005 19.2839 28.3231 22.2873 26.3755 24.623C27.085 24.742 27.6255 25.3582 27.6255 26.1016C27.6255 26.93 26.9539 27.6016 26.1255 27.6016H22.9429C22.1146 27.6014 21.4429 26.9299 21.4429 26.1016V22.916C21.443 22.0878 22.1147 21.4162 22.9429 21.416C23.5777 21.416 24.1194 21.8111 24.3384 22.3682C25.6943 20.6015 26.5005 18.396 26.5005 16Z" fill="currentColor"/>
</svg>
