<svg viewBox="0 0 24 24" fill="none" xmlns="http://www.w3.org/2000/svg">
<path d="M16.3184 6.27451C16.7111 5.95391 17.291 5.97679 17.6572 6.34287C18.0231 6.70894 18.0457 7.28806 17.7256 7.68076L17.6572 7.75694L9.46387 15.9503H14.0498C14.6021 15.9503 15.0498 16.398 15.0498 16.9503C15.0496 17.5024 14.602 17.9503 14.0498 17.9503H7.0498C6.98435 17.9503 6.91893 17.9435 6.85449 17.9308L6.84863 17.9298C6.82842 17.9257 6.80881 17.9195 6.78906 17.9142C6.7793 17.9115 6.76946 17.9093 6.75977 17.9063C6.74919 17.9031 6.73894 17.8991 6.72852 17.8956C6.64781 17.8682 6.57 17.8309 6.49707 17.7823C6.38819 17.7098 6.29388 17.6173 6.2207 17.5089L6.21484 17.5001C6.20945 17.4919 6.20532 17.483 6.2002 17.4747C6.173 17.4308 6.14816 17.3852 6.12793 17.337C6.12079 17.32 6.11455 17.3026 6.1084 17.2853C6.09295 17.2419 6.0797 17.1974 6.07031 17.1515L6.06836 17.1417C6.05612 17.0785 6.0498 17.0144 6.0498 16.9503V9.95029C6.0498 9.39809 6.49763 8.95043 7.0498 8.95029C7.60209 8.95029 8.0498 9.39801 8.0498 9.95029V14.5362L16.2432 6.34287L16.3184 6.27451Z" fill="currentColor"/>
</svg>
