<svg viewBox="0 0 24 24" fill="none" xmlns="http://www.w3.org/2000/svg">
<path d="M8.02043 4.00098C8.03802 4.00133 8.05561 4.00165 8.07317 4.00293C8.09087 4.00421 8.10847 4.00562 8.1259 4.00781C8.13768 4.0093 8.14933 4.01177 8.16106 4.01367C8.17981 4.01671 8.19833 4.02034 8.21672 4.02441C8.22782 4.02687 8.2389 4.02939 8.24992 4.03223C8.3172 4.04956 8.3813 4.07429 8.44231 4.10449C8.5376 4.15158 8.6276 4.21362 8.70696 4.29297L12.707 8.29297L12.7753 8.36914C13.0956 8.7619 13.073 9.34092 12.707 9.70703C12.3409 10.0731 11.7618 10.0957 11.3691 9.77539L11.2929 9.70703L8.99992 7.41406V19C8.99992 19.5523 8.55217 20 7.99992 20C7.44764 20 6.99992 19.5523 6.99992 19V7.41406L4.70696 9.70703C4.31644 10.0975 3.68342 10.0975 3.29289 9.70703C2.90237 9.31651 2.90237 8.68349 3.29289 8.29297L7.29289 4.29297C7.35006 4.2358 7.4147 4.18656 7.4843 4.14453C7.50425 4.13248 7.52428 4.12088 7.54485 4.11035C7.60718 4.07841 7.67304 4.05256 7.74211 4.03418C7.75869 4.02977 7.77518 4.02503 7.79192 4.02148C7.80289 4.01917 7.81402 4.01758 7.82512 4.01562C7.84264 4.01252 7.86023 4.00998 7.87785 4.00781C7.89562 4.00565 7.91352 4.00415 7.93157 4.00293C7.9475 4.00184 7.96345 4.00131 7.97942 4.00098C7.98622 4.00084 7.99309 4 7.99992 4C8.00678 4 8.01361 4.00084 8.02043 4.00098Z" fill="currentColor"/>
<path d="M15.9999 4C16.5522 4.00004 16.9999 4.44774 16.9999 5V16.5859L19.2929 14.293C19.6834 13.9025 20.3164 13.9025 20.707 14.293C21.0974 14.6835 21.0974 15.3165 20.707 15.707L16.707 19.707C16.6277 19.7863 16.5375 19.8475 16.4423 19.8945C16.3813 19.9248 16.3173 19.9494 16.2499 19.9668C16.2389 19.9696 16.2278 19.9722 16.2167 19.9746C16.1983 19.9787 16.1798 19.9823 16.1611 19.9854C16.1493 19.9873 16.1377 19.9897 16.1259 19.9912C16.1085 19.9934 16.0909 19.9948 16.0732 19.9961C16.0556 19.9974 16.038 19.9987 16.0204 19.999C16.0136 19.9992 16.0068 20 15.9999 20C15.9931 20 15.9862 19.9992 15.9794 19.999C15.9634 19.9987 15.9475 19.9972 15.9316 19.9961C15.9135 19.9949 15.8956 19.9934 15.8779 19.9912C15.8602 19.989 15.8427 19.9865 15.8251 19.9834C15.814 19.9814 15.8029 19.9799 15.7919 19.9775C15.7752 19.974 15.7587 19.9693 15.7421 19.9648C15.6731 19.9465 15.6071 19.9216 15.5448 19.8896C15.5243 19.8791 15.5042 19.8675 15.4843 19.8555C15.4147 19.8134 15.3501 19.7642 15.2929 19.707L11.2929 15.707L11.2245 15.6309C10.9042 15.2381 10.9268 14.6591 11.2929 14.293C11.659 13.9269 12.238 13.9043 12.6308 14.2246L12.707 14.293L14.9999 16.5859V5C14.9999 4.44772 15.4476 4 15.9999 4Z" fill="currentColor"/>
</svg>
