<svg viewBox="0 0 24 24" fill="none" xmlns="http://www.w3.org/2000/svg">
<path d="M12 3C14.5498 3 16.8515 4.06113 18.4883 5.76367V4.63867C18.4885 4.08654 18.9361 3.63867 19.4883 3.63867C20.0403 3.63882 20.4881 4.08663 20.4883 4.63867V8.1748L20.4834 8.27734C20.432 8.78133 20.0058 9.17466 19.4883 9.1748H15.9531C15.4009 9.1748 14.9532 8.72703 14.9531 8.1748C14.9533 7.65728 15.3466 7.23101 15.8506 7.17969L15.9531 7.1748H17.0693C15.7934 5.83453 13.9936 5 12 5C8.13428 5 5 8.13428 5 12C5 15.8657 8.13428 19 12 19C15.8657 19 19 15.8657 19 12C19 11.4477 19.4477 11 20 11C20.5523 11 21 11.4477 21 12C21 16.9703 16.9703 21 12 21C7.02972 21 3 16.9703 3 12C3 7.02972 7.02972 3 12 3Z" fill="currentColor"/>
</svg>
