<svg viewBox="0 0 16 16" fill="none" xmlns="http://www.w3.org/2000/svg">
<path d="M10.6661 2.58301C11.0802 2.58301 11.416 2.91894 11.4161 3.33301V10.8555L12.8028 9.46973L12.8605 9.41797C13.155 9.17811 13.5889 9.19543 13.8634 9.46973C14.138 9.74436 14.1555 10.1791 13.9152 10.4736L13.8634 10.5303L11.1974 13.1973C11.0828 13.3119 10.9397 13.3795 10.7911 13.4043C10.7579 13.4099 10.7241 13.413 10.6896 13.4141C10.6749 13.4145 10.6603 13.4145 10.6456 13.4141C10.6091 13.4131 10.5733 13.4104 10.5382 13.4043C10.5317 13.4032 10.5251 13.4027 10.5187 13.4014C10.504 13.3984 10.4901 13.3925 10.4757 13.3887C10.4425 13.3799 10.409 13.3718 10.3771 13.3584C10.3586 13.3507 10.342 13.3392 10.3243 13.3301C10.2574 13.2955 10.193 13.2533 10.1368 13.1973L7.46984 10.5303L7.41808 10.4736C7.17777 10.1791 7.19524 9.74433 7.46984 9.46973C7.74445 9.19519 8.17919 9.17768 8.47375 9.41797L8.53039 9.46973L9.91613 10.8555V3.33301C9.91631 2.91911 10.2523 2.58328 10.6661 2.58301Z" fill="currentColor"/>
<path d="M5.35949 2.58398C5.36601 2.58421 5.37251 2.58456 5.37902 2.58496C5.41733 2.58728 5.45478 2.59273 5.49133 2.60059C5.53021 2.60893 5.56816 2.62117 5.60558 2.63574C5.61229 2.63837 5.61948 2.63977 5.62609 2.64258C5.71235 2.67909 5.79308 2.73251 5.8634 2.80273L8.52941 5.46973L8.58117 5.52637C8.82145 5.82095 8.804 6.25568 8.52941 6.53027C8.25481 6.80443 7.8209 6.82117 7.52648 6.58105L7.46886 6.53027L6.08312 5.14453V12.666C6.08312 13.0802 5.74727 13.4159 5.33312 13.416C4.91906 13.4158 4.58312 13.0801 4.58312 12.666V5.14258L3.1964 6.53027C2.90354 6.82284 2.42867 6.82291 2.13586 6.53027C1.84341 6.23744 1.84336 5.76252 2.13586 5.46973L4.80285 2.80273L4.85949 2.75098C4.87111 2.7415 4.88456 2.73426 4.8966 2.72559C4.90937 2.7164 4.92231 2.7076 4.93566 2.69922C4.96223 2.68253 4.98966 2.66831 5.01769 2.65527C5.03343 2.64794 5.04924 2.64102 5.06554 2.63477C5.09286 2.62432 5.12041 2.61553 5.14855 2.6084C5.17426 2.60187 5.19999 2.59462 5.22668 2.59082C5.2306 2.59026 5.23447 2.58936 5.2384 2.58887C5.26936 2.58496 5.3011 2.58302 5.33312 2.58301C5.34195 2.58301 5.35074 2.58368 5.35949 2.58398Z" fill="currentColor"/>
</svg>
