<svg viewBox="0 0 24 24" fill="none" xmlns="http://www.w3.org/2000/svg">
<path d="M2 12C2 9.47858 2.93603 7.17945 4.47461 5.42383H4.40625C3.85397 5.42383 3.40625 4.97611 3.40625 4.42383C3.40634 3.87162 3.85402 3.42383 4.40625 3.42383H6.79297C7.3452 3.42383 7.79288 3.87162 7.79297 4.42383V6.81348C7.79271 7.36554 7.34509 7.81348 6.79297 7.81348C6.2883 7.81346 5.87191 7.43899 5.80371 6.95312C4.6773 8.33013 4 10.0847 4 12C4 16.4187 7.58128 20 12 20C12.4697 20 12.9356 19.951 13.4014 19.8682C13.9449 19.7718 14.4638 20.1343 14.5605 20.6777C14.6572 21.2215 14.2947 21.7412 13.751 21.8379C13.1928 21.9371 12.6083 22 12 22C6.47672 22 2 17.5233 2 12ZM20 12C20 7.58128 16.4187 4 12 4C11.5303 4 11.0644 4.04905 10.5986 4.13184C10.0551 4.22822 9.5362 3.86575 9.43945 3.32227C9.34281 2.7785 9.70526 2.25875 10.249 2.16211C10.8072 2.0629 11.3917 2 12 2C17.5233 2 22 6.47672 22 12C22 14.5214 21.064 16.8206 19.5254 18.5762H19.5938C20.146 18.5762 20.5938 19.0239 20.5938 19.5762C20.5937 20.1284 20.146 20.5762 19.5938 20.5762H17.207C16.6548 20.5762 16.2071 20.1284 16.207 19.5762V17.1865C16.2073 16.6345 16.6549 16.1865 17.207 16.1865C17.7113 16.1865 18.1266 16.5606 18.1953 17.0459C19.3217 15.6689 20 13.9153 20 12Z" fill="currentColor"/>
</svg>
