<svg viewBox="0 0 12 12" fill="none" xmlns="http://www.w3.org/2000/svg">
<path d="M2 6C2 5.06126 2.3243 4.1995 2.86523 3.51855C2.67897 3.44585 2.5469 3.26571 2.54688 3.05371C2.54688 2.77757 2.77073 2.55371 3.04688 2.55371H3.97461C4.25075 2.55371 4.47461 2.77757 4.47461 3.05371V3.98242C4.47461 4.25856 4.25075 4.48242 3.97461 4.48242C3.80105 4.48233 3.64818 4.3941 3.55859 4.25977C3.20686 4.7506 3 5.35098 3 6C3.00004 7.657 4.343 8.99998 6 9C6.27614 9 6.5 9.22386 6.5 9.5C6.49998 9.77613 6.27613 10 6 10C3.79071 9.99998 2.00004 8.20928 2 6ZM9 6C8.99998 4.34298 7.65702 3.00002 6 3C5.72386 3 5.5 2.77614 5.5 2.5C5.5 2.22386 5.72386 2 6 2C8.2093 2.00002 9.99998 3.7907 10 6C10 6.93869 9.67468 7.79954 9.13379 8.48047C9.32057 8.55294 9.45312 8.7339 9.45312 8.94629C9.4531 9.22241 9.22925 9.44629 8.95312 9.44629H8.02539C7.74926 9.44629 7.52541 9.22241 7.52539 8.94629V8.01758C7.52539 7.74144 7.74925 7.51758 8.02539 7.51758C8.19845 7.51774 8.35079 7.60552 8.44043 7.73926C8.79209 7.24846 9 6.64895 9 6Z" fill="currentColor"/>
</svg>
