<svg viewBox="0 0 16 16" fill="none" xmlns="http://www.w3.org/2000/svg">
<path d="M8 1.91699C6.34869 1.91709 4.85343 2.57737 3.75781 3.64453V3.09277C3.75781 2.67863 3.42192 2.34289 3.00781 2.34277C2.59379 2.34299 2.25781 2.6787 2.25781 3.09277V5.4502L2.26172 5.52637C2.27447 5.65243 2.3184 5.76937 2.38574 5.86914C2.43959 5.9489 2.50818 6.01835 2.58789 6.07227C2.70751 6.15312 2.85258 6.20011 3.00781 6.2002H5.36426C5.77839 6.2002 6.11412 5.86429 6.11426 5.4502C6.11426 5.06203 5.81937 4.74273 5.44141 4.7041L5.36426 4.7002H4.82324C5.64776 3.90597 6.76664 3.41709 8 3.41699C10.5309 3.41717 12.5828 5.46914 12.583 8C12.5829 10.5309 10.5309 12.5838 8 12.584C5.46913 12.5838 3.41615 10.5309 3.41602 8C3.41584 7.58594 3.08012 7.25 2.66602 7.25C2.25223 7.25037 1.91619 7.58617 1.91602 8C1.91615 11.3593 4.6407 14.0838 8 14.084C11.3593 14.0838 14.0829 11.3593 14.083 8C14.0828 4.64071 11.3593 1.91717 8 1.91699Z" fill="currentColor"/>
</svg>
