<svg viewBox="0 0 16 16" fill="none" xmlns="http://www.w3.org/2000/svg">
<path d="M9.80664 4.08507C9.51212 3.84515 9.0782 3.8625 8.80371 4.13683C8.52912 4.41149 8.51153 4.84618 8.75195 5.14074L8.80371 5.19738L10.8564 7.25011H3.33398L3.25684 7.25402C2.8788 7.29247 2.58415 7.61197 2.58398 8.00011C2.58422 8.38817 2.87888 8.70773 3.25684 8.74621L3.33398 8.75011H10.8564L8.80371 10.8028L8.75195 10.8605C8.51184 11.155 8.52918 11.5889 8.80371 11.8634C9.07825 12.1377 9.51215 12.1552 9.80664 11.9152L9.86426 11.8634L13.1973 8.53039L13.249 8.47375L13.2783 8.43273C13.2869 8.42057 13.2939 8.40733 13.3018 8.39464C13.3192 8.36661 13.3352 8.33834 13.3486 8.30871C13.3519 8.30143 13.3563 8.29462 13.3594 8.28722C13.3624 8.27989 13.3644 8.27217 13.3672 8.26476C13.3779 8.23623 13.3864 8.20725 13.3936 8.17785C13.3974 8.16217 13.4025 8.14682 13.4053 8.13097C13.4128 8.08848 13.417 8.04475 13.417 8.00011C13.417 7.99111 13.4163 7.98169 13.416 7.97277C13.4158 7.96658 13.4154 7.9604 13.415 7.95421C13.4133 7.92478 13.4103 7.89573 13.4053 7.8673C13.4038 7.85907 13.4012 7.85107 13.3994 7.84289C13.3934 7.8147 13.3843 7.78735 13.375 7.75988C13.3703 7.74594 13.3669 7.73158 13.3613 7.71789L13.3574 7.70812L13.3564 7.70421C13.3415 7.66937 13.3222 7.63634 13.3018 7.60363C13.2977 7.59712 13.2953 7.58953 13.291 7.58312C13.2877 7.5781 13.2838 7.57343 13.2803 7.56847C13.2559 7.53384 13.2282 7.50083 13.1973 7.46984L9.86426 4.13683L9.80664 4.08507Z" fill="currentColor"/>
</svg>
