<svg viewBox="0 0 24 24" fill="none" xmlns="http://www.w3.org/2000/svg">
<path d="M7.68172 6.27451C7.289 5.95391 6.70909 5.97679 6.34285 6.34287C5.97698 6.70894 5.95436 7.28806 6.27449 7.68076L6.34285 7.75694L14.5362 15.9503H9.95028C9.39799 15.9503 8.95028 16.398 8.95028 16.9503C8.95046 17.5024 9.3981 17.9503 9.95028 17.9503H16.9503C17.0157 17.9503 17.0812 17.9435 17.1456 17.9308L17.1514 17.9298C17.1717 17.9257 17.1913 17.9195 17.211 17.9142C17.2208 17.9115 17.2306 17.9093 17.2403 17.9063C17.2509 17.9031 17.2611 17.8991 17.2716 17.8956C17.3523 17.8682 17.4301 17.8309 17.503 17.7823C17.6119 17.7098 17.7062 17.6173 17.7794 17.5089L17.7852 17.5001C17.7906 17.4919 17.7948 17.483 17.7999 17.4747C17.8271 17.4308 17.8519 17.3852 17.8722 17.337C17.8793 17.32 17.8855 17.3026 17.8917 17.2853C17.9071 17.2419 17.9204 17.1974 17.9298 17.1515L17.9317 17.1417C17.944 17.0785 17.9503 17.0144 17.9503 16.9503V9.95029C17.9503 9.39809 17.5024 8.95043 16.9503 8.95029C16.398 8.95029 15.9503 9.39801 15.9503 9.95029V14.5362L7.75692 6.34287L7.68172 6.27451Z" fill="currentColor"/>
</svg>
