<svg viewBox="0 0 16 16" fill="none" xmlns="http://www.w3.org/2000/svg">
<path d="M13.4102 13.2539C13.7882 13.2924 14.0838 13.6119 14.084 14C14.0839 14.3882 13.7882 14.7076 13.4102 14.7461L13.334 14.75H2.66699C2.25286 14.75 1.91712 14.4141 1.91699 14C1.91717 13.5859 2.25289 13.25 2.66699 13.25H13.334L13.4102 13.2539Z" fill="currentColor"/>
<path d="M8 1.25C8.41405 1.2502 8.75 1.58591 8.75 2V9.52148L10.8027 7.46973L10.8604 7.41797C11.1549 7.17804 11.5888 7.19541 11.8633 7.46973C12.1379 7.74438 12.1555 8.17905 11.915 8.47363L11.8633 8.53027L8.5293 11.8643C8.4804 11.9131 8.4235 11.9511 8.36426 11.9844C8.33862 11.9988 8.31351 12.014 8.28613 12.0254C8.23444 12.0469 8.1805 12.0618 8.125 12.0713C8.0899 12.0772 8.05416 12.0812 8.01758 12.082C8.01139 12.0822 8.00523 12.084 7.99902 12.084C7.99183 12.084 7.98471 12.0813 7.97754 12.0811C7.94265 12.08 7.90854 12.0769 7.875 12.0713C7.72227 12.0455 7.57966 11.9752 7.46875 11.8643L4.13574 8.53027L4.08398 8.47363C3.84367 8.17905 3.86114 7.74432 4.13574 7.46973C4.41036 7.19517 4.84509 7.17768 5.13965 7.41797L5.19629 7.46973L7.25 9.52344V2C7.25 1.58589 7.58594 1.25018 8 1.25Z" fill="currentColor"/>
</svg>
