<svg viewBox="0 0 32 32" fill="none" xmlns="http://www.w3.org/2000/svg">
<path d="M19.6133 8.16977C19.0241 7.68942 18.1546 7.72418 17.6055 8.27329C17.0569 8.82244 17.0227 9.69118 17.5029 10.2801L17.6055 10.3944L21.7119 14.5008H6.66602L6.5127 14.5086C5.75671 14.5858 5.16602 15.2245 5.16602 16.0008C5.16637 16.7769 5.75687 17.4159 6.5127 17.493L6.66602 17.5008H21.7109L17.6055 21.6063L17.5029 21.7196C17.0224 22.3086 17.0566 23.1782 17.6055 23.7274C18.1546 24.2766 19.0241 24.3105 19.6133 23.8299L19.7266 23.7274L26.375 17.079C26.4503 17.0062 26.5183 16.9258 26.5771 16.8387C26.6047 16.798 26.6302 16.7564 26.6533 16.7137L26.6562 16.7088C26.6708 16.6818 26.6826 16.6535 26.6953 16.6258C26.703 16.6092 26.7117 16.593 26.7188 16.576C26.7309 16.5468 26.7408 16.5169 26.751 16.4872C26.7549 16.4757 26.76 16.4646 26.7637 16.453C26.7651 16.4485 26.7662 16.4438 26.7676 16.4393C26.7758 16.4125 26.7824 16.3854 26.7891 16.3582C26.7924 16.3445 26.7968 16.331 26.7998 16.3172C26.8048 16.2941 26.8076 16.2705 26.8115 16.2469C26.815 16.2257 26.8197 16.2047 26.8223 16.1834C26.8258 16.1541 26.8282 16.1244 26.8301 16.0946C26.8312 16.076 26.8316 16.0575 26.832 16.0389C26.8324 16.0262 26.834 16.0136 26.834 16.0008C26.834 15.9879 26.8324 15.9746 26.832 15.9618C26.8314 15.9367 26.831 15.9116 26.8291 15.8866C26.8274 15.864 26.825 15.8415 26.8223 15.8192C26.8181 15.7848 26.8122 15.7507 26.8057 15.7166C26.8035 15.7056 26.8022 15.6944 26.7998 15.6834C26.7951 15.6615 26.7899 15.6397 26.7842 15.618C26.7792 15.599 26.7733 15.5802 26.7676 15.5614C26.766 15.5562 26.7643 15.5509 26.7627 15.5457C26.7562 15.5254 26.7486 15.5054 26.7412 15.4852C26.7343 15.4664 26.7284 15.4472 26.7207 15.4286C26.7114 15.406 26.7008 15.3841 26.6904 15.3622C26.6792 15.3384 26.6688 15.3142 26.6562 15.2909C26.6539 15.2865 26.6508 15.2825 26.6484 15.2782C26.6039 15.1972 26.5518 15.1191 26.4912 15.0457L26.3936 14.9393C26.39 14.9357 26.3864 14.9321 26.3828 14.9286L19.7266 8.27329L19.6133 8.16977Z" fill="currentColor"/>
</svg>
