<svg viewBox="0 0 32 32" fill="none" xmlns="http://www.w3.org/2000/svg">
<path d="M16 3.83398C12.6992 3.83407 9.70709 5.14981 7.5166 7.28223V6.18555C7.5166 5.35735 6.84471 4.68592 6.0166 4.68555C5.18817 4.68555 4.5166 5.35712 4.5166 6.18555V10.9004L4.52344 11.0537C4.54398 11.2552 4.60497 11.4454 4.69727 11.6152C4.83573 11.8699 5.04612 12.0803 5.30078 12.2188C5.51334 12.3342 5.75768 12.4004 6.0166 12.4004H10.7295C11.5576 12.4003 12.2291 11.7284 12.2295 10.9004C12.2295 10.1238 11.6391 9.48514 10.8828 9.4082L10.7295 9.40039H9.64062C11.2901 7.81038 13.5318 6.83407 16 6.83398C21.0621 6.83412 25.167 10.9388 25.167 16.001C25.1666 21.0628 21.0619 25.1669 16 25.167C10.9382 25.1668 6.83442 21.0627 6.83398 16.001C6.83398 15.1727 6.16215 14.5013 5.33398 14.501C4.50556 14.501 3.83398 15.1725 3.83398 16.001C3.83442 22.7196 9.28133 28.1668 16 28.167C22.7187 28.1669 28.1666 22.7196 28.167 16.001C28.167 9.28196 22.719 3.83412 16 3.83398Z" fill="currentColor"/>
</svg>
