<svg viewBox="0 0 16 16" fill="none" xmlns="http://www.w3.org/2000/svg">
<path d="M12.666 4.58301C13.0801 4.58301 13.4158 4.91894 13.416 5.33301V11.666C13.416 13.0006 12.3345 14.0828 11 14.083H5C3.66546 14.0828 2.58301 13.0006 2.58301 11.666V5.33301C2.58318 4.91905 2.91905 4.58318 3.33301 4.58301C3.74711 4.58301 4.08283 4.91894 4.08301 5.33301V11.666C4.08301 12.1722 4.49389 12.5828 5 12.583H5.91602V5.33301C5.91619 4.91916 6.25221 4.58336 6.66602 4.58301C7.08012 4.58301 7.41584 4.91894 7.41602 5.33301V12.583H11C11.5061 12.5828 11.916 12.1722 11.916 11.666V5.33301C11.9162 4.91916 12.2522 4.58336 12.666 4.58301Z" fill="currentColor"/>
<path d="M10.333 9.33301C10.7012 9.33301 11 9.63181 11 10V11.2266C11 11.5948 10.7012 11.8936 10.333 11.8936C10.0111 11.8934 9.74295 11.6648 9.68066 11.3613L9.66699 11.2266V10C9.66699 9.63192 9.96497 9.33318 10.333 9.33301Z" fill="currentColor"/>
<path d="M14.0771 1.91992C14.4549 1.95851 14.7497 2.2781 14.75 2.66602C14.75 3.05416 14.4551 3.37346 14.0771 3.41211L14 3.41602H2C1.58579 3.41602 1.25 3.08023 1.25 2.66602C1.25031 2.25206 1.58598 1.91602 2 1.91602H14L14.0771 1.91992Z" fill="currentColor"/>
</svg>
