<svg viewBox="0 0 24 24" fill="none" xmlns="http://www.w3.org/2000/svg">
<path d="M19 7C19.5523 7 20 7.44772 20 8V17.5C20 19.433 18.433 21 16.5 21H7.5C5.567 21 4 19.433 4 17.5V8C4 7.44772 4.44772 7 5 7C5.55228 7 6 7.44772 6 8V17.5C6 18.3284 6.67157 19 7.5 19H9V8C9 7.44772 9.44772 7 10 7C10.5523 7 11 7.44772 11 8V19H16.5C17.3284 19 18 18.3284 18 17.5V8C18 7.44772 18.4477 7 19 7Z" fill="currentColor"/>
<path d="M15.5 14C16.0523 14 16.5 14.4477 16.5 15V16.8398C16.5 17.3921 16.0523 17.8398 15.5 17.8398C14.9823 17.8398 14.5561 17.4466 14.5049 16.9424L14.5 16.8398V15C14.5 14.4477 14.9477 14 15.5 14Z" fill="currentColor"/>
<path d="M21 3C21.5523 3 22 3.44772 22 4C22 4.55228 21.5523 5 21 5H3C2.44772 5 2 4.55228 2 4C2 3.44772 2.44772 3 3 3H21Z" fill="currentColor"/>
</svg>
