<svg viewBox="0 0 32 32" fill="none" xmlns="http://www.w3.org/2000/svg">
<path d="M25.334 9.41711C26.0241 9.41742 26.584 9.97695 26.584 10.6671V23.3341C26.5835 25.865 24.5309 27.917 22 27.9171H10C7.46912 27.9169 5.41743 25.8649 5.41699 23.3341V10.6671C5.41699 9.97676 5.97664 9.41711 6.66699 9.41711C7.35724 9.41725 7.91699 9.97684 7.91699 10.6671V23.3341C7.91743 24.4842 8.84983 25.4169 10 25.4171H12.084V10.6671C12.084 9.97676 12.6436 9.41711 13.334 9.41711C14.0241 9.41742 14.584 9.97695 14.584 10.6671V25.4171H22C23.1502 25.417 24.0835 24.4842 24.084 23.3341V10.6671C24.084 9.97676 24.6436 9.41711 25.334 9.41711Z" fill="currentColor"/>
<path d="M20.667 18.6671C21.4032 18.6673 22 19.2639 22 20.0001V22.4532C22 23.1895 21.4032 23.7871 20.667 23.7872C19.9767 23.7872 19.4082 23.2622 19.3398 22.59L19.333 22.4532V20.0001C19.333 19.2637 19.9306 18.6671 20.667 18.6671Z" fill="currentColor"/>
<path d="M28.1279 4.08997C28.7582 4.15405 29.25 4.68695 29.25 5.33411C29.2496 5.9809 28.7579 6.51323 28.1279 6.57727L28 6.58411H4C3.30992 6.58411 2.75044 6.02409 2.75 5.33411C2.75 4.64375 3.30964 4.08313 4 4.08313H28L28.1279 4.08997Z" fill="currentColor"/>
</svg>
