<svg viewBox="0 0 16 16" fill="none" xmlns="http://www.w3.org/2000/svg">
<path d="M13.75 8.73828C13.75 8.36497 13.4761 8.06859 13.1377 8.03027C12.8312 7.99566 12.5769 7.77737 12.4971 7.47949C11.9418 5.40356 10.0942 3.97559 8 3.97559C5.90576 3.97559 4.05822 5.40356 3.50293 7.47949C3.42313 7.77737 3.16876 7.99566 2.8623 8.03027C2.52388 8.06859 2.25 8.36497 2.25 8.73828C2.25006 9.11151 2.52395 9.40696 2.8623 9.44531C3.16868 9.47992 3.42307 9.69927 3.50293 9.99707C4.05955 12.072 5.90631 13.4987 8 13.5L8.19531 13.4961C10.2077 13.4094 11.9578 12.0072 12.4971 9.99707L12.5352 9.88867C12.6415 9.64697 12.8697 9.47558 13.1377 9.44531C13.476 9.40696 13.7499 9.11151 13.75 8.73828ZM9.01074 10.1377C9.3245 9.86743 9.79798 9.90212 10.0684 10.2158C10.3388 10.5296 10.303 11.003 9.98926 11.2734C8.84844 12.2567 7.15156 12.2567 6.01074 11.2734C5.69699 11.003 5.66122 10.5296 5.93164 10.2158C6.20202 9.90212 6.6755 9.86743 6.98926 10.1377C7.56732 10.6359 8.43268 10.6359 9.01074 10.1377ZM6.36719 7.29395C6.61942 6.9655 7.09042 6.90408 7.41895 7.15625C7.74738 7.40849 7.80978 7.87948 7.55762 8.20801C7.23312 8.63073 6.73395 8.88275 6.20117 8.89453C6.18888 8.8948 6.17635 8.89486 6.16406 8.89453C5.63435 8.88013 5.13851 8.62947 4.81348 8.21094C4.5596 7.8838 4.61921 7.41221 4.94629 7.1582C5.27343 6.90433 5.74502 6.96394 5.99902 7.29102C6.04487 7.3499 6.11277 7.38551 6.18652 7.39258C6.25771 7.38584 6.32331 7.35111 6.36719 7.29395ZM9.99902 7.29395C10.2513 6.96565 10.7223 6.90412 11.0508 7.15625C11.379 7.40854 11.4406 7.87956 11.1885 8.20801C10.8637 8.63088 10.3641 8.88311 9.83105 8.89453C9.81901 8.89478 9.80697 8.89486 9.79492 8.89453C9.26542 8.88001 8.77012 8.62936 8.44531 8.21094C8.19136 7.88371 8.25089 7.41216 8.57812 7.1582C8.90527 6.90453 9.37595 6.96406 9.62988 7.29102C9.67554 7.34985 9.7438 7.38543 9.81738 7.39258C9.8888 7.38599 9.95502 7.35127 9.99902 7.29395ZM15.25 8.73828C15.2499 9.67712 14.664 10.4998 13.8135 10.8135C12.9838 13.216 10.7906 14.8852 8.26074 14.9941L8 15C5.36123 14.9986 3.04343 13.2983 2.18555 10.8135C1.33551 10.4996 0.75005 9.6768 0.75 8.73828C0.75 7.79962 1.33535 6.97594 2.18555 6.66211C2.91599 4.54368 4.7079 2.99607 6.85547 2.58496C6.74382 2.53294 6.61576 2.5 6.47852 2.5C6.06441 2.49987 5.72852 2.16413 5.72852 1.75C5.72852 1.33587 6.06441 1.00013 6.47852 1C7.03341 1 7.57708 1.19253 8 1.55078C8.42293 1.19251 8.96657 1 9.52148 1C9.93561 1.0001 10.2715 1.33585 10.2715 1.75C10.2715 2.16415 9.93561 2.4999 9.52148 2.5C9.38389 2.5 9.2554 2.5327 9.14355 2.58496C11.2914 2.99578 13.0829 4.54353 13.8135 6.66211C14.6641 6.9757 15.25 7.7993 15.25 8.73828Z" fill="currentColor"/>
</svg>
