<svg viewBox="0 0 24 24" fill="none" xmlns="http://www.w3.org/2000/svg">
<path d="M19.8779 12.9924C19.8779 12.478 19.498 12.0637 19.0205 12.01C18.6121 11.964 18.2736 11.6726 18.167 11.2756C17.4069 8.44583 14.8761 6.49536 12.0029 6.49536C9.12971 6.49536 6.59894 8.44583 5.83887 11.2756C5.73226 11.6726 5.3938 11.964 4.98535 12.01C4.50781 12.0637 4.12793 12.478 4.12793 12.9924C4.12793 13.4745 4.46146 13.8684 4.89648 13.9602L4.98535 13.9749L5.13477 14.0032C5.47453 14.0951 5.74541 14.3611 5.83887 14.7083C6.60049 17.5372 9.13019 19.4858 12.0029 19.4875C14.8757 19.4858 17.4054 17.5372 18.167 14.7083L18.2178 14.5647C18.3597 14.2427 18.6634 14.0151 19.0205 13.9749C19.498 13.9211 19.8779 13.5068 19.8779 12.9924ZM13.3438 14.8235C13.7589 14.4596 14.3907 14.5013 14.7549 14.9163C15.1188 15.3314 15.0771 15.9632 14.6621 16.3274C13.1389 17.6637 10.8669 17.6637 9.34375 16.3274C8.92874 15.9632 8.88701 15.3314 9.25098 14.9163C9.61513 14.5013 10.247 14.4596 10.6621 14.8235C11.4307 15.4979 12.5752 15.4979 13.3438 14.8235ZM9.68945 10.8792C10.0133 10.4319 10.6386 10.3319 11.0859 10.6555C11.5333 10.9794 11.6334 11.6046 11.3096 12.052C10.8954 12.6242 10.2423 12.9863 9.52344 13.0032C9.50619 13.0036 9.48893 13.0027 9.47168 13.0022C8.75734 12.9817 8.1085 12.6235 7.69336 12.0569C7.36704 11.6113 7.46361 10.9857 7.90918 10.6594C8.35475 10.3331 8.98032 10.4297 9.30664 10.8752C9.3648 10.9545 9.43756 10.9898 9.50195 10.9993C9.56321 10.9906 9.63323 10.9568 9.68945 10.8792ZM14.6895 10.8792C15.0133 10.4319 15.6386 10.3319 16.0859 10.6555C16.5333 10.9794 16.6334 11.6046 16.3096 12.052C15.8951 12.6245 15.2418 12.9867 14.5225 13.0032C14.5053 13.0036 14.4878 13.0027 14.4707 13.0022C13.7566 12.9814 13.1072 12.6236 12.6924 12.0569C12.3662 11.6112 12.4635 10.9846 12.9092 10.6584C13.3548 10.3325 13.9805 10.4297 14.3066 10.8752C14.3648 10.9547 14.4376 10.9899 14.502 10.9993C14.5632 10.9906 14.6332 10.9568 14.6895 10.8792ZM21.8779 12.9924C21.8779 14.2674 21.0772 15.38 19.9209 15.8C18.7545 19.1776 15.5968 21.4864 12.0039 21.4885H12.002C8.40897 21.4864 5.25035 19.1778 4.08398 15.8C2.92818 15.3797 2.12793 14.2671 2.12793 12.9924C2.12793 11.7177 2.92801 10.604 4.08398 10.1838C5.0845 7.28251 7.55578 5.17127 10.5098 4.63208C10.3415 4.54248 10.141 4.48853 9.92578 4.48853C9.37352 4.4885 8.92578 4.04079 8.92578 3.48853C8.92578 2.93626 9.37352 2.48855 9.92578 2.48853C10.6842 2.48853 11.4276 2.75273 12.0029 3.24536C12.5783 2.75273 13.3216 2.48853 14.0801 2.48853C14.6323 2.48855 15.0801 2.93626 15.0801 3.48853C15.0801 4.04079 14.6323 4.4885 14.0801 4.48853C13.8645 4.48853 13.6635 4.54224 13.4951 4.63208C16.4494 5.17097 18.9202 7.28236 19.9209 10.1838C21.0773 10.6038 21.8779 11.7173 21.8779 12.9924Z" fill="currentColor"/>
</svg>
