<svg viewBox="0 0 32 32" fill="none" xmlns="http://www.w3.org/2000/svg">
<path d="M26.0005 17.2988C26.0003 16.7377 25.5863 16.2904 25.0718 16.2324C24.4591 16.1636 23.9507 15.7272 23.7905 15.1318C22.8298 11.5588 19.631 9.09766 16.0005 9.09766C12.37 9.09766 9.1712 11.5588 8.21045 15.1318C8.0503 15.7272 7.5419 16.1636 6.9292 16.2324C6.41471 16.2904 6.00065 16.7377 6.00049 17.2988C6.00049 17.8601 6.41464 18.3072 6.9292 18.3652C7.5416 18.434 8.05005 18.8708 8.21045 19.4658C9.17335 23.0375 12.3708 25.4967 16.0005 25.499C19.6302 25.4967 22.8276 23.0375 23.7905 19.4658L23.8247 19.3564C24.0148 18.8178 24.4975 18.4298 25.0718 18.3652C25.5863 18.3072 26.0005 17.8601 26.0005 17.2988ZM17.6763 19.6104C18.3045 19.0705 19.2515 19.1425 19.7915 19.7705C20.3313 20.3987 20.2602 21.3458 19.6323 21.8857C17.5495 23.6755 14.4514 23.6755 12.3687 21.8857C11.7406 21.3458 11.6687 20.3987 12.2085 19.7705C12.7483 19.1423 13.6954 19.0708 14.3237 19.6104C15.2821 20.4339 16.7179 20.4338 17.6763 19.6104ZM12.9761 14.6211C13.4815 13.9649 14.4233 13.8424 15.0796 14.3477C15.7359 14.853 15.8582 15.7948 15.353 16.4512C14.7463 17.2392 13.8151 17.7095 12.8218 17.7314C12.7974 17.732 12.7729 17.7321 12.7485 17.7314C11.7611 17.7048 10.8356 17.238 10.228 16.458C9.71917 15.8045 9.83643 14.8626 10.4897 14.3535C11.1433 13.8445 12.0861 13.9608 12.5952 14.6143C12.6432 14.6759 12.7139 14.715 12.7925 14.7266C12.8656 14.7154 12.9318 14.6786 12.9761 14.6211ZM19.4009 14.6211C19.9063 13.9649 20.8481 13.8424 21.5044 14.3477C22.1607 14.853 22.283 15.7948 21.7778 16.4512C21.1707 17.2398 20.2386 17.7101 19.2446 17.7314C19.2203 17.732 19.1957 17.7321 19.1714 17.7314C18.1844 17.7045 17.2599 17.2378 16.6528 16.458C16.144 15.8044 16.261 14.8614 16.9146 14.3525C17.5683 13.8437 18.5112 13.9615 19.02 14.6152C19.0679 14.6767 19.1389 14.7151 19.2173 14.7266C19.2904 14.7154 19.3565 14.6787 19.4009 14.6211ZM29.0005 17.2988C29.0005 19.0035 27.9498 20.4979 26.4204 21.0947C24.8547 25.4962 20.7114 28.4974 16.0015 28.5H15.9995C11.2895 28.4974 7.14523 25.4964 5.57959 21.0947C4.05069 20.4976 3.00049 19.0032 3.00049 17.2988C3.00062 15.5947 4.04997 14.0991 5.57861 13.502C6.81257 10.0284 9.65422 7.42883 13.1118 6.48535C12.3767 6.38872 11.8091 5.76152 11.8091 5C11.8091 4.17157 12.4807 3.5 13.3091 3.5C14.2802 3.50002 15.2364 3.81793 16.0005 4.41797C16.7646 3.81794 17.7207 3.50002 18.6919 3.5C19.5203 3.5 20.1919 4.17157 20.1919 5C20.1919 5.76184 19.6238 6.38913 18.8882 6.48535C22.3461 7.4286 25.1873 10.0283 26.4214 13.502C27.9505 14.0989 29.0004 15.5944 29.0005 17.2988Z" fill="currentColor"/>
</svg>
