<svg viewBox="0 0 16 16" fill="none" xmlns="http://www.w3.org/2000/svg">
<path d="M8.17576 0.588867C9.95322 0.679139 11.3711 2.22743 11.414 4.01699H12.567C13.349 4.01726 13.984 4.65193 13.984 5.43398V13.334C13.9837 14.1158 13.3488 14.7497 12.567 14.75H3.43396C2.65194 14.75 2.0163 14.1159 2.01599 13.334V5.43398C2.01599 4.65177 2.65175 4.01699 3.43396 4.01699H4.58494C4.62929 2.16876 6.14112 0.583138 7.99998 0.583008L8.17576 0.588867ZM3.51697 13.25H12.484V5.51699H11.416V6.26699C11.4157 6.68098 11.08 7.01699 10.666 7.01699C10.2522 7.01669 9.91625 6.68079 9.91599 6.26699V5.51699H6.08298V6.26699L6.07908 6.34414C6.04037 6.72202 5.72109 7.01699 5.33298 7.01699C4.94497 7.01687 4.62557 6.72197 4.58689 6.34414L4.58298 6.26699V5.51699H3.51697V13.25ZM7.99998 2.08398C6.96964 2.08411 6.13066 2.99737 6.08689 4.01699H9.91209C9.86833 2.99741 9.03027 2.08416 7.99998 2.08398Z" fill="currentColor"/>
</svg>
