<svg viewBox="0 0 32 32" fill="none" xmlns="http://www.w3.org/2000/svg">
<path d="M16.339 1.42578C19.817 1.60226 22.5839 4.47818 22.5841 8V8.08398H25.3341C26.7601 8.08425 27.9169 9.24095 27.9171 10.667V26.667C27.9169 28.093 26.7601 29.2507 25.3341 29.251H6.66711C5.24107 29.2508 4.08339 28.093 4.08313 26.667V10.667C4.08331 9.24089 5.24102 8.08416 6.66711 8.08398H9.41711V8C9.41729 4.36457 12.3647 1.41619 16.0001 1.41602L16.339 1.42578ZM6.66711 10.584C6.62173 10.5842 6.58428 10.6216 6.58411 10.667V26.667C6.58437 26.7123 6.62178 26.7508 6.66711 26.751H25.3341C25.3794 26.7507 25.4169 26.7123 25.4171 26.667V10.667C25.4169 10.6217 25.3794 10.5843 25.3341 10.584H22.5841V11.7539C22.5837 12.4436 22.0238 13.0035 21.3341 13.0039C20.644 13.0039 20.0845 12.4439 20.0841 11.7539V10.584H11.9171V11.7539C11.9167 12.4437 11.357 13.0036 10.6671 13.0039C9.97703 13.0039 9.41755 12.4439 9.41711 11.7539V10.584H6.66711ZM16.0001 3.91699C13.7454 3.91717 11.9173 5.74528 11.9171 8V8.08398H20.0841V8C20.0839 5.74533 18.2548 3.91726 16.0001 3.91699Z" fill="currentColor"/>
</svg>
