<svg viewBox="0 0 16 16" fill="none" xmlns="http://www.w3.org/2000/svg">
<path d="M12.5054 6.46189C12.5052 6.03365 12.1842 5.77193 11.8657 5.75193H4.14014C3.82163 5.77193 3.50069 6.05365 3.50049 6.46189V12.0396C3.50049 12.468 3.82152 12.7505 4.14014 12.7505H11.8657C12.1843 12.7505 12.5054 12.468 12.5054 12.0396V6.46189ZM9.78564 3.96045C9.78564 3.53205 9.46455 3.24961 9.146 3.24951H6.85986C6.54125 3.24951 6.22021 3.53197 6.22021 3.96045V4.25193H9.78564V3.96045ZM11.2856 4.25193H11.8657C13.0823 4.25193 14.0052 5.27661 14.0054 6.46189V12.0396C14.0054 13.225 13.0825 14.2505 11.8657 14.2505H4.14014C2.92341 14.2505 2.00049 13.225 2.00049 12.0396V6.46189C2.0007 5.27661 2.92355 4.25193 4.14014 4.25193H4.72021V3.96045C4.72021 2.77499 5.64314 1.74951 6.85986 1.74951H9.146C10.3626 1.74961 11.2856 2.77505 11.2856 3.96045V4.25193Z" fill="currentColor"/>
</svg>
