<svg viewBox="0 0 32 32" fill="none" xmlns="http://www.w3.org/2000/svg">
<path d="M19.4999 7.42041C19.4998 6.61732 18.9361 6.07165 18.3407 6.00635L18.2206 5.99951H13.7792C13.142 5.99951 12.5 6.5636 12.4999 7.42041V8.00439H19.4999V7.42041ZM25.4403 14.939C25.8693 14.5101 26.5146 14.3816 27.0751 14.6138C27.6355 14.8459 28.0007 15.393 28.0009 15.9995V23.5894C27.9863 25.9406 26.1765 28.0015 23.7216 28.0015H15.9999C15.3934 28.0015 14.8464 27.6359 14.6141 27.0757C14.382 26.5152 14.5105 25.8699 14.9393 25.4409L25.4403 14.939ZM19.621 25.0015H23.7216C24.3552 25.0015 24.9912 24.451 25.0009 23.5796V19.6206L19.621 25.0015ZM7.00086 23.5796C7.00086 23.9588 7.13308 24.292 7.33778 24.5396L20.8739 11.0044H8.28016C7.64293 11.0044 7.00086 11.5683 7.00086 12.4253V23.5796ZM22.4999 8.00439H23.8739L25.9393 5.93896C26.5251 5.35343 27.4747 5.35343 28.0604 5.93896C28.6462 6.52475 28.6462 7.47525 28.0604 8.06104L6.06043 30.061C5.47472 30.6464 4.52505 30.6464 3.93934 30.061C3.35355 29.4752 3.35355 28.5248 3.93934 27.939L5.21375 26.6636C4.45768 25.861 4.00086 24.7684 4.00086 23.5796V12.4253C4.00086 10.0544 5.84671 8.00439 8.28016 8.00439H9.49989V7.42041C9.50003 5.04961 11.3458 2.99951 13.7792 2.99951H18.2206L18.4472 3.00537C20.7678 3.12775 22.4998 5.12362 22.4999 7.42041V8.00439Z" fill="currentColor"/>
</svg>
