<svg viewBox="0 0 32 32" fill="none" xmlns="http://www.w3.org/2000/svg">
<path d="M19.5584 7.92055C19.5582 7.06396 18.9174 6.49997 18.2806 6.49977H13.7092C13.0724 6.4999 12.4315 7.0639 12.4314 7.92055V8.50446H19.5584V7.92055ZM22.5571 8.50446H23.7188C26.1511 8.54461 27.9954 10.5944 27.9954 12.925V24.0785C27.9954 26.4491 26.1511 28.4998 23.7188 28.5H8.27292C5.84045 28.5 3.99536 26.4492 3.99536 24.0785V12.925C3.99536 10.5943 5.84045 8.54446 8.27292 8.50446H9.4326V7.92055C9.43273 5.55 11.2769 3.50013 13.7092 3.5H18.2806C20.7128 3.50019 22.557 5.55004 22.5571 7.92055V8.50446Z" fill="currentColor"/>
</svg>
