<svg viewBox="0 0 24 24" fill="none" xmlns="http://www.w3.org/2000/svg">
<path d="M14.9472 6.19043C14.947 5.48494 14.4183 5.00011 13.8682 5H10.0559C9.506 5.00023 8.97721 5.48503 8.97699 6.19043V6.5H14.9472V6.19043ZM16.9379 6.5H17.9303C19.6723 6.5 20.9998 7.97551 21 9.69043V17.8096C20.9998 19.5245 19.6723 21 17.9303 21H6.06966C4.32778 20.9999 3.00022 19.5244 3 17.8096V9.69043C3.00022 7.97557 4.32778 6.50011 6.06966 6.5H6.98628V6.19043C6.98651 4.47564 8.31416 3.00022 10.0559 3H13.8682C15.6101 3.0001 16.9377 4.47557 16.9379 6.19043V6.5Z" fill="currentColor"/>
</svg>
