<svg viewBox="0 0 32 32" fill="none" xmlns="http://www.w3.org/2000/svg">
<path d="M25.0012 12.925C25.0012 12.0682 24.3603 11.5044 23.7234 11.5042H8.27756C7.64059 11.5042 6.99878 12.0681 6.99878 12.925V24.0785C6.99878 24.9354 7.64059 25.5002 8.27756 25.5002H23.7234C24.3603 25.5001 25.0012 24.9352 25.0012 24.0785V12.925ZM19.563 7.92055C19.5629 7.06396 18.922 6.49997 18.2852 6.49977H13.7138C13.077 6.4999 12.4361 7.0639 12.436 7.92055V8.50446H19.563V7.92055ZM22.5618 8.50446H23.7234C26.1557 8.50461 28 10.5544 28 12.925V24.0785C28 26.4491 26.1557 28.4998 23.7234 28.5H8.27756C5.84509 28.5 4 26.4492 4 24.0785V12.925C4 10.5543 5.84509 8.50446 8.27756 8.50446H9.43724V7.92055C9.43737 5.55 11.2816 3.50013 13.7138 3.5H18.2852C20.7174 3.50019 22.5616 5.55004 22.5618 7.92055V8.50446Z" fill="currentColor"/>
</svg>
