<svg viewBox="0 0 32 32" fill="none" xmlns="http://www.w3.org/2000/svg">
<path d="M19.4999 7.42065C19.4998 6.61756 18.9361 6.07189 18.3407 6.00659L18.2206 5.99976H13.7792C13.142 5.99976 12.5 6.56384 12.4999 7.42065V8.00464H19.4999V7.42065ZM25.4403 14.9392C25.8693 14.5103 26.5146 14.3819 27.0751 14.614C27.6355 14.8461 28.0007 15.3932 28.0009 15.9998V23.5896C27.9863 25.9409 26.1765 28.0017 23.7216 28.0017H15.9999C15.3934 28.0017 14.8464 27.6362 14.6141 27.0759C14.382 26.5155 14.5105 25.8702 14.9393 25.4412L25.4403 14.9392ZM22.4999 8.00464H23.8739L25.9393 5.93921C26.5251 5.35367 27.4747 5.35367 28.0604 5.93921C28.6462 6.525 28.6462 7.47549 28.0604 8.06128L17.3085 18.8123L8.45008 27.7244C8.36959 27.8053 8.28092 27.8736 8.18836 27.9324L6.06043 30.0613C5.47472 30.6467 4.52505 30.6467 3.93934 30.0613C3.35355 29.4755 3.35355 28.525 3.93934 27.9392L5.21375 26.6638C4.45768 25.8612 4.00086 24.7687 4.00086 23.5798V12.4255C4.00086 10.1286 5.73288 8.1329 8.0536 8.0105L8.28016 8.00464H9.49989V7.42065C9.50003 5.04985 11.3458 2.99976 13.7792 2.99976H18.2206L18.4472 3.00562C20.7678 3.128 22.4998 5.12386 22.4999 7.42065V8.00464Z" fill="currentColor"/>
</svg>
