<svg viewBox="0 0 16 16" fill="none" xmlns="http://www.w3.org/2000/svg">
<path d="M9.78505 3.71069C9.78505 3.28221 9.46402 2.99976 9.14541 2.99976H6.85927C6.5407 2.99982 6.21962 3.28226 6.21962 3.71069V4.00171H9.78505V3.71069ZM12.7147 7.46948C12.9292 7.25495 13.2518 7.19136 13.5321 7.30737C13.8124 7.4234 13.9949 7.69643 13.995 7.99976V11.7996C13.9804 12.9688 13.0808 14.0005 11.8563 14.0007H7.9999C7.6967 14.0007 7.4237 13.8179 7.30751 13.5378C7.19139 13.2577 7.25528 12.935 7.46962 12.7205L12.7147 7.46948ZM9.80947 12.5007H11.8563C12.1668 12.5005 12.4894 12.2251 12.495 11.781V9.81226L9.80947 12.5007ZM3.50087 11.7898C3.50087 11.9792 3.56868 12.1436 3.6708 12.2673L10.4374 5.50171H4.13955C3.82103 5.50188 3.50087 5.7843 3.50087 6.21265V11.7898ZM11.2851 4.00171H11.9374L12.9696 2.96948C13.2625 2.67671 13.7373 2.67671 14.0302 2.96948C14.323 3.26235 14.323 3.73713 14.0302 4.03003L3.03017 15.03C2.73728 15.3229 2.26252 15.3229 1.96962 15.03C1.67682 14.7371 1.67676 14.2623 1.96962 13.9695L2.60634 13.3318C2.22844 12.9305 1.9999 12.3841 1.9999 11.7898V6.21265C1.9999 5.02728 2.92296 4.00187 4.13955 4.00171H4.71962V3.71069C4.71962 2.52527 5.6426 1.49982 6.85927 1.49976H9.14541C10.3621 1.49976 11.2851 2.52524 11.2851 3.71069V4.00171Z" fill="currentColor"/>
</svg>
