<svg viewBox="0 0 16 16" fill="none" xmlns="http://www.w3.org/2000/svg">
<path d="M9.78564 3.96045C9.78564 3.53205 9.46455 3.24961 9.146 3.24951H6.85986C6.54125 3.24951 6.22021 3.53197 6.22021 3.96045V4.25193H9.78564V3.96045ZM11.2856 4.25193H11.8657L12.0903 4.26365C13.1943 4.38048 14.0052 5.35061 14.0054 6.46189V12.0396C14.0054 13.225 13.0825 14.2505 11.8657 14.2505H4.14014C2.92341 14.2505 2.00049 13.225 2.00049 12.0396V6.46189C2.00069 5.37066 2.81168 4.40055 3.91553 4.26365L4.14014 4.25193H4.72021V3.96045C4.72021 2.77499 5.64314 1.74951 6.85986 1.74951H9.146C10.3626 1.74961 11.2856 2.77505 11.2856 3.96045V4.25193Z" fill="currentColor"/>
</svg>
