<svg viewBox="0 0 24 24" fill="none" xmlns="http://www.w3.org/2000/svg">
<path d="M15.0029 6.19043C15.0026 5.48494 14.4715 5.00011 13.9189 5H10.0888C9.53629 5.00023 9.00503 5.48503 9.00481 6.19043V6.5H15.0029V6.19043ZM18.9999 13.6641L13.664 19H17.9159C18.4685 18.9999 18.9997 18.5151 18.9999 17.8096V13.6641ZM20.9999 17.8096C20.9997 19.5244 19.6659 20.9999 17.9159 21H11.2499C10.8455 21 10.4809 20.7564 10.3261 20.3828C10.1713 20.0091 10.2569 19.579 10.5429 19.293L19.2929 10.543C19.5789 10.257 20.0091 10.1714 20.3827 10.3262C20.7563 10.481 20.9999 10.8456 20.9999 11.25V17.8096ZM4.99992 17.8096C5.00004 18.1785 5.15256 18.4946 5.37688 18.708L15.5859 8.5H6.08391C5.53133 8.50011 5.00014 8.98494 4.99992 9.69043V17.8096ZM17.0029 6.5H17.5859L19.2929 4.79297C19.6834 4.40244 20.3164 4.40244 20.707 4.79297C21.0975 5.18349 21.0975 5.81651 20.707 6.20703L4.45696 22.457C4.06643 22.8476 3.43342 22.8476 3.04289 22.457C2.65237 22.0665 2.65237 21.4335 3.04289 21.043L3.96184 20.123C3.36485 19.5368 3.00004 18.712 2.99992 17.8096V9.69043C3.00015 7.97557 4.3339 6.50011 6.08391 6.5H7.00481V6.19043C7.00503 4.47564 8.33888 3.00022 10.0888 3H13.9189C15.6689 3.0001 17.0026 4.47557 17.0029 6.19043V6.5Z" fill="currentColor"/>
</svg>
