<svg viewBox="0 0 32 32" fill="none" xmlns="http://www.w3.org/2000/svg">
<path d="M8.11426 19.9934L8.74707 20.0433C9.37913 20.0841 10.0091 20.0983 10.6367 20.0833L10.7646 20.0872C11.3961 20.1361 11.9002 20.6563 11.916 21.303C11.9326 21.9932 11.3864 22.5667 10.6963 22.5833L9.99121 22.5891C9.52153 22.5859 9.05301 22.5685 8.58594 22.5384L7.88574 22.4837L7.75977 22.4651C7.13772 22.344 6.69584 21.7689 6.75488 21.1243C6.81418 20.48 7.3529 19.9947 7.98633 19.9886L8.11426 19.9934Z" fill="currentColor"/>
<path d="M16.001 11.9632C18.1636 11.9636 19.9168 13.7175 19.917 15.8802C19.9168 18.0429 18.1636 19.7957 16.001 19.7962C13.838 19.7962 12.0842 18.0431 12.084 15.8802C12.0841 13.7172 13.838 11.9632 16.001 11.9632ZM16.001 14.4632C15.2187 14.4632 14.5841 15.0979 14.584 15.8802C14.5842 16.6624 15.2187 17.2962 16.001 17.2962C16.7829 17.2957 17.4168 16.6621 17.417 15.8802C17.4168 15.0982 16.7829 14.4636 16.001 14.4632Z" fill="currentColor"/>
<path d="M22.0088 9.41727C22.4794 9.42036 22.9489 9.43862 23.416 9.46903L24.1143 9.52372L24.2412 9.5413C24.8628 9.66264 25.304 10.2378 25.2451 10.8821C25.186 11.5263 24.6479 12.0123 24.0146 12.0188L23.8867 12.013L23.2529 11.9632C22.621 11.922 21.9917 11.9072 21.3662 11.9231L21.2383 11.9202C20.6064 11.8725 20.1006 11.3524 20.084 10.7054C20.0665 10.0155 20.6119 9.4419 21.3018 9.42411L22.0088 9.41727Z" fill="currentColor"/>
<path d="M16.667 5.98661C19.949 5.26276 23.3492 5.22671 26.6494 5.887L26.6484 5.88798L27.1709 5.99052L27.1719 5.99149L27.3945 6.04618C28.4856 6.36646 29.2498 7.36919 29.25 8.5247V22.9768C29.25 24.5562 27.8506 25.7523 26.3096 25.5345L26.1602 25.5091C23.0019 24.8774 19.7438 24.9561 16.6191 25.7366L16.3066 25.8157L16.3027 25.8167C12.6116 26.7387 8.76136 26.8313 5.03027 26.0843L5.02734 26.0833L4.82812 26.0423C3.61764 25.8016 2.75 24.7394 2.75 23.51V9.0579C2.7504 7.42771 4.24109 6.20676 5.83789 6.52372L5.83984 6.5247C8.99814 7.15634 12.2562 7.07768 15.3809 6.29716L16.0117 6.13993L16.667 5.98661ZM26.1592 8.33817C23.1996 7.74604 20.1494 7.77766 17.2051 8.42704L16.6172 8.56571L15.9863 8.72196L15.9873 8.72294C12.5041 9.59304 8.87122 9.68018 5.34961 8.97587C5.297 8.96634 5.2504 9.00675 5.25 9.0579V23.51C5.25 23.54 5.26632 23.566 5.29004 23.5804L5.31543 23.5911L5.52051 23.6321C8.88798 24.3064 12.3645 24.2235 15.6973 23.3909L16.0088 23.3118L16.0127 23.3108L16.668 23.1565C19.9499 22.4326 23.349 22.3976 26.6504 23.0579L26.6885 23.0569C26.7235 23.0477 26.75 23.0159 26.75 22.9768V8.5247C26.7498 8.48562 26.7228 8.45111 26.6807 8.44266L26.1602 8.33915L26.1592 8.33817Z" fill="currentColor"/>
</svg>
