<svg viewBox="0 0 32 32" fill="none" xmlns="http://www.w3.org/2000/svg">
<path d="M14.3149 3.84799C14.6251 3.71734 14.9749 3.71734 15.2851 3.84799L26.0851 8.3962C26.5486 8.59138 26.85 9.04531 26.85 9.54821V13.0288C26.85 13.7192 26.2904 14.2788 25.6 14.2788H12.8784V21.1184H13.6C14.2904 21.1184 14.85 21.6781 14.85 22.3684C14.85 23.0588 14.2904 23.6184 13.6 23.6184H5.96013L5.45558 24.5921H13.6C14.2904 24.5921 14.85 25.1517 14.85 25.8421C14.85 26.5325 14.2904 27.0921 13.6 27.0921H4C3.30964 27.0921 2.75 26.5325 2.75 25.8421V24.6842C2.75 24.4841 2.79807 24.2868 2.89015 24.1091L4.09015 21.7933C4.29731 21.3936 4.70265 21.1373 5.15 21.1194V14.2788H4C3.30964 14.2788 2.75 13.7192 2.75 13.0288V9.54821C2.75 9.04531 3.05138 8.59138 3.51485 8.3962L14.3149 3.84799ZM5.25 11.7788H24.35V10.3781L14.8 6.35632L5.25 10.3781V11.7788ZM7.65 14.2788V21.1184H10.3784V14.2788H7.65ZM22.05 18.9868H23.15V25.75L22.05 25.75L22.05 18.9868ZM25.65 19.0921V18.3158C25.65 17.816 25.4438 17.3462 25.0922 17.0069C24.7421 16.6691 24.2765 16.4868 23.8 16.4868H21.4C20.9235 16.4868 20.4579 16.6691 20.1078 17.0069C19.7562 17.3462 19.55 17.816 19.55 18.3158V21.4079H17.8C17.3235 21.4079 16.8579 21.5901 16.5078 21.9279C16.1562 22.2672 15.95 22.7371 15.95 23.2368V26.4211C15.95 26.9208 16.1562 27.3907 16.5078 27.73C16.8579 28.0678 17.3235 28.25 17.8 28.25H27.4C27.8765 28.25 28.3421 28.0678 28.6922 27.73C29.0438 27.3907 29.25 26.9208 29.25 26.4211V20.9211C29.25 20.4213 29.0438 19.9514 28.6922 19.6122C28.3421 19.2743 27.8765 19.0921 27.4 19.0921H25.65ZM25.65 21.5921H26.75V25.75L25.65 25.75V21.5921ZM19.55 25.75H18.45V23.9079H19.55L19.55 25.75Z" fill="currentColor"/>
</svg>
