<svg viewBox="0 0 16 16" fill="none" xmlns="http://www.w3.org/2000/svg">
<path d="M7.0643 0.976022C7.25633 0.891782 7.47486 0.891782 7.66689 0.976022L13.3784 3.48158C13.651 3.60117 13.8271 3.87069 13.8271 4.16839V6.08583C13.8271 6.50004 13.4913 6.83583 13.0771 6.83583H6.4383V10.4809H6.73098C7.14519 10.4809 7.48098 10.8167 7.48098 11.2309C7.48098 11.6451 7.14519 11.9809 6.73098 11.9809H2.75325L2.5475 12.3945H6.73098C7.14519 12.3945 7.48098 12.7303 7.48098 13.1445C7.48098 13.5587 7.14519 13.8945 6.73098 13.8945H1.65405C1.23984 13.8945 0.904053 13.5587 0.904053 13.1445V12.5066C0.904053 12.3907 0.930921 12.2764 0.982549 12.1726L1.61716 10.8969C1.72656 10.6769 1.93524 10.5268 2.17328 10.4898V6.83583H1.65405C1.23984 6.83583 0.904053 6.50004 0.904053 6.08583V4.16839C0.904053 3.87069 1.08013 3.60117 1.35276 3.48158L7.0643 0.976022ZM2.40405 5.33583H12.3271V4.65837L7.36559 2.48183L2.40405 4.65837V5.33583ZM3.67328 6.83583V10.4809H4.9383V6.83583H3.67328ZM11.2887 9.42941H11.6925V13.0324L11.2887 13.0324L11.2887 9.42941ZM13.1925 9.36462V8.99835C13.1925 8.71609 13.081 8.44461 12.8813 8.24385C12.6814 8.04296 12.4095 7.92941 12.1252 7.92941H10.856C10.5717 7.92941 10.2998 8.04297 10.0999 8.24385C9.90019 8.44461 9.78867 8.71608 9.78867 8.99835V10.6404H8.95213C8.66782 10.6404 8.39594 10.7539 8.19607 10.9548C7.99634 11.1556 7.88482 11.427 7.88482 11.7093V13.4634C7.88482 13.7457 7.99635 14.0172 8.19607 14.2179C8.39593 14.4188 8.66782 14.5324 8.95213 14.5324L14.0291 14.5324C14.3134 14.5324 14.5852 14.4188 14.7851 14.2179C14.9848 14.0172 15.0964 13.7457 15.0964 13.4634V10.4336C15.0964 10.1513 14.9848 9.87982 14.7851 9.67906C14.5852 9.47818 14.3134 9.36462 14.0291 9.36462H13.1925ZM13.1925 10.8646H13.5964V13.0324H13.1925V10.8646ZM9.78867 13.0324H9.38482V12.1404H9.78867V13.0324Z" fill="currentColor"/>
</svg>
