<svg viewBox="0 0 16 16" fill="none" xmlns="http://www.w3.org/2000/svg">
<path d="M4.74316 9.9209C5.1212 9.95935 5.41585 10.2789 5.41602 10.667C5.41577 11.055 5.12111 11.3746 4.74316 11.4131L4.66602 11.417H3.33301C2.91907 11.4169 2.58327 11.0809 2.58301 10.667C2.58318 10.253 2.91901 9.91712 3.33301 9.91699H4.66602L4.74316 9.9209Z" fill="currentColor"/>
<path d="M6.47461 6.12598C7.40428 5.36782 8.76445 5.40713 9.65137 6.24023L9.70898 6.29199L9.87402 6.47559C10.5966 7.36165 10.5969 8.64047 9.87402 9.52637L9.70898 9.70996C8.8242 10.5944 7.42368 10.649 6.47461 9.875L6.29102 9.70996C5.34737 8.76632 5.34761 7.23579 6.29102 6.29199L6.47461 6.12598ZM8.57812 7.28906C8.24213 7.01526 7.75683 7.01515 7.4209 7.28906L7.35156 7.35254C6.994 7.71049 6.99387 8.29057 7.35156 8.64844L7.4209 8.71191C7.78081 9.00543 8.31185 8.98368 8.64746 8.64844L8.71094 8.5791C8.98487 8.24311 8.98488 7.75786 8.71094 7.42188L8.64746 7.35254L8.57812 7.28906Z" fill="currentColor"/>
<path d="M12.7432 4.58691C13.1212 4.62536 13.4159 4.94487 13.416 5.33301C13.416 5.72127 13.1213 6.04061 12.7432 6.0791L12.666 6.08301H11.333C10.9189 6.08288 10.583 5.74714 10.583 5.33301C10.5832 4.91903 10.919 4.58314 11.333 4.58301H12.666L12.7432 4.58691Z" fill="currentColor"/>
<path d="M13.333 2.58301C14.4837 2.58301 15.4157 3.5154 15.416 4.66602V11.333C15.416 12.4839 14.4839 13.416 13.333 13.416H2.66602C1.51545 13.4156 0.583008 12.4837 0.583008 11.333V4.66602C0.583315 3.51563 1.51564 2.58338 2.66602 2.58301H13.333ZM2.66602 4.08301C2.34407 4.08338 2.08331 4.34406 2.08301 4.66602V11.333C2.08301 11.6552 2.34388 11.9156 2.66602 11.916H13.333C13.6555 11.916 13.916 11.6555 13.916 11.333V4.66602C13.9157 4.34383 13.6553 4.08301 13.333 4.08301H2.66602Z" fill="currentColor"/>
</svg>
