<svg viewBox="0 0 24 24" fill="none" xmlns="http://www.w3.org/2000/svg">
<path d="M10.6 1.08349C10.855 0.972171 11.145 0.972171 11.4 1.08349L20.4 5.01149C20.7644 5.17054 21 5.53038 21 5.928V8.934C21 9.48628 20.5523 9.934 20 9.934H9.357V16H10C10.5523 16 11 16.4477 11 17C11 17.5523 10.5523 18 10 18H3.61803L3.11803 19H10C10.5523 19 11 19.4477 11 20C11 20.5523 10.5523 21 10 21H2C1.44772 21 1 20.5523 1 20V19C1 18.8448 1.03615 18.6916 1.10557 18.5528L2.10557 16.5528C2.27496 16.214 2.62123 16 3 16V9.934H2C1.44772 9.934 1 9.48628 1 8.934V5.928C1 5.53038 1.23557 5.17054 1.59999 5.01149L10.6 1.08349ZM5 9.934V16H7.357V9.934H5ZM3 7.934H19V6.58265L11 3.09109L3 6.58265V7.934ZM17 14H18V20H17V14ZM20 14.25V13.5C20 13.1022 19.842 12.7206 19.5607 12.4393C19.2794 12.158 18.8978 12 18.5 12H16.5C16.1022 12 15.7206 12.158 15.4393 12.4393C15.158 12.7206 15 13.1022 15 13.5V16.25H13.5C13.1022 16.25 12.7206 16.408 12.4393 16.6893C12.158 16.9706 12 17.3522 12 17.75V20.5C12 20.8978 12.158 21.2794 12.4393 21.5607C12.7206 21.842 13.1022 22 13.5 22H21.5C21.8978 22 22.2794 21.842 22.5607 21.5607C22.842 21.2794 23 20.8978 23 20.5V15.75C23 15.3522 22.842 14.9706 22.5607 14.6893C22.2794 14.408 21.8978 14.25 21.5 14.25H20ZM20 16.25H21V20H20V16.25ZM15 18.25V20H14V18.25H15Z" fill="currentColor"/>
</svg>
