<svg viewBox="0 0 16 16" fill="none" xmlns="http://www.w3.org/2000/svg">
<path d="M4.06836 9.87253C4.48637 9.91082 4.90221 9.92639 5.31543 9.91648C5.72944 9.9066 6.07301 10.2349 6.08301 10.6489C6.09271 11.0627 5.76541 11.4064 5.35156 11.4165C4.87545 11.4279 4.40162 11.4087 3.93164 11.3657C3.51916 11.3279 3.21515 10.9628 3.25293 10.5503C3.29099 10.1381 3.65607 9.83479 4.06836 9.87253Z" fill="currentColor"/>
<path d="M8 5.85691C9.15034 5.85708 10.0838 6.78958 10.084 7.93992C10.0838 9.09023 9.15032 10.0237 8 10.0239C6.84968 10.0237 5.91719 9.09023 5.91699 7.93992C5.91717 6.78958 6.84966 5.85708 8 5.85691ZM8 7.35691C7.67809 7.35709 7.41717 7.61801 7.41699 7.93992C7.41719 8.26181 7.6781 8.52373 8 8.5239C8.3219 8.52373 8.58379 8.26181 8.58398 7.93992C8.58381 7.61801 8.32191 7.35709 8 7.35691Z" fill="currentColor"/>
<path d="M11.7158 4.60886L12.0684 4.63621L12.1445 4.64792C12.5173 4.72066 12.7821 5.06528 12.7471 5.45164C12.7117 5.83818 12.3887 6.12928 12.0088 6.13328L11.9316 6.13035L11.6182 6.10593C11.3057 6.08561 10.995 6.07856 10.6865 6.0864C10.2724 6.09696 9.92755 5.76904 9.91699 5.35496C9.90689 4.94138 10.2339 4.59717 10.6475 4.5864C11.0055 4.57729 11.3623 4.58586 11.7158 4.60886Z" fill="currentColor"/>
<path d="M8.30664 2.87156C9.96412 2.50601 11.6809 2.48847 13.3477 2.82175L13.3486 2.82078L13.6094 2.87351L13.7324 2.90378C14.3307 3.07942 14.75 3.62935 14.75 4.26316V11.4887C14.7499 12.3269 14.031 12.9687 13.2188 12.9009L13.0557 12.8774C11.4947 12.5652 9.88427 12.6039 8.33984 12.9897L8.33887 12.9887L8.18359 13.0288L8.18164 13.0298C6.4347 13.4661 4.61716 13.5348 2.84473 13.2309L2.49121 13.1645H2.48926L2.38672 13.144C1.7245 13.0108 1.25009 12.4284 1.25 11.7553V4.52976C1.25 3.6355 2.06759 2.96614 2.94336 3.14011C4.50432 3.4523 6.11576 3.41358 7.66016 3.02781L7.97559 2.94871L8.30664 2.87156ZM13.0547 4.29246C11.5921 3.99983 10.085 4.0155 8.62988 4.3364L8.33887 4.40476L8.02344 4.48289C6.2968 4.91415 4.4977 4.96387 2.75 4.62937V11.687L2.78418 11.6938C4.44911 12.0272 6.1685 11.9861 7.81641 11.5747L7.97363 11.5346H7.97656L8.30664 11.4565C9.93165 11.098 11.6134 11.074 13.25 11.3872V4.33054L13.0547 4.29246Z" fill="currentColor"/>
</svg>
