<svg viewBox="0 0 24 24" fill="none" xmlns="http://www.w3.org/2000/svg">
<path d="M6.09082 14.9339L6.56445 14.97C7.0366 15.0005 7.50702 15.0115 7.97559 15.0003L8.07812 15.0032C8.58343 15.0422 8.98738 15.4584 9 15.9759C9.01232 16.4935 8.62885 16.9292 8.12598 16.9925L8.02441 17.0003C7.49284 17.013 6.96269 17.0002 6.43555 16.9661L5.90918 16.9251L5.80762 16.9105C5.31017 16.8135 4.95685 16.3537 5.00391 15.8382C5.05114 15.3225 5.48229 14.9338 5.98926 14.929L6.09082 14.9339Z" fill="currentColor"/>
<path d="M12 8.91045C13.6569 8.91045 15 10.2536 15 11.9105C14.9998 13.5671 13.6567 14.9105 12 14.9105C10.3433 14.9105 9.00019 13.5671 9 11.9105C9 10.2536 10.3431 8.91045 12 8.91045ZM12 10.9105C11.4477 10.9105 11 11.3582 11 11.9105C11.0002 12.4626 11.4478 12.9105 12 12.9105C12.5522 12.9105 12.9998 12.4626 13 11.9105C13 11.3582 12.5523 10.9105 12 10.9105Z" fill="currentColor"/>
<path d="M16.5068 7.00029C16.8611 7.00262 17.214 7.01648 17.5654 7.03936L18.0908 7.08037L18.1924 7.09502C18.6898 7.19194 19.0431 7.65177 18.9961 8.16729C18.9487 8.68287 18.5176 9.07163 18.0107 9.07647L17.9092 9.07256L17.4355 9.03545C16.9629 9.00468 16.4928 8.99326 16.0254 9.00518L15.9229 9.00225C15.4177 8.96377 15.0133 8.54793 15 8.03057C14.9861 7.4786 15.4226 7.02023 15.9746 7.00615L16.5068 7.00029Z" fill="currentColor"/>
<path d="M11.9932 4.54522C14.6145 3.89041 17.3497 3.82473 19.999 4.35479L19.998 4.35576L20.3906 4.43194L20.3916 4.43291L20.5635 4.4749C21.4082 4.72281 21.9998 5.49918 22 6.39385V17.2327C21.9999 18.4158 20.9854 19.3223 19.8389 19.2269L19.6074 19.1937C17.2479 18.7218 14.8139 18.7805 12.4795 19.3636L12.4785 19.3626L12.2451 19.4222L12.2422 19.4231C9.46487 20.1169 6.56818 20.1864 3.76074 19.6243H3.75879L3.60938 19.5931C2.67212 19.4068 2.00005 18.5849 2 17.6331V6.79424C2 5.53183 3.15422 4.58681 4.39062 4.83233H4.39258C6.75206 5.30416 9.18612 5.24647 11.5205 4.66338L11.9932 4.54522ZM19.6064 6.31572C17.3953 5.87337 15.1168 5.8969 12.917 6.38213L12.4785 6.48565L12.0049 6.60381C9.54759 7.21756 6.99149 7.3131 4.49805 6.88604L4 6.79424V17.6321L4.00293 17.6331L4.15234 17.6634C6.51144 18.1357 8.94242 18.1107 11.2891 17.5931L11.7578 17.4827L11.9951 17.4231L12.4873 17.3069C14.7926 16.7984 17.1746 16.7413 19.502 17.1399L20 17.2327V6.39385H19.998L19.6064 6.31572Z" fill="currentColor"/>
</svg>
