<svg viewBox="0 0 16 16" fill="none" xmlns="http://www.w3.org/2000/svg">
<path d="M13.4102 12.5867C13.7882 12.6252 14.0838 12.9447 14.084 13.3328C14.084 13.7211 13.7883 14.0405 13.4102 14.0789L13.334 14.0828H2.66699C2.25278 14.0828 1.91699 13.7471 1.91699 13.3328C1.91721 12.9188 2.25291 12.5828 2.66699 12.5828H13.334L13.4102 12.5867Z" fill="currentColor"/>
<path d="M3 6.58284C3.41397 6.58297 3.74978 6.9189 3.75 7.33284V11.3328C3.75 11.747 3.4141 12.0827 3 12.0828C2.58594 12.0827 2.25 11.7469 2.25 11.3328V7.33284C2.25022 6.91892 2.58607 6.58302 3 6.58284Z" fill="currentColor"/>
<path d="M6.33398 6.58284C6.7478 6.58315 7.08377 6.919 7.08398 7.33284V11.3328C7.08398 11.7469 6.74794 12.0825 6.33398 12.0828C5.91977 12.0828 5.58398 11.7471 5.58398 11.3328V7.33284C5.5842 6.91882 5.91991 6.58284 6.33398 6.58284Z" fill="currentColor"/>
<path d="M9.66699 6.58284C10.081 6.58297 10.4168 6.9189 10.417 7.33284V11.3328C10.417 11.747 10.0811 12.0827 9.66699 12.0828C9.25278 12.0828 8.91699 11.7471 8.91699 11.3328V7.33284C8.91721 6.91882 9.25291 6.58284 9.66699 6.58284Z" fill="currentColor"/>
<path d="M13 6.58284C13.414 6.58297 13.7498 6.9189 13.75 7.33284V11.3328C13.75 11.747 13.4141 12.0827 13 12.0828C12.5859 12.0827 12.25 11.7469 12.25 11.3328V7.33284C12.2502 6.91892 12.5861 6.58302 13 6.58284Z" fill="currentColor"/>
<path d="M7.86719 1.26155C7.99926 1.23778 8.13647 1.24999 8.26367 1.29769L13.5967 3.29769C13.8893 3.4075 14.084 3.6873 14.084 3.99983V5.33284C14.084 5.74687 13.7479 6.08253 13.334 6.08284H2.66699C2.25278 6.08284 1.91699 5.74706 1.91699 5.33284V3.99983L1.92578 3.8846C1.96686 3.62017 2.14732 3.39382 2.40332 3.29769L7.7373 1.29769L7.86719 1.26155ZM3.41699 4.51937V4.58284H12.584V4.51937L8 2.80062L3.41699 4.51937Z" fill="currentColor"/>
</svg>
