<svg viewBox="0 0 24 24" fill="none" xmlns="http://www.w3.org/2000/svg">
<path d="M7 15C7.55228 15 8 15.4477 8 16C8 16.5523 7.55228 17 7 17H5C4.44772 17 4 16.5523 4 16C4 15.4477 4.44772 15 5 15H7Z" fill="currentColor"/>
<path d="M9.65527 9.40137C11.0292 8.15961 13.1504 8.20113 14.4746 9.52539L14.5986 9.65527C15.8005 10.985 15.8005 13.015 14.5986 14.3447L14.4746 14.4746C13.1504 15.7989 11.0292 15.8404 9.65527 14.5986L9.52539 14.4746C8.15856 13.1078 8.15856 10.8922 9.52539 9.52539L9.65527 9.40137ZM12.9463 10.8359C12.3966 10.388 11.6034 10.388 11.0537 10.8359L10.9395 10.9395C10.3537 11.5252 10.3537 12.4748 10.9395 13.0605L11.0537 13.1641C11.6429 13.6442 12.5115 13.6096 13.0605 13.0605L13.1641 12.9463C13.612 12.3966 13.612 11.6034 13.1641 11.0537L13.0605 10.9395L12.9463 10.8359Z" fill="currentColor"/>
<path d="M19 7C19.5523 7 20 7.44772 20 8C20 8.55228 19.5523 9 19 9H17C16.4477 9 16 8.55228 16 8C16 7.44772 16.4477 7 17 7H19Z" fill="currentColor"/>
<path d="M20 4C21.6573 4 23 5.34272 23 7V17C23 18.6573 21.6573 20 20 20H4C2.34272 20 1 18.6573 1 17V7C1 5.34272 2.34272 4 4 4H20ZM4 6C3.44728 6 3 6.44728 3 7V17C3 17.5527 3.44728 18 4 18H20C20.5527 18 21 17.5527 21 17V7C21 6.44728 20.5527 6 20 6H4Z" fill="currentColor"/>
</svg>
