<svg viewBox="0 0 24 24" fill="none" xmlns="http://www.w3.org/2000/svg">
<path d="M20 19C20.5523 19 21 19.4477 21 20C21 20.5522 20.5523 21 20 21H4C3.44773 21 3.00002 20.5522 3 20C3 19.4477 3.44772 19 4 19H20Z" fill="currentColor"/>
<path d="M4.5 9.99996C5.05228 9.99996 5.5 10.4477 5.5 11V17C5.49998 17.5522 5.05227 18 4.5 18C3.98232 18 3.55621 17.6066 3.50488 17.1025L3.5 17V11C3.5 10.4477 3.94772 9.99996 4.5 9.99996Z" fill="currentColor"/>
<path d="M9.5 9.99996C10.0523 9.99996 10.5 10.4477 10.5 11V17C10.5 17.5522 10.0523 18 9.5 18C8.94773 18 8.50002 17.5522 8.5 17V11C8.5 10.4477 8.94772 9.99996 9.5 9.99996Z" fill="currentColor"/>
<path d="M14.5 9.99996C15.0523 9.99996 15.5 10.4477 15.5 11V17C15.5 17.5522 15.0523 18 14.5 18C13.9477 18 13.5 17.5522 13.5 17V11C13.5 10.4477 13.9477 9.99996 14.5 9.99996Z" fill="currentColor"/>
<path d="M19.5 9.99996C20.0523 9.99996 20.5 10.4477 20.5 11V17C20.5 17.5522 20.0523 18 19.5 18C18.9477 18 18.5 17.5522 18.5 17V11C18.5 10.4477 18.9477 9.99996 19.5 9.99996Z" fill="currentColor"/>
<path d="M11.7344 2.03609C11.937 1.98024 12.1533 1.9891 12.3516 2.06343L20.3516 5.06343C20.7417 5.20989 21 5.58323 21 5.99996V7.99996C21 8.55222 20.5523 8.99996 20 8.99996H4C3.44773 8.99996 3.00002 8.55222 3 7.99996V5.99996C3 5.58323 3.25832 5.20989 3.64844 5.06343L11.6484 2.06343L11.7344 2.03609ZM5 6.69332V6.99996H19V6.69332L12 4.06832L5 6.69332Z" fill="currentColor"/>
</svg>
