<svg viewBox="0 0 32 32" fill="none" xmlns="http://www.w3.org/2000/svg">
<path d="M26.7939 25.4229C27.4244 25.4868 27.916 26.0198 27.916 26.6671C27.9158 27.3142 27.4243 27.8463 26.7939 27.9102L26.666 27.9171H5.33301C4.64287 27.9169 4.08318 27.3572 4.08301 26.6671C4.08304 25.9768 4.64278 25.4172 5.33301 25.4171H26.666L26.7939 25.4229Z" fill="currentColor"/>
<path d="M6 13.4171C6.69019 13.4172 7.24997 13.9768 7.25 14.6671V22.6671C7.24987 23.3572 6.69012 23.9169 6 23.9171C5.30984 23.9169 4.75013 23.3572 4.75 22.6671V14.6671C4.75003 13.9768 5.30978 13.4172 6 13.4171Z" fill="currentColor"/>
<path d="M12.666 13.4171C13.3564 13.4171 13.916 13.9767 13.916 14.6671V22.6671C13.9159 23.3573 13.3563 23.9171 12.666 23.9171C11.976 23.9167 11.4161 23.3571 11.416 22.6671V14.6671C11.416 13.9769 11.9759 13.4174 12.666 13.4171Z" fill="currentColor"/>
<path d="M19.333 13.4171C20.0233 13.4171 20.583 13.9767 20.583 14.6671V22.6671C20.5829 23.3573 20.0233 23.9171 19.333 23.9171C18.6428 23.9169 18.0831 23.3572 18.083 22.6671V14.6671C18.083 13.9768 18.6428 13.4172 19.333 13.4171Z" fill="currentColor"/>
<path d="M26 13.4171C26.6902 13.4172 27.25 13.9768 27.25 14.6671V22.6671C27.2499 23.3572 26.6901 23.9169 26 23.9171C25.3098 23.9169 24.7501 23.3572 24.75 22.6671V14.6671C24.75 13.9768 25.3098 13.4172 26 13.4171Z" fill="currentColor"/>
<path d="M15.668 2.79498C15.921 2.72533 16.1909 2.73645 16.4385 2.82916L27.1055 6.82916C27.5933 7.01212 27.916 7.47904 27.916 8.00006V10.6671C27.9158 11.3573 27.3563 11.9171 26.666 11.9171H5.33301C4.64287 11.9169 4.08318 11.3572 4.08301 10.6671V8.00006L4.09766 7.80768C4.16618 7.3669 4.46774 6.98929 4.89453 6.82916L15.5605 2.82916L15.668 2.79498ZM6.58301 8.86627V9.41705H25.416V8.86627L15.999 5.33502L6.58301 8.86627Z" fill="currentColor"/>
</svg>
