<svg viewBox="0 0 32 32" fill="none" xmlns="http://www.w3.org/2000/svg">
<path d="M9.46191 20.0898C10.0919 20.1542 10.584 20.687 10.584 21.334C10.5836 21.9806 10.0917 22.5129 9.46191 22.5771L9.33398 22.584H6.66699C5.97691 22.584 5.41743 22.024 5.41699 21.334C5.41699 20.6436 5.97664 20.084 6.66699 20.084H9.33398L9.46191 20.0898Z" fill="currentColor"/>
<path d="M12.9307 12.5967C14.7299 10.9713 17.5073 11.0259 19.2412 12.7598L19.4033 12.9307C20.9763 14.6719 20.9766 17.3293 19.4033 19.0703L19.2412 19.2412C17.5073 20.975 14.7298 21.0286 12.9307 19.4033L12.7598 19.2412C10.9699 17.4513 10.97 14.5497 12.7598 12.7598L12.9307 12.5967ZM17.3154 14.3838C16.5518 13.761 15.4492 13.7611 14.6855 14.3838L14.5273 14.5273C13.7139 15.3409 13.7138 16.6601 14.5273 17.4736L14.6855 17.6162C15.5038 18.2833 16.711 18.2362 17.4736 17.4736L17.6162 17.3154C18.2392 16.5518 18.2389 15.4493 17.6162 14.6855L17.4736 14.5273L17.3154 14.3838Z" fill="currentColor"/>
<path d="M25.4619 9.42285C26.0919 9.48717 26.584 10.02 26.584 10.667C26.5838 11.3138 26.0918 11.8458 25.4619 11.9102L25.334 11.917H22.667C21.9767 11.917 21.4172 11.3572 21.417 10.667C21.417 9.97664 21.9766 9.41699 22.667 9.41699H25.334L25.4619 9.42285Z" fill="currentColor"/>
<path d="M26.667 5.41602C28.8306 5.41615 30.584 7.17038 30.584 9.33398V22.667C30.5837 24.8304 28.8304 26.5839 26.667 26.584H5.33398C3.17046 26.584 1.41726 24.8305 1.41699 22.667V9.33398C1.41699 7.1703 3.1703 5.41602 5.33398 5.41602H26.667ZM5.33398 7.91699C4.55101 7.91699 3.91699 8.55101 3.91699 9.33398V22.667C3.91726 23.4497 4.55117 24.084 5.33398 24.084H26.667C27.4497 24.0839 28.0837 23.4497 28.084 22.667V9.33398C28.084 8.55109 27.4499 7.91712 26.667 7.91699H5.33398Z" fill="currentColor"/>
</svg>
