<svg viewBox="0 0 32 32" fill="none" xmlns="http://www.w3.org/2000/svg">
<path d="M17.0195 19.0256C17.7095 19.0258 18.2692 19.5856 18.2695 20.2756C18.2695 20.9657 17.7097 21.5253 17.0195 21.5256H9.9248C9.23463 21.5253 8.6748 20.9658 8.6748 20.2756C8.67513 19.5856 9.23483 19.0258 9.9248 19.0256H17.0195Z" fill="currentColor"/>
<path d="M21.2754 14.7697C21.9655 14.7698 22.5252 15.3296 22.5254 16.0197C22.5252 16.7098 21.9655 17.2696 21.2754 17.2697H9.9248C9.23477 17.2695 8.67505 16.7097 8.6748 16.0197C8.67504 15.3297 9.23477 14.7699 9.9248 14.7697H21.2754Z" fill="currentColor"/>
<path d="M21.4033 10.5197C22.0334 10.5837 22.5251 11.1159 22.5254 11.7629C22.5254 12.41 22.0336 12.9419 21.4033 13.006L21.2754 13.0129H9.9248C9.23463 13.0127 8.6748 12.4531 8.6748 11.7629C8.67508 11.0729 9.2348 10.5131 9.9248 10.5129H21.2754L21.4033 10.5197Z" fill="currentColor"/>
<path d="M6.0166 2.21794C6.73299 1.90906 7.55283 1.92843 8.25684 2.27653L9.92773 3.10368L11.5586 2.28532L11.7012 2.21891C12.4195 1.90963 13.2414 1.92955 13.9463 2.28044L15.5996 3.10466L17.2549 2.28044L17.3975 2.21501C18.117 1.90821 18.9389 1.93183 19.6426 2.28532L21.2715 3.10368L22.9443 2.27653L23.0869 2.2111C23.805 1.90715 24.6237 1.93198 25.3252 2.28434L26.7305 2.9904L26.8955 3.08024C27.7007 3.5585 28.201 4.42946 28.2012 5.37516V26.6642L28.1943 26.8517C28.133 27.7237 27.647 28.5117 26.8955 28.9582L26.7305 29.048L25.3252 29.7541C24.6236 30.1066 23.8052 30.1314 23.0869 29.8273L22.9443 29.7619L21.2715 28.9347L19.6426 29.7531C18.9387 30.1067 18.1171 30.1304 17.3975 29.8234L17.2549 29.758L15.5996 28.9338L13.9463 29.758C13.2413 30.109 12.4197 30.129 11.7012 29.8195L11.5586 29.7531L9.92773 28.9347L8.25684 29.7619C7.55269 30.1101 6.73311 30.1295 6.0166 29.8205L5.875 29.7541L4.4707 29.048C3.62554 28.6233 3.0726 27.7861 3.00684 26.8517L3 26.6642V5.37516C3.00017 4.3664 3.56932 3.44334 4.4707 2.9904L5.875 2.28434L6.0166 2.21794ZM24.0898 4.50407L24.0527 4.51774L21.8213 5.62126C21.4697 5.79503 21.0565 5.79342 20.7061 5.61735L18.5205 4.51872C18.4852 4.50114 18.444 4.49733 18.4062 4.50602L18.3691 4.51872L16.1572 5.62028C15.8504 5.77293 15.4964 5.79145 15.1777 5.67692L15.043 5.62028L12.832 4.51872C12.7965 4.50103 12.7557 4.49713 12.7178 4.50602L12.6807 4.51872L10.4941 5.61735C10.1436 5.79334 9.7305 5.79512 9.37891 5.62126L7.14844 4.51774C7.11279 4.50013 7.07208 4.49602 7.03418 4.50505L6.99805 4.51774L5.59277 5.2238C5.53594 5.2524 5.50016 5.31155 5.5 5.37516V26.6642L5.50684 26.7101C5.5196 26.7547 5.55013 26.7931 5.59277 26.8146L6.99805 27.5207L7.03418 27.5343C7.07212 27.5434 7.11275 27.5383 7.14844 27.5207L9.37891 26.4181L9.51367 26.3605C9.83289 26.2468 10.1875 26.2672 10.4941 26.4211L12.6807 27.5197L12.7178 27.5334C12.7557 27.5423 12.7964 27.5374 12.832 27.5197L15.043 26.4191L15.1777 26.3615C15.4964 26.2471 15.8504 26.2664 16.1572 26.4191L18.3691 27.5197L18.4062 27.5334C18.4442 27.5421 18.485 27.5375 18.5205 27.5197L20.7061 26.4211L20.8408 26.3634C21.1593 26.2478 21.5138 26.2661 21.8213 26.4181L24.0527 27.5207L24.0898 27.5343C24.1276 27.5429 24.1678 27.5384 24.2031 27.5207L25.6074 26.8146L25.6465 26.7882C25.6692 26.7672 25.6858 26.7399 25.6943 26.7101L25.7012 26.6642V5.37516C25.701 5.3276 25.6804 5.28252 25.6465 5.25114L25.6074 5.2238L24.2031 4.51774C24.1679 4.5001 24.1275 4.49557 24.0898 4.50407Z" fill="currentColor"/>
</svg>
