<svg viewBox="0 0 24 24" fill="none" xmlns="http://www.w3.org/2000/svg">
<path d="M13.3969 9.19199C13.7875 8.80167 14.4205 8.80153 14.811 9.19199C15.2012 9.58247 15.2012 10.2156 14.811 10.6061L10.6088 14.8082C10.2184 15.1985 9.58525 15.1985 9.19478 14.8082C8.80432 14.4177 8.80445 13.7847 9.19478 13.3941L13.3969 9.19199Z" fill="currentColor"/>
<path d="M13.2313 13.2217C13.6878 12.7675 14.4032 12.7451 14.8865 13.1396L14.9803 13.2236L15.0653 13.3183C15.4603 13.8029 15.4366 14.5203 14.9793 14.9765C14.498 15.4578 13.7141 15.4646 13.2274 14.9765C12.7475 14.4964 12.7401 13.7155 13.2244 13.2285L13.2235 13.2275L13.2303 13.2207L13.2313 13.2217Z" fill="currentColor"/>
<path d="M9.12133 8.93495C9.60089 8.54732 10.3179 8.56013 10.7786 9.02186L10.8635 9.11561C11.2588 9.60019 11.2349 10.3185 10.7776 10.7748C10.2951 11.2573 9.50723 11.2636 9.02074 10.7719C8.54924 10.2951 8.53209 9.50913 9.02855 9.01796L9.12133 8.93495Z" fill="currentColor"/>
<path d="M19.0068 4.77832C19.0066 4.34839 18.6575 4 18.2275 4H5.77832C5.34853 4.00023 5.00023 4.34853 5 4.77832V19.5068L5.77148 19.1211L5.9873 19.0283C6.4984 18.8437 7.06675 18.8736 7.55957 19.1201L9.33594 20.0078L9.33398 20.0068L11.1084 19.1201C11.6708 18.8387 12.3341 18.8386 12.8965 19.1201L14.6699 20.0068L16.4434 19.1211C17.007 18.8393 17.6698 18.8393 18.2334 19.1211L19.0049 19.5068H19.0068V4.77832ZM21.0068 19.5068C21.0068 20.9935 19.4422 21.9609 18.1113 21.2959L17.3389 20.9092L15.5664 21.7959C15.0732 22.0424 14.5033 22.0737 13.9912 21.8887L13.7764 21.7959L12.0029 20.9092L10.2285 21.7959L10.2275 21.7949C9.66516 22.0764 9.00281 22.0774 8.44043 21.7959L6.66602 20.9092L5.89551 21.2959C4.56433 21.9624 3 20.9927 3 19.5068V4.77832C3.00023 3.24396 4.24396 2.00023 5.77832 2H18.2275C19.7621 2 21.0066 3.24382 21.0068 4.77832V19.5068Z" fill="currentColor"/>
</svg>
