<svg viewBox="0 0 16 16" fill="none" xmlns="http://www.w3.org/2000/svg">
<path d="M8.39648 9.92597C8.81043 9.926 9.1461 10.2621 9.14648 10.676C9.14648 11.0902 8.81067 11.4259 8.39648 11.426H5.39648C4.98244 11.4258 4.64648 11.0901 4.64648 10.676C4.64687 10.2622 4.98268 9.92617 5.39648 9.92597H8.39648Z" fill="currentColor"/>
<path d="M10.1963 7.42597C10.6103 7.42597 10.9459 7.76208 10.9463 8.17597C10.9463 8.59018 10.6105 8.92597 10.1963 8.92597H5.39648C4.98244 8.92576 4.64648 8.59006 4.64648 8.17597C4.64687 7.76221 4.98268 7.42617 5.39648 7.42597H10.1963Z" fill="currentColor"/>
<path d="M10.1963 4.92597C10.6103 4.92597 10.9459 5.26208 10.9463 5.67597C10.9463 6.09018 10.6105 6.42597 10.1963 6.42597H5.39648C4.98244 6.42576 4.64648 6.09006 4.64648 5.67597C4.64687 5.26221 4.98268 4.92617 5.39648 4.92597H10.1963Z" fill="currentColor"/>
<path d="M10.9531 2.07831C11.2486 1.97311 11.5724 1.97414 11.8672 2.08124L12.0117 2.14374L12.6064 2.44257L12.6055 2.44355C13.0614 2.67266 13.3495 3.13841 13.3496 3.64862V12.6516L13.3369 12.84C13.2844 13.2126 13.0778 13.5467 12.7686 13.7609L12.6064 13.8576L12.0117 14.1564C11.6806 14.3226 11.2979 14.3446 10.9531 14.2219L10.8076 14.1603L10.1982 13.8586L9.6084 14.1555C9.27624 14.3223 8.89244 14.3439 8.54688 14.2199L8.40137 14.1584L7.7998 13.8586L7.19922 14.1584C6.86645 14.324 6.48184 14.3442 6.13672 14.2189L5.99121 14.1555L5.40039 13.8586L4.79199 14.1603C4.45968 14.3245 4.0765 14.3441 3.73242 14.2189L3.58789 14.1564L2.99414 13.8576C2.59523 13.657 2.32489 13.2744 2.26367 12.84L2.25 12.6516V3.64862L2.26367 3.46015C2.32495 3.02579 2.59518 2.64313 2.99414 2.44257L3.58789 2.14374L3.73242 2.08124C4.02749 1.97389 4.35169 1.97294 4.64746 2.07831L4.79199 2.13984L5.40039 2.44159L5.99121 2.14472L6.13672 2.08124C6.43258 1.97387 6.75748 1.97391 7.05371 2.08026L7.19922 2.14179L7.7998 2.44159L8.40137 2.14179L8.54688 2.08026C8.84283 1.97408 9.16728 1.97412 9.46289 2.08124L9.6084 2.14472L10.1982 2.44159L10.8076 2.13984L10.9531 2.07831ZM10.5293 3.95136C10.3447 4.04255 10.1316 4.05302 9.94043 3.98359L9.85938 3.94941L9.00195 3.51776L8.13379 3.95038C7.92341 4.05495 7.67616 4.05506 7.46582 3.95038L6.59766 3.51776L5.74023 3.94941C5.53004 4.05492 5.28216 4.05551 5.07129 3.95136L4.19434 3.51776L3.75 3.74042V12.5588L4.19434 12.7814L5.07129 12.3488L5.15137 12.3146C5.34294 12.2463 5.5562 12.2585 5.74023 12.3508L6.59766 12.7814L7.46582 12.3498L7.5459 12.3156C7.73704 12.2468 7.94963 12.2583 8.13379 12.3498L9.00195 12.7814L9.85938 12.3508L9.94043 12.3166C10.1315 12.2472 10.3448 12.2577 10.5293 12.3488L11.4053 12.7814L11.8496 12.5588V3.74042L11.4053 3.51776L10.5293 3.95136Z" fill="currentColor"/>
</svg>
