<svg viewBox="0 0 16 16" fill="none" xmlns="http://www.w3.org/2000/svg">
<path d="M8.38086 5.01181C8.73045 5.05999 9.04591 5.24947 9.25293 5.53525L9.34668 5.68662L9.63867 6.23349L10.0498 6.30185L10.2256 6.34287C10.5676 6.44954 10.8502 6.69408 11.0059 7.0167L11.0732 7.18369L11.1162 7.35947C11.1872 7.77075 11.0554 8.19602 10.7549 8.49619L10.4346 8.81553L10.5195 9.37314L10.5342 9.55088C10.5394 9.96479 10.3451 10.3609 10.0059 10.6104C9.66654 10.8598 9.23043 10.9273 8.83691 10.7989L8.6709 10.7315L8.20312 10.504L7.73633 10.7315C7.30361 10.942 6.78905 10.8955 6.40137 10.6104C6.01395 10.3253 5.8158 9.84875 5.8877 9.37314L5.97266 8.81553L5.65234 8.49717C5.30889 8.15401 5.18577 7.64603 5.33398 7.18369L5.40137 7.0167C5.58289 6.64046 5.938 6.37111 6.35742 6.30185L6.76855 6.23349L7.06055 5.68662L7.1543 5.53525C7.3957 5.20193 7.7855 5.00021 8.2041 5.0001L8.38086 5.01181ZM7.91797 7.2667C7.82176 7.44673 7.6568 7.57931 7.46289 7.63486L7.37793 7.65342L6.99414 7.71592L7.30078 8.02256C7.46963 8.19111 7.54847 8.43023 7.5127 8.66611L7.42871 9.21201L7.875 8.99619L7.95508 8.96299C8.14296 8.8969 8.35102 8.90801 8.53223 8.99619L8.97754 9.21201L8.89453 8.66611C8.85879 8.43045 8.93792 8.19108 9.10645 8.02256L9.41211 7.71592L9.0293 7.65342C8.79912 7.61538 8.5991 7.47252 8.48926 7.2667L8.20312 6.72959L7.91797 7.2667Z" fill="currentColor"/>
<path d="M10.9941 2.0958C11.3097 1.9674 11.6639 1.96824 11.9785 2.09873L12.1328 2.1749L12.6729 2.48935L12.8154 2.58506C13.1296 2.82835 13.3183 3.20577 13.3184 3.60947V11.8175H13.6592L13.7354 11.8214C14.1134 11.8598 14.4089 12.1794 14.4092 12.5675C14.4092 12.9558 14.1135 13.2751 13.7354 13.3136L13.6592 13.3175H12.5879C12.5814 13.3176 12.5749 13.3184 12.5684 13.3185C12.5619 13.3185 12.5552 13.3176 12.5488 13.3175H3.85059C3.84733 13.3175 3.84408 13.3185 3.84082 13.3185C3.83768 13.3185 3.83419 13.3175 3.83105 13.3175H2.75C2.33579 13.3175 2 12.9817 2 12.5675C2.00025 12.1535 2.33594 11.8175 2.75 11.8175H3.09082V3.60947L3.10254 3.4376C3.15515 3.04359 3.38707 2.69114 3.73633 2.48838L4.27637 2.1749L4.42969 2.09873C4.7446 1.968 5.09925 1.96717 5.41504 2.0958L5.56934 2.17099L6.02246 2.43076L6.46094 2.17588L6.61523 2.0997C6.93102 1.96877 7.28625 1.96803 7.60254 2.09775L7.75684 2.17295L8.2041 2.43076L8.65137 2.17295L8.80664 2.09775C9.12295 1.96816 9.47821 1.96867 9.79395 2.0997L9.94824 2.17588L10.3857 2.43076L10.8398 2.17099L10.9941 2.0958ZM10.7549 3.94638C10.523 4.07879 10.2379 4.07818 10.0068 3.94443L9.29688 3.53135L8.57812 3.94541C8.34677 4.07844 8.06148 4.07831 7.83008 3.94541L7.11035 3.53232L6.40234 3.94443C6.20025 4.06167 5.95622 4.07686 5.74316 3.99033L5.65332 3.94638L4.92773 3.53135L4.59082 3.72666V11.8175H11.8184V3.72666L11.4805 3.53135L10.7549 3.94638Z" fill="currentColor"/>
</svg>
