<svg viewBox="0 0 24 24" fill="none" xmlns="http://www.w3.org/2000/svg">
<path d="M13 14.0002C13.5522 14.0002 13.9999 14.448 14 15.0002C14 15.5525 13.5523 16.0002 13 16.0002H8C7.44772 16.0002 7 15.5525 7 15.0002C7.00011 14.448 7.44778 14.0002 8 14.0002H13Z" fill="currentColor"/>
<path d="M16 11.0002C16.5522 11.0002 16.9999 11.448 17 12.0002C17 12.5524 16.5523 13.0002 16 13.0002H8C7.44774 13.0002 7.00003 12.5524 7 12.0002C7.00011 11.448 7.44778 11.0002 8 11.0002H16Z" fill="currentColor"/>
<path d="M16 8.00017C16.5522 8.00017 16.9999 8.44798 17 9.00017C17 9.55245 16.5523 10.0002 16 10.0002H8C7.44772 10.0002 7 9.55245 7 9.00017C7.00011 8.44798 7.44778 8.00017 8 8.00017H16Z" fill="currentColor"/>
<path d="M17.3389 2.11638C17.85 1.93428 18.4174 1.96645 18.9082 2.21306L19.8984 2.71111L20.0215 2.77849C20.6249 3.13683 20.9998 3.78861 21 4.49724V19.5031L20.9951 19.6437C20.949 20.2972 20.5847 20.8873 20.0215 21.2218L19.8984 21.2892L18.9082 21.7873C18.4174 22.0339 17.85 22.0661 17.3389 21.884L17.123 21.7931L15.9971 21.2365L14.9023 21.7863C14.4102 22.0336 13.8412 22.0657 13.3291 21.882L13.1133 21.7902L12 21.2355L10.8867 21.7902C10.3937 22.0356 9.82481 22.0647 9.31348 21.8791L9.09766 21.7863L8.00195 21.2365L6.87695 21.7931C6.38454 22.0366 5.81662 22.0655 5.30664 21.8801L5.0918 21.7873L4.10156 21.2892C3.46858 20.9709 3.05424 20.3437 3.00488 19.6437L3 19.5031V4.49724C3.00025 3.74159 3.42647 3.0506 4.10156 2.71111L5.0918 2.21306L5.30664 2.12029C5.81656 1.9349 6.38458 1.96375 6.87695 2.2072L8.00195 2.76384L9.09766 2.21404L9.31348 2.12126C9.82476 1.9357 10.3937 1.96482 10.8867 2.21013L12 2.76482L13.1133 2.21013L13.3291 2.11833C13.8411 1.93464 14.4102 1.96684 14.9023 2.21404L15.9971 2.76384L17.123 2.2072L17.3389 2.11638ZM16.4375 4.77751C16.1913 4.89928 15.9074 4.91422 15.6523 4.82146L15.5449 4.77458L14.0049 4.00115L12.4453 4.77654C12.1647 4.91617 11.8353 4.91617 11.5547 4.77654L9.99512 4.00115L8.45508 4.77458C8.17461 4.91548 7.84385 4.91664 7.5625 4.77751L5.99023 4.00017L5 4.49724V19.5031L5.99023 20.0002L7.5625 19.2228L7.66992 19.1769C7.92547 19.0858 8.20966 19.1025 8.45508 19.2258L9.99512 19.9992L11.5547 19.2238L11.6621 19.1779C11.917 19.0864 12.1999 19.1017 12.4453 19.2238L14.0049 19.9992L15.5449 19.2258L15.6523 19.1789C15.9073 19.0861 16.1913 19.1011 16.4375 19.2228L18.0098 20.0002L19 19.5031V4.49724L18.0098 4.00017L16.4375 4.77751Z" fill="currentColor"/>
</svg>
