<svg viewBox="0 0 24 24" fill="none" xmlns="http://www.w3.org/2000/svg">
<path d="M12 7.50003C12.7388 7.50004 13.4171 7.90766 13.7646 8.5596L14.3857 9.72659L15.3242 9.88089L15.4609 9.90823C16.1388 10.069 16.6883 10.5734 16.9033 11.2432C17.1182 11.9128 16.9652 12.6428 16.5078 13.168L16.4121 13.2696L15.6904 13.9893L15.874 15.1983L15.8906 15.336C15.9467 16.0239 15.6433 16.6966 15.082 17.1094C14.5208 17.5221 13.7883 17.611 13.1484 17.3526L13.0215 17.2959L12 16.7989L10.9785 17.2959C10.3103 17.6213 9.5167 17.5497 8.91797 17.1094C8.31927 16.6691 8.01457 15.933 8.12598 15.1983L8.30859 13.9893L7.58789 13.2696C7.05721 12.7396 6.86749 11.9573 7.09668 11.2432C7.32595 10.529 7.93564 10.0029 8.67578 9.88089L9.6123 9.72659L10.2354 8.5596L10.3037 8.43948C10.6673 7.85767 11.3075 7.50003 12 7.50003ZM11.1455 11.1035C10.9991 11.3782 10.7329 11.5694 10.4258 11.6201L9.00098 11.8545L10.0801 12.9317L10.1582 13.0196C10.3286 13.2354 10.4041 13.5138 10.3623 13.7891L10.1025 15.4981L11.5625 14.7871L11.668 14.7432C11.9185 14.655 12.1959 14.6696 12.4375 14.7871L13.8975 15.4981L13.6377 13.7891C13.59 13.4747 13.695 13.1564 13.9199 12.9317L14.999 11.8545L13.5742 11.6201C13.2671 11.5695 13.0009 11.3783 12.8545 11.1035L12 9.50003L11.1455 11.1035Z" fill="currentColor"/>
<path d="M17.1348 2.2012C17.7307 1.9113 18.4356 1.93493 19.0137 2.27054L20.0039 2.84573L20.1172 2.91605C20.6666 3.28591 20.9999 3.90711 21 4.57523V20H22C22.5523 20 23 20.4478 23 21C23 21.5523 22.5523 22 22 22H2C1.44772 22 1 21.5523 1 21C1.00002 20.4478 1.44773 20 2 20H3V4.57523C3.00001 3.86242 3.37964 3.20362 3.99609 2.84573L4.98633 2.27054L5.10352 2.20706C5.69737 1.91318 6.40208 1.93218 6.98242 2.2637L8.00195 2.84573L8.99219 2.27152L9.10938 2.20804C9.70495 1.91345 10.4121 1.93349 10.9932 2.26761L12 2.84671L13.0068 2.26761L13.125 2.20413C13.7217 1.9121 14.4282 1.93517 15.0078 2.27152L15.998 2.84671L17.0176 2.2637L17.1348 2.2012ZM16.4902 4.86819C16.2196 5.02276 15.8947 5.04131 15.6113 4.92386L15.4922 4.86429L14.0039 4.00101L12.499 4.86722C12.1903 5.04474 11.8096 5.04475 11.501 4.86722L9.99609 4.00101L8.50781 4.86429C8.19957 5.04317 7.81923 5.04493 7.50977 4.86819L5.99023 4.00003L5 4.57523V20H19V4.57523L18.0098 4.00003L16.4902 4.86819Z" fill="currentColor"/>
</svg>
