<svg viewBox="0 0 16 16" fill="none" xmlns="http://www.w3.org/2000/svg">
<path d="M8.86926 6.06921C9.16209 5.77638 9.6369 5.77651 9.92981 6.06921C10.2227 6.36211 10.2227 6.83687 9.92981 7.12976L7.12903 9.93054C6.83613 10.2234 6.36137 10.2234 6.06848 9.93054C5.77578 9.63763 5.77565 9.16282 6.06848 8.87L8.86926 6.06921Z" fill="currentColor"/>
<path d="M8.76074 8.75568C9.11829 8.40055 9.69086 8.40552 10.043 8.75763C10.396 9.11071 10.4001 9.68546 10.042 10.0428L10.043 10.0438C9.68896 10.3978 9.11102 10.4018 8.75391 10.0408L8.75488 10.0399C8.40565 9.6875 8.40074 9.1181 8.75488 8.76154L8.75391 8.76056L8.75977 8.7547L8.76074 8.75568Z" fill="currentColor"/>
<path d="M6.026 5.89197C6.35521 5.62586 6.83678 5.6172 7.17444 5.8949L7.24475 5.95837L7.27502 5.99353C7.59361 6.34876 7.5869 6.89625 7.24084 7.24158L7.24182 7.24255C6.88783 7.59655 6.30988 7.60052 5.95276 7.23962C5.60691 6.89005 5.5935 6.31418 5.95764 5.95349L6.026 5.89197Z" fill="currentColor"/>
<path d="M12.5 3.18311C12.4999 2.93105 12.3018 2.74756 12.083 2.74756H3.91699C3.69823 2.74756 3.50015 2.93105 3.5 3.18311V12.8579L3.86523 12.6724C4.26326 12.4702 4.73416 12.4692 5.13281 12.6724L6.24902 13.2397L7.36523 12.6724C7.76365 12.4692 8.2354 12.4692 8.63379 12.6724L9.74902 13.2397L10.8662 12.6724L11.0186 12.606C11.3292 12.492 11.6698 12.492 11.9805 12.606L12.1328 12.6724L12.5 12.8589V3.18311ZM14 13.0024C13.9998 14.0375 12.9136 14.7517 11.96 14.2671L11.499 14.0327L10.3838 14.6001C9.98521 14.8026 9.51479 14.8026 9.11621 14.6001L7.99902 14.0327L6.88184 14.5991L6.88281 14.6001C6.4845 14.8031 6.01353 14.8031 5.61523 14.6001L4.49902 14.0327L4.04004 14.2671C3.08617 14.7525 2.00021 14.0367 2 13.0024V3.18311C2.00015 2.12555 2.84705 1.24756 3.91699 1.24756H12.083C13.1529 1.24756 13.9999 2.12555 14 3.18311V13.0024Z" fill="currentColor"/>
</svg>
