<svg viewBox="0 0 32 32" fill="none" xmlns="http://www.w3.org/2000/svg">
<path d="M17.74 12.1378C18.3258 11.5521 19.2753 11.5521 19.8611 12.1378C20.4467 12.7236 20.4467 13.6731 19.8611 14.2589L14.2585 19.8614C13.6728 20.4471 12.7232 20.4471 12.1374 19.8614C11.5517 19.2757 11.5518 18.3261 12.1374 17.7404L17.74 12.1378Z" fill="currentColor"/>
<path d="M17.5201 17.5097C18.1902 16.8437 19.2396 16.8113 19.9488 17.3896L20.0875 17.5136L20.2115 17.6513C20.7918 18.3624 20.7579 19.4169 20.0865 20.0869C19.3804 20.793 18.2289 20.803 17.5142 20.0869C16.8098 19.3825 16.7986 18.2355 17.5093 17.5205L17.5084 17.5195C17.5102 17.5177 17.5124 17.5164 17.5142 17.5146C17.516 17.5128 17.5173 17.5105 17.5191 17.5088L17.5201 17.5097Z" fill="currentColor"/>
<path d="M12.0525 11.7834C12.7411 11.2268 13.7609 11.2354 14.4383 11.8713C14.4531 11.885 14.4697 11.8969 14.4842 11.9113C14.4849 11.9121 14.4854 11.9135 14.4861 11.9142C14.4873 11.9154 14.4889 11.916 14.49 11.9172C14.5065 11.9338 14.5204 11.9527 14.5359 11.9699C15.1899 12.6816 15.1821 13.7948 14.4793 14.4904L14.4783 14.4894C13.7699 15.1921 12.6175 15.1996 11.9051 14.4797C11.2131 13.7803 11.1877 12.6268 11.9168 11.9054L12.0525 11.7834Z" fill="currentColor"/>
<path d="M25.1707 6.36694C25.1707 5.88554 24.781 5.49495 24.2996 5.49487H7.70093C7.21948 5.49487 6.82886 5.88549 6.82886 6.36694V25.7341L7.61597 25.3406L7.61694 25.3396C8.41454 24.941 9.35432 24.9398 10.1531 25.3406L12.4412 26.4841L14.7292 25.3406C15.5266 24.9405 16.4677 24.9403 17.2654 25.3396L19.5564 26.4841L21.8455 25.3396C22.6438 24.9406 23.5823 24.9405 24.3806 25.3396L25.1707 25.7341V6.36694ZM28.1707 26.0037C28.1707 28.11 25.9546 29.4805 24.0691 28.5378L23.113 28.0593L20.825 29.2048C20.0265 29.6041 19.0873 29.6041 18.2888 29.2048L15.9988 28.0593L13.7078 29.2048C12.9108 29.6039 11.9715 29.6039 11.1746 29.2048L8.88354 28.0603L7.93042 28.5378C6.04455 29.482 3.82886 28.1085 3.82886 26.0037V6.36694C3.82886 4.22864 5.56262 2.49487 7.70093 2.49487H24.2996C26.4378 2.49495 28.1707 4.22868 28.1707 6.36694V26.0037Z" fill="currentColor"/>
</svg>
