<svg viewBox="0 0 32 32" fill="none" xmlns="http://www.w3.org/2000/svg">
<path d="M15.9775 9.99989C16.9092 9.99997 17.7647 10.5138 18.2031 11.3358L19 12.8309L20.2041 13.0302L20.3779 13.0643C21.2325 13.2674 21.9251 13.9036 22.1963 14.7479C22.4673 15.5925 22.2742 16.5132 21.6973 17.1757L21.5762 17.3046L20.6504 18.2274L20.8857 19.7782L20.9062 19.952C20.977 20.8197 20.5947 21.6687 19.8867 22.1893C19.1788 22.7099 18.2544 22.822 17.4473 22.496L17.2871 22.4247L15.9766 21.786L14.667 22.4247C13.8243 22.8348 12.8234 22.7445 12.0684 22.1893C11.3133 21.634 10.9278 20.705 11.0684 19.7782L11.3027 18.2274L10.3779 17.3046C9.70851 16.6361 9.46968 15.6487 9.75879 14.7479C10.048 13.8473 10.8167 13.1841 11.75 13.0302L12.9531 12.8309L13.751 11.3358L13.8379 11.1854C14.2965 10.4514 15.1039 9.99995 15.9775 9.99989ZM15.957 12.5116L14.8691 14.5526C14.709 14.853 14.4346 15.0731 14.1113 15.1659L13.9697 15.1981L12.1562 15.496L12.1572 15.497C12.1489 15.4984 12.1413 15.5046 12.1387 15.5126C12.1363 15.5205 12.1387 15.5291 12.1445 15.535L13.5176 16.9061C13.7987 17.1869 13.9295 17.5845 13.8701 17.9774L13.54 20.1532C13.5388 20.1614 13.5432 20.1697 13.5498 20.1747C13.5566 20.1796 13.5657 20.1803 13.5732 20.1766L15.4297 19.2724L15.5625 19.2177C15.8756 19.1075 16.2224 19.1254 16.5244 19.2724L18.3818 20.1766L18.4053 20.1747L18.4141 20.1532L18.084 17.9774C18.0246 17.5845 18.1562 17.1869 18.4375 16.9061L19.8105 15.535L19.8154 15.5126L19.7979 15.497L17.9854 15.1981C17.6014 15.1348 17.268 14.8961 17.085 14.5526L15.9971 12.5116C15.9931 12.5046 15.9856 12.5 15.9775 12.4999L15.957 12.5116Z" fill="currentColor"/>
<path d="M22.5234 3.2538C23.2749 2.88848 24.1636 2.91764 24.8926 3.34071L26.1533 4.07313L26.2959 4.162C26.9889 4.62852 27.4091 5.4121 27.4092 6.25477V25.9091H28.7041L28.832 25.9149C29.4624 25.9788 29.9539 26.5119 29.9541 27.1591C29.9539 27.8062 29.4624 28.3384 28.832 28.4022L28.7041 28.4091H3.25C2.55988 28.4089 2.00019 27.8492 2 27.1591C2.00022 26.469 2.5599 25.9092 3.25 25.9091H4.5459V6.25477C4.54595 5.35585 5.02444 4.52459 5.80176 4.07313L7.0625 3.34071L7.21094 3.26161C7.95993 2.89109 8.84914 2.91381 9.58105 3.33192L9.58008 3.3329L10.8896 4.07997L12.1611 3.34169L12.3086 3.26259C13.0599 2.89093 13.9516 2.91533 14.6846 3.3368L15.9775 4.08095L17.2705 3.3368L17.4199 3.2577C18.1725 2.88951 19.064 2.91745 19.7949 3.34169L21.0654 4.07997L22.375 3.33192L22.5234 3.2538ZM7.05762 6.23524C7.05065 6.23928 7.04595 6.24673 7.0459 6.25477V25.9091H24.9092V6.25477L24.8984 6.23524L23.6377 5.50282H23.6152L21.6816 6.60731C21.3431 6.80071 20.9365 6.8238 20.582 6.67665L20.4336 6.60341L18.54 5.5038H18.5176L16.6006 6.60634C16.263 6.80036 15.8575 6.82424 15.5029 6.6786L15.3545 6.60634L13.4385 5.5038H13.416L11.5215 6.60341C11.1843 6.79903 10.7782 6.82431 10.4229 6.67958L10.2744 6.60731L8.34082 5.50282H8.31738L7.05762 6.23524Z" fill="currentColor"/>
</svg>
