<svg viewBox="0 0 24 24" fill="none" xmlns="http://www.w3.org/2000/svg">
<path d="M12.4962 5.61621C14.9668 5.76189 17.3088 6.98831 18.7881 8.95508L19.0069 9.26172C20.0508 10.7917 20.8271 13.0144 20.2452 15.0371L20.1797 15.2451C19.6058 16.9476 18.0407 18.1625 16.2676 18.374L15.9112 18.4033C13.291 18.5135 10.9982 16.394 11.0001 13.8018C11.0007 13.2497 11.4489 12.8023 12.001 12.8027C12.5532 12.8033 13.0005 13.2515 13.0001 13.8037C12.9991 15.2073 14.2924 16.4686 15.8262 16.4043L16.0352 16.3877C17.0702 16.263 17.9684 15.5464 18.2852 14.6064L18.3575 14.3516C18.6426 13.1372 18.1847 11.609 17.3692 10.4092L17.1895 10.1572C16.0725 8.67215 14.2787 7.7258 12.3809 7.61328L12.0001 7.60156C8.66152 7.60155 5.86323 10.1956 5.60358 13.3232L5.586 13.6279C5.46637 17.6692 9.5996 20.8547 13.668 19.7959L13.7676 19.7744C14.2686 19.6968 14.7573 20.0106 14.8878 20.5117C15.0267 21.0461 14.7053 21.5924 14.171 21.7314L13.9239 21.791C8.73292 22.9741 3.4274 18.9498 3.58698 13.5684L3.61041 13.1592C3.95616 8.95698 7.66146 5.60155 12.0001 5.60156L12.4962 5.61621ZM10.4522 9.45996C12.5949 8.73484 15.0807 9.64675 16.1661 11.6611L16.293 11.917C16.5713 12.5213 16.7141 13.179 16.7081 13.8457C16.7031 14.3979 16.2515 14.8418 15.6993 14.8369C15.1471 14.832 14.7033 14.3802 14.7081 13.8281C14.7114 13.4584 14.6326 13.0916 14.4766 12.7529L14.4053 12.6094C13.8199 11.523 12.4411 10.9679 11.2188 11.3154L10.9766 11.3965C9.70161 11.8968 9.02856 13.3052 9.39948 14.5312L9.45026 14.6816C9.56144 14.9801 9.72883 15.2577 9.94537 15.5L10.0577 15.6182L10.127 15.6943C10.4496 16.0852 10.4304 16.665 10.0665 17.0332C9.70252 17.4012 9.12314 17.4273 8.72858 17.1094L8.65241 17.041L8.45514 16.833C8.07405 16.4068 7.77532 15.9149 7.57623 15.3809L7.48541 15.1104C6.80304 12.8548 8.03136 10.4042 10.2452 9.53516L10.4522 9.45996ZM12.3594 2.00488C15.9486 2.1111 19.3752 3.80284 21.584 6.57422L21.8008 6.85547L21.8575 6.94043C22.1185 7.37488 22.0133 7.94477 21.5987 8.25488C21.1841 8.5648 20.6077 8.50486 20.2647 8.13184L20.1993 8.05273L20.0196 7.82031C18.185 5.51899 15.3146 4.09444 12.3018 4.00488L12.0001 4C8.7776 4 5.68313 5.53652 3.80084 8.05273C3.4701 8.49489 2.84366 8.58546 2.40143 8.25488C1.95927 7.92414 1.86871 7.2977 2.19928 6.85547C4.46756 3.8231 8.16127 2 12.0001 2L12.3594 2.00488Z" fill="currentColor"/>
</svg>
