<svg viewBox="0 0 24 24" fill="none" xmlns="http://www.w3.org/2000/svg">
<path d="M3 18.4998V16.4998C3 15.9475 3.44772 15.4998 4 15.4998C4.55228 15.4998 5 15.9475 5 16.4998V18.4998C5 18.7759 5.22386 18.9998 5.5 18.9998H7.5C8.05228 18.9998 8.5 19.4475 8.5 19.9998C8.5 20.552 8.05228 20.9998 7.5 20.9998H5.5C4.11929 20.9998 3 19.8805 3 18.4998ZM19 18.4998V16.4998C19 15.9475 19.4477 15.4998 20 15.4998C20.5523 15.4998 21 15.9475 21 16.4998V18.4998C21 19.8805 19.8807 20.9998 18.5 20.9998H16.5C15.9477 20.9998 15.5 20.552 15.5 19.9998C15.5 19.4475 15.9477 18.9998 16.5 18.9998H18.5C18.7761 18.9998 19 18.7759 19 18.4998ZM14.543 14.2927C14.9335 13.9022 15.5665 13.9022 15.957 14.2927C16.3476 14.6832 16.3476 15.3163 15.957 15.7068C15.7916 15.8722 15.6094 16.0431 15.4092 16.2107L15.2031 16.3767C14.4124 16.988 13.3722 17.4998 12 17.4998C10.2961 17.4998 9.17471 16.7577 8.36914 16.0203L8.04297 15.7068L7.97461 15.6306C7.65426 15.2378 7.67685 14.6588 8.04297 14.2927C8.40908 13.9266 8.98809 13.904 9.38086 14.2244L9.45703 14.2927L9.71289 14.5388C10.3163 15.0934 10.9815 15.4998 12 15.4998C12.8275 15.4998 13.4497 15.205 13.9805 14.7947L14.2686 14.5535C14.362 14.4696 14.4532 14.3825 14.543 14.2927ZM11.2227 10.9558V8.55542C11.2227 8.00315 11.6704 7.55542 12.2227 7.55542C12.7747 7.55565 13.2226 8.0033 13.2227 8.55542V10.9558C13.2226 11.4729 13.0976 11.9456 12.8096 12.3542C12.5355 12.7427 12.1699 12.9905 11.8447 13.1697L11.7529 13.2146C11.2866 13.4132 10.7363 13.2305 10.4863 12.7771C10.2198 12.2934 10.3962 11.6853 10.8799 11.4187L11.0107 11.3406C11.1172 11.2713 11.1578 11.2258 11.1748 11.2019C11.1831 11.1902 11.2226 11.1398 11.2227 10.9558ZM7.5 10.1111V8.55542C7.50002 8.00315 7.94773 7.55542 8.5 7.55542C9.05227 7.55542 9.49998 8.00315 9.5 8.55542V10.1111C9.49996 10.6633 9.05226 11.1111 8.5 11.1111C7.94774 11.1111 7.50004 10.6633 7.5 10.1111ZM14.5 10.1111V8.55542C14.5 8.00315 14.9477 7.55542 15.5 7.55542C16.0523 7.55542 16.5 8.00315 16.5 8.55542V10.1111C16.5 10.6633 16.0523 11.1111 15.5 11.1111C14.9477 11.1111 14.5 10.6633 14.5 10.1111ZM3 7.49976V5.49976C3 4.11904 4.11929 2.99976 5.5 2.99976H7.5C8.05228 2.99976 8.5 3.44747 8.5 3.99976C8.5 4.55204 8.05228 4.99976 7.5 4.99976H5.5C5.22386 4.99976 5 5.22361 5 5.49976V7.49976C5 8.05204 4.55228 8.49976 4 8.49976C3.44772 8.49976 3 8.05204 3 7.49976ZM19 7.49976V5.49976C19 5.22361 18.7761 4.99976 18.5 4.99976H16.5C15.9477 4.99976 15.5 4.55204 15.5 3.99976C15.5 3.44747 15.9477 2.99976 16.5 2.99976H18.5C19.8807 2.99976 21 4.11904 21 5.49976V7.49976C21 8.05204 20.5523 8.49976 20 8.49976C19.4477 8.49976 19 8.05204 19 7.49976Z" fill="currentColor"/>
</svg>
