<svg viewBox="0 0 16 16" fill="none" xmlns="http://www.w3.org/2000/svg">
<path d="M1.91675 12.3335V10.9995C1.91692 10.5854 2.25264 10.2495 2.66675 10.2495C3.05513 10.2495 3.37452 10.5451 3.41284 10.9233L3.41675 10.9995V12.3335L3.42163 12.3833C3.44483 12.4974 3.54584 12.5835 3.66675 12.5835H4.99976L5.0769 12.5874C5.45501 12.6259 5.74976 12.9452 5.74976 13.3335C5.74959 13.7216 5.45494 14.0411 5.0769 14.0796L4.99976 14.0835H3.66675C2.76068 14.0835 2.01519 13.3946 1.92554 12.5122L1.91675 12.3335ZM12.5837 12.3335V10.9995C12.5839 10.5854 12.9196 10.2495 13.3337 10.2495C13.7477 10.2497 14.0836 10.5856 14.0837 10.9995V12.3335C14.0836 13.2997 13.3 14.0833 12.3337 14.0835H10.9998C10.5858 14.0833 10.2499 13.7475 10.2498 13.3335C10.2498 12.9194 10.5857 12.5837 10.9998 12.5835H12.3337C12.4716 12.5833 12.5836 12.4713 12.5837 12.3335ZM9.63647 9.46924C9.92933 9.17656 10.4042 9.17656 10.697 9.46924C10.9899 9.76208 10.9898 10.2369 10.697 10.5298C10.6226 10.6042 10.5429 10.681 10.4578 10.7573L10.1863 10.9839C9.64829 11.3997 8.93714 11.7495 7.99976 11.7495C6.83561 11.7494 6.06957 11.2408 5.52417 10.7417L5.30347 10.5298L5.25171 10.4731C5.01143 10.1786 5.02887 9.74383 5.30347 9.46924C5.57807 9.19497 6.01193 9.1783 6.3064 9.41846L6.36401 9.46924L6.53101 9.63037C6.92488 9.99259 7.34931 10.2494 7.99976 10.2495C8.52871 10.2495 8.92628 10.0625 9.26929 9.79736L9.45679 9.64014C9.51773 9.58545 9.57753 9.52819 9.63647 9.46924ZM7.39819 7.30322V5.70361C7.39821 5.28942 7.73401 4.95363 8.14819 4.95361C8.5624 4.95361 8.89818 5.28941 8.89819 5.70361V7.30322C8.89819 7.66184 8.81184 7.99469 8.60815 8.28369C8.41501 8.55767 8.15894 8.73082 7.93726 8.85303C7.5745 9.05297 7.11767 8.92086 6.91772 8.55811C6.71808 8.19551 6.85024 7.73953 7.21265 7.53955C7.34687 7.46557 7.37814 7.42571 7.38257 7.41943C7.38257 7.41943 7.38476 7.41511 7.38745 7.40576C7.39098 7.39346 7.39819 7.36213 7.39819 7.30322ZM4.91675 6.74072V5.70361C4.91676 5.28941 5.25254 4.95361 5.66675 4.95361C6.08095 4.95361 6.41673 5.28941 6.41675 5.70361V6.74072C6.41672 7.15492 6.08095 7.49072 5.66675 7.49072C5.25255 7.49072 4.91677 7.15492 4.91675 6.74072ZM9.58374 6.74072V5.70361C9.58376 5.28941 9.91954 4.95361 10.3337 4.95361C10.7478 4.95379 11.0837 5.28952 11.0837 5.70361V6.74072C11.0837 7.15481 10.7478 7.49055 10.3337 7.49072C9.91954 7.49072 9.58376 7.15492 9.58374 6.74072ZM1.91675 4.99951V3.6665C1.91675 2.70001 2.70025 1.9165 3.66675 1.9165H4.99976C5.41397 1.9165 5.74976 2.25229 5.74976 2.6665C5.74976 3.08072 5.41397 3.4165 4.99976 3.4165H3.66675C3.52868 3.4165 3.41675 3.52843 3.41675 3.6665V4.99951C3.41675 5.41373 3.08096 5.74951 2.66675 5.74951C2.25253 5.74951 1.91675 5.41373 1.91675 4.99951ZM12.5837 4.99951V3.6665C12.5837 3.52854 12.4717 3.41668 12.3337 3.4165H10.9998C10.5857 3.41633 10.2498 3.08061 10.2498 2.6665C10.2498 2.2524 10.5857 1.91668 10.9998 1.9165H12.3337C13.3001 1.91668 14.0837 2.70011 14.0837 3.6665V4.99951C14.0837 5.41362 13.7478 5.74934 13.3337 5.74951C12.9195 5.74951 12.5837 5.41373 12.5837 4.99951Z" fill="currentColor"/>
</svg>
