<svg viewBox="0 0 16 16" fill="none" xmlns="http://www.w3.org/2000/svg">
<path d="M8.34766 3.51172C10.0791 3.61379 11.7204 4.4726 12.7578 5.85156L12.9111 6.06641C13.6164 7.09997 14.1518 8.59085 13.8184 9.97656L13.7334 10.2715C13.3277 11.475 12.2216 12.3322 10.9697 12.4814L10.7178 12.502C8.86815 12.5796 7.24868 11.0841 7.25 9.25098C7.25056 8.83698 7.58692 8.50166 8.00098 8.50195C8.41499 8.50249 8.7503 8.83886 8.75 9.25293C8.74957 10.1946 9.62027 11.0465 10.6553 11.0029L10.7959 10.9922C11.4941 10.908 12.0986 10.4235 12.3115 9.79199L12.3604 9.62012C12.5533 8.79761 12.2446 7.75237 11.6836 6.92676L11.5596 6.75391C10.794 5.73609 9.56356 5.08612 8.26172 5.00879L8 5.00098C5.70922 5.00097 3.79102 6.78155 3.61328 8.92383L3.60156 9.13184C3.5195 11.8988 6.35248 14.086 9.14453 13.3594C9.54511 13.2554 9.95417 13.496 10.0586 13.8965C10.1629 14.2973 9.92234 14.7072 9.52148 14.8115C5.82982 15.772 1.98906 12.9237 2.10254 9.08789L2.11816 8.80078C2.36047 5.85256 4.95917 3.50097 8 3.50098L8.34766 3.51172ZM7.05371 6.1377C8.53164 5.71366 10.199 6.36043 10.9414 7.73828L11.0322 7.91895C11.2288 8.346 11.3294 8.81102 11.3252 9.28223C11.3215 9.6964 10.9825 10.0291 10.5684 10.0254C10.1542 10.0217 9.82147 9.68275 9.8252 9.26855C9.82708 9.05551 9.78813 8.84407 9.71094 8.64453L9.62109 8.44922C9.2273 7.7189 8.29719 7.34366 7.47266 7.57812L7.30957 7.63281C6.45037 7.96998 5.99843 8.91849 6.24707 9.74121L6.32227 9.94238C6.38051 10.073 6.45508 10.1967 6.54492 10.3105L6.69043 10.4736L6.74219 10.5303C6.98409 10.8234 6.96924 11.258 6.69629 11.5342C6.42337 11.81 5.98923 11.83 5.69336 11.5918L5.63574 11.54L5.49707 11.3936C5.22774 11.0924 5.01671 10.7447 4.87598 10.3672L4.81152 10.1758C4.32908 8.58076 5.19812 6.84993 6.76172 6.23633L7.05371 6.1377ZM8.50195 1.01465C10.9186 1.1575 13.2064 2.32433 14.6992 4.19727L14.8506 4.39355L14.8936 4.45801C15.089 4.78376 15.0099 5.21083 14.6992 5.44336C14.3883 5.67597 13.9555 5.63143 13.6982 5.35156L13.6494 5.29199L13.3965 4.97559C12.1732 3.5341 10.346 2.6272 8.41504 2.5127L8 2.5C5.77934 2.5 3.64701 3.55901 2.35059 5.29199C2.10248 5.62368 1.63247 5.69147 1.30078 5.44336C0.96921 5.19523 0.901339 4.7252 1.14941 4.39355C2.73534 2.27352 5.31713 0.999999 8 1L8.50195 1.01465Z" fill="currentColor"/>
</svg>
