<svg viewBox="0 0 32 32" fill="none" xmlns="http://www.w3.org/2000/svg">
<path d="M4.0835 24.666V22C4.0835 21.3096 4.64314 20.75 5.3335 20.75C6.02385 20.75 6.5835 21.3096 6.5835 22V24.666C6.5835 25.0802 6.91928 25.416 7.3335 25.416H10.0005C10.6906 25.4162 11.2503 25.9759 11.2505 26.666C11.2505 27.3563 10.6907 27.9158 10.0005 27.916H7.3335C5.53857 27.916 4.0835 26.4609 4.0835 24.666ZM25.4165 24.666V22C25.4165 21.3098 25.9763 20.7502 26.6665 20.75C27.3569 20.75 27.9165 21.3096 27.9165 22V24.666C27.9165 26.4609 26.4614 27.916 24.6665 27.916H22.0005C21.3101 27.916 20.7505 27.3564 20.7505 26.666C20.7507 25.9758 21.3102 25.416 22.0005 25.416H24.6665C25.0807 25.416 25.4165 25.0802 25.4165 24.666ZM19.4497 19.1162C19.9379 18.6281 20.7291 18.6281 21.2173 19.1162C21.7053 19.6044 21.7054 20.3957 21.2173 20.8838C20.9981 21.103 20.7572 21.3293 20.4927 21.5508L20.2202 21.7695C19.1767 22.5762 17.8073 23.2499 16.0005 23.25C13.7574 23.25 12.281 22.2744 11.2153 21.2988L10.7827 20.8838L10.6968 20.7891C10.2964 20.2982 10.3254 19.5739 10.7827 19.1162C11.2404 18.6586 11.9646 18.6298 12.4556 19.0303L12.5503 19.1162L12.895 19.4463C13.708 20.1934 14.6139 20.75 16.0005 20.75C17.1263 20.7499 17.9725 20.3473 18.6909 19.792L18.8882 19.6328C19.0824 19.4702 19.2688 19.2971 19.4497 19.1162ZM15.0464 14.6074V11.4072C15.0464 10.7169 15.6061 10.1573 16.2964 10.1572C16.9867 10.1572 17.5464 10.7169 17.5464 11.4072V14.6074C17.5464 15.2831 17.3847 15.8954 17.0122 16.4238C16.6573 16.9273 16.1823 17.2509 15.7534 17.4873C15.1489 17.8205 14.3884 17.6006 14.0552 16.9961C13.722 16.3916 13.942 15.6312 14.5464 15.2979C14.829 15.1421 14.9278 15.0406 14.9683 14.9834C14.991 14.9512 15.0464 14.8669 15.0464 14.6074ZM10.0835 13.4814V11.4072C10.0835 10.7169 10.6432 10.1572 11.3335 10.1572C12.0238 10.1572 12.5835 10.7169 12.5835 11.4072V13.4814C12.5834 14.1718 12.0238 14.7314 11.3335 14.7314C10.6432 14.7314 10.0835 14.1718 10.0835 13.4814ZM19.4165 13.4814V11.4072C19.4165 10.717 19.9763 10.1574 20.6665 10.1572C21.3568 10.1572 21.9165 10.7169 21.9165 11.4072V13.4814C21.9165 14.1718 21.3568 14.7314 20.6665 14.7314C19.9763 14.7313 19.4166 14.1717 19.4165 13.4814ZM4.0835 10V7.33301C4.0835 5.53808 5.53857 4.08301 7.3335 4.08301H10.0005C10.6907 4.08318 11.2505 4.64276 11.2505 5.33301C11.2505 6.02326 10.6907 6.58283 10.0005 6.58301H7.3335C6.91928 6.58301 6.5835 6.91879 6.5835 7.33301V10C6.58332 10.6902 6.02374 11.25 5.3335 11.25C4.64325 11.25 4.08367 10.6902 4.0835 10ZM25.4165 10V7.33301C25.4165 6.91879 25.0807 6.58301 24.6665 6.58301H22.0005C21.3101 6.58301 20.7505 6.02336 20.7505 5.33301C20.7505 4.64265 21.3101 4.08301 22.0005 4.08301H24.6665C26.4614 4.08301 27.9165 5.53808 27.9165 7.33301V10C27.9163 10.6902 27.3568 11.25 26.6665 11.25C25.9764 11.2498 25.4167 10.6901 25.4165 10Z" fill="currentColor"/>
</svg>
