<svg viewBox="0 0 32 32" fill="none" xmlns="http://www.w3.org/2000/svg">
<path d="M16.3407 7.25781C19.8566 7.36166 23.2192 9.06626 25.3163 11.8545L25.6181 12.2764C27.0541 14.3814 28.1105 17.4252 27.3183 20.1797L27.2294 20.4639C26.4241 22.8523 24.1787 24.5368 21.6689 24.7393L21.4257 24.7539C17.862 24.9038 14.7474 22.0208 14.7499 18.5029C14.7505 17.8126 15.3106 17.2534 16.0009 17.2539C16.6912 17.2545 17.2504 17.8146 17.2499 18.5049C17.2485 20.537 19.1143 22.3485 21.3202 22.2559L21.621 22.2314C23.1094 22.052 24.4023 21.0232 24.8603 19.665L24.9169 19.4834C25.4199 17.7154 24.7579 15.4566 23.5712 13.7109L23.3183 13.3574C21.6891 11.1914 19.0426 9.83915 16.2685 9.75684L15.9999 9.75293C11.2937 9.75292 7.34421 13.4077 6.97747 17.8262L6.95305 18.2568C6.78392 23.9688 12.6175 28.4542 18.3515 26.9619L18.4765 26.9355C19.1026 26.8388 19.7129 27.2302 19.8759 27.8564C20.0498 28.5245 19.6485 29.207 18.9804 29.3809L18.6415 29.4639C11.5141 31.0887 4.23544 25.5595 4.45403 18.1826L4.48528 17.6211C4.95961 11.8594 10.0436 7.25292 15.9999 7.25293L16.3407 7.25781ZM16.495 2.25781C21.4399 2.40419 26.1602 4.73435 29.2021 8.55078L29.5009 8.9375L29.5722 9.04395C29.8984 9.587 29.7671 10.2999 29.249 10.6875C28.7307 11.0752 28.0098 10.9996 27.581 10.5332L27.499 10.4346L27.246 10.1084C24.6719 6.87961 20.6471 4.88131 16.4228 4.75586L15.9999 4.75C11.4815 4.75 7.14199 6.90397 4.5009 10.4346L4.41887 10.5332C3.99006 10.9996 3.26915 11.0752 2.7509 10.6875C2.19812 10.274 2.08548 9.4903 2.49895 8.9375L2.79778 8.55078C5.94106 4.60715 10.8764 2.25 15.9999 2.25L16.495 2.25781Z" fill="currentColor"/>
<path d="M13.8945 12.6035C16.8084 11.6173 20.1888 12.859 21.663 15.5947L21.8368 15.9424C22.2148 16.7633 22.4085 17.6571 22.4003 18.5625C22.394 19.2527 21.8288 19.807 21.1386 19.8008C20.4484 19.7945 19.8943 19.2302 19.9003 18.54C19.9051 18.0059 19.7915 17.4761 19.5663 16.9873L19.4628 16.7803C18.5891 15.1591 16.4998 14.3625 14.7001 14.9697L14.5273 15.0332C12.6913 15.7537 11.7181 17.7814 12.2548 19.5557L12.3281 19.7734C12.5154 20.2763 12.8135 20.738 13.205 21.125C13.6959 21.6103 13.701 22.4016 13.2157 22.8926C12.7305 23.3835 11.9392 23.3875 11.4482 22.9023C10.8007 22.2623 10.3017 21.493 9.98626 20.6465L9.86223 20.2793C8.93622 17.2179 10.6043 13.8872 13.6142 12.7061L13.8945 12.6035Z" fill="currentColor"/>
</svg>
