<svg viewBox="0 0 32 32" fill="none" xmlns="http://www.w3.org/2000/svg">
<path d="M18.8955 11.8603C21.7539 11.8604 23.583 14.3477 23.583 16.6074C23.5829 17.8168 23.0778 18.8874 22.4482 19.7568C21.8163 20.6293 20.9998 21.383 20.2246 21.9883C19.4437 22.598 18.6649 23.0874 18.0762 23.4248C17.781 23.594 17.5276 23.7288 17.3389 23.8232C17.2458 23.8698 17.1623 23.9097 17.0938 23.9404C17.061 23.9551 17.0199 23.9722 16.9785 23.9883C16.9592 23.9958 16.9245 24.0094 16.8828 24.0224C16.8622 24.0289 16.8261 24.0395 16.7812 24.0498C16.7535 24.0561 16.6429 24.082 16.5 24.082C16.3566 24.082 16.2453 24.0561 16.2178 24.0498C16.1728 24.0395 16.1367 24.0289 16.1162 24.0224C16.0743 24.0093 16.0398 23.9958 16.0205 23.9883C15.9792 23.9722 15.9389 23.9551 15.9062 23.9404C15.8376 23.9097 15.7535 23.8699 15.6602 23.8232C15.4713 23.7288 15.2181 23.594 14.9229 23.4248C14.3341 23.0873 13.5554 22.5981 12.7744 21.9883C11.9992 21.383 11.1827 20.6294 10.5508 19.7568C9.92125 18.8874 9.41617 17.8168 9.41602 16.6074C9.41602 14.3478 11.2453 11.8606 14.1035 11.8603C15.0976 11.8603 15.8912 12.1527 16.499 12.5351C17.1069 12.1525 17.901 11.8604 18.8955 11.8603ZM18.8955 14.3603C18.1559 14.3604 17.6971 14.6913 17.4219 14.9922C17.1852 15.2508 16.8506 15.3983 16.5 15.3984C16.1492 15.3984 15.8139 15.251 15.5771 14.9922C15.3019 14.6913 14.8431 14.3603 14.1035 14.3603C12.8484 14.3606 11.916 15.4951 11.916 16.6074C11.9162 17.1086 12.1277 17.6719 12.5752 18.29C13.0207 18.9053 13.6435 19.4945 14.3135 20.0176C14.9777 20.5361 15.6513 20.9609 16.166 21.2558C16.2878 21.3257 16.3999 21.387 16.499 21.4404C16.5983 21.3869 16.7109 21.3258 16.833 21.2558C17.3476 20.9609 18.0214 20.5361 18.6855 20.0176C19.3554 19.4945 19.9783 18.9052 20.4238 18.29C20.8714 17.6719 21.0829 17.1086 21.083 16.6074C21.083 15.495 20.1508 14.3604 18.8955 14.3603Z" fill="currentColor"/>
<path d="M21.4287 2.21679C23.079 1.80905 24.6943 3.05814 24.6943 4.77831V6.30468H24.833C27.0579 6.30479 28.8603 8.10709 28.8604 10.332V25.6094C28.8603 27.8343 27.0579 29.6376 24.833 29.6377H8.16602C5.94127 29.6374 4.13876 27.8342 4.13867 25.6094V7.62499C4.13867 7.61168 4.14048 7.59823 4.14062 7.58495C4.14038 7.57493 4.13869 7.56475 4.13867 7.55468C4.13867 7.50692 4.14224 7.45944 4.14746 7.41307C4.23605 5.72345 5.37323 4.25968 7.00684 3.76854L7.11914 3.74022C7.15718 3.73255 7.19575 3.72675 7.23438 3.72264L21.4287 2.21679ZM6.63867 25.6094C6.63876 26.4534 7.32198 27.1374 8.16602 27.1377H24.833C25.6772 27.1376 26.3603 26.4536 26.3604 25.6094V10.332C26.3603 9.4878 25.6772 8.80479 24.833 8.80468H6.63867V25.6094ZM22.0166 4.6455C21.9418 4.66809 21.8648 4.68412 21.7871 4.69237L7.63477 6.19432C7.55224 6.22493 7.47293 6.2614 7.39844 6.30468H22.1943V4.77831C22.1943 4.69617 22.1253 4.63595 22.0498 4.63964L22.0166 4.6455Z" fill="currentColor"/>
</svg>
