<svg viewBox="0 0 24 24" fill="none" xmlns="http://www.w3.org/2000/svg">
<path d="M13.7246 8.99504C15.8469 8.99504 17.2002 10.8407 17.2002 12.5136C17.2001 13.4128 16.8248 14.2037 16.3643 14.8398C15.9018 15.4784 15.3056 16.0276 14.7432 16.4667C14.1765 16.9091 13.6123 17.2641 13.1855 17.5087C12.9714 17.6315 12.7872 17.7299 12.6494 17.7988C12.5815 17.8327 12.5199 17.8618 12.4688 17.8847C12.4444 17.8956 12.4129 17.9093 12.3809 17.9218C12.3659 17.9276 12.3385 17.9379 12.3057 17.9482C12.2893 17.9533 12.2604 17.9615 12.2246 17.9697C12.2023 17.9747 12.1143 17.995 12 17.995C11.8857 17.995 11.7977 17.9747 11.7754 17.9697C11.7396 17.9615 11.7107 17.9533 11.6943 17.9482C11.6615 17.9379 11.6341 17.9276 11.6191 17.9218C11.5871 17.9093 11.5556 17.8956 11.5312 17.8847C11.4801 17.8618 11.4185 17.8327 11.3506 17.7988C11.2128 17.7299 11.0286 17.6315 10.8145 17.5087C10.3877 17.2641 9.82351 16.9091 9.25684 16.4667C8.69439 16.0276 8.09821 15.4784 7.63574 14.8398C7.17517 14.2037 6.79986 13.4128 6.7998 12.5136C6.7998 10.8407 8.15312 8.99504 10.2754 8.99504C10.984 8.99511 11.5559 9.19606 12 9.46379C12.4441 9.19606 13.016 8.99511 13.7246 8.99504ZM13.7246 10.995C13.2275 10.9952 12.9227 11.2165 12.7383 11.4179C12.5488 11.625 12.2807 11.7431 12 11.7431C11.7193 11.7431 11.4512 11.625 11.2617 11.4179C11.0773 11.2165 10.7725 10.9952 10.2754 10.995C9.43566 10.995 8.7998 11.7585 8.7998 12.5136C8.79987 12.8462 8.94075 13.2317 9.25586 13.6669C9.56916 14.0995 10.0092 14.5173 10.4873 14.8905C10.9609 15.2603 11.442 15.5637 11.8096 15.7743C11.8772 15.8131 11.9421 15.8452 12 15.8769C12.0579 15.8452 12.1228 15.8131 12.1904 15.7743C12.558 15.5637 13.0391 15.2603 13.5127 14.8905C13.9908 14.5173 14.4308 14.0995 14.7441 13.6669C15.0592 13.2317 15.2001 12.8462 15.2002 12.5136C15.2002 11.7585 14.5643 10.995 13.7246 10.995Z" fill="currentColor"/>
<path d="M15.5586 2.05071C16.7979 1.76598 17.9998 2.70388 18 3.99602V4.99504C19.6572 4.99504 20.9998 6.33792 21 7.99504V18.995C21 20.6523 19.6573 21.995 18 21.995H6C4.34272 21.995 3.00001 20.6523 3 18.995V6.0468C3 6.03748 3.00186 6.02778 3.00195 6.01848C3.00178 6.0108 3 6.00276 3 5.99504C3.00001 5.95706 3.0027 5.91962 3.00684 5.88274C3.07505 4.6267 3.92091 3.53909 5.13574 3.17375L5.22656 3.15129C5.25693 3.14517 5.28752 3.13992 5.31836 3.13664L15.5586 2.05071ZM5 18.995C5.00001 19.5477 5.44729 19.995 6 19.995H18C18.5527 19.995 19 19.5477 19 18.995V7.99504C18.9998 7.44249 18.5526 6.99504 18 6.99504H5V18.995ZM15.9102 4.01945L15.8174 4.0341L6.7627 4.99504H16V3.99699C15.9704 4.00589 15.9404 4.01334 15.9102 4.01945Z" fill="currentColor"/>
</svg>
