<svg viewBox="0 0 16 16" fill="none" xmlns="http://www.w3.org/2000/svg">
<path d="M9.44824 6.09561C10.7962 6.09582 11.6484 7.26485 11.6484 8.32022C11.6482 8.89305 11.4086 9.38953 11.127 9.77823C10.8438 10.1689 10.4818 10.5022 10.1455 10.7646C9.80584 11.0295 9.4677 11.2417 9.21289 11.3876C9.0851 11.4608 8.97412 11.5197 8.89062 11.5614C8.84967 11.5819 8.81087 11.6006 8.77832 11.6151C8.76298 11.622 8.74173 11.631 8.71973 11.6396C8.70926 11.6436 8.68967 11.6517 8.66602 11.6591C8.65399 11.6628 8.63192 11.6687 8.60547 11.6747C8.58844 11.6786 8.52237 11.6942 8.4375 11.6942C8.35184 11.6942 8.28477 11.6784 8.26855 11.6747C8.24222 11.6687 8.22086 11.6628 8.20898 11.6591C8.18473 11.6515 8.16459 11.6436 8.1543 11.6396C8.13201 11.6309 8.11105 11.622 8.0957 11.6151C8.06299 11.6005 8.02456 11.582 7.9834 11.5614C7.8998 11.5197 7.78907 11.4609 7.66113 11.3876C7.4062 11.2416 7.06825 11.0296 6.72852 10.7646C6.39213 10.5021 6.03026 10.169 5.74707 9.77823C5.4655 9.38956 5.22679 8.89296 5.22656 8.32022C5.22656 7.26486 6.07884 6.09585 7.42676 6.09561C7.83253 6.09565 8.16726 6.20204 8.43652 6.34757C8.70595 6.20173 9.04197 6.09568 9.44824 6.09561ZM9.44824 7.59561C9.27229 7.5957 9.15012 7.65274 9.06445 7.72061L8.99023 7.78995C8.84826 7.94477 8.64758 8.03401 8.4375 8.03409C8.25332 8.03399 8.07589 7.9657 7.93945 7.84464L7.88379 7.78995C7.7984 7.69674 7.66098 7.59568 7.42676 7.59561C7.03966 7.59586 6.72656 7.95435 6.72656 8.32022C6.72679 8.46809 6.78957 8.6605 6.96191 8.89835C7.1332 9.13468 7.37818 9.3688 7.65137 9.58194C7.92115 9.79242 8.19669 9.96527 8.40723 10.0858C8.41723 10.0916 8.42785 10.096 8.4375 10.1015C8.44694 10.0961 8.45796 10.0914 8.46777 10.0858C8.6781 9.96538 8.95316 9.79212 9.22266 9.58194C9.49567 9.36894 9.74083 9.13452 9.91211 8.89835C10.0845 8.66046 10.1482 8.46811 10.1484 8.32022C10.1484 7.95434 9.83536 7.59584 9.44824 7.59561Z" fill="currentColor"/>
<path d="M10.499 2.03116C11.3217 1.85088 12.1172 2.47491 12.1172 3.33389V3.76163C13.1012 3.84505 13.874 4.66859 13.874 5.67471V12.1151C13.8736 13.1764 13.013 14.036 11.9521 14.036H4.92188C3.86126 14.0358 3.00046 13.1763 3 12.1151V4.53409C3 4.52881 3.00088 4.52277 3.00098 4.51749C3.0009 4.51314 3.00006 4.50819 3 4.50382C3 4.47593 3.00191 4.4479 3.00488 4.42081C3.05182 3.61991 3.59313 2.92742 4.36816 2.69424L4.50488 2.6669L10.499 2.03116ZM4.5 12.1151C4.50046 12.3468 4.6886 12.5358 4.92188 12.536H11.9521C12.1856 12.536 12.3736 12.3469 12.374 12.1151V5.67471C12.374 5.44261 12.1859 5.25382 11.9521 5.25382H4.5V12.1151ZM8.47949 3.75382H10.6172V3.52725L8.47949 3.75382Z" fill="currentColor"/>
</svg>
