<svg viewBox="0 0 24 24" fill="none" xmlns="http://www.w3.org/2000/svg">
<path d="M18.2334 6.18635C19.3952 5.73946 20.7185 6.10662 21.4834 7.0887L21.6387 7.30842L21.8047 7.57991C23.4579 10.3987 23.402 13.9171 21.6387 16.6893C20.8599 17.911 19.2847 18.3497 17.9873 17.7049L14.1094 15.7655C13.7793 15.9197 13.415 16.0034 13.04 16.0008L10.959 16.0018C10.5842 16.0042 10.2204 15.9198 9.89062 15.7655L6.01367 17.7039C4.71625 18.3492 3.14126 17.9121 2.3623 16.6903L2.36132 16.6893C0.541086 13.8277 0.540948 10.171 2.36132 7.3094L2.3623 7.30842L2.5166 7.0887C3.28167 6.10642 4.60557 5.73906 5.76757 6.18635L6.01367 6.29475L9.8916 8.23323C10.2211 8.07941 10.5847 7.99735 10.959 7.99983L13.04 7.99885C13.4147 7.99628 13.7795 8.07825 14.1094 8.23225L17.9873 6.29475L18.2334 6.18635ZM4.97656 8.02913C4.62914 7.93157 4.24951 8.06945 4.04882 8.38362L4.04785 8.38264C2.64449 10.5888 2.64494 13.4087 4.04785 15.6151C4.27707 15.9746 4.74128 16.1037 5.12304 15.9139L8.5 14.2235C8.3159 13.8301 8.18669 13.4185 8.10546 12.9998H7.08593C6.53382 12.9997 6.08602 12.552 6.08593 11.9998C6.08605 11.4477 6.53384 11 7.08593 10.9998H8.10546C8.18673 10.5806 8.31554 10.1682 8.5 9.77424L5.12304 8.08577L4.97656 8.02913ZM19.9512 8.38166C19.7216 8.02379 19.2589 7.89661 18.8779 8.08577L15.4971 9.77522C15.6817 10.1694 15.8161 10.5804 15.8975 10.9998H16.9141L17.0166 11.0057C17.5205 11.0572 17.914 11.4824 17.9141 11.9998C17.914 12.5174 17.5206 12.9435 17.0166 12.9949L16.9141 12.9998H15.8975C15.8163 13.4187 15.6813 13.8288 15.4971 14.2225L18.8809 15.9149C19.2621 16.1023 19.7236 15.9736 19.9521 15.6151C21.3551 13.4086 21.3547 10.5879 19.9512 8.38166ZM10.8301 10.0115C10.7189 10.0382 10.6191 10.1044 10.5508 10.199C9.82457 11.2896 9.82459 12.71 10.5508 13.8006C10.6425 13.9279 10.791 14.0035 10.9482 14.0018H13.0518L13.1689 13.9881C13.2817 13.9612 13.3817 13.8934 13.4502 13.7967C14.1734 12.7076 14.1736 11.292 13.4502 10.203C13.3817 10.1063 13.2817 10.0384 13.1689 10.0115L13.0518 9.99885H10.9482L10.8301 10.0115Z" fill="currentColor"/>
</svg>
