<svg viewBox="0 0 16 16" fill="none" xmlns="http://www.w3.org/2000/svg">
<path d="M13.1725 0.250101C13.7956 -0.0331021 14.5091 0.0189811 15.0833 0.389424C15.6569 0.759216 16 1.3878 16 2.07074V7.2628C16 7.94574 15.6569 8.57432 15.0833 8.94411C14.7539 9.15635 14.3789 9.26377 14.0013 9.26377C13.7207 9.26377 13.4382 9.2042 13.1725 9.08376L9.71318 7.51113C9.21078 7.81492 8.62866 8.0001 8 8.0001C7.3713 8.0001 6.78918 7.81492 6.28678 7.51109L2.82747 9.08344C2.56185 9.2042 2.2793 9.26377 1.9987 9.26377C1.62109 9.26377 1.24609 9.15635 0.916667 8.94411C0.343099 8.57432 0 7.94574 0 7.2628V2.07074C0 1.3878 0.343099 0.759216 0.916667 0.389424C1.49089 0.0189811 2.20443 -0.0331022 2.82747 0.249775L6.28682 1.82241C6.78923 1.51862 7.37134 1.33343 8 1.33343C8.6287 1.33343 9.21082 1.51862 9.71322 1.82245L13.1725 0.250101Z" fill="currentColor"/>
<path d="M8.00008 9.33342C8.59253 9.33342 9.18237 9.21492 9.73836 8.98706L11.3334 9.7122V15.7455L8.00008 14.0789L4.66675 15.7455V9.712L6.2618 8.98706C6.81779 9.21492 7.40828 9.33342 8.00008 9.33342Z" fill="currentColor"/>
</svg>
