<svg viewBox="0 0 24 24" fill="none" xmlns="http://www.w3.org/2000/svg">
<path d="M19.7588 0.374907C20.6934 -0.0498974 21.7637 0.0282276 22.625 0.583892C23.4854 1.13858 24 2.08145 24 3.10586V10.894C24 11.9184 23.4854 12.8612 22.625 13.4159C22.1309 13.7343 21.5684 13.8954 21.002 13.8954C20.5811 13.8954 20.1572 13.8061 19.7588 13.6254L14.5698 11.2664C13.8162 11.7221 12.943 11.9999 12 11.9999C11.0569 11.9999 10.1838 11.7221 9.43018 11.2664L4.24121 13.6249C3.84277 13.8061 3.41895 13.8954 2.99805 13.8954C2.43164 13.8954 1.86914 13.7343 1.375 13.4159C0.514648 12.8612 0 11.9184 0 10.894V3.10586C0 2.08145 0.514648 1.13858 1.375 0.583892C2.23633 0.0282276 3.30664 -0.0498974 4.24121 0.374419L9.43024 2.73337C10.1838 2.27768 11.057 1.99991 12 1.99991C12.9431 1.99991 13.8162 2.27768 14.5698 2.73343L19.7588 0.374907Z" fill="currentColor"/>
<path d="M12 14C12.8887 14 13.7734 13.8223 14.6074 13.4805L17 14.5682V23.6182L12 21.1182L7 23.6182V14.5679L9.39258 13.4805C10.2266 13.8223 11.1123 14 12 14Z" fill="currentColor"/>
</svg>
