<svg viewBox="0 0 32 32" fill="none" xmlns="http://www.w3.org/2000/svg">
<path d="M26.3451 0.499958C27.5911 -0.0664484 29.0182 0.0377181 30.1667 0.778604C31.3138 1.51819 32 2.77535 32 4.14123V14.5253C32 15.8912 31.3138 17.1484 30.1667 17.888C29.5078 18.3125 28.7578 18.5273 28.0026 18.5273C27.4414 18.5273 26.8763 18.4082 26.3451 18.1673L19.4264 15.022C18.4216 15.6296 17.2573 16 16 16C14.7426 16 13.5784 15.6296 12.5736 15.0219L5.65495 18.1666C5.1237 18.4082 4.55859 18.5273 3.9974 18.5273C3.24219 18.5273 2.49219 18.3125 1.83333 17.888C0.686198 17.1484 0 15.8912 0 14.5253V4.14123C0 2.77535 0.686198 1.51819 1.83333 0.778604C2.98177 0.0377181 4.40885 -0.0664485 5.65495 0.499307L12.5736 3.64457C13.5785 3.03699 14.7427 2.66662 16 2.66662C17.2574 2.66662 18.4216 3.03699 19.4264 3.64465L26.3451 0.499958Z" fill="currentColor"/>
<path d="M16.0002 18.6666C17.1851 18.6666 18.3647 18.4296 19.4767 17.9739L22.6668 19.4242V31.4908L16.0002 28.1575L9.3335 31.4908V19.4237L12.5236 17.9739C13.6356 18.4296 14.8166 18.6666 16.0002 18.6666Z" fill="currentColor"/>
</svg>
