<svg viewBox="0 0 16 16" fill="none" xmlns="http://www.w3.org/2000/svg">
<path d="M1.61208 4.67552C2.14449 3.99148 3.0658 3.73538 3.87477 4.04662L4.04665 4.12181L4.04762 4.12279L6.5945 5.39622C6.81534 5.29929 7.05724 5.24825 7.30544 5.24974L8.69313 5.24876C8.94142 5.24714 9.18321 5.30026 9.40407 5.3972L11.9529 4.12279L11.9539 4.12181L12.1257 4.04662C12.9345 3.73558 13.8551 3.99178 14.3875 4.67552L14.4959 4.82787L14.6082 5.01146C15.7261 6.91758 15.6884 9.29704 14.4959 11.1716C13.9536 12.0217 12.8568 12.3266 11.9539 11.8777L9.40016 10.6003C9.17997 10.6967 8.94051 10.7514 8.69313 10.7497L7.30544 10.7507C7.05816 10.7522 6.81858 10.6976 6.5984 10.6013L4.04762 11.8777C3.14474 12.3267 2.047 12.0226 1.50465 11.1726L1.50368 11.1716C0.272834 9.23666 0.272892 6.76383 1.50368 4.82884L1.50465 4.82787L1.61208 4.67552ZM13.2302 5.63255C13.1 5.43003 12.8376 5.35824 12.6218 5.46556L10.4392 6.55638C10.5383 6.78122 10.6142 7.01306 10.6648 7.24974H11.2761L11.3523 7.25365C11.7305 7.29193 12.0259 7.61155 12.0261 7.99974C12.026 8.38803 11.7305 8.70852 11.3523 8.74681L11.2761 8.74974H10.6638C10.6132 8.98634 10.5383 9.21833 10.4392 9.4431L12.6218 10.5349L12.7048 10.5671C12.9016 10.6223 13.1165 10.5438 13.2302 10.366L13.3923 10.0915C14.1458 8.69393 14.0913 6.98614 13.2302 5.63255ZM3.29567 5.43333C3.09856 5.37786 2.88303 5.45611 2.7693 5.63451L2.76833 5.63353C1.85031 7.07696 1.85055 8.92242 2.76833 10.366C2.89831 10.5695 3.16242 10.6424 3.37868 10.5349L5.55934 9.4431C5.46031 9.2183 5.38434 8.98637 5.33376 8.74974H4.72438C4.31025 8.74974 3.97452 8.41384 3.97438 7.99974C3.97463 7.58574 4.31032 7.24974 4.72438 7.24974H5.33376C5.38437 7.01313 5.46029 6.78116 5.55934 6.55638L3.37868 5.46556L3.29567 5.43333ZM7.23903 6.7556C7.20101 6.76478 7.16584 6.78344 7.13649 6.80931C7.1334 6.81211 7.12986 6.81438 7.12672 6.81712C7.11709 6.82657 7.10835 6.8372 7.10036 6.84837C6.87052 7.19492 6.75501 7.59337 6.75368 7.99193C6.7537 7.99445 6.75465 7.99722 6.75465 7.99974C6.75465 8.00202 6.7537 8.0043 6.75368 8.00658C6.75514 8.40439 6.87055 8.80201 7.09938 9.14818L7.13258 9.18724C7.13482 9.18924 7.1372 9.19107 7.13942 9.1931C7.18283 9.23042 7.23906 9.25128 7.29762 9.25072H8.70192L8.75954 9.24388C8.81424 9.2309 8.86241 9.19838 8.89626 9.15208C9.3603 8.45413 9.36152 7.54666 8.89821 6.84837C8.86435 6.80135 8.81477 6.76872 8.75954 6.7556L8.70192 6.74876H7.29762L7.23903 6.7556Z" fill="currentColor"/>
</svg>
