<svg viewBox="0 0 32 32" fill="none" xmlns="http://www.w3.org/2000/svg">
<path d="M24.1792 8.39373C25.7849 7.68754 27.6703 8.21076 28.6821 9.64373L28.7807 9.79021L29.0005 10.1496C31.189 13.8811 31.1152 18.5384 28.7807 22.2082C27.765 23.8012 25.7108 24.3736 24.019 23.5324L24.0171 23.5304L18.813 20.9279C18.3748 21.1392 17.889 21.2536 17.3882 21.2502V21.2521H14.6128V21.2502C14.1116 21.2537 13.6255 21.1394 13.187 20.9279L7.98386 23.5304L7.98093 23.5324C6.28919 24.3735 4.23482 23.8023 3.21921 22.2092C0.80947 18.4209 0.809364 13.5794 3.21921 9.79119L3.31784 9.64373C4.32975 8.21062 6.21582 7.68723 7.82175 8.39373L7.98093 8.46795L7.98386 8.46892L13.185 11.0705C13.6237 10.8585 14.1112 10.7457 14.6128 10.7492L17.3882 10.7482C17.8894 10.7448 18.3765 10.8587 18.8149 11.0705L24.019 8.46795L24.1792 8.39373ZM26.6714 11.132C26.3428 10.6191 25.6802 10.4343 25.1342 10.7043L25.1352 10.7053L20.5542 12.9943C20.826 13.557 21.0169 14.1478 21.1274 14.7502H22.5512L22.6792 14.757C23.3096 14.821 23.8012 15.3529 23.8012 16.0002C23.8012 16.6474 23.3095 17.1794 22.6792 17.2433L22.5512 17.2502H21.1274C21.0169 17.8519 20.8256 18.4419 20.5542 19.0041L25.1313 21.2931C25.6785 21.5652 26.3437 21.3806 26.6723 20.8654C28.5606 17.8961 28.5602 14.1011 26.6714 11.132ZM6.76413 10.6613C6.23963 10.4594 5.63602 10.6502 5.32761 11.132L5.32858 11.133C3.43982 14.102 3.43941 17.8961 5.32761 20.8654L5.39304 20.9582C5.71569 21.3727 6.27392 21.5278 6.76413 21.339L6.86765 21.2931L11.4448 19.0041C11.1735 18.4419 10.982 17.8519 10.8716 17.2502H9.4487C8.75839 17.2502 8.19877 16.6905 8.1987 16.0002C8.1987 15.3098 8.75835 14.7502 9.4487 14.7502H10.8725C10.9831 14.148 11.1731 13.5569 11.4448 12.9943L6.86765 10.7062L6.76413 10.6613ZM14.5092 13.2531C14.3057 13.2759 14.1192 13.3834 13.9985 13.5519C13.0104 15.0353 13.012 16.9676 14.0014 18.4504C14.1396 18.6415 14.3618 18.7546 14.5981 18.7521L14.6128 18.7512L17.4018 18.7521L17.4917 18.7472C17.6413 18.7303 17.7807 18.6669 17.8921 18.5676C17.8943 18.5655 17.8967 18.5637 17.8989 18.5617L17.9526 18.508C17.9696 18.4889 17.9854 18.4685 18.0005 18.4474C18.9881 16.9648 18.9884 15.0344 18.0005 13.5519C17.9717 13.5119 17.9392 13.4754 17.9038 13.4426C17.9002 13.4393 17.8966 13.436 17.893 13.4328C17.7815 13.3334 17.6415 13.27 17.4917 13.2531L17.4018 13.2482H14.5981L14.5092 13.2531Z" fill="currentColor"/>
</svg>
