<svg viewBox="0 0 24 24" fill="none" xmlns="http://www.w3.org/2000/svg">
<path d="M18.5635 2.00586C19.5191 2.06692 20.3929 2.58229 20.9082 3.39844L22.5371 5.97656C22.8397 6.45583 22.9999 7.01132 23 7.57812V10C23 11.1046 22.1046 12 21 12V20C21.5523 20 22 20.4477 22 21C22 21.5523 21.5523 22 21 22H3C2.44772 22 2 21.5523 2 21C2 20.4477 2.44772 20 3 20V12C1.89543 12 1 11.1046 1 10V7.57812L1.00781 7.36621C1.04277 6.87369 1.19907 6.39591 1.46387 5.97656L3.0918 3.39844L3.19922 3.23926C3.76099 2.46403 4.66289 2.00012 5.62793 2H18.3721L18.5635 2.00586ZM5 20H9V12H5V20ZM11 20H19V17H11V20ZM11 15H19V12H11V15ZM5.62793 4C5.32789 4.00011 5.04587 4.13445 4.85742 4.3623L4.7832 4.46582L3.1543 7.04492C3.05349 7.20467 3 7.3902 3 7.5791V10H21V7.57812L20.9902 7.4375C20.977 7.34476 20.9505 7.2544 20.9121 7.16895L20.8457 7.04492L19.2178 4.46582C19.0574 4.21191 18.7926 4.04543 18.499 4.00781L18.3721 4H5.62793Z" fill="currentColor"/>
</svg>
