<svg viewBox="0 0 32 32" fill="none" xmlns="http://www.w3.org/2000/svg">
<path d="M21.4609 0.756836C22.0913 0.820774 22.583 1.35274 22.583 2V6L22.5771 6.12793C22.5131 6.7582 21.9802 7.25 21.333 7.25H17.25V8.16797C21.0792 8.68822 24.2269 11.5669 25.0371 15.417H25.333C26.7596 15.417 27.9158 16.5734 27.916 18V26.75H29.334L29.4619 26.7559C30.0918 26.8202 30.5839 27.3532 30.584 28C30.5838 28.6468 30.0917 29.1788 29.4619 29.2432L29.334 29.25H2.66699C1.97674 29.25 1.41717 28.6902 1.41699 28C1.41712 27.3098 1.97672 26.75 2.66699 26.75H4.08301V18C4.08318 16.5736 5.23971 15.4174 6.66602 15.417H6.96191L6.99414 15.2607C7.85538 11.4888 10.9724 8.68122 14.75 8.16797V2L14.7568 1.87207C14.8209 1.24183 15.3528 0.75 16 0.75H21.333L21.4609 0.756836ZM22.584 26.75H25.416V18C25.4158 17.9541 25.3789 17.917 25.333 17.917H22.584V26.75ZM6.66602 17.917C6.62042 17.9174 6.58318 17.9544 6.58301 18V26.75H9.41699V17.917H6.66602ZM11.917 26.75H14.75V17.917H11.917V26.75ZM17.25 26.75H20.084V17.917H17.25V26.75ZM16 10.583C12.9857 10.583 10.3723 12.5792 9.53809 15.417H22.4619C21.6559 12.6749 19.1888 10.7187 16.3037 10.5898L16 10.583ZM17.25 4.75H20.083V3.25H17.25V4.75Z" fill="currentColor"/>
</svg>
