<svg viewBox="0 0 16 16" fill="none" xmlns="http://www.w3.org/2000/svg">
<path d="M10.7432 0.253906C11.1214 0.29223 11.417 0.611613 11.417 1V3L11.4131 3.07715C11.3745 3.45503 11.055 3.74984 10.667 3.75H8.75V3.97656C10.6345 4.27705 12.1799 5.69201 12.6201 7.58301H12.667C13.4491 7.58321 14.0839 8.21783 14.084 9V13.25H14.666L14.7432 13.2539C15.1212 13.2924 15.4159 13.6119 15.416 14C15.4159 14.3882 15.1212 14.7076 14.7432 14.7461L14.666 14.75H1.33301C0.919044 14.7498 0.58314 14.414 0.583008 14C0.583184 13.5861 0.919071 13.2502 1.33301 13.25H1.91699V9C1.91712 8.21771 2.55166 7.58301 3.33398 7.58301H3.37988C3.82007 5.69192 5.36541 4.27705 7.25 3.97656V1L7.25391 0.922852C7.29253 0.544882 7.61183 0.25 8 0.25H10.667L10.7432 0.253906ZM11.416 13.25H12.584V9.08301H11.416V13.25ZM3.41699 13.25H4.58301V9.08301H3.41699V13.25ZM6.08301 13.25H7.25V9.08301H6.08301V13.25ZM8.75 13.25H9.91602V9.08301H8.75V13.25ZM8 5.41699C6.60652 5.41699 5.39156 6.30296 4.94141 7.58301H11.0586C10.6401 6.39292 9.56062 5.54318 8.29102 5.42969L8 5.41699ZM8.75 2.25H9.91699V1.75H8.75V2.25Z" fill="currentColor"/>
</svg>
