<svg viewBox="0 0 16 16" fill="none" xmlns="http://www.w3.org/2000/svg">
<path d="M11.9583 1.32422C12.8259 1.32422 13.6417 1.79501 14.0374 2.57422L15.1809 4.8252L15.2473 4.96875C15.7651 6.18371 15.0704 7.44363 13.9368 7.86328V13.1768H14.6663L14.7434 13.1807C15.1215 13.2191 15.4161 13.5386 15.4163 13.9268C15.4161 14.3149 15.1214 14.6344 14.7434 14.6729L14.6663 14.6768H1.33328C0.919248 14.6767 0.583473 14.3408 0.583276 13.9268C0.583451 13.5127 0.919235 13.1768 1.33328 13.1768H2.06277V7.8623C0.885146 7.42568 0.180423 6.08232 0.818627 4.8252L1.96218 2.57422L2.04128 2.43164C2.46 1.73795 3.22803 1.32435 4.04128 1.32422H11.9583ZM8.00027 7.38379C7.54014 7.77994 6.92082 8.00977 6.29031 8.00977C5.66164 8.00967 5.04293 7.78276 4.58328 7.38867C4.29326 7.63565 3.94021 7.81613 3.56277 7.91699V13.1768H5.76882V10.9639C5.76882 9.73165 6.76805 8.73242 8.00027 8.73242C9.23238 8.73254 10.2317 9.73173 10.2317 10.9639V13.1768H12.4368V7.91699C12.0595 7.81632 11.706 7.63653 11.4163 7.38965C10.9568 7.78264 10.339 8.00977 9.71121 8.00977C9.08044 8.00956 8.46031 7.78039 8.00027 7.38379ZM8.00027 10.2324C7.59648 10.2324 7.26882 10.5601 7.26882 10.9639V13.1768H8.73171V10.9639C8.73171 10.5602 8.40395 10.2325 8.00027 10.2324ZM4.04128 2.82422C3.74809 2.82434 3.49614 2.96346 3.35378 3.16406L3.30007 3.25293L2.15652 5.50488C1.9492 5.91407 2.22946 6.50286 2.87038 6.50879C3.52153 6.50733 3.82722 6.08638 3.82937 5.81738V5.78516C3.82958 5.37135 4.1656 5.03552 4.57937 5.03516C4.96772 5.03516 5.28709 5.33075 5.32546 5.70898L5.32937 5.78516L5.34499 5.90234C5.4153 6.18384 5.73136 6.50961 6.29031 6.50977C6.92929 6.50977 7.25107 6.084 7.25124 5.78516C7.25146 5.37125 7.58734 5.03536 8.00124 5.03516C8.38951 5.03528 8.709 5.33081 8.74734 5.70898L8.75124 5.78516L8.76589 5.90234C8.83613 6.18379 9.15246 6.50944 9.71121 6.50977C10.3502 6.50977 10.672 6.084 10.6721 5.78516C10.6724 5.37132 11.0083 5.03547 11.4221 5.03516C11.8105 5.03516 12.1299 5.33075 12.1682 5.70898L12.1721 5.78516V5.81738C12.1723 6.08419 12.4765 6.50698 13.1292 6.50879C13.7309 6.50369 14.0154 5.98519 13.8772 5.58301L13.844 5.50488L12.6995 3.25293C12.5738 3.00558 12.2933 2.82422 11.9583 2.82422H4.04128Z" fill="currentColor"/>
</svg>
