<svg viewBox="0 0 24 24" fill="none" xmlns="http://www.w3.org/2000/svg">
<path d="M17.9375 2.11133C19.1942 2.11133 20.3722 2.79297 20.9434 3.91699L22.6602 7.29395L22.7559 7.5C23.5142 9.27856 22.4695 11.1318 20.7803 11.707V19.8896H22C22.5522 19.8896 22.9998 20.3375 23 20.8896C23 21.4419 22.5523 21.8896 22 21.8896H2C1.44772 21.8896 1 21.4419 1 20.8896C1.0002 20.3375 1.44784 19.8896 2 19.8896H3.21973V11.707C1.46612 11.1092 0.406714 9.1333 1.33984 7.29492L3.05469 3.91797L3.16895 3.71191C3.77346 2.71058 4.88324 2.11147 6.06152 2.11133H17.9375ZM12.001 10.9102C11.3287 11.5281 10.3939 11.8896 9.43555 11.8896C8.48051 11.8895 7.5486 11.5311 6.87695 10.917C6.41998 11.333 5.84146 11.6299 5.21973 11.7793V19.8896H8.77832V16.4443C8.77869 14.6655 10.2211 13.2228 12 13.2227C13.7789 13.2229 15.2223 14.6655 15.2227 16.4443V19.8896H18.7803V11.7783C18.1593 11.6292 17.5805 11.3344 17.124 10.9189C16.4525 11.5317 15.5214 11.8896 14.5674 11.8896C13.6087 11.8895 12.6731 11.5286 12.001 10.9102ZM12 15.2227C11.3257 15.2228 10.7787 15.77 10.7783 16.4443V19.8896H13.2227V16.4443C13.2223 15.7701 12.6743 15.2229 12 15.2227ZM6.06152 4.11133C5.58315 4.11146 5.16656 4.33797 4.92871 4.67285L4.83789 4.82324L3.12305 8.2002C2.76466 8.90667 3.26141 9.87924 4.30469 9.88867C5.33069 9.88689 5.86566 9.21756 5.86914 8.72656V8.67871C5.86914 8.1267 6.31723 7.67915 6.86914 7.67871C7.38693 7.67871 7.81308 8.07188 7.86426 8.57617L7.86914 8.67871L7.87598 8.78027C7.94115 9.29454 8.48962 9.88948 9.43555 9.88965C10.4447 9.88965 11.0014 9.21274 11.002 8.67871C11.002 8.12655 11.4498 7.67891 12.002 7.67871C12.5196 7.6789 12.9449 8.07201 12.9961 8.57617L13.0078 8.78027C13.073 9.29452 13.6215 9.88941 14.5674 9.88965C15.5766 9.88965 16.1333 9.21274 16.1338 8.67871C16.1338 8.12655 16.5817 7.67891 17.1338 7.67871C17.6515 7.67881 18.0778 8.07192 18.1289 8.57617L18.1338 8.67871V8.72656C18.1342 9.21489 18.6666 9.88623 19.6943 9.88867C20.6733 9.8807 21.1715 9.02528 20.9346 8.33594L20.877 8.2002L19.1611 4.82324C18.9501 4.40775 18.4845 4.11133 17.9375 4.11133H6.06152Z" fill="currentColor"/>
</svg>
