<svg viewBox="0 0 32 32" fill="none" xmlns="http://www.w3.org/2000/svg">
<path d="M24.3301 3.00781C25.5385 3.08527 26.644 3.73662 27.2959 4.76855L29.3682 8.05078L29.5039 8.28223C29.7994 8.83275 29.954 9.4496 29.9541 10.0771V13.1592C29.9541 14.5524 28.8249 15.6816 27.4316 15.6816H27.4092V25.9092H27.4316L27.5596 25.916C28.1898 25.98 28.6815 26.5121 28.6816 27.1592C28.6816 27.8064 28.1899 28.3383 27.5596 28.4023L27.4316 28.4092H4.52246C3.83238 28.4089 3.27251 27.8493 3.27246 27.1592C3.2726 26.4691 3.83244 25.9095 4.52246 25.9092H4.5459V15.6816H4.52246C3.12947 15.6814 2.00005 14.5522 2 13.1592V10.0771C2.00009 9.36002 2.20307 8.65716 2.58594 8.05078L4.6582 4.76855L4.79492 4.56738C5.50571 3.58683 6.64736 3.00008 7.86816 3H24.0869L24.3301 3.00781ZM7.0459 25.9092H12.1816V15.6816H7.0459V25.9092ZM14.6816 25.9092H24.9092V22.0459H14.6816V25.9092ZM14.6816 19.5459H24.9092V15.6816H14.6816V19.5459ZM7.86816 5.5C7.4793 5.50008 7.11331 5.67436 6.86914 5.96973L6.77246 6.10352L4.7002 9.38574C4.56957 9.59263 4.50009 9.83248 4.5 10.0771V13.1592C4.50001 13.164 4.50098 13.168 4.50098 13.168C4.50098 13.168 4.50417 13.1721 4.50684 13.1748C4.50963 13.1776 4.51281 13.1798 4.51465 13.1807C4.51465 13.1807 4.518 13.1816 4.52246 13.1816H27.4316C27.4368 13.1816 27.4404 13.1807 27.4404 13.1807C27.4404 13.1807 27.4453 13.1777 27.4482 13.1748C27.4508 13.1722 27.4531 13.168 27.4531 13.168C27.4531 13.168 27.4541 13.1643 27.4541 13.1592V10.0771L27.4414 9.89551C27.4243 9.77525 27.3906 9.65769 27.3408 9.54688L27.2549 9.38574L25.1826 6.10352C24.975 5.77487 24.6319 5.55955 24.252 5.51074L24.0869 5.5H7.86816Z" fill="currentColor"/>
</svg>
