<svg viewBox="0 0 32 32" fill="none" xmlns="http://www.w3.org/2000/svg">
<path d="M23.917 2.89746C25.5632 2.89746 27.1051 3.79116 27.8515 5.26074L30.1396 9.76367L30.2646 10.0322C31.2627 12.3737 29.8684 14.8208 27.624 15.5508V26.6035H29.334L29.4619 26.6094C30.0918 26.6738 30.5839 27.2066 30.584 27.8535C30.5838 28.5003 30.0917 29.0323 29.4619 29.0967L29.334 29.1035H2.66696C1.97671 29.1035 1.41713 28.5437 1.41696 27.8535C1.41702 27.1632 1.97664 26.6035 2.66696 26.6035H4.37692V15.5498C2.04672 14.7917 0.632509 12.1835 1.86129 9.76367L4.14743 5.26074L4.29684 4.99219C5.08716 3.68321 6.53869 2.89762 8.082 2.89746H23.917ZM16.0019 14.4336C15.119 15.2749 13.8684 15.7695 12.581 15.7695C11.298 15.7695 10.0503 15.2795 9.16793 14.4434C8.54662 15.0293 7.74281 15.4422 6.87692 15.6387V26.6035H11.7871V21.9268C11.7871 19.6005 13.6737 17.7139 16 17.7139C18.3262 17.714 20.2128 19.6005 20.2129 21.9268V26.6035H25.124V15.6396C24.2586 15.4435 23.4549 15.0307 22.834 14.4453C21.9517 15.28 20.7056 15.7695 19.4238 15.7695C18.1362 15.7695 16.8849 15.2752 16.0019 14.4336ZM16 20.2139C15.0544 20.2139 14.2871 20.9812 14.2871 21.9268V26.6035H17.7129V21.9268C17.7128 20.9812 16.9455 20.214 16 20.2139ZM8.082 5.39844C7.32345 5.39861 6.67326 5.80936 6.37692 6.39258L4.08981 10.8955C3.58042 11.8991 4.2931 13.2552 5.73825 13.2686C7.1403 13.2669 7.90599 12.3482 7.91012 11.6348V11.5713C7.91012 10.881 8.4698 10.3213 9.16012 10.3213C9.80718 10.3215 10.3393 10.8131 10.4033 11.4434L10.4101 11.5713L10.4189 11.7168C10.5111 12.4527 11.2874 13.2695 12.581 13.2695C13.9608 13.2695 14.7515 12.3406 14.7519 11.5713C14.7519 10.8811 15.3118 10.3216 16.0019 10.3213C16.6492 10.3213 17.1821 10.813 17.2461 11.4434L17.2519 11.5713L17.2617 11.7168C17.3538 12.4527 18.1301 13.2695 19.4238 13.2695C20.8035 13.2695 21.5942 12.3406 21.5947 11.5713C21.5947 10.8811 22.1545 10.3215 22.8447 10.3213C23.4919 10.3213 24.0249 10.813 24.0888 11.4434L24.0947 11.5713V11.6348C24.095 12.3451 24.8572 13.2665 26.2617 13.2686C27.7075 13.2558 28.4197 11.8994 27.9101 10.8955L25.623 6.39355C25.3267 5.81012 24.6758 5.39844 23.917 5.39844H8.082Z" fill="currentColor"/>
</svg>
