<svg viewBox="0 0 24 24" fill="none" xmlns="http://www.w3.org/2000/svg">
<path d="M16.1025 0.504883C16.6067 0.556214 17 0.982323 17 1.5V4.5C17 5.05228 16.5523 5.5 16 5.5H13V6.07227C15.8569 6.48328 18.2035 8.62936 18.8291 11.5H19C20.1046 11.5 21 12.3954 21 13.5V20H22C22.5523 20 23 20.4477 23 21C23 21.5523 22.5523 22 22 22H2C1.44772 22 1 21.5523 1 21C1 20.4477 1.44772 20 2 20H3V13.5C3 12.3954 3.89543 11.5 5 11.5H5.1709L5.18457 11.4316C5.83221 8.59517 8.16561 6.47998 11 6.07227V1.5L11.0049 1.39746C11.0562 0.893331 11.4823 0.5 12 0.5H16L16.1025 0.504883ZM17 20H19V13.5H17V20ZM5 20H7V13.5H5V20ZM9 20H11V13.5H9V20ZM13 20H15V13.5H13V20ZM12 8C9.79576 8 7.88043 9.44071 7.2373 11.5H16.7627C16.1415 9.51104 14.3334 8.09889 12.2246 8.00488L12 8ZM13 3.5H15V2.5H13V3.5Z" fill="currentColor"/>
</svg>
