<svg viewBox="0 0 16 16" fill="none" xmlns="http://www.w3.org/2000/svg">
<path d="M11.9141 2.01465C12.4543 2.08396 12.9412 2.39105 13.2363 2.8584L14.125 4.26465L14.1904 4.37695C14.3335 4.64377 14.4091 4.94299 14.4092 5.24707V6.56836C14.4089 7.21365 13.936 7.74732 13.3184 7.8457V11.8496C13.6324 11.9391 13.8633 12.2256 13.8633 12.5684C13.863 12.9562 13.5682 13.2758 13.1904 13.3145L13.1133 13.3184H3.2959C2.88189 13.3184 2.54623 12.9823 2.5459 12.5684C2.5459 12.2254 2.7765 11.9389 3.09082 11.8496V7.8457C2.47293 7.74751 2.0003 7.21381 2 6.56836V5.24707C2.00007 4.89938 2.0986 4.55866 2.28418 4.26465L3.17285 2.8584L3.31055 2.66797C3.6576 2.24816 4.17676 2 4.72949 2H11.6797L11.9141 2.01465ZM4.59082 11.8184H6.36328V7.86328H4.59082V11.8184ZM7.86328 11.8184H11.8184V10.5908H7.86328V11.8184ZM7.86328 9.09082H11.8184V7.86328H7.86328V9.09082ZM4.72949 3.5C4.64174 3.5 4.55853 3.53416 4.49609 3.59277L4.44043 3.65918L3.55273 5.06543C3.51844 5.11978 3.50007 5.18281 3.5 5.24707V6.36328H12.9092V5.24707L12.8955 5.15234L12.8564 5.06543L11.9688 3.65918C11.922 3.58513 11.8483 3.53232 11.7656 3.51074L11.6797 3.5H4.72949Z" fill="currentColor"/>
</svg>
