<svg viewBox="0 0 24 24" fill="none" xmlns="http://www.w3.org/2000/svg">
<path d="M12 3C14.7327 3 17.2413 3.85801 19.0684 5.28906C20.7833 6.6323 21.934 8.51913 21.9971 10.6689L21.9951 11.1025L21.9941 11.123C21.9829 11.3129 21.9439 11.4947 21.8838 11.666C22.5643 12.216 23 13.0569 23 14C23 15.0229 22.4867 15.9243 21.7051 16.4658C21.7682 16.6938 21.793 16.9321 21.7725 17.1709L21.7412 17.3926L21.3018 19.5879C21.0388 20.9025 19.9406 21.8722 18.626 21.9883L18.3604 22H5.63965C4.29907 22 3.13339 21.1129 2.76172 19.8467L2.69824 19.5879L2.25879 17.3926C2.19655 17.0814 2.21117 16.7644 2.29395 16.4658C1.51267 15.9243 1 15.0226 1 14C1 13.0574 1.43531 12.217 2.11523 11.667C2.07595 11.5552 2.04634 11.4386 2.02734 11.3184L2.00586 11.123C2.00546 11.1163 2.00514 11.1093 2.00488 11.1025C1.91502 8.77334 3.10242 6.72184 4.93164 5.28906C6.75872 3.85801 9.26735 3 12 3ZM4.65918 19.1963L4.67969 19.2822C4.80353 19.7044 5.19273 20 5.63965 20H18.3604L18.4492 19.9961C18.8872 19.9573 19.2531 19.6343 19.3408 19.1963L19.7803 17H14.2559L14.083 17.167L14.0752 17.1748C12.9107 18.2753 11.0893 18.2753 9.9248 17.1748L9.91699 17.167L9.74414 17H4.21973L4.65918 19.1963ZM11.2988 15.7207L11.375 15.7861C11.7684 16.0914 12.3321 16.0695 12.7012 15.7207L15.5225 13H8.47754L11.2988 15.7207ZM4 13C3.44772 13 3 13.4477 3 14C3 14.5523 3.44772 15 4 15H7.66992L5.59668 13H4ZM16.3301 15H20C20.5523 15 21 14.5523 21 14C21 13.4477 20.5523 13 20 13H18.4033L16.3301 15ZM12 5C9.67223 5 7.6082 5.73303 6.16504 6.86328C4.73177 7.98592 3.95239 9.45694 4.00293 11H19.9971C20.0476 9.45694 19.2682 7.98592 17.835 6.86328C16.3918 5.73303 14.3278 5 12 5Z" fill="currentColor"/>
</svg>
