<svg viewBox="0 0 16 16" fill="none" xmlns="http://www.w3.org/2000/svg">
<path d="M8 1.91602C9.83867 1.91602 11.5296 2.49434 12.7637 3.46094C13.922 4.36832 14.7051 5.64786 14.748 7.11035L14.7471 7.40527C14.7469 7.41 14.7464 7.4152 14.7461 7.41992C14.7393 7.53457 14.7168 7.64467 14.6846 7.75C15.1317 8.13205 15.4159 8.69877 15.416 9.33301C15.416 10.0217 15.0804 10.6303 14.5654 11.0098C14.5995 11.1545 14.6115 11.305 14.5986 11.4551L14.5762 11.6113L14.2832 13.0752C14.1005 13.9879 13.3375 14.6616 12.4248 14.7422L12.2402 14.75H3.75977C2.82889 14.75 2.01893 14.1341 1.76074 13.2549L1.7168 13.0752L1.42383 11.6113C1.3836 11.41 1.38873 11.2048 1.43457 11.0098C0.919376 10.6303 0.583008 10.0218 0.583008 9.33301C0.583105 8.69922 0.866857 8.13204 1.31348 7.75C1.29459 7.6882 1.27891 7.6248 1.26855 7.55957L1.25391 7.41992C1.25363 7.4152 1.25313 7.41 1.25293 7.40527C1.19178 5.82022 2.00083 4.42878 3.23633 3.46094C4.47038 2.49434 6.16132 1.91602 8 1.91602ZM3.1875 12.7812L3.2168 12.8799C3.3031 13.0998 3.51667 13.25 3.75977 13.25H12.2402L12.3428 13.2412C12.5753 13.1998 12.7647 13.0195 12.8125 12.7812L13.085 11.417H9.53711L9.44629 11.5049L9.44043 11.5098C8.63192 12.274 7.36808 12.274 6.55957 11.5098L6.55371 11.5049L6.46289 11.417H2.91406L3.1875 12.7812ZM7.58984 10.4199L7.68164 10.4912C7.908 10.6341 8.20863 10.6104 8.41016 10.4199L10.1416 8.75H5.8584L7.58984 10.4199ZM2.66602 8.75C2.34422 8.75031 2.08318 9.01118 2.08301 9.33301C2.08301 9.65498 2.34411 9.91668 2.66602 9.91699H4.90723L3.69727 8.75H2.66602ZM11.0928 9.91699H13.333C13.6552 9.91699 13.916 9.65517 13.916 9.33301C13.9159 9.05112 13.7161 8.81594 13.4502 8.76172L13.333 8.75H12.3027L11.0928 9.91699ZM8 3.41699C6.4649 3.41699 5.10726 3.90053 4.16113 4.6416C3.24734 5.35745 2.7474 6.28274 2.75098 7.25H13.249C13.2526 6.28274 12.7526 5.35744 11.8389 4.6416C10.8927 3.90053 9.5351 3.41699 8 3.41699Z" fill="currentColor"/>
</svg>
