<svg viewBox="0 0 32 32" fill="none" xmlns="http://www.w3.org/2000/svg">
<path d="M16 4.08301C19.6266 4.08301 22.953 5.22267 25.373 7.11816C27.72 8.9566 29.2637 11.5588 29.25 14.5137L29.2441 14.8008L29.2422 14.8262C29.2264 15.092 29.1695 15.3458 29.0801 15.583C29.9951 16.3001 30.584 17.4145 30.584 18.667C30.5839 20.024 29.8923 21.2183 28.8438 21.9209C28.9513 22.2774 28.9841 22.656 28.9307 23.0312L28.9062 23.1738L28.3213 26.1025C27.9662 27.8758 26.4462 29.1682 24.6543 29.2471L24.4805 29.251H7.51953C5.71112 29.251 4.14599 28.0138 3.7168 26.2725L3.67871 26.1025L3.09277 23.1738C3.00852 22.7524 3.03184 22.3217 3.15332 21.9199C2.1063 21.217 1.4171 20.0228 1.41699 18.667C1.41699 17.4146 2.0051 16.3001 2.91992 15.583C2.85926 15.4222 2.81284 15.2539 2.78516 15.0791L2.75781 14.8262L2.75586 14.8008C2.63729 11.7277 4.20431 9.01585 6.62695 7.11816C9.04705 5.22268 12.3734 4.08301 16 4.08301ZM5.62598 22.584C5.60114 22.5841 5.57728 22.595 5.56152 22.6143C5.5459 22.6335 5.54005 22.6593 5.54492 22.6836L6.12988 25.6113L6.16016 25.7334C6.33567 26.3313 6.88648 26.751 7.51953 26.751H24.4805L24.6055 26.7451C25.2263 26.6905 25.7448 26.232 25.8691 25.6113L26.4551 22.6836L26.4541 22.6475C26.4512 22.6357 26.4453 22.6239 26.4375 22.6143C26.4297 22.6048 26.42 22.5969 26.4092 22.5918L26.373 22.584L26.3545 22.583H18.9746L18.7188 22.8301L18.71 22.8389C17.1893 24.2762 14.8107 24.2762 13.29 22.8389L13.2812 22.8301L13.0254 22.583H5.64453L5.62598 22.584ZM15.0078 21.0215L15.1152 21.1143C15.6719 21.5463 16.47 21.5151 16.9922 21.0215L20.9023 17.251H11.0977L15.0078 21.0215ZM5.33398 17.25C4.55158 17.25 3.91699 17.8846 3.91699 18.667C3.91717 19.4492 4.55169 20.083 5.33398 20.083H10.4326L7.49609 17.251H5.3418L5.33398 17.25ZM26.6582 17.251H24.5039L21.5674 20.083H26.667C27.4492 20.0829 28.0838 19.4492 28.084 18.667C28.084 17.8847 27.4493 17.2501 26.667 17.25L26.6582 17.251ZM16 6.58398C12.8792 6.58398 10.1082 7.56718 8.16797 9.08691C6.23768 10.5991 5.18022 12.5881 5.25293 14.6816C5.25688 14.7193 5.28836 14.7483 5.32617 14.75H26.6738L26.6982 14.7451C26.7233 14.7353 26.7411 14.7123 26.7451 14.6846C26.8189 12.5899 25.7632 10.5998 23.832 9.08691C21.8918 7.56718 19.1208 6.58399 16 6.58398Z" fill="currentColor"/>
</svg>
