<svg viewBox="0 0 32 32" fill="none" xmlns="http://www.w3.org/2000/svg">
<path d="M18.6667 1.33325H13.3334C7.45208 1.33325 2.66675 6.11859 2.66675 11.9999H29.3334C29.3334 6.11859 24.5481 1.33325 18.6667 1.33325Z" fill="currentColor"/>
<path d="M2.66675 24V24.016C2.66675 27.692 5.64141 30.6733 9.31741 30.6827L22.6507 30.716C26.3387 30.7253 29.3334 27.7373 29.3334 24.0493V24H2.66675Z" fill="currentColor"/>
<path d="M25.3333 14.6667H28.364C30.372 14.6667 32 16.1587 32 18.0001C32 19.8414 30.372 21.3334 28.3627 21.3334H3.636C1.628 21.3334 0 19.8414 0 18.0001C0 16.1587 1.628 14.6667 3.636 14.6667H17.3333L21.3333 18.6667L25.3333 14.6667Z" fill="currentColor"/>
</svg>
