<svg viewBox="0 0 16 16" fill="none" xmlns="http://www.w3.org/2000/svg">
<path d="M9.33325 0.666748H6.66658C3.72592 0.666748 1.33325 3.05941 1.33325 6.00008H14.6666C14.6666 3.05941 12.2739 0.666748 9.33325 0.666748Z" fill="currentColor"/>
<path d="M1.33325 12V12.008C1.33325 13.846 2.82059 15.3367 4.65859 15.3413L11.3253 15.358C13.1693 15.3627 14.6666 13.8687 14.6666 12.0247V12H1.33325Z" fill="currentColor"/>
<path d="M12.6667 7.3335H14.182C15.186 7.3335 16 8.0795 16 9.00016C16 9.92083 15.186 10.6668 14.1813 10.6668H1.818C0.814 10.6668 0 9.92083 0 9.00016C0 8.0795 0.814 7.3335 1.818 7.3335H8.66667L10.6667 9.3335L12.6667 7.3335Z" fill="currentColor"/>
</svg>
