<svg viewBox="0 0 16 16" fill="none" xmlns="http://www.w3.org/2000/svg">
<path d="M12 0.666748C13.1046 0.666748 14 1.56218 14 2.66675V13.3334C14 14.438 13.1046 15.3334 12 15.3334H4C2.89543 15.3334 2 14.438 2 13.3334V2.66675C2 1.56218 2.89543 0.666748 4 0.666748H12ZM4 2.66675V6.66675H12V2.66675H4ZM8.66667 8.66675H7.33333V10.0067H8.66667V8.66675ZM8.66667 11.3334H7.33333V12.6734H8.66667V11.3334ZM6 11.3334H4.66667V12.6734H6V11.3334ZM11.3333 11.3334H10V12.6734H11.3333V11.3334ZM11.3333 8.66675H10V10.0067H11.3333V8.66675ZM6 8.66675H4.66667V10.0067H6V8.66675Z" fill="currentColor"/>
</svg>
