<svg viewBox="0 0 24 24" fill="none" xmlns="http://www.w3.org/2000/svg">
<path d="M16.875 12C18.739 12 20.25 13.511 20.25 15.375C20.25 17.239 18.739 18.75 16.875 18.75C15.011 18.75 13.5 17.239 13.5 15.375C13.5 13.511 15.011 12 16.875 12ZM16.875 14.0996C16.1708 14.0996 15.5996 14.6708 15.5996 15.375C15.5996 16.0792 16.1708 16.6504 16.875 16.6504C17.5792 16.6504 18.1504 16.0792 18.1504 15.375C18.1504 14.6708 17.5792 14.0996 16.875 14.0996Z" fill="currentColor"/>
<path d="M9.9375 18H7.3125L14.0625 6H16.6875L9.9375 18Z" fill="currentColor"/>
<path d="M7.125 5.25C8.98896 5.25 10.5 6.76104 10.5 8.625C10.5 10.489 8.98896 12 7.125 12C5.26104 12 3.75 10.489 3.75 8.625C3.75 6.76104 5.26104 5.25 7.125 5.25ZM7.125 7.34961C6.42084 7.34961 5.84961 7.92084 5.84961 8.625C5.84961 9.32916 6.42084 9.90039 7.125 9.90039C7.82916 9.90039 8.40039 9.32916 8.40039 8.625C8.40039 7.92084 7.82916 7.34961 7.125 7.34961Z" fill="currentColor"/>
</svg>
