<svg viewBox="0 0 16 16" fill="none" xmlns="http://www.w3.org/2000/svg">
<path d="M11.25 8C12.4926 8 13.5 9.00736 13.5 10.25C13.5 11.4926 12.4926 12.5 11.25 12.5C10.0074 12.5 9 11.4926 9 10.25C9 9.00736 10.0074 8 11.25 8ZM11.25 9.40039C10.7806 9.40039 10.4004 9.78056 10.4004 10.25C10.4004 10.7194 10.7806 11.0996 11.25 11.0996C11.7194 11.0996 12.0996 10.7194 12.0996 10.25C12.0996 9.78056 11.7194 9.40039 11.25 9.40039Z" fill="currentColor"/>
<path d="M6.625 12H4.875L9.375 4H11.125L6.625 12Z" fill="currentColor"/>
<path d="M4.75 3.5C5.99264 3.5 7 4.50736 7 5.75C7 6.99264 5.99264 8 4.75 8C3.50736 8 2.5 6.99264 2.5 5.75C2.5 4.50736 3.50736 3.5 4.75 3.5ZM4.75 4.90039C4.28056 4.90039 3.90039 5.28056 3.90039 5.75C3.90039 6.21944 4.28056 6.59961 4.75 6.59961C5.21944 6.59961 5.59961 6.21944 5.59961 5.75C5.59961 5.28056 5.21944 4.90039 4.75 4.90039Z" fill="currentColor"/>
</svg>
