<svg viewBox="0 0 32 32" fill="none" xmlns="http://www.w3.org/2000/svg">
<path d="M22.5 16C24.9853 16 27 18.0147 27 20.5C27 22.9853 24.9853 25 22.5 25C20.0147 25 18 22.9853 18 20.5C18 18.0147 20.0147 16 22.5 16ZM22.5 18.7998C21.5611 18.7998 20.7998 19.5611 20.7998 20.5C20.7998 21.4389 21.5611 22.2002 22.5 22.2002C23.4389 22.2002 24.2002 21.4389 24.2002 20.5C24.2002 19.5611 23.4389 18.7998 22.5 18.7998Z" fill="currentColor"/>
<path d="M13.25 24H9.75L18.75 8H22.25L13.25 24Z" fill="currentColor"/>
<path d="M9.5 7C11.9853 7 14 9.01472 14 11.5C14 13.9853 11.9853 16 9.5 16C7.01472 16 5 13.9853 5 11.5C5 9.01472 7.01472 7 9.5 7ZM9.5 9.7998C8.56112 9.7998 7.7998 10.5611 7.7998 11.5C7.7998 12.4389 8.56112 13.2002 9.5 13.2002C10.4389 13.2002 11.2002 12.4389 11.2002 11.5C11.2002 10.5611 10.4389 9.7998 9.5 9.7998Z" fill="currentColor"/>
</svg>
