<svg viewBox="0 0 32 32" fill="none" xmlns="http://www.w3.org/2000/svg">
<path d="M12.1279 23.0898C12.7582 23.1539 13.25 23.6868 13.25 24.334C13.2497 24.9809 12.758 25.5131 12.1279 25.5771L12 25.584H6.66699C5.97685 25.584 5.41734 25.024 5.41699 24.334C5.41699 23.6436 5.97664 23.084 6.66699 23.084H12L12.1279 23.0898Z" fill="currentColor"/>
<path d="M23.6631 19.5693C24.1512 19.0816 24.9426 19.0814 25.4307 19.5693C25.9186 20.0574 25.9184 20.8487 25.4307 21.3369L24.4346 22.333L25.4307 23.3291L25.5166 23.4238C25.9172 23.9147 25.888 24.6389 25.4307 25.0967C24.973 25.5544 24.2488 25.5832 23.7578 25.1826L23.6631 25.0967L22.667 24.1006L21.6709 25.0967C21.1828 25.5848 20.3915 25.5848 19.9033 25.0967C19.4153 24.6085 19.4152 23.8172 19.9033 23.3291L20.8994 22.333L19.9033 21.3369L19.8174 21.2422C19.4169 20.7512 19.4457 20.027 19.9033 19.5693C20.361 19.112 21.0853 19.083 21.5762 19.4834L21.6709 19.5693L22.667 20.5654L23.6631 19.5693Z" fill="currentColor"/>
<path d="M12.1279 19.0898C12.7582 19.1539 13.25 19.6868 13.25 20.334C13.2497 20.9809 12.758 21.5131 12.1279 21.5771L12 21.584H6.66699C5.97685 21.584 5.41734 21.024 5.41699 20.334C5.41699 19.6436 5.97664 19.084 6.66699 19.084H12L12.1279 19.0898Z" fill="currentColor"/>
<path d="M22.667 6.41699C23.3572 6.41717 23.917 6.97674 23.917 7.66699V9.08398H25.333L25.4609 9.08984C26.0914 9.15377 26.583 9.68671 26.583 10.334C26.5827 10.981 26.0911 11.5132 25.4609 11.5771L25.333 11.584H23.917V13C23.9168 13.6901 23.3571 14.2498 22.667 14.25C21.9767 14.25 21.4172 13.6902 21.417 13V11.584H20C19.3099 11.584 18.7504 11.024 18.75 10.334C18.75 9.64363 19.3096 9.08398 20 9.08398H21.417V7.66699C21.417 6.97664 21.9766 6.41699 22.667 6.41699Z" fill="currentColor"/>
<path d="M12.1279 9.08984C12.7582 9.15392 13.25 9.68682 13.25 10.334C13.2497 10.9809 12.758 11.5131 12.1279 11.5771L12 11.584H6.66699C5.97685 11.584 5.41734 11.024 5.41699 10.334C5.41699 9.64363 5.97664 9.08398 6.66699 9.08398H12L12.1279 9.08984Z" fill="currentColor"/>
</svg>
