<svg viewBox="0 0 24 24" fill="none" xmlns="http://www.w3.org/2000/svg">
<path d="M9 17.25C9.55228 17.25 10 17.6977 10 18.25C10 18.8023 9.55228 19.25 9 19.25H5C4.44772 19.25 4 18.8023 4 18.25C4 17.6977 4.44772 17.25 5 17.25H9Z" fill="currentColor"/>
<path d="M17.7031 14.6328C18.0936 14.2425 18.7267 14.2425 19.1172 14.6328C19.5075 15.0233 19.5075 15.6564 19.1172 16.0469L18.4141 16.75L19.1172 17.4531L19.1855 17.5283C19.5061 17.9211 19.4834 18.501 19.1172 18.8672C18.751 19.2334 18.1711 19.2561 17.7783 18.9355L17.7031 18.8672L17 18.1641L16.2969 18.8672C15.9064 19.2575 15.2733 19.2575 14.8828 18.8672C14.4925 18.4767 14.4925 17.8436 14.8828 17.4531L15.5859 16.75L14.8828 16.0469L14.8145 15.9707C14.4942 15.5779 14.5167 14.9989 14.8828 14.6328C15.2489 14.2667 15.8279 14.2442 16.2207 14.5645L16.2969 14.6328L17 15.3359L17.7031 14.6328Z" fill="currentColor"/>
<path d="M9 14.25C9.55228 14.25 10 14.6977 10 15.25C10 15.8023 9.55228 16.25 9 16.25H5C4.44772 16.25 4 15.8023 4 15.25C4 14.6977 4.44772 14.25 5 14.25H9Z" fill="currentColor"/>
<path d="M17 4.75C17.5523 4.75 18 5.19772 18 5.75V6.75H19C19.5523 6.75 20 7.19772 20 7.75C20 8.30228 19.5523 8.75 19 8.75H18V9.75C18 10.3023 17.5523 10.75 17 10.75C16.4477 10.75 16 10.3023 16 9.75V8.75H15C14.4477 8.75 14 8.30228 14 7.75C14 7.19772 14.4477 6.75 15 6.75H16V5.75C16 5.19772 16.4477 4.75 17 4.75Z" fill="currentColor"/>
<path d="M9 6.75C9.55228 6.75 10 7.19772 10 7.75C10 8.30228 9.55228 8.75 9 8.75H5C4.44772 8.75 4 8.30228 4 7.75C4 7.19772 4.44772 6.75 5 6.75H9Z" fill="currentColor"/>
</svg>
