<svg viewBox="0 0 16 16" fill="none" xmlns="http://www.w3.org/2000/svg">
<path d="M6.07617 11.4199C6.45425 11.4582 6.74967 11.7779 6.75 12.166C6.75 12.5544 6.45443 12.8738 6.07617 12.9121L6 12.916H3.33301C2.91894 12.9158 2.58301 12.5801 2.58301 12.166C2.58336 11.7522 2.91916 11.4162 3.33301 11.416H6L6.07617 11.4199Z" fill="currentColor"/>
<path d="M11.7432 9.69629C12.0361 9.40361 12.5109 9.40352 12.8037 9.69629C13.0965 9.98912 13.0964 10.4639 12.8037 10.7568L12.3936 11.166L12.8037 11.5762L12.8555 11.6328C13.0958 11.9273 13.0782 12.3621 12.8037 12.6367C12.5291 12.9113 12.0944 12.9288 11.7998 12.6885L11.7432 12.6367L11.333 12.2266L10.9238 12.6367C10.6309 12.9296 10.1562 12.9296 9.86328 12.6367C9.57045 12.3438 9.57041 11.869 9.86328 11.5762L10.2725 11.166L9.86328 10.7568L9.81152 10.7002C9.57121 10.4056 9.58868 9.97089 9.86328 9.69629C10.1379 9.42187 10.5727 9.40428 10.8672 9.64453L10.9238 9.69629L11.333 10.1055L11.7432 9.69629Z" fill="currentColor"/>
<path d="M6.07617 9.41992C6.45425 9.45821 6.74967 9.77791 6.75 10.166C6.75 10.5544 6.45443 10.8738 6.07617 10.9121L6 10.916H3.33301C2.91894 10.9158 2.58301 10.5801 2.58301 10.166C2.58336 9.75221 2.91916 9.41619 3.33301 9.41602H6L6.07617 9.41992Z" fill="currentColor"/>
<path d="M11.333 3.08301C11.7471 3.08301 12.0828 3.41894 12.083 3.83301V4.41602H12.667L12.7432 4.41992C13.1212 4.45821 13.4167 4.77791 13.417 5.16602C13.417 5.55438 13.1214 5.87375 12.7432 5.91211L12.667 5.91602H12.083V6.5C12.0828 6.91406 11.7471 7.25 11.333 7.25C10.9448 7.24984 10.6252 6.95436 10.5869 6.57617L10.583 6.5V5.91602H10C9.58579 5.91602 9.25 5.58023 9.25 5.16602C9.25035 4.7521 9.586 4.41602 10 4.41602H10.583V3.83301C10.5832 3.41905 10.9191 3.08318 11.333 3.08301Z" fill="currentColor"/>
<path d="M6.07617 4.41992C6.45425 4.45821 6.74967 4.77791 6.75 5.16602C6.75 5.55439 6.45443 5.87377 6.07617 5.91211L6 5.91602H3.33301C2.91894 5.91584 2.58301 5.58012 2.58301 5.16602C2.58336 4.75221 2.91916 4.41619 3.33301 4.41602H6L6.07617 4.41992Z" fill="currentColor"/>
</svg>
