<svg viewBox="0 0 32 32" fill="none" xmlns="http://www.w3.org/2000/svg">
<path d="M24 1.33325C26.2092 1.33325 28 3.12412 28 5.33325V26.6666C28 28.8758 26.2092 30.6666 24 30.6666H8C5.79085 30.6666 4 28.8758 4 26.6666V5.33325C4 3.12412 5.79087 1.33325 8 1.33325H24ZM8 5.33325V13.3333H24V5.33325H8ZM17.3333 17.3333H14.6667V20.0133H17.3333V17.3333ZM17.3333 22.6666H14.6667V25.3466H17.3333V22.6666ZM12 22.6666H9.33333V25.3466H12V22.6666ZM22.6667 22.6666H20V25.3466H22.6667V22.6666ZM22.6667 17.3333H20V20.0133H22.6667V17.3333ZM12 17.3333H9.33333V20.0133H12V17.3333Z" fill="currentColor"/>
</svg>
