<svg viewBox="0 0 16 16" fill="none" xmlns="http://www.w3.org/2000/svg">
<path d="M11.0771 9.91992C11.4549 9.95851 11.7497 10.2781 11.75 10.666C11.75 11.0542 11.4551 11.3735 11.0771 11.4121L11 11.416H5C4.58579 11.416 4.25 11.0802 4.25 10.666C4.25031 10.2521 4.58598 9.91602 5 9.91602H11L11.0771 9.91992Z" fill="currentColor"/>
<path d="M11 1.25C11.4141 1.25013 11.75 1.58587 11.75 2V2.25H12C13.5188 2.25 14.75 3.48122 14.75 5V12C14.75 13.5188 13.5188 14.75 12 14.75H4C2.48122 14.75 1.25 13.5188 1.25 12V5C1.25 3.48122 2.48122 2.25 4 2.25H4.25V2C4.25 1.58589 4.58594 1.25018 5 1.25C5.4141 1.25013 5.75 1.58587 5.75 2V2.25H7.25V2C7.25 1.58589 7.58594 1.25018 8 1.25C8.4141 1.25013 8.75 1.58587 8.75 2V2.25H10.25V2C10.25 1.58589 10.5859 1.25018 11 1.25ZM4 3.75C3.30964 3.75 2.75 4.30964 2.75 5V12C2.75 12.6904 3.30964 13.25 4 13.25H12C12.6904 13.25 13.25 12.6904 13.25 12V5C13.25 4.30964 12.6904 3.75 12 3.75H11.75V4C11.75 4.41413 11.4141 4.74987 11 4.75C10.5859 4.74982 10.25 4.4141 10.25 4V3.75H8.75V4C8.75 4.41413 8.4141 4.74987 8 4.75C7.58594 4.74982 7.25 4.4141 7.25 4V3.75H5.75V4C5.75 4.41413 5.4141 4.74987 5 4.75C4.58594 4.74982 4.25 4.4141 4.25 4V3.75H4Z" fill="currentColor"/>
</svg>
