<svg viewBox="0 0 24 24" fill="none" xmlns="http://www.w3.org/2000/svg">
<path d="M16.5 15C17.0523 15 17.5 15.4477 17.5 16C17.5 16.5523 17.0523 17 16.5 17H7.5C6.94772 17 6.5 16.5523 6.5 16C6.5 15.4477 6.94772 15 7.5 15H16.5Z" fill="currentColor"/>
<path d="M16.5 2C17.0523 2 17.5 2.44772 17.5 3V3.5H18C20.2091 3.5 22 5.29086 22 7.5V18C22 20.2091 20.2091 22 18 22H6C3.79086 22 2 20.2091 2 18V7.5C2 5.29086 3.79086 3.5 6 3.5H6.5V3C6.5 2.44772 6.94772 2 7.5 2C8.05228 2 8.5 2.44772 8.5 3V3.5H11V3C11 2.44772 11.4477 2 12 2C12.5523 2 13 2.44772 13 3V3.5H15.5V3C15.5 2.44772 15.9477 2 16.5 2ZM6 5.5C4.89543 5.5 4 6.39543 4 7.5V18C4 19.1046 4.89543 20 6 20H18C19.1046 20 20 19.1046 20 18V7.5C20 6.39543 19.1046 5.5 18 5.5H17.5V6C17.5 6.55228 17.0523 7 16.5 7C15.9477 7 15.5 6.55228 15.5 6V5.5H13V6C13 6.55228 12.5523 7 12 7C11.4477 7 11 6.55228 11 6V5.5H8.5V6C8.5 6.55228 8.05228 7 7.5 7C6.94772 7 6.5 6.55228 6.5 6V5.5H6Z" fill="currentColor"/>
</svg>
