<svg viewBox="0 0 32 32" fill="none" xmlns="http://www.w3.org/2000/svg">
<path d="M22.1367 20.0068C22.8089 20.0753 23.333 20.6438 23.333 21.334C23.3326 22.0238 22.8086 22.5917 22.1367 22.6602L22 22.667H10C9.26389 22.667 8.66743 22.07 8.66699 21.334C8.66699 20.5976 9.26362 20 10 20H22L22.1367 20.0068Z" fill="currentColor"/>
<path d="M22.001 2.66699C22.737 2.66743 23.334 3.26389 23.334 4V4.66699H24C26.9455 4.66699 29.333 7.05448 29.333 10V24C29.333 26.9455 26.9455 29.333 24 29.333H8C5.05448 29.333 2.66699 26.9455 2.66699 24V10C2.66699 7.05448 5.05448 4.66699 8 4.66699H8.66699V4C8.66699 3.26362 9.2646 2.66699 10.001 2.66699C10.737 2.66743 11.334 3.26389 11.334 4V4.66699H14.667V4C14.667 3.26362 15.2646 2.66699 16.001 2.66699C16.737 2.66743 17.334 3.26389 17.334 4V4.66699H20.667V4C20.667 3.26362 21.2646 2.66699 22.001 2.66699ZM8 7.33301C6.52724 7.33301 5.33301 8.52724 5.33301 10V24C5.33301 25.4728 6.52724 26.667 8 26.667H24C25.4728 26.667 26.667 25.4728 26.667 24V10C26.667 8.52724 25.4728 7.33301 24 7.33301H23.334V8C23.334 8.73611 22.737 9.33257 22.001 9.33301C21.2646 9.33301 20.667 8.73638 20.667 8V7.33301H17.334V8C17.334 8.73611 16.737 9.33257 16.001 9.33301C15.2646 9.33301 14.667 8.73638 14.667 8V7.33301H11.334V8C11.334 8.73611 10.737 9.33257 10.001 9.33301C9.2646 9.33301 8.66699 8.73638 8.66699 8V7.33301H8Z" fill="currentColor"/>
</svg>
