<svg viewBox="0 0 24 24" fill="none" xmlns="http://www.w3.org/2000/svg">
<path d="M8.24987 13C8.80216 13 9.24987 13.4477 9.24987 14C9.24987 14.5523 8.80216 15 8.24987 15H5.74987C5.19766 14.9999 4.74987 14.5522 4.74987 14C4.74987 13.4478 5.19766 13.0001 5.74987 13H8.24987Z" fill="currentColor"/>
<path d="M18.2499 13C18.8022 13 19.2499 13.4477 19.2499 14C19.2499 14.5523 18.8022 15 18.2499 15H15.7499C15.1977 14.9999 14.7499 14.5522 14.7499 14C14.7499 13.4478 15.1977 13.0001 15.7499 13H18.2499Z" fill="currentColor"/>
<path d="M16.0917 3C17.6456 3 18.999 4.02134 19.4423 5.48438L19.5184 5.78223L20.1171 8.64746L21.6434 8.06543L21.7401 8.03418C22.2296 7.90196 22.7497 8.15975 22.9344 8.64355C23.1189 9.12715 22.9027 9.66491 22.4501 9.89258L22.3563 9.93457L21.8016 10.1455C22.5411 10.8713 22.9999 11.8819 22.9999 13V18.75C22.9999 19.9923 21.9922 21 20.7499 21H18.4999C17.1197 20.9999 15.9999 19.8802 15.9999 18.5H7.99987C7.99987 19.8803 6.88016 21 5.49987 21H3.24987C2.00766 20.9999 0.999873 19.9922 0.999873 18.75V13C0.999873 11.8817 1.45945 10.8714 2.19909 10.1455L1.6444 9.93457L1.55065 9.89355C1.09766 9.66643 0.881345 9.12842 1.0653 8.64453C1.24933 8.16071 1.76825 7.90297 2.25769 8.03418L2.35534 8.06543L3.91296 8.65723L4.60437 5.70312C4.97425 4.11978 6.38654 3.0002 8.01159 3H16.0917ZM4.99987 11C3.89523 11.0001 2.99987 11.8953 2.99987 13V18.75C2.99987 18.8877 3.11223 18.9999 3.24987 19H5.49987C5.77559 19 5.99987 18.7757 5.99987 18.5V17.5C5.99987 16.9478 6.44766 16.5001 6.99987 16.5H16.9999C17.5522 16.5 17.9999 16.9477 17.9999 17.5V18.5C17.9999 18.7757 18.2242 18.9999 18.4999 19H20.7499C20.8876 19 20.9999 18.8877 20.9999 18.75V13C20.9999 11.8953 20.1046 11 18.9999 11H4.99987ZM8.01159 5C7.35889 5.00019 6.78635 5.42199 6.58679 6.0332L6.55163 6.1582L5.88757 9H18.1483L17.5614 6.19336L17.5282 6.06543C17.338 5.43779 16.7577 5 16.0917 5H8.01159Z" fill="currentColor"/>
</svg>
