<svg viewBox="0 0 24 24" fill="none" xmlns="http://www.w3.org/2000/svg">
<g clip-path="url(#clip0_1_1100)">
<path d="M21.913 9.50002L23.121 10.707C23.4006 10.9848 23.6222 11.3153 23.7731 11.6794C23.924 12.0435 24.0011 12.4339 24 12.828V18C24 18.2652 23.8947 18.5196 23.7071 18.7071C23.5196 18.8947 23.2652 19 23 19H1.00001C0.734796 19 0.480442 18.8947 0.292905 18.7071C0.105369 18.5196 1.20795e-05 18.2652 1.20795e-05 18V12.828C-0.0011104 12.4339 0.0760072 12.0435 0.226895 11.6794C0.377782 11.3153 0.599437 10.9848 0.879012 10.707L2.08701 9.50002L3.67601 2.35002C3.82071 1.68276 4.19001 1.08536 4.7222 0.657643C5.2544 0.229924 5.91725 -0.00221384 6.60001 1.59145e-05H17.4C18.0828 -0.00221384 18.7456 0.229924 19.2778 0.657643C19.81 1.08536 20.1793 1.68276 20.324 2.35002L21.913 9.50002ZM5.97579 2.21993C5.79895 2.36239 5.67622 2.56111 5.62801 2.78302L4.24601 9.00002H19.754L18.376 2.78302C18.3277 2.56043 18.2043 2.36121 18.0267 2.21867C17.849 2.07614 17.6278 1.99895 17.4 2.00002H6.60001C6.37293 1.99987 6.15264 2.07748 5.97579 2.21993ZM3.66666 15.7472C3.91333 15.912 4.20334 16 4.50001 16C4.89784 16 5.27937 15.842 5.56067 15.5607C5.84198 15.2794 6.00001 14.8978 6.00001 14.5C6.00001 14.2033 5.91204 13.9133 5.74722 13.6667C5.58239 13.42 5.34813 13.2277 5.07404 13.1142C4.79995 13.0007 4.49835 12.971 4.20738 13.0288C3.9164 13.0867 3.64913 13.2296 3.43935 13.4394C3.22957 13.6491 3.08671 13.9164 3.02883 14.2074C2.97096 14.4984 3.00066 14.8 3.11419 15.074C3.22772 15.3481 3.41998 15.5824 3.66666 15.7472ZM18.6667 15.7472C18.9133 15.912 19.2033 16 19.5 16C19.8978 16 20.2794 15.842 20.5607 15.5607C20.842 15.2794 21 14.8978 21 14.5C21 14.2033 20.912 13.9133 20.7472 13.6667C20.5824 13.42 20.3481 13.2277 20.074 13.1142C19.7999 13.0007 19.4983 12.971 19.2074 13.0288C18.9164 13.0867 18.6491 13.2296 18.4394 13.4394C18.2296 13.6491 18.0867 13.9164 18.0288 14.2074C17.971 14.4984 18.0007 14.8 18.1142 15.074C18.2277 15.3481 18.42 15.5824 18.6667 15.7472Z" fill="currentColor"/>
<path d="M7 21H1V23C1 23.2652 1.10536 23.5196 1.29289 23.7071C1.48043 23.8946 1.73478 24 2 24H6C6.26522 24 6.51957 23.8946 6.70711 23.7071C6.89464 23.5196 7 23.2652 7 23V21Z" fill="currentColor"/>
<path d="M23 21H17V23C17 23.2652 17.1054 23.5196 17.2929 23.7071C17.4804 23.8946 17.7348 24 18 24H22C22.2652 24 22.5196 23.8946 22.7071 23.7071C22.8946 23.5196 23 23.2652 23 23V21Z" fill="currentColor"/>
</g>
<defs>
<clipPath id="clip0_1_1100">
<rect fill="white"/>
</clipPath>
</defs>
</svg>
