<svg viewBox="0 0 32 32" fill="none" xmlns="http://www.w3.org/2000/svg">
<path d="M11.1526 17.1748C11.9092 17.2515 12.4993 17.8902 12.4993 18.667C12.4992 19.4436 11.9091 20.0826 11.1526 20.1592L10.9993 20.167H7.66632C6.83813 20.1668 6.1665 19.4952 6.16632 18.667C6.16632 17.8387 6.83803 17.1671 7.66632 17.167H10.9993L11.1526 17.1748Z" fill="currentColor"/>
<path d="M24.4866 17.1748C25.243 17.2516 25.8333 17.8904 25.8333 18.667C25.8331 19.4435 25.2429 20.0824 24.4866 20.1592L24.3333 20.167H21.0003C20.172 20.167 19.5005 19.4953 19.5003 18.667C19.5003 17.8386 20.1719 17.167 21.0003 17.167H24.3333L24.4866 17.1748Z" fill="currentColor"/>
<path d="M21.6692 3.83789C23.7957 3.93091 25.6126 5.40766 26.14 7.46777L26.1878 7.67578L26.9466 11.3047L28.7982 10.5986L28.9446 10.5508C29.6785 10.3531 30.4577 10.7396 30.7347 11.4648C31.0115 12.1903 30.6881 12.9983 30.0091 13.3398L29.8685 13.4014L29.3646 13.5928C30.2757 14.5742 30.8332 15.8882 30.8333 17.333V25C30.8331 26.7483 29.4146 28.166 27.6663 28.166H24.6663C22.7899 28.1659 21.2583 26.688 21.1712 24.833H10.8284C10.7414 26.688 9.20971 28.1658 7.33331 28.166H4.33331C2.58513 28.1659 1.1665 26.7482 1.16632 25V17.333C1.1664 15.8885 1.7234 14.5741 2.63409 13.5928L2.13312 13.4023L1.99249 13.3398C1.31318 12.9991 0.98809 12.1925 1.26398 11.4668C1.53994 10.741 2.31888 10.3541 3.05304 10.5508L3.19952 10.5977L5.09894 11.3193L5.97687 7.56641L6.02862 7.36328C6.60953 5.28438 8.5086 3.83301 10.6829 3.83301H21.4564L21.6692 3.83789ZM6.66632 14.833C5.28565 14.8332 4.1665 15.9523 4.16632 17.333V25C4.1665 25.0913 4.24198 25.1659 4.33331 25.166H7.33331C7.60874 25.1658 7.83331 24.9415 7.83331 24.666V23.333C7.83349 22.5048 8.50513 21.8332 9.33331 21.833H22.6663C23.4946 21.833 24.1661 22.5047 24.1663 23.333V24.666C24.1663 24.9415 24.3909 25.1659 24.6663 25.166H27.6663C27.7578 25.166 27.8331 25.0914 27.8333 25V17.333C27.8331 15.9524 26.714 14.8332 25.3333 14.833H6.66632ZM10.6829 6.83301C9.88508 6.83301 9.18476 7.34875 8.94073 8.0957L8.89777 8.24902L8.05987 11.833H23.9925L23.2513 8.29102C23.0834 7.49523 22.4152 6.90987 21.6175 6.83984L21.4564 6.83301H10.6829Z" fill="currentColor"/>
</svg>
