<svg viewBox="0 0 16 16" fill="none" xmlns="http://www.w3.org/2000/svg">
<g clip-path="url(#clip0_1_1108)">
<path d="M14.6087 6.33334L15.414 7.13801C15.6004 7.3232 15.7482 7.54354 15.8488 7.78627C15.9493 8.02899 16.0008 8.28927 16 8.55201V12C16 12.1768 15.9298 12.3464 15.8047 12.4714C15.6797 12.5964 15.5102 12.6667 15.3333 12.6667H0.666675C0.489864 12.6667 0.320294 12.5964 0.19527 12.4714C0.070246 12.3464 8.05299e-06 12.1768 8.05299e-06 12V8.55201C-0.000740267 8.28927 0.0506715 8.02899 0.151263 7.78627C0.251855 7.54354 0.399625 7.3232 0.586008 7.13801L1.39134 6.33334L2.45068 1.56668C2.54714 1.12184 2.79334 0.723575 3.14814 0.438429C3.50293 0.153282 3.94483 -0.0014759 4.40001 1.06097e-05H11.6C12.0552 -0.0014759 12.4971 0.153282 12.8519 0.438429C13.2067 0.723575 13.4529 1.12184 13.5493 1.56668L14.6087 6.33334ZM3.98386 1.47996C3.86597 1.57493 3.78414 1.7074 3.75201 1.85534L2.83067 6.00001H13.1693L12.2507 1.85534C12.2184 1.70696 12.1362 1.57414 12.0178 1.47912C11.8993 1.38409 11.7519 1.33263 11.6 1.33334H4.40001C4.24862 1.33324 4.10176 1.38498 3.98386 1.47996ZM2.44444 10.4981C2.60889 10.608 2.80223 10.6667 3.00001 10.6667C3.26522 10.6667 3.51958 10.5613 3.70711 10.3738C3.89465 10.1862 4.00001 9.93189 4.00001 9.66668C4.00001 9.4689 3.94136 9.27556 3.83148 9.11111C3.7216 8.94666 3.56542 8.81849 3.38269 8.7428C3.19997 8.66711 2.9989 8.64731 2.80492 8.68589C2.61094 8.72448 2.43275 8.81972 2.2929 8.95957C2.15305 9.09942 2.05781 9.27761 2.01922 9.47159C1.98064 9.66557 2.00044 9.86663 2.07613 10.0494C2.15182 10.2321 2.27999 10.3883 2.44444 10.4981ZM12.4444 10.4981C12.6089 10.608 12.8022 10.6667 13 10.6667C13.2652 10.6667 13.5196 10.5613 13.7071 10.3738C13.8947 10.1862 14 9.93189 14 9.66668C14 9.4689 13.9414 9.27556 13.8315 9.11111C13.7216 8.94666 13.5654 8.81849 13.3827 8.7428C13.2 8.66711 12.9989 8.64731 12.8049 8.68589C12.6109 8.72448 12.4328 8.81972 12.2929 8.95957C12.153 9.09942 12.0578 9.27761 12.0192 9.47159C11.9806 9.66557 12.0004 9.86663 12.0761 10.0494C12.1518 10.2321 12.28 10.3883 12.4444 10.4981Z" fill="currentColor"/>
<path d="M4.66667 14H0.666667V15.3333C0.666667 15.5101 0.736905 15.6797 0.861929 15.8047C0.986953 15.9298 1.15652 16 1.33333 16H4C4.17681 16 4.34638 15.9298 4.4714 15.8047C4.59643 15.6797 4.66667 15.5101 4.66667 15.3333V14Z" fill="currentColor"/>
<path d="M15.3333 14H11.3333V15.3333C11.3333 15.5101 11.4036 15.6797 11.5286 15.8047C11.6536 15.9298 11.8232 16 12 16H14.6667C14.8435 16 15.013 15.9298 15.1381 15.8047C15.2631 15.6797 15.3333 15.5101 15.3333 15.3333V14Z" fill="currentColor"/>
</g>
<defs>
<clipPath id="clip0_1_1108">
<rect fill="white"/>
</clipPath>
</defs>
</svg>
