<svg viewBox="0 0 32 32" fill="none" xmlns="http://www.w3.org/2000/svg">
<g clip-path="url(#clip0_1_1104)">
<path d="M29.2174 12.6667L30.828 14.276C31.2008 14.6464 31.4963 15.0871 31.6975 15.5725C31.8987 16.058 32.0015 16.5785 32 17.104V24C32 24.3536 31.8595 24.6928 31.6095 24.9428C31.3594 25.1929 31.0203 25.3334 30.6667 25.3334H1.33335C0.979727 25.3334 0.640589 25.1929 0.39054 24.9428C0.140492 24.6928 1.6106e-05 24.3536 1.6106e-05 24V17.104C-0.00148053 16.5785 0.101343 16.058 0.302526 15.5725C0.503709 15.0871 0.79925 14.6464 1.17202 14.276L2.78268 12.6667L4.90135 3.13335C5.09428 2.24368 5.58668 1.44715 6.29627 0.876857C7.00586 0.306565 7.88966 -0.00295179 8.80002 2.12194e-05H23.2C24.1104 -0.00295179 24.9942 0.306565 25.7038 0.876857C26.4134 1.44715 26.9057 2.24368 27.0987 3.13335L29.2174 12.6667ZM7.96772 2.95991C7.73193 3.14986 7.56829 3.41481 7.50402 3.71069L5.66135 12H26.3387L24.5013 3.71069C24.4369 3.41391 24.2725 3.14828 24.0356 2.95823C23.7987 2.76819 23.5037 2.66527 23.2 2.66669H8.80002C8.49724 2.66649 8.20352 2.76997 7.96772 2.95991ZM4.88888 20.9963C5.21777 21.2161 5.60445 21.3334 6.00002 21.3334C6.53045 21.3334 7.03916 21.1226 7.41423 20.7476C7.7893 20.3725 8.00002 19.8638 8.00002 19.3334C8.00002 18.9378 7.88272 18.5511 7.66296 18.2222C7.44319 17.8933 7.13084 17.637 6.76538 17.4856C6.39993 17.3342 5.9978 17.2946 5.60984 17.3718C5.22187 17.449 4.86551 17.6394 4.5858 17.9191C4.3061 18.1988 4.11562 18.5552 4.03845 18.9432C3.96128 19.3311 4.00088 19.7333 4.15226 20.0987C4.30363 20.4642 4.55998 20.7765 4.88888 20.9963ZM24.8889 20.9963C25.2178 21.2161 25.6045 21.3334 26 21.3334C26.5304 21.3334 27.0392 21.1226 27.4142 20.7476C27.7893 20.3725 28 19.8638 28 19.3334C28 18.9378 27.8827 18.5511 27.663 18.2222C27.4432 17.8933 27.1308 17.637 26.7654 17.4856C26.3999 17.3342 25.9978 17.2946 25.6098 17.3718C25.2219 17.449 24.8655 17.6394 24.5858 17.9191C24.3061 18.1988 24.1156 18.5552 24.0384 18.9432C23.9613 19.3311 24.0009 19.7333 24.1523 20.0987C24.3036 20.4642 24.56 20.7765 24.8889 20.9963Z" fill="currentColor"/>
<path d="M9.3335 28H1.3335V30.6667C1.3335 31.0203 1.47397 31.3594 1.72402 31.6095C1.97407 31.8595 2.31321 32 2.66683 32H8.00016C8.35378 32 8.69292 31.8595 8.94297 31.6095C9.19302 31.3594 9.3335 31.0203 9.3335 30.6667V28Z" fill="currentColor"/>
<path d="M30.6665 28H22.6665V30.6667C22.6665 31.0203 22.807 31.3594 23.057 31.6095C23.3071 31.8595 23.6462 32 23.9998 32H29.3332C29.6868 32 30.0259 31.8595 30.276 31.6095C30.526 31.3594 30.6665 31.0203 30.6665 30.6667V28Z" fill="currentColor"/>
</g>
<defs>
<clipPath id="clip0_1_1104">
<rect fill="white"/>
</clipPath>
</defs>
</svg>
