<svg viewBox="0 0 16 16" fill="none" xmlns="http://www.w3.org/2000/svg">
<path d="M5.57697 8.58691C5.95496 8.6254 6.25063 8.9449 6.25079 9.33301C6.25079 9.72124 5.95503 10.0406 5.57697 10.0791L5.50079 10.083H3.8338C3.41959 10.083 3.0838 9.74722 3.0838 9.33301C3.08398 8.91894 3.4197 8.58301 3.8338 8.58301H5.50079L5.57697 8.58691Z" fill="currentColor"/>
<path d="M12.243 8.58691C12.6212 8.62521 12.9166 8.94476 12.9168 9.33301C12.9168 9.72138 12.6212 10.0408 12.243 10.0791L12.1668 10.083H10.4998C10.0857 10.0829 9.74982 9.74714 9.74982 9.33301C9.74999 8.91902 10.0858 8.58313 10.4998 8.58301H12.1668L12.243 8.58691Z" fill="currentColor"/>
<path d="M10.9402 1.92676C11.9224 2.01273 12.756 2.6891 13.0418 3.63184L13.0945 3.83789L13.4725 5.65137L14.3992 5.29883L14.4725 5.27539C14.8393 5.17675 15.2285 5.36994 15.367 5.73242C15.5147 6.11941 15.3204 6.55347 14.9334 6.70117L14.6795 6.79688C15.1356 7.28771 15.4168 7.94405 15.4168 8.66699V12.5C15.4166 13.3739 14.7077 14.0838 13.8338 14.084H12.3338C11.3957 14.084 10.6315 13.3443 10.5877 12.417H5.4129C5.36918 13.3442 4.60476 14.0838 3.66681 14.084H2.16681C1.29285 14.0838 0.583978 13.374 0.583803 12.5V8.66699C0.583803 7.94432 0.863364 7.28765 1.31915 6.79688L1.0672 6.70117L0.996889 6.66992C0.657137 6.49957 0.49464 6.09632 0.632631 5.7334C0.770675 5.37055 1.16009 5.17696 1.52716 5.27539L1.6004 5.29883L2.54962 5.65918L2.9881 3.7832C3.24356 2.68988 4.21946 1.91699 5.34162 1.91699H10.7283L10.9402 1.92676ZM3.3338 7.41699C2.64335 7.41699 2.0838 7.97654 2.0838 8.66699V12.5C2.08398 12.5455 2.12128 12.5838 2.16681 12.584H3.66681C3.80419 12.5838 3.91646 12.4713 3.91681 12.334V11.667C3.91681 11.2529 4.25275 10.9172 4.66681 10.917H11.3338C11.7478 10.9172 12.0838 11.2529 12.0838 11.667V12.334C12.0842 12.4715 12.1962 12.584 12.3338 12.584H13.8338C13.8793 12.5838 13.9166 12.5455 13.9168 12.5V8.66699C13.9168 7.97668 13.3571 7.41722 12.6668 7.41699H3.3338ZM5.34162 3.41699C4.96911 3.41699 4.63926 3.64175 4.49786 3.97559L4.44904 4.125L4.03009 5.91699H11.9959L11.6258 4.14648L11.5799 3.99316C11.4622 3.69904 11.1994 3.48557 10.8875 3.43066L10.7283 3.41699H5.34162Z" fill="currentColor"/>
</svg>
