<svg viewBox="0 0 16 16" fill="none" xmlns="http://www.w3.org/2000/svg">
<path d="M6.45703 9.6875C6.83513 9.72593 7.13076 10.0454 7.13086 10.4336C7.13078 10.8218 6.83514 11.1412 6.45703 11.1797L6.38086 11.1836H5.18066C4.7665 11.1836 4.43074 10.8477 4.43066 10.4336C4.43077 10.0195 4.76652 9.68359 5.18066 9.68359H6.38086L6.45703 9.6875Z" fill="currentColor"/>
<path d="M4.92676 3.05469C5.30491 3.09313 5.59961 3.41248 5.59961 3.80078C5.59941 4.1889 5.30479 4.50844 4.92676 4.54688L4.84961 4.55078H4.5498C3.97024 4.5511 3.50011 5.02097 3.5 5.60059V6.35059H12.7998V5.60059C12.7997 5.05706 12.3868 4.61045 11.8574 4.55664L11.75 4.55078H11.4502C11.0363 4.55057 10.7004 4.21469 10.7002 3.80078C10.7002 3.3867 11.0362 3.05099 11.4502 3.05078H11.75L12.0107 3.06348C13.2965 3.19404 14.2997 4.28036 14.2998 5.60059V11.001C14.2995 12.409 13.1581 13.5508 11.75 13.5508H4.5498C3.14194 13.5505 2.00032 12.4088 2 11.001V5.60059C2.00011 4.19254 3.14181 3.0511 4.5498 3.05078H4.84961L4.92676 3.05469ZM3.5 7.85059V11.001C3.50032 11.5804 3.97037 12.0505 4.5498 12.0508H11.75C12.3297 12.0508 12.7995 11.5806 12.7998 11.001V7.85059H3.5Z" fill="currentColor"/>
<path d="M8.15039 2C8.56438 2.00011 8.90018 2.33603 8.90039 2.75V3.0498H9.2002L9.27734 3.05371C9.65524 3.0922 9.9499 3.41182 9.9502 3.7998C9.9502 4.18802 9.65538 4.50734 9.27734 4.5459L9.2002 4.5498H8.90039V4.84961C8.90039 5.26376 8.56451 5.5995 8.15039 5.59961C7.73627 5.5995 7.40039 5.26376 7.40039 4.84961V4.5498H7.10059C6.68637 4.5498 6.35059 4.21402 6.35059 3.7998C6.3509 3.38586 6.68657 3.0498 7.10059 3.0498H7.40039V2.75C7.4006 2.33603 7.7364 2.00011 8.15039 2Z" fill="currentColor"/>
</svg>
