<svg viewBox="0 0 32 32" fill="none" xmlns="http://www.w3.org/2000/svg">
<path d="M24.2148 21.3369C24.845 21.4011 25.3369 21.933 25.3369 22.5801C25.3369 23.2271 24.8449 23.7591 24.2148 23.8232L24.0869 23.8301H21.333C20.6428 23.8299 20.0831 23.2703 20.083 22.5801C20.083 21.8898 20.6428 21.3303 21.333 21.3301H24.0869L24.2148 21.3369Z" fill="currentColor"/>
<path d="M10 2.75C11.0773 2.75 12.0298 3.27585 12.6211 4.08301H26.667C28.83 4.08318 30.583 5.83699 30.583 8V24C30.583 26.163 28.83 27.9168 26.667 27.917H12.6211C12.0298 28.7241 11.0773 29.25 10 29.25H6C4.20507 29.25 2.75 27.7949 2.75 26V6C2.75 4.20507 4.20508 2.75 6 2.75H10ZM6 5.25C5.58579 5.25 5.25 5.58579 5.25 6V26C5.25 26.4142 5.58579 26.75 6 26.75H10C10.4142 26.75 10.75 26.4142 10.75 26V6C10.75 5.58579 10.4142 5.25 10 5.25H6ZM13.25 25.417H26.667C27.4492 25.4168 28.083 24.7823 28.083 24V18.583H13.25V25.417ZM13.25 16.083H28.083V8C28.083 7.2177 27.4492 6.58318 26.667 6.58301H13.25V16.083Z" fill="currentColor"/>
</svg>
