<svg viewBox="0 0 16 16" fill="none" xmlns="http://www.w3.org/2000/svg">
<path d="M4.25 3C2.84187 3 1.70051 4.14175 1.7002 5.5498V7.9502C1.7003 8.36432 2.03605 8.7002 2.4502 8.7002C2.86407 8.69988 3.20009 8.36412 3.2002 7.9502V7.5H12.5V10.9502C12.4999 11.5298 12.0298 11.9997 11.4502 12H7.84961L7.77344 12.0039C7.39532 12.0422 7.09981 12.3618 7.09961 12.75C7.09961 13.1384 7.39519 13.4577 7.77344 13.4961L7.84961 13.5H11.4502C12.8582 13.4997 13.9999 12.3582 14 10.9502V5.5498C13.9997 4.14194 12.8581 3.00032 11.4502 3H4.25ZM11.4502 4.5C12.0296 4.50032 12.4997 4.97037 12.5 5.5498V6H3.2002V5.5498C3.20051 4.97018 3.6703 4.5 4.25 4.5H11.4502Z" fill="currentColor"/>
<path d="M5.97949 8.02051C5.68659 7.72771 5.21181 7.72765 4.91895 8.02051C4.65182 8.28802 4.62959 8.70631 4.85059 9H3.94922L3.71973 9.01172C2.58518 9.12684 1.69942 10.0851 1.69922 11.25C1.69922 12.4925 2.70676 13.4998 3.94922 13.5H5.44922C5.86343 13.5 6.19922 13.1642 6.19922 12.75C6.19901 12.336 5.8633 12 5.44922 12H3.94922C3.53518 11.9998 3.19922 11.6641 3.19922 11.25C3.19942 10.8618 3.49491 10.5422 3.87305 10.5039L3.94922 10.5H4.85254C4.63027 10.7939 4.65101 11.2135 4.91895 11.4814C5.19352 11.7558 5.62834 11.7724 5.92285 11.5322L5.97949 11.4814L7.17969 10.2812C7.23744 10.2235 7.28144 10.157 7.31641 10.0879C7.32488 10.0712 7.33554 10.0555 7.34277 10.0381C7.3518 10.0163 7.3564 9.9931 7.36328 9.9707C7.38485 9.90076 7.39941 9.82702 7.39941 9.75C7.39937 9.6649 7.3826 9.58405 7.35645 9.50781C7.35172 9.49401 7.34931 9.47938 7.34375 9.46582C7.33223 9.43775 7.31646 9.41198 7.30176 9.38574C7.2708 9.33046 7.23453 9.2771 7.18848 9.22949C7.18383 9.22469 7.17957 9.21952 7.1748 9.21484L5.97949 8.02051Z" fill="currentColor"/>
</svg>
