<svg viewBox="0 0 16 16" fill="none" xmlns="http://www.w3.org/2000/svg">
<path d="M9.71875 8.07031C10.0116 7.77748 10.4864 7.77761 10.7793 8.07031C11.072 8.36322 11.0721 8.83801 10.7793 9.13086L8.67969 11.2305C8.38682 11.523 7.91194 11.5231 7.61914 11.2305C7.32655 10.9377 7.32662 10.4628 7.61914 10.1699L9.71875 8.07031Z" fill="currentColor"/>
<path d="M11.7998 2.5C12.8769 2.50011 13.75 3.37306 13.75 4.4502V8.15039C13.75 8.18524 13.7458 8.21934 13.7412 8.25293C13.877 8.69471 13.9502 9.16413 13.9502 9.65039C13.95 12.2731 11.824 14.4004 9.2002 14.4004C7.35136 14.4002 5.75052 13.3422 4.96582 11.7998H4C2.92279 11.7998 2.0498 10.9268 2.0498 9.84961V4.4502C2.04982 3.37299 2.9228 2.5 4 2.5H11.7998ZM9.2002 6.40039C7.40579 6.4006 5.9502 7.85593 5.9502 9.65039C5.95039 11.4447 7.40591 12.9002 9.2002 12.9004C10.9954 12.9004 12.45 11.4449 12.4502 9.65039C12.4502 7.85571 10.9955 6.40039 9.2002 6.40039ZM4 4C3.75122 4 3.54982 4.20142 3.5498 4.4502V9.84961C3.5498 10.0984 3.75121 10.2998 4 10.2998H4.49609C4.46702 10.0874 4.45021 9.87075 4.4502 9.65039C4.4502 7.02751 6.57736 4.9006 9.2002 4.90039C10.3611 4.90039 11.425 5.31634 12.25 6.00781V4.4502C12.25 4.20149 12.0485 4.00011 11.7998 4H4Z" fill="currentColor"/>
<path d="M11.1684 10.9352C11.1684 11.377 10.8102 11.7352 10.3684 11.7352C9.92657 11.7352 9.56839 11.377 9.56839 10.9352C9.56839 10.4934 9.92657 10.1352 10.3684 10.1352C10.8102 10.1352 11.1684 10.4934 11.1684 10.9352Z" fill="currentColor"/>
<path d="M8.8 8.4502C8.8 8.89202 8.44183 9.2502 8 9.2502C7.55817 9.2502 7.2 8.89202 7.2 8.4502C7.2 8.00837 7.55817 7.6502 8 7.6502C8.44183 7.6502 8.8 8.00837 8.8 8.4502Z" fill="currentColor"/>
</svg>
