<svg viewBox="0 0 24 24" fill="none" xmlns="http://www.w3.org/2000/svg">
<path d="M17 16C17 15.4477 17.4477 15 18 15C18.5523 15 19 15.4477 19 16V18.5859L19.293 18.293C19.6835 17.9024 20.3165 17.9024 20.707 18.293C21.0976 18.6835 21.0976 19.3165 20.707 19.707L18.707 21.707C18.3165 22.0976 17.6835 22.0976 17.293 21.707L15.293 19.707C14.9024 19.3165 14.9024 18.6835 15.293 18.293C15.6835 17.9024 16.3165 17.9024 16.707 18.293L17 18.5859V16ZM9 12C9.55228 12 10 12.4477 10 13C10 13.5523 9.55228 14 9 14H7C6.44772 14 6 13.5523 6 13C6 12.4477 6.44772 12 7 12H9ZM20 8C20 6.89543 19.1046 6 18 6H6C4.89543 6 4 6.89543 4 8H20ZM22 13C22 13.5523 21.5523 14 21 14C20.4477 14 20 13.5523 20 13V10H4V16C4 17.1046 4.89543 18 6 18H12C12.5523 18 13 18.4477 13 19C13 19.5523 12.5523 20 12 20H6C3.79086 20 2 18.2091 2 16V8C2 5.79086 3.79086 4 6 4H18C20.2091 4 22 5.79086 22 8V13Z" fill="currentColor"/>
</svg>
