<svg viewBox="0 0 24 24" fill="none" xmlns="http://www.w3.org/2000/svg">
<path d="M17.0088 17.8379C17.4487 17.4788 18.0844 17.4791 18.5244 17.8379L18.6152 17.9199L18.6973 18.0107C19.082 18.4821 19.0546 19.1777 18.6152 19.6172C18.1466 20.0858 17.3866 20.0858 16.918 19.6172C16.4498 19.1485 16.4495 18.3884 16.918 17.9199L17.0088 17.8379Z" fill="currentColor"/>
<path d="M17.043 14.543C17.4335 14.1524 18.0665 14.1524 18.457 14.543C18.8476 14.9335 18.8476 15.5665 18.457 15.957L14.957 19.457C14.5665 19.8476 13.9335 19.8476 13.543 19.457C13.1524 19.0665 13.1524 18.4335 13.543 18.043L17.043 14.543Z" fill="currentColor"/>
<path d="M13.4766 14.3008C13.9166 13.9416 14.5522 13.9416 14.9922 14.3008L15.083 14.3828L15.165 14.4736C15.5494 14.945 15.5223 15.6408 15.083 16.0801C14.6145 16.5486 13.8544 16.5483 13.3857 16.0801C12.9171 15.6115 12.9171 14.8514 13.3857 14.3828L13.4766 14.3008Z" fill="currentColor"/>
<path d="M18 3C19.6573 3 21 4.34272 21 6V13.6826C21.6317 14.6329 22 15.7735 22 17C22 20.3132 19.3144 23 16 23C13.0275 23 10.5613 20.8373 10.085 18H5C3.34272 18 2 16.6573 2 15V6C2 4.34272 3.34272 3 5 3H18ZM16 13C13.7913 13 12 14.7913 12 17C12 19.2087 13.7913 21 16 21C18.2096 21 20 19.2088 20 17C20 14.7912 18.2096 13 16 13ZM4 15C4 15.5527 4.44728 16 5 16H10.085C10.5613 13.1627 13.0275 11 16 11C17.0933 11 18.1173 11.2939 19 11.8047V9H4V15ZM5 5C4.44728 5 4 5.44728 4 6V7H19V6C19 5.44728 18.5527 5 18 5H5Z" fill="currentColor"/>
</svg>
