<svg viewBox="0 0 32 32" fill="none" xmlns="http://www.w3.org/2000/svg">
<path d="M7.75 4C4.74023 4.00021 2.2998 6.44037 2.2998 9.4502V15.0498C2.30002 15.7398 2.85985 16.2995 3.5498 16.2998C4.24003 16.2998 4.79959 15.74 4.7998 15.0498V13.5H27.5V22.0498C27.4998 23.6789 26.1789 25 24.5498 25H16.1504L16.0225 25.0068C15.3922 25.0709 14.9004 25.6029 14.9004 26.25C14.9006 26.897 15.3923 27.4291 16.0225 27.4932L16.1504 27.5H24.5498C27.5596 27.5 29.9998 25.0596 30 22.0498V9.4502C30 6.44024 27.5598 4 24.5498 4H7.75ZM24.5498 6.5C26.179 6.5 27.5 7.82096 27.5 9.4502V11H4.7998V9.4502C4.7998 7.82109 6.12094 6.50021 7.75 6.5H24.5498Z" fill="currentColor"/>
<path d="M11.3398 15.4795C10.849 15.0791 10.1247 15.1081 9.66699 15.5654C9.20934 16.0231 9.18061 16.7473 9.58105 17.2383L9.66699 17.333L10.334 18H7.05078L6.80566 18.0059C4.29613 18.1333 2.30078 20.2088 2.30078 22.75C2.30099 25.3732 4.42756 27.5 7.05078 27.5H10.5508C11.2408 27.4998 11.8006 26.94 11.8008 26.25C11.8008 25.5598 11.241 25.0002 10.5508 25H7.05078C5.80827 25 4.80099 23.9925 4.80078 22.75C4.80078 21.5851 5.68585 20.627 6.82031 20.5117L7.05078 20.5H10.332L9.66699 21.165L9.58105 21.2607C9.18085 21.7516 9.2096 22.475 9.66699 22.9326C10.1247 23.3904 10.8489 23.4193 11.3398 23.0186L11.4346 22.9326L14.2246 20.1426C14.2853 20.0832 14.3401 20.0179 14.3877 19.9473C14.4022 19.9257 14.4147 19.9031 14.4277 19.8809C14.4362 19.8665 14.4453 19.8526 14.4531 19.8379C14.462 19.8213 14.4695 19.804 14.4775 19.7871C14.487 19.7673 14.4974 19.7479 14.5059 19.7275C14.5146 19.7064 14.5218 19.6846 14.5293 19.6631C14.535 19.6469 14.5409 19.6308 14.5459 19.6143C14.5506 19.5987 14.5545 19.583 14.5586 19.5674C14.575 19.5049 14.5882 19.4409 14.5947 19.375C14.6069 19.2533 14.6005 19.1301 14.5771 19.0098C14.5724 18.9853 14.5657 18.9614 14.5596 18.9375C14.555 18.9196 14.5513 18.9015 14.5459 18.8838C14.5409 18.8673 14.535 18.8511 14.5293 18.835C14.5217 18.8134 14.5146 18.7917 14.5059 18.7705C14.4974 18.7502 14.487 18.7307 14.4775 18.7109C14.4695 18.694 14.462 18.6768 14.4531 18.6602C14.4453 18.6455 14.4362 18.6315 14.4277 18.6172C14.396 18.5632 14.3608 18.5106 14.3203 18.4609C14.3038 18.4407 14.2862 18.4215 14.2686 18.4023C14.2572 18.3901 14.2463 18.3771 14.2344 18.3652L11.4346 15.5654L11.3398 15.4795Z" fill="currentColor"/>
</svg>
