<svg viewBox="0 0 16 16" fill="none" xmlns="http://www.w3.org/2000/svg">
<path d="M10.667 7.25C11.4739 7.25003 12.2389 7.37975 12.8301 7.61621C13.1236 7.73365 13.4119 7.89214 13.6387 8.10645C13.8466 8.30297 14.0404 8.58947 14.0742 8.95605C14.0796 8.9921 14.083 9.02888 14.083 9.06641V11.3135C14.0832 11.32 14.084 11.3265 14.084 11.333C14.084 11.3355 14.083 11.3383 14.083 11.3408V13.6006C14.0825 14.02 13.8669 14.3438 13.6387 14.5596C13.4121 14.7738 13.1244 14.9324 12.8311 15.0498C12.2399 15.2863 11.4743 15.416 10.667 15.416C9.85959 15.416 9.09416 15.2864 8.50293 15.0498C8.20941 14.9324 7.92105 14.7739 7.69434 14.5596C7.46622 14.3438 7.25054 14.0198 7.25 13.6006V9.06641C7.25001 9.03701 7.25158 9.008 7.25488 8.97949L7.25977 8.91406C7.3041 8.56755 7.49437 8.29557 7.69434 8.10645C7.92118 7.89197 8.20938 7.73358 8.50293 7.61621C9.09433 7.37979 9.86008 7.25 10.667 7.25ZM12.583 12.8721C12.0328 13.0516 11.3658 13.1494 10.667 13.1494C9.96801 13.1494 9.30025 13.0517 8.75 12.8721V13.4873C8.80219 13.5293 8.89867 13.5928 9.05957 13.6572C9.43329 13.8068 10.0016 13.916 10.667 13.916C11.3322 13.916 11.8998 13.8067 12.2734 13.6572C12.4343 13.5928 12.5307 13.5293 12.583 13.4873V12.8721ZM12.583 10.6064C12.0326 10.7861 11.365 10.8838 10.666 10.8838C9.96732 10.8838 9.30014 10.7859 8.75 10.6064V11.2197C8.8018 11.2618 8.89851 11.3258 9.06055 11.3906C9.43414 11.54 10.0019 11.6494 10.667 11.6494C11.3321 11.6493 11.9007 11.5401 12.2744 11.3906C12.435 11.3263 12.5311 11.2627 12.583 11.2207V10.6064ZM10.667 8.75C10.0019 8.75 9.43351 8.8593 9.05957 9.00879C9.01027 9.0285 8.96673 9.04775 8.92871 9.06641C8.96672 9.08508 9.01028 9.10527 9.05957 9.125C9.43316 9.27443 10.0009 9.38379 10.666 9.38379C11.3313 9.38378 11.8996 9.27355 12.2734 9.12402C12.3224 9.10442 12.3655 9.08496 12.4033 9.06641C12.3655 9.04786 12.3224 9.02837 12.2734 9.00879C11.8996 8.85925 11.3318 8.75004 10.667 8.75Z" fill="currentColor"/>
<path d="M10.1992 1.25977C10.661 1.30546 11.0958 1.50982 11.4268 1.84082C11.8047 2.219 12.0167 2.73193 12.0166 3.2666V6C12.0166 6.41413 11.6807 6.74987 11.2666 6.75C10.8526 6.74979 10.5166 6.41408 10.5166 6V3.2666C10.5167 3.12984 10.4628 2.99817 10.3662 2.90137C10.2936 2.82871 10.2009 2.77956 10.1016 2.75977L10.001 2.75H3.93359C3.79669 2.74994 3.66519 2.8046 3.56836 2.90137C3.47151 2.99821 3.41693 3.12964 3.41699 3.2666V12.0674C3.41703 12.2042 3.47161 12.3359 3.56836 12.4326C3.66516 12.5292 3.79685 12.5831 3.93359 12.583H6L6.07715 12.5869C6.45507 12.6255 6.74983 12.945 6.75 13.333C6.75 13.7212 6.45514 14.0405 6.07715 14.0791L6 14.083H3.93359C3.39893 14.0831 2.88599 13.8711 2.50781 13.4932C2.17677 13.1621 1.97242 12.7275 1.92676 12.2656L1.91699 12.0664V3.2666C1.91686 2.73173 2.12959 2.21904 2.50781 1.84082C2.88602 1.46268 3.39878 1.24987 3.93359 1.25H10L10.1992 1.25977Z" fill="currentColor"/>
<path d="M5.41016 10.5869C5.78823 10.6253 6.08382 10.9448 6.08398 11.333C6.08398 11.7213 5.7883 12.0407 5.41016 12.0791L5.33398 12.083H4.66699C4.25278 12.083 3.91699 11.7472 3.91699 11.333C3.91717 10.9189 4.25289 10.583 4.66699 10.583H5.33398L5.41016 10.5869Z" fill="currentColor"/>
<path d="M5.4502 6.0166C6.30459 5.16221 7.65672 5.10871 8.57324 5.85645L8.75 6.0166L8.80176 6.07324C9.04202 6.36782 9.02459 6.80256 8.75 7.07715C8.4754 7.35153 8.0406 7.36911 7.74609 7.12891L7.68945 7.07715L7.62598 7.01953C7.29863 6.75282 6.81578 6.77211 6.51074 7.07715C6.20587 7.38221 6.18643 7.8651 6.45312 8.19238L6.51074 8.25586L6.5625 8.3125C6.80276 8.60707 6.78529 9.04182 6.51074 9.31641C6.23615 9.59082 5.80135 9.60837 5.50684 9.36816L5.4502 9.31641L5.29004 9.13965C4.54232 8.22319 4.59597 6.87101 5.4502 6.0166Z" fill="currentColor"/>
<path d="M9.41016 3.25391C9.78821 3.29233 10.0838 3.61184 10.084 4C10.0838 4.38814 9.7882 4.70767 9.41016 4.74609L9.33398 4.75H8.66699C8.2529 4.75 7.91719 4.41405 7.91699 4C7.91717 3.58594 8.25289 3.25 8.66699 3.25H9.33398L9.41016 3.25391Z" fill="currentColor"/>
</svg>
