<svg viewBox="0 0 24 24" fill="none" xmlns="http://www.w3.org/2000/svg">
<path d="M18.167 15.9404C18.6712 15.9915 19.0652 16.4169 19.0654 16.9346C19.0654 17.4524 18.6714 17.8786 18.167 17.9297L18.0654 17.9346H16C15.4477 17.9346 15 17.4869 15 16.9346C15.0002 16.3825 15.4479 15.9346 16 15.9346H18.0654L18.167 15.9404Z" fill="currentColor"/>
<path d="M7 2C7.88738 2 8.68219 2.3876 9.23145 3H20C21.6569 3 23 4.34315 23 6V18C23 19.6569 21.6569 21 20 21H9.23145C8.68219 21.6124 7.88738 22 7 22H5C3.34315 22 2 20.6569 2 19V5C2 3.34315 3.34315 2 5 2H7ZM5 4C4.44772 4 4 4.44772 4 5V19C4 19.5523 4.44772 20 5 20H7C7.55228 20 8 19.5523 8 19V5C8 4.44772 7.55228 4 7 4H5ZM10 19H20C20.5523 19 21 18.5523 21 18V14H10V19ZM10 12H21V6C21 5.44772 20.5523 5 20 5H10V12Z" fill="currentColor"/>
</svg>
