<svg viewBox="0 0 16 16" fill="none" xmlns="http://www.w3.org/2000/svg">
<path d="M11.75 3C13.1581 3 14.2995 4.14175 14.2998 5.5498V7.9502C14.2997 8.36432 13.964 8.7002 13.5498 8.7002C13.1359 8.69988 12.7999 8.36412 12.7998 7.9502V7.5H3.5V10.9502C3.50011 11.5298 3.97024 11.9997 4.5498 12H8.15039L8.22656 12.0039C8.60468 12.0422 8.90019 12.3618 8.90039 12.75C8.90039 13.1384 8.60481 13.4577 8.22656 13.4961L8.15039 13.5H4.5498C3.14181 13.4997 2.00011 12.3582 2 10.9502V5.5498C2.00032 4.14194 3.14194 3.00032 4.5498 3H11.75ZM4.5498 4.5C3.97037 4.50032 3.50032 4.97037 3.5 5.5498V6H12.7998V5.5498C12.7995 4.97018 12.3297 4.5 11.75 4.5H4.5498Z" fill="currentColor"/>
<path d="M10.0205 8.02051C10.3134 7.72771 10.7882 7.72765 11.0811 8.02051C11.3482 8.28802 11.3704 8.70631 11.1494 9H12.0508L12.2803 9.01172C13.4148 9.12684 14.3006 10.0851 14.3008 11.25C14.3008 12.4925 13.2932 13.4998 12.0508 13.5H10.5508C10.1366 13.5 9.80078 13.1642 9.80078 12.75C9.80099 12.336 10.1367 12 10.5508 12H12.0508C12.4648 11.9998 12.8008 11.6641 12.8008 11.25C12.8006 10.8618 12.5051 10.5422 12.127 10.5039L12.0508 10.5H11.1475C11.3697 10.7939 11.349 11.2135 11.0811 11.4814C10.8065 11.7558 10.3717 11.7724 10.0771 11.5322L10.0205 11.4814L8.82031 10.2812C8.76256 10.2235 8.71856 10.157 8.68359 10.0879C8.67512 10.0712 8.66446 10.0555 8.65723 10.0381C8.6482 10.0163 8.6436 9.9931 8.63672 9.9707C8.61515 9.90076 8.60059 9.82702 8.60059 9.75C8.60063 9.6649 8.6174 9.58405 8.64355 9.50781C8.64828 9.49401 8.65069 9.47938 8.65625 9.46582C8.66777 9.43775 8.68354 9.41198 8.69824 9.38574C8.7292 9.33046 8.76547 9.2771 8.81152 9.22949C8.81617 9.22469 8.82043 9.21952 8.8252 9.21484L10.0205 8.02051Z" fill="currentColor"/>
</svg>
