<svg viewBox="0 0 24 24" fill="none" xmlns="http://www.w3.org/2000/svg">
<path d="M13.9522 2C14.5044 2 14.952 2.44783 14.9522 3C14.9522 3.55228 14.5044 4 13.9522 4H12.5234C11.4982 4.00037 10.6671 4.83208 10.667 5.85742V12.9668L11.9981 11.6357L12.1934 11.46C13.2017 10.6378 14.689 10.6971 15.6289 11.6367L15.7822 11.8037C16.4596 12.6118 16.573 13.7563 16.0674 14.6816L15.9492 14.876L15.0088 16.2861H17.2861C18.3117 16.286 19.1425 15.4543 19.1426 14.4287V9.19043C19.1428 8.63851 19.5907 8.19078 20.1426 8.19043C20.6948 8.19043 21.1424 8.6383 21.1426 9.19043V14.4287C21.1425 16.5588 19.4162 18.286 17.2861 18.2861H13.6748L13.0772 19.1826C12.5927 19.909 11.9215 20.4883 11.1367 20.8604L10.794 21.0068L8.11915 22.0293L8.02149 22.0615C7.53234 22.1935 7.01298 21.9356 6.82813 21.4521C6.63127 20.9365 6.88968 20.3584 7.40528 20.1611L10.0791 19.1387L10.2803 19.0527C10.7385 18.8354 11.1312 18.4974 11.4141 18.0732L14.2852 13.7666L14.333 13.6787C14.412 13.498 14.3914 13.2886 14.2783 13.127L14.2148 13.0508C14.0209 12.8571 13.7211 12.8321 13.501 12.9775L13.4121 13.0508L11.3262 15.1357C11.1387 15.3232 10.8843 15.4287 10.6191 15.4287H8.71387C8.16193 15.4283 7.71391 14.9807 7.71387 14.4287C7.714 13.8925 8.1369 13.4555 8.667 13.4307V10.667H8.43653C8.22036 10.667 8.00593 10.7041 7.80372 10.7773L7.60547 10.8623L7.04883 11.1416C6.77241 11.2798 6.53504 11.4844 6.3584 11.7363L6.28614 11.8467L3.85743 15.8955C3.57327 16.3691 2.95893 16.5224 2.48536 16.2383C2.01217 15.954 1.85853 15.3396 2.14258 14.8662L4.57129 10.8184L4.72071 10.5879C5.08759 10.0647 5.58019 9.63961 6.1543 9.35254L6.71192 9.07422L6.91504 8.97949C7.39493 8.7735 7.91274 8.66703 8.43653 8.66699H8.667V5.85742C8.66713 3.72751 10.3936 2.00037 12.5234 2H13.9522Z" fill="currentColor"/>
<path d="M19.1904 4.85742C19.7426 4.85742 20.1903 5.30525 20.1904 5.85742C20.1903 6.40959 19.7426 6.85742 19.1904 6.85742H17.2861C16.7341 6.85729 16.2863 6.40951 16.2861 5.85742C16.2863 5.30533 16.734 4.85755 17.2861 4.85742H19.1904Z" fill="currentColor"/>
<path d="M21.1973 2.00488C21.7016 2.05592 22.0956 2.48222 22.0957 3C22.0957 3.51789 21.7017 3.94408 21.1973 3.99512L21.0957 4H17.2861C16.734 3.99987 16.2861 3.5522 16.2861 3C16.2863 2.44791 16.734 2.00013 17.2861 2H21.0957L21.1973 2.00488Z" fill="currentColor"/>
</svg>
