<svg viewBox="0 0 24 24" fill="none" xmlns="http://www.w3.org/2000/svg">
<path d="M17.3125 14.9062C17.7031 14.5158 18.3371 14.5166 18.7275 14.9072C19.1176 15.2979 19.1171 15.931 18.7266 16.3213L16.8359 18.2109C16.4702 18.5764 15.8917 18.5996 15.499 18.2803L15.4229 18.2119L14.2861 17.0781L14.2178 17.0029C13.8965 16.6106 13.9185 16.0309 14.2842 15.6641C14.6498 15.2974 15.2288 15.274 15.6221 15.5938L15.6982 15.6621L16.127 16.0898L17.3125 14.9062Z" fill="currentColor"/>
<path d="M16.5059 11.0029C19.5444 11.0029 22.0076 13.4664 22.0078 16.5049C22.0078 19.5435 19.5445 22.0068 16.5059 22.0068C13.4673 22.0067 11.0039 19.5434 11.0039 16.5049C11.0041 13.4665 13.4675 11.003 16.5059 11.0029ZM16.5059 13.0029C14.572 13.003 13.0041 14.5711 13.0039 16.5049C13.0039 18.4389 14.5719 20.0067 16.5059 20.0068C18.4399 20.0068 20.0078 18.4389 20.0078 16.5049C20.0076 14.571 18.4398 13.0029 16.5059 13.0029Z" fill="currentColor"/>
<path d="M17.5059 3C19.4394 3 21.0068 4.56743 21.0068 6.50098V10.0029C21.0066 10.555 20.559 11.0029 20.0068 11.0029C19.4548 11.0028 19.0071 10.5549 19.0068 10.0029V6.50098C19.0068 5.672 18.3348 5 17.5059 5H5.50098C5.1527 5.00002 4.81688 5.12105 4.5498 5.33984L4.43945 5.43945C4.15797 5.72094 4.00002 6.1029 4 6.50098V14.5039C4 15.3329 4.672 16.0058 5.50098 16.0059H9.00293C9.55521 16.0059 10.0029 16.4536 10.0029 17.0059C10.0027 17.5579 9.55506 18.0059 9.00293 18.0059H5.50098C3.56743 18.0058 2 16.4375 2 14.5039V6.50098C2.00002 5.57247 2.36883 4.68195 3.02539 4.02539L3.15137 3.90527C3.79355 3.32393 4.63063 3.00002 5.50098 3H17.5059Z" fill="currentColor"/>
<path d="M7.10352 13.0098C7.60785 13.0608 8.00182 13.4861 8.00195 14.0039C8.00195 14.5218 7.60796 14.948 7.10352 14.999L7.00195 15.0039H6.00098C5.44882 15.0038 5.00098 14.5561 5.00098 14.0039C5.00112 13.4518 5.4489 13.0041 6.00098 13.0039H7.00195L7.10352 13.0098Z" fill="currentColor"/>
<path d="M9.1582 7.90332C10.4883 6.70122 12.5185 6.7013 13.8486 7.90332L13.9795 8.02734L14.0479 8.10352C14.3679 8.49624 14.3454 9.07538 13.9795 9.44141C13.6133 9.8076 13.0334 9.83033 12.6406 9.50977L12.5654 9.44141L12.4512 9.33789C11.9009 8.88909 11.1059 8.88901 10.5557 9.33789L10.4424 9.44141C9.89284 9.99094 9.85806 10.8606 10.3389 11.4502L10.4424 11.5645L10.5107 11.6396C10.8313 12.0324 10.8086 12.6123 10.4424 12.9785C10.0762 13.3447 9.49629 13.3675 9.10352 13.0469L9.02832 12.9785L8.90332 12.8477C7.66181 11.4733 7.70388 9.35178 9.02832 8.02734L9.1582 7.90332Z" fill="currentColor"/>
<path d="M17.0059 6.00098C17.558 6.00099 18.0057 6.44883 18.0059 7.00098C18.0059 7.55325 17.5581 8.00096 17.0059 8.00098H16.0059C15.4536 8.00098 15.0059 7.55326 15.0059 7.00098C15.006 6.44882 15.4537 6.00098 16.0059 6.00098H17.0059Z" fill="currentColor"/>
</svg>
