<svg viewBox="0 0 32 32" fill="none" xmlns="http://www.w3.org/2000/svg">
<path d="M21.333 14.75C22.9233 14.75 24.4211 15.0063 25.5674 15.4648C26.137 15.6927 26.6825 15.9949 27.1055 16.3945C27.5043 16.7715 27.8674 17.3106 27.9121 17.9932L27.917 18.126V27.2021C27.9159 27.9502 27.5308 28.5373 27.1055 28.9395C26.6827 29.3391 26.1378 29.6413 25.5684 29.8691C24.4222 30.3277 22.9241 30.584 21.333 30.584C19.7422 30.584 18.2447 30.3276 17.0986 29.8691C16.5291 29.6413 15.9834 29.3391 15.5605 28.9395C15.1352 28.5373 14.7511 27.9502 14.75 27.2021V18.126L14.7549 17.9951C14.7986 17.3117 15.1613 16.7721 15.5605 16.3945C15.9837 15.9945 16.5289 15.6916 17.0986 15.4639C18.2451 15.0056 19.743 14.75 21.333 14.75ZM25.417 25.3906C24.2916 25.8127 22.8555 26.0507 21.333 26.0508C19.811 26.0508 18.3751 25.8125 17.25 25.3906V27.0908C17.2579 27.0992 17.2664 27.1108 17.2783 27.1221C17.3954 27.2327 17.6324 27.3898 18.0273 27.5479C18.811 27.8613 19.979 28.0839 21.333 28.084C22.6873 28.084 23.856 27.8614 24.6396 27.5479C25.0346 27.3898 25.2707 27.2327 25.3877 27.1221C25.4002 27.1103 25.4089 27.0985 25.417 27.0898V25.3906ZM25.417 20.8564C24.2914 21.2787 22.855 21.5166 21.332 21.5166C19.8105 21.5166 18.3749 21.279 17.25 20.8574V22.5576C17.2578 22.5663 17.2671 22.5773 17.2793 22.5889C17.3961 22.6992 17.6318 22.8567 18.0264 23.0146C18.8098 23.3281 19.9788 23.5508 21.333 23.5508C22.6872 23.5507 23.8558 23.3282 24.6396 23.0146C25.0348 22.8566 25.2708 22.6993 25.3877 22.5889C25.3999 22.5773 25.4092 22.5663 25.417 22.5576V20.8564ZM21.333 17.25C19.9794 17.25 18.8104 17.4718 18.0264 17.7852C17.7172 17.9088 17.5056 18.0323 17.3721 18.1328C17.5054 18.2334 17.7164 18.3577 18.0254 18.4814C18.8088 18.7949 19.9778 19.0166 21.332 19.0166C22.6861 19.0166 23.8549 18.795 24.6387 18.4814C24.9475 18.3579 25.1585 18.2333 25.292 18.1328C25.1582 18.0323 24.9467 17.9084 24.6387 17.7852C23.8547 17.4717 22.6861 17.25 21.333 17.25Z" fill="currentColor"/>
<path d="M20.001 2.75098C21.004 2.75089 21.9664 3.14828 22.6758 3.85742C23.3852 4.56695 23.7844 5.52988 23.7842 6.5332V12C23.7842 12.6901 23.2242 13.2496 22.5342 13.25C21.8438 13.25 21.2842 12.6904 21.2842 12V6.5332L21.2773 6.40625C21.2484 6.11262 21.1186 5.83651 20.9082 5.62598C20.6978 5.41554 20.4215 5.28498 20.1279 5.25586L20.001 5.25H7.86719C7.52704 5.24985 7.20054 5.38553 6.95996 5.62598C6.71936 5.86658 6.58383 6.19294 6.58398 6.5332V24.1338L6.58984 24.2607C6.6189 24.5544 6.74945 24.8305 6.95996 25.041C7.20052 25.2814 7.52712 25.4171 7.86719 25.417H12.001L12.1289 25.4229C12.7588 25.4873 13.251 26.0201 13.251 26.667C13.2508 27.3137 12.7587 27.8457 12.1289 27.9102L12.001 27.917H7.86719C6.86386 27.9173 5.90093 27.518 5.19141 26.8086C4.48191 26.0989 4.08355 25.1363 4.08398 24.1328V6.5332C4.08372 5.52977 4.48186 4.56697 5.19141 3.85742C5.90093 3.14802 6.86386 2.75071 7.86719 2.75098H20.001Z" fill="currentColor"/>
<path d="M10.7939 21.4229C11.4244 21.4868 11.916 22.0197 11.916 22.667C11.9159 23.3141 11.4243 23.8462 10.7939 23.9102L10.666 23.917H9.33301C8.64287 23.9169 8.08318 23.3571 8.08301 22.667C8.08301 21.9767 8.64276 21.4171 9.33301 21.417H10.666L10.7939 21.4229Z" fill="currentColor"/>
<path d="M11.0781 12.21C12.749 10.5392 15.4253 10.4865 17.1592 12.0527L17.3242 12.21L17.4102 12.3047C17.8102 12.7956 17.7816 13.52 17.3242 13.9775C16.8667 14.435 16.1423 14.4635 15.6514 14.0635L15.4111 13.8457C14.6583 13.2316 13.5475 13.2758 12.8457 13.9775C12.1439 14.6794 12.0998 15.7901 12.7139 16.543L12.9316 16.7832C13.3317 17.2741 13.303 17.9985 12.8457 18.4561C12.3882 18.9136 11.6638 18.942 11.1729 18.542L11.0781 18.4561L10.9209 18.291C9.35464 16.5571 9.40723 13.8809 11.0781 12.21Z" fill="currentColor"/>
<path d="M18.7939 6.75586C19.4243 6.81976 19.9158 7.35288 19.916 8C19.9159 8.64713 19.4243 9.17925 18.7939 9.24316L18.666 9.25H17.333C16.6429 9.24987 16.0832 8.69012 16.083 8C16.0832 7.30989 16.6429 6.75013 17.333 6.75H18.666L18.7939 6.75586Z" fill="currentColor"/>
</svg>
