<svg viewBox="0 0 32 32" fill="none" xmlns="http://www.w3.org/2000/svg">
<path d="M11.8467 20.9336C12.4771 20.9976 12.9688 21.5305 12.9688 22.1777C12.9685 22.8247 12.4769 23.3569 11.8467 23.4209L11.7188 23.4277H8.91895C8.22895 23.4275 7.66924 22.8677 7.66895 22.1777C7.66895 21.4875 8.22877 20.9279 8.91895 20.9277H11.7188L11.8467 20.9336Z" fill="currentColor"/>
<path d="M8.27734 5.45605C8.90757 5.52002 9.40019 6.05216 9.40039 6.69922C9.40039 7.34643 8.90766 7.87837 8.27734 7.94238L8.15039 7.94922H7.4502C5.82109 7.94922 4.50021 9.27035 4.5 10.8994V13.1494H27.2002V10.8994C27.2 9.27048 25.8789 7.94943 24.25 7.94922H23.5498C22.8595 7.94911 22.2998 7.38951 22.2998 6.69922C22.3 6.00911 22.8597 5.44933 23.5498 5.44922H24.25C27.2596 5.44943 29.7 7.88977 29.7002 10.8994V23.499C29.7002 26.5088 27.2598 28.949 24.25 28.9492H7.4502C4.44024 28.9492 2 26.509 2 23.499V10.8994C2.00021 7.88964 4.44037 5.44922 7.4502 5.44922H8.15039L8.27734 5.45605ZM4.5 15.6494V23.499C4.5 25.1283 5.82096 26.4492 7.4502 26.4492H24.25C25.8791 26.449 27.2002 25.1281 27.2002 23.499V15.6494H4.5Z" fill="currentColor"/>
<path d="M15.8496 3C16.5399 3.00011 17.0996 3.55971 17.0996 4.25V5.4502H18.2998L18.4268 5.45605C19.0573 5.51984 19.5498 6.05282 19.5498 6.7002C19.5495 7.34729 19.0571 7.87957 18.4268 7.94336L18.2998 7.9502H17.0996V9.15039C17.0992 9.84032 16.5396 10.4003 15.8496 10.4004C15.1596 10.4003 14.6 9.84032 14.5996 9.15039V7.9502H13.3994C12.7093 7.95009 12.1497 7.39022 12.1494 6.7002C12.1494 6.0099 12.7091 5.4503 13.3994 5.4502H14.5996V4.25C14.5996 3.55971 15.1593 3.00011 15.8496 3Z" fill="currentColor"/>
</svg>
