<svg viewBox="0 0 16 16" fill="none" xmlns="http://www.w3.org/2000/svg">
<path d="M12.1201 10.5439C12.4983 10.5824 12.793 10.9017 12.793 11.29C12.7929 11.6783 12.4983 11.9977 12.1201 12.0361L12.043 12.04H10.667C10.2528 12.04 9.91702 11.7042 9.91699 11.29C9.91699 10.8758 10.2528 10.54 10.667 10.54H12.043L12.1201 10.5439Z" fill="currentColor"/>
<path d="M5 1.25C5.55721 1.25 6.05256 1.51123 6.37305 1.91699H13.333C14.4836 1.91699 15.417 2.84941 15.417 4V12C15.417 13.1506 14.4836 14.083 13.333 14.083H6.37305C6.05256 14.4888 5.55721 14.75 5 14.75H3C2.0335 14.75 1.25 13.9665 1.25 13V3C1.25 2.0335 2.0335 1.25 3 1.25H5ZM3 2.75C2.86193 2.75 2.75 2.86193 2.75 3V13C2.75 13.1381 2.86193 13.25 3 13.25H5C5.13807 13.25 5.25 13.1381 5.25 13V3C5.25 2.86193 5.13807 2.75 5 2.75H3ZM6.75 12.583H13.333C13.6552 12.583 13.917 12.3222 13.917 12V9.41699H6.75V12.583ZM6.75 7.91699H13.917V4C13.917 3.67783 13.6552 3.41699 13.333 3.41699H6.75V7.91699Z" fill="currentColor"/>
</svg>
