<svg viewBox="0 0 32 32" fill="none" xmlns="http://www.w3.org/2000/svg">
<path d="M10.667 4.08301C8.13591 4.08314 6.08318 6.13592 6.08301 8.66699V9.45508C3.82748 9.74182 2.08317 11.6666 2.08301 14V23.334C2.08345 25.8647 4.13524 27.9167 6.66602 27.917H20C22.5309 27.9168 24.5826 25.8648 24.583 23.334V22.584H25.333C27.864 22.584 29.9166 20.5319 29.917 18.001V8.66699C29.9168 6.13584 27.8642 4.08301 25.333 4.08301H10.667ZM22.083 17.251V23.334C22.0826 24.4841 21.1502 25.4168 20 25.417H6.66602C5.51596 25.4167 4.58345 24.484 4.58301 23.334V17.251H22.083ZM25.333 6.58398C26.4835 6.58398 27.4168 7.51655 27.417 8.66699V18.001C27.4166 19.1512 26.4833 20.084 25.333 20.084H24.583V14C24.5828 11.469 22.531 9.41717 20 9.41699H8.58301V8.66699C8.58318 7.51663 9.51662 6.58412 10.667 6.58398H25.333ZM20 11.917C21.1503 11.9172 22.0828 12.8497 22.083 14V14.751H4.58301V14C4.58318 12.8497 5.51579 11.9173 6.66602 11.917H20Z" fill="currentColor"/>
</svg>
