<svg viewBox="0 0 32 32" fill="none" xmlns="http://www.w3.org/2000/svg">
<path d="M22.377 19.043C22.8652 18.5551 23.6565 18.5549 24.1445 19.043C24.6324 19.5312 24.6326 20.3225 24.1445 20.8105L21.877 23.0771C21.3894 23.5641 20.5995 23.5644 20.1113 23.0781L18.748 21.7188L19.6309 20.834L20.5127 19.9482L20.9922 20.4258L22.377 19.043Z" fill="currentColor"/>
<path d="M18.7451 19.9512C19.2325 19.4624 20.0238 19.461 20.5127 19.9482L19.6309 20.834L18.748 21.7188C18.2592 21.2314 18.2578 20.4401 18.7451 19.9512Z" fill="currentColor"/>
<path d="M21.4453 14.3467C25.1169 14.3467 28.0935 17.3235 28.0938 20.9951C28.0937 24.6669 25.1171 27.6435 21.4453 27.6436C17.7737 27.6434 14.7969 24.6668 14.7969 20.9951C14.7971 17.3236 17.7738 14.3469 21.4453 14.3467ZM21.4453 16.8467C19.1545 16.8469 17.2971 18.7043 17.2969 20.9951C17.2969 23.2861 19.1544 25.1434 21.4453 25.1436C23.7364 25.1435 25.5937 23.2862 25.5938 20.9951C25.5935 18.7042 23.7362 16.8467 21.4453 16.8467Z" fill="currentColor"/>
<path d="M22.6445 4.75C24.9912 4.75004 26.8935 6.65237 26.8936 8.99902V13.1982C26.8933 13.8884 26.3337 14.4482 25.6436 14.4482C24.9535 14.4481 24.3938 13.8883 24.3936 13.1982V8.99902C24.3935 8.03308 23.6105 7.25004 22.6445 7.25H8.24902C7.84309 7.25002 7.45187 7.39141 7.14062 7.64648L7.0127 7.7627C6.68469 8.0907 6.50002 8.53516 6.5 8.99902V18.5967C6.50026 19.5624 7.28321 20.3457 8.24902 20.3457H12.4482C13.1386 20.3457 13.6982 20.9054 13.6982 21.5957C13.698 22.2859 13.1384 22.8457 12.4482 22.8457H8.24902C5.9025 22.8457 4.00026 20.9431 4 18.5967V8.99902C4.00002 7.87212 4.4473 6.79098 5.24414 5.99414L5.39746 5.84961C6.1769 5.14384 7.19255 4.75002 8.24902 4.75H22.6445Z" fill="currentColor"/>
<path d="M10.1768 16.7529C10.8068 16.8172 11.2987 17.3492 11.2988 17.9961C11.2988 18.6431 10.8069 19.176 10.1768 19.2402L10.0488 19.2461H8.84863C8.15842 19.2459 7.59864 18.6863 7.59863 17.9961C7.5988 17.306 8.15851 16.7463 8.84863 16.7461H10.0488L10.1768 16.7529Z" fill="currentColor"/>
<path d="M12.6006 10.6426C14.2148 9.1839 16.6787 9.18399 18.293 10.6426L18.4512 10.793L18.5371 10.8877C18.9378 11.3787 18.9089 12.1028 18.4512 12.5605C17.9934 13.0183 17.2693 13.0471 16.7783 12.6465L16.6836 12.5605L16.5508 12.4404C15.9096 11.9177 14.9839 11.9176 14.3428 12.4404L14.21 12.5605C13.5697 13.2008 13.5297 14.2144 14.0898 14.9014L14.21 15.0342L14.2959 15.1299C14.696 15.6208 14.6673 16.3442 14.21 16.8018C13.7522 17.2595 13.0281 17.2883 12.5371 16.8877L12.4424 16.8018L12.292 16.6436C10.7849 14.9756 10.8348 12.4005 12.4424 10.793L12.6006 10.6426Z" fill="currentColor"/>
<path d="M22.0449 8.34863C22.7351 8.34868 23.2948 8.90844 23.2949 9.59863C23.2949 10.289 22.7352 10.8486 22.0449 10.8486H20.8457C20.1554 10.8486 19.5957 10.289 19.5957 9.59863C19.5959 8.90841 20.1554 8.34863 20.8457 8.34863H22.0449Z" fill="currentColor"/>
</svg>
