<svg viewBox="0 0 16 16" fill="none" xmlns="http://www.w3.org/2000/svg">
<path d="M6.45703 7.91992C6.83488 7.95844 7.12955 8.27808 7.12988 8.66602C7.12988 9.0542 6.83502 9.37351 6.45703 9.41211L6.37988 9.41602H4.66699C4.25278 9.41602 3.91699 9.08023 3.91699 8.66602C3.91734 8.2521 4.253 7.91602 4.66699 7.91602H6.37988L6.45703 7.91992Z" fill="currentColor"/>
<path d="M12 2.58301C13.5188 2.58301 14.7499 3.81424 14.75 5.33301V10.666C14.75 12.1849 13.5189 13.416 12 13.416H4C2.48112 13.416 1.25 12.1849 1.25 10.666V5.33301C1.25013 3.81424 2.4812 2.58301 4 2.58301H12ZM2.75 6.75V10.666C2.75 11.3565 3.30955 11.916 4 11.916H12C12.6905 11.916 13.25 11.3565 13.25 10.666V6.75H2.75ZM4 4.08301C3.33757 4.08301 2.79778 4.59844 2.75488 5.25H13.2451C13.2022 4.59844 12.6624 4.08301 12 4.08301H4Z" fill="currentColor"/>
</svg>
