<svg viewBox="0 0 24 24" fill="none" xmlns="http://www.w3.org/2000/svg">
<path d="M8 3C6.067 3 4.5 4.567 4.5 6.5V7.03516C2.80383 7.27775 1.5 8.73675 1.5 10.5V17.5C1.5 19.433 3.067 21 5 21H15C16.933 21 18.5 19.433 18.5 17.5V17H19C20.933 17 22.5 15.433 22.5 13.5V6.5C22.5 4.567 20.933 3 19 3H8ZM16.5 13V17.5C16.5 18.3284 15.8284 19 15 19H5C4.17157 19 3.5 18.3284 3.5 17.5V13H16.5ZM19 5C19.8284 5 20.5 5.67157 20.5 6.5V13.5C20.5 14.3284 19.8284 15 19 15H18.5V10.5C18.5 8.567 16.933 7 15 7H6.5V6.5C6.5 5.67157 7.17157 5 8 5H19ZM15 9C15.8284 9 16.5 9.67157 16.5 10.5V11H3.5V10.5C3.5 9.67157 4.17157 9 5 9H15Z" fill="currentColor"/>
</svg>
