<svg viewBox="0 0 24 24" fill="none" xmlns="http://www.w3.org/2000/svg">
<path d="M6 3C3.79086 3 2 4.79086 2 7V11C2 11.5523 2.44772 12 3 12C3.55228 12 4 11.5523 4 11V10H20V16C20 17.1046 19.1046 18 18 18H12C11.4477 18 11 18.4477 11 19C11 19.5523 11.4477 20 12 20H18C20.2091 20 22 18.2091 22 16V7C22 4.79086 20.2091 3 18 3H6ZM18 5C19.1046 5 20 5.89543 20 7V8H4V7C4 5.89543 4.89543 5 6 5H18Z" fill="currentColor"/>
<path d="M8.63086 11.2246C8.23809 10.9043 7.65908 10.9269 7.29297 11.293C6.92685 11.6591 6.90426 12.2381 7.22461 12.6309L7.29297 12.707L7.58594 13H5.5L5.32031 13.0049C3.47083 13.0984 2 14.6273 2 16.5C2 18.433 3.567 20 5.5 20H8C8.55228 20 9 19.5523 9 19C9 18.4477 8.55228 18 8 18H5.5C4.67157 18 4 17.3284 4 16.5C4 15.7233 4.59028 15.0846 5.34668 15.0078L5.5 15H7.58594L7.29297 15.293L7.22461 15.3691C6.90426 15.7619 6.92685 16.3409 7.29297 16.707C7.65908 17.0731 8.23809 17.0957 8.63086 16.7754L8.70703 16.707L10.707 14.707C10.7346 14.6794 10.7595 14.65 10.7832 14.6201C10.8193 14.5745 10.852 14.5261 10.8799 14.4746C10.8873 14.4609 10.8937 14.4466 10.9004 14.4326C10.9222 14.3873 10.9422 14.3408 10.957 14.292C10.9632 14.2717 10.9678 14.251 10.9727 14.2305C10.9901 14.1564 11 14.0794 11 14C11 13.916 10.9883 13.8348 10.9688 13.7568C10.9646 13.7403 10.962 13.7234 10.957 13.707C10.942 13.6579 10.9215 13.6111 10.8994 13.5654C10.8804 13.5261 10.8595 13.4873 10.835 13.4502C10.7976 13.3935 10.7548 13.3408 10.707 13.293L8.70703 11.293L8.63086 11.2246Z" fill="currentColor"/>
</svg>
