<svg viewBox="0 0 24 24" fill="none" xmlns="http://www.w3.org/2000/svg">
<path d="M9.0498 15.8057C9.60209 15.8057 10.0498 16.2534 10.0498 16.8057C10.0497 17.3578 9.60201 17.8057 9.0498 17.8057H7.0498C6.4976 17.8057 6.04994 17.3578 6.0498 16.8057C6.0498 16.2534 6.49752 15.8057 7.0498 15.8057H9.0498Z" fill="currentColor"/>
<path d="M6.5 4.75C7.05228 4.75 7.5 5.19772 7.5 5.75C7.5 6.30228 7.05228 6.75 6.5 6.75H6C4.89543 6.75 4 7.64543 4 8.75V10.25H20V8.75C20 7.64543 19.1046 6.75 18 6.75H17.5C16.9477 6.75 16.5 6.30228 16.5 5.75C16.5 5.19772 16.9477 4.75 17.5 4.75H18C20.2091 4.75 22 6.54086 22 8.75V17.75C22 19.9591 20.2091 21.75 18 21.75H6C3.79086 21.75 2 19.9591 2 17.75V8.75C2 6.54086 3.79086 4.75 6 4.75H6.5ZM4 12.25V17.75C4 18.8546 4.89543 19.75 6 19.75H18C19.1046 19.75 20 18.8546 20 17.75V12.25H4Z" fill="currentColor"/>
<path d="M12 3C12.5523 3 13 3.44772 13 4V4.75H13.75C14.3023 4.75 14.75 5.19772 14.75 5.75C14.75 6.30228 14.3023 6.75 13.75 6.75H13V7.5C13 8.05228 12.5523 8.5 12 8.5C11.4477 8.5 11 8.05228 11 7.5V6.75H10.25C9.69772 6.75 9.25 6.30228 9.25 5.75C9.25 5.19772 9.69772 4.75 10.25 4.75H11V4C11 3.44772 11.4477 3 12 3Z" fill="currentColor"/>
</svg>
