<svg viewBox="0 0 24 24" fill="none" xmlns="http://www.w3.org/2000/svg">
<path d="M16.002 11C17.2011 11 18.3331 11.1924 19.2021 11.54C19.6339 11.7128 20.0501 11.9439 20.375 12.251C20.6767 12.5361 20.9503 12.9462 20.9922 13.4668C20.9981 13.5106 21.0029 13.5551 21.0029 13.6006V20.4043C21.0022 20.9882 20.7019 21.4438 20.375 21.7529C20.0501 22.06 19.6338 22.2911 19.2021 22.4639C18.3332 22.8115 17.2015 23.0039 16.002 23.0039C14.8022 23.0039 13.6698 22.8116 12.8008 22.4639C12.3691 22.2911 11.9528 22.06 11.6279 21.7529C11.3011 21.4438 11.0008 20.9882 11 20.4043V13.6006C11 13.5599 11.0021 13.5198 11.0068 13.4805L11.0137 13.3877C11.0756 12.9044 11.3415 12.5218 11.6279 12.251C11.953 11.9436 12.3699 11.7127 12.8018 11.54C13.671 11.1926 14.8031 11 16.002 11ZM19.0029 19.1348C18.1634 19.4349 17.1121 19.6025 16.002 19.6025C14.8916 19.6025 13.8396 19.435 13 19.1348V20.2979L13.002 20.2998C13.0822 20.3756 13.2519 20.4896 13.5439 20.6064C14.123 20.8381 14.9916 21.0039 16.002 21.0039C17.012 21.0039 17.88 20.838 18.459 20.6064C18.7509 20.4896 18.9207 20.3756 19.001 20.2998L19.0029 20.2979V19.1348ZM19.0029 15.7324C18.1632 16.0328 17.1116 16.2011 16.001 16.2012C14.8909 16.2012 13.8394 16.0335 13 15.7334V16.8955C13.001 16.8964 13.0019 16.8975 13.0029 16.8984C13.0829 16.9741 13.2521 17.0883 13.5439 17.2051C14.1228 17.4367 14.9917 17.6025 16.002 17.6025C17.012 17.6025 17.8809 17.4367 18.46 17.2051C18.752 17.0882 18.922 16.9741 19.002 16.8984L19.0029 16.8975V15.7324ZM16.002 13C14.9921 13 14.1233 13.1659 13.5439 13.3975C13.3663 13.4685 13.2341 13.5386 13.1396 13.5996C13.234 13.6607 13.3652 13.7325 13.543 13.8037C14.1218 14.0354 14.9906 14.2012 16.001 14.2012C17.0111 14.2011 17.8799 14.0354 18.459 13.8037C18.6363 13.7328 18.767 13.6606 18.8613 13.5996C18.7669 13.5388 18.6356 13.4681 18.459 13.3975C17.8798 13.1658 17.0115 13 16.002 13Z" fill="currentColor"/>
<path d="M15.002 1.99707C15.7711 1.99699 16.5088 2.30181 17.0527 2.8457C17.5966 3.38961 17.9024 4.12732 17.9023 4.89648V8.99902C17.9021 9.55103 17.4544 9.99889 16.9023 9.99902C16.3502 9.99897 15.9026 9.55108 15.9023 8.99902V4.89648L15.8984 4.80762C15.878 4.60148 15.7864 4.40753 15.6387 4.25977C15.4909 4.11201 15.297 4.02037 15.0908 4L15.002 3.99609H5.89746C5.65876 3.99599 5.42959 4.09105 5.26074 4.25977C5.09193 4.42858 4.99703 4.65775 4.99707 4.89648V18.1025L5.00098 18.1914C5.02127 18.3977 5.11294 18.5914 5.26074 18.7393C5.42961 18.9081 5.65864 19.003 5.89746 19.0029H8.99902L9.10156 19.0088C9.60546 19.0602 9.99878 19.4855 9.99902 20.0029C9.99902 20.5206 9.60561 20.9466 9.10156 20.998L8.99902 21.0029H5.89746C5.12821 21.003 4.39064 20.6973 3.84668 20.1533C3.3026 19.6092 2.99673 18.8711 2.99707 18.1016V4.89648C2.99702 4.12732 3.30278 3.38961 3.84668 2.8457C4.39062 2.30189 5.12832 1.99695 5.89746 1.99707H15.002Z" fill="currentColor"/>
<path d="M8.10059 16.0078C8.60481 16.059 8.99794 16.4843 8.99805 17.002C8.99805 17.5198 8.6049 17.9459 8.10059 17.9971L7.99805 18.002H6.99805C6.44576 18.002 5.99805 17.5542 5.99805 17.002C5.99816 16.4498 6.44583 16.002 6.99805 16.002H7.99805L8.10059 16.0078Z" fill="currentColor"/>
<path d="M8.26367 9.1123C9.54101 7.83535 11.5869 7.79475 12.9121 8.99219L13.0381 9.1123L13.1064 9.1875C13.4268 9.58015 13.4039 10.1602 13.0381 10.5264C12.6719 10.8925 12.092 10.9151 11.6992 10.5947L11.624 10.5264L11.5195 10.4316C10.9791 9.9907 10.1817 10.0228 9.67773 10.5264C9.17383 11.0303 9.14196 11.8276 9.58301 12.3682L9.67773 12.4727L9.74609 12.5479C10.0665 12.9405 10.0435 13.5205 9.67773 13.8867C9.31159 14.2529 8.73164 14.2755 8.33887 13.9551L8.26367 13.8867L8.14356 13.7607C6.94601 12.4354 6.98636 10.3896 8.26367 9.1123Z" fill="currentColor"/>
<path d="M14.1035 5.00293C14.6074 5.05429 15.0007 5.47969 15.001 5.99707C15.001 6.5147 14.6076 6.9408 14.1035 6.99219L14.001 6.99707H13.001C12.4487 6.99707 12.001 6.54936 12.001 5.99707C12.0013 5.44505 12.4489 4.99707 13.001 4.99707H14.001L14.1035 5.00293Z" fill="currentColor"/>
</svg>
