<svg viewBox="0 0 24 24" fill="none" xmlns="http://www.w3.org/2000/svg">
<path d="M18 3C20.2091 3 22 4.79086 22 7V11C22 11.5523 21.5523 12 21 12C20.4477 12 20 11.5523 20 11V10H4V16C4 17.1046 4.89543 18 6 18H12C12.5523 18 13 18.4477 13 19C13 19.5523 12.5523 20 12 20H6C3.79086 20 2 18.2091 2 16V7C2 4.79086 3.79086 3 6 3H18ZM6 5C4.89543 5 4 5.89543 4 7V8H20V7C20 5.89543 19.1046 5 18 5H6Z" fill="currentColor"/>
<path d="M15.3691 11.2246C15.7619 10.9043 16.3409 10.9269 16.707 11.293C17.0731 11.6591 17.0957 12.2381 16.7754 12.6309L16.707 12.707L16.4141 13H18.5L18.6797 13.0049C20.5292 13.0984 22 14.6273 22 16.5C22 18.433 20.433 20 18.5 20H16C15.4477 20 15 19.5523 15 19C15 18.4477 15.4477 18 16 18H18.5C19.3284 18 20 17.3284 20 16.5C20 15.7233 19.4097 15.0846 18.6533 15.0078L18.5 15H16.4141L16.707 15.293L16.7754 15.3691C17.0957 15.7619 17.0731 16.3409 16.707 16.707C16.3409 17.0731 15.7619 17.0957 15.3691 16.7754L15.293 16.707L13.293 14.707C13.2654 14.6794 13.2405 14.65 13.2168 14.6201C13.1807 14.5745 13.148 14.5261 13.1201 14.4746C13.1127 14.4609 13.1063 14.4466 13.0996 14.4326C13.0778 14.3873 13.0578 14.3408 13.043 14.292C13.0368 14.2717 13.0322 14.251 13.0273 14.2305C13.0099 14.1564 13 14.0794 13 14C13 13.916 13.0117 13.8348 13.0312 13.7568C13.0354 13.7403 13.038 13.7234 13.043 13.707C13.058 13.6579 13.0785 13.6111 13.1006 13.5654C13.1196 13.5261 13.1405 13.4873 13.165 13.4502C13.2024 13.3935 13.2452 13.3408 13.293 13.293L15.293 11.293L15.3691 11.2246Z" fill="currentColor"/>
</svg>
