<svg viewBox="0 0 32 32" fill="none" xmlns="http://www.w3.org/2000/svg">
<path d="M22.5 28V24.9541L22.3936 25.0605C21.8078 25.6462 20.8582 25.6463 20.2725 25.0605C19.6869 24.4748 19.6869 23.5252 20.2725 22.9395L22.9395 20.2725L23.0498 20.1729C23.3167 19.9543 23.6521 19.833 24 19.833C24.3977 19.833 24.7793 19.9913 25.0605 20.2725L27.7275 22.9395C28.313 23.5252 28.313 24.4748 27.7275 25.0605C27.1417 25.6463 26.1912 25.6464 25.6055 25.0605L25.5 24.9541V28C25.5 28.8284 24.8283 29.4999 24 29.5C23.1716 29.5 22.5 28.8284 22.5 28ZM12.166 16.0039C12.9944 16.0039 13.666 16.6755 13.666 17.5039C13.666 18.3323 12.9944 19.0039 12.166 19.0039H9.5C8.67157 19.0039 8 18.3323 8 17.5039C8.00003 16.6755 8.67159 16.0039 9.5 16.0039H12.166ZM26 10.4639C25.9998 9.05532 24.9083 8.00018 23.667 8H8.33301C7.0917 8.00018 6.00022 9.05532 6 10.4639V11H26V10.4639ZM29 17.0713C29 17.8997 28.3284 18.5713 27.5 18.5713C26.6716 18.5713 26 17.8997 26 17.0713V14H6V21.0361C6.00022 22.4447 7.0917 23.4998 8.33301 23.5H16C16.8284 23.5 17.5 24.1716 17.5 25C17.5 25.8284 16.8284 26.5 16 26.5H8.33301C5.34069 26.4998 3.00022 24.0058 3 21.0361V10.4639C3.00022 7.49421 5.34069 5.00018 8.33301 5H23.667C26.6593 5.00018 28.9998 7.49421 29 10.4639V17.0713Z" fill="currentColor"/>
</svg>
