<svg viewBox="0 0 16 16" fill="none" xmlns="http://www.w3.org/2000/svg">
<path d="M11.5293 9.37891C11.8239 9.13881 12.2587 9.15602 12.5332 9.43066C12.8257 9.72367 12.8251 10.1985 12.5322 10.4912L11.3994 11.624C11.107 11.9162 10.6328 11.9165 10.3398 11.625L9.6582 10.9453L9.60645 10.8887C9.36587 10.5945 9.38317 10.1597 9.65723 9.88477C9.93141 9.61003 10.3653 9.59232 10.6602 9.83203L10.7178 9.88281L10.8682 10.0332L11.4727 9.43066L11.5293 9.37891Z" fill="currentColor"/>
<path d="M11.0947 7.04688C12.999 7.047 14.5438 8.59083 14.5439 10.4951C14.5437 12.3993 12.9989 13.9432 11.0947 13.9434C9.19063 13.9431 7.64671 12.3992 7.64648 10.4951C7.64659 8.59091 9.19055 7.04712 11.0947 7.04688ZM11.0947 8.54688C10.019 8.54712 9.14659 9.41934 9.14648 10.4951C9.14671 11.5708 10.0191 12.4431 11.0947 12.4434C12.1705 12.4432 13.0437 11.5709 13.0439 10.4951C13.0438 9.41926 12.1706 8.547 11.0947 8.54688Z" fill="currentColor"/>
<path d="M11.6943 2.25C12.9363 2.25013 13.9433 3.257 13.9434 4.49902V6.59766C13.9431 7.0116 13.6073 7.34753 13.1934 7.34766C12.7794 7.34751 12.4436 7.01159 12.4434 6.59766V4.49902C12.4433 4.08542 12.1079 3.75013 11.6943 3.75H4.49902C4.34989 3.75001 4.20524 3.79437 4.08301 3.87598L3.96973 3.96973C3.82932 4.11018 3.75001 4.30042 3.75 4.49902V9.2959C3.75023 9.70939 4.08549 10.0449 4.49902 10.0449H6.59766C7.01169 10.045 7.34755 10.3809 7.34766 10.7949C7.34743 11.2089 7.01162 11.5448 6.59766 11.5449H4.49902C3.25706 11.5449 2.25023 10.5378 2.25 9.2959V4.49902C2.25001 3.90259 2.48747 3.33094 2.90918 2.90918L3.07324 2.75977C3.47352 2.43161 3.9769 2.25001 4.49902 2.25H11.6943Z" fill="currentColor"/>
<path d="M5.47559 8.25C5.85341 8.28871 6.14836 8.60807 6.14844 8.99609C6.14822 9.38402 5.85334 9.70351 5.47559 9.74219L5.39844 9.74609H4.79883C4.38478 9.74607 4.04906 9.4101 4.04883 8.99609C4.04891 8.58197 4.38469 8.24612 4.79883 8.24609H5.39844L5.47559 8.25Z" fill="currentColor"/>
<path d="M6.67773 5.15332C7.50235 4.48078 8.69211 4.48054 9.5166 5.15332L9.6875 5.30762L9.73828 5.36426C9.97833 5.65882 9.96197 6.09365 9.6875 6.36816C9.41298 6.64259 8.97814 6.65899 8.68359 6.41895L8.56934 6.31641C8.29475 6.0926 7.89856 6.09251 7.62402 6.31641L7.56738 6.36816C7.2933 6.64236 7.27585 7.07595 7.51562 7.37012L7.56738 7.42676L7.61816 7.48438C7.85821 7.77895 7.84189 8.21377 7.56738 8.48828C7.29285 8.76264 6.85799 8.77909 6.56348 8.53906L6.50684 8.48828L6.35254 8.31738C5.63174 7.43404 5.6834 6.13117 6.50684 5.30762L6.67773 5.15332Z" fill="currentColor"/>
<path d="M11.3945 4.04883C11.8086 4.04895 12.1445 4.38471 12.1445 4.79883C12.1443 5.21277 11.8085 5.5487 11.3945 5.54883H10.7949C10.3809 5.54872 10.0452 5.21278 10.0449 4.79883C10.0449 4.3847 10.3808 4.04894 10.7949 4.04883H11.3945Z" fill="currentColor"/>
</svg>
