<svg viewBox="0 0 16 16" fill="none" xmlns="http://www.w3.org/2000/svg">
<path d="M11.25 14V12.4775L11.1973 12.5303C10.9044 12.8231 10.4296 12.823 10.1367 12.5303C9.84383 12.2374 9.84383 11.7626 10.1367 11.4697L11.4697 10.1367L11.5264 10.085C11.8209 9.84453 12.2556 9.86209 12.5303 10.1367L13.8643 11.4697C14.1568 11.7626 14.1568 12.2374 13.8643 12.5303C13.5714 12.8232 13.0956 12.8231 12.8027 12.5303L12.75 12.4775V14C12.75 14.4142 12.4142 14.75 12 14.75C11.5859 14.7499 11.25 14.4141 11.25 14ZM6.08008 8C6.49428 8 6.83005 8.33581 6.83008 8.75C6.83008 9.16421 6.49429 9.5 6.08008 9.5H4.74707C4.33286 9.5 3.99707 9.16421 3.99707 8.75C3.9971 8.33581 4.33287 8 4.74707 8H6.08008ZM13.25 8.66699V6.75H2.75V10.7539C2.75017 11.4441 3.30975 12.0039 4 12.0039H8C8.41421 12.0039 8.75 12.3397 8.75 12.7539C8.74983 13.168 8.41411 13.5039 8 13.5039H4C2.48132 13.5039 1.25017 12.2725 1.25 10.7539V5.25293C1.25 3.73415 2.48122 2.50293 4 2.50293H12C13.5188 2.50293 14.75 3.73415 14.75 5.25293V8.66699C14.7499 9.08111 14.4141 9.41699 14 9.41699C13.5859 9.41699 13.2501 9.08111 13.25 8.66699ZM4 4.00293C3.31062 4.00293 2.75158 4.56099 2.75 5.25H13.25C13.2484 4.56099 12.6894 4.00293 12 4.00293H4Z" fill="currentColor"/>
</svg>
