<svg viewBox="0 0 16 16" fill="none" xmlns="http://www.w3.org/2000/svg">
<path d="M5.33398 1.91699C3.9993 1.91699 2.91699 2.9993 2.91699 4.33398V4.62109C1.78109 4.81865 0.91711 5.80761 0.916992 7V11.667C0.917169 13.0015 1.9994 14.084 3.33398 14.084H10C11.3344 14.0838 12.4168 13.0014 12.417 11.667V11.417H12.667C14.0014 11.4168 15.0839 10.3345 15.084 9V4.33398C15.084 2.99942 14.0015 1.91719 12.667 1.91699H5.33398ZM10.917 8.75V11.667C10.9168 12.173 10.506 12.5838 10 12.584H3.33398C2.82783 12.584 2.41717 12.1731 2.41699 11.667V8.75H10.917ZM12.667 3.41699C13.1731 3.41719 13.584 3.82785 13.584 4.33398V9C13.5839 9.50603 13.173 9.91679 12.667 9.91699H12.417V7C12.4169 5.66555 11.3344 4.58418 10 4.58398H4.41699V4.33398C4.41699 3.82772 4.82772 3.41699 5.33398 3.41699H12.667ZM10 6.08398C10.506 6.08418 10.9169 6.49397 10.917 7V7.25H2.41699V7C2.41712 6.49385 2.8278 6.08398 3.33398 6.08398H10Z" fill="currentColor"/>
</svg>
