<svg viewBox="0 0 32 32" fill="none" xmlns="http://www.w3.org/2000/svg">
<path d="M24.25 4C27.2598 4.00021 29.7002 6.44037 29.7002 9.4502V15.0498C29.7 15.7398 29.1402 16.2995 28.4502 16.2998C27.76 16.2998 27.2004 15.74 27.2002 15.0498V13.5H4.5V22.0498C4.50021 23.6789 5.82109 25 7.4502 25H15.8496L15.9775 25.0068C16.6078 25.0709 17.0996 25.6029 17.0996 26.25C17.0994 26.897 16.6077 27.4291 15.9775 27.4932L15.8496 27.5H7.4502C4.44037 27.5 2.00021 25.0596 2 22.0498V9.4502C2 6.44024 4.44024 4 7.4502 4H24.25ZM7.4502 6.5C5.82096 6.5 4.5 7.82096 4.5 9.4502V11H27.2002V9.4502C27.2002 7.82109 25.8791 6.50021 24.25 6.5H7.4502Z" fill="currentColor"/>
<path d="M20.6602 15.4795C21.151 15.0791 21.8753 15.1081 22.333 15.5654C22.7907 16.0231 22.8194 16.7473 22.4189 17.2383L22.333 17.333L21.666 18H24.9492L25.1943 18.0059C27.7039 18.1333 29.6992 20.2088 29.6992 22.75C29.699 25.3732 27.5724 27.5 24.9492 27.5H21.4492C20.7592 27.4998 20.1994 26.94 20.1992 26.25C20.1992 25.5598 20.759 25.0002 21.4492 25H24.9492C26.1917 25 27.199 23.9925 27.1992 22.75C27.1992 21.5851 26.3142 20.627 25.1797 20.5117L24.9492 20.5H21.668L22.333 21.165L22.4189 21.2607C22.8192 21.7516 22.7904 22.475 22.333 22.9326C21.8752 23.3904 21.1511 23.4193 20.6602 23.0186L20.5654 22.9326L17.7754 20.1426C17.7147 20.0832 17.6599 20.0179 17.6123 19.9473C17.5978 19.9257 17.5853 19.9031 17.5723 19.8809C17.5638 19.8665 17.5547 19.8526 17.5469 19.8379C17.538 19.8213 17.5305 19.804 17.5225 19.7871C17.513 19.7673 17.5026 19.7479 17.4941 19.7275C17.4854 19.7064 17.4782 19.6846 17.4707 19.6631C17.465 19.6469 17.4591 19.6308 17.4541 19.6143C17.4494 19.5987 17.4455 19.583 17.4414 19.5674C17.425 19.5049 17.4118 19.4409 17.4053 19.375C17.3931 19.2533 17.3995 19.1301 17.4229 19.0098C17.4276 18.9853 17.4343 18.9614 17.4404 18.9375C17.445 18.9196 17.4487 18.9015 17.4541 18.8838C17.4591 18.8673 17.465 18.8511 17.4707 18.835C17.4783 18.8134 17.4854 18.7917 17.4941 18.7705C17.5026 18.7502 17.513 18.7307 17.5225 18.7109C17.5305 18.694 17.538 18.6768 17.5469 18.6602C17.5547 18.6455 17.5638 18.6315 17.5723 18.6172C17.604 18.5632 17.6392 18.5106 17.6797 18.4609C17.6962 18.4407 17.7138 18.4215 17.7314 18.4023C17.7428 18.3901 17.7537 18.3771 17.7656 18.3652L20.5654 15.5654L20.6602 15.4795Z" fill="currentColor"/>
</svg>
