<svg viewBox="0 0 32 32" fill="none" xmlns="http://www.w3.org/2000/svg">
<path d="M18.6699 2C19.3598 2.00037 19.9197 2.56004 19.9199 3.25C19.9199 3.94013 19.3599 4.49963 18.6699 4.5H16.6582C15.1273 4.50015 13.8869 5.74173 13.8867 7.27246V17.6611L16.0302 15.5186L16.1591 15.3965C17.5161 14.1712 19.6105 14.2121 20.9179 15.5195L21.125 15.7451C22.0364 16.8329 22.189 18.3737 21.5087 19.6191L21.3496 19.8809L19.8632 22.1104H23.3623C24.8931 22.1101 26.1346 20.8696 26.1347 19.3389V11.9648C26.1349 11.2747 26.6945 10.7148 27.3847 10.7148C28.0747 10.7152 28.6345 11.2749 28.6347 11.9648V19.3389C28.6346 22.2504 26.2737 24.6101 23.3623 24.6104H18.1953L17.3066 25.9434C16.593 27.0134 15.5835 27.8513 14.4043 28.3555L14.1669 28.4512L10.4013 29.8916C9.75649 30.1381 9.03361 29.8148 8.78706 29.1699C8.54078 28.5252 8.86404 27.8022 9.50874 27.5557L13.2734 26.1162L13.5673 25.9912C14.2381 25.673 14.8124 25.1776 15.2265 24.5566L19.2695 18.4941L19.3505 18.3467C19.4836 18.0423 19.4489 17.6884 19.2587 17.416L19.1503 17.2871C18.8002 16.937 18.2458 16.9154 17.8701 17.2217L17.7978 17.2871L14.8603 20.2227C14.626 20.4568 14.3077 20.5888 13.9765 20.5889H11.2959C10.6056 20.5889 10.046 20.0291 10.0459 19.3389C10.0461 18.6487 10.6056 18.0889 11.2959 18.0889H11.3867V13.8848H10.9043C10.5277 13.8848 10.1554 13.9623 9.8105 14.1104L9.66402 14.1777L8.87984 14.5703C8.46732 14.7766 8.11321 15.0821 7.84956 15.458L7.74214 15.623L4.3232 21.3223L4.25191 21.4287C3.87278 21.9364 3.16242 22.0839 2.60738 21.751C2.01577 21.3957 1.82364 20.6279 2.17866 20.0361L5.59859 14.3369L5.80269 14.0225C6.30413 13.3075 6.9771 12.7263 7.76167 12.334L8.54683 11.9414L8.82417 11.8125C9.48021 11.5309 10.1882 11.3848 10.9043 11.3848H11.3867V7.27246C11.3869 4.36096 13.7467 2.00015 16.6582 2H18.6699Z" fill="currentColor"/>
<path d="M26.0439 6.02246C26.7339 6.02277 27.2937 6.58247 27.2939 7.27246C27.2937 7.96249 26.7339 8.52215 26.0439 8.52246H23.3623C22.672 8.52246 22.1124 7.96268 22.1123 7.27246C22.1125 6.58227 22.672 6.02246 23.3623 6.02246H26.0439Z" fill="currentColor"/>
<path d="M28.8535 2.00684C29.4833 2.07122 29.9754 2.60324 29.9755 3.25C29.9755 3.8969 29.4834 4.42873 28.8535 4.49316L28.7255 4.5H23.3623C22.6719 4.5 22.1123 3.94036 22.1123 3.25C22.1125 2.55981 22.672 2 23.3623 2H28.7255L28.8535 2.00684Z" fill="currentColor"/>
</svg>
