<svg viewBox="0 0 32 32" fill="none" xmlns="http://www.w3.org/2000/svg">
<path d="M12.8877 16.0898C13.5179 16.1539 14.0098 16.6868 14.0098 17.334C14.0094 17.9808 13.5176 18.5131 12.8877 18.5771L12.7598 18.584H9.33301C8.64309 18.5838 8.08345 18.0238 8.08301 17.334C8.08301 16.6438 8.64282 16.0842 9.33301 16.084H12.7598L12.8877 16.0898Z" fill="currentColor"/>
<path d="M24 5.41602C26.8997 5.41602 29.25 7.7673 29.25 10.667V21.334C29.2496 24.2333 26.8994 26.584 24 26.584H8C5.10058 26.584 2.75044 24.2333 2.75 21.334V10.667C2.75 7.7673 5.10031 5.41602 8 5.41602H24ZM5.25 13.251V21.334C5.25044 22.8526 6.48129 24.084 8 24.084H24C25.5187 24.084 26.7496 22.8526 26.75 21.334V13.251H5.25ZM8 7.91699C6.48102 7.91699 5.25 9.14802 5.25 10.667V10.751H26.75V10.667C26.75 9.14802 25.519 7.91699 24 7.91699H8Z" fill="currentColor"/>
</svg>
