<svg viewBox="0 0 16 16" fill="none" xmlns="http://www.w3.org/2000/svg">
<path d="M11.25 10.667C11.25 10.2528 11.5858 9.91699 12 9.91699C12.4142 9.91699 12.75 10.2528 12.75 10.667V12.1895L12.8027 12.1367C13.0956 11.8438 13.5704 11.8438 13.8633 12.1367C14.1562 12.4296 14.1562 12.9044 13.8633 13.1973L12.5303 14.5303C12.2374 14.8232 11.7626 14.8232 11.4697 14.5303L10.1367 13.1973C9.84383 12.9044 9.84383 12.4296 10.1367 12.1367C10.4296 11.8438 10.9044 11.8438 11.1973 12.1367L11.25 12.1895V10.667ZM6.08008 8C6.49427 8 6.83005 8.33581 6.83008 8.75C6.83008 9.16421 6.49429 9.5 6.08008 9.5H4.74707C4.33286 9.5 3.99707 9.16421 3.99707 8.75C3.9971 8.33581 4.33288 8 4.74707 8H6.08008ZM13.25 8.66699V6.75H2.75V10.7539C2.75017 11.4441 3.30975 12.0039 4 12.0039H8C8.41421 12.0039 8.75 12.3397 8.75 12.7539C8.74983 13.168 8.41411 13.5039 8 13.5039H4C2.48132 13.5039 1.25017 12.2725 1.25 10.7539V5.25293C1.25 3.73415 2.48122 2.50293 4 2.50293H12C13.5188 2.50293 14.75 3.73415 14.75 5.25293V8.66699C14.7499 9.08111 14.4141 9.41699 14 9.41699C13.5859 9.41699 13.2501 9.08111 13.25 8.66699ZM4 4.00293C3.31062 4.00293 2.75158 4.56099 2.75 5.25H13.25C13.2484 4.56099 12.6894 4.00293 12 4.00293H4Z" fill="currentColor"/>
</svg>
