<svg viewBox="0 0 32 32" fill="none" xmlns="http://www.w3.org/2000/svg">
<path d="M20.6196 19.6147C20.6196 18.8554 20.004 18.2397 19.2446 18.2397C18.4852 18.2397 17.8696 18.8554 17.8696 19.6147C17.8696 20.3741 18.4852 20.9897 19.2446 20.9897C20.004 20.9897 20.6196 20.3741 20.6196 19.6147Z" fill="currentColor"/>
<path d="M6 24L5.79395 23.9951C3.7488 23.8913 2.10865 22.2512 2.00488 20.2061L2 20V12V9V7C2 4.79086 3.79086 3 6 3H24C26.2091 3 28 4.79086 28 7V9V12V16.5225C29.2479 18.0018 30 19.9131 30 22C30 26.6944 26.1944 30.5 21.5 30.5C17.4945 30.5 14.136 27.7294 13.2366 24H6ZM24 6H6C5.44772 6 5 6.44772 5 7V9H25V7C25 6.44772 24.5523 6 24 6ZM6 21H13.0582C13.5531 16.7768 17.1439 13.5 21.5 13.5C22.7477 13.5 23.9326 13.7688 25 14.2517V12H5V20C5 20.5523 5.44772 21 6 21ZM21.5 16.5C18.4624 16.5 16 18.9624 16 22C16 25.0376 18.4624 27.5 21.5 27.5C24.5376 27.5 27 25.0376 27 22C27 18.9624 24.5376 16.5 21.5 16.5Z" fill="currentColor"/>
<path d="M25.1558 24.3633C25.1558 25.1227 24.5402 25.7383 23.7808 25.7383C23.0214 25.7383 22.4058 25.1227 22.4058 24.3633C22.4058 23.6039 23.0214 22.9883 23.7808 22.9883C24.5402 22.9883 25.1558 23.6039 25.1558 24.3633Z" fill="currentColor"/>
<path d="M22.6161 19.2222C23.1043 18.734 23.8955 18.734 24.3837 19.2222C24.8718 19.7103 24.8718 20.5016 24.3837 20.9897L20.3837 24.9897C19.8955 25.4779 19.1043 25.4779 18.6161 24.9897C18.128 24.5016 18.128 23.7103 18.6161 23.2222L22.6161 19.2222Z" fill="currentColor"/>
</svg>
