<svg viewBox="0 0 16 16" fill="none" xmlns="http://www.w3.org/2000/svg">
<path d="M9.1095 1.98047C9.52342 1.98064 9.85925 2.31657 9.8595 2.73047C9.8595 3.14458 9.52357 3.4803 9.1095 3.48047H8.27747C7.77305 3.48051 7.36365 3.89006 7.36341 4.39453V8.12988L7.85266 7.64062L7.97864 7.52637C8.63159 6.99408 9.59558 7.03231 10.2042 7.64062L10.3038 7.75C10.742 8.27333 10.8147 9.01428 10.4874 9.61328L10.4113 9.73926L10.0372 10.2998H11.0499C11.5545 10.2998 11.9639 9.8904 11.964 9.38574V6.33496C11.9645 5.92116 12.3001 5.585 12.714 5.58496C13.1279 5.585 13.4635 5.92116 13.464 6.33496V9.38574C13.4639 10.7188 12.383 11.7998 11.0499 11.7998H9.03724L8.73938 12.2471C8.4404 12.6954 8.0255 13.0526 7.54114 13.2822L7.3302 13.373L5.77259 13.9688L5.69934 13.9922C5.33249 14.0914 4.94265 13.8986 4.80384 13.5361C4.65622 13.1494 4.8498 12.7153 5.23645 12.5674L6.79407 11.9717L6.89856 11.9268C7.13809 11.8132 7.34346 11.6368 7.49134 11.415L9.16321 8.90723L9.18665 8.85547C9.19527 8.81972 9.19141 8.7814 9.17591 8.74805L9.14368 8.70215C9.09603 8.65471 9.02557 8.64222 8.96692 8.66602L8.91321 8.70215L7.69837 9.91602C7.55772 10.0566 7.36696 10.1357 7.16809 10.1357H6.05872C5.64471 10.1355 5.30877 9.79978 5.30872 9.38574C5.30893 9.03965 5.54453 8.7503 5.86341 8.66406V7.36426C5.76867 7.36777 5.67494 7.38482 5.58606 7.41699L5.48841 7.45898L5.16419 7.62109C5.04769 7.67935 4.94497 7.762 4.86341 7.8623L4.78919 7.96875L3.37513 10.3262C3.16202 10.6814 2.70102 10.7961 2.34583 10.583C1.99103 10.3699 1.87532 9.90971 2.08802 9.55469L3.50306 7.19727L3.59681 7.05273C3.82636 6.72556 4.13421 6.45884 4.49329 6.2793L4.81751 6.11719L4.94544 6.05859C5.23536 5.93418 5.54726 5.86772 5.86341 5.86328V4.39453C5.86365 3.06169 6.94456 1.98051 8.27747 1.98047H9.1095Z" fill="currentColor"/>
<path d="M12.1593 3.79395C12.5734 3.79395 12.9091 4.12994 12.9093 4.54395C12.9091 4.95796 12.5734 5.29395 12.1593 5.29395H11.0499C10.636 5.29376 10.3002 4.95785 10.2999 4.54395C10.3002 4.13006 10.636 3.79413 11.0499 3.79395H12.1593Z" fill="currentColor"/>
<path d="M13.3449 1.98438C13.7231 2.02262 14.0184 2.34224 14.0187 2.73047C14.0187 3.11891 13.7232 3.43831 13.3449 3.47656L13.2687 3.48047H11.0499C10.6359 3.48028 10.2999 3.14457 10.2999 2.73047C10.3002 2.31658 10.636 1.98065 11.0499 1.98047H13.2687L13.3449 1.98438Z" fill="currentColor"/>
</svg>
