<svg viewBox="0 0 24 24" fill="none" xmlns="http://www.w3.org/2000/svg">
<path d="M17 21V18.4141L16.707 18.707C16.3165 19.0976 15.6835 19.0976 15.293 18.707C14.9024 18.3165 14.9024 17.6835 15.293 17.293L17.293 15.293L17.3691 15.2246C17.7619 14.9043 18.3409 14.9269 18.707 15.293L20.707 17.293C21.0976 17.6835 21.0976 18.3165 20.707 18.707C20.3165 19.0976 19.6835 19.0976 19.293 18.707L19 18.4141V21C19 21.5523 18.5523 22 18 22C17.4477 22 17 21.5523 17 21ZM9 12C9.55228 12 10 12.4477 10 13C10 13.5523 9.55228 14 9 14H7C6.44772 14 6 13.5523 6 13C6 12.4477 6.44772 12 7 12H9ZM20 8C20 6.89543 19.1046 6 18 6H6C4.89543 6 4 6.89543 4 8H20ZM22 13C22 13.5523 21.5523 14 21 14C20.4477 14 20 13.5523 20 13V10H4V16C4 17.1046 4.89543 18 6 18H12C12.5523 18 13 18.4477 13 19C13 19.5523 12.5523 20 12 20H6C3.79086 20 2 18.2091 2 16V8C2 5.79086 3.79086 4 6 4H18C20.2091 4 22 5.79086 22 8V13Z" fill="currentColor"/>
</svg>
