<svg viewBox="0 0 24 24" fill="none" xmlns="http://www.w3.org/2000/svg">
<path d="M9.67188 12.0049C10.1763 12.0559 10.5703 12.4821 10.5703 13C10.5703 13.5179 10.1763 13.9441 9.67188 13.9951L9.57031 14H7C6.44772 14 6 13.5523 6 13C6 12.4477 6.44772 12 7 12H9.57031L9.67188 12.0049Z" fill="currentColor"/>
<path d="M18 4C20.2093 4 22 5.79072 22 8V16C22 18.2093 20.2093 20 18 20H6C3.79072 20 2 18.2093 2 16V8C2 5.79072 3.79072 4 6 4H18ZM4 10V16C4 17.1047 4.89528 18 6 18H18C19.1047 18 20 17.1047 20 16V10H4ZM6 6C4.89528 6 4 6.89528 4 8H20C20 6.89528 19.1047 6 18 6H6Z" fill="currentColor"/>
</svg>
