<svg viewBox="0 0 32 32" fill="none" xmlns="http://www.w3.org/2000/svg">
<path d="M22.5 21.333C22.5002 20.5047 23.1717 19.833 24 19.833C24.8283 19.833 25.4998 20.5047 25.5 21.333V24.3789L25.6064 24.2725C26.1923 23.687 27.1419 23.6868 27.7275 24.2725C28.3132 24.8581 28.313 25.8077 27.7275 26.3936L25.0605 29.0605C24.4748 29.6463 23.5252 29.6463 22.9395 29.0605L20.2725 26.3936C19.687 25.8077 19.6868 24.8581 20.2725 24.2725C20.8581 23.6868 21.8077 23.687 22.3936 24.2725L22.5 24.3789V21.333ZM12.166 16.0039C12.9944 16.0039 13.666 16.6755 13.666 17.5039C13.666 18.3323 12.9944 19.0039 12.166 19.0039H9.5C8.67157 19.0039 8 18.3323 8 17.5039C8.00003 16.6755 8.67159 16.0039 9.5 16.0039H12.166ZM26 10.4639C25.9998 9.05532 24.9083 8.00018 23.667 8H8.33301C7.0917 8.00018 6.00022 9.05532 6 10.4639V11H26V10.4639ZM29 17.0713C29 17.8997 28.3284 18.5713 27.5 18.5713C26.6716 18.5713 26 17.8997 26 17.0713V14H6V21.0361C6.00022 22.4447 7.0917 23.4998 8.33301 23.5H16C16.8284 23.5 17.5 24.1716 17.5 25C17.5 25.8284 16.8284 26.5 16 26.5H8.33301C5.34069 26.4998 3.00022 24.0058 3 21.0361V10.4639C3.00022 7.49421 5.34069 5.00018 8.33301 5H23.667C26.6593 5.00018 28.9998 7.49421 29 10.4639V17.0713Z" fill="currentColor"/>
</svg>
