<svg viewBox="0 0 16 16" fill="none" xmlns="http://www.w3.org/2000/svg">
<path d="M9.33317 1.3335H13.3332C14.4378 1.3335 15.3332 2.22893 15.3332 3.3335V12.0002C15.3332 13.4729 14.1392 14.6668 12.6665 14.6668H0.666504V4.00016H9.33317V1.3335ZM13.3332 2.66683H10.6665V4.00016H13.3332C13.7014 4.00016 13.9998 3.70168 13.9998 3.3335C13.9998 2.96531 13.7014 2.66683 13.3332 2.66683ZM8.6665 10.0002V11.3335H12.6665V10.0002H8.6665ZM8.6665 7.3335V8.66683H10.6665V7.3335H8.6665ZM4.99984 6.66683C4.07936 6.66683 3.33317 7.41303 3.33317 8.3335C3.33317 9.25396 4.07936 10.0002 4.99984 10.0002H5.6665C5.8506 10.0002 5.99984 10.1494 5.99984 10.3335C5.99984 10.5176 5.8506 10.6668 5.6665 10.6668H3.99984V12.0002H5.6665C6.58698 12.0002 7.33317 11.254 7.33317 10.3335C7.33317 9.41303 6.58698 8.66683 5.6665 8.66683H4.99984C4.81574 8.66683 4.6665 8.51756 4.6665 8.3335C4.6665 8.14943 4.81574 8.00016 4.99984 8.00016H6.6665V6.66683H4.99984Z" fill="currentColor"/>
</svg>
