<svg viewBox="0 0 32 32" fill="none" xmlns="http://www.w3.org/2000/svg">
<path d="M18.6666 2.66675H26.6666C28.8758 2.66675 30.6666 4.45761 30.6666 6.66675V24.0001C30.6666 26.9455 28.2787 29.3334 25.3333 29.3334H1.33325V8.00008H18.6666V2.66675ZM26.6666 5.33341H21.3333V8.00008H26.6666C27.403 8.00008 27.9999 7.40312 27.9999 6.66675C27.9999 5.93037 27.403 5.33341 26.6666 5.33341ZM17.3333 20.0001V22.6667H25.3333V20.0001H17.3333ZM17.3333 14.6667V17.3334H21.3333V14.6667H17.3333ZM9.99992 13.3334C8.15897 13.3334 6.66659 14.8258 6.66659 16.6667C6.66659 18.5077 8.15897 20.0001 9.99992 20.0001H11.3333C11.7014 20.0001 11.9999 20.2986 11.9999 20.6667C11.9999 21.0349 11.7014 21.3334 11.3333 21.3334H7.99992V24.0001H11.3333C13.1742 24.0001 14.6666 22.5077 14.6666 20.6667C14.6666 18.8258 13.1742 17.3334 11.3333 17.3334H9.99992C9.63173 17.3334 9.33325 17.0349 9.33325 16.6667C9.33325 16.2986 9.63173 16.0001 9.99992 16.0001H13.3333V13.3334H9.99992Z" fill="currentColor"/>
</svg>
