<svg viewBox="0 0 32 32" fill="none" xmlns="http://www.w3.org/2000/svg">
<path d="M17.1667 19.8333H25.5001V22.8333H17.1667V19.8333Z" fill="currentColor"/>
<path d="M17.1667 14.5V17.5H21.5001V14.5H17.1667Z" fill="currentColor"/>
<path d="M10 13.1667C8.06698 13.1667 6.5 14.7337 6.5 16.6667C6.5 18.5996 8.06698 20.1667 10 20.1667H11.3333C11.6095 20.1667 11.8333 20.3906 11.8333 20.6667C11.8333 20.9428 11.6095 21.1667 11.3333 21.1667H7.83333V24.1667H11.3333C13.2664 24.1667 14.8333 22.5996 14.8333 20.6667C14.8333 18.7337 13.2664 17.1667 11.3333 17.1667H10C9.72387 17.1667 9.5 16.9428 9.5 16.6667C9.5 16.3906 9.72387 16.1667 10 16.1667H13.5V13.1667H10Z" fill="currentColor"/>
<path d="M18.5 2.5H26.6667C28.9679 2.5 30.8333 4.36549 30.8333 6.66667L30.8334 24C30.8334 27.0376 28.371 29.5 25.3334 29.5H1.16675V7.83335H18.5V2.5ZM26.6667 10.8333L4.16675 10.8334V26.5H25.3334C26.7142 26.5 27.8334 25.3808 27.8334 24V10.6678C27.4632 10.7755 27.0717 10.8333 26.6667 10.8333ZM21.5 7.83333H26.6667C27.311 7.83333 27.8333 7.31101 27.8333 6.66667C27.8333 6.02232 27.311 5.5 26.6667 5.5H21.5V7.83333Z" fill="currentColor"/>
</svg>
