<svg viewBox="0 0 24 24" fill="none" xmlns="http://www.w3.org/2000/svg">
<path d="M14 2H20C21.6569 2 23 3.34315 23 5V18C23 20.2091 21.2091 22 19 22H1V6H14V2ZM20 4H16V6H20C20.5523 6 21 5.55228 21 5C21 4.44772 20.5523 4 20 4ZM13 15V17H19V15H13ZM13 11V13H16V11H13ZM7.5 10C6.11929 10 5 11.1193 5 12.5C5 13.8807 6.11929 15 7.5 15H8.5C8.77614 15 9 15.2239 9 15.5C9 15.7761 8.77614 16 8.5 16H6V18H8.5C9.88071 18 11 16.8807 11 15.5C11 14.1193 9.88071 13 8.5 13H7.5C7.22386 13 7 12.7761 7 12.5C7 12.2239 7.22386 12 7.5 12H10V10H7.5Z" fill="currentColor"/>
</svg>
