<svg viewBox="0 0 16 16" fill="none" xmlns="http://www.w3.org/2000/svg">
<path d="M8.58325 9.91669H12.7499V11.4167H8.58325V9.91669Z" fill="currentColor"/>
<path d="M8.58325 7.25V8.75H10.7499V7.25H8.58325Z" fill="currentColor"/>
<path d="M5 6.58331C4.03349 6.58331 3.25 7.36684 3.25 8.33331C3.25 9.29978 4.03349 10.0833 5 10.0833H5.66667C5.80473 10.0833 5.91667 10.1953 5.91667 10.3333C5.91667 10.4714 5.80473 10.5833 5.66667 10.5833H3.91667V12.0833H5.66667C6.63318 12.0833 7.41667 11.2998 7.41667 10.3333C7.41667 9.36684 6.63318 8.58331 5.66667 8.58331H5C4.86194 8.58331 4.75 8.47138 4.75 8.33331C4.75 8.19525 4.86194 8.08331 5 8.08331H6.75V6.58331H5Z" fill="currentColor"/>
<path d="M9.25 1.25H13.3333C14.484 1.25 15.4167 2.18275 15.4167 3.33333L15.4166 3.35201V12C15.4166 13.5188 14.1854 14.75 12.6666 14.75H0.583252V3.91665H9.25V1.25ZM13.9167 3.33331C13.9167 3.01115 13.6555 2.75 13.3333 2.75H10.75V3.91665L13.3333 3.91667C13.6522 3.91667 13.9113 3.66083 13.9166 3.34322L13.9167 3.33331ZM2.08325 5.41665V13.25H12.6666C13.357 13.25 13.9166 12.6904 13.9166 12V5.33392C13.7315 5.38779 13.5358 5.41667 13.3333 5.41667L2.08325 5.41665Z" fill="currentColor"/>
</svg>
