<svg viewBox="0 0 24 24" fill="none" xmlns="http://www.w3.org/2000/svg">
<path d="M13 15H19V17H13V15Z" fill="currentColor"/>
<path d="M13 11V13H16V11H13Z" fill="currentColor"/>
<path d="M7.5 10C6.11927 10 5 11.1193 5 12.5C5 13.8807 6.11927 15 7.5 15H8.5C8.77613 15 9 15.2239 9 15.5C9 15.7761 8.77613 16 8.5 16H6V18H8.5C9.88073 18 11 16.8807 11 15.5C11 14.1193 9.88073 13 8.5 13H7.5C7.22387 13 7 12.7761 7 12.5C7 12.2239 7.22387 12 7.5 12H10V10H7.5Z" fill="currentColor"/>
<path d="M14 2H20C21.6569 2 23 3.34315 23 5V18C23 20.2092 21.2092 22 19 22H1V6H14V2ZM21 18V7.8293C20.6872 7.93985 20.3506 8 20 8H3V20H19C20.1046 20 21 19.1046 21 18ZM20 6C20.5523 6 21 5.55229 21 5C21 4.44771 20.5523 4 20 4H16V6H20Z" fill="currentColor"/>
</svg>
