<svg viewBox="0 0 16 16" fill="none" xmlns="http://www.w3.org/2000/svg">
<path d="M8 15.3337C5.17981 15.3337 2.33417 13.6333 1.19035 11.2405C0.521029 9.8404 0.802141 8.21894 1.07155 6.6906L2.13334 0.666992L5.06667 3.4875C5.06667 3.4875 6.39547 2.78238 8 2.78238C9.60453 2.78238 10.9333 3.4875 10.9333 3.4875L13.8667 0.666992L14.9285 6.6906C15.1979 8.21894 15.479 9.8404 14.8097 11.2405C13.6659 13.6333 10.8202 15.3337 8 15.3337ZM6.97573 10.5855L7.33333 10.9431V12.0003H8.66667V10.9431L9.02427 10.5855C9.48627 10.1235 9.15907 9.33367 8.50573 9.33367H7.49427C6.84093 9.33367 6.51376 10.1235 6.97573 10.5855ZM6.00001 8.167C6.00001 7.70674 5.62691 7.33367 5.16667 7.33367C4.70643 7.33367 4.33334 7.70674 4.33334 8.167C4.33334 8.62727 4.70643 9.00033 5.16667 9.00033C5.62691 9.00033 6.00001 8.62727 6.00001 8.167ZM10.8333 9.00033C11.2936 9.00033 11.6667 8.62727 11.6667 8.167C11.6667 7.70674 11.2936 7.33367 10.8333 7.33367C10.3731 7.33367 10 7.70674 10 8.167C10 8.62727 10.3731 9.00033 10.8333 9.00033Z" fill="currentColor"/>
</svg>
