<svg viewBox="0 0 32 33" fill="none" xmlns="http://www.w3.org/2000/svg">
<path d="M10.3334 18.0914C11.2539 18.0914 12.0001 17.3452 12.0001 16.4247C12.0001 15.5042 11.2539 14.758 10.3334 14.758C9.41293 14.758 8.66674 15.5042 8.66674 16.4247C8.66674 17.3452 9.41293 18.0914 10.3334 18.0914Z" fill="currentColor"/>
<path d="M13.8336 20.0463C12.8049 19.0176 13.5331 17.258 14.9886 17.258H17.0115C18.4669 17.258 19.1952 19.0176 18.1664 20.0463L17.5 20.7127V22.9249H14.5V20.7127L13.8336 20.0463Z" fill="currentColor"/>
<path d="M23.3333 16.4247C23.3333 17.3452 22.5872 18.0914 21.6667 18.0914C20.7461 18.0914 20 17.3452 20 16.4247C20 15.5042 20.7461 14.758 21.6667 14.758C22.5872 14.758 23.3333 15.5042 23.3333 16.4247Z" fill="currentColor"/>
<path d="M27.6543 0L21.0223 6.3162C20.791 6.22564 20.5245 6.12819 20.2279 6.03099C19.1636 5.6822 17.6666 5.32147 16.0001 5.32147C14.3335 5.32147 12.8365 5.6822 11.7722 6.03099C11.4757 6.12819 11.2091 6.22564 10.9779 6.3162L4.34585 5.96046e-06L1.97602 13.3158C1.45445 16.2382 0.78265 20.0023 2.53192 23.2201C5.02736 27.8106 10.5465 30.9247 16.0001 30.9247C21.4536 30.9247 26.9728 27.8106 29.4682 23.2202C31.2174 20.0024 30.5457 16.2384 30.0241 13.3161L27.6543 0ZM4.96856 13.623L6.32094 6.0239L10.4117 9.9199L11.3611 9.42091L11.371 9.41586C11.382 9.41031 11.4017 9.40048 11.4296 9.38699C11.4854 9.35999 11.5738 9.31845 11.6911 9.26712C11.9263 9.16421 12.2744 9.02342 12.7065 8.8818C13.5796 8.59567 14.7493 8.32147 16.0001 8.32147C17.2509 8.32147 18.4205 8.59567 19.2936 8.8818C19.7257 9.02342 20.0739 9.16421 20.309 9.26712C20.4264 9.31845 20.5147 9.35999 20.5706 9.38699C20.5984 9.40048 20.6181 9.41031 20.6291 9.41586L20.6367 9.4197L20.6377 9.42021L20.6387 9.42073L21.5884 9.9199L25.6792 6.0239L27.0315 13.623C27.6042 16.8408 28.0321 19.5806 26.8325 21.7873C24.9022 25.3382 20.4409 27.9247 16.0001 27.9247C11.5593 27.9247 7.09794 25.3382 5.16764 21.7873C3.96805 19.5806 4.39591 16.8408 4.96856 13.623Z" fill="currentColor"/>
</svg>
