<svg viewBox="0 0 16 17" fill="none" xmlns="http://www.w3.org/2000/svg">
<path d="M5.16683 9.04569C5.62707 9.04569 6.00016 8.67262 6.00016 8.21236C6.00016 7.75209 5.62707 7.37902 5.16683 7.37902C4.70659 7.37902 4.33349 7.75209 4.33349 8.21236C4.33349 8.67262 4.70659 9.04569 5.16683 9.04569Z" fill="currentColor"/>
<path d="M6.91707 10.0232C6.40269 9.50878 6.76681 8.62902 7.49453 8.62902H8.506C9.23372 8.62902 9.59783 9.50878 9.08346 10.0232L8.75024 10.3564V11.4622H7.25024V10.3563L6.91707 10.0232Z" fill="currentColor"/>
<path d="M11.6669 8.21236C11.6669 8.67262 11.2938 9.04569 10.8336 9.04569C10.3733 9.04569 10.0002 8.67262 10.0002 8.21236C10.0002 7.75209 10.3733 7.37902 10.8336 7.37902C11.2938 7.37902 11.6669 7.75209 11.6669 8.21236Z" fill="currentColor"/>
<path d="M13.8274 0L10.5114 3.1581C10.3957 3.11282 10.2625 3.06409 10.1142 3.01549C9.58204 2.8411 8.83354 2.66074 8.00028 2.66074C7.16701 2.66074 6.41851 2.8411 5.88637 3.01549C5.73808 3.06409 5.60481 3.11282 5.48917 3.1581L2.17317 2.98023e-06L0.988252 6.65792C0.72747 8.11908 0.391569 10.0011 1.2662 11.6101C2.51392 13.9053 5.27349 15.4623 8.00028 15.4623C10.7271 15.4623 13.4866 13.9053 14.7343 11.6101C15.609 10.0012 15.2731 8.1192 15.0123 6.65806L13.8274 0ZM5.68224 4.7097L5.68575 4.70793C5.69125 4.70515 5.70109 4.70024 5.71503 4.6935C5.74293 4.68 5.78713 4.65922 5.84579 4.63356C5.96338 4.58211 6.13745 4.51171 6.35351 4.4409C6.79004 4.29783 7.37487 4.16074 8.00028 4.16074C8.62568 4.16074 9.21051 4.29783 9.64704 4.4409C9.8631 4.51171 10.0372 4.58211 10.1548 4.63356C10.2134 4.65922 10.2576 4.68 10.2855 4.6935C10.2995 4.70024 10.3093 4.70515 10.3148 4.70793L10.3186 4.70985L10.7944 4.95995L12.8398 3.01195L13.516 6.8115C13.8023 8.4204 14.0163 9.79032 13.4165 10.8937C12.4514 12.6691 10.2207 13.9623 8.00028 13.9623C5.7799 13.9623 3.54921 12.6691 2.58407 10.8937C1.98427 9.79032 2.1982 8.42039 2.48453 6.8115L3.16071 3.01195L5.20612 4.95995L5.6808 4.71046L5.68224 4.7097Z" fill="currentColor"/>
</svg>
