<svg viewBox="0 0 24 24" fill="none" xmlns="http://www.w3.org/2000/svg">
<path d="M7.74991 13.4999C8.44027 13.4999 8.99991 12.9403 8.99991 12.2499C8.99991 11.5595 8.44027 10.9999 7.74991 10.9999C7.05955 10.9999 6.49991 11.5595 6.49991 12.2499C6.49991 12.9403 7.05955 13.4999 7.74991 13.4999Z" fill="currentColor"/>
<path d="M10.4634 14.8777C9.77058 14.1849 10.261 12.9999 11.2412 12.9999H12.7584C13.7386 12.9999 14.2291 14.1849 13.5362 14.8777L12.9999 15.414V16.9999H10.9999V15.4142L10.4634 14.8777Z" fill="currentColor"/>
<path d="M17.4999 12.2499C17.4999 12.9403 16.9403 13.4999 16.2499 13.4999C15.5595 13.4999 14.9999 12.9403 14.9999 12.2499C14.9999 11.5595 15.5595 10.9999 16.2499 10.9999C16.9403 10.9999 17.4999 11.5595 17.4999 12.2499Z" fill="currentColor"/>
<path d="M20.6583 0.182373L15.7949 4.81418C15.6072 4.73905 15.3843 4.65612 15.1319 4.5734C14.3417 4.31442 13.2325 4.04748 12 4.04748C10.7674 4.04748 9.65827 4.31442 8.86803 4.5734C8.61565 4.65612 8.39267 4.73905 8.20499 4.81418L3.3416 0.182377L1.60746 9.9264C1.21465 12.1285 0.71803 14.9126 2.00868 17.2868C3.85671 20.6863 7.95199 22.9999 12 22.9999C16.048 22.9999 20.1432 20.6863 21.9912 17.2868C23.2819 14.9127 22.7853 12.1287 22.3925 9.92663L20.6583 0.182373ZM3.60327 10.1267L4.65833 4.19831L7.82997 7.21892L8.46304 6.88618L8.47181 6.88171C8.48068 6.87723 8.49607 6.86954 8.51765 6.8591C8.56083 6.83821 8.62858 6.80638 8.71812 6.7672C8.89759 6.68867 9.16244 6.58158 9.49089 6.47394C10.1537 6.25673 11.0445 6.04748 12 6.04748C12.9554 6.04748 13.8463 6.25673 14.509 6.47394C14.8375 6.58158 15.1023 6.68867 15.2818 6.7672C15.3713 6.80638 15.4391 6.83821 15.4823 6.8591C15.5039 6.86954 15.5192 6.87723 15.5281 6.88171L15.5355 6.88545L16.17 7.21892L19.3416 4.19831L20.3966 10.1267C20.8241 12.529 21.1585 14.6311 20.2341 16.3316C18.7629 19.038 15.3728 20.9999 12 20.9999C8.62719 20.9999 5.2371 19.038 3.76583 16.3316C2.8414 14.6311 3.17576 12.529 3.60327 10.1267Z" fill="currentColor"/>
</svg>
