<svg viewBox="0 0 32 32" fill="none" xmlns="http://www.w3.org/2000/svg">
<path d="M16 30.6664C10.3596 30.6664 4.66833 27.2657 2.38069 22.4801C1.04206 19.6798 1.60428 16.4369 2.14309 13.3802L4.26668 1.33301L10.1333 6.97403C10.1333 6.97403 12.7909 5.56377 16 5.56377C19.2091 5.56377 21.8667 6.97403 21.8667 6.97403L27.7333 1.33301L29.8569 13.3802C30.3957 16.4369 30.958 19.6798 29.6193 22.4801C27.3317 27.2657 21.6404 30.6664 16 30.6664ZM13.9515 21.1701L14.6667 21.8853V23.9997H17.3333V21.8853L18.0485 21.1701C18.9725 20.2461 18.3181 18.6664 17.0115 18.6664H14.9885C13.6819 18.6664 13.0275 20.2461 13.9515 21.1701ZM12 16.333C12 15.4125 11.2538 14.6664 10.3333 14.6664C9.41287 14.6664 8.66668 15.4125 8.66668 16.333C8.66668 17.2536 9.41287 17.9997 10.3333 17.9997C11.2538 17.9997 12 17.2536 12 16.333ZM21.6667 17.9997C22.5872 17.9997 23.3333 17.2536 23.3333 16.333C23.3333 15.4125 22.5872 14.6664 21.6667 14.6664C20.7461 14.6664 20 15.4125 20 16.333C20 17.2536 20.7461 17.9997 21.6667 17.9997Z" fill="currentColor"/>
</svg>
