<svg viewBox="0 0 17 16" fill="none" xmlns="http://www.w3.org/2000/svg">
<path d="M10.9272 0.0532152C11.3313 -0.0271707 11.7502 0.0140862 12.1309 0.171769C12.5116 0.329452 12.837 0.596478 13.0659 0.93908C13.2948 1.28168 13.417 1.68447 13.417 2.09652C13.417 2.64905 13.1975 3.17896 12.8068 3.56966C12.4161 3.96036 11.8862 4.17985 11.3336 4.17985C10.9216 4.17985 10.5188 4.05767 10.1762 3.82875C9.8336 3.59983 9.56658 3.27445 9.40889 2.89377C9.25121 2.5131 9.20995 2.09421 9.29034 1.69008C9.37072 1.28595 9.56914 0.914738 9.8605 0.623379C10.1519 0.332019 10.5231 0.133601 10.9272 0.0532152ZM11.5569 1.55759C11.4503 1.51344 11.333 1.50189 11.2198 1.52439C11.1067 1.5469 11.0027 1.60246 10.9212 1.68404C10.8396 1.76562 10.784 1.86956 10.7615 1.98272C10.739 2.09587 10.7506 2.21316 10.7947 2.31975C10.8389 2.42634 10.9136 2.51744 11.0096 2.58154C11.1055 2.64564 11.2183 2.67985 11.3336 2.67985C11.4884 2.67985 11.6367 2.61839 11.7461 2.509C11.8555 2.3996 11.917 2.25123 11.917 2.09652C11.917 1.98115 11.8828 1.86836 11.8187 1.77244C11.7546 1.67651 11.6635 1.60174 11.5569 1.55759Z" fill="currentColor"/>
<path d="M8.28216 0.859155L7.14115 4.28218L5.71813 3.80784L6.85914 0.384813L8.28216 0.859155Z" fill="currentColor"/>
<path d="M4.33889 3.27808L12.7217 11.6609L0.147461 15.8524L4.33889 3.27808ZM4.84134 6.51414L3.9652 9.14256L5.12218 12.613L6.69877 12.0874L4.84134 6.51414ZM6.90673 7.96725L8.1218 11.6131L9.94489 11.0054L6.90673 7.96725ZM2.51917 13.4806L3.69915 13.0873L3.17468 11.5141L2.51917 13.4806Z" fill="currentColor"/>
<path d="M15.6155 9.14085L15.1412 7.71782L11.7181 8.85883L12.1925 10.2819L15.6155 9.14085Z" fill="currentColor"/>
<path d="M16.0013 2V1.25H14.5013V2C14.5013 2.86691 14.1638 3.69526 13.5679 4.30362C12.9726 4.91145 12.1684 5.25 11.3333 5.25H10.5833V6.75H11.3333C12.5764 6.75 13.7654 6.2457 14.6395 5.35324C15.5132 4.4613 16.0013 3.25482 16.0013 2Z" fill="currentColor"/>
</svg>
