<svg viewBox="0 0 16 16" fill="none" xmlns="http://www.w3.org/2000/svg">
<path d="M6.45558 3.29925C6.62327 3.35519 6.80632 3.34223 6.96447 3.26322C7.12261 3.18422 7.24289 3.04563 7.29886 2.87794L7.96549 0.878065C8.02136 0.710105 8.00822 0.52683 7.92895 0.368559C7.84969 0.210288 7.71081 0.0899856 7.54285 0.0341167C7.37489 -0.0217521 7.19161 -0.00861083 7.03334 0.0706497C6.87507 0.14991 6.75477 0.288797 6.6989 0.456758L6.03227 2.45664C6.00472 2.53976 5.99381 2.62749 6.00018 2.71483C6.00654 2.80216 6.03005 2.88739 6.06936 2.96564C6.10867 3.04389 6.16301 3.11363 6.22928 3.17087C6.29555 3.22811 6.37245 3.27174 6.45558 3.29925Z" fill="currentColor"/>
<path d="M15.1219 8.03509L13.122 8.70172C13.0388 8.72938 12.9619 8.77315 12.8957 8.83054C12.8294 8.88792 12.7751 8.95779 12.7359 9.03616C12.6966 9.11453 12.6732 9.19986 12.667 9.28728C12.6607 9.3747 12.6717 9.4625 12.6994 9.54567C12.727 9.62883 12.7708 9.70574 12.8282 9.77198C12.8856 9.83823 12.9554 9.89253 13.0338 9.93177C13.1122 9.97102 13.1975 9.99445 13.2849 10.0007C13.3723 10.007 13.4601 9.99597 13.5433 9.96831L15.5432 9.30168C15.6264 9.27402 15.7033 9.23024 15.7695 9.17286C15.8357 9.11548 15.89 9.04561 15.9293 8.96724C15.9685 8.88887 15.992 8.80354 15.9982 8.71612C16.0045 8.6287 15.9935 8.5409 15.9658 8.45773C15.9382 8.37457 15.8944 8.29767 15.837 8.23142C15.7796 8.16517 15.7098 8.11087 15.6314 8.07163C15.553 8.03238 15.4677 8.00895 15.3803 8.00269C15.2928 7.99642 15.205 8.00743 15.1219 8.03509Z" fill="currentColor"/>
<path d="M12.3326 2.66748C12.3326 3.5879 11.5864 4.33405 10.666 4.33405C9.7456 4.33405 8.99945 3.5879 8.99945 2.66748C8.99945 1.74706 9.7456 1.00092 10.666 1.00092C11.5864 1.00092 12.3326 1.74706 12.3326 2.66748Z" fill="currentColor"/>
<path d="M9.99939 6.66724C9.99939 6.84404 10.0696 7.0136 10.1946 7.13861C10.3197 7.26363 10.4892 7.33386 10.666 7.33386C11.9032 7.33245 13.0893 6.84036 13.9641 5.96555C14.8389 5.09074 15.331 3.90465 15.3324 2.66748C15.3324 2.49068 15.2622 2.32112 15.1371 2.1961C15.0121 2.07109 14.8426 2.00085 14.6658 2.00085C14.489 2.00085 14.3194 2.07109 14.1944 2.1961C14.0694 2.32112 13.9991 2.49068 13.9991 2.66748C13.9981 3.55116 13.6466 4.39834 13.0217 5.02319C12.3969 5.64804 11.5497 5.99955 10.666 6.00061C10.4892 6.00061 10.3197 6.07084 10.1946 6.19586C10.0696 6.32088 9.99939 6.49044 9.99939 6.66724Z" fill="currentColor"/>
<path d="M4.85141 3.35997C4.95961 3.39123 5.05812 3.4494 5.13776 3.52903L12.4706 10.8619C12.5503 10.9416 12.6084 11.0401 12.6397 11.1483C12.671 11.2565 12.6743 11.3708 12.6494 11.4807C12.6245 11.5905 12.5722 11.6922 12.4973 11.7764C12.4225 11.8605 12.3275 11.9243 12.2213 11.9619L0.888688 15.9616C0.770051 16.0035 0.641974 16.011 0.519264 15.9832C0.396554 15.9554 0.284221 15.8934 0.19525 15.8044C0.10628 15.7155 0.0443057 15.6031 0.0164917 15.4804C-0.0113222 15.3577 -0.0038401 15.2296 0.0380732 15.111L4.03783 3.77835C4.07534 3.67216 4.13915 3.5772 4.2233 3.50235C4.30744 3.42749 4.40918 3.37517 4.51902 3.35027C4.62886 3.32538 4.74321 3.32871 4.85141 3.35997ZM2.56259 11.9639L1.7593 14.2404L3.15722 13.7471L2.56259 11.9639ZM3.81984 8.40007L5.34442 12.9738L6.61967 12.5231L4.55313 6.32353L3.81984 8.40007ZM7.14431 7.4128L8.61088 11.8219L9.99947 11.3332L9.4775 9.74599L7.14431 7.4128Z" fill="currentColor"/>
</svg>
