<svg viewBox="0 0 24 24" fill="none" xmlns="http://www.w3.org/2000/svg">
<path d="M16.4148 0.0576455C16.9968 -0.0581101 17.6 0.00129978 18.1481 0.228363C18.6963 0.455426 19.1649 0.839944 19.4945 1.33329C19.8241 1.82664 20.0001 2.40666 20.0001 3C20.0001 3.79565 19.684 4.55871 19.1214 5.12132C18.5588 5.68393 17.7957 6 17.0001 6C16.4067 6 15.8267 5.82405 15.3334 5.49441C14.84 5.16477 14.4555 4.69623 14.2284 4.14805C14.0014 3.59987 13.942 2.99667 14.0577 2.41473C14.1735 1.83279 14.4592 1.29824 14.8788 0.878681C15.2983 0.459124 15.8329 0.173401 16.4148 0.0576455ZM17.3828 2.07612C17.2 2.00043 16.999 1.98063 16.805 2.01922C16.611 2.0578 16.4328 2.15304 16.293 2.29289C16.1531 2.43275 16.0579 2.61093 16.0193 2.80491C15.9807 2.99889 16.0005 3.19996 16.0762 3.38268C16.1519 3.56541 16.2801 3.72159 16.4445 3.83147C16.609 3.94135 16.8023 4 17.0001 4C17.2653 4 17.5197 3.89464 17.7072 3.70711C17.8947 3.51957 18.0001 3.26522 18.0001 3C18.0001 2.80222 17.9414 2.60888 17.8316 2.44443C17.7217 2.27998 17.5655 2.15181 17.3828 2.07612Z" fill="currentColor"/>
<path d="M12.265 1.36754L10.6325 6.26491L8.73517 5.63246L10.3676 0.735089L12.265 1.36754Z" fill="currentColor"/>
<path d="M6.56307 5.14877L18.8513 17.437L0.418945 23.5811L6.56307 5.14877ZM7.26197 9.37663L5.81619 13.714L7.6044 19.0778L10.2061 18.2106L7.26197 9.37663ZM10.0737 11.4879L12.1035 17.5781L15.1489 16.563L10.0737 11.4879ZM3.58122 20.4189L5.70704 19.7103L4.76216 16.8761L3.58122 20.4189Z" fill="currentColor"/>
<path d="M23.265 13.6325L22.6325 11.7351L17.7352 13.3675L18.3676 15.2649L23.265 13.6325Z" fill="currentColor"/>
<path d="M24.0001 3V2H22.0001V3C22.0001 4.32608 21.4733 5.59785 20.5356 6.53553C19.5979 7.47322 18.3262 8 17.0001 8H16.0001V10H17.0001C18.8566 10 20.6371 9.2625 21.9498 7.94975C23.2626 6.63699 24.0001 4.85652 24.0001 3Z" fill="currentColor"/>
</svg>
