<svg viewBox="0 0 24 25" fill="none" xmlns="http://www.w3.org/2000/svg">
<path d="M9.68369 4.94898C9.93524 5.03289 10.2098 5.01345 10.447 4.89494C10.6843 4.77642 10.8647 4.56854 10.9486 4.317L11.9486 1.31712C12.0324 1.06518 12.0127 0.790261 11.8938 0.55285C11.7749 0.315439 11.5666 0.134981 11.3146 0.0511761C11.0627 -0.0326289 10.7878 -0.0129165 10.5503 0.105977C10.3129 0.22487 10.1325 0.433205 10.0487 0.68515L9.04871 3.68503C9.00738 3.80971 8.99102 3.94132 9.00057 4.07232C9.01011 4.20333 9.04538 4.33118 9.10434 4.44855C9.16331 4.56593 9.24482 4.67054 9.34423 4.7564C9.44364 4.84227 9.55899 4.9077 9.68369 4.94898Z" fill="currentColor"/>
<path d="M22.683 12.0526L19.6832 13.0526C19.5584 13.0941 19.443 13.1598 19.3437 13.2458C19.2443 13.3319 19.1629 13.4367 19.104 13.5543C19.0451 13.6718 19.01 13.7998 19.0006 13.931C18.9912 14.0621 19.0077 14.1938 19.0492 14.3185C19.0907 14.4433 19.1563 14.5587 19.2424 14.658C19.3285 14.7574 19.4333 14.8389 19.5509 14.8977C19.6684 14.9566 19.7964 14.9917 19.9275 15.0011C20.0587 15.0105 20.1904 14.994 20.3151 14.9525L23.315 13.9526C23.4398 13.9111 23.5551 13.8454 23.6545 13.7593C23.7539 13.6733 23.8353 13.5684 23.8942 13.4509C23.9531 13.3333 23.9882 13.2053 23.9976 13.0742C24.007 12.9431 23.9905 12.8114 23.949 12.6866C23.9075 12.5619 23.8418 12.4465 23.7557 12.3471C23.6697 12.2478 23.5649 12.1663 23.4473 12.1074C23.3298 12.0486 23.2018 12.0134 23.0706 12.004C22.9395 11.9946 22.8078 12.0111 22.683 12.0526Z" fill="currentColor"/>
<path d="M18.4992 4.00081C18.4992 5.38147 17.38 6.50071 15.9993 6.50071C14.6187 6.50071 13.4995 5.38147 13.4995 4.00081C13.4995 2.62016 14.6187 1.50092 15.9993 1.50092C17.38 1.50092 18.4992 2.62016 18.4992 4.00081Z" fill="currentColor"/>
<path d="M14.9994 10.0006C14.9994 10.2658 15.1047 10.5201 15.2923 10.7076C15.4798 10.8952 15.7341 11.0005 15.9993 11.0005C17.8551 10.9984 19.6343 10.2603 20.9466 8.94802C22.2588 7.63578 22.9969 5.8566 22.9991 4.00081C22.9991 3.73561 22.8937 3.48126 22.7062 3.29374C22.5187 3.10621 22.2643 3.00085 21.9991 3.00085C21.7339 3.00085 21.4796 3.10621 21.292 3.29374C21.1045 3.48126 20.9991 3.73561 20.9991 4.00081C20.9976 5.32635 20.4703 6.59715 19.533 7.53445C18.5957 8.47175 17.3249 8.99902 15.9993 9.00061C15.7341 9.00061 15.4798 9.10596 15.2923 9.29349C15.1047 9.48102 14.9994 9.73536 14.9994 10.0006Z" fill="currentColor"/>
<path d="M7.27727 5.04055C7.43957 5.08744 7.58734 5.17469 7.7068 5.29415L18.7064 16.2937C18.8258 16.4132 18.9131 16.5609 18.9599 16.7232C19.0068 16.8855 19.0118 17.0571 18.9745 17.2218C18.9372 17.3866 18.8587 17.5392 18.7464 17.6654C18.6341 17.7916 18.4917 17.8874 18.3324 17.9436L1.33306 23.9434C1.1551 24.0063 0.962981 24.0175 0.778912 23.9758C0.594843 23.934 0.42634 23.8411 0.292881 23.7076C0.159423 23.5742 0.0664599 23.4057 0.0247381 23.2216C-0.0169837 23.0375 -0.00576027 22.8454 0.057111 22.6674L6.05687 5.66813C6.11314 5.50884 6.20886 5.3664 6.33508 5.25411C6.4613 5.14183 6.61391 5.06335 6.77867 5.026C6.94343 4.98865 7.11496 4.99366 7.27727 5.04055ZM3.84396 17.9466L2.63901 21.3615L4.73592 20.6215L3.84396 17.9466ZM5.72988 12.6008L8.01679 19.4616L9.92971 18.7856L6.82984 9.48597L5.72988 12.6008ZM10.7167 11.1199L12.9166 17.7336L14.9995 17.0007L14.2165 14.6198L10.7167 11.1199Z" fill="currentColor"/>
</svg>
