<svg viewBox="0 0 32 33" fill="none" xmlns="http://www.w3.org/2000/svg">
<path d="M21.8534 0.0800632C22.6617 -0.0807085 23.4995 0.00180528 24.2608 0.31717C25.0222 0.632536 25.6729 1.16659 26.1308 1.85179C26.5886 2.537 26.833 3.34258 26.833 4.16667C26.833 5.27174 26.394 6.33155 25.6126 7.11295C24.8312 7.89435 23.7714 8.33333 22.6663 8.33333C21.8422 8.33333 21.0366 8.08896 20.3514 7.63112C19.6662 7.17329 19.1322 6.52254 18.8168 5.76118C18.5014 4.99982 18.4189 4.16205 18.5797 3.35379C18.7405 2.54554 19.1373 1.80311 19.72 1.22039C20.3027 0.637672 21.0452 0.240835 21.8534 0.0800632ZM23.1128 3.08881C22.8996 3.00051 22.665 2.9774 22.4387 3.02242C22.2124 3.06744 22.0045 3.17855 21.8413 3.34171C21.6782 3.50487 21.5671 3.71275 21.5221 3.93906C21.477 4.16537 21.5001 4.39995 21.5884 4.61313C21.6767 4.82631 21.8263 5.00852 22.0181 5.13672C22.21 5.26491 22.4356 5.33333 22.6663 5.33333C22.9757 5.33333 23.2725 5.21042 23.4913 4.99163C23.7101 4.77283 23.833 4.47609 23.833 4.16667C23.833 3.93592 23.7645 3.71036 23.6364 3.5185C23.5082 3.32664 23.326 3.17711 23.1128 3.08881Z" fill="currentColor"/>
<path d="M16.5638 1.72612L14.2818 8.57217L11.4358 7.62349L13.7178 0.777439L16.5638 1.72612Z" fill="currentColor"/>
<path d="M8.67777 6.56495L25.4435 23.3307L0.294922 31.7135L8.67777 6.56495ZM9.68256 13.0374L7.93048 18.2937L10.2445 25.2347L13.3973 24.1838L9.68256 13.0374ZM13.8131 15.9429L16.2434 23.2351L19.8898 22.0196L13.8131 15.9429ZM5.03834 26.9701L7.39846 26.1834L6.34944 23.0368L5.03834 26.9701Z" fill="currentColor"/>
<path d="M31.2305 18.2905L30.2818 15.4444L23.4358 17.7264L24.3845 20.5725L31.2305 18.2905Z" fill="currentColor"/>
<path d="M31.9987 4.0083V2.5083H28.9987V4.0083C28.9987 5.74236 28.324 7.39915 27.1329 8.61581C25.9428 9.83139 24.3356 10.5083 22.6666 10.5083H21.1666V13.5083H22.6666C25.152 13.5083 27.529 12.4995 29.2766 10.7145C31.023 8.93058 31.9987 6.51771 31.9987 4.0083Z" fill="currentColor"/>
</svg>
