<svg viewBox="0 0 33 33" fill="none" xmlns="http://www.w3.org/2000/svg">
<path d="M13.3147 6.80476C13.6606 6.92014 14.0381 6.89341 14.3643 6.73045C14.6905 6.5675 14.9386 6.28166 15.054 5.9358L16.4289 1.81102C16.5442 1.4646 16.5171 1.0866 16.3536 0.760159C16.1901 0.433723 15.9037 0.185597 15.5572 0.0703663C15.2108 -0.0448641 14.8328 -0.01776 14.5064 0.145716C14.1799 0.309192 13.9318 0.595649 13.8166 0.94207L12.4417 5.06685C12.3848 5.23829 12.3623 5.41924 12.3755 5.59938C12.3886 5.77951 12.4371 5.95529 12.5181 6.11668C12.5992 6.27807 12.7113 6.42191 12.848 6.53997C12.9847 6.65803 13.1433 6.74801 13.3147 6.80476Z" fill="currentColor"/>
<path d="M31.1889 16.572L27.0641 17.9469C26.8925 18.004 26.7339 18.0943 26.5973 18.2126C26.4607 18.331 26.3487 18.4751 26.2677 18.6367C26.1868 18.7984 26.1385 18.9744 26.1255 19.1547C26.1126 19.335 26.1353 19.5161 26.1924 19.6876C26.2494 19.8591 26.3397 20.0177 26.4581 20.1544C26.5764 20.291 26.7205 20.403 26.8822 20.4839C27.0438 20.5649 27.2198 20.6132 27.4001 20.6261C27.5804 20.6391 27.7615 20.6163 27.933 20.5593L32.0578 19.1844C32.2293 19.1273 32.388 19.037 32.5246 18.9187C32.6612 18.8003 32.7732 18.6562 32.8542 18.4946C32.9351 18.3329 32.9834 18.1569 32.9964 17.9766C33.0093 17.7963 32.9866 17.6152 32.9295 17.4437C32.8725 17.2722 32.7822 17.1136 32.6638 16.9769C32.5455 16.8403 32.4014 16.7283 32.2397 16.6474C32.0781 16.5664 31.9021 16.5181 31.7218 16.5052C31.5415 16.4922 31.3604 16.5149 31.1889 16.572Z" fill="currentColor"/>
<path d="M25.4361 5.50122C25.4361 7.39959 23.8972 8.93853 21.9988 8.93853C20.1004 8.93853 18.5615 7.39959 18.5615 5.50122C18.5615 3.60284 20.1004 2.0639 21.9988 2.0639C23.8972 2.0639 25.4361 3.60284 25.4361 5.50122Z" fill="currentColor"/>
<path d="M20.6239 13.7508C20.6239 14.1154 20.7688 14.4651 21.0266 14.723C21.2845 14.9808 21.6342 15.1257 21.9988 15.1257C24.5505 15.1228 26.9968 14.1079 28.8011 12.3035C30.6055 10.4992 31.6204 8.0529 31.6233 5.50122C31.6233 5.13656 31.4785 4.78685 31.2206 4.529C30.9628 4.27115 30.613 4.12629 30.2484 4.12629C29.8837 4.12629 29.534 4.27115 29.2762 4.529C29.0183 4.78685 28.8735 5.13656 28.8735 5.50122C28.8713 7.32381 28.1463 9.07113 26.8575 10.3599C25.5687 11.6487 23.8214 12.3737 21.9988 12.3758C21.6342 12.3758 21.2845 12.5207 21.0266 12.7786C20.7688 13.0364 20.6239 13.3861 20.6239 13.7508Z" fill="currentColor"/>
<path d="M10.0061 6.9305C10.2293 6.99497 10.4325 7.11494 10.5967 7.27919L25.7209 22.4034C25.8852 22.5676 26.0051 22.7708 26.0696 22.994C26.1341 23.2171 26.1409 23.453 26.0896 23.6795C26.0383 23.9061 25.9303 24.1159 25.7759 24.2895C25.6216 24.463 25.4257 24.5946 25.2067 24.672L1.83293 32.9216C1.58824 33.008 1.32408 33.0234 1.07099 32.9661C0.817899 32.9087 0.58621 32.7809 0.402707 32.5974C0.219204 32.4139 0.0913812 32.1822 0.0340144 31.9291C-0.0233523 31.676 -0.00792028 31.4119 0.0785266 31.1672L8.32809 7.79341C8.40546 7.57439 8.53707 7.37854 8.71062 7.22415C8.88417 7.06975 9.09401 6.96184 9.32055 6.91049C9.54709 6.85914 9.78295 6.86603 10.0061 6.9305ZM5.28537 24.6761L3.62859 29.3715L6.51181 28.3541L5.28537 24.6761ZM7.87848 17.3258L11.0229 26.7591L13.6532 25.8297L9.3909 13.0429L7.87848 17.3258ZM14.7352 15.2895L17.7601 24.3833L20.6241 23.3755L19.5475 20.1018L14.7352 15.2895Z" fill="currentColor"/>
</svg>
