<svg viewBox="0 0 32 32" fill="none" xmlns="http://www.w3.org/2000/svg">
<path d="M19.1162 13.1162C19.6044 12.6281 20.3956 12.6281 20.8838 13.1162C21.3719 13.6044 21.3719 14.3956 20.8838 14.8838L15.8838 19.8838C15.8394 19.9282 15.7911 19.9666 15.7422 20.0029C15.7266 20.0145 15.7113 20.0263 15.6953 20.0371C15.6803 20.0472 15.6647 20.0561 15.6494 20.0654C15.629 20.0779 15.6088 20.0904 15.5879 20.1016C15.575 20.1084 15.5619 20.1147 15.5488 20.1211C15.5274 20.1316 15.5062 20.1422 15.4844 20.1514C15.4695 20.1576 15.4545 20.1633 15.4395 20.1689C15.4146 20.1783 15.3895 20.1866 15.3643 20.1943C15.3555 20.197 15.3467 20.1997 15.3379 20.2021C15.3078 20.2106 15.2776 20.2175 15.2471 20.2236C15.2392 20.2252 15.2315 20.2271 15.2236 20.2285C15.1948 20.2338 15.1658 20.238 15.1367 20.2412C15.1247 20.2425 15.1126 20.2432 15.1006 20.2441C15.0736 20.2463 15.0466 20.2486 15.0195 20.249C15.0065 20.2492 14.9935 20.2492 14.9805 20.249C14.9554 20.2486 14.9303 20.247 14.9053 20.2451C14.8912 20.2441 14.8773 20.2427 14.8633 20.2412C14.8322 20.2378 14.8013 20.2333 14.7705 20.2275C14.7659 20.2267 14.7614 20.2255 14.7568 20.2246C14.7253 20.2184 14.6941 20.2108 14.6631 20.2021C14.6537 20.1995 14.6441 20.1972 14.6348 20.1943C14.6117 20.1873 14.5891 20.1793 14.5664 20.1709C14.5501 20.1649 14.5337 20.1591 14.5176 20.1523C14.4912 20.1413 14.4652 20.1292 14.4395 20.1162C14.4317 20.1123 14.4238 20.1086 14.416 20.1045C14.3445 20.0667 14.2755 20.0224 14.2109 19.9697L14.1162 19.8838L11.1162 16.8838L11.0303 16.7891C10.6298 16.2981 10.6585 15.5739 11.1162 15.1162C11.5739 14.6585 12.2981 14.6298 12.7891 15.0303L12.8838 15.1162L15 17.2324L19.1162 13.1162Z" fill="currentColor"/>
<path d="M16 2.75C23.3178 2.75 29.25 8.68223 29.25 16C29.25 23.3178 23.3178 29.25 16 29.25C8.68223 29.25 2.75 23.3178 2.75 16C2.75 8.68223 8.68223 2.75 16 2.75ZM16 5.25C10.0629 5.25 5.25 10.0629 5.25 16C5.25 21.9371 10.0629 26.75 16 26.75C21.9371 26.75 26.75 21.9371 26.75 16C26.75 10.0629 21.9371 5.25 16 5.25Z" fill="currentColor"/>
</svg>
