<svg viewBox="0 0 32 32" fill="none" xmlns="http://www.w3.org/2000/svg">
<path d="M26.25 3C28.0449 3 29.5 4.45508 29.5 6.25V20.917C29.4998 22.7118 28.0448 24.167 26.25 24.167H24.167V25.583C24.167 27.7461 22.4131 29.5 20.25 29.5H6.91699C4.75388 29.5 3 27.7461 3 25.583V12.25C3 10.0869 4.75388 8.33301 6.91699 8.33301H8.33301V6.25C8.33301 4.45518 9.78823 3.00018 11.583 3H26.25ZM6.91699 10.833C6.13459 10.833 5.5 11.4676 5.5 12.25V25.583C5.5 26.3654 6.13459 27 6.91699 27H20.25C21.0324 27 21.667 26.3654 21.667 25.583V24.167H11.583C9.78834 24.1668 8.33318 22.7117 8.33301 20.917V10.833H6.91699ZM11.583 5.5C11.1689 5.50018 10.833 5.8359 10.833 6.25V20.917C10.8332 21.3309 11.1691 21.6668 11.583 21.667H26.25C26.6641 21.667 26.9998 21.3311 27 20.917V6.25C27 5.83578 26.6642 5.5 26.25 5.5H11.583ZM16.6992 14.0332C17.1874 13.545 17.9786 13.545 18.4668 14.0332C18.955 14.5214 18.955 15.3126 18.4668 15.8008L16.4668 17.8008C15.9786 18.2886 15.1873 18.2888 14.6992 17.8008L13.3662 16.4668L13.2803 16.3721C12.88 15.8811 12.9086 15.1568 13.3662 14.6992C13.8238 14.2418 14.5482 14.213 15.0391 14.6133L15.1338 14.6992L15.583 15.1484L16.6992 14.0332ZM23.8223 15.0068C24.4527 15.0708 24.9443 15.6027 24.9443 16.25C24.9443 16.8973 24.4527 17.4292 23.8223 17.4932L23.6943 17.5H21.0283C20.338 17.5 19.7783 16.9404 19.7783 16.25C19.7783 15.5596 20.338 15 21.0283 15H23.6943L23.8223 15.0068ZM16.6992 8.69922C17.1873 8.21117 17.9786 8.21139 18.4668 8.69922C18.955 9.18737 18.955 9.97864 18.4668 10.4668L16.4668 12.4668C16.2324 12.7012 15.9145 12.833 15.583 12.833C15.2516 12.8329 14.9336 12.7011 14.6992 12.4668L13.3662 11.1338L13.2803 11.0391C12.8798 10.5481 12.9085 9.82387 13.3662 9.36621C13.8239 8.90855 14.5481 8.87979 15.0391 9.28027L15.1338 9.36621L15.583 9.81543L16.6992 8.69922ZM23.6943 9.66699C24.3847 9.66699 24.9443 10.2266 24.9443 10.917C24.9442 11.6072 24.3846 12.167 23.6943 12.167H21.0283C20.3381 12.167 19.7785 11.6072 19.7783 10.917C19.7783 10.2266 20.338 9.66699 21.0283 9.66699H23.6943Z" fill="currentColor"/>
</svg>
