<svg viewBox="0 0 16 16" fill="none" xmlns="http://www.w3.org/2000/svg">
<path d="M7.03711 9.25098C7.33167 9.01093 7.7665 9.02827 8.04102 9.30273C8.31553 9.57724 8.33283 10.0121 8.09277 10.3066L8.04102 10.3633L6.47363 11.9316C6.33306 12.0722 6.14118 12.1513 5.94238 12.1514C5.74364 12.1512 5.55265 12.0722 5.41211 11.9316L4.63672 11.1553L4.58496 11.0986C4.34477 10.8041 4.36216 10.3693 4.63672 10.0947C4.91132 9.82054 5.34619 9.80285 5.64062 10.043L5.69727 10.0947L5.94238 10.3398L6.98047 9.30273L7.03711 9.25098Z" fill="currentColor"/>
<path d="M10.7432 10.5869C11.1212 10.6254 11.4159 10.9449 11.416 11.333C11.416 11.7213 11.1213 12.0406 10.7432 12.0791L10.666 12.083H9.33301C8.91894 12.0828 8.58301 11.7471 8.58301 11.333C8.58318 10.9191 8.91905 10.5832 9.33301 10.583H10.666L10.7432 10.5869Z" fill="currentColor"/>
<path d="M10.0244 1.26367C10.0359 1.26481 10.0472 1.26727 10.0586 1.26855C10.0908 1.27104 10.1224 1.27483 10.1533 1.28125C10.7342 1.36694 11.2771 1.63549 11.6973 2.05566L13.2783 3.63672L13.4609 3.83789C13.8619 4.32723 14.084 4.94287 14.084 5.58105V12.333C14.084 13.6676 13.0015 14.7498 11.667 14.75H4C2.84966 14.7498 1.91717 13.8173 1.91699 12.667V3.66699C1.91699 2.3323 2.9993 1.25 4.33398 1.25H9.75293L10.0244 1.26367ZM4.33398 2.75C3.82772 2.75 3.41699 3.16073 3.41699 3.66699V12.667C3.41717 12.9889 3.67809 13.2498 4 13.25H11.667C12.1731 13.2498 12.584 12.8392 12.584 12.333V6.08301H11C10.0335 6.08301 9.25 5.29951 9.25 4.33301V2.75H4.33398ZM10.75 4.33301C10.75 4.47108 10.8619 4.58301 11 4.58301H12.1035L10.75 3.22949V4.33301Z" fill="currentColor"/>
</svg>
