<svg viewBox="0 0 24 24" fill="none" xmlns="http://www.w3.org/2000/svg">
<path d="M10.5586 14.043C10.9491 13.6525 11.5821 13.6525 11.9727 14.043C12.3632 14.4335 12.3632 15.0665 11.9727 15.457L9.62109 17.8096C9.43363 17.997 9.17912 18.1015 8.91406 18.1016C8.64903 18.1016 8.39453 17.9969 8.20703 17.8096L7.04297 16.6455L6.97461 16.5693C6.65417 16.1766 6.67692 15.5976 7.04297 15.2314C7.40897 14.8654 7.98809 14.8421 8.38086 15.1621L8.45703 15.2314L8.91309 15.6875L10.5586 14.043Z" fill="currentColor"/>
<path d="M16 16C16.5523 16 17 16.4477 17 17C17 17.5523 16.5523 18 16 18H14C13.4477 18 13 17.5523 13 17C13 16.4477 13.4477 16 14 16H16Z" fill="currentColor"/>
<path d="M14.8271 2.00488C14.9152 2.00926 15.0027 2.01722 15.0898 2.02734C15.101 2.02833 15.112 2.0299 15.123 2.03125C16.0016 2.14079 16.8245 2.53931 17.457 3.17188L19.8281 5.54297L19.9648 5.68652C20.6295 6.42034 21 7.37732 21 8.37207V18.5C21 20.433 19.433 22 17.5 22H6C4.34315 22 3 20.6569 3 19V5.5C3 3.567 4.567 2 6.5 2H14.6279L14.8271 2.00488ZM6.5 4C5.67157 4 5 4.67157 5 5.5V19C5 19.5523 5.44772 20 6 20H17.5C18.3284 20 19 19.3284 19 18.5V9H16.5C15.2057 9 14.1409 8.0163 14.0127 6.75586L14 6.5V4H6.5ZM16 6.5L16.0098 6.60059C16.0564 6.82847 16.2583 7 16.5 7H18.4531L18.4141 6.95703L16.043 4.58594C16.0291 4.57207 16.0142 4.55931 16 4.5459V6.5Z" fill="currentColor"/>
</svg>
