<svg viewBox="0 0 32 32" fill="none" xmlns="http://www.w3.org/2000/svg">
<path d="M28 5.3335C28 3.12436 26.2092 1.3335 24 1.3335H8C5.79087 1.3335 4 3.12436 4 5.3335V26.6668C4 28.876 5.79085 30.6668 8 30.6668H24C26.2092 30.6668 28 28.876 28 26.6668V5.3335ZM9.33333 18.6668V16.0002H16V18.6668H9.33333ZM9.33333 21.3335H16V24.0002H9.33333V21.3335ZM18.6667 16.0002H22.6667V18.6668H18.6667V16.0002ZM18.6667 21.3335H22.6667V24.0002H18.6667V21.3335ZM18.6667 10.6668H22.6667V13.3335H18.6667V10.6668ZM17.8856 8.00016L12 13.8858L8.11439 10.0002L10 8.11455L12 10.1145L16 6.11455L17.8856 8.00016Z" fill="currentColor"/>
</svg>
