<svg viewBox="0 0 16 16" fill="none" xmlns="http://www.w3.org/2000/svg">
<path d="M8 2C11.3137 2 14 4.6863 14 8C14 11.3137 11.3137 14 8 14C4.6863 14 2 11.3137 2 8C2 4.6863 4.6863 2 8 2ZM10.5303 6.46973C10.2557 6.19555 9.82079 6.17782 9.52637 6.41797L9.46973 6.46973L7.5 8.43945L6.53027 7.46973L6.47363 7.41797C6.17907 7.17807 5.74419 7.19531 5.46973 7.46973C5.19527 7.74418 5.17807 8.17906 5.41797 8.47363L5.46973 8.53027L6.96973 10.0303L7.02637 10.082C7.0289 10.084 7.03271 10.0859 7.03516 10.0879C7.06054 10.108 7.08805 10.1252 7.11523 10.1416C7.13792 10.1552 7.16184 10.1667 7.18555 10.1777C7.20295 10.1858 7.22042 10.1945 7.23828 10.2012C7.26822 10.2123 7.2992 10.2204 7.33008 10.2275C7.34398 10.2308 7.35803 10.2349 7.37207 10.2373C7.40435 10.2429 7.43708 10.2458 7.46973 10.2471C7.4833 10.2476 7.49716 10.2482 7.51074 10.248C7.54572 10.2475 7.58058 10.2437 7.61523 10.2383C7.62684 10.2365 7.63886 10.2357 7.65039 10.2334C7.68523 10.2263 7.71919 10.2152 7.75293 10.2031C7.7641 10.1991 7.77611 10.1969 7.78711 10.1924C7.82253 10.1777 7.85637 10.159 7.88965 10.1387C7.89818 10.1335 7.90766 10.1296 7.91602 10.124C7.92079 10.1208 7.92497 10.1166 7.92969 10.1133C7.96476 10.0886 7.99893 10.0616 8.03027 10.0303L10.5303 7.53027L10.582 7.47363C10.8221 7.17919 10.8045 6.74432 10.5303 6.46973Z" fill="currentColor"/>
</svg>
