<svg viewBox="0 0 32 32" fill="none" xmlns="http://www.w3.org/2000/svg">
<path d="M16 4C22.6274 4 28 9.37259 28 16C28 22.6274 22.6274 28 16 28C9.37259 28 4 22.6274 4 16C4 9.37259 9.37259 4 16 4ZM20.8838 13.1162C20.3956 12.6282 19.6043 12.6281 19.1162 13.1162L15 17.2324L12.8838 15.1162L12.7891 15.0303C12.2981 14.6299 11.5738 14.6586 11.1162 15.1162C10.6586 15.5738 10.6299 16.2981 11.0303 16.7891L11.1162 16.8838L14.1162 19.8838L14.2109 19.9697C14.2731 20.0204 14.3396 20.0637 14.4082 20.1006C14.4277 20.1111 14.4478 20.1205 14.4678 20.1299C14.4852 20.1381 14.5028 20.146 14.5205 20.1533C14.5327 20.1584 14.5453 20.1623 14.5576 20.167C14.5832 20.1767 14.6087 20.1864 14.6348 20.1943C14.6464 20.1979 14.6582 20.2009 14.6699 20.2041C14.6945 20.2108 14.7192 20.2175 14.7441 20.2227C14.7609 20.2262 14.778 20.2286 14.7949 20.2314C14.817 20.2351 14.8391 20.2387 14.8613 20.2412C14.8759 20.2428 14.8906 20.244 14.9053 20.2451C14.9303 20.247 14.9554 20.2486 14.9805 20.249C14.9935 20.2492 15.0065 20.2492 15.0195 20.249C15.0466 20.2486 15.0736 20.2463 15.1006 20.2441C15.1139 20.2431 15.1273 20.2427 15.1406 20.2412C15.1609 20.2389 15.181 20.2357 15.2012 20.2324C15.2224 20.229 15.2436 20.2252 15.2646 20.2207C15.2846 20.2164 15.3044 20.2114 15.3242 20.2061C15.3392 20.202 15.3543 20.1979 15.3691 20.1934C15.3918 20.1864 15.4142 20.1782 15.4365 20.1699C15.4544 20.1632 15.4726 20.1569 15.4902 20.1494C15.5025 20.1442 15.5142 20.1375 15.5264 20.1318C15.5499 20.1209 15.5737 20.1102 15.5967 20.0977C15.6133 20.0886 15.6292 20.0782 15.6455 20.0684C15.6605 20.0593 15.6758 20.0508 15.6904 20.041C15.7154 20.0244 15.7397 20.0068 15.7637 19.9883C15.8051 19.9561 15.8457 19.9219 15.8838 19.8838L20.8838 14.8838C21.3719 14.3957 21.3718 13.6044 20.8838 13.1162Z" fill="currentColor"/>
</svg>
