<svg viewBox="0 0 16 16" fill="none" xmlns="http://www.w3.org/2000/svg">
<path d="M12.2812 1.26465C13.6679 1.40553 14.75 2.57618 14.75 4V9.33301C14.75 10.824 13.5633 12.0342 12.083 12.0781V12.667C12.0828 13.8174 11.1505 14.75 10 14.75H3.33301C2.18267 14.7498 1.25018 13.8173 1.25 12.667V6C1.25 4.84952 2.18256 3.91717 3.33301 3.91699H3.9209C3.96483 2.43665 5.17601 1.25 6.66699 1.25H12L12.2812 1.26465ZM3.33301 5.41699C3.01099 5.41717 2.75 5.67794 2.75 6V12.667C2.75018 12.9889 3.0111 13.2498 3.33301 13.25H10C10.3221 13.25 10.5828 12.989 10.583 12.667V12.083H6.66699C5.14821 12.083 3.91699 10.8518 3.91699 9.33301V5.41699H3.33301ZM6.66699 2.75C5.97664 2.75 5.41699 3.30964 5.41699 4V9.33301C5.41699 10.0234 5.97664 10.583 6.66699 10.583H12C12.6904 10.583 13.25 10.0234 13.25 9.33301V4C13.25 3.35285 12.7582 2.82092 12.1279 2.75684L12 2.75H6.66699ZM8.19336 6.75195C8.48794 6.51154 8.92262 6.52809 9.19727 6.80273C9.47191 7.07738 9.48846 7.51206 9.24805 7.80664L9.19727 7.86328L8.19727 8.86328C7.90437 9.15617 7.42961 9.15617 7.13672 8.86328L6.46973 8.19727L6.41797 8.13965C6.17804 7.84513 6.1954 7.41121 6.46973 7.13672C6.74438 6.86207 7.17905 6.84452 7.47363 7.08496L7.53027 7.13672L7.66602 7.27246L8.13672 6.80273L8.19336 6.75195ZM11.7227 7.25C12.1369 7.25 12.4727 7.58579 12.4727 8C12.4727 8.41421 12.1369 8.75 11.7227 8.75H10.3896C9.97544 8.75 9.63965 8.41421 9.63965 8C9.63965 7.58579 9.97544 7.25 10.3896 7.25H11.7227ZM8.13672 4.13672C8.42961 3.84383 8.90437 3.84383 9.19727 4.13672C9.48983 4.42964 9.49005 4.90448 9.19727 5.19727L8.19727 6.19727C8.05669 6.33784 7.86579 6.41691 7.66699 6.41699C7.46823 6.41699 7.27734 6.33771 7.13672 6.19727L6.46973 5.53027L6.41797 5.47363C6.17766 5.17905 6.19512 4.74433 6.46973 4.46973C6.74433 4.19512 7.17905 4.17766 7.47363 4.41797L7.53027 4.46973L7.66699 4.60645L8.13672 4.13672ZM11.7227 4.58301C12.1368 4.58301 12.4725 4.91894 12.4727 5.33301C12.4727 5.74722 12.1369 6.08301 11.7227 6.08301H10.3896C9.97544 6.08301 9.63965 5.74722 9.63965 5.33301C9.63982 4.91894 9.97554 4.58301 10.3896 4.58301H11.7227Z" fill="currentColor"/>
</svg>
