<svg viewBox="0 0 24 24" fill="none" xmlns="http://www.w3.org/2000/svg">
<path d="M14.3691 9.72461C14.7619 9.40426 15.3409 9.42685 15.707 9.79297C16.0731 10.1591 16.0957 10.7381 15.7754 11.1309L15.707 11.207L11.957 14.957C11.8856 15.0285 11.8054 15.0856 11.7207 15.1309C11.7063 15.1386 11.6915 15.1454 11.6768 15.1523C11.6647 15.158 11.6528 15.1638 11.6406 15.1689C11.6187 15.1783 11.5966 15.1867 11.5742 15.1943C11.5692 15.196 11.5646 15.1986 11.5596 15.2002C11.537 15.2075 11.5141 15.2131 11.4912 15.2188C11.4824 15.2209 11.4737 15.2236 11.4648 15.2256C11.4477 15.2294 11.4304 15.2325 11.4131 15.2354C11.3962 15.2381 11.3793 15.2403 11.3623 15.2422C11.3512 15.2434 11.3402 15.2442 11.3291 15.2451C11.3092 15.2467 11.2894 15.2486 11.2695 15.249C11.2565 15.2493 11.2435 15.2493 11.2305 15.249C11.2119 15.2487 11.1934 15.2475 11.1748 15.2461C11.1634 15.2452 11.152 15.2444 11.1406 15.2432C11.1204 15.2409 11.1002 15.2378 11.0801 15.2344C11.069 15.2325 11.0579 15.2308 11.0469 15.2285C11.0314 15.2253 11.0163 15.2207 11.001 15.2168C10.9244 15.1972 10.8494 15.1699 10.7783 15.1318C10.7669 15.1257 10.7564 15.1179 10.7451 15.1113C10.6733 15.0691 10.6046 15.0187 10.543 14.957L8.29297 12.707L8.22461 12.6309C7.90426 12.2381 7.92685 11.6591 8.29297 11.293C8.65908 10.9269 9.23809 10.9043 9.63086 11.2246L9.70703 11.293L11.25 12.8359L14.293 9.79297L14.3691 9.72461Z" fill="currentColor"/>
<path d="M12 2C17.5228 2 22 6.47716 22 12C22 17.5228 17.5228 22 12 22C6.47716 22 2 17.5228 2 12C2 6.47716 6.47716 2 12 2ZM12 4C7.58173 4 4 7.58173 4 12C4 16.4183 7.58173 20 12 20C16.4183 20 20 16.4183 20 12C20 7.58173 16.4183 4 12 4Z" fill="currentColor"/>
</svg>
