<svg viewBox="0 0 32 32" fill="none" xmlns="http://www.w3.org/2000/svg">
<path d="M14.1367 18.7832C14.6248 18.2951 15.4161 18.2952 15.9043 18.7832C16.3924 19.2714 16.3924 20.0626 15.9043 20.5508L12.7686 23.6865C12.5342 23.9207 12.2161 24.0527 11.8848 24.0527C11.5948 24.0527 11.3151 23.9517 11.0928 23.7695L11.001 23.6865L9.44922 22.1348L9.36328 22.04C8.9631 21.5492 8.99203 20.8248 9.44922 20.3672C9.90684 19.9097 10.6312 19.881 11.1221 20.2812L11.2168 20.3672L11.8848 21.0352L14.1367 18.7832Z" fill="currentColor"/>
<path d="M21.4619 21.4229C22.0919 21.4872 22.584 22.0201 22.584 22.667C22.5838 23.3138 22.0917 23.8458 21.4619 23.9102L21.334 23.917H18.667C17.9767 23.917 17.4172 23.3572 17.417 22.667C17.417 21.9766 17.9766 21.417 18.667 21.417H21.334L21.4619 21.4229Z" fill="currentColor"/>
<path d="M19.7646 2.75684C19.8817 2.76265 19.9985 2.77357 20.1143 2.78711C20.128 2.78836 20.1416 2.7903 20.1553 2.79199C21.3077 2.93596 22.3869 3.45832 23.2168 4.28809L26.3789 7.4502L26.5586 7.63867C27.4304 8.60167 27.916 9.85691 27.916 11.1621V24.667C27.9158 27.1981 25.8642 29.25 23.333 29.25H8C5.83705 29.2498 4.08301 27.496 4.08301 25.333V7.33301C4.08318 4.80208 6.13514 2.75037 8.66602 2.75H19.5039L19.7646 2.75684ZM8.66602 5.25C7.51585 5.25037 6.58318 6.18279 6.58301 7.33301V25.333C6.58301 26.1153 7.21776 26.7498 8 26.75H23.333C24.4835 26.75 25.4158 25.8174 25.416 24.667V11.917H22C20.2052 11.917 18.7503 10.4617 18.75 8.66699V5.25H8.66602ZM21.25 8.66699C21.2503 9.08098 21.5859 9.41699 22 9.41699H24.792L24.6113 9.21777L21.4482 6.05566C21.3848 5.99229 21.3186 5.93241 21.25 5.87598V8.66699Z" fill="currentColor"/>
</svg>
