<svg viewBox="0 0 24 24" fill="none" xmlns="http://www.w3.org/2000/svg">
<path d="M12 3C16.9706 3 21 7.02944 21 12C21 16.9706 16.9706 21 12 21C7.02944 21 3 16.9706 3 12C3 7.02944 7.02944 3 12 3ZM15.707 9.79297C15.3409 9.42711 14.7618 9.40437 14.3691 9.72461L14.293 9.79297L11.25 12.8359L9.70703 11.293L9.63086 11.2246C9.2381 10.9045 8.659 10.927 8.29297 11.293C7.92695 11.659 7.9045 12.2381 8.22461 12.6309L8.29297 12.707L10.543 14.957L10.6191 15.0264C10.634 15.0384 10.6507 15.0485 10.666 15.0596C10.7024 15.0859 10.7395 15.111 10.7783 15.1318C10.791 15.1386 10.8045 15.1442 10.8174 15.1504C10.8335 15.1581 10.8498 15.166 10.8662 15.1729C10.8828 15.1797 10.9001 15.1854 10.917 15.1914C10.927 15.195 10.9372 15.1989 10.9473 15.2021C10.9643 15.2075 10.9818 15.2123 10.999 15.2168C11.0152 15.221 11.0316 15.2252 11.0479 15.2285C11.0591 15.2308 11.0707 15.2325 11.082 15.2344C11.1011 15.2376 11.1205 15.2401 11.1396 15.2422C11.1516 15.2435 11.1638 15.2452 11.1758 15.2461C11.1939 15.2474 11.2123 15.2487 11.2305 15.249C11.2434 15.2493 11.2566 15.2493 11.2695 15.249C11.2897 15.2486 11.31 15.2467 11.3301 15.2451C11.3408 15.2443 11.3516 15.2434 11.3623 15.2422C11.3819 15.24 11.4015 15.2367 11.4209 15.2334C11.4309 15.2317 11.4412 15.2306 11.4512 15.2285C11.4725 15.2242 11.4936 15.2186 11.5146 15.2129C11.5253 15.21 11.5363 15.2074 11.5469 15.2041C11.5632 15.199 11.5796 15.1934 11.5957 15.1875C11.6104 15.1821 11.6251 15.1761 11.6396 15.1699C11.6541 15.1638 11.6684 15.1572 11.6826 15.1504C11.6954 15.1442 11.7081 15.1376 11.7207 15.1309C11.7372 15.122 11.7534 15.1124 11.7695 15.1025C11.8359 15.062 11.8996 15.0145 11.957 14.957L15.707 11.207L15.7754 11.1309C16.0957 10.7382 16.0729 10.1591 15.707 9.79297Z" fill="currentColor"/>
</svg>
