<svg viewBox="0 0 16 16" fill="none" xmlns="http://www.w3.org/2000/svg">
<path d="M9.52637 6.41797C9.82095 6.17766 10.2557 6.19512 10.5303 6.46973C10.8049 6.74433 10.8223 7.17905 10.582 7.47363L10.5303 7.53027L8.03027 10.0303C7.98242 10.0781 7.92804 10.1152 7.87207 10.1475C7.84466 10.1632 7.81785 10.1794 7.78906 10.1914C7.77131 10.1988 7.75254 10.203 7.73438 10.209C7.70876 10.2174 7.68345 10.2258 7.65723 10.2314C7.63591 10.236 7.61434 10.2375 7.59277 10.2402C7.56732 10.2434 7.54221 10.2475 7.5166 10.248C7.49798 10.2485 7.47954 10.2471 7.46094 10.2461C7.43177 10.2446 7.40289 10.2422 7.37402 10.2373C7.35592 10.2342 7.33819 10.23 7.32031 10.2256C7.29359 10.219 7.26722 10.2117 7.24121 10.2021C7.22288 10.1954 7.20537 10.1869 7.1875 10.1787C7.16083 10.1664 7.13475 10.1533 7.10938 10.1377C7.08123 10.1204 7.05252 10.1034 7.02637 10.082L6.96973 10.0303L5.46973 8.53027L5.41797 8.47363C5.17766 8.17905 5.19512 7.74433 5.46973 7.46973C5.74433 7.19513 6.17905 7.17766 6.47363 7.41797L6.53027 7.46973L7.5 8.43945L9.46973 6.46973L9.52637 6.41797Z" fill="currentColor"/>
<path d="M8 1.25C11.7279 1.25 14.75 4.27208 14.75 8C14.75 11.7279 11.7279 14.75 8 14.75C4.27208 14.75 1.25 11.7279 1.25 8C1.25 4.27208 4.27208 1.25 8 1.25ZM8 2.75C5.10051 2.75 2.75 5.10051 2.75 8C2.75 10.8995 5.10051 13.25 8 13.25C10.8995 13.25 13.25 10.8995 13.25 8C13.25 5.10051 10.8995 2.75 8 2.75Z" fill="currentColor"/>
</svg>
