<svg viewBox="0 0 24 24" fill="none" xmlns="http://www.w3.org/2000/svg">
<path d="M19 2C20.6569 2 22 3.34315 22 5V15C22 16.6569 20.6569 18 19 18H18V19C18 20.6569 16.6569 22 15 22H5C3.34315 22 2 20.6569 2 19V9C2 7.34315 3.34315 6 5 6H6V5C6 3.34315 7.34315 2 9 2H19ZM5 8C4.44772 8 4 8.44772 4 9V19C4 19.5523 4.44772 20 5 20H15C15.5523 20 16 19.5523 16 19V18H9C7.34315 18 6 16.6569 6 15V8H5ZM9 4C8.44772 4 8 4.44772 8 5V15C8 15.5523 8.44772 16 9 16H19C19.5523 16 20 15.5523 20 15V5C20 4.44772 19.5523 4 19 4H9ZM12.293 10.293C12.6835 9.90244 13.3165 9.90244 13.707 10.293C14.0976 10.6835 14.0976 11.3165 13.707 11.707L12.207 13.207C11.8165 13.5976 11.1835 13.5976 10.793 13.207L9.79297 12.207L9.72461 12.1309C9.40426 11.7381 9.42685 11.1591 9.79297 10.793C10.1591 10.4269 10.7381 10.4043 11.1309 10.7246L11.207 10.793L11.5 11.0859L12.293 10.293ZM17.6855 11.0049C18.1898 11.0561 18.583 11.4822 18.583 12C18.583 12.5178 18.1898 12.9439 17.6855 12.9951L17.583 13H15.583C15.0309 12.9998 14.583 12.5522 14.583 12C14.583 11.4478 15.0309 11.0002 15.583 11H17.583L17.6855 11.0049ZM12.293 6.29297C12.6835 5.90244 13.3165 5.90244 13.707 6.29297C14.0976 6.68349 14.0976 7.31651 13.707 7.70703L12.207 9.20703C11.8165 9.59756 11.1835 9.59756 10.793 9.20703L9.79297 8.20703L9.72461 8.13086C9.40426 7.73809 9.42685 7.15908 9.79297 6.79297C10.1591 6.42685 10.7381 6.40426 11.1309 6.72461L11.207 6.79297L11.5 7.08594L12.293 6.29297ZM17.583 7C18.1353 7 18.583 7.44772 18.583 8C18.583 8.55228 18.1353 9 17.583 9H15.583C15.0309 8.99983 14.583 8.55218 14.583 8C14.583 7.44782 15.0309 7.00017 15.583 7H17.583Z" fill="currentColor"/>
</svg>
