<svg viewBox="0 0 16 16" fill="none" xmlns="http://www.w3.org/2000/svg">
<path d="M14 2.66675C14 1.56218 13.1046 0.666748 12 0.666748H4C2.89543 0.666748 2 1.56218 2 2.66675V13.3334C2 14.438 2.89543 15.3334 4 15.3334H12C13.1046 15.3334 14 14.438 14 13.3334V2.66675ZM4.66667 9.33342V8.00008H8V9.33342H4.66667ZM4.66667 10.6667H8V12.0001H4.66667V10.6667ZM9.33333 8.00008H11.3333V9.33342H9.33333V8.00008ZM9.33333 10.6667H11.3333V12.0001H9.33333V10.6667ZM9.33333 5.33342H11.3333V6.66675H9.33333V5.33342ZM8.9428 4.00008L6 6.94288L4.05719 5.00008L5 4.05727L6 5.05727L8 3.05727L8.9428 4.00008Z" fill="currentColor"/>
</svg>
