<svg viewBox="0 0 16 16" fill="none" xmlns="http://www.w3.org/2000/svg">
<path d="M4.46965 9.21954C4.76254 8.92675 5.23733 8.92671 5.5302 9.21954L7.99993 11.6893L10.4697 9.21954L10.5263 9.16779C10.8209 8.92757 11.2556 8.945 11.5302 9.21954C11.8048 9.49412 11.8222 9.92887 11.582 10.2235L11.5302 10.2801L8.5302 13.2801C8.2556 13.5547 7.82088 13.5722 7.5263 13.3318L7.46965 13.2801L4.46965 10.2801C4.17679 9.9872 4.17677 9.51243 4.46965 9.21954Z" fill="currentColor"/>
<path d="M7.5263 2.66779C7.82086 2.42756 8.25562 2.445 8.5302 2.71954L11.5302 5.71954L11.582 5.77619C11.8222 6.07074 11.8047 6.50548 11.5302 6.78009C11.2556 7.0547 10.8209 7.07216 10.5263 6.83185L10.4697 6.78009L7.99993 4.31037L5.5302 6.78009C5.23731 7.07299 4.76255 7.07299 4.46965 6.78009C4.17679 6.4872 4.17677 6.01243 4.46965 5.71954L7.46965 2.71954L7.5263 2.66779Z" fill="currentColor"/>
</svg>
