<svg viewBox="0 0 32 32" fill="none" xmlns="http://www.w3.org/2000/svg">
<path d="M21.3662 19.1162C21.8544 18.6281 22.6456 18.6281 23.1338 19.1162C23.6219 19.6044 23.6219 20.3956 23.1338 20.8838L16.8838 27.1338L16.7891 27.2197C16.2981 27.6202 15.5739 27.5915 15.1162 27.1338L8.86621 20.8838L8.78027 20.7891C8.37979 20.2981 8.40855 19.5739 8.86621 19.1162C9.32387 18.6585 10.0481 18.6298 10.5391 19.0303L10.6338 19.1162L16 24.4824L21.3662 19.1162Z" fill="currentColor"/>
<path d="M15.2109 4.78027C15.7019 4.37979 16.4261 4.40855 16.8838 4.86621L23.1338 11.1162L23.2197 11.2109C23.6202 11.7019 23.5915 12.4261 23.1338 12.8838C22.6761 13.3415 21.9519 13.3702 21.4609 12.9697L21.3662 12.8838L16 7.51758L10.6338 12.8838C10.1456 13.3719 9.35437 13.3719 8.86621 12.8838C8.37806 12.3956 8.37806 11.6044 8.86621 11.1162L15.1162 4.86621L15.2109 4.78027Z" fill="currentColor"/>
</svg>
