<svg viewBox="0 0 24 24" fill="none" xmlns="http://www.w3.org/2000/svg">
<path d="M15.7931 14.2932C16.1836 13.9027 16.8166 13.9027 17.2072 14.2932C17.5975 14.6838 17.5976 15.3168 17.2072 15.7073L12.7072 20.2073L12.631 20.2756C12.2383 20.5959 11.6592 20.5732 11.2931 20.2073L6.7931 15.7073L6.72474 15.6311C6.40441 15.2384 6.42706 14.6593 6.7931 14.2932C7.15921 13.9271 7.73821 13.9045 8.13099 14.2249L8.20716 14.2932L12.0001 18.0862L15.7931 14.2932Z" fill="currentColor"/>
<path d="M11.3693 3.72486C11.762 3.40451 12.341 3.42711 12.7072 3.79322L17.2072 8.29322L17.2755 8.36939C17.5957 8.76217 17.5732 9.34122 17.2072 9.70728C16.8411 10.0733 16.262 10.0958 15.8693 9.77564L15.7931 9.70728L12.0001 5.91432L8.20716 9.70728C7.81668 10.0977 7.18361 10.0976 6.7931 9.70728C6.4026 9.31679 6.40265 8.68375 6.7931 8.29322L11.2931 3.79322L11.3693 3.72486Z" fill="currentColor"/>
</svg>
