<svg viewBox="0 0 24 24" fill="none" xmlns="http://www.w3.org/2000/svg">
<path d="M16 9.25C17.4517 9.25 18.8009 9.48422 19.8145 9.88965C20.319 10.0915 20.7773 10.3508 21.1221 10.6768C21.4479 10.9849 21.7124 11.3987 21.7432 11.9033C21.7473 11.935 21.751 11.9672 21.751 12C21.751 12.0049 21.75 12.0098 21.75 12.0146V15.9805C21.7502 15.987 21.751 15.9935 21.751 16C21.751 16.0049 21.75 16.0098 21.75 16.0146V20C21.75 20.5488 21.4685 20.9955 21.1221 21.3232C20.7773 21.6493 20.319 21.9085 19.8145 22.1104C18.8011 22.5156 17.4525 22.7489 16.001 22.749L16 22.75L15.999 22.749C14.5479 22.7488 13.1996 22.5156 12.1865 22.1104C11.682 21.9085 11.2237 21.6493 10.8789 21.3232C10.5324 20.9955 10.251 20.5488 10.251 20V12.0146C10.2509 12.0098 10.25 12.0049 10.25 12C10.25 11.7608 10.3055 11.5418 10.3945 11.3428C10.4021 11.3257 10.4099 11.3088 10.418 11.292C10.4329 11.2612 10.4483 11.2309 10.4648 11.2012C10.4764 11.1803 10.4887 11.16 10.501 11.1396C10.5172 11.1129 10.5334 11.0863 10.5508 11.0605C10.5659 11.038 10.5817 11.016 10.5977 10.9941C10.6152 10.9703 10.632 10.9459 10.6504 10.9229C10.7208 10.8344 10.7978 10.7526 10.8779 10.6768C11.0072 10.5544 11.1527 10.4418 11.3105 10.3379C11.5733 10.1647 11.8703 10.0158 12.1855 9.88965C13.1991 9.48422 14.5483 9.25 16 9.25ZM20.25 17.9141C20.1102 17.9843 19.9651 18.0505 19.8154 18.1104C18.8019 18.5157 17.4529 18.75 16.001 18.75C14.5491 18.75 13.2001 18.5157 12.1865 18.1104C12.0365 18.0504 11.891 17.9845 11.751 17.9141V20C11.751 20.0037 11.75 20.0827 11.9092 20.2334C12.0703 20.3858 12.3441 20.5578 12.7441 20.7178C13.5399 21.036 14.6905 21.2489 16 21.249C17.3099 21.249 18.4609 21.0361 19.2568 20.7178C19.6569 20.5578 19.9307 20.3858 20.0918 20.2334C20.251 20.0827 20.25 20.0037 20.25 20V17.9141ZM20.25 13.9141C20.1102 13.9843 19.9651 14.0505 19.8154 14.1104C18.8019 14.5157 17.4529 14.75 16.001 14.75L16 14.749C14.5483 14.749 13.1991 14.5158 12.1855 14.1104C12.0358 14.0505 11.8908 13.9843 11.751 13.9141V16C11.751 16.0037 11.75 16.0827 11.9092 16.2334C12.0703 16.3858 12.3441 16.5578 12.7441 16.7178C13.5401 17.0361 14.6911 17.25 16.001 17.25C17.3109 17.25 18.4619 17.0361 19.2578 16.7178C19.6579 16.5578 19.9317 16.3858 20.0928 16.2334C20.2372 16.0967 20.2489 16.019 20.25 16.0029V13.9141Z" fill="currentColor"/>
<path d="M8 2.25C9.4517 2.25 10.8009 2.48422 11.8145 2.88965C12.319 3.09149 12.7773 3.35075 13.1221 3.67676C13.4479 3.98489 13.7124 4.39865 13.7432 4.90332C13.7473 4.93502 13.75 4.96719 13.75 5V8C13.75 8.41405 13.414 8.74974 13 8.75C12.586 8.74974 12.25 8.41405 12.25 8V6.91406C12.1099 6.98446 11.9644 7.05035 11.8145 7.11035C10.8009 7.51578 9.4517 7.75 8 7.75C6.5483 7.75 5.19912 7.51578 4.18555 7.11035C4.03556 7.05035 3.89006 6.98446 3.75 6.91406V8.98047C3.75017 8.98697 3.75098 8.99346 3.75098 9C3.75098 9.00372 3.74996 9.0827 3.90918 9.2334C4.07028 9.38579 4.34409 9.55776 4.74414 9.71777C5.54009 10.0361 6.69105 10.25 8.00098 10.25C8.41519 10.25 8.75098 10.5858 8.75098 11C8.75098 11.4142 8.41519 11.75 8.00098 11.75C6.54906 11.75 5.20005 11.5157 4.18652 11.1104C4.03611 11.0502 3.89041 10.9837 3.75 10.9131V12.9805C3.75017 12.987 3.75098 12.9935 3.75098 13C3.75098 13.0037 3.74997 13.0827 3.90918 13.2334C4.07027 13.3858 4.34415 13.5578 4.74414 13.7178C5.44045 13.9963 6.40836 14.195 7.5166 14.2402L8 14.25L8.07617 14.2539C8.45459 14.2921 8.75 14.6115 8.75 15C8.75 15.3885 8.45459 15.7079 8.07617 15.7461L8 15.75L7.46094 15.7393C6.21661 15.6889 5.07325 15.4651 4.18652 15.1104C4.03616 15.0502 3.89048 14.9837 3.75 14.9131V17C3.75 17.0036 3.74885 17.0826 3.9082 17.2334C4.06938 17.3858 4.34304 17.5578 4.74316 17.7178C5.53929 18.0362 6.69046 18.25 8 18.25C8.41421 18.25 8.75 18.5858 8.75 19C8.75 19.4142 8.41421 19.75 8 19.75C6.54864 19.75 5.20012 19.5157 4.18652 19.1104C3.68179 18.9085 3.22284 18.6494 2.87793 18.3232C2.54994 18.0131 2.28275 17.5961 2.25488 17.0869C2.25159 17.0584 2.25 17.0294 2.25 17V5C2.25 4.97028 2.25152 4.94093 2.25488 4.91211C2.28305 4.4034 2.5502 3.98669 2.87793 3.67676C3.22269 3.35075 3.68105 3.09149 4.18555 2.88965C5.19912 2.48422 6.5483 2.25 8 2.25Z" fill="currentColor"/>
</svg>
