<svg viewBox="0 0 24 24" fill="none" xmlns="http://www.w3.org/2000/svg">
<path d="M13 3C15.8 3 17.2 3.00013 18.2695 3.54492C19.2103 4.02429 19.9757 4.78966 20.4551 5.73047C20.9999 6.79998 21 8.20006 21 11V13C21 15.7999 20.9999 17.2 20.4551 18.2695C19.9757 19.2103 19.2103 19.9757 18.2695 20.4551C17.2 20.9999 15.7999 21 13 21H11C8.20005 21 6.79998 20.9999 5.73047 20.4551C4.78966 19.9757 4.02429 19.2103 3.54492 18.2695C3.00014 17.2 3 15.7999 3 13V11C3 8.20006 3.00014 6.79998 3.54492 5.73047C4.02429 4.78966 4.78966 4.02429 5.73047 3.54492C6.79998 3.00013 8.20005 3 11 3H13ZM12 8C9.79086 8 8 9.79086 8 12C8.00001 14.2091 9.79087 16 12 16C13.9527 16 15.5776 14.6005 15.9287 12.75H12C11.5858 12.75 11.25 12.4142 11.25 12C11.25 11.5858 11.5858 11.25 12 11.25H15.9287C15.5776 9.39945 13.9527 8 12 8Z" fill="currentColor"/>
</svg>
