<svg viewBox="0 0 24 24" fill="none" xmlns="http://www.w3.org/2000/svg">
<path d="M19.6162 15.591C19.972 15.3792 20.4326 15.496 20.6445 15.8517C20.8563 16.2075 20.7395 16.6681 20.3838 16.88L12.3838 21.6447C12.1473 21.7855 11.8527 21.7855 11.6162 21.6447L3.61621 16.88L3.55273 16.8371C3.24744 16.6106 3.15687 16.1854 3.35547 15.8517C3.55425 15.5181 3.97183 15.3942 4.31641 15.5548L4.38379 15.591L12 20.1271L19.6162 15.591Z" fill="currentColor"/>
<path d="M19.6162 11.3556C19.972 11.1439 20.4325 11.2608 20.6445 11.6164C20.8564 11.9722 20.7395 12.4327 20.3838 12.6447L12.3838 17.4093C12.1473 17.5502 11.8527 17.5502 11.6162 17.4093L3.61621 12.6447L3.55273 12.6017C3.2475 12.3752 3.15682 11.95 3.35547 11.6164C3.55427 11.2829 3.97191 11.1589 4.31641 11.3195L4.38379 11.3556L12 15.8918L19.6162 11.3556Z" fill="currentColor"/>
<path d="M11.6094 2.07926C11.9001 1.95595 12.2358 1.97656 12.5117 2.14078L20.5117 6.90641C20.8142 7.08665 20.9997 7.41274 21 7.76481C21 8.11712 20.8144 8.44383 20.5117 8.62418L12.5117 13.3888C12.1965 13.5764 11.8035 13.5764 11.4883 13.3888L3.48828 8.62418C3.18565 8.44383 3.00002 8.11712 3 7.76481C3.00026 7.41274 3.18581 7.08665 3.48828 6.90641L11.4883 2.14078L11.6094 2.07926Z" fill="currentColor"/>
</svg>
