<svg viewBox="0 0 32 32" fill="none" xmlns="http://www.w3.org/2000/svg">
<path d="M18.6822 26.1348C19.2993 25.9919 19.937 26.337 20.146 26.9492C20.3688 27.6024 20.0198 28.3131 19.3668 28.5361L18.8619 28.6973C17.6735 29.0516 16.413 29.25 15.1031 29.25C13.606 29.25 12.1736 28.991 10.8384 28.5361C10.1852 28.3134 9.83576 27.6035 10.0582 26.9502C10.2809 26.2969 10.9917 25.9473 11.6451 26.1699C12.7363 26.5416 13.8964 26.75 15.1031 26.75C16.3097 26.75 17.4696 26.5414 18.5591 26.1699L18.6822 26.1348Z" fill="currentColor"/>
<path d="M3.09136 17.1064C3.72617 16.9812 4.34389 17.361 4.52886 17.9668L4.56011 18.0908L4.65679 18.5312C5.18538 20.7152 6.3853 22.6374 8.02691 24.0771C8.54573 24.5321 8.59767 25.3218 8.14312 25.8408C7.68794 26.3599 6.89751 26.4122 6.37847 25.957L5.98296 25.5957C4.16924 23.8723 2.83733 21.6411 2.2271 19.1201L2.10699 18.5752L2.08843 18.4482C2.02949 17.8177 2.45665 17.2318 3.09136 17.1064Z" fill="currentColor"/>
<path d="M25.6763 17.9668C25.8612 17.3611 26.4791 16.9814 27.1138 17.1064C27.7485 17.2318 28.1757 17.8177 28.1168 18.4482L28.0982 18.5752C27.5201 21.5025 25.9768 24.0715 23.8267 25.957L23.7261 26.0361C23.21 26.4035 22.4897 26.3274 22.063 25.8408C21.6082 25.3218 21.6594 24.5322 22.1783 24.0771L22.5005 23.7832C24.0825 22.2801 25.207 20.309 25.6451 18.0908L25.6763 17.9668Z" fill="currentColor"/>
<path d="M22.2466 5.75488C23.2898 4.20454 25.6341 4.25408 26.5904 5.91113L29.5709 11.0703C30.5604 12.7813 29.3222 14.9167 27.3511 14.917H21.3921L21.2095 14.9102C19.3437 14.7835 18.219 12.7279 19.1675 11.0742L19.1695 11.0703L22.15 5.91113L22.2466 5.75488ZM24.3365 7.13672C24.3337 7.13823 24.3312 7.14013 24.3287 7.14258C24.3262 7.14495 24.3206 7.15079 24.314 7.16211L24.313 7.16113L21.3355 12.3174L21.3365 12.3184C21.3302 12.3292 21.3276 12.3366 21.3267 12.3398C21.3259 12.3431 21.3257 12.3465 21.3257 12.3496C21.3259 12.357 21.3284 12.3696 21.3365 12.3838C21.3448 12.3982 21.355 12.4066 21.3609 12.4102C21.3635 12.4117 21.3665 12.4132 21.3697 12.4141C21.3729 12.4149 21.3799 12.417 21.3921 12.417H27.3511C27.3636 12.417 27.3705 12.4149 27.3736 12.4141C27.3769 12.4131 27.3797 12.4118 27.3824 12.4102C27.3884 12.4065 27.3978 12.3986 27.4058 12.3848C27.4139 12.3707 27.4164 12.3581 27.4166 12.3516C27.4166 12.3487 27.4164 12.3459 27.4156 12.3428L27.4058 12.3213L24.4253 7.16113C24.419 7.1502 24.4139 7.14377 24.4117 7.1416C24.4093 7.13933 24.4064 7.13814 24.4039 7.13672C24.3979 7.13349 24.3866 7.12893 24.3707 7.12891C24.3546 7.12891 24.3428 7.13328 24.3365 7.13672Z" fill="currentColor"/>
<path d="M15.1031 2.75C16.413 2.75003 17.6735 2.94744 18.8619 3.30176L19.3668 3.46289L19.4859 3.51074C20.0613 3.7749 20.3546 4.43756 20.146 5.0498C19.9371 5.66239 19.2995 6.00729 18.6822 5.86426L18.5591 5.8291L18.148 5.69727C17.1795 5.40847 16.159 5.25003 15.1031 5.25C13.8965 5.25 12.7363 5.45746 11.6451 5.8291L11.522 5.86426C10.9047 6.00708 10.267 5.66235 10.0582 5.0498C9.83572 4.39645 10.1851 3.68555 10.8384 3.46289L11.3443 3.30176C12.5331 2.94768 13.7933 2.75 15.1031 2.75Z" fill="currentColor"/>
<path d="M4.56011 13.9082C4.42664 14.5853 3.76951 15.0258 3.09234 14.8926C2.415 14.7592 1.97357 14.1021 2.10699 13.4248C2.68377 10.4969 4.22755 7.92953 6.37847 6.04297C6.89746 5.58795 7.68795 5.63933 8.14312 6.1582C8.59804 6.67716 8.54565 7.46671 8.02691 7.92188C6.27409 9.45919 5.02605 11.5431 4.56011 13.9082Z" fill="currentColor"/>
</svg>
