<svg viewBox="0 0 16 16" fill="none" xmlns="http://www.w3.org/2000/svg">
<path d="M9.31301 12.9453C9.68331 12.8596 10.0656 13.0671 10.1909 13.4346C10.3163 13.8022 10.1402 14.2001 9.79446 14.3584L9.72317 14.3867C9.04389 14.6183 8.31425 14.75 7.55129 14.75C6.88369 14.75 6.24168 14.6491 5.63625 14.4688L5.37844 14.3867L5.30715 14.3584C4.96168 14.2 4.78547 13.8021 4.91067 13.4346C5.03595 13.0672 5.41834 12.8598 5.7886 12.9453L5.86282 12.9668L6.06399 13.0312C6.53785 13.1724 7.03602 13.25 7.55129 13.25C8.14008 13.25 8.70627 13.1484 9.23879 12.9668L9.31301 12.9453Z" fill="currentColor"/>
<path d="M1.52102 8.43164C1.90197 8.35641 2.27236 8.5837 2.38333 8.94727L2.40188 9.02148L2.44973 9.23633C2.70777 10.3025 3.29315 11.2419 4.09524 11.9453C4.40657 12.2184 4.43863 12.6925 4.16555 13.0039C3.89253 13.3149 3.41829 13.3459 3.10696 13.0732C2.08049 12.1731 1.3249 10.9661 0.991724 9.58984L0.931177 9.3125L0.919458 9.23633C0.883888 8.85803 1.14033 8.50708 1.52102 8.43164Z" fill="currentColor"/>
<path d="M13.5816 8.43164C13.9877 8.51204 14.2526 8.90625 14.1724 9.3125L14.1109 9.58984C13.7777 10.9661 13.0221 12.1731 11.9956 13.0732L11.9361 13.1201C11.6266 13.3406 11.1942 13.2953 10.938 13.0039C10.6649 12.6925 10.696 12.2184 11.0073 11.9453L11.1646 11.8018C11.9375 11.0674 12.4868 10.1042 12.7007 9.02148L12.7193 8.94727C12.8302 8.58369 13.2006 8.35641 13.5816 8.43164Z" fill="currentColor"/>
<path d="M11.0777 2.72754C11.6746 1.95963 12.8948 2.01322 13.4029 2.89258L14.8931 5.47266L14.981 5.65137C15.3495 6.55368 14.6891 7.58287 13.6753 7.58301H10.6958L10.6187 7.5791C10.6142 7.57862 10.6095 7.57769 10.605 7.57715C9.57562 7.51361 8.95304 6.38465 9.47512 5.47461L9.4761 5.47266L10.9663 2.89258L11.0777 2.72754ZM10.856 6.08301H13.5132L12.1841 3.78125L10.856 6.08301Z" fill="currentColor"/>
<path d="M7.55129 1.25C8.21896 1.25 8.86113 1.35082 9.46633 1.53125L9.72317 1.61328L9.79446 1.6416C10.1401 1.79992 10.3162 2.19786 10.1909 2.56543C10.0655 2.93284 9.6833 3.13947 9.31301 3.05371L9.23879 3.0332L9.03762 2.96875C8.56444 2.82769 8.06649 2.75 7.55129 2.75C6.96252 2.75 6.39622 2.85153 5.86282 3.0332C5.47086 3.16673 5.04439 2.95726 4.91067 2.56543C4.7773 2.17352 4.98665 1.74695 5.37844 1.61328C6.05825 1.3817 6.78822 1.25 7.55129 1.25Z" fill="currentColor"/>
<path d="M2.40286 6.97852C2.32272 7.38463 1.92816 7.64909 1.522 7.56934C1.11579 7.48923 0.850344 7.09472 0.9302 6.68848C1.22414 5.19634 2.01153 3.88849 3.10696 2.92773C3.41832 2.65466 3.89143 2.68581 4.16458 2.99707C4.43756 3.30833 4.40719 3.7815 4.09622 4.05469C3.23972 4.80588 2.63027 5.82409 2.40286 6.97852Z" fill="currentColor"/>
</svg>
