<svg viewBox="0 0 24 24" fill="none" xmlns="http://www.w3.org/2000/svg">
<path d="M13.8989 19.5684C14.4216 19.3901 14.9901 19.6698 15.1685 20.1924C15.3464 20.7149 15.0678 21.2835 14.5454 21.4619C13.5388 21.8052 12.4575 21.9999 11.3277 22C10.1977 22 9.11635 21.8051 8.10891 21.4619C7.58622 21.2839 7.307 20.7151 7.48488 20.1924C7.66314 19.67 8.2309 19.3905 8.75344 19.5684C9.56583 19.8451 10.4299 20 11.3277 20C12.2253 19.9999 13.088 19.8449 13.8989 19.5684Z" fill="currentColor"/>
<path d="M2.30715 12.7686C2.81481 12.6688 3.30873 12.9725 3.45656 13.457L3.48195 13.5566L3.55324 13.8838C3.92033 15.4006 4.72297 16.7478 5.8218 17.792L6.06203 18.0107L6.13527 18.082C6.48043 18.4528 6.49555 19.0326 6.15481 19.4219C5.81353 19.811 5.23661 19.8718 4.82375 19.5781L4.7427 19.5146L4.44484 19.2422C3.07591 17.9415 2.07045 16.2576 1.60988 14.3545L1.51906 13.9434L1.50441 13.8428C1.45679 13.338 1.79909 12.8689 2.30715 12.7686Z" fill="currentColor"/>
<path d="M19.1988 13.457C19.3467 12.9724 19.8403 12.6683 20.3482 12.7686C20.8896 12.8757 21.242 13.4018 21.1353 13.9434L21.0454 14.3545C20.5521 16.3933 19.4327 18.1806 17.9116 19.5146C17.4965 19.8787 16.8647 19.8369 16.5005 19.4219C16.1367 19.0066 16.1782 18.3748 16.5933 18.0107C17.8964 16.8678 18.8257 15.3167 19.1734 13.5566L19.1988 13.457Z" fill="currentColor"/>
<path d="M4.82375 4.42188C5.23659 4.12826 5.81353 4.18901 6.15481 4.57812C6.51824 4.9933 6.47686 5.62528 6.06203 5.98926L5.8218 6.20801C4.72184 7.25306 3.91955 8.59976 3.55324 10.1162L3.48195 10.4434C3.37518 10.985 2.8488 11.3379 2.30715 11.2314C1.76538 11.1247 1.41243 10.5984 1.51906 10.0566L1.60988 9.64551C2.10259 7.60658 3.22106 5.81996 4.7427 4.48535L4.82375 4.42188Z" fill="currentColor"/>
<path d="M16.6333 4.28125C17.4411 3.08073 19.256 3.11914 19.9966 4.40234L19.9976 4.40137L22.232 8.27148L22.2984 8.39648C22.9375 9.69808 21.9919 11.2498 20.5132 11.25H16.0445L15.9029 11.2451C14.458 11.1469 13.5872 9.55495 14.3218 8.27441L14.3238 8.27148L16.5581 4.40137L16.6333 4.28125ZM16.0679 9.25H20.4878L18.2779 5.42383L16.0679 9.25Z" fill="currentColor"/>
<path d="M11.3277 2C12.4575 2.00007 13.5388 2.19479 14.5454 2.53809C15.0678 2.71646 15.3464 3.28512 15.1685 3.80762C14.9901 4.33022 14.4216 4.60989 13.8989 4.43164C13.088 4.15512 12.2253 4.00007 11.3277 4C10.4299 4 9.56583 4.15492 8.75344 4.43164C8.2309 4.60947 7.66314 4.32998 7.48488 3.80762C7.307 3.28492 7.58622 2.71614 8.10891 2.53809C9.11635 2.19494 10.1977 2 11.3277 2Z" fill="currentColor"/>
</svg>
