<svg viewBox="0 0 24 24" fill="none" xmlns="http://www.w3.org/2000/svg">
<path d="M7.94975 4C6.90221 4 5.89757 4.41613 5.15685 5.15685C4.41613 5.89757 4 6.90221 4 7.94975C4 8.99728 4.41613 10.0019 5.15685 10.7426L6.15685 11.7426C6.54738 12.1332 6.54738 12.7663 6.15685 13.1569C5.76633 13.5474 5.13316 13.5474 4.74264 13.1569L3.74264 12.1569C2.62685 11.0411 2 9.52772 2 7.94975C2 6.37178 2.62685 4.85843 3.74264 3.74264C4.85843 2.62685 6.37178 2 7.94975 2C9.52772 2 11.0411 2.62685 12.1569 3.74264L20.2574 11.8432C20.8099 12.3956 21.2481 13.0515 21.5471 13.7734C21.8461 14.4953 22 15.2689 22 16.0503C22 16.8316 21.8461 17.6053 21.5471 18.3271C21.2481 19.049 20.8099 19.7049 20.2574 20.2574C19.1416 21.3732 17.6282 22 16.0503 22C14.4723 22 12.959 21.3732 11.8432 20.2574L8.5429 16.9571C8.22023 16.6344 7.96427 16.2514 7.78964 15.8298C7.61501 15.4082 7.52513 14.9563 7.52513 14.5C7.52513 14.0437 7.61501 13.5918 7.78964 13.1702C7.96427 12.7486 8.22023 12.3656 8.5429 12.0429C8.86557 11.7202 9.24864 11.4643 9.67023 11.2896C10.0918 11.115 10.5437 11.0251 11 11.0251C11.4563 11.0251 11.9082 11.115 12.3298 11.2896C12.7514 11.4643 13.1344 11.7202 13.4571 12.0429L16.7071 15.2929C17.0976 15.6834 17.0976 16.3166 16.7071 16.7071C16.3166 17.0976 15.6834 17.0976 15.2929 16.7071L12.0429 13.4571C11.9059 13.3202 11.7434 13.2115 11.5644 13.1374C11.3855 13.0633 11.1937 13.0251 11 13.0251C10.8063 13.0251 10.6145 13.0633 10.4356 13.1374C10.2567 13.2115 10.0941 13.3202 9.95711 13.4571C9.82016 13.5941 9.71151 13.7567 9.6374 13.9356C9.56328 14.1145 9.52513 14.3063 9.52513 14.5C9.52513 14.6937 9.56328 14.8855 9.6374 15.0644C9.71151 15.2434 9.82015 15.4059 9.95711 15.5429L13.2574 18.8432C13.9981 19.5839 15.0027 20 16.0503 20C17.0978 20 18.1024 19.5839 18.8432 18.8432C19.2099 18.4764 19.5009 18.041 19.6994 17.5618C19.8979 17.0826 20 16.569 20 16.0503C20 15.5316 19.8979 15.018 19.6994 14.5388C19.5009 14.0596 19.2099 13.6241 18.8432 13.2574L10.7426 5.15685C10.0019 4.41613 8.99728 4 7.94975 4Z" fill="currentColor"/>
</svg>
