<svg viewBox="0 0 16 16" fill="none" xmlns="http://www.w3.org/2000/svg">
<path d="M5.52484 3.25C4.92152 3.25 4.3429 3.48967 3.91629 3.91629C3.48967 4.3429 3.25 4.92152 3.25 5.52484C3.25 6.12817 3.48967 6.70678 3.91629 7.1334L4.5274 7.74451C4.82029 8.0374 4.82029 8.51228 4.5274 8.80517C4.2345 9.09806 3.75963 9.09806 3.46674 8.80517L2.85563 8.19406C2.14771 7.48614 1.75 6.52599 1.75 5.52484C1.75 4.52369 2.14771 3.56355 2.85562 2.85563C3.56355 2.14771 4.52369 1.75 5.52484 1.75C6.52599 1.75 7.48614 2.14771 8.19406 2.85562L13.1444 7.80594C13.4949 8.15646 13.773 8.5726 13.9627 9.03058C14.1524 9.48857 14.25 9.97943 14.25 10.4752C14.25 10.9709 14.1524 11.4617 13.9627 11.9197C13.773 12.3777 13.4949 12.7938 13.1444 13.1444C12.4365 13.8523 11.4763 14.25 10.4752 14.25C9.47401 14.25 8.51386 13.8523 7.80594 13.1444L5.78912 11.1276C5.57903 10.9175 5.41238 10.6681 5.29868 10.3936C5.18498 10.1191 5.12646 9.82488 5.12646 9.52777C5.12646 9.23067 5.18498 8.93647 5.29868 8.66198C5.41238 8.38749 5.57903 8.13808 5.78912 7.928C5.9992 7.71792 6.24861 7.55127 6.5231 7.43757C6.79759 7.32387 7.09178 7.26535 7.38889 7.26535C7.68599 7.26535 7.98019 7.32387 8.25468 7.43757C8.52917 7.55127 8.77858 7.71792 8.98866 7.928L10.9748 9.91411C11.2677 10.207 11.2677 10.6819 10.9748 10.9748C10.6819 11.2677 10.207 11.2677 9.91411 10.9748L7.928 8.98866C7.8572 8.91786 7.77315 8.8617 7.68065 8.82339C7.58815 8.78507 7.48901 8.76535 7.38889 8.76535C7.28876 8.76535 7.18962 8.78507 7.09712 8.82339C7.00462 8.8617 6.92057 8.91786 6.84978 8.98866C6.77898 9.05946 6.72281 9.14351 6.6845 9.23601C6.64618 9.32851 6.62646 9.42765 6.62646 9.52777C6.62646 9.6279 6.64618 9.72704 6.6845 9.81954C6.72281 9.91204 6.77897 9.99609 6.84977 10.0669L8.8666 12.0837C9.29321 12.5103 9.87183 12.75 10.4752 12.75C11.0785 12.75 11.6571 12.5103 12.0837 12.0837C12.295 11.8725 12.4625 11.6217 12.5768 11.3457C12.6912 11.0697 12.75 10.7739 12.75 10.4752C12.75 10.1764 12.6912 9.88061 12.5768 9.60461C12.4625 9.32861 12.295 9.07784 12.0837 8.8666L7.1334 3.91629C6.70678 3.48967 6.12817 3.25 5.52484 3.25Z" fill="currentColor"/>
</svg>
