<svg viewBox="0 0 32 32" fill="none" xmlns="http://www.w3.org/2000/svg">
<path d="M10.5997 5.25C9.18084 5.25 7.82014 5.81362 6.81688 6.81688C5.81362 7.82014 5.25 9.18084 5.25 10.5997C5.25 12.0185 5.81362 13.3792 6.81688 14.3824L8.15021 15.7158C8.63837 16.2039 8.63837 16.9954 8.15021 17.4835C7.66206 17.9717 6.8706 17.9717 6.38245 17.4835L5.04911 16.1502C3.57702 14.6781 2.75 12.6815 2.75 10.5997C2.75 8.5178 3.57702 6.52121 5.04911 5.04911C6.52121 3.57702 8.5178 2.75 10.5997 2.75C12.6815 2.75 14.6781 3.57701 16.1502 5.04911L26.9509 15.8498C27.6798 16.5787 28.258 17.4441 28.6525 18.3964C29.047 19.3488 29.25 20.3695 29.25 21.4004C29.25 22.4312 29.047 23.4519 28.6525 24.4043C28.258 25.3567 27.6798 26.222 26.9509 26.9509C25.4788 28.423 23.4822 29.25 21.4004 29.25C19.3185 29.25 17.3219 28.423 15.8498 26.9509L11.4495 22.5506C11.027 22.1281 10.6918 21.6265 10.4632 21.0745C10.2345 20.5225 10.1168 19.9308 10.1168 19.3333C10.1168 18.7359 10.2345 18.1442 10.4632 17.5922C10.6918 17.0402 11.027 16.5386 11.4495 16.1161C11.8719 15.6936 12.3735 15.3585 12.9255 15.1298C13.4775 14.9012 14.0692 14.7835 14.6667 14.7835C15.2642 14.7835 15.8558 14.9012 16.4078 15.1298C16.9598 15.3585 17.4614 15.6936 17.8839 16.1161L22.2172 20.4495C22.7054 20.9376 22.7054 21.7291 22.2172 22.2172C21.7291 22.7054 20.9376 22.7054 20.4495 22.2172L16.1161 17.8839C15.9258 17.6935 15.6998 17.5426 15.4511 17.4395C15.2024 17.3365 14.9359 17.2835 14.6667 17.2835C14.3975 17.2835 14.1309 17.3365 13.8822 17.4395C13.6335 17.5426 13.4076 17.6935 13.2172 17.8839C13.0269 18.0742 12.8759 18.3002 12.7729 18.5489C12.6699 18.7976 12.6168 19.0642 12.6168 19.3333C12.6168 19.6025 12.6699 19.8691 12.7729 20.1178C12.8759 20.3665 13.0269 20.5924 13.2172 20.7828L17.6176 25.1831C18.6208 26.1864 19.9815 26.75 21.4004 26.75C22.8192 26.75 24.1799 26.1864 25.1831 25.1831C25.6799 24.6864 26.074 24.0966 26.3428 23.4476C26.6116 22.7985 26.75 22.1029 26.75 21.4004C26.75 20.6978 26.6116 20.0022 26.3428 19.3531C26.074 18.7041 25.6799 18.1143 25.1831 17.6176L14.3824 6.81688C13.3792 5.81362 12.0185 5.25 10.5997 5.25Z" fill="currentColor"/>
</svg>
