<svg viewBox="0 0 32 32" fill="none" xmlns="http://www.w3.org/2000/svg">
<path d="M17.5 2.75C24.8184 2.75 30.75 8.68164 30.75 16L30.7461 16.3418C30.565 23.4947 24.7163 29.2371 17.5225 29.249L17.5 29.251L17.0801 29.2441C12.8976 29.1137 9.21091 27.0405 6.87695 23.9082L6.64844 23.5908L6.58008 23.4824C6.2711 22.9295 6.42521 22.2219 6.95508 21.8506C7.48515 21.4793 8.20314 21.5762 8.61719 22.0557L8.69531 22.1572L8.88184 22.415C10.78 24.9626 13.7703 26.6394 17.1592 26.7451L17.4854 26.75C17.4902 26.7499 17.4951 26.75 17.5 26.75C23.2519 26.75 27.9482 22.234 28.2363 16.5537L28.25 16C28.25 10.0624 23.4376 5.25 17.5 5.25C11.5689 5.25 6.76054 10.0518 6.75 15.9805L7.61621 15.1162L7.71094 15.0303C8.20191 14.6298 8.92613 14.6585 9.38379 15.1162C9.84145 15.5739 9.87021 16.2981 9.46973 16.7891L9.38379 16.8838L6.38379 19.8838C5.89563 20.3719 5.10437 20.3719 4.61621 19.8838L1.61621 16.8838L1.53027 16.7891C1.12979 16.2981 1.15855 15.5739 1.61621 15.1162C2.07387 14.6585 2.79809 14.6298 3.28906 15.0303L3.38379 15.1162L4.24902 15.9814C4.24914 15.9736 4.24974 15.9658 4.25 15.958C4.27264 8.65897 10.1956 2.75 17.5 2.75Z" fill="currentColor"/>
<path d="M17.125 9.39746C17.8154 9.39746 18.375 9.95711 18.375 10.6475V16.2197L22.6338 18.7549L22.7402 18.8252C23.2492 19.2025 23.3993 19.9116 23.0684 20.4678C22.7153 21.0605 21.9485 21.2559 21.3555 20.9033L16.4854 18.0059C16.107 17.7806 15.8752 17.3719 15.875 16.9316V10.6475C15.875 9.95727 16.4349 9.39772 17.125 9.39746Z" fill="currentColor"/>
</svg>
