<svg viewBox="0 0 16 16" fill="none" xmlns="http://www.w3.org/2000/svg">
<path d="M8.74982 1.25C12.478 1.25 15.4998 4.27179 15.4998 8L15.491 8.34766C15.316 11.7992 12.549 14.5662 9.09748 14.7412L8.74982 14.75L8.32404 14.7363C6.35099 14.6132 4.6108 13.641 3.45881 12.1855L3.2215 11.8672L3.18048 11.8018C2.99521 11.4701 3.08734 11.045 3.40509 10.8223C3.72307 10.5996 4.15469 10.6578 4.40314 10.9453L4.45002 11.0059L4.63556 11.2549C5.53386 12.3899 6.88657 13.1437 8.41877 13.2393L8.74982 13.25C11.5589 13.25 13.8522 11.0445 13.993 8.27051L13.9998 8C13.9998 5.10021 11.6496 2.75 8.74982 2.75C5.95832 2.75006 3.67704 4.92813 3.51056 7.67773L3.71955 7.46973L3.77619 7.41797C4.07075 7.17768 4.50549 7.19518 4.78009 7.46973C5.0547 7.74433 5.07216 8.17905 4.83185 8.47363L4.78009 8.53027L3.28009 10.0303C3.00549 10.3048 2.57075 10.3223 2.27619 10.082L2.21955 10.0303L0.719547 8.53027L0.66779 8.47363C0.427547 8.17907 0.445017 7.74432 0.719547 7.46973C0.994129 7.19514 1.42887 7.17772 1.72345 7.41797L1.78009 7.46973L2.00666 7.69629C2.16546 4.10909 5.12344 1.25006 8.74982 1.25Z" fill="currentColor"/>
<path d="M8.56232 4.57324C8.97648 4.57324 9.31223 4.9091 9.31232 5.32324V8.03809L11.3807 9.26953L11.4442 9.31152C11.7498 9.53785 11.8401 9.96401 11.6414 10.2979C11.4428 10.6312 11.0259 10.7549 10.6815 10.5947L10.6131 10.5586L8.17853 9.10938C7.95168 8.97408 7.81232 8.72902 7.81232 8.46484V5.32324C7.81241 4.9092 8.14829 4.57339 8.56232 4.57324Z" fill="currentColor"/>
</svg>
