<svg viewBox="0 0 24 24" fill="none" xmlns="http://www.w3.org/2000/svg">
<path d="M13.1253 2C18.6484 2.00013 23.1253 6.47679 23.1253 12L23.1116 12.5146C22.8524 17.6282 18.7534 21.728 13.6399 21.9873L13.1253 22L12.8079 21.9951C9.65119 21.8965 6.86894 20.3317 5.10768 17.9678L4.93482 17.7285L4.88111 17.6426C4.63345 17.2001 4.75671 16.6331 5.18092 16.3359C5.60494 16.0393 6.17889 16.1175 6.51002 16.501L6.5735 16.582L6.85572 16.9609C8.27331 18.7517 10.4342 19.9203 12.8723 19.9961L13.1253 20C17.4056 19.9999 20.9001 16.6392 21.1145 12.4121L21.1253 12C21.1253 7.58136 17.5439 4.00013 13.1253 4C8.76334 4 5.2196 7.48986 5.12916 11.8301L5.66822 11.293L5.74439 11.2246C6.13717 10.9044 6.71621 10.9269 7.08228 11.293C7.44825 11.6591 7.47086 12.2381 7.15064 12.6309L7.08228 12.707L4.83229 14.957C4.46621 15.3231 3.88717 15.3456 3.49439 15.0254L3.41822 14.957L1.16822 12.707L1.09986 12.6309C0.779513 12.2381 0.802107 11.6591 1.16822 11.293C1.53434 10.927 2.11338 10.9043 2.50611 11.2246L2.58229 11.293L3.12916 11.8398C3.21473 6.39046 7.65547 2 13.1253 2Z" fill="currentColor"/>
<path d="M12.844 6.98535C13.3963 6.98535 13.844 7.43307 13.844 7.98535V12.1289L17.0071 14.0117L17.093 14.0684C17.4999 14.3703 17.6204 14.938 17.3557 15.3828C17.091 15.8275 16.5348 15.9919 16.0754 15.7783L15.9846 15.7305L12.3323 13.5576C12.0296 13.3774 11.8441 13.0506 11.844 12.6982V7.98535C11.844 7.43307 12.2917 6.98536 12.844 6.98535Z" fill="currentColor"/>
</svg>
