<svg viewBox="0 0 16 16" fill="none" xmlns="http://www.w3.org/2000/svg">
<path d="M9.41309 5.53125C9.70766 5.291 10.1424 5.30844 10.417 5.58301C10.6915 5.8576 10.709 6.29235 10.4688 6.58691L10.417 6.64355L9.06055 8L10.417 9.35645L10.4688 9.41309C10.709 9.70767 10.6916 10.1424 10.417 10.417C10.1424 10.6915 9.70766 10.709 9.41309 10.4688L9.35645 10.417L8 9.06055L6.64355 10.417C6.35067 10.7098 5.87588 10.7098 5.58301 10.417C5.29016 10.1241 5.29019 9.64934 5.58301 9.35645L6.93945 8L5.58301 6.64355L5.53125 6.58691C5.29096 6.29234 5.30843 5.85761 5.58301 5.58301C5.8576 5.30841 6.29233 5.29096 6.58691 5.53125L6.64355 5.58301L8 6.93945L9.35645 5.58301L9.41309 5.53125Z" fill="currentColor"/>
<path d="M8 1.25C11.7282 1.25 14.75 4.27179 14.75 8C14.75 11.7282 11.7282 14.75 8 14.75C4.27179 14.75 1.25 11.7282 1.25 8C1.25 4.27179 4.27179 1.25 8 1.25ZM8 2.75C5.10021 2.75 2.75 5.10021 2.75 8C2.75 10.8998 5.10021 13.25 8 13.25C10.8998 13.25 13.25 10.8998 13.25 8C13.25 5.10021 10.8998 2.75 8 2.75Z" fill="currentColor"/>
</svg>
