<svg viewBox="0 0 32 32" fill="none" xmlns="http://www.w3.org/2000/svg">
<path d="M11.3428 11.3428C11.8004 10.8851 12.5247 10.8565 13.0156 11.2568L13.1104 11.3428L16 14.2324L18.8896 11.3428L18.9844 11.2568C19.4753 10.8565 20.1996 10.8852 20.6572 11.3428C21.1148 11.8004 21.1435 12.5247 20.7432 13.0156L20.6572 13.1104L17.7676 16L20.6572 18.8896L20.7432 18.9844C21.1435 19.4753 21.1148 20.1996 20.6572 20.6572C20.1996 21.1147 19.4753 21.1434 18.9844 20.7432L18.8896 20.6572L16 17.7676L13.1104 20.6572C12.6222 21.1451 11.8309 21.1452 11.3428 20.6572C10.8548 20.1691 10.8549 19.3778 11.3428 18.8896L14.2324 16L11.3428 13.1104L11.2568 13.0156C10.8565 12.5247 10.8852 11.8004 11.3428 11.3428Z" fill="currentColor"/>
<path d="M16 2.75C23.3184 2.75 29.25 8.68164 29.25 16C29.25 23.3184 23.3184 29.25 16 29.25C8.68164 29.25 2.75 23.3184 2.75 16C2.75 8.68164 8.68164 2.75 16 2.75ZM16 5.25C10.0624 5.25 5.25 10.0624 5.25 16C5.25 21.9376 10.0624 26.75 16 26.75C21.9376 26.75 26.75 21.9376 26.75 16C26.75 10.0624 21.9376 5.25 16 5.25Z" fill="currentColor"/>
</svg>
