<svg viewBox="0 0 32 32" fill="none" xmlns="http://www.w3.org/2000/svg">
<path d="M5.11612 5.11612C5.60427 4.62796 6.39573 4.62796 6.88388 5.11612L16 14.2322L25.1161 5.11612C25.6043 4.62796 26.3957 4.62796 26.8839 5.11612C27.372 5.60427 27.372 6.39573 26.8839 6.88388L17.7678 16L26.8839 25.1161C27.372 25.6043 27.372 26.3957 26.8839 26.8839C26.3957 27.372 25.6043 27.372 25.1161 26.8839L16 17.7678L6.88388 26.8839C6.39573 27.372 5.60427 27.372 5.11612 26.8839C4.62796 26.3957 4.62796 25.6043 5.11612 25.1161L14.2322 16L5.11612 6.88388C4.62796 6.39573 4.62796 5.60427 5.11612 5.11612Z" fill="currentColor"/>
</svg>
