<svg viewBox="0 0 24 24" fill="none" xmlns="http://www.w3.org/2000/svg">
<path d="M14.123 8.46289C14.5136 8.07247 15.1466 8.07247 15.5371 8.46289C15.9275 8.85339 15.9275 9.48645 15.5371 9.87695L13.4141 12L15.5371 14.123L15.6055 14.1992C15.9257 14.592 15.9032 15.171 15.5371 15.5371C15.171 15.9032 14.592 15.9257 14.1992 15.6055L14.123 15.5371L12 13.4141L9.87695 15.5371C9.48645 15.9275 8.85339 15.9275 8.46289 15.5371C8.07247 15.1466 8.07247 14.5136 8.46289 14.123L10.5859 12L8.46289 9.87695L8.39453 9.80078C8.07425 9.40801 8.0968 8.82898 8.46289 8.46289C8.82898 8.0968 9.40801 8.07425 9.80078 8.39453L9.87695 8.46289L12 10.5859L14.123 8.46289Z" fill="currentColor"/>
<path d="M12 2C17.5233 2 22 6.47672 22 12C22 17.5233 17.5233 22 12 22C6.47672 22 2 17.5233 2 12C2 6.47672 6.47672 2 12 2ZM12 4C7.58128 4 4 7.58128 4 12C4 16.4187 7.58128 20 12 20C16.4187 20 20 16.4187 20 12C20 7.58128 16.4187 4 12 4Z" fill="currentColor"/>
</svg>
