<svg viewBox="0 0 16 16" fill="none" xmlns="http://www.w3.org/2000/svg">
<path d="M8 2C11.314 2 14 4.686 14 8C14 11.314 11.314 14 8 14C4.686 14 2 11.314 2 8C2 4.686 4.686 2 8 2ZM10.417 5.58301C10.1424 5.30887 9.7075 5.29113 9.41309 5.53125L9.35645 5.58301L8 6.93945L6.64355 5.58301L6.58691 5.53125C6.29235 5.29138 5.85745 5.30858 5.58301 5.58301C5.30862 5.85746 5.2914 6.29236 5.53125 6.58691L5.58301 6.64355L6.93945 8L5.58301 9.35645C5.29038 9.64919 5.29062 10.1241 5.58301 10.417C5.8759 10.7094 6.35081 10.7096 6.64355 10.417L8 9.06055L9.35645 10.417L9.41309 10.4688C9.70764 10.7086 10.1426 10.6914 10.417 10.417C10.6914 10.1426 10.7086 9.70765 10.4688 9.41309L10.417 9.35645L9.06055 8L10.417 6.64355L10.4688 6.58691C10.7088 6.29251 10.6911 5.8576 10.417 5.58301Z" fill="currentColor"/>
</svg>
