<svg viewBox="0 0 32 32" fill="none" xmlns="http://www.w3.org/2000/svg">
<path d="M16 4C22.628 4 28 9.372 28 16C28 22.628 22.628 28 16 28C9.372 28 4 22.628 4 16C4 9.372 9.372 4 16 4ZM20.6572 11.3428C20.1996 10.8854 19.4753 10.8566 18.9844 11.2568L18.8896 11.3428L16 14.2324L13.1104 11.3428L13.0156 11.2568C12.5247 10.8566 11.8004 10.8853 11.3428 11.3428C10.8853 11.8004 10.8566 12.5247 11.2568 13.0156L11.3428 13.1104L14.2324 16L11.3428 18.8896C10.855 19.3778 10.8549 20.1692 11.3428 20.6572C11.8308 21.1451 12.6222 21.145 13.1104 20.6572L16 17.7676L18.8896 20.6572L18.9844 20.7432C19.4753 21.1433 20.1997 21.1146 20.6572 20.6572C21.1147 20.1997 21.1433 19.4753 20.7432 18.9844L20.6572 18.8896L17.7676 16L20.6572 13.1104L20.7432 13.0156C21.1434 12.5247 21.1146 11.8004 20.6572 11.3428Z" fill="currentColor"/>
</svg>
