<svg viewBox="0 0 24 24" fill="none" xmlns="http://www.w3.org/2000/svg">
<path d="M12 3C16.971 3 21 7.029 21 12C21 16.971 16.971 21 12 21C7.029 21 3 16.971 3 12C3 7.029 7.029 3 12 3ZM15.5371 8.46289C15.1466 8.07247 14.5136 8.07254 14.123 8.46289L12 10.5859L9.87695 8.46289L9.80078 8.39453C9.40803 8.07425 8.82899 8.09686 8.46289 8.46289C8.09684 8.82899 8.07425 9.40802 8.39453 9.80078L8.46289 9.87695L10.5859 12L8.46289 14.123C8.07251 14.5136 8.07246 15.1466 8.46289 15.5371C8.85339 15.9274 9.48648 15.9275 9.87695 15.5371L12 13.4141L14.123 15.5371L14.1992 15.6055C14.592 15.9256 15.1711 15.9031 15.5371 15.5371C15.9031 15.1711 15.9256 14.592 15.6055 14.1992L15.5371 14.123L13.4141 12L15.5371 9.87695C15.9274 9.48648 15.9274 8.85338 15.5371 8.46289Z" fill="currentColor"/>
</svg>
