<svg viewBox="0 0 24 24" fill="none" xmlns="http://www.w3.org/2000/svg">
<path d="M17.9999 0C16.8477 0.00145452 15.7312 0.40009 14.8386 1.12872C13.9461 1.85735 13.332 2.87141 13.0999 4H1.99989C1.81146 3.99993 1.62684 4.0531 1.46731 4.15338C1.30778 4.25367 1.17983 4.39698 1.09821 4.56682C1.01658 4.73665 0.984601 4.92609 1.00595 5.11331C1.0273 5.30053 1.10112 5.47791 1.21889 5.625L8.99989 15.351V22H4.99989C4.73467 22 4.48032 22.1054 4.29278 22.2929C4.10524 22.4804 3.99989 22.7348 3.99989 23C3.99989 23.2652 4.10524 23.5196 4.29278 23.7071C4.48032 23.8946 4.73467 24 4.99989 24H14.9999C15.2651 24 15.5195 23.8946 15.707 23.7071C15.8945 23.5196 15.9999 23.2652 15.9999 23C15.9999 22.7348 15.8945 22.4804 15.707 22.2929C15.5195 22.1054 15.2651 22 14.9999 22H10.9999V15.351L18.7809 5.625C18.8987 5.47791 18.9725 5.30053 18.9938 5.11331C19.0152 4.92609 18.9832 4.73665 18.9016 4.56682C18.8199 4.39698 18.692 4.25367 18.5325 4.15338C18.3729 4.0531 18.1883 3.99993 17.9999 4H15.1839C15.3681 3.48283 15.6909 3.02624 16.1171 2.68013C16.5433 2.33403 17.0564 2.11172 17.6003 2.0375C18.1443 1.96328 18.6982 2.04001 19.2015 2.2593C19.7048 2.47859 20.1382 2.832 20.4542 3.28092C20.7703 3.72983 20.9568 4.25698 20.9935 4.80476C21.0302 5.35254 20.9157 5.89987 20.6624 6.38694C20.409 6.87401 20.0267 7.28208 19.5572 7.56656C19.0876 7.85104 18.5489 8.00098 17.9999 8C17.7347 8 17.4803 8.10536 17.2928 8.29289C17.1052 8.48043 16.9999 8.73478 16.9999 9C16.9999 9.26522 17.1052 9.51957 17.2928 9.70711C17.4803 9.89464 17.7347 10 17.9999 10C19.326 10 20.5977 9.47322 21.5354 8.53553C22.4731 7.59785 22.9999 6.32608 22.9999 5C22.9999 3.67392 22.4731 2.40215 21.5354 1.46447C20.5977 0.526784 19.326 0 17.9999 0ZM14.3189 8H5.68089L4.08089 6H15.9189L14.3189 8Z" fill="currentColor"/>
</svg>
