<svg viewBox="0 0 16 16" fill="none" xmlns="http://www.w3.org/2000/svg">
<path d="M12.0001 0C11.2319 0.000969683 10.4876 0.266727 9.89259 0.752479C9.29754 1.23823 8.88815 1.91428 8.73342 2.66667H1.33342C1.2078 2.66662 1.08472 2.70207 0.978369 2.76892C0.872016 2.83578 0.786717 2.93132 0.7323 3.04455C0.677883 3.15777 0.656564 3.28406 0.670798 3.40887C0.685032 3.53369 0.734241 3.65194 0.812754 3.75L6.00009 10.234V14.6667H3.33342C3.15661 14.6667 2.98704 14.7369 2.86202 14.8619C2.73699 14.987 2.66675 15.1565 2.66675 15.3333C2.66675 15.5101 2.73699 15.6797 2.86202 15.8047C2.98704 15.9298 3.15661 16 3.33342 16H10.0001C10.1769 16 10.3465 15.9298 10.4715 15.8047C10.5965 15.6797 10.6668 15.5101 10.6668 15.3333C10.6668 15.1565 10.5965 14.987 10.4715 14.8619C10.3465 14.7369 10.1769 14.6667 10.0001 14.6667H7.33342V10.234L12.5208 3.75C12.5993 3.65194 12.6485 3.53369 12.6627 3.40887C12.6769 3.28406 12.6556 3.15777 12.6012 3.04455C12.5468 2.93132 12.4615 2.83578 12.3551 2.76892C12.2488 2.70207 12.1257 2.66662 12.0001 2.66667H10.1228C10.2456 2.32188 10.4608 2.01749 10.7449 1.78676C11.029 1.55602 11.3711 1.40781 11.7337 1.35833C12.0964 1.30885 12.4656 1.36001 12.8012 1.5062C13.1367 1.65239 13.4256 1.888 13.6363 2.18728C13.847 2.48656 13.9714 2.83799 13.9959 3.20318C14.0203 3.56836 13.9439 3.93325 13.7751 4.25796C13.6062 4.58267 13.3513 4.85472 13.0383 5.04437C12.7252 5.23403 12.3661 5.33399 12.0001 5.33333C11.8233 5.33333 11.6537 5.40357 11.5287 5.5286C11.4037 5.65362 11.3334 5.82319 11.3334 6C11.3334 6.17681 11.4037 6.34638 11.5287 6.4714C11.6537 6.59643 11.8233 6.66667 12.0001 6.66667C12.8841 6.66667 13.732 6.31548 14.3571 5.69036C14.9822 5.06524 15.3334 4.21739 15.3334 3.33333C15.3334 2.44928 14.9822 1.60143 14.3571 0.976311C13.732 0.351189 12.8841 0 12.0001 0ZM9.54609 5.33333H3.78742L2.72075 4H10.6128L9.54609 5.33333Z" fill="currentColor"/>
</svg>
