<svg viewBox="0 0 16 16" fill="none" xmlns="http://www.w3.org/2000/svg">
<path d="M8.50586 1.59926C8.70979 0.905935 9.41411 0.466763 10.1416 0.611953L10.1426 0.610976L13.5488 1.29262L13.2549 2.76332L9.93164 2.09828L9.71777 3.24965H10.2549C11.1412 3.24972 11.9555 3.7193 12.4023 4.47426L12.4863 4.62855L12.4873 4.63051L12.5479 4.76137C12.6803 5.07102 12.7499 5.40572 12.75 5.74477V5.86977C12.75 6.73771 12.7084 7.60511 12.624 8.46937L12.1963 12.8678C12.0928 13.9353 11.1958 14.7496 10.123 14.7496H5.87695C4.87097 14.7496 4.01934 14.0337 3.83105 13.0651L3.80273 12.8678L3.37598 8.46937C3.29165 7.60525 3.25 6.73753 3.25 5.86977V5.74477C3.2501 5.35737 3.341 4.97579 3.5127 4.63051L3.51367 4.62855L3.59766 4.47426C4.04451 3.7193 4.85882 3.24972 5.74512 3.24965H8.19336L8.47266 1.74184L8.50586 1.59926ZM7.17676 8.72914C6.49307 8.29149 5.58531 8.30079 4.91016 8.75648L5.2959 12.7223L5.31641 12.8307C5.38814 13.0752 5.61418 13.2496 5.87695 13.2496H10.123C10.4233 13.2496 10.6741 13.0219 10.7031 12.7233L10.9883 9.78578C10.184 10.0318 9.30766 9.99178 8.5293 9.6598L7.93359 12.8746L6.45898 12.6012L7.17676 8.72914ZM8.81445 8.11879C9.52129 8.57667 10.4694 8.5529 11.1533 8.05043L11.1826 7.71156C11.2273 7.09896 11.25 6.48462 11.25 5.86977V5.74477C11.2499 5.59204 11.2143 5.43953 11.1455 5.30043L11.0742 5.17934C10.8899 4.91267 10.5848 4.74972 10.2549 4.74965H9.43945L8.81445 8.11879ZM5.74512 4.74965C5.36811 4.74973 5.02349 4.96312 4.85449 5.30043C4.78574 5.43952 4.75009 5.59204 4.75 5.74477V5.86977C4.75 6.29446 4.75995 6.71934 4.78125 7.1432C5.64239 6.81399 6.61111 6.82999 7.46191 7.19008L7.91504 4.74965H5.74512Z" fill="currentColor"/>
</svg>
