<svg viewBox="0 0 24 24" fill="none" xmlns="http://www.w3.org/2000/svg">
<path d="M12.8799 2.43491C13.1679 1.4548 14.1633 0.832648 15.1914 1.0394L15.1904 1.04037L20.1768 2.03647L19.7842 3.99741L14.7979 3.00034L14.4268 5.00034H15.3818L15.6377 5.00912C16.8225 5.09275 17.8914 5.75383 18.4961 6.77573L18.6182 6.99936L18.6191 7.00229L18.707 7.19272C18.899 7.64182 19 8.12701 19 8.6185V8.80502C19 10.103 18.9377 11.4003 18.8115 12.6927L18.1699 19.2904C18.0208 20.8274 16.7292 22.0003 15.1846 22.0003H8.81543C7.36703 22.0003 6.14147 20.9692 5.87012 19.5746L5.8291 19.2904L5.18848 12.6937L5.10645 11.723C5.03564 10.7521 5.00001 9.77843 5 8.80502V8.6185C5 8.05671 5.13182 7.50326 5.38086 7.00229L5.38184 6.99936L5.50391 6.77573C6.15183 5.68079 7.33285 5.00034 8.61816 5.00034H12.3936L12.832 2.63608L12.8799 2.43491ZM10.9033 13.0355C9.80848 12.2916 8.31735 12.3021 7.23438 13.0706L7.81934 19.096L7.83301 19.1908C7.92356 19.6566 8.33292 20.0003 8.81543 20.0003H15.1846C15.6994 20.0003 16.13 19.6092 16.1797 19.097L16.625 14.5062C15.3502 14.9467 13.9321 14.8821 12.7002 14.3119L11.8008 19.1654L9.83398 18.8011L10.9033 13.0355ZM13.085 12.2376C14.2098 13.0097 15.7568 12.9798 16.8496 12.1468L16.8994 11.5765C16.9667 10.6547 17 9.73016 17 8.80502V8.6185C17 8.36857 16.9408 8.11975 16.8281 7.89291C16.5702 7.38025 16.0628 7.04413 15.4961 7.00424L15.3818 7.00034H14.0566L13.085 12.2376ZM8.61816 7.00034C8.00599 7.00034 7.44601 7.34485 7.1709 7.89194L7.17188 7.89291C7.05916 8.11975 7 8.36857 7 8.6185V8.80502C7.00001 9.50251 7.0185 10.1998 7.05664 10.8958C8.40508 10.3282 9.95477 10.3502 11.2871 10.9622L12.0225 7.00034H8.61816Z" fill="currentColor"/>
</svg>
