<svg viewBox="0 0 32 32" fill="none" xmlns="http://www.w3.org/2000/svg">
<path d="M24.0002 0C22.4639 0.00193937 20.9753 0.533453 19.7852 1.50496C18.5951 2.47646 17.7763 3.82855 17.4668 5.33333H2.66684C2.4156 5.33324 2.16944 5.40413 1.95674 5.53784C1.74403 5.67156 1.57343 5.86265 1.4646 6.08909C1.35577 6.31554 1.31313 6.56813 1.3416 6.81775C1.37006 7.06737 1.46848 7.30387 1.62551 7.5L12.0002 20.468V29.3333H6.66684C6.31322 29.3333 5.97408 29.4738 5.72403 29.7239C5.47398 29.9739 5.33351 30.313 5.33351 30.6667C5.33351 31.0203 5.47398 31.3594 5.72403 31.6095C5.97408 31.8595 6.31322 32 6.66684 32H20.0002C20.3538 32 20.6929 31.8595 20.943 31.6095C21.193 31.3594 21.3335 31.0203 21.3335 30.6667C21.3335 30.313 21.193 29.9739 20.943 29.7239C20.6929 29.4738 20.3538 29.3333 20.0002 29.3333H14.6668V20.468L25.0415 7.5C25.1985 7.30387 25.297 7.06737 25.3254 6.81775C25.3539 6.56813 25.3113 6.31554 25.2024 6.08909C25.0936 5.86265 24.923 5.67156 24.7103 5.53784C24.4976 5.40413 24.2514 5.33324 24.0002 5.33333H20.2455C20.4911 4.64377 20.9216 4.03499 21.4898 3.57351C22.058 3.11204 22.7422 2.81562 23.4675 2.71667C24.1927 2.61771 24.9313 2.72001 25.6024 3.0124C26.2734 3.30478 26.8512 3.776 27.2726 4.37456C27.694 4.97311 27.9428 5.67598 27.9917 6.40635C28.0406 7.13672 27.8879 7.86649 27.5501 8.51592C27.2124 9.16534 26.7026 9.70944 26.0765 10.0887C25.4505 10.4681 24.7322 10.668 24.0002 10.6667C23.6466 10.6667 23.3074 10.8071 23.0574 11.0572C22.8073 11.3072 22.6668 11.6464 22.6668 12C22.6668 12.3536 22.8073 12.6928 23.0574 12.9428C23.3074 13.1929 23.6466 13.3333 24.0002 13.3333C25.7683 13.3333 27.464 12.631 28.7142 11.3807C29.9645 10.1305 30.6668 8.43478 30.6668 6.66667C30.6668 4.89856 29.9645 3.20286 28.7142 1.95262C27.464 0.702379 25.7683 0 24.0002 0ZM19.0922 10.6667H7.57484L5.44151 8H21.2255L19.0922 10.6667Z" fill="currentColor"/>
</svg>
