<svg viewBox="0 0 32 32" fill="none" xmlns="http://www.w3.org/2000/svg">
<path d="M17.2539 3.26912C17.6263 2.00379 18.9109 1.20069 20.2383 1.46736L20.2373 1.46834L26.8047 2.77986L26.3145 5.23201L19.7471 3.91853H19.7139C19.683 3.92501 19.6562 3.95005 19.6494 3.98591L19.1367 6.74959H20.5098C22.1936 6.74974 23.7409 7.64135 24.5898 9.07576L24.75 9.3697L24.751 9.37263L24.8662 9.62166C25.1179 10.2102 25.2499 10.8458 25.25 11.4898V11.7398C25.25 13.4678 25.167 15.1941 24.999 16.9146L24.1445 25.7115C23.9502 27.7183 22.2637 29.2494 20.2471 29.2496H11.7529C9.79863 29.2494 8.15553 27.8119 7.87695 25.898L7.85449 25.7115L7.00098 16.9156L6.94238 16.2701C6.81394 14.7633 6.75001 13.2518 6.75 11.7398V11.4898C6.75012 10.7539 6.92264 10.029 7.24902 9.37263L7.25 9.3697L7.41016 9.07576C8.25911 7.64135 9.80638 6.74974 11.4902 6.74959H16.5938L17.1914 3.52888L17.2539 3.26912ZM14.6289 17.3424C13.1231 16.2908 11.0486 16.3061 9.55859 17.3902L10.3428 25.4693L10.3623 25.6031C10.4905 26.2629 11.0694 26.7494 11.7529 26.7496H20.2471C20.9763 26.7494 21.5861 26.196 21.6562 25.4703L22.2627 19.2193C20.5186 19.8596 18.5567 19.773 16.8721 18.9605L15.668 25.4566L13.21 25.0006L14.6289 17.3424ZM17.3555 16.3551C18.8994 17.4437 21.0482 17.405 22.5498 16.2369L22.5664 16.0562C22.6888 14.6209 22.75 13.1814 22.75 11.7398V11.4898C22.7499 11.1438 22.6686 10.7996 22.5127 10.4859C22.1318 9.72846 21.3574 9.24975 20.5098 9.24959H18.6729L17.3555 16.3551ZM11.4902 9.24959C10.6425 9.24975 9.86714 9.72726 9.48633 10.4849L9.4873 10.4859C9.33139 10.7996 9.25012 11.1438 9.25 11.4898V11.7398C9.25 12.7111 9.27943 13.682 9.33496 14.651C11.1691 13.8417 13.3004 13.8719 15.1123 14.7398L16.1309 9.24959H11.4902Z" fill="currentColor"/>
</svg>
