<svg viewBox="0 0 16 16" fill="none" xmlns="http://www.w3.org/2000/svg">
<path d="M8.39154 2.59268C8.47832 2.18775 8.87724 1.92989 9.28217 2.01651C9.68719 2.1033 9.94513 2.50211 9.85834 2.90713L7.60834 13.4071C7.52149 13.8121 7.12269 14.0701 6.71772 13.9833C6.31293 13.8963 6.05479 13.4976 6.14154 13.0927L8.39154 2.59268ZM3.88959 4.80264C4.18251 4.51007 4.65735 4.50986 4.95014 4.80264C5.24292 5.09542 5.24271 5.57027 4.95014 5.86319L2.81342 7.99991L4.95014 10.1366C5.24271 10.4295 5.24292 10.9044 4.95014 11.1972C4.65735 11.49 4.18251 11.4897 3.88959 11.1972L1.2226 8.53018C0.929706 8.23729 0.929706 7.76253 1.2226 7.46963L3.88959 4.80264ZM11.0507 4.80264C11.3435 4.50988 11.8184 4.51004 12.1113 4.80264L14.7783 7.46963C14.9189 7.61028 14.998 7.80101 14.998 7.99991C14.998 8.1988 14.9189 8.38953 14.7783 8.53018L12.1113 11.1972C11.8184 11.4898 11.3435 11.4899 11.0507 11.1972C10.7579 10.9044 10.7581 10.4295 11.0507 10.1366L13.1874 7.99991L11.0507 5.86319C10.7581 5.57027 10.7579 5.09544 11.0507 4.80264Z" fill="currentColor"/>
</svg>
