<svg viewBox="0 0 24 24" fill="none" xmlns="http://www.w3.org/2000/svg">
<path d="M12.7734 3.78602C12.8915 3.24662 13.4243 2.90532 13.9638 3.02332C14.5032 3.14144 14.8445 3.6743 14.7265 4.21375L11.2265 20.2138C11.1084 20.7531 10.5755 21.0945 10.0361 20.9764C9.49668 20.8583 9.15536 20.3255 9.27336 19.786L12.7734 3.78602ZM6.29289 7.29286C6.68342 6.90233 7.31643 6.90233 7.70696 7.29286C8.09748 7.68338 8.09748 8.31639 7.70696 8.70692L4.41399 11.9999L7.70696 15.2929C8.09748 15.6834 8.09748 16.3164 7.70696 16.7069C7.31643 17.0974 6.68342 17.0974 6.29289 16.7069L2.29289 12.7069C1.90237 12.3164 1.90237 11.6834 2.29289 11.2929L6.29289 7.29286ZM16.2948 7.29286C16.6854 6.90233 17.3194 6.90233 17.7099 7.29286L21.7099 11.2929C22.1001 11.6833 22.1001 12.3165 21.7099 12.7069L17.7099 16.7069C17.3194 17.0974 16.6854 17.0974 16.2948 16.7069C15.9046 16.3165 15.9046 15.6833 16.2948 15.2929L19.5878 11.9999L16.2948 8.70692C15.9046 8.31645 15.9046 7.68332 16.2948 7.29286Z" fill="currentColor"/>
</svg>
