<svg viewBox="0 0 32 32" fill="none" xmlns="http://www.w3.org/2000/svg">
<path d="M16.9102 5.16905C17.093 4.36121 17.8963 3.8547 18.7042 4.03721C19.5122 4.21986 20.0196 5.02312 19.837 5.83116L15.0899 26.8312C14.9071 27.639 14.1039 28.1456 13.296 27.963C12.4881 27.7802 11.9815 26.977 12.1641 26.1691L16.9102 5.16905Z" fill="currentColor"/>
<path d="M21.0941 9.60623C21.6799 9.02044 22.6294 9.02044 23.2152 9.60623L28.5482 14.9392C29.134 15.525 29.134 16.4745 28.5482 17.0603L23.2152 22.3943C22.6294 22.9799 21.6798 22.9799 21.0941 22.3943C20.5084 21.8086 20.5085 20.859 21.0941 20.2732L25.3666 15.9998L21.0941 11.7273C20.5083 11.1415 20.5083 10.192 21.0941 9.60623Z" fill="currentColor"/>
<path d="M8.78496 9.60623C9.37069 9.02049 10.3203 9.0206 10.9061 9.60623C11.4918 10.192 11.4918 11.1415 10.9061 11.7273L6.63262 15.9998L10.9061 20.2732C11.4918 20.859 11.4918 21.8085 10.9061 22.3943C10.3202 22.9798 9.37064 22.98 8.78496 22.3943L3.45195 17.0603C2.86633 16.4745 2.86622 15.525 3.45195 14.9392L8.78496 9.60623Z" fill="currentColor"/>
</svg>
