<svg viewBox="0 0 24 24" fill="none" xmlns="http://www.w3.org/2000/svg">
<path d="M16 9C17.4746 9 18.8565 9.23735 19.9062 9.65723C20.4282 9.866 20.9176 10.1399 21.293 10.4951C21.6399 10.8235 21.9418 11.28 21.9883 11.8486C21.9958 11.8981 22.001 11.9485 22.001 12C22.001 12.0049 22 12.0098 22 12.0146V15.9795C22.0001 15.9863 22.001 15.9931 22.001 16C22.001 16.0049 22 16.0098 22 16.0146V20C22 20.6396 21.6716 21.1477 21.2939 21.5049C20.9185 21.86 20.4293 22.134 19.9072 22.3428C18.8577 22.7626 17.4762 22.9989 16.001 22.999L16 23L15.999 22.999C14.5242 22.9988 13.1431 22.7625 12.0938 22.3428C11.5717 22.134 11.0824 21.86 10.707 21.5049C10.3294 21.1477 10.001 20.6396 10.001 20V12C10.001 11.9556 10.0042 11.912 10.0098 11.8691L10.0166 11.7676C10.0838 11.2366 10.3758 10.8078 10.7061 10.4951C11.0815 10.1398 11.5717 9.86604 12.0938 9.65723C13.1435 9.23736 14.5254 9 16 9ZM19.9082 18.3428C18.8584 18.7627 17.4765 19 16.001 19C14.5254 19 13.1435 18.7627 12.0938 18.3428C12.0623 18.3302 12.0321 18.3148 12.001 18.3018V19.96C12.0116 19.9766 12.0342 20.0074 12.0811 20.0518C12.2115 20.1752 12.4543 20.3333 12.8369 20.4863C13.5964 20.79 14.7142 20.9989 16 20.999C17.2862 20.999 18.4044 20.7901 19.1641 20.4863C19.5467 20.3333 19.7894 20.1752 19.9199 20.0518C19.9668 20.0074 19.9893 19.9766 20 19.96V18.3018C19.9691 18.3147 19.9393 18.3303 19.9082 18.3428ZM19.9082 14.3428C18.8584 14.7627 17.4765 15 16.001 15C14.5254 15 13.1435 14.7627 12.0938 14.3428C12.0623 14.3302 12.0321 14.3148 12.001 14.3018V15.96C12.0116 15.9765 12.0342 16.0074 12.0811 16.0518C12.2115 16.1752 12.4543 16.3333 12.8369 16.4863C13.5966 16.7901 14.7148 17 16.001 17C17.2872 17 18.4053 16.7901 19.165 16.4863C19.5476 16.3333 19.7904 16.1752 19.9209 16.0518C19.9673 16.0078 19.9893 15.9767 20 15.96V14.3018C19.9691 14.3147 19.9393 14.3303 19.9082 14.3428ZM15.5264 11.0098C14.441 11.0541 13.5017 11.2479 12.8369 11.5137C12.4543 11.6667 12.2113 11.824 12.0811 11.9473C12.0608 11.9664 12.0474 11.985 12.0352 11.999C12.0476 12.0131 12.0606 12.0324 12.0811 12.0518C12.2115 12.1752 12.4543 12.3333 12.8369 12.4863C13.5966 12.7901 14.7148 13 16.001 13C17.2872 13 18.4053 12.7901 19.165 12.4863C19.5476 12.3333 19.7904 12.1752 19.9209 12.0518C19.9417 12.0321 19.9545 12.0123 19.9668 11.998C19.9547 11.9838 19.9394 11.9666 19.9189 11.9473C19.7887 11.824 19.5457 11.6667 19.1631 11.5137C18.4034 11.2099 17.2852 11 16 11L15.5264 11.0098Z" fill="currentColor"/>
<path d="M8 2C9.47536 2 10.8574 2.2373 11.9072 2.65723C12.4293 2.86606 12.9185 3.1401 13.2939 3.49512C13.6473 3.82932 13.9539 4.29605 13.9922 4.87891C13.997 4.91864 14 4.95897 14 5V8C14 8.55213 13.5521 8.99974 13 9C12.4479 8.99974 12 8.55213 12 8V7.30176C11.9688 7.3148 11.9386 7.33021 11.9072 7.34277C10.8574 7.7627 9.47536 8 8 8C6.52464 8 5.14259 7.7627 4.09277 7.34277C4.06136 7.33021 4.03116 7.3148 4 7.30176V8.95898C4.01031 8.97529 4.03311 9.00637 4.08105 9.05176C4.21153 9.17518 4.45431 9.33329 4.83691 9.48633C5.5966 9.79009 6.71479 10 8.00098 10C8.55326 10 9.00098 10.4477 9.00098 11C9.00098 11.5523 8.55326 12 8.00098 12C6.52542 12 5.14354 11.7627 4.09375 11.3428C4.06194 11.33 4.03155 11.314 4 11.3008V12.959C4.01031 12.9753 4.0331 13.0064 4.08105 13.0518C4.21152 13.1752 4.45437 13.3333 4.83691 13.4863C5.50159 13.7521 6.44067 13.9459 7.52637 13.9902L8 14L8.10254 14.0049C8.60666 14.0562 9 14.4823 9 15C9 15.5177 8.60666 15.9438 8.10254 15.9951L8 16L7.45215 15.9893C6.18499 15.9381 5.01232 15.7102 4.09375 15.3428C4.06194 15.33 4.03155 15.314 4 15.3008V16.96C4.0107 16.9766 4.03327 17.0075 4.08008 17.0518C4.21064 17.1752 4.45322 17.3333 4.83594 17.4863C5.59581 17.7902 6.71419 18 8 18C8.55228 18 9 18.4477 9 19C9 19.5523 8.55228 20 8 20C6.52506 20 5.14358 19.7625 4.09375 19.3428C3.57159 19.134 3.08158 18.86 2.70605 18.5049C2.35202 18.1701 2.04429 17.7024 2.00684 17.1182C2.00227 17.0794 2 17.04 2 17V5C2 4.95899 2.00302 4.91862 2.00781 4.87891C2.04614 4.29605 2.35267 3.82932 2.70605 3.49512C3.08147 3.1401 3.57074 2.86606 4.09277 2.65723C5.14259 2.2373 6.52464 2 8 2ZM8 4C6.71394 4 5.59576 4.21072 4.83594 4.51465C4.45329 4.66771 4.21063 4.82478 4.08008 4.94824C4.05917 4.96802 4.04375 4.98573 4.03125 5C4.04375 5.01427 4.05917 5.03198 4.08008 5.05176C4.21063 5.17522 4.45329 5.33229 4.83594 5.48535C5.59576 5.78928 6.71394 6 8 6C9.28606 6 10.4042 5.78928 11.1641 5.48535C11.5467 5.33229 11.7894 5.17522 11.9199 5.05176C11.9406 5.03221 11.9553 5.01417 11.9678 5C11.9553 4.98583 11.9406 4.96779 11.9199 4.94824C11.7894 4.82478 11.5467 4.66771 11.1641 4.51465C10.4042 4.21072 9.28606 4 8 4Z" fill="currentColor"/>
</svg>
