<svg viewBox="0 0 16 16" fill="none" xmlns="http://www.w3.org/2000/svg">
<path d="M13.3333 5.33333V0H12V5.33333H13.3333Z" fill="currentColor"/>
<path d="M16.0001 5.33337V1.33337H14.6667V5.33337H16.0001Z" fill="currentColor"/>
<path d="M10.6666 2.66663V5.33329H9.33325V2.66663H10.6666Z" fill="currentColor"/>
<path d="M0.666748 7.66671V13.0426C0.666748 13.8887 1.35015 14.4651 2.01767 14.7903C2.73009 15.1374 3.66751 15.3333 4.66675 15.3333C5.66599 15.3333 6.60341 15.1374 7.31581 14.7903C7.54715 14.6776 7.78038 14.5347 7.98642 14.3609C8.20216 14.5441 8.449 14.6922 8.69079 14.8068C9.40152 15.1434 10.3365 15.3334 11.3333 15.3334C12.33 15.3334 13.265 15.1434 13.9757 14.8068C14.6357 14.4942 15.3333 13.9314 15.3333 13.0878V10.3334C15.3333 9.48457 14.6625 8.8956 13.9884 8.55853C13.2745 8.20153 12.3348 8 11.3333 8C10.3317 8 9.39205 8.20153 8.67812 8.55853L8.66675 8.56424V7.66671C8.66671 6.81795 7.99599 6.22894 7.32188 5.89191C6.60795 5.53493 5.66828 5.33337 4.66675 5.33337C3.66521 5.33337 2.72554 5.53493 2.01158 5.89191C1.33752 6.22894 0.666791 6.81795 0.666748 7.66671ZM7.33325 12.1024V13.0474C7.32944 13.1069 7.25529 13.3366 6.73181 13.5917C6.23787 13.8324 5.50862 14 4.66675 14C3.82487 14 3.09563 13.8324 2.60166 13.5917C2.06278 13.3291 2.00008 13.0934 2.00008 13.0426V12.1023L2.01158 12.1081C2.72554 12.4651 3.66521 12.6666 4.66675 12.6666C5.66828 12.6666 6.60795 12.4651 7.32188 12.1081L7.33325 12.1024ZM7.33325 10.3333V10.3393C7.32914 10.4178 7.24397 10.6563 6.72561 10.9155C6.23316 11.1618 5.50617 11.3333 4.66675 11.3333C3.82733 11.3333 3.10033 11.1618 2.60787 10.9155C2.07552 10.6494 2.00008 10.405 2.00008 10.3333V9.43573C2.00391 9.43766 2.00775 9.43959 2.01158 9.44151C2.72554 9.79851 3.66521 10 4.66675 10C5.66828 10 6.60795 9.79851 7.32188 9.44151C7.32573 9.43958 7.32957 9.43765 7.33342 9.43572V10.3104L7.33325 10.3333ZM8.66675 13.0426V12.1024L8.67812 12.1081C9.39205 12.4651 10.3317 12.6667 11.3333 12.6667C12.3348 12.6667 13.2745 12.4651 13.9884 12.1081L13.9999 12.1023V13.0878C13.9999 13.1162 13.9515 13.3429 13.4049 13.6018C12.9093 13.8366 12.1776 14 11.3333 14C10.4889 14 9.75725 13.8366 9.26159 13.6018C8.71505 13.3429 8.66659 13.1162 8.66659 13.0878V13.0651L8.66675 13.0426Z" fill="currentColor"/>
</svg>
