<svg viewBox="0 0 32 32" fill="none" xmlns="http://www.w3.org/2000/svg">
<path d="M26.6667 10.6667V0H24V10.6667H26.6667Z" fill="currentColor"/>
<path d="M31.9999 10.6667V2.66675H29.3333V10.6667H31.9999Z" fill="currentColor"/>
<path d="M21.3332 5.33325V10.6666H18.6665V5.33325H21.3332Z" fill="currentColor"/>
<path d="M1.33325 15.3334V26.0851C1.33325 27.7774 2.70007 28.9302 4.03509 29.5806C5.45993 30.2749 7.33477 30.6666 9.33325 30.6666C11.3317 30.6666 13.2066 30.2749 14.6314 29.5806C15.0941 29.3552 15.5606 29.0694 15.9727 28.7217C16.4042 29.0882 16.898 29.3845 17.3816 29.6135C18.803 30.2869 20.673 30.6667 22.6665 30.6667C24.66 30.6667 26.53 30.2869 27.9514 29.6135C29.2713 28.9883 30.6665 27.8627 30.6665 26.1755V20.6667C30.6665 18.9691 29.325 17.7912 27.9768 17.1171C26.5489 16.4031 24.6696 16 22.6665 16C20.6634 16 18.7841 16.4031 17.3562 17.1171L17.3333 17.1286V15.3334C17.3332 13.6359 15.9917 12.4579 14.6435 11.7838C13.2157 11.0699 11.3363 10.6667 9.33325 10.6667C7.33019 10.6667 5.45084 11.0699 4.02292 11.7838C2.6748 12.4579 1.33334 13.6359 1.33325 15.3334ZM14.6665 24.2046V26.0898C14.6627 26.2006 14.5255 26.6658 13.4634 27.1834C12.4755 27.6647 11.017 27.9999 9.33325 27.9999C7.64951 27.9999 6.19101 27.6647 5.20308 27.1834C4.12532 26.6582 3.99992 26.1869 3.99992 26.0851V24.2046L4.02292 24.2162C5.45084 24.9302 7.33019 25.3333 9.33325 25.3333C11.3363 25.3333 13.2157 24.9302 14.6435 24.2162L14.6665 24.2046ZM14.6665 20.6667V20.6725C14.6624 20.8229 14.5015 21.3058 13.451 21.831C12.4661 22.3235 11.0121 22.6666 9.33325 22.6666C7.65441 22.6666 6.20043 22.3235 5.21549 21.831C4.1508 21.2987 3.99992 20.8099 3.99992 20.6666V18.8715C4.00759 18.8753 4.01525 18.8792 4.02292 18.883C5.45084 19.597 7.33019 20.0001 9.33325 20.0001C11.3363 20.0001 13.2157 19.597 14.6435 18.883C14.6512 18.8792 14.6589 18.8753 14.6666 18.8714V20.6437L14.6665 20.6667ZM17.3333 26.0851V24.2047L17.3562 24.2163C18.7841 24.9303 20.6634 25.3333 22.6665 25.3333C24.6696 25.3333 26.5489 24.9303 27.9768 24.2163L27.9998 24.2047V26.1755C27.9998 26.2325 27.9029 26.6858 26.8098 27.2035C25.8185 27.6731 24.3552 28.0001 22.6665 28.0001C20.9778 28.0001 19.5145 27.6731 18.5232 27.2035C17.4301 26.6858 17.3332 26.2325 17.3332 26.1755V26.1077L17.3333 26.0851Z" fill="currentColor"/>
</svg>
