<svg viewBox="0 0 24 24" fill="none" xmlns="http://www.w3.org/2000/svg">
<path d="M20 0H18V8H20V0Z" fill="currentColor"/>
<path d="M24 8V2H22V8H24Z" fill="currentColor"/>
<path d="M16 4V8H14V4H16Z" fill="currentColor"/>
<path d="M1 11.5C1 10.2268 2.00613 9.34337 3.01725 8.83781C4.08819 8.30234 5.4977 8 7 8C8.5023 8 9.91181 8.30234 10.9827 8.83781C11.9939 9.34337 13 10.2268 13 11.5V12.8465L13.0173 12.8378C14.0882 12.3023 15.4977 12 17 12C18.5023 12 19.9118 12.3023 20.9827 12.8378C21.9939 13.3434 23 14.2268 23 15.5V19.6316C23 20.897 21.9536 21.7412 20.9637 22.2101C19.8976 22.7151 18.4951 23 17 23C15.5049 23 14.1024 22.7151 13.0363 22.2101C12.6736 22.0383 12.3033 21.8161 11.9797 21.5413C11.6706 21.8021 11.3207 22.0164 10.9736 22.1855C9.90499 22.7062 8.49886 23 7 23C5.50114 23 4.09501 22.7062 3.02638 22.1855C2.02511 21.6977 1 20.8331 1 19.5639V11.5ZM10.0976 20.3876C10.9059 19.9937 11 19.6402 11 19.5639V18.1535L10.9827 18.1622C9.91181 18.6977 8.5023 19 7 19C5.4977 19 4.08819 18.6977 3.01725 18.1622L3 18.1535V19.5639C3 19.6402 3.09405 19.9937 3.90237 20.3876C4.64332 20.7486 5.73719 21 7 21C8.26281 21 9.35668 20.7486 10.0976 20.3876ZM11 14.1535C10.9942 14.1564 10.9885 14.1593 10.9827 14.1622C9.91181 14.6977 8.5023 15 7 15C5.4977 15 4.08819 14.6977 3.01725 14.1622C3.0115 14.1593 3.00575 14.1564 3 14.1535V15.5C3 15.6075 3.11316 15.9741 3.91168 16.3733C4.65038 16.7427 5.74087 17 7 17C8.25913 17 9.34962 16.7427 10.0883 16.3733C10.8868 15.9741 11 15.6075 11 15.5V14.1535ZM13 18.1535V19.6316C13 19.6743 13.0727 20.0143 13.8925 20.4026C14.636 20.7548 15.7335 21 17 21C18.2665 21 19.364 20.7548 20.1075 20.4026C20.9273 20.0143 21 19.6743 21 19.6316V18.1535L20.9827 18.1622C19.9118 18.6977 18.5023 19 17 19C15.4977 19 14.0882 18.6977 13.0173 18.1622L13 18.1535Z" fill="currentColor"/>
</svg>
