<svg viewBox="0 0 16 16" fill="none" xmlns="http://www.w3.org/2000/svg">
<path d="M11.0352 5.92383C11.8871 5.95827 12.6788 6.1122 13.3018 6.36133C13.6554 6.50282 13.9925 6.69013 14.2529 6.93652C14.4929 7.16378 14.7071 7.48505 14.7412 7.88867C14.7466 7.92507 14.751 7.96209 14.751 8C14.751 8.0049 14.7501 8.00977 14.75 8.01465V10.6416C14.7503 10.6499 14.751 10.6586 14.751 10.667C14.751 10.6719 14.7501 10.6768 14.75 10.6816V13.333C14.75 13.7896 14.516 14.1495 14.2539 14.3975C13.9935 14.6438 13.6565 14.8311 13.3027 14.9727C12.5909 15.2574 11.6585 15.417 10.667 15.417L10.2988 15.4092C9.44629 15.3748 8.65427 15.2218 8.03125 14.9727C7.67747 14.8311 7.34052 14.6438 7.08008 14.3975C6.81799 14.1495 6.58398 13.7896 6.58398 13.333V8C6.58398 7.96792 6.58593 7.9363 6.58984 7.90527C6.61934 7.49361 6.83761 7.16692 7.08105 6.93652C7.34154 6.69004 7.67843 6.50284 8.03223 6.36133C8.74411 6.07665 9.67616 5.91699 10.667 5.91699L11.0352 5.92383ZM13.25 12.3252C12.545 12.597 11.6344 12.75 10.667 12.75C9.69954 12.75 8.78895 12.597 8.08398 12.3252V13.2764C8.09051 13.2839 8.09828 13.2953 8.11133 13.3076C8.18811 13.3802 8.33964 13.4804 8.58887 13.5801C9.02147 13.7531 9.63794 13.8809 10.3545 13.9102L10.667 13.917C11.5166 13.917 12.2518 13.7778 12.7461 13.5801C12.9948 13.4805 13.1459 13.3802 13.2227 13.3076C13.2355 13.2954 13.2435 13.2839 13.25 13.2764V12.3252ZM13.25 9.6582C12.545 9.93003 11.6344 10.083 10.667 10.083C9.69949 10.083 8.78896 9.93008 8.08398 9.6582V10.6123C8.09041 10.6198 8.0991 10.63 8.11133 10.6416C8.18821 10.7142 8.33998 10.8135 8.58887 10.9131C9.08318 11.1108 9.81746 11.25 10.667 11.25C11.5167 11.25 12.2517 11.1108 12.7461 10.9131C12.995 10.8135 13.1468 10.7142 13.2236 10.6416C13.2357 10.6302 13.2438 10.6198 13.25 10.6123V9.6582ZM10.3535 7.42285C9.63759 7.45222 9.02139 7.58094 8.58887 7.75391C8.36939 7.8417 8.22611 7.93067 8.14258 8C8.22617 8.06929 8.36907 8.15818 8.58887 8.24609C9.08318 8.44381 9.8174 8.58297 10.667 8.58301C11.5167 8.58301 12.2517 8.44383 12.7461 8.24609C12.9645 8.15873 13.1066 8.07003 13.1904 8.00098C13.1072 7.93159 12.9651 7.84193 12.7451 7.75391C12.2508 7.55618 11.5159 7.41703 10.667 7.41699L10.3535 7.42285Z" fill="currentColor"/>
<path d="M5.33301 1.25C6.32444 1.25 7.2568 1.40957 7.96875 1.69434C8.32264 1.83589 8.65941 2.02316 8.91992 2.26953C9.18196 2.51734 9.41688 2.8764 9.41699 3.33301V5.33301C9.41699 5.74711 9.08106 6.08283 8.66699 6.08301C8.25278 6.08301 7.91699 5.74722 7.91699 5.33301V4.99121C7.21183 5.26335 6.30081 5.41699 5.33301 5.41699C4.36546 5.41696 3.45502 5.26325 2.75 4.99121V5.94434C2.75648 5.95193 2.7655 5.96248 2.77832 5.97461C2.85521 6.04721 3.00698 6.14655 3.25586 6.24609C3.68847 6.41907 4.30495 6.54785 5.02148 6.57715L5.33398 6.58301L5.41113 6.58691C5.78902 6.62551 6.08382 6.94497 6.08398 7.33301C6.08398 7.72117 5.78909 8.04047 5.41113 8.0791L5.33398 8.08301L4.96582 8.07617C4.13657 8.04275 3.36491 7.89546 2.75 7.6582V8.61133C2.75647 8.6189 2.7656 8.62957 2.77832 8.6416C2.85526 8.71419 3.00719 8.81361 3.25586 8.91309C3.6883 9.086 4.30452 9.21482 5.02051 9.24414L5.33398 9.25L5.41016 9.25391C5.78817 9.29237 6.08382 9.61187 6.08398 10C6.08382 10.3881 5.78817 10.7076 5.41016 10.7461L5.33398 10.75L4.96484 10.7432C4.13603 10.7097 3.3647 10.5624 2.75 10.3252V11.2773C2.75635 11.285 2.7647 11.2956 2.77734 11.3076C2.85422 11.3802 3.00597 11.4795 3.25488 11.5791C3.68759 11.7521 4.30411 11.8808 5.02051 11.9102L5.33301 11.916L5.41016 11.9199C5.78808 11.9584 6.08268 12.278 6.08301 12.666C6.08301 13.0543 5.78824 13.3736 5.41016 13.4121L5.33301 13.416L4.96484 13.4092C4.11273 13.3748 3.32122 13.2217 2.69824 12.9727C2.34455 12.8312 2.00755 12.6436 1.74707 12.3975C1.50236 12.166 1.28313 11.8372 1.25488 11.4229C1.25139 11.3935 1.25 11.3633 1.25 11.333V3.33301C1.25001 3.30261 1.25135 3.27262 1.25488 3.24316L1.26074 3.16699C1.30914 2.78869 1.51766 2.48648 1.74707 2.26953C2.00756 2.02324 2.34443 1.83586 2.69824 1.69434C3.41008 1.40967 4.34183 1.25003 5.33301 1.25ZM5.33301 2.75C4.48367 2.75004 3.74928 2.88916 3.25488 3.08691C3.03525 3.17477 2.89222 3.26361 2.80859 3.33301C2.89217 3.40245 3.03497 3.49211 3.25488 3.58008C3.74928 3.77781 4.48374 3.91696 5.33301 3.91699C6.18249 3.91699 6.91765 3.77786 7.41211 3.58008C7.6316 3.49227 7.77381 3.40238 7.85742 3.33301C7.77378 3.26369 7.63126 3.1746 7.41211 3.08691C6.91765 2.88913 6.18249 2.75 5.33301 2.75Z" fill="currentColor"/>
</svg>
