<svg viewBox="0 0 32 32" fill="none" xmlns="http://www.w3.org/2000/svg">
<path d="M22.0605 12.0977C23.7419 12.1655 25.2956 12.4685 26.5098 12.9541C27.2001 13.2302 27.8436 13.5906 28.334 14.0547C28.7993 14.4952 29.2007 15.1058 29.2432 15.8652C29.2479 15.9095 29.251 15.9544 29.251 16C29.251 16.0085 29.2501 16.0169 29.25 16.0254V21.3154C29.2501 21.3214 29.251 21.3279 29.251 21.334C29.251 21.3425 29.2501 21.3509 29.25 21.3594V26.667C29.2499 27.4894 28.828 28.1469 28.335 28.6133C27.8446 29.077 27.2019 29.4368 26.5117 29.7129C25.1247 30.2676 23.2944 30.5818 21.3359 30.582L21.335 30.583L21.334 30.582L21.333 30.583L21.3311 30.582L20.6064 30.5684C18.9243 30.5004 17.3704 30.1985 16.1562 29.7129C15.466 29.4368 14.8234 29.077 14.333 28.6133C13.84 28.1469 13.4181 27.4894 13.418 26.667V16C13.418 15.983 13.4192 15.9661 13.4199 15.9492L13.4238 15.8506C13.4707 15.0983 13.87 14.4922 14.332 14.0547C14.8222 13.5908 15.4653 13.2302 16.1553 12.9541C17.5428 12.3991 19.3749 12.084 21.333 12.084L22.0605 12.0977ZM26.5127 24.3809C25.1252 24.9357 23.294 25.2509 21.335 25.251C19.3756 25.251 17.5438 24.9358 16.1562 24.3809C16.076 24.3488 15.9967 24.3147 15.918 24.2803V26.6377C15.9298 26.6611 15.9636 26.7144 16.0508 26.7969C16.235 26.9711 16.5691 27.1852 17.085 27.3916C17.9818 27.7503 19.2436 28.0108 20.6992 28.0703L21.334 28.082C23.0567 28.082 24.5581 27.8015 25.583 27.3916C26.0988 27.1853 26.433 26.9711 26.6172 26.7969C26.7063 26.7125 26.7389 26.6582 26.75 26.6357V24.2803C26.6715 24.3145 26.5926 24.3489 26.5127 24.3809ZM15.918 21.3057C15.9303 21.3294 15.9648 21.3825 16.0508 21.4639C16.235 21.6381 16.5692 21.8533 17.085 22.0596C18.11 22.4694 19.6122 22.751 21.335 22.751C23.0578 22.7509 24.56 22.4695 25.585 22.0596C26.1006 21.8533 26.4339 21.638 26.6182 21.4639C26.7027 21.3839 26.7371 21.331 26.75 21.3066V18.9473C26.6716 18.9815 26.5925 19.0149 26.5127 19.0469C25.1252 19.6017 23.2941 19.917 21.335 19.917C19.3756 19.917 17.5438 19.6018 16.1562 19.0469C16.076 19.0148 15.9968 18.9807 15.918 18.9463V21.3057ZM20.6982 14.5967C19.2434 14.6562 17.9808 14.9167 17.084 15.2754C16.5684 15.4817 16.2346 15.6962 16.0508 15.8701C15.99 15.9277 15.956 15.9714 15.9365 16C15.9563 16.0287 15.9902 16.0725 16.0508 16.1299C16.235 16.3041 16.569 16.5192 17.085 16.7256C18.11 17.1355 19.6121 17.417 21.335 17.417C23.0579 17.417 24.56 17.1355 25.585 16.7256C26.1008 16.5192 26.434 16.3041 26.6182 16.1299C26.6767 16.0745 26.7103 16.0316 26.7305 16.0029C26.7115 15.9743 26.6779 15.9294 26.6152 15.8701C26.4314 15.6961 26.0979 15.4817 25.582 15.2754C24.557 14.8654 23.0547 14.584 21.333 14.584L20.6982 14.5967Z" fill="currentColor"/>
<path d="M10.667 2.75C12.626 2.75003 14.4572 3.06515 15.8447 3.62012C16.5351 3.89625 17.1776 4.25694 17.668 4.7207C18.1608 5.18681 18.5827 5.84382 18.583 6.66602V10.667C18.5827 11.3571 18.0232 11.917 17.333 11.917C16.643 11.9168 16.0833 11.357 16.083 10.667V9.6123C16.0042 9.6467 15.925 9.68079 15.8447 9.71289C14.4571 10.2679 12.626 10.583 10.667 10.583C8.70773 10.583 6.87596 10.268 5.48828 9.71289C5.40803 9.68079 5.3288 9.6467 5.25 9.6123V11.9697C5.2611 11.9922 5.29481 12.0457 5.38379 12.1299C5.56793 12.3041 5.90218 12.5192 6.41797 12.7256C7.31473 13.0842 8.57685 13.3438 10.0322 13.4033L10.668 13.417L10.7959 13.4229C11.426 13.4871 11.918 14.0199 11.918 14.667C11.9178 15.3139 11.4259 15.8459 10.7959 15.9102L10.668 15.917L9.93945 15.9023C8.25747 15.8344 6.70332 15.5324 5.48926 15.0469C5.40873 15.0147 5.32906 14.9808 5.25 14.9463V17.3037C5.2613 17.3264 5.29517 17.38 5.38379 17.4639C5.56792 17.638 5.90137 17.8533 6.41699 18.0596C7.31367 18.4183 8.57609 18.6778 10.0312 18.7373L10.666 18.751L10.7939 18.7568C11.4244 18.8208 11.916 19.3537 11.916 20.001C11.9156 20.6479 11.4241 21.1802 10.7939 21.2441L10.666 21.251L9.93848 21.2363C8.257 21.1684 6.70318 20.8664 5.48926 20.3809C5.40862 20.3486 5.32917 20.3139 5.25 20.2793V22.6387C5.26237 22.6625 5.2969 22.7156 5.38281 22.7969C5.56716 22.9711 5.90113 23.1863 6.41699 23.3926C7.314 23.7513 8.57618 24.0108 10.0312 24.0703L10.667 24.084L10.7949 24.0898C11.425 24.1541 11.917 24.6869 11.917 25.334C11.9166 25.9807 11.4248 26.513 10.7949 26.5771L10.667 26.584L9.93848 26.5693C8.2568 26.5014 6.70249 26.1994 5.48828 25.7139C4.79807 25.4378 4.15546 25.077 3.66504 24.6133C3.20264 24.176 2.80291 23.5703 2.75488 22.8184L2.75 22.667V6.66602L2.75488 6.51465C2.80296 5.76281 3.20277 5.1579 3.66504 4.7207C4.15546 4.25691 4.79791 3.89627 5.48828 3.62012C6.87596 3.06505 8.70774 2.75 10.667 2.75ZM10.667 5.25C8.94447 5.25 7.44217 5.53138 6.41699 5.94141C5.90093 6.14783 5.56709 6.36284 5.38281 6.53711C5.32264 6.59402 5.28827 6.63722 5.26855 6.66602C5.28817 6.69483 5.32195 6.73932 5.38281 6.79688C5.56714 6.97111 5.90114 7.18526 6.41699 7.3916C7.44217 7.80166 8.9444 8.08301 10.667 8.08301C12.3893 8.08297 13.8909 7.80157 14.916 7.3916C15.4317 7.18533 15.7658 6.97108 15.9502 6.79688C16.0106 6.73973 16.0438 6.69483 16.0635 6.66602C16.0437 6.63721 16.01 6.59367 15.9502 6.53711C15.7659 6.36285 15.432 6.1478 14.916 5.94141C13.8909 5.53146 12.3892 5.25004 10.667 5.25Z" fill="currentColor"/>
</svg>
