<svg viewBox="0 0 24 24" fill="none" xmlns="http://www.w3.org/2000/svg">
<path d="M12.0619 18.2542C12.3579 18.2669 12.6418 18.3724 12.8705 18.5589L12.972 18.6507L13.0648 18.7522C13.2655 18.9972 13.376 19.3059 13.3754 19.6253L13.3685 19.7659C13.2981 20.4586 12.7126 20.9995 12.0013 21.0003C11.2428 21.0008 10.6271 20.3867 10.6254 19.6282C10.6241 18.9069 11.1786 18.3158 11.8851 18.2571C11.9191 18.2533 11.9537 18.2507 11.9886 18.2503L11.9925 18.2513L11.9964 18.2503L12.0619 18.2542Z" fill="currentColor"/>
<path d="M7.14586 14.8557C9.90407 12.3817 14.0956 12.3817 16.8539 14.8557L17.1244 15.1116L17.1937 15.1868C17.5155 15.5783 17.4949 16.1581 17.1302 16.5257C16.7657 16.893 16.1863 16.9183 15.7923 16.5999L15.7162 16.5315L15.5199 16.346C13.5197 14.5517 10.48 14.5517 8.47985 16.346L8.28356 16.5315C7.89158 16.9201 7.25841 16.9174 6.8695 16.5257C6.48053 16.1336 6.48334 15.5006 6.87536 15.1116L7.14586 14.8557Z" fill="currentColor"/>
<path d="M12.1097 8.19071C12.6135 8.24559 13.004 8.67501 13.0004 9.19266C12.9962 9.74486 12.5448 10.1889 11.9925 10.1848L11.5277 10.1927C9.21007 10.2839 6.99136 11.1832 5.2611 12.7425L5.18102 12.8069C4.77216 13.1065 4.19466 13.0538 3.84801 12.6692C3.47873 12.259 3.51138 11.6268 3.92125 11.2571L4.34508 10.8929C6.49948 9.1264 9.20957 8.16428 12.0072 8.18485L12.1097 8.19071Z" fill="currentColor"/>
<path d="M18.7933 4.79325C19.1839 4.40275 19.8169 4.40273 20.2074 4.79325C20.5977 5.18378 20.5978 5.81686 20.2074 6.20731L19.4144 7.00028L20.2074 7.79325L20.2757 7.86942C20.5959 8.26218 20.5734 8.84127 20.2074 9.20731C19.8414 9.57334 19.2623 9.59579 18.8695 9.27567L18.7933 9.20731L18.0004 8.41434L17.2074 9.20731C16.8169 9.59775 16.1839 9.59759 15.7933 9.20731C15.4028 8.81678 15.4028 8.18377 15.7933 7.79325L16.5863 7.00028L15.7933 6.20731L15.725 6.13114C15.4046 5.73836 15.4272 5.15936 15.7933 4.79325C16.1594 4.42715 16.7385 4.40454 17.1312 4.72489L17.2074 4.79325L18.0004 5.58621L18.7933 4.79325Z" fill="currentColor"/>
<path d="M12.0101 3.00028C12.5621 3.00581 13.0056 3.45796 13.0004 4.01004C12.9948 4.56207 12.5427 5.00552 11.9906 5.00028C8.41802 4.96612 4.95476 6.23169 2.24645 8.5618C1.82785 8.92196 1.19652 8.87483 0.836294 8.45633C0.476144 8.03774 0.523271 7.4064 0.941762 7.04618C4.01797 4.39944 7.9522 2.96148 12.0101 3.00028Z" fill="currentColor"/>
</svg>
