<svg viewBox="0 0 16 16" fill="none" xmlns="http://www.w3.org/2000/svg">
<path d="M8.01648 12.0845C8.24178 12.0878 8.45913 12.1667 8.63269 12.3081L8.70691 12.3755L8.77429 12.4497C8.91979 12.6277 9.00024 12.8517 8.99987 13.0835L8.99499 13.1861C8.94365 13.6897 8.51794 14.0828 8.00085 14.0835C7.44918 14.0839 7.00111 13.6371 6.99987 13.0855C6.99901 12.5538 7.41362 12.12 7.93737 12.0874C7.95523 12.0859 7.97387 12.0837 7.99206 12.0835L7.99499 12.0845L7.99792 12.0835L8.01648 12.0845Z" fill="currentColor"/>
<path d="M4.52429 10.0152C6.44791 8.1064 9.55079 8.10652 11.4745 10.0152C11.7682 10.3069 11.7708 10.7817 11.4794 11.0757C11.1877 11.3696 10.7129 11.3711 10.4188 11.0796C9.08003 9.75116 6.91979 9.75127 5.58093 11.0796C5.28699 11.3713 4.81216 11.3695 4.52038 11.0757C4.22864 10.7817 4.23031 10.3069 4.52429 10.0152Z" fill="currentColor"/>
<path d="M8.00573 5.37356C8.41963 5.37697 8.75293 5.71543 8.74987 6.12942C8.74663 6.54339 8.40801 6.8765 7.99401 6.87356C6.35842 6.86154 4.77737 7.46212 3.56237 8.55715L3.5028 8.60598C3.19635 8.83037 2.76376 8.7904 2.50378 8.50247C2.22647 8.19478 2.25078 7.72021 2.55847 7.44289L2.84362 7.19778C4.29498 6.00776 6.12104 5.35965 8.00573 5.37356Z" fill="currentColor"/>
<path d="M12.5262 3.0845C12.8208 2.84441 13.2556 2.86176 13.5301 3.13625C13.8047 3.41078 13.822 3.84558 13.5819 4.14016L13.5301 4.1968L13.0604 4.66653L13.5301 5.13625L13.5819 5.1929C13.8221 5.48739 13.8045 5.92218 13.5301 6.1968C13.2555 6.47141 12.8208 6.48887 12.5262 6.24856L12.4696 6.1968L11.9999 5.72707L11.5301 6.1968C11.2373 6.48969 10.7625 6.48969 10.4696 6.1968C10.1767 5.90391 10.1767 5.42914 10.4696 5.13625L10.9393 4.66653L10.4696 4.1968L10.4178 4.14016C10.1776 3.84558 10.195 3.41084 10.4696 3.13625C10.7442 2.86188 11.179 2.84426 11.4735 3.0845L11.5301 3.13625L11.9999 3.60598L12.4696 3.13625L12.5262 3.0845Z" fill="currentColor"/>
<path d="M8.08386 1.92141C8.46152 1.96357 8.75359 2.28614 8.74987 2.67434C8.74571 3.08836 8.40613 3.42049 7.99206 3.41653L7.55066 3.42239C5.34676 3.50138 3.22996 4.32798 1.55163 5.772C1.23768 6.04184 0.764098 6.00571 0.494015 5.69192C0.223952 5.37797 0.259267 4.90446 0.573116 4.6343C2.6392 2.85667 5.28128 1.89149 8.00671 1.9175L8.08386 1.92141Z" fill="currentColor"/>
</svg>
