<svg viewBox="0 0 32 32" fill="none" xmlns="http://www.w3.org/2000/svg">
<path d="M16.0516 24.42C16.4378 24.4306 16.8084 24.5668 17.1063 24.8096L17.2362 24.9268L17.3543 25.0557C17.6119 25.37 17.753 25.7668 17.7498 26.1768L17.7489 26.1758C17.744 27.1375 16.9637 27.9162 16.0008 27.917C15.0351 27.9177 14.2516 27.1357 14.2498 26.17C14.2482 25.2211 15.0019 24.4493 15.9442 24.42C15.9578 24.4194 15.9714 24.4172 15.9852 24.417L15.9901 24.418L15.995 24.417L16.0516 24.42Z" fill="currentColor"/>
<path d="M9.22445 20.208C12.8573 16.6034 18.6483 16.4905 22.4159 19.8702L22.7733 20.208L22.8602 20.3028C23.2618 20.7921 23.2365 21.5164 22.7811 21.9756C22.3253 22.435 21.6008 22.4657 21.1082 22.0674L21.0125 21.9825L20.7479 21.7325C17.9597 19.2314 13.6747 19.315 10.9862 21.9825C10.4962 22.4686 9.7039 22.4653 9.21762 21.9756C8.7316 21.4857 8.73481 20.6943 9.22445 20.208Z" fill="currentColor"/>
<path d="M16.1366 11.0049C16.7664 11.0736 17.2546 11.6097 17.2498 12.2569C17.2444 12.9469 16.6802 13.5022 15.9901 13.4971L15.367 13.5079C12.257 13.6302 9.27959 14.8363 6.95785 16.9288C6.44511 17.3906 5.65437 17.3495 5.19222 16.837C4.73048 16.3243 4.77173 15.5344 5.28402 15.0723C8.22441 12.4222 12.0503 10.968 16.0086 10.9971L16.1366 11.0049Z" fill="currentColor"/>
<path d="M25.2108 6.36332C25.7017 5.96307 26.426 5.99171 26.8836 6.44926C27.3412 6.90684 27.3698 7.63115 26.9696 8.12211L26.8836 8.21684L25.7674 9.33305L26.8836 10.4493L26.9696 10.544C27.37 11.0349 27.3411 11.7592 26.8836 12.2168C26.426 12.6745 25.7017 12.7033 25.2108 12.3028L25.1161 12.2168L23.9998 11.1006L22.8836 12.2168C22.3955 12.705 21.6042 12.705 21.1161 12.2168C20.6279 11.7287 20.6279 10.9374 21.1161 10.4493L22.2323 9.33305L21.1161 8.21684L21.0301 8.12211C20.6297 7.63114 20.6584 6.9069 21.1161 6.44926C21.5737 5.99183 22.298 5.96292 22.7889 6.36332L22.8836 6.44926L23.9998 7.56547L25.1161 6.44926L25.2108 6.36332Z" fill="currentColor"/>
<path d="M16.1395 4.09086C16.7689 4.16101 17.2558 4.69791 17.2498 5.34477C17.2432 6.03509 16.6775 6.58965 15.9871 6.58305L15.5399 6.58402C10.9153 6.64475 6.45344 8.32996 2.94027 11.3526L2.83871 11.4307C2.3193 11.7931 1.59973 11.711 1.17758 11.2207C0.727488 10.6974 0.786156 9.90728 1.30941 9.45707L1.69613 9.13285C5.72274 5.82452 10.7897 4.03313 16.0116 4.08305L16.1395 4.09086Z" fill="currentColor"/>
</svg>
