<svg viewBox="0 0 24 24" fill="none" xmlns="http://www.w3.org/2000/svg">
<path d="M14.6 5C15.7531 5 16.4977 5.00156 17.0643 5.04785C17.6077 5.09225 17.8091 5.1676 17.908 5.21799C18.2843 5.40973 18.5903 5.71569 18.782 6.09202C18.8324 6.19091 18.9078 6.39235 18.9521 6.93567C18.9984 7.50235 19 8.24689 19 9.4V14.6C19 15.7531 18.9984 16.4977 18.9521 17.0643C18.9078 17.6077 18.8324 17.8091 18.782 17.908C18.5903 18.2843 18.2843 18.5903 17.908 18.782C17.8091 18.8324 17.6077 18.9078 17.0643 18.9521C16.4977 18.9984 15.7531 19 14.6 19H9.4C8.24689 19 7.50235 18.9984 6.93567 18.9521C6.39235 18.9078 6.19091 18.8324 6.09202 18.782C5.71569 18.5903 5.40973 18.2843 5.21799 17.908C5.1676 17.8091 5.09225 17.6077 5.04785 17.0643C5.00156 16.4977 5 15.7531 5 14.6V9.4C5 8.24689 5.00156 7.50235 5.04785 6.93567C5.09225 6.39235 5.1676 6.19091 5.21799 6.09202C5.40973 5.71569 5.71569 5.40973 6.09202 5.21799C6.19091 5.1676 6.39235 5.09225 6.93567 5.04785C7.50235 5.00156 8.24689 5 9.4 5H14.6ZM3.43597 5.18404C3 6.03968 3 7.15979 3 9.4V14.6C3 16.8402 3 17.9603 3.43597 18.816C3.81947 19.5686 4.43139 20.1805 5.18404 20.564C6.03968 21 7.15979 21 9.4 21H14.6C16.8402 21 17.9603 21 18.816 20.564C19.5686 20.1805 20.1805 19.5686 20.564 18.816C21 17.9603 21 16.8402 21 14.6V9.4C21 7.15979 21 6.03968 20.564 5.18404C20.1805 4.43139 19.5686 3.81947 18.816 3.43597C17.9603 3 16.8402 3 14.6 3H9.4C7.15979 3 6.03968 3 5.18404 3.43597C4.43139 3.81947 3.81947 4.43139 3.43597 5.18404Z" fill="currentColor"/>
</svg>
