<svg viewBox="0 0 16 16" fill="none" xmlns="http://www.w3.org/2000/svg">
<path d="M12 1.25C13.1252 1.25 14.0388 2.14146 14.0791 3.25684C14.0816 3.28188 14.083 3.30729 14.083 3.33301V6.13281C14.483 6.38333 14.75 6.82735 14.75 7.33398V8.66699C14.7499 9.17343 14.4828 9.6167 14.083 9.86719V12.6475C14.0832 12.654 14.084 12.6605 14.084 12.667C14.0838 13.8176 13.1506 14.7498 12 14.75H4C2.84938 14.7498 1.91717 13.8176 1.91699 12.667V3.33301C1.91717 2.18239 2.84938 1.25018 4 1.25H12ZM4 2.75C3.67781 2.75018 3.41717 3.01081 3.41699 3.33301V12.667C3.41717 12.9892 3.67781 13.2498 4 13.25H4.58301V2.75H4ZM6.08301 13.25H12C12.3206 13.2498 12.5802 12.9918 12.583 12.6719V10.084H12C10.8494 10.0838 9.91717 9.15062 9.91699 8C9.91717 6.84938 10.8494 5.91717 12 5.91699H12.583V3.33301C12.5828 3.0107 12.3223 2.75 12 2.75H6.08301V13.25ZM12 7.41699C11.6778 7.41717 11.4172 7.67781 11.417 8C11.4172 8.3222 11.6778 8.58381 12 8.58398H13.25V7.41699H12Z" fill="currentColor"/>
</svg>
