<svg viewBox="0 0 24 24" fill="none" xmlns="http://www.w3.org/2000/svg">
<path d="M2.9765 9.48314C2.95581 7.24303 2.94546 6.12297 3.37351 5.26333C3.75004 4.50718 4.35628 3.88963 5.10535 3.4992C5.95694 3.05534 7.07699 3.04499 9.31711 3.0243L14.5169 2.97626C16.757 2.95556 17.8771 2.94522 18.7367 3.37327C19.4929 3.74979 20.1104 4.35604 20.5008 5.10511C20.9447 5.95669 20.955 7.07675 20.9757 9.31686L21.0238 14.5166C21.0445 16.7568 21.0548 17.8768 20.6268 18.7365C20.2502 19.4926 19.644 20.1102 18.8949 20.5006C18.0433 20.9444 16.9233 20.9548 14.6832 20.9755L9.48339 21.0235C7.24327 21.0442 6.12322 21.0546 5.26358 20.6265C4.50742 20.25 3.88987 19.6438 3.49944 18.8947C3.05558 18.0431 3.04523 16.923 3.02454 14.6829L2.9765 9.48314Z" fill="currentColor"/>
</svg>
