<svg viewBox="0 0 24 24" fill="none" xmlns="http://www.w3.org/2000/svg">
<path d="M6.75 1C5.10959 1 4 2.47232 4 4V20C4 21.5277 5.10959 23 6.75 23H17.25C18.8904 23 20 21.5277 20 20V4C20 2.47232 18.8904 1 17.25 1H6.75ZM14.5 9.5C14.5 10.8807 13.3807 12 12 12C10.6193 12 9.50003 10.8807 9.50003 9.5C9.50003 8.11929 10.6193 7 12 7C13.3807 7 14.5 8.11929 14.5 9.5ZM12 13C14.2609 13 16.1614 14.61 16.477 16.7609H7.52301C7.83858 14.61 9.73909 13 12 13Z" fill="currentColor"/>
<path d="M2 3V21H0V3H2Z" fill="currentColor"/>
<path d="M22 3H24V21H22V3Z" fill="currentColor"/>
</svg>
