<svg viewBox="0 0 32 32" fill="none" xmlns="http://www.w3.org/2000/svg">
<path d="M24 2.75C26.1637 2.75 27.917 4.5033 27.917 6.66699V12.4072C28.7115 12.8479 29.2499 13.6946 29.25 14.667V17.334C29.2498 18.3062 28.7112 19.1512 27.917 19.5918V25.334C27.917 25.3451 27.9153 25.3561 27.915 25.3672C27.8967 27.515 26.1521 29.2498 24 29.25H8C5.83648 29.2498 4.08301 27.4966 4.08301 25.333V6.66699C4.08301 4.50342 5.83648 2.7502 8 2.75H24ZM8 5.25C7.21719 5.2502 6.58301 5.88414 6.58301 6.66699V25.333C6.58301 26.1159 7.21719 26.7498 8 26.75H9.41699V5.25H8ZM11.917 26.75H24C24.7828 26.7498 25.416 26.1159 25.416 25.333C25.416 25.3268 25.4169 25.3206 25.417 25.3145V19.917H24C21.8368 19.9168 20.0834 18.1642 20.083 16.001C20.083 13.8374 21.8365 12.0842 24 12.084H25.417V6.66699C25.417 5.88401 24.783 5.25 24 5.25H11.917V26.75ZM24 14.584C23.2172 14.5842 22.583 15.2181 22.583 16.001C22.5834 16.7835 23.2175 17.4168 24 17.417H26.666C26.7115 17.417 26.7497 17.3794 26.75 17.334V14.667C26.7498 14.6215 26.7116 14.584 26.666 14.584H24Z" fill="currentColor"/>
</svg>
