<svg viewBox="0 0 16 16" fill="none" xmlns="http://www.w3.org/2000/svg">
<path d="M4.50008 0.666748C3.40647 0.666748 2.66675 1.64829 2.66675 2.66675V13.3334C2.66675 14.3519 3.40647 15.3334 4.50008 15.3334H11.5001C12.5937 15.3334 13.3334 14.3519 13.3334 13.3334V2.66675C13.3334 1.64829 12.5937 0.666748 11.5001 0.666748H4.50008ZM9.66675 6.33342C9.66675 7.25388 8.92055 8.00008 8.00008 8.00008C7.07961 8.00008 6.33343 7.25388 6.33343 6.33342C6.33343 5.41294 7.07961 4.66675 8.00008 4.66675C8.92055 4.66675 9.66675 5.41294 9.66675 6.33342ZM8.00008 8.66675C9.50735 8.66675 10.7743 9.74008 10.9847 11.174H5.01542C5.2258 9.74008 6.49281 8.66675 8.00008 8.66675Z" fill="currentColor"/>
<path d="M1.33333 2V14H0V2H1.33333Z" fill="currentColor"/>
<path d="M16.0001 2V14H14.6667V2H16.0001Z" fill="currentColor"/>
</svg>
