<svg viewBox="0 0 32 32" fill="none" xmlns="http://www.w3.org/2000/svg">
<path d="M9.00009 1.33324C6.8129 1.33324 5.33346 3.29632 5.33346 5.33321V26.6664C5.33346 28.7033 6.8129 30.6664 9.00009 30.6664H23C25.1872 30.6664 26.6666 28.7033 26.6666 26.6664V5.33321C26.6666 3.29632 25.1872 1.33324 23 1.33324H9.00009ZM19.3333 12.6665C19.3333 14.5074 17.841 15.9998 16 15.9998C14.1591 15.9998 12.6668 14.5074 12.6668 12.6665C12.6668 10.8256 14.1591 9.33318 16 9.33318C17.841 9.33318 19.3333 10.8256 19.3333 12.6665ZM16 17.3331C19.0146 17.3331 21.5485 19.4798 21.9693 22.3476H10.0308C10.4515 19.4798 12.9855 17.3331 16 17.3331Z" fill="currentColor"/>
<path d="M2.66665 3.99997V27.9998H0V3.99997H2.66665Z" fill="currentColor"/>
<path d="M31.9999 3.99997V27.9998H29.3333V3.99997H31.9999Z" fill="currentColor"/>
</svg>
