<svg viewBox="0 0 24 24" fill="none" xmlns="http://www.w3.org/2000/svg">
<path d="M18 2C19.6573 2 21 3.34272 21 5V9.26953C21.5973 9.61554 22 10.2603 22 11V13C22 13.7395 21.5971 14.3834 21 14.7295V19C21 20.6573 19.6573 22 18 22H6C4.34272 22 3 20.6573 3 19V5C3 3.34272 4.34272 2 6 2H18ZM6 4C5.44728 4 5 4.44728 5 5V19C5 19.5527 5.44728 20 6 20H7V4H6ZM9 20H18C18.5181 20 18.9439 19.607 18.9951 19.1025L19 19V15H18C16.3427 15 15 13.6573 15 12C15 10.3427 16.3427 9 18 9H19V5L18.9951 4.89746C18.9473 4.42669 18.5733 4.05271 18.1025 4.00488L18 4H9V20ZM18 11C17.4473 11 17 11.4473 17 12C17 12.5527 17.4473 13 18 13H20V11H18Z" fill="currentColor"/>
</svg>
