<svg viewBox="0 0 32 32" fill="none" xmlns="http://www.w3.org/2000/svg">
<path d="M18.668 14.75C19.3582 14.7501 19.918 15.3097 19.918 16V17.418H21.3359L21.4639 17.4248C22.0939 17.4891 22.5859 18.0209 22.5859 18.668C22.5859 19.315 22.0939 19.8469 21.4639 19.9111L21.3359 19.918H19.918V21.3359C19.9178 22.026 19.3581 22.5858 18.668 22.5859C17.9777 22.5859 17.4182 22.0261 17.418 21.3359V19.918H16C15.3097 19.9179 14.75 19.3583 14.75 18.668C14.75 17.9777 15.3097 17.418 16 17.418H17.418V16C17.418 15.3096 17.9776 14.75 18.668 14.75Z" fill="currentColor"/>
<path d="M18.668 2.74512C21.5683 2.74522 23.9199 5.09672 23.9199 7.99707V8.08105H24.0049C26.9043 8.08112 29.2549 10.4316 29.2549 13.3311V24.0049C29.2549 26.9043 26.9043 29.2548 24.0049 29.2549H13.3311C10.4316 29.2549 8.08105 26.9044 8.08105 24.0049V23.9199H7.99707C5.09668 23.9199 2.74516 21.5683 2.74512 18.668V7.99707C2.74512 5.09665 5.09665 2.74512 7.99707 2.74512H18.668ZM13.3311 10.5811C11.8123 10.5811 10.5811 11.8123 10.5811 13.3311V24.0049C10.5811 25.5237 11.8123 26.7549 13.3311 26.7549H24.0049C25.5236 26.7548 26.7549 25.5236 26.7549 24.0049V13.3311C26.7549 11.8123 25.5236 10.5811 24.0049 10.5811H13.3311ZM7.99707 5.24512C6.47737 5.24512 5.24512 6.47737 5.24512 7.99707V18.668C5.24516 20.1876 6.47739 21.4199 7.99707 21.4199H8.08105V13.3311C8.08105 10.4316 10.4316 8.08105 13.3311 8.08105H21.4199V7.99707C21.4199 6.47743 20.1876 5.24522 18.668 5.24512H7.99707Z" fill="currentColor"/>
</svg>
