<svg viewBox="0 0 16 16" fill="none" xmlns="http://www.w3.org/2000/svg">
<path d="M2.99967 1.33325H10.333C11.2535 1.33325 11.9997 2.07944 11.9997 2.99992V4H12.9998C13.9191 4 14.6664 4.748 14.6664 5.66667V13C14.6664 13.9187 13.9191 14.6667 12.9998 14.6667H5.66642C4.74709 14.6667 3.99976 13.9187 3.99976 13V11.9999H2.99967C2.0792 11.9999 1.33301 11.2537 1.33301 10.3333V2.99992C1.33301 2.07944 2.0792 1.33325 2.99967 1.33325ZM5.33309 11.9999V13C5.33309 13.184 5.48309 13.3333 5.66642 13.3333H12.9998C13.1831 13.3333 13.3331 13.184 13.3331 13V5.66667C13.3331 5.48267 13.1831 5.33333 12.9998 5.33333H11.9997V10.3333C11.9997 11.2537 11.2535 11.9999 10.333 11.9999H5.33309Z" fill="currentColor"/>
</svg>
