<svg viewBox="0 0 24 24" fill="none" xmlns="http://www.w3.org/2000/svg">
<path d="M14.001 11C14.553 11.0002 15.0008 11.4479 15.001 12V13.001H16.002L16.1035 13.0059C16.6078 13.057 17.0018 13.4832 17.002 14.001C17.0018 14.5187 16.6078 14.944 16.1035 14.9951L16.002 15.001H15.001V16.002C15.0007 16.5539 14.553 17.0018 14.001 17.002C13.4489 17.0019 13.0012 16.554 13.001 16.002V15.001H12C11.4479 15.0009 11.0002 14.5531 11 14.001C11.0001 13.4489 11.4479 13.0011 12 13.001H13.001V12C13.0011 11.4479 13.4488 11.0001 14.001 11Z" fill="currentColor"/>
<path d="M14.001 1.99609C16.2105 1.99626 18.0017 3.78758 18.002 5.99707L18.0039 5.99805C20.2128 5.99822 22.0038 7.78912 22.0039 9.99805V18.0039C22.0037 20.2128 20.2128 22.0037 18.0039 22.0039H9.99805C7.78908 22.0038 5.99822 20.2129 5.99805 18.0039V18.002C3.78851 18.0017 1.99626 16.2105 1.99609 14.001V5.99707C1.99637 3.78762 3.78761 1.99632 5.99707 1.99609H14.001ZM9.99805 7.99805C8.89363 7.99813 7.99818 8.89364 7.99805 9.99805V18.0039C7.99822 19.1083 8.89365 20.0038 9.99805 20.0039H18.0039C19.1082 20.0037 20.0037 19.1082 20.0039 18.0039V9.99805C20.0038 8.89369 19.1083 7.99822 18.0039 7.99805H9.99805ZM5.99707 3.99609C4.89218 3.99632 3.99637 4.89219 3.99609 5.99707V14.001C3.99626 15.106 4.89211 16.0017 5.99707 16.002L5.99805 9.99805C5.99818 7.78907 7.78906 5.99813 9.99805 5.99805H16.002C16.0017 4.89312 15.1059 3.99626 14.001 3.99609H5.99707Z" fill="currentColor"/>
</svg>
