<svg viewBox="0 0 32 32" fill="none" xmlns="http://www.w3.org/2000/svg">
<path d="M6.00033 2.66675H20.667C22.5079 2.66675 24.0003 4.15913 24.0003 6.00008V8H26.0002C27.8389 8 29.3336 9.496 29.3336 11.3333V26C29.3336 27.8373 27.8389 29.3333 26.0002 29.3333H11.3336C9.49491 29.3333 8.00024 27.8373 8.00024 26V24.0001H6.00033C4.15938 24.0001 2.66699 22.5077 2.66699 20.6667V6.00008C2.66699 4.15913 4.15938 2.66675 6.00033 2.66675ZM10.6669 24.0001V26C10.6669 26.368 10.9669 26.6667 11.3336 26.6667H26.0002C26.3669 26.6667 26.6669 26.368 26.6669 26V11.3333C26.6669 10.9653 26.3669 10.6667 26.0002 10.6667H24.0003V20.6667C24.0003 22.5077 22.5079 24.0001 20.667 24.0001H10.6669Z" fill="currentColor"/>
</svg>
