<svg viewBox="0 0 16 16" fill="none" xmlns="http://www.w3.org/2000/svg">
<path d="M9.33301 7.25098C9.74722 7.25098 10.083 7.58676 10.083 8.00098V8.58398H10.667L10.7441 8.58789C11.1222 8.62631 11.4168 8.94589 11.417 9.33398C11.4167 9.72207 11.1221 10.0426 10.7441 10.0811L10.667 10.084H10.083V10.668C10.0827 11.082 9.74706 11.418 9.33301 11.418C8.91936 11.4175 8.58327 11.0817 8.58301 10.668V10.084H8C7.58615 10.0838 7.25026 9.74783 7.25 9.33398C7.25025 8.92013 7.58614 8.58422 8 8.58398H8.58301V8.00098C8.58301 7.58705 8.91919 7.25145 9.33301 7.25098Z" fill="currentColor"/>
<path d="M9.33301 1.24707C10.8255 1.24707 12.0377 2.43671 12.0801 3.91895C13.5628 3.96027 14.752 5.17334 14.752 6.66602V12.0029C14.7517 13.5215 13.5206 14.7529 12.002 14.7529H6.66504C5.17271 14.7527 3.95952 13.5634 3.91797 12.0811C2.43609 12.0385 1.24733 10.8261 1.24707 9.33398V3.99902C1.24707 2.47992 2.479 1.2473 3.99805 1.24707H9.33301ZM6.66504 5.41602C5.97488 5.41625 5.41504 5.9758 5.41504 6.66602V12.0029C5.4153 12.6929 5.97504 13.2527 6.66504 13.2529H12.002C12.6921 13.2529 13.2517 12.6931 13.252 12.0029V6.66602C13.252 5.97566 12.6923 5.41602 12.002 5.41602H6.66504ZM3.99805 2.74805C3.30743 2.74828 2.74707 3.30835 2.74707 3.99902V9.33398C2.74732 9.99657 3.26325 10.5382 3.91504 10.5811V6.66602C3.91504 5.14738 5.14645 3.91625 6.66504 3.91602H10.5801C10.5374 3.26388 9.99595 2.74805 9.33301 2.74805H3.99805Z" fill="currentColor"/>
</svg>
