<svg viewBox="0 0 24 24" fill="none" xmlns="http://www.w3.org/2000/svg">
<path d="M14.4958 7.00001C16.6851 7.00007 17.9997 8.99517 17.9997 10.6983C17.9997 11.6254 17.6339 12.451 17.1716 13.127C16.7084 13.8042 16.1094 14.3893 15.5408 14.8594C14.968 15.3329 14.3967 15.7134 13.9646 15.9756C13.7479 16.1071 13.5611 16.2123 13.4216 16.2861C13.353 16.3224 13.2908 16.3543 13.239 16.3789C13.2143 16.3906 13.182 16.4045 13.1491 16.418C13.1339 16.4243 13.106 16.436 13.072 16.4473C13.0551 16.4529 13.0246 16.4626 12.987 16.4717C12.9638 16.4773 12.8705 16.5 12.7497 16.5C12.6286 16.5 12.5352 16.4772 12.5124 16.4717C12.4748 16.4626 12.4443 16.4529 12.4275 16.4473C12.3934 16.4359 12.3655 16.4242 12.3503 16.418C12.3175 16.4044 12.2851 16.3906 12.2605 16.3789C12.2086 16.3543 12.1464 16.3224 12.0779 16.2861C11.9383 16.2123 11.7515 16.1071 11.5349 15.9756C11.1028 15.7134 10.5314 15.3328 9.95872 14.8594C9.39009 14.3893 8.79104 13.8041 8.32786 13.127C7.8656 12.451 7.4998 11.6253 7.49974 10.6983C7.49974 8.99524 8.81452 7.00024 11.0036 7.00001C11.7227 7.00001 12.3009 7.21379 12.7488 7.4961C13.1968 7.21333 13.776 7.00006 14.4958 7.00001ZM14.4958 9.00001C14.0088 9.0001 13.7013 9.22881 13.5075 9.45411C13.3178 9.67454 13.0416 9.80148 12.7507 9.80177C12.4598 9.80191 12.183 9.67535 11.9929 9.45509C11.7972 9.22826 11.4893 9.00001 11.0036 9.00001C10.1972 9.00026 9.49974 9.79951 9.49974 10.6983C9.4998 11.0909 9.65573 11.5264 9.97825 11.9981C10.2998 12.4682 10.7492 12.9183 11.2331 13.3184C11.713 13.7151 12.2002 14.04 12.572 14.2656C12.6344 14.3035 12.6954 14.3357 12.7497 14.3672C12.804 14.3357 12.8651 14.3035 12.9275 14.2656C13.2992 14.04 13.7864 13.7151 14.2663 13.3184C14.7503 12.9183 15.1996 12.4682 15.5212 11.9981C15.8438 11.5264 15.9997 11.091 15.9997 10.6983C15.9997 9.7994 15.3024 9.00007 14.4958 9.00001Z" fill="currentColor"/>
<path d="M12.6658 1.00099C17.0476 0.998991 20.9548 3.76142 22.4109 7.89552L22.5398 8.28419C23.7844 12.3144 22.4511 16.7169 19.1433 19.3779C15.8582 22.0206 11.3135 22.3905 7.65696 20.3594L3.34349 21.9395C2.97802 22.0731 2.56789 21.9822 2.2927 21.707C2.0176 21.4318 1.9266 21.0217 2.06028 20.6563L3.63938 16.3418C1.906 13.2328 1.89216 9.43333 3.6345 6.30177C5.4581 3.02439 8.91656 0.99475 12.6667 1.00001L12.6658 1.00099ZM12.6638 3.00001C9.64054 2.99581 6.85271 4.63224 5.38255 7.27442C3.91246 9.91671 3.99185 13.1495 5.58958 15.7158C5.7522 15.9772 5.78524 16.2988 5.67942 16.5879L4.67942 19.3193L7.41087 18.3203L7.52024 18.2871C7.77852 18.2248 8.05344 18.2676 8.28196 18.4092L8.56517 18.5772C11.5243 20.2539 15.223 19.966 17.8904 17.8203C20.5577 15.6745 21.6322 12.1238 20.6286 8.87403L20.5242 8.56056C19.3502 5.22725 16.2003 2.99843 12.6667 3.00001H12.6638Z" fill="currentColor"/>
</svg>
