<svg viewBox="0 0 32 32" fill="none" xmlns="http://www.w3.org/2000/svg">
<path d="M23.833 15.9995C23.8331 14.0114 24.8492 12.1772 26.5 11.1147V8.0083H5.5V11.1157C7.14815 12.1774 8.16691 14.0091 8.16699 15.9995C8.16699 17.9894 7.14953 19.8212 5.5 20.8833V24.0054H26.5V20.8843C24.8506 19.822 23.833 17.9884 23.833 15.9995ZM29.5 11.6851C29.5 12.4411 29.0761 13.1259 28.4131 13.4692L28.4141 13.4702L28.3545 13.5015L28.3506 13.5034C27.4186 13.9868 26.8331 14.9491 26.833 15.9995C26.833 16.9987 27.3628 17.9179 28.2139 18.4214L28.3877 18.5171L28.3926 18.519C29.0603 18.8556 29.4998 19.5435 29.5 20.314V24.1714C29.5 25.7357 28.2313 27.0052 26.667 27.0054H5.33301C3.76873 27.0052 2.5 25.7357 2.5 24.1714V20.314C2.50017 19.5505 2.93211 18.8588 3.60645 18.519L3.61133 18.5161C4.565 18.0395 5.16699 17.066 5.16699 15.9995C5.1669 14.9336 4.56389 13.9597 3.61035 13.4829L3.60645 13.481C2.93197 13.1411 2.5 12.4487 2.5 11.6851V7.84131C2.50018 6.27714 3.76884 5.00848 5.33301 5.0083H26.667C28.2312 5.00848 29.4998 6.27714 29.5 7.84131V11.6851Z" fill="currentColor"/>
<path d="M18.1799 11.6996C18.7657 11.114 19.7153 11.1139 20.301 11.6996C20.8866 12.2854 20.8866 13.235 20.301 13.8207L13.634 20.4877C13.0483 21.0733 12.0987 21.0733 11.5129 20.4877C10.9272 19.902 10.9273 18.9524 11.5129 18.3666L18.1799 11.6996Z" fill="currentColor"/>
<path d="M19.4851 17.5072L19.4861 17.5082C20.4244 17.5863 21.1667 18.3693 21.1667 19.3334C21.1666 20.3456 20.3459 21.1662 19.3337 21.1664C18.3247 21.1664 17.5062 20.3509 17.5007 19.3432V19.3383L17.4998 19.3334C17.4982 18.3686 18.241 17.5876 19.1755 17.5082C19.2269 17.5029 19.279 17.4994 19.3318 17.4994L19.4851 17.5072Z" fill="currentColor"/>
<path d="M12.8184 10.8407L12.8193 10.8417C13.7576 10.9198 14.5 11.7028 14.5 12.6669C14.4998 13.6791 13.6792 14.4997 12.667 14.4999C11.6579 14.4999 10.8394 13.6844 10.834 12.6767V12.6718L10.833 12.6669C10.8314 11.7021 11.5743 10.9211 12.5088 10.8417C12.5602 10.8364 12.6123 10.8329 12.665 10.8329L12.8184 10.8407Z" fill="currentColor"/>
</svg>
