<svg viewBox="0 0 32 32" fill="none" xmlns="http://www.w3.org/2000/svg">
<path d="M24 4.42933C24 8.612 17.7747 13.176 16 14C14.2253 13.1773 8 8.61333 8 4.42933C8 1.98267 9.92933 0 12.308 0C13.8747 0 15.048 1.01067 16 2.14667C16.952 1.01067 18.1253 0 19.692 0C22.0707 0 24 1.98267 24 4.42933Z" fill="currentColor"/>
<path d="M7.3335 20.6665C9.54263 20.6665 11.3335 18.8756 11.3335 16.6665C11.3335 14.4574 9.54263 12.6665 7.3335 12.6665C5.12436 12.6665 3.3335 14.4574 3.3335 16.6665C3.3335 18.8756 5.12436 20.6665 7.3335 20.6665Z" fill="currentColor"/>
<path d="M7.33333 22.6665C3.28933 22.6665 0 25.9558 0 29.9998V31.9998H14.6667V29.9998C14.6667 25.9558 11.3773 22.6665 7.33333 22.6665Z" fill="currentColor"/>
<path d="M32.0002 29.9998C32.0002 25.9558 28.7108 22.6665 24.6668 22.6665C20.6228 22.6665 17.3335 25.9558 17.3335 29.9998V31.9998H32.0002V29.9998Z" fill="currentColor"/>
<path d="M24.6665 20.6665C26.8756 20.6665 28.6665 18.8756 28.6665 16.6665C28.6665 14.4574 26.8756 12.6665 24.6665 12.6665C22.4574 12.6665 20.6665 14.4574 20.6665 16.6665C20.6665 18.8756 22.4574 20.6665 24.6665 20.6665Z" fill="currentColor"/>
</svg>
