<svg viewBox="0 0 16 16" fill="none" xmlns="http://www.w3.org/2000/svg">
<path d="M12 2.21467C12 4.306 8.88733 6.588 8 7C7.11267 6.58867 4 4.30667 4 2.21467C4 0.991333 4.96467 0 6.154 0C6.93733 0 7.524 0.505333 8 1.07333C8.476 0.505333 9.06267 0 9.846 0C11.0353 0 12 0.991333 12 2.21467Z" fill="currentColor"/>
<path d="M3.66675 10.3333C4.77132 10.3333 5.66675 9.43782 5.66675 8.33325C5.66675 7.22868 4.77132 6.33325 3.66675 6.33325C2.56218 6.33325 1.66675 7.22868 1.66675 8.33325C1.66675 9.43782 2.56218 10.3333 3.66675 10.3333Z" fill="currentColor"/>
<path d="M3.66667 11.3333C1.64467 11.3333 0 12.9779 0 14.9999V15.9999H7.33333V14.9999C7.33333 12.9779 5.68867 11.3333 3.66667 11.3333Z" fill="currentColor"/>
<path d="M16.0001 14.9999C16.0001 12.9779 14.3554 11.3333 12.3334 11.3333C10.3114 11.3333 8.66675 12.9779 8.66675 14.9999V15.9999H16.0001V14.9999Z" fill="currentColor"/>
<path d="M12.3333 10.3333C13.4378 10.3333 14.3333 9.43782 14.3333 8.33325C14.3333 7.22868 13.4378 6.33325 12.3333 6.33325C11.2287 6.33325 10.3333 7.22868 10.3333 8.33325C10.3333 9.43782 11.2287 10.3333 12.3333 10.3333Z" fill="currentColor"/>
</svg>
