<svg viewBox="0 0 24 24" fill="none" xmlns="http://www.w3.org/2000/svg">
<path d="M4 6V8.4043C5.23485 9.17175 6 10.5267 6 12C6 13.4727 5.23569 14.827 4 15.5947V18H20V15.5947C18.7646 14.8269 18 13.4719 18 12C18 10.5284 18.7631 9.17129 20 8.40332V6H4ZM22 8.76367C22 9.28407 21.7077 9.75518 21.251 9.99121L21.252 9.99219L21.208 10.0156L21.2051 10.0166C20.4647 10.4007 20 11.1655 20 12C20 12.7937 20.4205 13.5238 21.0967 13.9238L21.2354 14L21.2383 14.001C21.6978 14.2327 22 14.7065 22 15.2363V18C22 19.1043 21.1043 20 20 20H4C2.89572 20 2 19.1043 2 18V15.2363C2 14.7112 2.29689 14.2348 2.76074 14.001L2.76367 13.999C3.52151 13.6205 4 12.8473 4 12C4 11.1531 3.52119 10.3788 2.76367 10L2.76074 9.99902C2.29689 9.76519 2 9.28879 2 8.76367V6C2 4.89572 2.89572 4 4 4H20C21.1043 4 22 4.89572 22 6V8.76367Z" fill="currentColor"/>
<path d="M13.723 8.86298C14.1135 8.47245 14.7466 8.47245 15.1371 8.86298C15.5276 9.2535 15.5276 9.88651 15.1371 10.277L10.1371 15.277C9.74656 15.6676 9.11355 15.6676 8.72302 15.277C8.3325 14.8865 8.3325 14.2535 8.72302 13.863L13.723 8.86298Z" fill="currentColor"/>
<path d="M14.6016 13.2549L14.6064 13.2559C15.2452 13.3103 15.75 13.8436 15.75 14.5C15.75 15.1903 15.1903 15.75 14.5 15.75C13.8529 15.75 13.3209 15.2581 13.2568 14.6279L13.25 14.5C13.249 13.843 13.7542 13.3108 14.3906 13.2559C14.4262 13.252 14.4624 13.25 14.499 13.25L14.6016 13.2549Z" fill="currentColor"/>
<path d="M9.60156 8.25488L9.60645 8.25586C10.2452 8.31028 10.75 8.84356 10.75 9.5C10.75 10.1903 10.1903 10.75 9.5 10.75C8.85292 10.75 8.32094 10.2581 8.25684 9.62793L8.25 9.5C8.24896 8.84296 8.75424 8.31077 9.39062 8.25586C9.42623 8.25202 9.4624 8.25 9.49902 8.25L9.60156 8.25488Z" fill="currentColor"/>
</svg>
