<svg viewBox="0 0 32 32" fill="none" xmlns="http://www.w3.org/2000/svg">
<path d="M19.328 9.41701C22.1892 9.41728 23.9159 12.0275 23.9159 14.2647C23.9157 15.4783 23.4374 16.5624 22.827 17.4551C22.2151 18.3497 21.4217 19.125 20.6669 19.749C19.9071 20.377 19.1495 20.8825 18.576 21.2305C18.2888 21.4048 18.0417 21.543 17.8573 21.6406C17.7661 21.6889 17.683 21.7305 17.6151 21.7627C17.5829 21.778 17.5426 21.7973 17.5008 21.8145C17.4813 21.8225 17.4453 21.8373 17.4022 21.8516C17.3808 21.8587 17.3426 21.8706 17.2958 21.8819C17.2659 21.8891 17.1499 21.917 16.9999 21.917C16.8487 21.917 16.7318 21.8888 16.703 21.8819C16.6557 21.8704 16.6178 21.8586 16.5965 21.8516C16.5533 21.8372 16.5174 21.8225 16.4979 21.8145C16.456 21.7972 16.4159 21.778 16.3837 21.7627C16.3157 21.7305 16.2336 21.6889 16.1424 21.6406C15.9579 21.5429 15.7104 21.4051 15.4227 21.2305C14.8491 20.8824 14.0918 20.3772 13.3319 19.749C12.577 19.125 11.7846 18.3498 11.1727 17.4551C10.5622 16.5624 10.0831 15.4784 10.0829 14.2647C10.0829 12.0274 11.8104 9.41717 14.6717 9.41701C15.6365 9.41705 16.4071 9.71032 16.9989 10.0938C17.5908 9.71003 18.3627 9.41706 19.328 9.41701ZM19.328 11.917C18.7327 11.9171 18.3285 12.1634 18.0565 12.4346L17.9471 12.5508C17.71 12.8264 17.3644 12.986 17.0008 12.9863C16.6826 12.9865 16.3776 12.8651 16.1473 12.6504L16.0526 12.5527C15.7809 12.2377 15.3502 11.9171 14.6717 11.917C13.5387 11.9172 12.5829 13.0327 12.5829 14.2647C12.5831 14.8104 12.8004 15.4067 13.2362 16.044C13.6709 16.6796 14.2757 17.2858 14.9247 17.8223C15.5686 18.3546 16.2213 18.7904 16.7196 19.0928C16.8201 19.1538 16.9142 19.2081 16.9989 19.2569C17.0838 19.208 17.1784 19.1539 17.2792 19.0928C17.7773 18.7905 18.4302 18.3545 19.0741 17.8223C19.7229 17.2859 20.3288 16.6795 20.7635 16.044C21.1992 15.4068 21.4157 14.8103 21.4159 14.2647C21.4159 13.0328 20.4609 11.9173 19.328 11.917Z" fill="currentColor"/>
<path d="M16.8885 1.41798C22.6955 1.41563 27.8731 5.07694 29.8026 10.5557L29.9735 11.0703C31.6228 16.4114 29.8562 22.2469 25.4725 25.7735C21.1088 29.2836 15.0673 29.7675 10.2157 27.0547L4.42955 29.1738C3.97273 29.3411 3.46017 29.2277 3.11608 28.8838C2.77221 28.5398 2.659 28.0271 2.82604 27.5703L4.9442 21.7822C2.62835 17.6558 2.60446 12.6048 4.91979 8.44337C7.33666 4.09976 11.9193 1.40974 16.8895 1.41701L16.8885 1.41798ZM16.8856 3.91701C12.8241 3.91116 9.07939 6.10965 7.10436 9.65919C5.1296 13.2087 5.23633 17.5507 7.38268 20.9981C7.58589 21.3247 7.62723 21.7276 7.49498 22.0889L6.09947 25.8994L9.91002 24.5049L10.0467 24.4639C10.3695 24.386 10.7123 24.4394 10.9979 24.6162C15.0325 27.1167 20.2076 26.8004 23.9061 23.8252C27.6046 20.8497 29.0231 15.8636 27.4452 11.3867C25.8681 6.90889 21.6354 3.91466 16.8885 3.91701H16.8856Z" fill="currentColor"/>
</svg>
