<svg viewBox="0 0 24 24" fill="none" xmlns="http://www.w3.org/2000/svg">
<path d="M18 3.322C18 6.459 13.331 9.882 12 10.5C10.669 9.883 6 6.46 6 3.322C6 1.487 7.447 0 9.231 0C10.406 0 11.286 0.758 12 1.61C12.714 0.758 13.594 0 14.769 0C16.553 0 18 1.487 18 3.322Z" fill="currentColor"/>
<path d="M5.5 15.5C7.15685 15.5 8.5 14.1569 8.5 12.5C8.5 10.8431 7.15685 9.5 5.5 9.5C3.84315 9.5 2.5 10.8431 2.5 12.5C2.5 14.1569 3.84315 15.5 5.5 15.5Z" fill="currentColor"/>
<path d="M5.5 17C2.467 17 0 19.467 0 22.5V24H11V22.5C11 19.467 8.533 17 5.5 17Z" fill="currentColor"/>
<path d="M24 22.5C24 19.467 21.533 17 18.5 17C15.467 17 13 19.467 13 22.5V24H24V22.5Z" fill="currentColor"/>
<path d="M18.5 15.5C20.1569 15.5 21.5 14.1569 21.5 12.5C21.5 10.8431 20.1569 9.5 18.5 9.5C16.8431 9.5 15.5 10.8431 15.5 12.5C15.5 14.1569 16.8431 15.5 18.5 15.5Z" fill="currentColor"/>
</svg>
