<svg viewBox="0 0 16 16" fill="none" xmlns="http://www.w3.org/2000/svg">
<path d="M11.917 8C11.917 7.00591 12.4246 6.08888 13.25 5.55762V4.00391H2.75V5.55762C3.57422 6.08847 4.083 7.00466 4.08301 8C4.08301 8.99487 3.57468 9.91035 2.75 10.4414V12.0078H13.25V10.4424C12.4253 9.91125 11.917 8.99445 11.917 8ZM14.75 5.84277C14.75 6.22086 14.5377 6.56274 14.2061 6.73438L14.1777 6.75098L14.1758 6.75195C13.7098 6.99366 13.417 7.47476 13.417 8C13.417 8.46645 13.6474 8.8981 14.0244 9.1582L14.1943 9.25879L14.1963 9.25977C14.5302 9.42808 14.75 9.77196 14.75 10.1572V12.0908L14.7432 12.2363C14.6704 12.9503 14.0662 13.5078 13.333 13.5078H2.66699C1.93381 13.5078 1.3296 12.9503 1.25684 12.2363L1.25 12.0908V10.1572C1.25005 9.77563 1.4658 9.42976 1.80273 9.25977L1.80566 9.25879C2.28262 9.02053 2.58301 8.53333 2.58301 8C2.583 7.46708 2.28236 6.97964 1.80566 6.74121L1.80273 6.74023C1.4658 6.57023 1.25003 6.22438 1.25 5.84277V3.9209C1.25 3.13868 1.88478 2.50391 2.66699 2.50391H13.333C14.1152 2.50391 14.75 3.13869 14.75 3.9209V5.84277Z" fill="currentColor"/>
<path d="M9.08952 5.8498C9.38235 5.55696 9.85716 5.55707 10.1501 5.8498C10.443 6.1427 10.443 6.61746 10.1501 6.91035L6.81705 10.2434C6.52416 10.5363 6.0494 10.5363 5.75651 10.2434C5.46378 9.95045 5.46367 9.47565 5.75651 9.18281L9.08952 5.8498Z" fill="currentColor"/>
<path d="M9.66642 8.75035L9.75919 8.75425C10.2207 8.80078 10.5832 9.18996 10.5834 9.66636C10.5834 10.1726 10.1726 10.5834 9.66642 10.5834C9.16036 10.5832 8.7504 10.1725 8.7504 9.66636C8.74987 9.18441 9.12049 8.79519 9.58732 8.75523C9.61324 8.75252 9.63978 8.75035 9.66642 8.75035Z" fill="currentColor"/>
<path d="M6.33305 5.41702L6.42582 5.42093C6.88728 5.46745 7.24987 5.85663 7.25004 6.33303C7.25004 6.83925 6.83926 7.25003 6.33305 7.25003C5.82698 7.24985 5.41703 6.83914 5.41703 6.33303C5.41649 5.85108 5.78711 5.46186 6.25394 5.4219C6.27987 5.41919 6.30641 5.41702 6.33305 5.41702Z" fill="currentColor"/>
</svg>
