<svg viewBox="0 0 16 16" fill="none" xmlns="http://www.w3.org/2000/svg">
<path d="M9.66337 4.58302C11.1804 4.58302 12.0831 5.963 12.0833 7.13184C12.0833 7.77213 11.8309 8.3387 11.5169 8.79786C11.2021 9.2582 10.7962 9.65426 10.4134 9.97071C10.0277 10.2896 9.6434 10.5454 9.35283 10.7217C9.2071 10.8101 9.08113 10.8806 8.98661 10.9307C8.94023 10.9552 8.89759 10.9771 8.86161 10.9941C8.8446 11.0022 8.82183 11.0127 8.79814 11.0225C8.78706 11.027 8.76591 11.0355 8.74052 11.044C8.72791 11.0481 8.70505 11.0548 8.67704 11.0615C8.65923 11.0658 8.58933 11.083 8.49931 11.083C8.40879 11.0829 8.3385 11.0656 8.32158 11.0615C8.29401 11.0548 8.27154 11.0481 8.25908 11.044C8.2338 11.0355 8.21243 11.027 8.20146 11.0225C8.17778 11.0127 8.15494 11.0022 8.13798 10.9941C8.10194 10.977 8.05847 10.9553 8.012 10.9307C7.91759 10.8807 7.79209 10.8099 7.64677 10.7217C7.35628 10.5454 6.9717 10.2894 6.58622 9.97071C6.20356 9.65432 5.79741 9.25802 5.48271 8.79786C5.16882 8.33875 4.91634 7.77201 4.9163 7.13184C4.91647 5.96321 5.8187 4.58351 7.33525 4.58302C7.81024 4.58302 8.19559 4.72114 8.49931 4.90333C8.80311 4.72095 9.18822 4.58315 9.66337 4.58302ZM9.66337 6.08302C9.37005 6.08323 9.18679 6.21914 9.06865 6.35645C8.92631 6.52199 8.71859 6.61701 8.50029 6.6172C8.28213 6.61724 8.07443 6.52262 7.93193 6.35743C7.81233 6.21891 7.6279 6.08302 7.33525 6.08302C6.8555 6.08356 6.41647 6.56656 6.4163 7.13184C6.41634 7.37127 6.51196 7.64539 6.72099 7.95118C6.92941 8.25591 7.22328 8.5507 7.54228 8.81446C7.85821 9.0756 8.17984 9.29062 8.42509 9.43946C8.45029 9.45475 8.47607 9.46776 8.49931 9.48145C8.52285 9.46756 8.54893 9.45497 8.5745 9.43946C8.81984 9.29059 9.14115 9.0758 9.45732 8.81446C9.77652 8.55058 10.0701 8.25609 10.2786 7.95118C10.4878 7.64525 10.5833 7.37136 10.5833 7.13184C10.5831 6.56624 10.1434 6.08302 9.66337 6.08302Z" fill="currentColor"/>
<path d="M8.44462 0.583992C11.4009 0.582894 14.0373 2.44628 15.0198 5.23536L15.1067 5.49805C15.9464 8.21724 15.0464 11.1879 12.8147 12.9834C10.608 14.7585 7.55941 15.013 5.09794 13.6631L2.2581 14.7041C1.984 14.8044 1.67646 14.7366 1.47001 14.5303C1.2636 14.3239 1.19593 14.0163 1.29618 13.7422L2.33525 10.9014C1.18412 8.80975 1.18139 6.26196 2.35087 4.16016C3.58147 1.94887 5.91516 0.57928 8.4456 0.583015L8.44462 0.583992ZM8.44365 2.08302C6.45835 2.08008 4.62692 3.15469 3.66142 4.88966C2.69607 6.62466 2.74812 8.74748 3.79716 10.4326C3.91916 10.6286 3.94477 10.8701 3.86552 11.0869L3.26005 12.7393L4.9124 12.1348L4.99443 12.1104C5.18813 12.0637 5.39436 12.095 5.56572 12.2012L5.75224 12.3125C7.69532 13.4131 10.124 13.2234 11.8753 11.8145C13.6264 10.4053 14.332 8.07417 13.6731 5.94044L13.6048 5.73438C12.8339 3.54557 10.764 2.08194 8.44365 2.08302Z" fill="currentColor"/>
</svg>
