<svg viewBox="0 0 16 16" fill="none" xmlns="http://www.w3.org/2000/svg">
<path d="M4.1363 4.13642C4.42919 3.84353 4.90406 3.84352 5.19696 4.13642L7.99996 6.93942L10.803 4.13642C11.0959 3.84353 11.5707 3.84352 11.8636 4.13642C12.1565 4.42931 12.1565 4.90418 11.8636 5.19708L9.06062 8.00008L11.8636 10.8031C12.1565 11.096 12.1565 11.5709 11.8636 11.8637C11.5707 12.1566 11.0959 12.1566 10.803 11.8637L7.99996 9.06074L5.19696 11.8637C4.90406 12.1566 4.42919 12.1566 4.1363 11.8637C3.8434 11.5709 3.8434 11.096 4.1363 10.8031L6.9393 8.00008L4.1363 5.19708C3.8434 4.90419 3.8434 4.42931 4.1363 4.13642Z" fill="currentColor"/>
</svg>
