<svg viewBox="0 0 32 32" fill="none" xmlns="http://www.w3.org/2000/svg">
<path d="M8.27271 8.27259C8.8585 7.68681 9.80825 7.6868 10.394 8.27259L16 13.8786L21.606 8.27259C22.1918 7.68681 23.1416 7.68681 23.7274 8.27259C24.3132 8.85838 24.3132 9.80813 23.7274 10.3939L18.1214 15.9999L23.7274 21.6059C24.3132 22.1917 24.3132 23.1415 23.7274 23.7272C23.1416 24.313 22.1918 24.313 21.606 23.7272L16 18.1212L10.394 23.7272C9.80825 24.313 8.8585 24.313 8.27271 23.7272C7.68693 23.1415 7.68693 22.1917 8.27271 21.6059L13.8787 15.9999L8.27271 10.3939C7.68693 9.80813 7.68693 8.85838 8.27271 8.27259Z" fill="currentColor"/>
</svg>
