<svg viewBox="0 0 24 24" fill="none" xmlns="http://www.w3.org/2000/svg">
<path d="M8.99231 4.09619C8.67759 4.19403 8.38943 4.36403 8.15436 4.59424L5.59277 7.104C5.43525 7.25826 5.30772 7.43467 5.21082 7.62451H7.94974C8.52562 7.6243 8.99225 7.1568 8.99231 6.57959V4.09619ZM19.0023 11.4771C19.5488 11.4771 19.9919 11.9173 19.999 12.4634C20.803 12.75 21.5628 13.3696 21.8821 14.2046C22.0793 14.7203 21.7296 15.299 21.215 15.4966C20.7005 15.6941 20.1231 15.4361 19.9259 14.9204C19.787 14.5572 19.4276 14.3009 19.0081 14.2896L19.0023 14.2905C18.9977 14.2905 18.9932 14.2896 18.9886 14.2896C18.9638 14.2893 18.9388 14.287 18.9136 14.2886C18.895 14.2897 18.8765 14.2885 18.8581 14.2886C18.471 14.3352 18.1688 14.6197 18.0961 14.9702C18.117 15.1901 18.2655 15.3274 18.4001 15.356L20.0156 15.6968C21.1505 15.9364 21.9998 16.9659 22 18.0923C22 18.1323 21.998 18.1727 21.9932 18.2124C21.8582 19.3346 20.9944 20.2099 19.9981 20.5601C19.9839 21.0999 19.5443 21.5337 19.0023 21.5337C18.4554 21.5336 18.011 21.092 18.0045 20.5454C17.2012 20.2585 16.5337 19.6397 16.2146 18.8052C16.0177 18.2896 16.2752 17.7118 16.7895 17.5142C17.3039 17.3166 17.8813 17.5738 18.0786 18.0894C18.2278 18.4797 18.6317 18.7493 19.0909 18.7212C19.1095 18.7201 19.1281 18.7203 19.1465 18.7202C19.5337 18.6736 19.8349 18.3903 19.9074 18.0396C19.8862 17.8197 19.7386 17.6822 19.6044 17.6538L17.9889 17.313C16.8543 17.0733 16.0967 16.0442 16.0967 14.9175C16.0967 14.8777 16.0988 14.8379 16.1035 14.7983C16.2385 13.6765 17.0097 12.8011 18.0055 12.4507C18.0193 11.9105 18.46 11.4772 19.0023 11.4771ZM9.48533 16.0044C10.0362 16.0044 10.4828 16.4523 10.4831 17.0044C10.4831 17.5567 10.0364 18.0044 9.48533 18.0044H7.98872C7.43769 18.0044 6.99097 17.5567 6.99097 17.0044C6.99123 16.4523 7.43785 16.0044 7.98872 16.0044H9.48533ZM10.2336 13.0005C10.7847 13.0005 11.2314 13.4482 11.2314 14.0005C11.2312 14.5526 10.7846 15.0005 10.2336 15.0005H7.98872C7.43781 15.0005 6.99118 14.5526 6.99097 14.0005C6.99097 13.4482 7.43769 13.0005 7.98872 13.0005H10.2336ZM18.0045 9.00049V6.00049C18.0045 4.91502 17.1055 4.00066 15.9457 4.00049H10.9878V6.57959C10.9877 8.26137 9.62769 9.6243 7.94974 9.62451H4.99549V18.0015L5.00523 18.2075C5.10417 19.2221 5.92934 20.0015 6.99097 20.0015L14.0127 19.9914C14.5637 19.9914 15.0104 20.4392 15.0105 20.9914C15.0105 21.5437 14.5638 21.9914 14.0127 21.9914L6.99097 22.0015C4.80995 22.0015 3.10893 20.3129 3.00487 18.2065L3 18.0015V8.51025C3 7.4419 3.43352 6.42159 4.19749 5.67334L6.76005 3.16357C7.52331 2.4162 8.55408 2.00049 9.62369 2.00049H15.9457C18.1693 2.00066 20 3.77248 20 6.00049V9.00049C19.9998 9.55259 19.5532 10.0005 19.0023 10.0005C18.4514 10.0005 18.0047 9.55259 18.0045 9.00049Z" fill="currentColor"/>
</svg>
