<svg viewBox="0 0 16 16" fill="none" xmlns="http://www.w3.org/2000/svg">
<path d="M5.48535 10.5039C5.90528 10.5467 6.23323 10.9018 6.2334 11.333C6.2334 11.7932 5.85965 12.167 5.39941 12.167C4.96832 12.1667 4.61314 11.8388 4.57031 11.4189L4.56641 11.333L4.57031 11.248C4.61299 10.828 4.96821 10.5003 5.39941 10.5L5.48535 10.5039Z" fill="currentColor"/>
<path d="M10.7432 10.5869C11.1214 10.6252 11.4168 10.9448 11.417 11.333C11.417 11.7214 11.1214 12.0408 10.7432 12.0791L10.667 12.083H8C7.58579 12.083 7.25 11.7472 7.25 11.333C7.25018 10.9189 7.5859 10.583 8 10.583H10.667L10.7432 10.5869Z" fill="currentColor"/>
<path d="M5.48535 7.83691C5.90521 7.87974 6.23311 8.23493 6.2334 8.66602C6.2334 9.12625 5.85965 9.5 5.39941 9.5C4.96832 9.49971 4.61314 9.17181 4.57031 8.75195L4.56641 8.66602L4.57031 8.58105C4.61309 8.16115 4.96829 7.8333 5.39941 7.83301L5.48535 7.83691Z" fill="currentColor"/>
<path d="M10.7432 7.91992C11.1213 7.95821 11.4167 8.27787 11.417 8.66602C11.417 9.05438 11.1214 9.37376 10.7432 9.41211L10.667 9.41602H8C7.58579 9.41602 7.25 9.08023 7.25 8.66602C7.25031 8.25206 7.58598 7.91602 8 7.91602H10.667L10.7432 7.91992Z" fill="currentColor"/>
<path d="M10.0244 1.26367C10.6538 1.32624 11.2461 1.60448 11.6973 2.05566L13.2783 3.63672L13.4609 3.83789C13.8619 4.32724 14.084 4.94286 14.084 5.58105V12C14.084 13.5186 12.8525 14.7497 11.334 14.75H4.66699C3.14821 14.75 1.91699 13.5188 1.91699 12V4C1.91699 2.48122 3.14821 1.25 4.66699 1.25H9.75293L10.0244 1.26367ZM4.66699 2.75C3.97664 2.75 3.41699 3.30964 3.41699 4V12C3.41699 12.6904 3.97664 13.25 4.66699 13.25H11.334C12.0241 13.2497 12.584 12.6902 12.584 12V6.41699H11C9.84956 6.41682 8.91699 5.48349 8.91699 4.33301V2.75H4.66699ZM10.417 4.33301C10.417 4.65507 10.678 4.91682 11 4.91699H12.3916C12.3639 4.8728 12.3341 4.82971 12.3008 4.78906L12.2178 4.69727L10.6367 3.11621C10.57 3.04947 10.4957 2.99185 10.417 2.94238V4.33301Z" fill="currentColor"/>
</svg>
