<svg viewBox="0 0 32 32" fill="none" xmlns="http://www.w3.org/2000/svg">
<path d="M10.9453 21.2568C11.6595 21.3296 12.2168 21.9336 12.2168 22.667C12.2166 23.449 11.5827 24.0826 10.8008 24.083C10.0673 24.083 9.46318 23.5259 9.39062 22.8115L9.38379 22.667L9.39062 22.5215C9.46333 21.8073 10.0674 21.25 10.8008 21.25L10.9453 21.2568Z" fill="currentColor"/>
<path d="M21.4609 21.4229C22.0914 21.4868 22.583 22.0197 22.583 22.667C22.5828 23.3141 22.0912 23.8462 21.4609 23.9102L21.333 23.917H16C15.3098 23.917 14.7502 23.3572 14.75 22.667C14.75 21.9766 15.3096 21.417 16 21.417H21.333L21.4609 21.4229Z" fill="currentColor"/>
<path d="M10.9453 15.9238C11.6594 15.9966 12.2168 16.6006 12.2168 17.334C12.2165 18.1159 11.5826 18.7496 10.8008 18.75C10.0674 18.75 9.46329 18.1928 9.39062 17.4785L9.38379 17.334L9.39062 17.1885C9.4633 16.4743 10.0674 15.917 10.8008 15.917L10.9453 15.9238Z" fill="currentColor"/>
<path d="M21.4609 16.0898C22.0914 16.1538 22.583 16.6867 22.583 17.334C22.5827 17.981 22.0912 18.5132 21.4609 18.5771L21.333 18.584H16C15.3098 18.584 14.7503 18.0241 14.75 17.334C14.75 16.6436 15.3096 16.084 16 16.084H21.333L21.4609 16.0898Z" fill="currentColor"/>
<path d="M19.7646 2.75684C21.0621 2.82126 22.2938 3.36518 23.2168 4.28809L26.3789 7.4502L26.5586 7.63867C27.4304 8.60167 27.916 9.85691 27.916 11.1621V24C27.916 26.8995 25.5655 29.25 22.666 29.25H9.33301C6.43362 29.2499 4.08301 26.8994 4.08301 24V8C4.08301 5.10059 6.43362 2.75013 9.33301 2.75H19.5039L19.7646 2.75684ZM9.33301 5.25C7.81434 5.25013 6.58301 6.4813 6.58301 8V24C6.58301 25.5187 7.81434 26.7499 9.33301 26.75H22.666C24.1848 26.75 25.416 25.5188 25.416 24V12.583H22C19.8371 12.5829 18.0832 10.8299 18.083 8.66699V5.25H9.33301ZM20.583 8.66699C20.5832 9.44916 21.2178 10.0829 22 10.083H25.1934C25.0921 9.84535 24.9594 9.62087 24.7939 9.41895L24.6113 9.21777L21.4482 6.05566C21.1975 5.80498 20.9028 5.60923 20.583 5.47266V8.66699Z" fill="currentColor"/>
</svg>
