<svg viewBox="0 0 24 24" fill="none" xmlns="http://www.w3.org/2000/svg">
<path d="M7 15C7.55228 15 8 15.4477 8 16V18.5859L8.29297 18.293L8.36914 18.2246C8.76191 17.9043 9.34092 17.9269 9.70703 18.293C10.0731 18.6591 10.0957 19.2381 9.77539 19.6309L9.70703 19.707L7.70703 21.707C7.65922 21.7548 7.60646 21.7976 7.5498 21.835C7.52417 21.8519 7.49746 21.8666 7.4707 21.8809C7.45807 21.8876 7.44547 21.8942 7.43262 21.9004C7.3874 21.9222 7.34068 21.9412 7.29199 21.9561C7.27723 21.9605 7.26198 21.963 7.24707 21.9668C7.23626 21.9695 7.22572 21.9732 7.21484 21.9756C7.20867 21.9769 7.2025 21.9783 7.19629 21.9795C7.1892 21.9809 7.18192 21.9812 7.1748 21.9824C7.15689 21.9856 7.13912 21.989 7.12109 21.9912C7.10522 21.9931 7.08933 21.9949 7.07324 21.9961C7.05566 21.9974 7.03812 21.9987 7.02051 21.999C7.01368 21.9992 7.00686 22 7 22C6.99314 22 6.98632 21.9992 6.97949 21.999C6.9635 21.9987 6.9476 21.9972 6.93164 21.9961C6.9146 21.9949 6.89766 21.9942 6.88086 21.9922C6.86056 21.9898 6.84046 21.9861 6.82031 21.9824C6.81478 21.9814 6.80923 21.9806 6.80371 21.9795H6.79883C6.79682 21.9791 6.79497 21.978 6.79297 21.9775C6.77791 21.9744 6.76297 21.9707 6.74805 21.9668C6.73438 21.9632 6.72057 21.9602 6.70703 21.9561C6.65838 21.9412 6.61159 21.9222 6.56641 21.9004C6.55371 21.8943 6.5408 21.8885 6.52832 21.8818C6.51688 21.8757 6.50636 21.8679 6.49512 21.8613C6.48019 21.8526 6.46475 21.8446 6.4502 21.835C6.39354 21.7976 6.34078 21.7548 6.29297 21.707L4.29297 19.707L4.22461 19.6309C3.90426 19.2381 3.92685 18.6591 4.29297 18.293C4.65908 17.9269 5.23809 17.9043 5.63086 18.2246L5.70703 18.293L6 18.5859V16C6 15.4477 6.44772 15 7 15Z" fill="currentColor"/>
<path d="M14.6895 2.00488C15.6779 2.05403 16.6162 2.46871 17.3193 3.17188L19.8281 5.68066L19.9648 5.82422C20.6295 6.55803 21 7.51503 21 8.50977V18C21 20.2091 19.2091 22 17 22H13C12.4477 22 12 21.5523 12 21C12 20.4477 12.4477 20 13 20H17C18.1046 20 19 19.1046 19 18V9.5H16.5C14.8431 9.5 13.5 8.15685 13.5 6.5V4H7C5.89543 4 5 4.89543 5 6V13C5 13.5523 4.55228 14 4 14C3.44772 14 3 13.5523 3 13V6C3 3.79086 4.79086 2 7 2H14.5098L14.6895 2.00488ZM15.5 6.5C15.5 7.05228 15.9477 7.5 16.5 7.5H18.7246C18.672 7.41011 18.6134 7.32341 18.5469 7.24219L18.4141 7.09473L15.9053 4.58594C15.783 4.46367 15.6469 4.35822 15.5 4.27246V6.5Z" fill="currentColor"/>
</svg>
