<svg viewBox="0 0 32 32" fill="none" xmlns="http://www.w3.org/2000/svg">
<path d="M21.4619 21.4229C22.0919 21.4872 22.584 22.02 22.584 22.667C22.5838 23.3138 22.0918 23.8458 21.4619 23.9102L21.334 23.917H10.667C9.97674 23.917 9.41717 23.3572 9.41699 22.667C9.41699 21.9766 9.97664 21.417 10.667 21.417H21.334L21.4619 21.4229Z" fill="currentColor"/>
<path d="M21.4619 16.7559C22.0918 16.8201 22.5838 17.3532 22.584 18C22.5838 18.6468 22.0918 19.1788 21.4619 19.2432L21.334 19.25H10.667C9.97675 19.25 9.41717 18.6902 9.41699 18C9.41719 17.3098 9.97676 16.75 10.667 16.75H21.334L21.4619 16.7559Z" fill="currentColor"/>
<path d="M14.7949 12.0898C15.4251 12.154 15.917 12.6869 15.917 13.334C15.9166 13.9808 15.4249 14.513 14.7949 14.5771L14.667 14.584H10.667C9.97687 14.584 9.41737 14.024 9.41699 13.334C9.41699 12.6436 9.97664 12.084 10.667 12.084H14.667L14.7949 12.0898Z" fill="currentColor"/>
<path d="M19.7646 2.75684C21.0621 2.82126 22.2938 3.36518 23.2168 4.28809L26.3789 7.4502L26.5586 7.63867C27.4304 8.60167 27.916 9.85691 27.916 11.1621V24C27.916 26.8995 25.5655 29.25 22.666 29.25H9.33301C6.43362 29.2499 4.08301 26.8994 4.08301 24V8C4.08301 5.10059 6.43363 2.75013 9.33301 2.75H19.5039L19.7646 2.75684ZM9.33301 5.25C7.81434 5.25013 6.58301 6.4813 6.58301 8V24C6.58301 25.5187 7.81434 26.7499 9.33301 26.75H22.666C24.1848 26.75 25.416 25.5188 25.416 24V12.583H22C19.9046 12.5829 18.1928 10.9376 18.0879 8.86816L18.083 8.66699V5.25H9.33301ZM20.583 8.66699L20.5898 8.81152C20.6624 9.52582 21.2666 10.0829 22 10.083H25.1934C25.0921 9.84535 24.9594 9.62087 24.7939 9.41895L24.6113 9.21777L21.4482 6.05566C21.1975 5.80498 20.9028 5.60923 20.583 5.47266V8.66699Z" fill="currentColor"/>
</svg>
