<svg viewBox="0 0 32 32" fill="none" xmlns="http://www.w3.org/2000/svg">
<path d="M11.9951 5.2002C11.6814 5.32727 11.3944 5.51425 11.1523 5.75195L7.73911 9.10352C7.48707 9.35111 7.29633 9.64391 7.17008 9.95996H10.7703C11.4466 9.95995 11.995 9.41015 11.9951 8.73242V5.2002ZM25.4598 15.0066C26.2414 15.0067 26.8823 15.6079 26.9496 16.3738C28.0181 16.7875 28.9013 17.6279 29.3309 18.7517C29.6266 19.5252 29.2413 20.3927 28.4696 20.6892C27.6978 20.9857 26.8323 20.5985 26.5365 19.825C26.38 19.4158 25.9774 19.1155 25.4988 19.0886C25.4858 19.089 25.4729 19.0916 25.4598 19.0916C25.4383 19.0916 25.4168 19.0886 25.3955 19.0877C25.3809 19.088 25.3663 19.0887 25.3517 19.0896C25.329 19.091 25.306 19.0892 25.2835 19.0896C24.8452 19.1437 24.5077 19.4603 24.4182 19.8445C24.4182 20.0469 24.5925 20.2625 24.691 20.2834L26.8444 20.7375C28.4403 21.0744 29.5004 22.6711 29.5005 24.2461C29.5005 24.3061 29.4969 24.3662 29.4898 24.4258C29.3065 25.9494 28.282 27.1466 26.9477 27.6572C26.8694 28.4118 26.2334 28.9999 25.4598 29C24.6778 29 24.036 28.3991 23.969 27.6328C22.9008 27.219 22.0173 26.3794 21.5877 25.2559C21.2921 24.4824 21.6783 23.6148 22.45 23.3184C23.2217 23.0222 24.0874 23.4092 24.3831 24.1826C24.5385 24.5888 24.9361 24.8865 25.4101 24.917C25.4265 24.9165 25.4433 24.915 25.4598 24.915C25.485 24.915 25.51 24.9167 25.5348 24.918C25.5457 24.9176 25.557 24.9186 25.568 24.918C25.5924 24.9165 25.6168 24.9173 25.641 24.917C26.0769 24.8608 26.4107 24.545 26.4995 24.1621C26.4995 23.9414 26.3256 23.7449 26.2276 23.7242L24.0743 23.2701C22.4787 22.9333 21.4191 21.337 21.4191 19.7615C21.4191 19.7015 21.4227 19.6413 21.4299 19.5818C21.6132 18.0583 22.6367 16.8599 23.971 16.3494C24.0496 15.5951 24.6864 15.0066 25.4598 15.0066ZM12.5108 22.0061C13.337 22.0064 14.0072 22.678 14.0074 23.5061C14.0074 24.3344 13.3371 25.0059 12.5108 25.0061H10.4858C9.65928 25.0061 8.98922 24.3345 8.98922 23.5061C8.98941 22.6779 9.6594 22.0061 10.4858 22.0061H12.5108ZM13.5086 17.0003C14.3349 17.0005 15.0052 17.672 15.0052 18.5003C15.005 19.3284 14.3348 20 13.5086 20.0003H10.4858C9.65936 20.0003 8.98935 19.3286 8.98922 18.5003C8.98922 17.6718 9.65928 17.0003 10.4858 17.0003H13.5086ZM24.0175 10.5146V7.51367C24.0175 6.24265 23.0261 5.15179 21.7024 5.02051L21.4335 5.00684H14.9884V8.73242C14.9883 11.067 13.0997 12.9599 10.7703 12.96H6.99373V24.5403C6.99373 25.8959 8.12182 27.0471 9.57773 27.0471H18.5034C19.3299 27.0471 20 27.7187 20 28.5471C20 29.3756 19.3299 30.0471 18.5034 30.0471H9.57773C6.5267 30.0471 4.00049 27.6103 4.00049 24.5403V10.8652L4.00731 10.5898C4.07661 9.22031 4.6617 7.92573 5.64521 6.95996L9.05742 3.60938C10.1055 2.58024 11.5207 2.00693 12.9899 2.00684H21.4335L21.718 2.01367C24.6402 2.15936 27.0108 4.53947 27.0108 7.51367V10.5146C27.0108 11.3431 26.3407 12.0146 25.5141 12.0146C24.6876 12.0146 24.0175 11.3431 24.0175 10.5146Z" fill="currentColor"/>
</svg>
