<svg viewBox="0 0 16 16" fill="none" xmlns="http://www.w3.org/2000/svg">
<path d="M4.66602 9.91699C5.08023 9.91699 5.41602 10.2528 5.41602 10.667V12.1904L5.46973 12.1367C5.76257 11.8439 6.23737 11.844 6.53027 12.1367C6.82292 12.4296 6.82309 12.9045 6.53027 13.1973L5.19727 14.5303C5.16925 14.5583 5.13747 14.5809 5.10645 14.6035C5.09954 14.6086 5.09395 14.6153 5.08691 14.6201C5.07643 14.6272 5.06456 14.6321 5.05371 14.6387C5.02273 14.6575 4.99182 14.6755 4.95898 14.6895C4.95737 14.6901 4.95572 14.6907 4.9541 14.6914C4.93949 14.6975 4.92408 14.701 4.90918 14.7061C4.88102 14.7157 4.85313 14.7252 4.82422 14.7314C4.82091 14.7322 4.81778 14.7337 4.81445 14.7344C4.80894 14.7355 4.80339 14.7363 4.79785 14.7373C4.77063 14.7421 4.74299 14.7453 4.71484 14.7471C4.70507 14.7477 4.69533 14.7478 4.68555 14.748C4.67969 14.7482 4.67386 14.749 4.66797 14.749H4.66602C4.63424 14.749 4.60301 14.747 4.57227 14.7432C4.56833 14.7427 4.56447 14.7418 4.56055 14.7412C4.55171 14.74 4.54291 14.7389 4.53418 14.7373C4.52865 14.7363 4.52309 14.7355 4.51758 14.7344C4.50654 14.7321 4.49621 14.7273 4.48535 14.7246C4.45696 14.7175 4.42894 14.7097 4.40137 14.6992C4.39491 14.6968 4.38823 14.695 4.38184 14.6924C4.37143 14.6881 4.36173 14.6825 4.35156 14.6777C4.32483 14.6653 4.29886 14.6515 4.27344 14.6357C4.25084 14.6217 4.22835 14.6074 4.20703 14.5908C4.2028 14.5875 4.19754 14.5854 4.19336 14.582L4.13574 14.5303L2.80273 13.1973L2.75098 13.1406C2.51074 12.8461 2.52836 12.4113 2.80273 12.1367C3.07733 11.8621 3.51206 11.8447 3.80664 12.085L3.86328 12.1367L3.91602 12.1895V10.667C3.91602 10.253 4.25206 9.9173 4.66602 9.91699Z" fill="currentColor"/>
<path d="M9.66699 1.25C9.69337 1.25001 9.71944 1.25124 9.74512 1.25391L9.93262 1.26367C10.562 1.32624 11.1543 1.60448 11.6055 2.05566L13.2783 3.72852L13.4609 3.92969C13.8619 4.41904 14.084 5.03466 14.084 5.67285V12C14.084 13.5186 12.8525 14.7497 11.334 14.75H8.66699C8.25278 14.75 7.91699 14.4142 7.91699 14C7.91699 13.5858 8.25278 13.25 8.66699 13.25H11.334C12.0241 13.2497 12.584 12.6902 12.584 12V6.41699H11C9.84956 6.41682 8.91699 5.48349 8.91699 4.33301V2.75H4.66699C3.97664 2.75 3.41699 3.30964 3.41699 4V8.66699C3.41682 9.08098 3.08099 9.41686 2.66699 9.41699C2.25289 9.41699 1.91717 9.08106 1.91699 8.66699V4C1.91699 2.48122 3.14821 1.25 4.66699 1.25H9.66699ZM10.417 4.33301C10.417 4.65507 10.678 4.91682 11 4.91699H12.3281C12.319 4.90498 12.3104 4.89256 12.3008 4.88086L12.2178 4.78906L10.5449 3.11621C10.5049 3.07616 10.4616 3.03979 10.417 3.00586V4.33301Z" fill="currentColor"/>
</svg>
