<svg viewBox="0 0 16 16" fill="none" xmlns="http://www.w3.org/2000/svg">
<path d="M10.7432 10.5869C11.1212 10.6254 11.4159 10.9449 11.416 11.333C11.416 11.7213 11.1213 12.0406 10.7432 12.0791L10.666 12.083H5.33301C4.91891 12.0829 4.58301 11.7471 4.58301 11.333C4.58318 10.919 4.91901 10.5831 5.33301 10.583H10.666L10.7432 10.5869Z" fill="currentColor"/>
<path d="M10.7432 8.25391C11.1212 8.29235 11.4159 8.61186 11.416 9C11.4158 9.3881 11.1212 9.70762 10.7432 9.74609L10.666 9.75H5.33301C4.91903 9.74987 4.58321 9.41396 4.58301 9C4.58318 8.58602 4.91901 8.25013 5.33301 8.25H10.666L10.7432 8.25391Z" fill="currentColor"/>
<path d="M7.41016 5.91992C7.78792 5.95851 8.08266 6.27815 8.08301 6.66602C8.08301 7.05417 7.78811 7.37347 7.41016 7.41211L7.33301 7.41602H5.33301C4.91891 7.41588 4.58301 7.08015 4.58301 6.66602C4.58338 6.2522 4.91914 5.91615 5.33301 5.91602H7.33301L7.41016 5.91992Z" fill="currentColor"/>
<path d="M10.0244 1.26367C10.6538 1.32624 11.2461 1.60448 11.6973 2.05566L13.2783 3.63672L13.4609 3.83789C13.8619 4.32724 14.084 4.94286 14.084 5.58105V12C14.084 13.5186 12.8525 14.7497 11.334 14.75H4.66699C3.14821 14.75 1.91699 13.5188 1.91699 12V4C1.91699 2.48122 3.14821 1.25 4.66699 1.25H9.75293L10.0244 1.26367ZM4.66699 2.75C3.97664 2.75 3.41699 3.30964 3.41699 4V12C3.41699 12.6904 3.97664 13.25 4.66699 13.25H11.334C12.0241 13.2497 12.584 12.6902 12.584 12V6.41699H11C9.84956 6.41682 8.91699 5.48349 8.91699 4.33301V2.75H4.66699ZM10.417 4.33301C10.417 4.65507 10.678 4.91682 11 4.91699H12.3916C12.3639 4.8728 12.3341 4.82971 12.3008 4.78906L12.2178 4.69727L10.6367 3.11621C10.57 3.04947 10.4957 2.99185 10.417 2.94238V4.33301Z" fill="currentColor"/>
</svg>
