<svg viewBox="0 0 32 32" fill="none" xmlns="http://www.w3.org/2000/svg">
<path d="M9.33398 20.083C10.024 20.0833 10.5839 20.643 10.584 21.333V24.9814L11.1162 24.4492C11.6043 23.9613 12.3957 23.9614 12.8838 24.4492C13.3717 24.9373 13.3717 25.7287 12.8838 26.2168L10.2354 28.8633C10.2291 28.8698 10.2241 28.8774 10.2178 28.8838C10.1579 28.9436 10.0923 28.9949 10.0244 29.04C10.0195 29.0433 10.0147 29.0466 10.0098 29.0498C9.99114 29.0618 9.97223 29.0731 9.95312 29.084C9.94072 29.0911 9.92868 29.0988 9.91602 29.1055C9.91228 29.1074 9.90805 29.1084 9.9043 29.1104L9.82031 29.1523C9.79941 29.1612 9.77732 29.1671 9.75586 29.1748C9.74304 29.1794 9.73071 29.1853 9.71777 29.1895C9.69663 29.1963 9.67494 29.2013 9.65332 29.207C9.63672 29.2114 9.62025 29.216 9.60352 29.2197C9.59573 29.2214 9.58792 29.223 9.58008 29.2246C9.56647 29.2273 9.55274 29.2292 9.53906 29.2314C9.52182 29.2343 9.50463 29.2371 9.4873 29.2393C9.46756 29.2417 9.44775 29.2436 9.42773 29.2451C9.40365 29.2469 9.37961 29.2486 9.35547 29.249C9.34832 29.2491 9.34117 29.25 9.33398 29.25L9.33301 29.249C9.32845 29.249 9.3239 29.2491 9.31934 29.249C9.29389 29.2487 9.26856 29.247 9.24316 29.2451C9.22318 29.2437 9.20331 29.2426 9.18359 29.2402C9.1643 29.2379 9.14517 29.2347 9.12598 29.2314C9.11199 29.2291 9.0979 29.2274 9.08398 29.2246C9.08035 29.2239 9.07687 29.2224 9.07324 29.2217C9.05223 29.2172 9.03154 29.2116 9.01074 29.2061C8.94852 29.1894 8.88808 29.1692 8.83008 29.1436C8.81291 29.136 8.79618 29.1275 8.7793 29.1191C8.76731 29.1132 8.755 29.1079 8.74316 29.1016C8.71586 29.0869 8.68947 29.0705 8.66309 29.0537C8.65707 29.0499 8.6505 29.0469 8.64453 29.043C8.64197 29.0413 8.63927 29.0398 8.63672 29.0381C8.62147 29.0278 8.60753 29.0158 8.59277 29.0049C8.54313 28.9682 8.49418 28.9287 8.44922 28.8838C8.4458 28.8804 8.44283 28.8765 8.43945 28.873L5.7832 26.2168L5.69727 26.1221C5.2968 25.6311 5.32555 24.9069 5.7832 24.4492C6.24088 23.9918 6.96517 23.9629 7.45605 24.3633L7.55078 24.4492L8.08398 24.9824V21.333C8.08412 20.6428 8.64371 20.083 9.33398 20.083Z" fill="currentColor"/>
<path d="M19.5811 2.75684C20.8785 2.82124 22.1102 3.36517 23.0332 4.28809L26.3789 7.63379L26.5586 7.82227C27.4304 8.78527 27.916 10.0405 27.916 11.3457V24C27.916 26.8995 25.5655 29.25 22.666 29.25H17.333C16.6428 29.2499 16.083 28.6903 16.083 28C16.083 27.3097 16.6428 26.7501 17.333 26.75H22.666C24.1848 26.75 25.416 25.5188 25.416 24V12.583H22C19.8371 12.5829 18.0832 10.8299 18.083 8.66699V5.25H9.33301C7.81434 5.25013 6.58301 6.4813 6.58301 8V17.333C6.58301 18.0234 6.02336 18.583 5.33301 18.583C4.64276 18.5829 4.08301 18.0233 4.08301 17.333V8C4.08301 5.10059 6.43362 2.75013 9.33301 2.75H19.3447L19.5811 2.75684ZM20.583 8.66699C20.5832 9.44916 21.2178 10.0829 22 10.083H25.1074C25.0198 9.91343 24.9161 9.75161 24.7939 9.60254L24.6113 9.40137L21.2646 6.05566C21.0628 5.85382 20.8319 5.68837 20.583 5.55957V8.66699Z" fill="currentColor"/>
</svg>
