<svg viewBox="0 0 16 16" fill="none" xmlns="http://www.w3.org/2000/svg">
<path d="M10.0244 1.26367C10.6538 1.32624 11.2461 1.60448 11.6973 2.05566L13.2783 3.63672L13.4609 3.83789C13.8619 4.32724 14.084 4.94286 14.084 5.58105V12C14.084 13.5186 12.8525 14.7497 11.334 14.75H4.66699C3.14821 14.75 1.91699 13.5188 1.91699 12V4C1.91699 2.48122 3.14821 1.25 4.66699 1.25H9.75293L10.0244 1.26367ZM4.66699 2.75C3.97664 2.75 3.41699 3.30964 3.41699 4V12C3.41699 12.6904 3.97664 13.25 4.66699 13.25H11.334C12.0241 13.2497 12.584 12.6902 12.584 12V6.41699H11C9.84956 6.41682 8.91699 5.48349 8.91699 4.33301V2.75H4.66699ZM10.417 4.33301C10.417 4.65507 10.678 4.91682 11 4.91699H12.3916C12.3639 4.8728 12.3341 4.82971 12.3008 4.78906L12.2178 4.69727L10.6367 3.11621C10.57 3.04947 10.4957 2.99185 10.417 2.94238V4.33301Z" fill="currentColor"/>
</svg>
