<svg viewBox="0 0 16 16" fill="none" xmlns="http://www.w3.org/2000/svg">
<path d="M5.74778 2.75773C5.68808 2.79897 5.6313 2.84448 5.57921 2.89542L3.87011 4.56827C3.74278 4.69292 3.64672 4.84086 3.58364 4.99991H5.13586C5.47388 4.99991 5.74757 4.72536 5.74778 4.38663V2.75773ZM12.7303 7.5673C13.121 7.56738 13.441 7.86807 13.4748 8.25089C14.0092 8.45768 14.4515 8.87831 14.6664 9.44034C14.814 9.82699 14.6205 10.26 14.2348 10.4081C13.8489 10.5563 13.4161 10.3632 13.2682 9.97647C13.1891 9.76983 12.9846 9.61989 12.742 9.60929C12.7381 9.60935 12.7342 9.61026 12.7303 9.61026C12.7206 9.61026 12.7107 9.60868 12.7011 9.60831H12.6465C12.4266 9.63362 12.2582 9.79152 12.2119 9.98331C12.2265 10.0889 12.2967 10.1457 12.3464 10.1562L13.4231 10.3827C14.2209 10.5513 14.7501 11.2742 14.7502 12.0614C14.7502 12.0914 14.7489 12.1216 14.7454 12.1513C14.6538 12.913 14.1409 13.5102 13.4738 13.7655C13.4354 14.1436 13.1176 14.4383 12.7303 14.4384C12.3393 14.4384 12.0183 14.138 11.9849 13.7548C11.4508 13.5479 11.009 13.1281 10.7942 12.5663C10.6465 12.1796 10.8391 11.7458 11.2249 11.5976C11.6108 11.4493 12.0436 11.6434 12.1915 12.0302C12.2777 12.2553 12.5131 12.4139 12.7839 12.3974C12.7946 12.3967 12.8055 12.3976 12.8161 12.3974C13.0347 12.3712 13.2005 12.2143 13.2467 12.0233C13.2321 11.9177 13.1637 11.8609 13.1142 11.8505L12.0375 11.6239C11.2398 11.4555 10.7095 10.7328 10.7094 9.94522C10.7094 9.91526 10.7117 9.88513 10.7153 9.85538C10.8069 9.09357 11.3187 8.49447 11.9859 8.23917C12.0251 7.86187 12.3435 7.5673 12.7303 7.5673ZM6.24083 10.4999C6.65404 10.5 6.98914 10.8358 6.98916 11.2499C6.98916 11.6641 6.65405 11.9998 6.24083 11.9999H5.24304C4.82975 11.9999 4.4947 11.6641 4.4947 11.2499C4.49473 10.8357 4.82976 10.4999 5.24304 10.4999H6.24083ZM6.73972 8.24991C7.15293 8.24999 7.48803 8.58577 7.48805 8.99991C7.48805 9.41408 7.15295 9.74983 6.73972 9.74991H5.24304C4.82975 9.74991 4.4947 9.41413 4.4947 8.99991C4.49473 8.58572 4.82976 8.24991 5.24304 8.24991H6.73972ZM12.0034 5.49414V3.74414C12.0034 3.07032 11.4402 2.49414 10.7084 2.49414L7.24445 2.51847V4.38663C7.24425 5.55378 6.30047 6.49991 5.13586 6.49991H3.49692V12.2528C3.49708 12.9265 4.06025 13.5028 4.79189 13.5028L9.25557 13.5028C9.66865 13.5031 10.0039 13.8388 10.0039 14.2528C10.0037 14.6668 9.66855 15.0026 9.25557 15.0028L4.79189 15.0028C3.26704 15.0028 2.00041 13.788 2.00024 12.2528V5.4462L2.01389 5.17276C2.07815 4.53915 2.36412 3.946 2.82361 3.49601L4.53271 1.82316C5.05642 1.31048 5.76298 1.02547 6.49612 1.02433L10.7045 0.994141H10.7084C12.2334 0.994141 13.5001 2.20883 13.5001 3.74414V5.49414C13.5001 5.90828 13.1649 6.24401 12.7518 6.24414C12.3385 6.24414 12.0034 5.90835 12.0034 5.49414Z" fill="currentColor"/>
</svg>
