<svg viewBox="0 0 24 24" fill="none" xmlns="http://www.w3.org/2000/svg">
<path d="M14.8271 2.00488C15.8156 2.05404 16.7539 2.46872 17.457 3.17188L19.8281 5.54297L19.9648 5.68652C20.6295 6.42034 21 7.37732 21 8.37207V18C21 20.2091 19.2091 22 17 22H7C4.79086 22 3 20.2091 3 18V6C3 3.79086 4.79086 2 7 2H14.6279L14.8271 2.00488ZM7 4C5.89543 4 5 4.89543 5 6V18C5 19.1046 5.89543 20 7 20H17C18.1046 20 19 19.1046 19 18V9.5H16.5C14.8431 9.5 13.5 8.15685 13.5 6.5V4H7ZM15.5 6.5C15.5 7.05228 15.9477 7.5 16.5 7.5H18.7979C18.7298 7.35967 18.6467 7.22634 18.5469 7.10449L18.4141 6.95703L16.043 4.58594C15.8833 4.42627 15.6996 4.29579 15.5 4.19922V6.5Z" fill="currentColor"/>
</svg>
