<svg viewBox="0 0 24 24" fill="none" xmlns="http://www.w3.org/2000/svg">
<path d="M8.20605 15.8809C8.77765 15.9343 9.22559 16.4144 9.22559 17C9.22559 17.6212 8.72168 18.1247 8.10059 18.125C7.47927 18.125 6.97559 17.6213 6.97559 17C6.97559 16.4146 7.42278 15.9345 7.99414 15.8809C8.02897 15.8772 8.06479 15.875 8.10059 15.875C8.13605 15.875 8.17154 15.8772 8.20605 15.8809Z" fill="currentColor"/>
<path d="M16.1025 16.0049C16.6067 16.0562 17 16.4823 17 17C17 17.5177 16.6067 17.9438 16.1025 17.9951L16 18H12C11.4477 18 11 17.5523 11 17C11 16.4477 11.4477 16 12 16H16L16.1025 16.0049Z" fill="currentColor"/>
<path d="M8.20605 11.8809C8.77765 11.9343 9.22559 12.4144 9.22559 13C9.22559 13.6212 8.72168 14.1247 8.10059 14.125C7.47927 14.125 6.97559 13.6213 6.97559 13C6.97559 12.4146 7.42278 11.9345 7.99414 11.8809C8.02897 11.8772 8.06479 11.875 8.10059 11.875C8.13605 11.875 8.17154 11.8772 8.20605 11.8809Z" fill="currentColor"/>
<path d="M16.1025 12.0049C16.6067 12.0562 17 12.4823 17 13C17 13.5177 16.6067 13.9438 16.1025 13.9951L16 14H12C11.4477 14 11 13.5523 11 13C11 12.4477 11.4477 12 12 12H16L16.1025 12.0049Z" fill="currentColor"/>
<path d="M14.8271 2.00488C15.8156 2.05404 16.7539 2.46872 17.457 3.17188L19.8281 5.54297L19.9648 5.68652C20.6295 6.42034 21 7.37732 21 8.37207V18C21 20.2091 19.2091 22 17 22H7C4.79086 22 3 20.2091 3 18V6C3 3.79086 4.79086 2 7 2H14.6279L14.8271 2.00488ZM7 4C5.89543 4 5 4.89543 5 6V18C5 19.1046 5.89543 20 7 20H17C18.1046 20 19 19.1046 19 18V9.5H16.5C14.8431 9.5 13.5 8.15685 13.5 6.5V4H7ZM15.5 6.5C15.5 7.05228 15.9477 7.5 16.5 7.5H18.7979C18.7298 7.35967 18.6467 7.22634 18.5469 7.10449L18.4141 6.95703L16.043 4.58594C15.8833 4.42627 15.6996 4.29579 15.5 4.19922V6.5Z" fill="currentColor"/>
</svg>
