<svg viewBox="0 0 16 16" fill="none" xmlns="http://www.w3.org/2000/svg">
<path d="M1 0.666504H1.63637C3.41118 0.666504 5.19887 1.77874 6.03924 3.50751C6.08068 3.49142 6.12377 3.4752 6.16843 3.45899C6.63299 3.2904 7.28889 3.11506 8.02043 3.11506C8.75203 3.11506 9.40789 3.2904 9.87249 3.45899C9.91669 3.47506 9.95943 3.49114 10.0006 3.50708C10.832 1.7832 12.5833 0.666504 14.3636 0.666504H15V4.98209C15 5.58668 14.8681 6.02482 14.5102 6.37478C14.3718 6.51008 14.213 6.61733 14.0856 6.70196L14.9962 8.30282L13.6542 9.01056L14.3259 13.2612C10.5386 15.9072 5.50225 15.9072 1.71501 13.2612L2.38668 9.01056L1.04471 8.30282L1.95347 6.70529C1.82496 6.6224 1.66333 6.51716 1.52225 6.3862C1.35715 6.23294 1.21545 6.04246 1.12209 5.78808C1.03312 5.54565 1 5.27745 1 4.98209V0.666504ZM6.83383 10.01L7.35376 10.3566V11.9998H8.68709V10.3566L9.20703 10.01C9.81076 9.60749 9.52583 8.66649 8.80029 8.66649H7.24063C6.51506 8.66649 6.23015 9.60756 6.83383 10.01ZM6.35378 7.49982C6.35378 7.03956 5.98068 6.66649 5.52045 6.66649C5.06021 6.66649 4.68711 7.03956 4.68711 7.49982C4.68711 7.96009 5.06021 8.33316 5.52045 8.33316C5.98068 8.33316 6.35378 7.96009 6.35378 7.49982ZM10.5204 8.33316C10.9807 8.33316 11.3538 7.96009 11.3538 7.49982C11.3538 7.03956 10.9807 6.66649 10.5204 6.66649C10.0602 6.66649 9.68709 7.03956 9.68709 7.49982C9.68709 7.96009 10.0602 8.33316 10.5204 8.33316Z" fill="currentColor"/>
</svg>
