<svg viewBox="0 0 24 24" fill="none" xmlns="http://www.w3.org/2000/svg">
<path d="M1 1H2C4.78899 1 7.59823 2.73046 8.91881 5.4201C8.98392 5.39507 9.05164 5.36983 9.12181 5.34462C9.85183 5.08231 10.8825 4.80952 12.0321 4.80952C13.1817 4.80952 14.2124 5.08231 14.9425 5.34462C15.012 5.36961 15.0792 5.39462 15.1437 5.41944C16.4502 2.73739 19.2024 1 22 1H23V7.71429C23 8.65491 22.7928 9.3366 22.2303 9.88106C22.0128 10.0916 21.7633 10.2584 21.563 10.3901L22.9941 12.8808L20.8852 13.9819L22.2973 22.8299L20.3223 23.1451L18.6832 12.8753L20.2225 12.0716L18.9422 9.84336L19.6224 9.3089C19.9151 9.07886 20.1811 8.90456 20.386 8.7703L20.4329 8.73955C20.6611 8.58971 20.7669 8.51407 20.8393 8.44404L20.8467 8.43715C20.893 8.39463 21 8.2964 21 7.71429V3.10331C19.0889 3.49566 17.2995 4.97737 16.6328 7.06598L16.2557 8.24757L15.1834 7.62976L15.1825 7.62922L15.1766 7.62599C15.1691 7.62183 15.1557 7.61449 15.1367 7.6044C15.0986 7.58419 15.0383 7.55312 14.9583 7.51473C14.7978 7.43775 14.5605 7.33255 14.2662 7.2268C13.6709 7.01292 12.8776 6.80952 12.0321 6.80952C11.1867 6.80952 10.3934 7.01292 9.79812 7.2268C9.50381 7.33255 9.26651 7.43775 9.10602 7.51473C9.02599 7.55312 8.96567 7.5842 8.92759 7.6044C8.90856 7.61449 8.89514 7.62183 8.88764 7.62599L8.88116 7.62961L7.8086 8.24756L7.43144 7.06599C6.76676 4.98371 4.93285 3.49444 3 3.10237V7.71429C3 8.03295 3.03774 8.19377 3.06717 8.27316C3.0897 8.33395 3.1157 8.37265 3.17405 8.42628C3.25678 8.50232 3.37235 8.58038 3.61088 8.73276L3.63328 8.74706C3.85056 8.88581 4.1328 9.06603 4.44189 9.30892L5.12201 9.84337L3.84175 12.0716L5.38099 12.8753L3.7419 23.1451L1.7669 22.8299L3.17907 13.9819L1.07027 12.8808L2.4983 10.3953C2.29636 10.2663 2.04239 10.1026 1.82068 9.89883C1.56124 9.66039 1.33855 9.36405 1.19185 8.96828C1.05205 8.5911 1 8.17382 1 7.71429V1Z" fill="currentColor"/>
<path d="M10.2198 15.0151C9.31519 14.4117 9.74109 13 10.8302 13H13.1696C14.2587 13 14.6846 14.4117 13.78 15.0151L13 15.5351V18H11V15.5353L10.2198 15.0151Z" fill="currentColor"/>
<path d="M9.5 11.25C9.5 11.9404 8.94036 12.5 8.25 12.5C7.55964 12.5 7 11.9404 7 11.25C7 10.5596 7.55964 10 8.25 10C8.94036 10 9.5 10.5596 9.5 11.25Z" fill="currentColor"/>
<path d="M15.75 12.5C16.4404 12.5 17 11.9404 17 11.25C17 10.5596 16.4404 10 15.75 10C15.0596 10 14.5 10.5596 14.5 11.25C14.5 11.9404 15.0596 12.5 15.75 12.5Z" fill="currentColor"/>
</svg>
