<svg viewBox="0 0 32 32" fill="none" xmlns="http://www.w3.org/2000/svg">
<path d="M2 1.33301H3.27273C6.82236 1.33301 10.3977 3.55749 12.0785 7.01502C12.1614 6.98285 12.2475 6.95039 12.3369 6.91798C13.266 6.58079 14.5778 6.23013 16.0409 6.23013C17.5041 6.23013 18.8158 6.58079 19.745 6.91798C19.8334 6.95011 19.9189 6.98227 20.0011 7.01417C21.6639 3.56641 25.1666 1.33301 28.7273 1.33301H30.0001V9.96418C30.0001 11.1734 29.7362 12.0496 29.0203 12.7496C28.7435 13.0202 28.4261 13.2347 28.1711 13.4039L29.9923 16.6056L27.3085 18.0211L28.6518 26.5223C21.0773 31.8143 11.0045 31.8143 3.43003 26.5223L4.77336 18.0211L2.08941 16.6056L3.90693 13.4106C3.64992 13.2448 3.32667 13.0343 3.04449 12.7724C2.71431 12.4659 2.43089 12.0849 2.24417 11.5762C2.06624 11.0913 2 10.5549 2 9.96418V1.33301ZM13.6677 20.02L14.7075 20.7132V23.9996H17.3742V20.7132L18.4141 20.02C19.6215 19.215 19.0517 17.333 17.6006 17.333H14.4813C13.0301 17.333 12.4603 19.2151 13.6677 20.02ZM12.7076 14.9996C12.7076 14.0791 11.9614 13.333 11.0409 13.333C10.1204 13.333 9.37423 14.0791 9.37423 14.9996C9.37423 15.9202 10.1204 16.6663 11.0409 16.6663C11.9614 16.6663 12.7076 15.9202 12.7076 14.9996ZM21.0409 16.6663C21.9614 16.6663 22.7075 15.9202 22.7075 14.9996C22.7075 14.0791 21.9614 13.333 21.0409 13.333C20.1205 13.333 19.3742 14.0791 19.3742 14.9996C19.3742 15.9202 20.1205 16.6663 21.0409 16.6663Z" fill="currentColor"/>
</svg>
