<svg viewBox="0 0 32 32" fill="none" xmlns="http://www.w3.org/2000/svg">
<path d="M1.16675 1.1665H2.66675C6.40217 1.1665 10.158 3.45223 11.9736 7.01756C12.017 7.00144 12.0612 6.98529 12.1061 6.96915C13.0907 6.61537 14.4848 6.24586 16.0429 6.24586C17.601 6.24586 18.9951 6.61536 19.9797 6.96914C20.0237 6.98495 20.067 7.00075 20.1095 7.01654C21.9047 3.46218 25.5853 1.1665 29.3334 1.1665H30.8334V10.2856C30.8334 11.5668 30.5498 12.5263 29.7564 13.2943C29.5016 13.541 29.2163 13.7435 28.9732 13.906L30.8898 17.2416L28.0305 18.7345L29.9207 30.578L26.9582 31.0508L24.7276 17.0747L26.7325 16.0279L25.04 13.0823L26.0602 12.2806C26.4565 11.9693 26.8166 11.7333 27.0896 11.5544L27.1524 11.5132C27.4586 11.3122 27.5865 11.2195 27.6698 11.1388C27.7176 11.0926 27.7349 11.0665 27.7558 11.0059C27.7872 10.9148 27.8334 10.7104 27.8334 10.2856V4.34511C25.4201 4.91626 23.1833 6.81742 22.336 9.47183L21.7702 11.2442L20.1626 10.3179L20.1604 10.3167L20.1548 10.3136C20.1457 10.3085 20.1287 10.2992 20.1042 10.2863C20.0553 10.2603 19.9769 10.2199 19.8723 10.1698C19.6626 10.0692 19.3515 9.93121 18.9653 9.79242C18.1828 9.51128 17.1448 9.24586 16.0429 9.24586C14.941 9.24586 13.903 9.51128 13.1206 9.79242C12.7344 9.9312 12.4232 10.0692 12.2135 10.1698C12.109 10.2199 12.0306 10.2603 11.9816 10.2863C11.9572 10.2992 11.9402 10.3086 11.931 10.3136L11.924 10.3175L10.3156 11.2442L9.74989 9.47183C8.90533 6.826 6.61167 4.91405 4.16675 4.34324V10.2856C4.16675 10.6987 4.21588 10.8918 4.24592 10.9728C4.26561 11.0259 4.28389 11.0561 4.34492 11.1122C4.44255 11.2019 4.58366 11.2982 4.90431 11.5031L4.93513 11.5227C5.22473 11.7077 5.60694 11.9517 6.02558 12.2807L7.04576 13.0824L5.35337 16.0279L7.35822 17.0748L5.1276 31.0508L2.1651 30.578L4.05535 18.7345L1.19615 17.2416L3.10759 13.9148C2.86256 13.7561 2.57343 13.5586 2.31488 13.321C1.9522 12.9877 1.63889 12.5711 1.43294 12.0155C1.23733 11.4877 1.16675 10.91 1.16675 10.2856V1.1665Z" fill="currentColor"/>
<path d="M13.5341 20.1586C12.191 19.2626 12.8233 17.1665 14.4405 17.1665H17.5597C19.1769 17.1665 19.8092 19.2626 18.4661 20.1586L17.5 20.8027V24.1667H14.5V20.8025L13.5341 20.1586Z" fill="currentColor"/>
<path d="M12.6666 15.0002C12.6666 15.9207 11.9204 16.6668 10.9999 16.6668C10.0794 16.6668 9.33325 15.9207 9.33325 15.0002C9.33325 14.0796 10.0794 13.3335 10.9999 13.3335C11.9204 13.3335 12.6666 14.0796 12.6666 15.0002Z" fill="currentColor"/>
<path d="M20.9999 16.6668C21.9205 16.6668 22.6666 15.9207 22.6666 15.0002C22.6666 14.0796 21.9205 13.3335 20.9999 13.3335C20.0794 13.3335 19.3333 14.0796 19.3333 15.0002C19.3333 15.9207 20.0794 16.6668 20.9999 16.6668Z" fill="currentColor"/>
</svg>
