<svg viewBox="0 0 16 16" fill="none" xmlns="http://www.w3.org/2000/svg">
<path d="M0.583252 0.583496H1.33325C3.20097 0.583496 5.0789 1.72636 5.98669 3.50903C6.0084 3.50096 6.03049 3.49289 6.05295 3.48482C6.54524 3.30793 7.24226 3.12318 8.02132 3.12318C8.8004 3.12318 9.49744 3.30793 9.98974 3.48482C10.0117 3.49272 10.0334 3.50062 10.0546 3.50852C10.9522 1.73134 12.7925 0.583496 14.6666 0.583496H15.4166V5.14302C15.4166 5.78364 15.2748 6.2634 14.8781 6.64741C14.7507 6.77075 14.608 6.87197 14.4865 6.95322L15.4448 8.62105L14.0151 9.36751L14.9602 15.2893L13.479 15.5257L12.3637 8.53761L13.3661 8.01421L12.5199 6.54141L13.03 6.14057C13.2281 5.98491 13.4082 5.86692 13.5447 5.77746L13.5761 5.75687C13.7292 5.65635 13.7931 5.61 13.8348 5.56965C13.8587 5.54656 13.8673 5.53351 13.8778 5.50317C13.8935 5.45762 13.9166 5.35543 13.9166 5.14302V2.1728C12.7099 2.45837 11.5915 3.40896 11.1679 4.73616L10.885 5.62235L10.0812 5.15921L10.0801 5.1586L10.0773 5.15705C10.0727 5.15452 10.0642 5.14986 10.052 5.14338C10.0275 5.1304 9.98832 5.11019 9.93605 5.08512C9.8312 5.03483 9.67564 4.96585 9.48252 4.89646C9.0913 4.75589 8.5723 4.62318 8.02132 4.62318C7.47037 4.62318 6.95139 4.75588 6.56017 4.89645C6.36705 4.96585 6.21149 5.03483 6.10664 5.08512C6.05437 5.11019 6.01516 5.1304 5.99069 5.14338C5.97847 5.14986 5.96997 5.15452 5.96539 5.15705L5.9634 5.15814L5.15769 5.62234L4.87482 4.73616C4.45254 3.41324 3.30571 2.45727 2.08325 2.17187V5.14302C2.08325 5.34959 2.10782 5.44612 2.12284 5.48664C2.13268 5.51321 2.14182 5.52828 2.17234 5.55633C2.22115 5.60118 2.29171 5.64935 2.45204 5.75177L2.46744 5.76161C2.61224 5.85407 2.80335 5.9761 3.01267 6.14059L3.52276 6.54142L2.67657 8.01421L3.67899 8.53762L2.56368 15.5257L1.08243 15.2892L2.02755 9.3675L0.597952 8.62105L1.55368 6.95762C1.43116 6.87827 1.28659 6.77955 1.15732 6.66074C0.975977 6.49408 0.819324 6.28578 0.716349 6.00798C0.618545 5.74412 0.583252 5.45525 0.583252 5.14302V0.583496Z" fill="currentColor"/>
<path d="M6.76693 10.0796C6.09536 9.63157 6.41155 8.5835 7.22013 8.5835H8.77973C9.5883 8.5835 9.90449 9.63157 9.23293 10.0796L8.75 10.4015V12.0833H7.25V10.4016L6.76693 10.0796Z" fill="currentColor"/>
<path d="M6.33341 7.49984C6.33341 7.9601 5.96032 8.33317 5.50008 8.33317C5.03984 8.33317 4.66675 7.9601 4.66675 7.49984C4.66675 7.03957 5.03984 6.6665 5.50008 6.6665C5.96032 6.6665 6.33341 7.03957 6.33341 7.49984Z" fill="currentColor"/>
<path d="M10.5001 8.33317C10.9603 8.33317 11.3334 7.9601 11.3334 7.49984C11.3334 7.03957 10.9603 6.6665 10.5001 6.6665C10.0398 6.6665 9.66675 7.03957 9.66675 7.49984C9.66675 7.9601 10.0398 8.33317 10.5001 8.33317Z" fill="currentColor"/>
</svg>
