<svg viewBox="0 0 24 24" fill="none" xmlns="http://www.w3.org/2000/svg">
<path d="M1.5 1H2.45455C5.11677 1 7.79831 2.66836 9.05886 5.26151C9.12102 5.23738 9.18566 5.21304 9.25265 5.18873C9.94948 4.93584 10.9333 4.67284 12.0306 4.67284C13.128 4.67284 14.1118 4.93584 14.8087 5.18873C14.875 5.21283 14.9391 5.23695 15.0008 5.26087C16.2479 2.67505 18.8749 1 21.5454 1H22.5V7.47338C22.5 8.38026 22.3021 9.03748 21.7652 9.56241C21.5576 9.76537 21.3195 9.92624 21.1283 10.0532L22.4942 12.4545L20.4813 13.5161L21.4888 19.892C15.8079 23.861 8.25338 23.861 2.57252 19.892L3.58002 13.5161L1.56706 12.4545L2.9302 10.0582C2.73744 9.93385 2.495 9.77599 2.28337 9.57954C2.03573 9.34965 1.82317 9.06394 1.68313 8.68237C1.54968 8.31872 1.5 7.91642 1.5 7.47338V1ZM10.2507 15.0153L11.0306 15.5352V18H13.0306V15.5352L13.8105 15.0153C14.7161 14.4115 14.2887 13 13.2004 13H10.8609C9.77259 13 9.34522 14.4116 10.2507 15.0153ZM9.53067 11.25C9.53067 10.5596 8.97102 9.99998 8.28067 9.99998C7.59031 9.99998 7.03067 10.5596 7.03067 11.25C7.03067 11.9404 7.59031 12.5 8.28067 12.5C8.97102 12.5 9.53067 11.9404 9.53067 11.25ZM15.7806 12.5C16.471 12.5 17.0306 11.9404 17.0306 11.25C17.0306 10.5596 16.471 9.99998 15.7806 9.99998C15.0903 9.99998 14.5306 10.5596 14.5306 11.25C14.5306 11.9404 15.0903 12.5 15.7806 12.5Z" fill="currentColor"/>
</svg>
