<svg viewBox="0 0 24 24" fill="none" xmlns="http://www.w3.org/2000/svg">
<path d="M12.0995 16.5068L12.1024 16.5078C12.88 16.5619 13.4995 17.2066 13.4998 18.002C13.4998 18.8293 12.8272 19.5019 11.9998 19.502C11.1757 19.5018 10.506 18.8347 10.5008 18.0117L10.4998 18.0127C10.4915 17.2114 11.1143 16.5629 11.8905 16.5078C11.9254 16.5041 11.961 16.502 11.9969 16.502L12.0995 16.5068Z" fill="currentColor"/>
<path d="M12.0995 10.5049L12.1024 10.5059C12.8801 10.56 13.4997 11.2045 13.4998 12C13.4997 12.8273 12.8271 13.4999 11.9998 13.5C11.1758 13.4999 10.5061 12.8326 10.5008 12.0098L10.4998 12.0107C10.4913 11.2093 11.1142 10.5609 11.8905 10.5059C11.9254 10.5022 11.961 10.5 11.9969 10.5L12.0995 10.5049Z" fill="currentColor"/>
<path d="M12.0995 4.50195L12.1024 4.50293C12.88 4.557 13.4996 5.20168 13.4998 5.99707C13.4998 6.82442 12.8272 7.49699 11.9998 7.49707C11.1757 7.49694 10.506 6.82977 10.5008 6.00684L10.4998 6.00781C10.4914 5.2065 11.1143 4.55797 11.8905 4.50293C11.9254 4.49923 11.961 4.49708 11.9969 4.49707L12.0995 4.50195Z" fill="currentColor"/>
</svg>
