<svg viewBox="0 0 16 16" fill="none" xmlns="http://www.w3.org/2000/svg">
<path d="M8.0752 10.9219L8.07618 10.9229C8.63648 10.9629 9.08356 11.4273 9.08399 12.001C9.08399 12.5984 8.59741 13.0847 8.00001 13.085C7.44003 13.0847 6.97851 12.6578 6.92286 12.1123L6.917 12.001C6.91541 11.4264 7.36285 10.9632 7.91993 10.9229C7.94547 10.9202 7.97182 10.918 7.99805 10.918L8.0752 10.9219Z" fill="currentColor"/>
<path d="M8.0752 6.9209L8.07618 6.92188C8.63657 6.96193 9.08375 7.42618 9.08399 8C9.08379 8.59729 8.59729 9.08372 8.00001 9.08398C7.44017 9.08374 6.9787 8.65667 6.92286 8.11133L6.917 8C6.91522 7.42526 7.36273 6.96221 7.91993 6.92188C7.94549 6.91922 7.97179 6.91701 7.99805 6.91699L8.0752 6.9209Z" fill="currentColor"/>
<path d="M8.0752 2.91895L8.07618 2.91992C8.63658 2.95997 9.08375 3.42422 9.08399 3.99805C9.08392 4.59545 8.59737 5.08177 8.00001 5.08203C7.44009 5.08179 6.97859 4.65483 6.92286 4.10938L6.917 3.99805C6.91522 3.4233 7.36273 2.96026 7.91993 2.91992C7.94548 2.91727 7.9718 2.91505 7.99805 2.91504L8.0752 2.91895Z" fill="currentColor"/>
</svg>
