<svg viewBox="0 0 16 16" fill="none" xmlns="http://www.w3.org/2000/svg">
<path d="M10.9219 7.9248L10.9229 7.92383C10.9629 7.36353 11.4273 6.91645 12.001 6.91602C12.5984 6.91602 13.0847 7.4026 13.085 8C13.0847 8.55997 12.6578 9.02149 12.1123 9.07715L12.001 9.08301C11.4264 9.08459 10.9632 8.63716 10.9229 8.08008C10.9202 8.05454 10.918 8.02819 10.918 8.00195L10.9219 7.9248Z" fill="currentColor"/>
<path d="M6.9209 7.9248L6.92188 7.92383C6.96193 7.36343 7.42618 6.91626 8 6.91602C8.59729 6.91621 9.08372 7.40272 9.08398 8C9.08374 8.55983 8.65667 9.0213 8.11133 9.07715L8 9.08301C7.42526 9.08478 6.96221 8.63728 6.92188 8.08008C6.91922 8.05452 6.91701 8.02821 6.91699 8.00195L6.9209 7.9248Z" fill="currentColor"/>
<path d="M2.91895 7.9248L2.91992 7.92383C2.95997 7.36342 3.42422 6.91626 3.99805 6.91602C4.59545 6.91608 5.08177 7.40264 5.08203 8C5.08179 8.55992 4.65483 9.02141 4.10938 9.07715L3.99805 9.08301C3.4233 9.08478 2.96026 8.63728 2.91992 8.08008C2.91727 8.05452 2.91505 8.02821 2.91504 8.00195L2.91895 7.9248Z" fill="currentColor"/>
</svg>
