<svg viewBox="0 0 24 24" fill="none" xmlns="http://www.w3.org/2000/svg">
<path d="M16.5068 11.9004L16.5078 11.8975C16.5619 11.1199 17.2066 10.5003 18.002 10.5C18.8293 10.5 19.5019 11.1727 19.502 12C19.5018 12.8241 18.8347 13.4939 18.0117 13.499L18.0127 13.5C17.2114 13.5084 16.5629 12.8855 16.5078 12.1094C16.5041 12.0745 16.502 12.0388 16.502 12.0029L16.5068 11.9004Z" fill="currentColor"/>
<path d="M10.5049 11.9004L10.5059 11.8975C10.56 11.1198 11.2045 10.5001 12 10.5C12.8273 10.5001 13.4999 11.1727 13.5 12C13.4999 12.824 12.8326 13.4938 12.0098 13.499L12.0107 13.5C11.2093 13.5085 10.5609 12.8856 10.5059 12.1094C10.5022 12.0744 10.5 12.0388 10.5 12.0029L10.5049 11.9004Z" fill="currentColor"/>
<path d="M4.50195 11.9004L4.50293 11.8975C4.557 11.1198 5.20168 10.5002 5.99707 10.5C6.82442 10.5 7.49699 11.1727 7.49707 12C7.49694 12.8241 6.82977 13.4939 6.00684 13.499L6.00781 13.5C5.2065 13.5084 4.55797 12.8856 4.50293 12.1094C4.49923 12.0745 4.49708 12.0388 4.49707 12.0029L4.50195 11.9004Z" fill="currentColor"/>
</svg>
