<svg viewBox="0 0 32 32" fill="none" xmlns="http://www.w3.org/2000/svg">
<path d="M22.0967 15.8086C22.1944 14.8431 23.0082 14.083 24.0039 14.083C25.0609 14.0832 25.9209 14.9429 25.9209 16C25.9209 17.0528 25.0678 17.909 24.0166 17.916L24.0176 17.917C24.0151 17.917 24.0123 17.9161 24.0098 17.916L24.0039 17.917C22.9398 17.9212 22.0869 17.0539 22.0869 16.0039L22.0967 15.8086Z" fill="currentColor"/>
<path d="M14.0928 15.8086C14.1905 14.8432 15.0044 14.0831 16 14.083C17.0572 14.083 17.917 14.9428 17.917 16C17.917 17.0529 17.064 17.9091 16.0127 17.916L16.0137 17.917C16.0112 17.917 16.0084 17.916 16.0059 17.916L16 17.917C14.936 17.9211 14.083 17.0538 14.083 16.0039L14.0928 15.8086Z" fill="currentColor"/>
<path d="M6.08984 15.8086C6.18756 14.8431 7.00134 14.083 7.99707 14.083C9.05411 14.0832 9.91406 14.9429 9.91406 16C9.91406 17.0528 9.06098 17.909 8.00977 17.916L8.01074 17.917C8.00825 17.917 8.00543 17.9161 8.00293 17.916L7.99707 17.917C6.93292 17.9212 6.08008 17.0539 6.08008 16.0039L6.08984 15.8086Z" fill="currentColor"/>
</svg>
