<svg viewBox="0 0 32 32" fill="none" xmlns="http://www.w3.org/2000/svg">
<path d="M16.1914 22.0967C17.1569 22.1944 17.917 23.0082 17.917 24.0039C17.9168 25.0609 17.0571 25.9209 16 25.9209C14.9472 25.9209 14.091 25.0678 14.084 24.0166L14.083 24.0176C14.083 24.0151 14.084 24.0123 14.084 24.0098L14.083 24.0039C14.0788 22.9398 14.9461 22.0869 15.9961 22.0869L16.1914 22.0967Z" fill="currentColor"/>
<path d="M16.1914 14.0928C17.1568 14.1905 17.9169 15.0044 17.917 16C17.917 17.0572 17.0572 17.917 16 17.917C14.9471 17.917 14.0909 17.064 14.084 16.0127L14.083 16.0137C14.0831 16.0112 14.084 16.0084 14.084 16.0059L14.083 16C14.0789 14.936 14.9462 14.083 15.9961 14.083L16.1914 14.0928Z" fill="currentColor"/>
<path d="M16.1914 6.08984C17.1569 6.18756 17.917 7.00134 17.917 7.99707C17.9168 9.05411 17.0571 9.91406 16 9.91406C14.9472 9.91406 14.091 9.06098 14.084 8.00977L14.083 8.01074C14.083 8.00825 14.084 8.00543 14.084 8.00293L14.083 7.99707C14.0788 6.93292 14.9461 6.08008 15.9961 6.08008L16.1914 6.08984Z" fill="currentColor"/>
</svg>
