<svg viewBox="0 0 24 24" fill="none" xmlns="http://www.w3.org/2000/svg">
<path d="M12 8C12.5523 8 13 8.44772 13 9V12.5859L13.793 11.793L13.8691 11.7246C14.2619 11.4043 14.8409 11.4269 15.207 11.793C15.5731 12.1591 15.5957 12.7381 15.2754 13.1309L15.207 13.207L12.707 15.707C12.6558 15.7582 12.5984 15.8026 12.5371 15.8418C12.5084 15.8602 12.4793 15.8774 12.4492 15.8926C12.3849 15.925 12.3165 15.9497 12.2451 15.9678C12.236 15.9701 12.227 15.9726 12.2178 15.9746C12.1991 15.9788 12.1802 15.9823 12.1611 15.9854C12.1494 15.9873 12.1378 15.9897 12.126 15.9912C12.1085 15.9934 12.091 15.9948 12.0732 15.9961C12.0557 15.9974 12.0381 15.9987 12.0205 15.999C12.0137 15.9992 12.0069 16 12 16C11.9931 16 11.9863 15.9992 11.9795 15.999C11.9635 15.9987 11.9476 15.9972 11.9316 15.9961C11.9136 15.9949 11.8957 15.9934 11.8779 15.9912C11.8603 15.989 11.8427 15.9865 11.8252 15.9834C11.8141 15.9814 11.803 15.9799 11.792 15.9775C11.7752 15.974 11.7588 15.9693 11.7422 15.9648C11.6732 15.9465 11.6072 15.9216 11.5449 15.8896C11.53 15.882 11.5155 15.8737 11.501 15.8652C11.425 15.8213 11.3547 15.7687 11.293 15.707L8.79297 13.207L8.72461 13.1309C8.40426 12.7381 8.42685 12.1591 8.79297 11.793C9.15908 11.4269 9.73809 11.4043 10.1309 11.7246L10.207 11.793L11 12.5859V9C11 8.44772 11.4477 8 12 8Z" fill="currentColor"/>
<path d="M12 2C17.5233 2 22 6.47672 22 12C22 17.5233 17.5233 22 12 22C6.47672 22 2 17.5233 2 12C2 6.47672 6.47672 2 12 2ZM12 4C7.58128 4 4 7.58128 4 12C4 16.4187 7.58128 20 12 20C16.4187 20 20 16.4187 20 12C20 7.58128 16.4187 4 12 4Z" fill="currentColor"/>
</svg>
