<svg viewBox="0 0 16 16" fill="none" xmlns="http://www.w3.org/2000/svg">
<path d="M8 5.25C8.4141 5.25013 8.75 5.58587 8.75 6V8.1875L9.13574 7.80273L9.19336 7.75098C9.48779 7.51112 9.92178 7.52864 10.1963 7.80273C10.4709 8.07738 10.4885 8.51206 10.248 8.80664L10.1963 8.86328L8.53027 10.5303C8.46049 10.6001 8.38044 10.653 8.29492 10.6895C8.28275 10.6947 8.26933 10.6966 8.25684 10.7012C8.22455 10.7129 8.19251 10.7243 8.15918 10.7314C8.12228 10.7395 8.0846 10.7447 8.0459 10.7471C8.03938 10.7475 8.03289 10.7478 8.02637 10.748C8.0176 10.7484 8.00884 10.75 8 10.75C7.96796 10.75 7.93626 10.7471 7.90527 10.7432C7.90134 10.7427 7.89748 10.7418 7.89355 10.7412C7.86618 10.7373 7.83982 10.7304 7.81348 10.7236C7.78873 10.7173 7.76435 10.7101 7.74023 10.7012C7.71639 10.6923 7.69353 10.682 7.6709 10.6709C7.65261 10.6619 7.63485 10.6522 7.61719 10.6416C7.59347 10.6274 7.57076 10.6123 7.54883 10.5957C7.54184 10.5904 7.53321 10.5866 7.52637 10.5811L7.46973 10.5303L5.80273 8.86328L5.75098 8.80664C5.5109 8.51206 5.52821 8.07726 5.80273 7.80273C6.07726 7.52821 6.51206 7.5109 6.80664 7.75098L6.86328 7.80273L7.25 8.18945V6C7.25 5.5859 7.58594 5.25018 8 5.25Z" fill="currentColor"/>
<path d="M8 1.25C11.7282 1.25 14.75 4.27179 14.75 8C14.75 11.7282 11.7282 14.75 8 14.75C4.27179 14.75 1.25 11.7282 1.25 8C1.25 4.27179 4.27179 1.25 8 1.25ZM8 2.75C5.10021 2.75 2.75 5.10021 2.75 8C2.75 10.8998 5.10021 13.25 8 13.25C10.8998 13.25 13.25 10.8998 13.25 8C13.25 5.10021 10.8998 2.75 8 2.75Z" fill="currentColor"/>
</svg>
