<svg viewBox="0 0 32 32" fill="none" xmlns="http://www.w3.org/2000/svg">
<path d="M16 10.75C16.6902 10.7502 17.25 11.3098 17.25 12V16.9824L18.4502 15.7832L18.5449 15.6973C19.0359 15.297 19.7602 15.3256 20.2178 15.7832C20.675 16.2408 20.7039 16.9652 20.3037 17.4561L20.2178 17.5508L16.8838 20.8838C16.8423 20.9253 16.7974 20.9617 16.752 20.9961C16.7324 21.0109 16.7128 21.0254 16.6924 21.0391C16.6762 21.0499 16.6592 21.0593 16.6426 21.0693C16.6244 21.0803 16.6066 21.0916 16.5879 21.1016C16.5731 21.1095 16.558 21.1167 16.543 21.124C16.5211 21.1346 16.4991 21.145 16.4766 21.1543C16.4601 21.1611 16.4434 21.1668 16.4268 21.1729C16.4051 21.1807 16.3835 21.1886 16.3613 21.1953C16.3491 21.199 16.3366 21.2018 16.3242 21.2051C16.2592 21.2225 16.1927 21.2364 16.124 21.2432C16.0406 21.2515 15.9565 21.2516 15.873 21.2432C15.8116 21.2369 15.7519 21.2248 15.6934 21.21C15.6725 21.2047 15.6515 21.1997 15.6309 21.1934C15.624 21.1912 15.6172 21.1888 15.6104 21.1865C15.5791 21.1763 15.5481 21.1651 15.5176 21.1523C15.4586 21.1276 15.4026 21.0976 15.3486 21.0645C15.2663 21.014 15.1875 20.955 15.1162 20.8838L11.7832 17.5508L11.6973 17.4561C11.2968 16.9651 11.3255 16.2409 11.7832 15.7832C12.2409 15.3255 12.9651 15.2968 13.4561 15.6973L13.5508 15.7832L14.75 16.9824V12C14.75 11.3097 15.3098 10.7501 16 10.75Z" fill="currentColor"/>
<path d="M16 2.75C23.3184 2.75 29.25 8.68164 29.25 16C29.25 23.3184 23.3184 29.25 16 29.25C8.68164 29.25 2.75 23.3184 2.75 16C2.75 8.68164 8.68164 2.75 16 2.75ZM16 5.25C10.0624 5.25 5.25 10.0624 5.25 16C5.25 21.9376 10.0624 26.75 16 26.75C21.9376 26.75 26.75 21.9376 26.75 16C26.75 10.0624 21.9376 5.25 16 5.25Z" fill="currentColor"/>
</svg>
