<svg viewBox="0 0 32 32" fill="none" xmlns="http://www.w3.org/2000/svg">
<path d="M9.62102 4.28769C10.6056 3.30312 11.9409 2.75 13.3333 2.75H24C25.3924 2.75 26.7277 3.30312 27.7123 4.28769C28.6969 5.27226 29.25 6.60761 29.25 8V18.6667C29.25 20.0591 28.6969 21.3944 27.7123 22.379C26.7277 23.3635 25.3924 23.9167 24 23.9167H23.9167V24C23.9167 25.3924 23.3635 26.7277 22.379 27.7123C21.3944 28.6969 20.0591 29.25 18.6667 29.25H8C6.60761 29.25 5.27226 28.6969 4.28769 27.7123C3.30312 26.7277 2.75 25.3924 2.75 24V13.3333C2.75 11.9409 3.30312 10.6056 4.28769 9.62102C5.27226 8.63646 6.60761 8.08333 8 8.08333H8.08333V8C8.08333 6.60761 8.63646 5.27226 9.62102 4.28769ZM8.08333 10.5833H8C7.27065 10.5833 6.57118 10.8731 6.05546 11.3888C5.53973 11.9045 5.25 12.604 5.25 13.3333V24C5.25 24.7293 5.53973 25.4288 6.05546 25.9445C6.57118 26.4603 7.27065 26.75 8 26.75H18.6667C19.396 26.75 20.0955 26.4603 20.6112 25.9445C21.1269 25.4288 21.4167 24.7293 21.4167 24V23.9167H13.3333C11.9409 23.9167 10.6056 23.3635 9.62102 22.379C8.63646 21.3944 8.08333 20.0591 8.08333 18.6667V10.5833ZM13.3333 21.4167H24C24.7293 21.4167 25.4288 21.1269 25.9445 20.6112C26.4603 20.0955 26.75 19.396 26.75 18.6667V8C26.75 7.27065 26.4603 6.57118 25.9445 6.05546C25.4288 5.53973 24.7293 5.25 24 5.25H13.3333C12.604 5.25 11.9045 5.53973 11.3888 6.05546C10.8731 6.57118 10.5833 7.27065 10.5833 8V18.6667C10.5833 19.396 10.8731 20.0955 11.3888 20.6112C11.9045 21.1269 12.604 21.4167 13.3333 21.4167ZM18.6677 9.41667C19.3581 9.41667 19.9177 9.97631 19.9177 10.6667V12.0823H21.3333C22.0237 12.0823 22.5833 12.6419 22.5833 13.3323C22.5833 14.0226 22.0237 14.5823 21.3333 14.5823H19.9177V16C19.9177 16.6904 19.3581 17.25 18.6677 17.25C17.9774 17.25 17.4177 16.6904 17.4177 16V14.5823H16C15.3096 14.5823 14.75 14.0226 14.75 13.3323C14.75 12.6419 15.3096 12.0823 16 12.0823H17.4177V10.6667C17.4177 9.97631 17.9774 9.41667 18.6677 9.41667Z" fill="currentColor"/>
</svg>
