<svg viewBox="0 0 16 16" fill="none" xmlns="http://www.w3.org/2000/svg">
<path d="M4.95109 2.50664C5.43555 2.02217 6.09263 1.75 6.77778 1.75H11.6667C12.3518 1.75 13.0089 2.02217 13.4934 2.50664C13.9778 2.99111 14.25 3.64819 14.25 4.33333V9.22222C14.25 9.90736 13.9778 10.5644 13.4934 11.0489C13.0409 11.5014 12.4379 11.7687 11.802 11.802C11.7687 12.4379 11.5014 13.0409 11.0489 13.4934C10.5644 13.9778 9.90736 14.25 9.22222 14.25H4.33333C3.64819 14.25 2.99111 13.9778 2.50664 13.4934C2.02217 13.0089 1.75 12.3518 1.75 11.6667V6.77778C1.75 6.09263 2.02217 5.43555 2.50664 4.95109C2.95911 4.49861 3.56215 4.23132 4.19799 4.19799C4.23132 3.56215 4.49861 2.95911 4.95109 2.50664ZM4.19444 5.70338C3.95836 5.73389 3.73745 5.8416 3.5673 6.01175C3.36414 6.21491 3.25 6.49046 3.25 6.77778V11.6667C3.25 11.954 3.36414 12.2295 3.5673 12.4327C3.77047 12.6359 4.04602 12.75 4.33333 12.75H9.22222C9.50954 12.75 9.78509 12.6359 9.98825 12.4327C10.1584 12.2626 10.2661 12.0416 10.2966 11.8056H6.77778C6.09263 11.8056 5.43555 11.5334 4.95109 11.0489C4.46662 10.5644 4.19444 9.90736 4.19444 9.22222V5.70338ZM6.77778 10.3056H11.6667C11.954 10.3056 12.2295 10.1914 12.4327 9.98825C12.6359 9.78509 12.75 9.50954 12.75 9.22222V4.33333C12.75 4.04602 12.6359 3.77047 12.4327 3.5673C12.2295 3.36414 11.954 3.25 11.6667 3.25H6.77778C6.49046 3.25 6.21491 3.36414 6.01175 3.5673C5.80858 3.77047 5.69444 4.04602 5.69444 4.33333V9.22222C5.69444 9.50954 5.80858 9.78509 6.01175 9.98825C6.21491 10.1914 6.49046 10.3056 6.77778 10.3056ZM9.22272 4.80556C8.8085 4.80556 8.47272 5.14134 8.47272 5.55556V6.02728H8C7.58579 6.02728 7.25 6.36307 7.25 6.77728C7.25 7.1915 7.58579 7.52728 8 7.52728H8.47272V8C8.47272 8.41421 8.8085 8.75 9.22272 8.75C9.63693 8.75 9.97272 8.41421 9.97272 8V7.52728H10.4444C10.8587 7.52728 11.1944 7.1915 11.1944 6.77728C11.1944 6.36307 10.8587 6.02728 10.4444 6.02728H9.97272V5.55556C9.97272 5.14134 9.63693 4.80556 9.22272 4.80556Z" fill="currentColor"/>
</svg>
