<svg viewBox="0 0 24 24" fill="none" xmlns="http://www.w3.org/2000/svg">
<path d="M7.17157 3.17157C7.92172 2.42143 8.93913 2 10 2H18C19.0609 2 20.0783 2.42143 20.8284 3.17157C21.5786 3.92172 22 4.93913 22 6V14C22 15.0609 21.5786 16.0783 20.8284 16.8284C20.0783 17.5786 19.0609 18 18 18C18 19.0609 17.5786 20.0783 16.8284 20.8284C16.0783 21.5786 15.0609 22 14 22H6C4.93913 22 3.92172 21.5786 3.17157 20.8284C2.42143 20.0783 2 19.0609 2 18V10C2 8.93913 2.42143 7.92172 3.17157 7.17157C3.92172 6.42143 4.93913 6 6 6C6 4.93913 6.42143 3.92172 7.17157 3.17157ZM6 8C5.46957 8 4.96086 8.21071 4.58579 8.58579C4.21071 8.96086 4 9.46957 4 10V18C4 18.5304 4.21071 19.0391 4.58579 19.4142C4.96086 19.7893 5.46957 20 6 20H14C14.5304 20 15.0391 19.7893 15.4142 19.4142C15.7893 19.0391 16 18.5304 16 18H10C8.93913 18 7.92172 17.5786 7.17157 16.8284C6.42143 16.0783 6 15.0609 6 14V8ZM10 16H18C18.5304 16 19.0391 15.7893 19.4142 15.4142C19.7893 15.0391 20 14.5304 20 14V6C20 5.46957 19.7893 4.96086 19.4142 4.58579C19.0391 4.21071 18.5304 4 18 4H10C9.46957 4 8.96086 4.21071 8.58579 4.58579C8.21071 4.96086 8 5.46957 8 6V14C8 14.5304 8.21071 15.0391 8.58579 15.4142C8.96086 15.7893 9.46957 16 10 16ZM14.0008 7C14.5531 7 15.0008 7.44772 15.0008 8V8.99919H16C16.5523 8.99919 17 9.44691 17 9.99919C17 10.5515 16.5523 10.9992 16 10.9992H15.0008V12C15.0008 12.5523 14.5531 13 14.0008 13C13.4485 13 13.0008 12.5523 13.0008 12V10.9992H12C11.4477 10.9992 11 10.5515 11 9.99919C11 9.44691 11.4477 8.99919 12 8.99919H13.0008V8C13.0008 7.44772 13.4485 7 14.0008 7Z" fill="currentColor"/>
</svg>
