<svg viewBox="0 0 24 24" fill="none" xmlns="http://www.w3.org/2000/svg">
<path d="M16.7188 2.81626C17.9213 1.73027 19.7565 1.73011 20.959 2.81626L21.0771 2.92856L21.1895 3.04672C22.2751 4.24924 22.2753 6.08453 21.1895 7.28696L21.0771 7.40512L20.0762 8.40317C20.67 9.64393 21.0029 11.0335 21.0029 12.5008C21.0026 17.7491 16.7483 22.0036 11.5 22.0038C6.25166 22.0036 1.99644 17.7491 1.99609 12.5008C1.99609 7.25225 6.25145 2.99705 11.5 2.99692C12.9692 2.99697 14.3607 3.3303 15.6025 3.92563L16.6006 2.92856L16.7188 2.81626ZM11.5 4.99692C7.35602 4.99705 3.99609 8.35682 3.99609 12.5008C3.99644 16.6445 7.35623 20.0036 11.5 20.0038C15.6437 20.0036 19.0026 16.6445 19.0029 12.5008C19.0029 11.5972 18.8426 10.7309 18.5498 9.92856L13.4424 15.035C13.1269 15.35 12.7149 15.551 12.2725 15.6053L9.12207 15.994C8.81317 16.0321 8.50323 15.924 8.28516 15.702C8.06716 15.4798 7.96492 15.1683 8.00879 14.8602L8.47168 11.6239L8.50098 11.4647C8.58414 11.0975 8.76933 10.7599 9.03711 10.492L14.0771 5.45102C13.2735 5.1571 12.4054 4.99696 11.5 4.99692ZM10.4512 11.9061L10.1738 13.8485L12.0273 13.62L17.5654 8.08579C17.1053 7.45458 16.5498 6.89797 15.9189 6.43735L10.4512 11.9061ZM19.6621 4.34165C19.2351 3.91594 18.56 3.89017 18.1025 4.26352L18.0146 4.34262L17.3457 5.01059C17.96 5.4908 18.5134 6.04436 18.9932 6.65903L19.6621 5.99106L19.7422 5.90219C20.1153 5.44445 20.0884 4.76844 19.6621 4.34165Z" fill="currentColor"/>
</svg>
