<svg viewBox="0 0 16 16" fill="none" xmlns="http://www.w3.org/2000/svg">
<path d="M11.1748 1.74254C12.0364 1.04055 13.3064 1.09134 14.1094 1.8939C14.9653 2.75052 14.9662 4.13883 14.1104 4.99547L14.1094 4.99644L13.4834 5.62047C13.8685 6.44473 14.0859 7.36351 14.0859 8.33336C14.0859 11.8783 11.2119 14.752 7.66699 14.7523C4.1219 14.7523 1.24707 11.8785 1.24707 8.33336C1.24722 4.78838 4.12199 1.91446 7.66699 1.91441C8.63814 1.91448 9.55869 2.13084 10.3838 2.51695L11.0078 1.8939L11.1748 1.74254ZM7.66699 3.41441C4.95042 3.41446 2.74819 5.61681 2.74805 8.33336C2.74805 11.05 4.95033 13.2523 7.66699 13.2523C10.3835 13.252 12.5859 11.0499 12.5859 8.33336C12.5859 7.7877 12.4951 7.26328 12.3311 6.77281L9.02051 10.0824C8.82492 10.2776 8.57652 10.4112 8.30762 10.4671L8.19141 10.4857L6.09082 10.7455C5.85927 10.7739 5.62734 10.6932 5.46387 10.5267C5.30037 10.3601 5.22389 10.126 5.25684 9.89488L5.56445 7.73765L5.58496 7.62535C5.6438 7.36498 5.77599 7.12575 5.96582 6.9359L9.23047 3.67027C8.73914 3.50556 8.21377 3.41447 7.66699 3.41441ZM7.04492 7.97691L6.87988 9.13609L7.97949 9.00035L11.6006 5.38023C11.3218 5.00949 10.9917 4.67963 10.6211 4.40074L7.04492 7.97691ZM13.0488 2.95347C12.8117 2.71714 12.4458 2.6879 12.1768 2.86558L12.0684 2.95445L11.6895 3.33238C12.0502 3.62297 12.3785 3.95194 12.6689 4.31285L13.0488 3.93492L13.1377 3.82652C13.3155 3.55722 13.2858 3.19062 13.0488 2.95347Z" fill="currentColor"/>
</svg>
