<svg viewBox="0 0 16 16" fill="none" xmlns="http://www.w3.org/2000/svg">
<path d="M11.5286 1.52848C12.3139 0.74181 13.6859 0.74181 14.4712 1.52848C15.2826 2.33981 15.2826 3.65981 14.4712 4.47114L8.34124 10.6018L4.41724 11.5831L5.3979 7.65914L11.5286 1.52848ZM12.3906 4.66648L13.5286 3.52848C13.8199 3.23714 13.8199 2.76248 13.5286 2.47114C13.2459 2.18848 12.7539 2.18848 12.4712 2.47114L11.3332 3.60914L12.3906 4.66648Z" fill="currentColor"/>
<path d="M3.33325 14.6665H11.9999C13.1026 14.6665 13.9999 13.7692 13.9999 12.6665V8.66654H12.6666V12.6665C12.6666 13.0339 12.3679 13.3332 11.9999 13.3332H3.33325C2.96525 13.3332 2.66659 13.0339 2.66659 12.6665V3.99988C2.66659 3.63254 2.96525 3.33321 3.33325 3.33321H7.33325V1.99988H3.33325C2.23059 1.99988 1.33325 2.89721 1.33325 3.99988V12.6665C1.33325 13.7692 2.23059 14.6665 3.33325 14.6665Z" fill="currentColor"/>
</svg>
