<svg viewBox="0 0 32 32" fill="none" xmlns="http://www.w3.org/2000/svg">
<path d="M22.6016 4.06451C24.2256 2.59791 26.7326 2.64674 28.2979 4.21099C29.8623 5.77625 29.911 8.28319 28.4443 9.90728L28.2979 10.0626L26.9229 11.4356C27.7251 13.0922 28.1758 14.951 28.1758 16.9151C28.1757 23.8672 22.54 29.5029 15.5879 29.503C8.63582 29.5029 3.00007 23.8672 3 16.9151C3.00009 9.96304 8.63583 4.32729 15.5879 4.32721C17.555 4.32722 19.4167 4.77846 21.0752 5.58306L22.4473 4.21197L22.6016 4.06451ZM15.5879 6.82721C10.0165 6.82729 5.50009 11.3437 5.5 16.9151C5.50007 22.4865 10.0165 27.0029 15.5879 27.003C21.1593 27.0029 25.6757 22.4865 25.6758 16.9151C25.6758 15.6547 25.4417 14.4493 25.0195 13.337L18.1182 20.2344C17.7105 20.6414 17.1782 20.9007 16.6064 20.9708L16.6074 20.9717L12.4062 21.4903C12.02 21.5379 11.6329 21.4028 11.3604 21.1251C11.0881 20.8473 10.9607 20.4583 11.0156 20.0733L11.6318 15.7579L11.6699 15.5528C11.7773 15.0781 12.0171 14.642 12.3633 14.296L19.1729 7.48541C18.0587 7.06156 16.8508 6.82722 15.5879 6.82721ZM14.1309 16.0635C14.1245 16.0699 14.1182 16.0771 14.1143 16.085L14.1064 16.1114L13.7207 18.8087L16.3018 18.4903L16.3291 18.4825L16.3516 18.4659L23.7842 11.0372C23.1437 10.1456 22.3618 9.36375 21.4707 8.72271L14.1309 16.0635ZM26.5303 5.97955C25.9306 5.38045 24.982 5.34286 24.3389 5.86724L24.2148 5.97955L23.2568 6.93658C24.1252 7.60495 24.9035 8.38324 25.5713 9.25201L26.5303 8.294C27.1689 7.65439 27.1693 6.61891 26.5303 5.97955Z" fill="currentColor"/>
</svg>
