<svg viewBox="0 0 12 12" fill="none" xmlns="http://www.w3.org/2000/svg">
<path d="M7.33496 1.93778C8.04739 1.3569 9.07554 1.3571 9.78808 1.93778L9.93652 2.07157L10.0693 2.21903C10.6915 2.98234 10.6475 4.10799 9.93652 4.81962L8.93945 5.81571C8.92403 5.83283 8.90864 5.85046 8.89062 5.86552L4.84668 9.90653C4.66266 10.0902 4.42211 10.2078 4.16406 10.2395L2.06347 10.4983C1.90927 10.5174 1.75451 10.4635 1.64551 10.3528C1.53665 10.2419 1.48512 10.0858 1.50683 9.93192L1.81543 7.77372L1.83203 7.68095C1.88055 7.46674 1.98931 7.26978 2.14551 7.11356L7.1875 2.07157L7.33496 1.93778ZM2.85254 7.8206C2.8398 7.83338 2.82923 7.8486 2.82129 7.86454L2.80468 7.91532L2.58886 9.42509L4.04199 9.24638L4.09472 9.23075L4.13965 9.19852L7.93066 5.40946C7.56959 4.88278 7.12163 4.43715 6.59277 4.07938L2.85254 7.8206ZM9.22851 2.77763C8.88278 2.43286 8.33625 2.41181 7.96582 2.71415L7.89453 2.7786L7.30957 3.36259C7.82452 3.73492 8.2717 4.18078 8.64648 4.69364L9.22851 4.11259L9.29394 4.0413C9.59599 3.67068 9.57365 3.12317 9.22851 2.77763Z" fill="currentColor"/>
</svg>
