<svg viewBox="0 0 32 32" fill="none" xmlns="http://www.w3.org/2000/svg">
<path d="M23.0571 3.0572C24.6278 1.48386 27.3718 1.48386 28.9425 3.0572C30.5651 4.67986 30.5651 7.31986 28.9425 8.94253L16.6825 21.2039L8.83447 23.1665L10.7958 15.3185L23.0571 3.0572ZM24.7811 9.3332L27.0571 7.0572C27.6398 6.47453 27.6398 5.5252 27.0571 4.94253C26.4918 4.3772 25.5078 4.3772 24.9425 4.94253L22.6665 7.21853L24.7811 9.3332Z" fill="currentColor"/>
<path d="M6.6665 29.3333H23.9998C26.2052 29.3333 27.9998 27.5387 27.9998 25.3333V17.3333H25.3332V25.3333C25.3332 26.068 24.7358 26.6667 23.9998 26.6667H6.6665C5.9305 26.6667 5.33317 26.068 5.33317 25.3333V8C5.33317 7.26533 5.9305 6.66667 6.6665 6.66667H14.6665V4H6.6665C4.46117 4 2.6665 5.79467 2.6665 8V25.3333C2.6665 27.5387 4.46117 29.3333 6.6665 29.3333Z" fill="currentColor"/>
</svg>
