<svg viewBox="0 0 24 24" fill="none" xmlns="http://www.w3.org/2000/svg">
<path d="M17.293 2.29296C18.471 1.11296 20.529 1.11296 21.707 2.29296C22.924 3.50996 22.924 5.48996 21.707 6.70696L12.512 15.903L6.62598 17.375L8.09698 11.489L17.293 2.29296ZM18.586 6.99996L20.293 5.29296C20.73 4.85596 20.73 4.14396 20.293 3.70696C19.869 3.28296 19.131 3.28296 18.707 3.70696L17 5.41396L18.586 6.99996Z" fill="currentColor"/>
<path d="M5 22H18C19.654 22 21 20.654 21 19V13H19V19C19 19.551 18.552 20 18 20H5C4.448 20 4 19.551 4 19V6C4 5.449 4.448 5 5 5H11V3H5C3.346 3 2 4.346 2 6V19C2 20.654 3.346 22 5 22Z" fill="currentColor"/>
</svg>
