<svg viewBox="0 0 24 24" fill="none" xmlns="http://www.w3.org/2000/svg">
<path d="M12.414 2.08998L23.414 7.08998C23.771 7.25198 24 7.60698 24 7.99998C24 8.39298 23.771 8.74798 23.414 8.90998L12.414 13.91C12.282 13.97 12.141 14 12 14C11.859 14 11.718 13.97 11.586 13.91L0.586 8.90998C0.229 8.74798 0 8.39298 0 7.99998C0 7.60698 0.229 7.25198 0.587 7.08998L11.587 2.08998C11.85 1.97098 12.151 1.97098 12.414 2.08998Z" fill="currentColor"/>
<path d="M12 16C12.43 16 12.847 15.91 13.241 15.73L20 12.659V18C20 20.626 15.976 22 12 22C8.024 22 4 20.626 4 18V12.658L10.76 15.731C11.153 15.91 11.57 16 12 16Z" fill="currentColor"/>
<path d="M24 11H22V17H24V11Z" fill="currentColor"/>
</svg>
