<svg viewBox="0 0 16 16" fill="none" xmlns="http://www.w3.org/2000/svg">
<path d="M6.3284 1.95922C7.38605 1.45824 8.61351 1.45828 9.67118 1.95922L9.89481 2.07347L9.89579 2.07445L14.011 4.36058L14.137 4.43578C15.3494 5.22337 15.3493 7.0143 14.137 7.80199L14.011 7.87718L12.7552 8.57445V10.7493C12.7551 11.5766 12.3671 12.3538 11.7122 12.8508L11.5774 12.9465L10.5061 13.6584C9.08274 14.6053 7.25664 14.6645 5.7825 13.8362L5.49247 13.6584L4.42118 12.9465C3.68679 12.4576 3.24351 11.6329 3.24344 10.7493V8.57445L1.98856 7.87718C0.609022 7.11069 0.608892 5.12696 1.98856 4.36058L6.10379 2.07445L6.10477 2.07347L6.3284 1.95922ZM4.74344 10.7493C4.74351 11.1304 4.93435 11.4864 5.25125 11.6975L6.32157 12.4094C7.3372 13.0847 8.6602 13.0852 9.67508 12.4104L10.7464 11.6975L10.8597 11.6116C11.1086 11.3971 11.2551 11.0829 11.2552 10.7493V9.40843L9.89579 10.1643C8.71703 10.8183 7.28316 10.8185 6.10477 10.1643L4.74344 9.40746V10.7493ZM9.16727 3.38597C8.441 2.98303 7.55855 2.98296 6.83231 3.38597L6.83133 3.385L2.71707 5.67211C2.36624 5.867 2.36637 6.37065 2.71707 6.56566L6.83231 8.85277L6.97 8.92308C7.6675 9.25378 8.48614 9.23075 9.16727 8.85277L13.2825 6.56566L13.345 6.52562C13.6131 6.32329 13.6132 5.91437 13.345 5.71214L13.2825 5.67211L9.16727 3.38597Z" fill="currentColor"/>
</svg>
