<svg viewBox="0 0 32 32" fill="none" xmlns="http://www.w3.org/2000/svg">
<path d="M12.5462 4.25183C14.7862 3.1015 17.4581 3.14 19.6693 4.36706L27.9017 8.9403L28.1371 9.0819C30.4112 10.5593 30.4112 13.918 28.1371 15.3954L27.9017 15.537L25.2601 17.0038V21.4989C25.26 23.0755 24.521 24.5559 23.2728 25.5028L23.0169 25.6844L20.8744 27.1102C18.0137 29.013 14.3163 29.0719 11.4027 27.288L11.1234 27.1102L8.98081 25.6844C7.58121 24.753 6.73779 23.1828 6.73765 21.4989V17.0028L4.09898 15.537C1.51095 14.0994 1.51095 10.3779 4.09898 8.9403L12.3304 4.36706L12.5462 4.25183ZM9.23765 21.4989C9.23779 22.3452 9.66175 23.1349 10.3656 23.6034L12.5082 25.0282L12.7084 25.1561C14.7949 26.4333 17.442 26.3902 19.4896 25.0282L21.6322 23.6034L21.6332 23.6024L21.7621 23.5116C22.3886 23.0362 22.76 22.292 22.7601 21.4989V18.3934L19.6703 20.1102C17.4594 21.3371 14.7853 21.3758 12.5462 20.2255L12.3304 20.1102L9.23765 18.3915V21.4989ZM18.4554 6.55163C17.0232 5.75734 15.3025 5.70885 13.8343 6.40417L13.5443 6.55261L5.31284 11.1259C4.43953 11.6109 4.43953 12.8663 5.31284 13.3514L8.57359 15.163C8.58119 15.167 8.58854 15.1715 8.59605 15.1757L13.5443 17.9247L13.8343 18.0731C15.3014 18.7682 17.023 18.7192 18.4554 17.9247L23.3763 15.1903C23.3978 15.1776 23.4195 15.1656 23.4417 15.1542L26.6878 13.3514L26.8412 13.2518C27.5099 12.7485 27.5098 11.7289 26.8412 11.2255L26.6878 11.1259L18.4554 6.55163Z" fill="currentColor"/>
</svg>
