<svg viewBox="0 0 16 16" fill="none" xmlns="http://www.w3.org/2000/svg">
<path d="M8.27594 1.39323L15.6092 4.72654C15.8472 4.83454 15.9999 5.0712 15.9999 5.3332C15.9999 5.5952 15.8472 5.83186 15.6092 5.93986L8.27594 9.27317C8.18794 9.31317 8.09394 9.33317 7.99994 9.33317C7.90594 9.33317 7.81194 9.31317 7.72394 9.27317L0.390664 5.93986C0.152666 5.83186 0 5.5952 0 5.3332C0 5.0712 0.152666 4.83454 0.39133 4.72654L7.72461 1.39323C7.89994 1.3139 8.10061 1.3139 8.27594 1.39323Z" fill="currentColor"/>
<path d="M16 7.33321H14.6666V11.3332H16V7.33321Z" fill="currentColor"/>
<path d="M8.82735 10.4865C8.56468 10.6065 8.28668 10.6665 8.00002 10.6665C7.71336 10.6665 7.43536 10.6065 7.17336 10.4872L2.66673 8.43852V11.9998C2.66673 13.7505 5.34937 14.6665 8.00002 14.6665C10.6507 14.6665 13.3333 13.7505 13.3333 11.9998V8.43919L8.82735 10.4865Z" fill="currentColor"/>
</svg>
