<svg viewBox="0 0 32 32" fill="none" xmlns="http://www.w3.org/2000/svg">
<path d="M16.5519 2.78647L31.2185 9.45311C31.6945 9.66911 31.9999 10.1424 31.9999 10.6664C31.9999 11.1904 31.6945 11.6638 31.2185 11.8798L16.5519 18.5464C16.3759 18.6264 16.1879 18.6664 15.9999 18.6664C15.8119 18.6664 15.6239 18.6264 15.4479 18.5464L0.78133 11.8798C0.305332 11.6638 0 11.1904 0 10.6664C0 10.1424 0.305332 9.66911 0.782664 9.45311L15.4493 2.78647C15.7999 2.6278 16.2013 2.6278 16.5519 2.78647Z" fill="currentColor"/>
<path d="M32 14.6664H29.3334V22.6664H32V14.6664Z" fill="currentColor"/>
<path d="M17.6548 20.9731C17.1294 21.2131 16.5734 21.3331 16.0001 21.3331C15.4268 21.3331 14.8708 21.2131 14.3468 20.9745L5.33348 16.8771V23.9998C5.33348 27.5011 10.6988 29.3331 16.0001 29.3331C21.3014 29.3331 26.6667 27.5011 26.6667 23.9998V16.8785L17.6548 20.9731Z" fill="currentColor"/>
</svg>
