<svg viewBox="0 0 24 24" fill="none" xmlns="http://www.w3.org/2000/svg">
<path d="M9.54623 3.05213C11.2096 2.26432 13.159 2.32076 14.7816 3.22107L20.9564 6.65076L21.1361 6.75916C22.88 7.8916 22.8799 10.4665 21.1361 11.599L20.9564 11.7074L19.0072 12.7894V16.1234C19.0072 17.4057 18.3666 18.6051 17.2972 19.3158L17.2962 19.3148L15.6908 20.3842C13.525 21.8249 10.7258 21.8693 8.51986 20.5189L8.30795 20.3842L6.70053 19.3148C5.7004 18.6491 5.07301 17.5554 4.99838 16.3637L4.99056 16.1234V12.7885L3.0433 11.7074C1.05975 10.6054 1.05983 7.75285 3.0433 6.65076L9.21713 3.22107L9.54623 3.05213ZM6.99056 16.1234L7.00521 16.3519C7.0711 16.8772 7.36244 17.3525 7.80892 17.6498L9.41537 18.7191L9.7142 18.9017C11.2337 19.7556 13.1158 19.6946 14.5824 18.7191L16.1898 17.6498L16.3714 17.5121C16.7724 17.1667 17.0072 16.6606 17.0072 16.1234V13.9008L14.7826 15.1371C13.16 16.0374 11.2082 16.0943 9.54525 15.306L9.21713 15.1371L6.99056 13.8998V16.1234ZM13.8109 4.96912C12.7542 4.38304 11.4848 4.34666 10.4017 4.85975L10.1878 4.96912L4.014 8.39881C3.40258 8.73903 3.40231 9.61937 4.014 9.95935L6.43588 11.3041C6.46573 11.3189 6.49472 11.3353 6.52279 11.3529L10.1878 13.389L10.4017 13.4984C11.4839 14.0114 12.7541 13.9752 13.8109 13.389L17.4915 11.3431C17.5133 11.33 17.5361 11.3185 17.5589 11.307L19.9847 9.95935L20.0921 9.88904C20.5945 9.51107 20.5586 8.7186 19.9847 8.39978L13.8109 4.96912Z" fill="currentColor"/>
</svg>
