<svg viewBox="0 0 16 16" fill="none" xmlns="http://www.w3.org/2000/svg">
<path d="M6.96192 1.3298C10.2499 0.819932 13.4195 2.78288 14.4277 5.95383C15.4359 9.12512 13.9812 12.5584 11.002 14.0407L10.9316 14.072C10.5762 14.2057 10.1701 14.051 9.99707 13.7038C9.81262 13.3331 9.96332 12.8825 10.334 12.698L10.5479 12.5857C12.72 11.3787 13.7575 8.79823 12.998 6.40891C12.2139 3.94253 9.74879 2.41551 7.19141 2.81223C4.63392 3.20924 2.74764 5.41161 2.74805 7.99973C2.74688 9.45759 3.32659 10.8565 4.3584 11.8864C5.09053 12.6157 6.081 13.024 7.11426 13.0241C7.1706 13.0239 7.21967 12.991 7.24024 12.9421L7.25098 12.8894V10.9167H7.16699C5.92413 10.9167 4.91621 9.90954 4.91602 8.66672V7.83273C4.91622 7.18693 5.34849 6.64289 5.93946 6.47238V5.66574C5.93946 5.25176 6.27557 4.91613 6.68946 4.91574C7.10367 4.91574 7.43946 5.25153 7.43946 5.66574V6.41574H8.55957V5.66574C8.55957 5.25168 8.89557 4.91599 9.30957 4.91574C9.72368 4.91587 10.0596 5.25161 10.0596 5.66574V6.47238C10.6512 6.64253 11.0848 7.18653 11.085 7.83273V8.66672C11.0848 9.90946 10.0767 10.9166 8.83399 10.9167H8.75098V12.8904C8.75035 13.7367 8.10641 14.433 7.28223 14.5173L7.11524 14.5251C5.6848 14.5251 4.31218 13.9584 3.29883 12.9489C1.98475 11.6373 1.24648 9.85544 1.24805 7.99875C1.24809 4.67143 3.67385 1.84019 6.96192 1.3298ZM6.41602 8.66672C6.41621 9.08111 6.75255 9.41672 7.16699 9.41672H8.83399C9.24832 9.41659 9.58477 9.08103 9.58496 8.66672V7.91574H9.3291C9.32261 7.91591 9.31611 7.91672 9.30957 7.91672C9.30312 7.91671 9.29646 7.91591 9.29004 7.91574H6.70899C6.70257 7.9159 6.69591 7.91672 6.68946 7.91672C6.68292 7.91671 6.67642 7.91591 6.66992 7.91574H6.41602V8.66672Z" fill="currentColor"/>
</svg>
