<svg viewBox="0 0 24 24" fill="none" xmlns="http://www.w3.org/2000/svg">
<path d="M10.46 2.11918C15.3318 1.36297 20.0278 4.27132 21.5215 8.96977C23.0151 13.6681 20.8613 18.7543 16.4473 20.9502C15.9529 21.196 15.3525 20.9943 15.1064 20.5C14.8606 20.0058 15.0616 19.4054 15.5557 19.1592C19.0868 17.4026 20.8101 13.3338 19.6152 9.57524C18.4203 5.81703 14.6646 3.49106 10.7676 4.09575C6.87047 4.70079 3.99541 8.05621 3.9961 12C3.99424 14.2195 4.87585 16.3497 6.44629 17.918C7.568 19.0355 9.08769 19.6639 10.6709 19.6641L10.7373 19.6573C10.8869 19.6264 10.9996 19.4937 11 19.335V16.252H10.75C8.95472 16.252 7.49929 14.7962 7.49903 13.001V11.75C7.49922 10.8053 8.15437 10.015 9.03516 9.80571V8.49907C9.03516 7.94685 9.48297 7.49918 10.0352 7.49907C10.5873 7.4992 11.0352 7.94686 11.0352 8.49907V9.75004H12.9648V8.49907C12.9648 7.94685 13.4127 7.49918 13.9648 7.49907C14.517 7.4992 14.9648 7.94686 14.9648 8.49907V9.80571C15.8456 10.015 16.5018 10.8053 16.502 11.75V13.001C16.5017 14.7961 15.046 16.2517 13.251 16.252H13V19.336C12.999 20.6211 11.9571 21.6631 10.6719 21.6641C8.69152 21.6639 6.78564 20.9278 5.32227 19.6075L5.03516 19.335C3.08763 17.391 1.99379 14.7508 1.9961 11.9991C1.99585 7.06966 5.58887 2.8756 10.46 2.11918ZM9.49903 13.001C9.49929 13.6917 10.0593 14.252 10.75 14.252H13.251C13.9415 14.2517 14.5017 13.6915 14.502 13.001V11.75H9.49903V13.001Z" fill="currentColor"/>
</svg>
