<svg viewBox="0 0 32 32" fill="none" xmlns="http://www.w3.org/2000/svg">
<path d="M13.96 2.9084C20.415 1.90652 26.637 5.75934 28.6162 11.9846C30.5951 18.2098 27.741 24.949 21.8926 27.8586C21.2746 28.166 20.5244 27.9139 20.2168 27.2961C19.9093 26.678 20.1612 25.9278 20.7793 25.6203C25.5238 23.2598 27.8395 17.7926 26.2344 12.7424C24.6288 7.69192 19.5806 4.56539 14.3438 5.37813C9.10682 6.19102 5.2442 10.7006 5.24512 16.0002C5.24271 18.9819 6.42714 21.8437 8.53711 23.9504L8.82715 24.2248C10.3048 25.558 12.2281 26.3007 14.2275 26.301C14.5154 26.3006 14.749 26.0681 14.75 25.7805V21.5852H14.332C11.9844 21.5849 10.0811 19.6809 10.0811 17.3332V15.6662C10.0812 14.4225 10.9603 13.3841 12.1309 13.1379V11.3313C12.1309 10.6409 12.6905 10.0813 13.3809 10.0813C14.071 10.0815 14.6308 10.6411 14.6309 11.3313V13.0822H17.3701V11.3313C17.3702 10.6409 17.9298 10.0813 18.6201 10.0813C19.3103 10.0814 19.8701 10.641 19.8701 11.3313V13.1379C21.04 13.3846 21.9178 14.423 21.918 15.6662V17.3332C21.918 19.6811 20.0149 21.5852 17.667 21.5852H17.25V25.7814C17.2485 27.4488 15.8969 28.8006 14.2295 28.802C11.435 28.8019 8.75321 27.6939 6.77344 25.7219L7.65528 24.8361L6.77247 25.7209C4.19144 23.1446 2.74214 19.646 2.74512 15.9992C2.74464 9.46745 7.50541 3.91045 13.96 2.9084ZM12.665 15.5822C12.6189 15.5824 12.5812 15.6201 12.5811 15.6662V17.3332C12.5811 18.3002 13.3651 19.0849 14.332 19.0852H17.667C18.6342 19.0852 19.418 18.3004 19.418 17.3332V15.6662C19.4178 15.62 19.3802 15.5822 19.334 15.5822H12.665Z" fill="currentColor"/>
</svg>
