<svg viewBox="0 0 24 24" fill="none" xmlns="http://www.w3.org/2000/svg">
<path d="M15 12C15 10.3431 13.6569 9 12 9C10.3431 9 9 10.3431 9 12C9 13.6569 10.3431 15 12 15C13.6569 15 15 13.6569 15 12ZM17 13.5C17 14.3284 17.6716 15 18.5 15C19.3284 15 20 14.3284 20 13.5V12C20 7.58172 16.4183 4 12 4C7.58172 4 4 7.58172 4 12C4 16.4183 7.58172 20 12 20H17L17.1025 20.0049C17.6067 20.0562 18 20.4823 18 21C18 21.5177 17.6067 21.9438 17.1025 21.9951L17 22H12C6.47715 22 2 17.5228 2 12C2 6.47715 6.47715 2 12 2C17.5228 2 22 6.47715 22 12V13.5C22 15.433 20.433 17 18.5 17C17.2949 17 16.2321 16.3909 15.6025 15.4639C14.6928 16.4098 13.416 17 12 17C9.23858 17 7 14.7614 7 12C7 9.23858 9.23858 7 12 7L12.2568 7.00684C14.8989 7.14053 17 9.32472 17 12V13.5Z" fill="currentColor"/>
</svg>
