<svg viewBox="0 0 32 32" fill="none" xmlns="http://www.w3.org/2000/svg">
<path d="M20.083 16C20.083 13.7448 18.2552 11.917 16 11.917C13.7448 11.917 11.917 13.7448 11.917 16C11.917 18.2552 13.7448 20.083 16 20.083C18.2552 20.083 20.083 18.2552 20.083 16ZM22.583 18C22.583 19.1506 23.5164 20.083 24.667 20.083C25.8174 20.0828 26.75 19.1505 26.75 18V16C26.75 10.0629 21.9371 5.25 16 5.25C10.0629 5.25 5.25 10.0629 5.25 16C5.25 21.9371 10.0629 26.75 16 26.75H22.667L22.7949 26.7568C23.425 26.8211 23.917 27.353 23.917 28C23.917 28.647 23.425 29.1789 22.7949 29.2432L22.667 29.25H16C8.68223 29.25 2.75 23.3178 2.75 16C2.75 8.68223 8.68223 2.75 16 2.75C23.3178 2.75 29.25 8.68223 29.25 16V18C29.25 20.5312 27.1981 22.5828 24.667 22.583C23.052 22.583 21.6328 21.7474 20.8164 20.4854C19.6146 21.7753 17.9022 22.583 16 22.583C12.3641 22.583 9.41699 19.6359 9.41699 16C9.41699 12.3641 12.3641 9.41699 16 9.41699L16.3389 9.4248C19.8173 9.60116 22.583 12.4778 22.583 16V18Z" fill="currentColor"/>
</svg>
