<svg viewBox="0 0 16 16" fill="none" xmlns="http://www.w3.org/2000/svg">
<path d="M9.91699 8C9.91699 6.94145 9.05855 6.08301 8 6.08301C6.94145 6.08301 6.08301 6.94145 6.08301 8C6.08301 9.05855 6.94145 9.91699 8 9.91699C9.05855 9.91699 9.91699 9.05855 9.91699 8ZM11.417 9C11.417 9.50615 11.8269 9.91682 12.333 9.91699C12.8393 9.91699 13.25 9.50626 13.25 9V8C13.25 5.10051 10.8995 2.75 8 2.75C5.10051 2.75 2.75 5.10051 2.75 8C2.75 10.8995 5.10051 13.25 8 13.25H11.333L11.4102 13.2539C11.7883 13.2924 12.083 13.6117 12.083 14C12.083 14.3883 11.7883 14.7076 11.4102 14.7461L11.333 14.75H8C4.27208 14.75 1.25 11.7279 1.25 8C1.25 4.27208 4.27208 1.25 8 1.25C11.7279 1.25 14.75 4.27208 14.75 8V9C14.75 10.3347 13.6677 11.417 12.333 11.417C11.5373 11.4169 10.8338 11.0301 10.3936 10.4365C9.77704 11.0422 8.93255 11.417 8 11.417C6.11303 11.417 4.58301 9.88697 4.58301 8C4.58301 6.11303 6.11303 4.58301 8 4.58301L8.17578 4.58789C9.98106 4.67938 11.417 6.17198 11.417 8V9Z" fill="currentColor"/>
</svg>
