<svg viewBox="0 0 16 16" fill="none" xmlns="http://www.w3.org/2000/svg">
<path d="M4.0332 2.58301C5.93866 2.58301 7.48308 4.12817 7.48438 6.03223C7.48439 6.06677 7.4783 6.1009 7.47363 6.13477L10.5488 10.2021L10.6201 10.3066C10.8711 10.7113 10.8883 11.2103 10.6855 11.625L11.0117 11.9512L11.082 12.0146C11.4459 12.3107 11.9833 12.29 12.3223 11.9512C12.6612 11.6123 12.6818 11.0748 12.3857 10.7109L12.3223 10.6406L10.6777 8.99512C9.75087 8.06822 9.75085 6.56653 10.6777 5.63965C11.6046 4.71286 13.1063 4.71281 14.0332 5.63965L15.1973 6.80371L15.249 6.86035C15.4888 7.15492 15.4717 7.58984 15.1973 7.86426C14.9228 8.13858 14.4879 8.15581 14.1934 7.91602L14.1367 7.86426L12.9727 6.7002C12.6316 6.35915 12.0794 6.35919 11.7383 6.7002C11.3972 7.04129 11.3972 7.59346 11.7383 7.93457L12.5791 8.77637L13.3828 9.5791L13.5488 9.76367C14.3259 10.7167 14.2711 12.1235 13.3828 13.0117C12.4945 13.8999 11.0878 13.9548 10.1348 13.1777L9.95117 13.0117L9.62402 12.6846C9.17237 12.9055 8.62184 12.8666 8.20215 12.5508L8.20117 12.5498L4.13184 9.47266C4.09918 9.477 4.06647 9.4834 4.0332 9.4834C2.12823 9.48301 0.583008 7.93875 0.583008 6.0332C0.58346 4.12828 2.12826 2.58339 4.0332 2.58301ZM5.3291 8.49805L9.01172 11.2822L9.28125 11.0127L6.49707 7.33008L5.3291 8.49805ZM4.0332 4.08301C2.95669 4.08339 2.08346 4.95671 2.08301 6.0332C2.08301 7.01185 2.80492 7.82027 3.74512 7.95996L5.95996 5.74609C5.82031 4.80574 5.01225 4.08301 4.0332 4.08301Z" fill="currentColor"/>
</svg>
