<svg viewBox="0 0 24 24" fill="none" xmlns="http://www.w3.org/2000/svg">
<path d="M6.05078 4C8.84031 4 11.1003 6.26212 11.1016 9.0498C11.1016 9.11356 11.0948 9.17655 11.083 9.23828L15.7236 15.3779L15.8252 15.5254C16.1943 16.1208 16.2026 16.8613 15.875 17.46L16.4287 18.0137L16.5439 18.1182C17.1389 18.6029 18.017 18.568 18.5713 18.0137C19.1254 17.4593 19.1605 16.5812 18.6758 15.9863L18.5713 15.8711L16.1045 13.4043C14.763 12.0628 14.763 9.88839 16.1045 8.54688C17.446 7.20563 19.6205 7.20548 20.9619 8.54688L22.708 10.293L22.7764 10.3691C23.0962 10.7617 23.0736 11.341 22.708 11.707C22.342 12.073 21.7619 12.0964 21.3691 11.7764L21.2939 11.707L19.5479 9.96094C18.9875 9.40059 18.079 9.40074 17.5186 9.96094C16.9581 10.5214 16.9581 11.4298 17.5186 11.9902L19.9854 14.457L20.1104 14.5879C21.3567 15.9676 21.3148 18.0991 19.9854 19.4287C18.6558 20.7579 16.5251 20.799 15.1455 19.5527L15.0146 19.4287L14.4619 18.876C13.812 19.2324 12.995 19.1892 12.3789 18.7256L12.377 18.7246L6.23633 14.082C6.17549 14.0935 6.11355 14.1006 6.05078 14.1006C3.26192 14.1005 1 11.8403 1 9.05078C1.00012 6.26167 3.26167 4.00012 6.05078 4ZM7.80469 12.7607L13.5293 17.0889L14.0879 16.5303L9.75977 10.8057L7.80469 12.7607ZM6.05078 6C4.36624 6.00012 3.00012 7.36624 3 9.05078C3 10.6034 4.16085 11.8831 5.66211 12.0742L9.0752 8.66113C8.88327 7.16068 7.60326 6 6.05078 6Z" fill="currentColor"/>
</svg>
