<svg viewBox="0 0 32 32" fill="none" xmlns="http://www.w3.org/2000/svg">
<path d="M8.06836 5.41699C11.7416 5.41714 14.7181 8.39557 14.7197 12.0664L14.7139 12.1904C14.7089 12.2407 14.6985 12.2899 14.6875 12.3389L20.8994 20.5547L21.0293 20.7441C21.5172 21.531 21.5188 22.5152 21.0645 23.2969L21.8447 24.0771L22.0049 24.2217C22.8309 24.8953 24.0505 24.8469 24.8203 24.0771C25.5898 23.3073 25.6374 22.0886 24.9639 21.2627L24.8203 21.1025L21.5303 17.8135C19.7744 16.0574 19.7746 13.2112 21.5303 11.4551C23.2864 9.69898 26.1325 9.6991 27.8887 11.4551L30.2168 13.7832L30.3027 13.8779C30.7031 14.3689 30.6744 15.0932 30.2168 15.5508C29.7591 16.0081 29.0348 16.0371 28.5439 15.6367L28.4492 15.5508L26.1211 13.2227C25.3413 12.443 24.0786 12.4431 23.2988 13.2227C22.5191 14.0025 22.5191 15.2661 23.2988 16.0459L26.5879 19.335L26.751 19.5068C28.3833 21.3137 28.3292 24.1044 26.5879 25.8457C24.8466 27.5867 22.0558 27.641 20.249 26.0088L20.0771 25.8457L19.2959 25.0645C18.4493 25.5567 17.3675 25.5122 16.5557 24.9014L16.5537 24.9004L8.33594 18.6875C8.24859 18.7067 8.15917 18.7187 8.06836 18.7188C4.39587 18.7188 1.41721 15.7416 1.41699 12.0684C1.41699 8.39534 4.39534 5.41699 8.06836 5.41699ZM10.2803 17.0234L18.0469 22.8955L18.8945 22.0479L13.0225 14.2812L10.2803 17.0234ZM8.06836 7.91699C5.77605 7.91699 3.91699 9.77605 3.91699 12.0684C3.91719 14.1946 5.51715 15.9464 7.5791 16.1885L12.1895 11.5791C11.9468 9.51761 10.1949 7.91713 8.06836 7.91699Z" fill="currentColor"/>
</svg>
