<svg viewBox="0 0 32 32" fill="none" xmlns="http://www.w3.org/2000/svg">
<path d="M24.6268 10.9443C25.1187 10.5242 25.8425 10.5522 26.3006 10.9893L26.3885 11.083L26.7489 11.5156C27.4592 12.3906 28.1076 13.323 28.6688 14.2939L28.9422 14.7822L29.0145 14.9277C29.3471 15.6496 29.3257 16.4912 28.952 17.1982C28.9485 17.2049 28.9458 17.2121 28.9422 17.2188C27.605 19.6917 25.6991 22.0073 23.4871 23.7168C21.292 25.4132 18.7135 26.5705 16.0369 26.5811L15.9998 26.584L15.5135 26.5713C14.382 26.5123 13.2714 26.2498 12.2098 25.8389L12.0926 25.7871C11.5284 25.4999 11.2619 24.8259 11.495 24.2227C11.7441 23.5789 12.4684 23.2588 13.1121 23.5078L13.4764 23.6406C14.2038 23.889 14.9299 24.0369 15.6434 24.0742L15.9871 24.083C15.9914 24.083 15.9956 24.083 15.9998 24.083C17.9699 24.083 20.0376 23.2231 21.9578 21.7393C23.871 20.2607 25.5567 18.2221 26.742 16.0303C26.7461 16.0226 26.7488 16.0127 26.7489 16.001C26.7488 15.9891 26.7462 15.9784 26.742 15.9707C26.2006 14.9697 25.545 13.9992 24.8084 13.0918L24.4881 12.7061L24.41 12.6055C24.0492 12.0846 24.1347 11.3647 24.6268 10.9443Z" fill="currentColor"/>
<path d="M24.45 5.7832C24.9382 5.29521 25.7295 5.2951 26.2176 5.7832C26.7054 6.27133 26.7055 7.06273 26.2176 7.55078L7.55062 26.2178C7.06257 26.7056 6.27116 26.7055 5.78304 26.2178C5.29496 25.7297 5.2951 24.9384 5.78304 24.4502L7.4266 22.8057C5.67825 21.2241 4.17055 19.2767 3.05746 17.2188L3.05648 17.2178C2.64746 16.4595 2.64757 15.5425 3.05648 14.7842L3.05746 14.7832L3.31429 14.3213C4.63355 12.0223 6.43876 9.88607 8.51254 8.2832C10.7177 6.57892 13.3102 5.41709 15.9998 5.41699C18.3339 5.41708 20.5954 6.29273 22.5936 7.63867L24.45 5.7832ZM15.9998 7.91699C14.0298 7.91709 11.9611 8.77758 10.0409 10.2617C8.12772 11.7405 6.44194 13.7792 5.25668 15.9717C5.25273 15.9793 5.24984 15.9895 5.24984 16.001C5.24988 16.0121 5.25289 16.0218 5.25668 16.0293L5.48421 16.4385C6.46611 18.1481 7.74854 19.7453 9.19613 21.0352L11.366 18.8662C10.0634 16.7644 10.3225 13.9695 12.1463 12.1455C13.9703 10.3216 16.7652 10.0626 18.867 11.3652L20.786 9.44629C19.2119 8.46752 17.5744 7.91707 15.9998 7.91699ZM17.0067 13.2256C15.9638 12.8484 14.7508 13.0781 13.9149 13.9141C13.0791 14.75 12.8491 15.963 13.2264 17.0059L17.0067 13.2256Z" fill="currentColor"/>
</svg>
