<svg viewBox="0 0 24 24" fill="none" xmlns="http://www.w3.org/2000/svg">
<path d="M17.808 4.77741L21.9995 0.585938L23.4137 2.00015L1.99966 23.4142L0.585449 22L4.57308 18.0123C1.80653 15.6243 0.325086 12.6431 0.225137 12.4349L0.0151367 11.9999L0.225137 11.5649C0.394137 11.2149 4.44814 2.99994 11.9991 3.00094C14.253 3.00094 16.1891 3.73891 17.808 4.77741ZM14.0296 8.55576C13.4342 8.20345 12.7399 8.00094 11.9991 8.00094C9.79314 8.00094 7.99914 9.79494 7.99914 12.0009C7.99914 12.7417 8.20165 13.436 8.55396 14.0314L14.0296 8.55576Z" fill="currentColor"/>
<path d="M20.861 7.38106L15.973 12.2691C15.838 14.2561 14.257 15.8371 12.27 15.9721L8.04199 20.2001C9.23199 20.6921 10.55 20.9991 12 20.9991C19.551 20.9991 23.606 12.7841 23.775 12.4341L23.985 11.9991L23.775 11.5641C23.694 11.3961 22.702 9.40206 20.861 7.38106Z" fill="currentColor"/>
</svg>
