<svg viewBox="0 0 16 16" fill="none" xmlns="http://www.w3.org/2000/svg">
<path d="M12.2322 5.37695C12.5275 5.12482 12.9623 5.14172 13.2371 5.4043L13.2899 5.45996L13.6492 5.90234C13.9975 6.35419 14.3117 6.8342 14.5809 7.33203L14.6551 7.49219C14.8025 7.87299 14.7783 8.30373 14.5819 8.66797L14.5809 8.66895L14.3143 9.13281C13.6615 10.2069 12.801 11.1999 11.8201 11.958C10.7033 12.8209 9.38052 13.417 7.99982 13.417C7.9877 13.417 7.97567 13.4156 7.96369 13.415L7.7508 13.4102C7.25297 13.3842 6.76424 13.2818 6.29377 13.1211L6.06037 13.0361L5.99006 13.0049C5.65116 12.8326 5.49147 12.4276 5.63166 12.0654C5.77206 11.7035 6.16259 11.5123 6.52912 11.6133L6.60139 11.6367L6.77912 11.7012C7.13332 11.8221 7.48483 11.8942 7.82893 11.9121L7.99982 11.916H8.01154C8.95703 11.9127 9.96026 11.4992 10.9022 10.7715C11.8307 10.0539 12.6515 9.06468 13.2352 8C13.0118 7.59296 12.7516 7.19568 12.4608 6.81836L12.1492 6.43457L12.1024 6.37402C11.8857 6.06152 11.937 5.62925 12.2322 5.37695Z" fill="currentColor"/>
<path d="M12.1365 2.80273C12.4294 2.51021 12.9043 2.51012 13.1971 2.80273C13.4899 3.09552 13.4897 3.57036 13.1971 3.86328L5.18732 11.873C5.17931 11.8817 5.17027 11.8893 5.16193 11.8975L3.86408 13.1963C3.57119 13.4892 3.09643 13.4892 2.80353 13.1963C2.51082 12.9034 2.5107 12.4286 2.80353 12.1357L3.534 11.4043C2.69015 10.6201 1.96081 9.67098 1.41877 8.66895L1.41779 8.66797C1.19351 8.25182 1.19333 7.74811 1.41779 7.33203L1.68537 6.86719C2.33819 5.7929 3.1986 4.80015 4.17951 4.04199C5.29627 3.17889 6.61914 2.58314 7.99982 2.58301C9.16386 2.58305 10.2862 3.00861 11.2791 3.65918L12.1365 2.80273ZM7.99982 4.08301C7.05085 4.08315 6.04228 4.49852 5.0965 5.22949C4.1681 5.94718 3.34708 6.93515 2.7635 8C3.23922 8.86754 3.87511 9.68172 4.59553 10.3428L5.52717 9.41211C4.9049 8.32374 5.05604 6.91352 5.98518 5.98438C6.91432 5.05523 8.32454 4.9041 9.41291 5.52637L10.1912 4.74707C9.46203 4.31893 8.71405 4.08304 7.99982 4.08301ZM8.26252 6.67578C7.83584 6.59182 7.37625 6.71439 7.04572 7.04492C6.71519 7.37546 6.59261 7.83504 6.67658 8.26172L8.26252 6.67578Z" fill="currentColor"/>
</svg>
