<svg viewBox="0 0 24 24" fill="none" xmlns="http://www.w3.org/2000/svg">
<path d="M11.9998 4C13.7489 4.00006 15.4408 4.65039 16.9363 5.64844L18.2928 4.29297L18.3689 4.22461C18.7617 3.90427 19.3407 3.92687 19.7068 4.29297C20.0729 4.65908 20.0955 5.23809 19.7752 5.63086L19.7068 5.70703L14.9441 10.4688C14.9409 10.472 14.9386 10.4762 14.9353 10.4795C14.9321 10.4828 14.9279 10.4851 14.9246 10.4883L10.4891 14.9238C10.4859 14.9271 10.4835 14.9313 10.4803 14.9346C10.477 14.9378 10.4728 14.9402 10.4695 14.9434L7.69706 17.7148C7.67555 17.7387 7.65296 17.7609 7.62968 17.7822L5.70682 19.707C5.3163 20.0975 4.68328 20.0975 4.29276 19.707C3.90227 19.3165 3.90227 18.6835 4.29276 18.293L5.47733 17.1064C4.18159 15.9233 3.06551 14.4732 2.23807 12.9434L2.2371 12.9424C1.92065 12.3553 1.92064 11.6456 2.2371 11.0586L2.23807 11.0576L2.43143 10.71C3.42458 8.9792 4.78325 7.37066 6.3455 6.16309C8.00652 4.87931 9.96455 4.00008 11.9998 4ZM11.9998 6C10.5403 6.00009 9.00213 6.63761 7.56913 7.74512C6.14388 8.84672 4.88576 10.3655 4.00077 12C4.74341 13.3709 5.74864 14.6598 6.89432 15.6904L8.44413 14.1406C7.48204 12.5452 7.68964 10.442 9.0662 9.06543C10.4428 7.68885 12.546 7.48128 14.1414 8.44336L15.4881 7.0957C14.3362 6.3927 13.1438 6.00006 11.9998 6ZM12.6375 9.94727C11.8999 9.71896 11.0641 9.89564 10.4803 10.4795C9.89642 11.0634 9.71971 11.8992 9.94804 12.6367L12.6375 9.94727Z" fill="currentColor"/>
<path d="M18.4295 8.16016C18.8233 7.82405 19.403 7.84692 19.7693 8.19727L19.8396 8.27148L20.1101 8.59668C20.6451 9.25556 21.1327 9.95801 21.5555 10.6895L21.7615 11.0576L21.8182 11.1699C22.0617 11.6988 22.0564 12.3089 21.8103 12.8369C21.796 12.8728 21.7803 12.9085 21.7615 12.9434C20.7548 14.8052 19.3196 16.549 17.6531 17.8369C15.992 19.1206 14.0351 20 11.9998 20L11.6316 19.9912C10.8979 19.9529 10.1761 19.8021 9.48026 19.5645L9.13456 19.4385L9.04179 19.3965C8.5899 19.1669 8.37662 18.6274 8.56327 18.1445C8.75016 17.6617 9.27082 17.4068 9.75956 17.541L9.85721 17.5732L10.1277 17.6719C10.6685 17.8565 11.2074 17.9656 11.7361 17.9932L11.9998 18C13.4594 18 14.9973 17.3624 16.4305 16.2549C17.856 15.1532 19.1118 13.6333 19.9969 11.999C19.5936 11.2548 19.1065 10.5336 18.5584 9.8584L18.3182 9.57031L18.2557 9.48926C17.9673 9.07259 18.0359 8.49637 18.4295 8.16016Z" fill="currentColor"/>
</svg>
