<svg viewBox="0 0 16 16" fill="none" xmlns="http://www.w3.org/2000/svg">
<path d="M11.872 3.18501L14.6664 0.390625L15.6092 1.33343L1.33319 15.6094L0.390381 14.6666L3.04872 12.0083C1.2043 10.4163 0.216644 8.42873 0.15001 8.28996L0.0100098 7.99996L0.15001 7.70996C0.262676 7.47662 2.96534 1.99996 7.99934 2.00062C9.50199 2.00062 10.7927 2.49264 11.872 3.18501ZM9.35312 5.7039C8.95613 5.46899 8.49322 5.33396 7.99934 5.33396C6.52868 5.33396 5.33268 6.52996 5.33268 8.00062C5.33268 8.49451 5.46771 8.95741 5.70262 9.3544L9.35312 5.7039Z" fill="currentColor"/>
<path d="M13.9073 4.92055L10.6487 8.17921C10.5587 9.50388 9.50466 10.5579 8.17999 10.6479L5.36133 13.4665C6.15466 13.7945 7.03333 13.9992 7.99999 13.9992C13.034 13.9992 15.7373 8.52254 15.85 8.28921L15.99 7.99921L15.85 7.70921C15.796 7.59721 15.1347 6.26788 13.9073 4.92055Z" fill="currentColor"/>
</svg>
