<svg viewBox="0 0 32 32" fill="none" xmlns="http://www.w3.org/2000/svg">
<path d="M23.7437 6.37007L29.3325 0.78125L31.2182 2.66687L2.66614 31.2189L0.780518 29.3333L6.09719 24.0166C2.40851 20.8326 0.433285 16.8577 0.30002 16.5802L0.0200195 16.0002L0.30002 15.4202C0.525353 14.9535 5.93069 4.00016 15.9987 4.00149C19.0038 4.00149 21.5852 4.98542 23.7437 6.37007ZM18.7059 11.4079C17.912 10.9381 16.9863 10.6682 15.9987 10.6682C13.0574 10.6682 10.6654 13.0602 10.6654 16.0015C10.6654 16.9891 10.9353 17.9148 11.4051 18.7087L18.7059 11.4079Z" fill="currentColor"/>
<path d="M27.8147 9.84133L21.2973 16.3587C21.1173 19.008 19.0093 21.116 16.36 21.296L10.7227 26.9333C12.3093 27.5893 14.0667 27.9987 16 27.9987C26.068 27.9987 31.4747 17.0453 31.7 16.5787L31.98 15.9987L31.7 15.4187C31.592 15.1947 30.2693 12.536 27.8147 9.84133Z" fill="currentColor"/>
</svg>
