<svg viewBox="0 0 16 16" fill="none" xmlns="http://www.w3.org/2000/svg">
<path d="M15.85 7.71C15.7373 7.47667 13.0333 2 8.00001 2C2.96668 2 0.262676 7.47667 0.15001 7.71L0.0100098 8L0.15001 8.29C0.262676 8.52333 2.96601 14 8.00001 14C13.034 14 15.7373 8.52333 15.85 8.29L15.99 8L15.85 7.71ZM8.00001 10.6667C6.52934 10.6667 5.33334 9.47067 5.33334 8C5.33334 6.52933 6.52934 5.33333 8.00001 5.33333C9.47068 5.33333 10.6667 6.52933 10.6667 8C10.6667 9.47067 9.47068 10.6667 8.00001 10.6667Z" fill="currentColor"/>
</svg>
