<svg viewBox="0 0 16 16" fill="none" xmlns="http://www.w3.org/2000/svg">
<path d="M6.05555 6.05566C7.1105 5.00072 8.80693 4.98432 9.88465 6.00195L9.88758 6.00391L9.94422 6.05566L10.1337 6.26465C11.0143 7.34477 10.9509 8.93765 9.94422 9.94434C8.87028 11.0182 7.12947 11.0182 6.05555 9.94434C4.98171 8.87041 4.98171 7.12959 6.05555 6.05566ZM8.78895 7.03027C8.29798 6.62987 7.57373 6.65858 7.1161 7.11621C6.62804 7.60435 6.62804 8.39565 7.1161 8.88379C7.60423 9.37192 8.39552 9.37187 8.88368 8.88379C9.34134 8.42613 9.37009 7.7019 8.96961 7.21094L8.88368 7.11621L8.78895 7.03027Z" fill="currentColor"/>
<path d="M7.99989 2.58301C9.38057 2.58306 10.7034 3.17894 11.8202 4.04199C12.8011 4.80011 13.6615 5.79298 14.3143 6.86719L14.5809 7.33203L14.6552 7.49219C14.7813 7.8184 14.7813 8.18158 14.6552 8.50781L14.5809 8.66797C13.9048 9.91842 12.941 11.0908 11.8202 11.957C10.7034 12.8201 9.38071 13.416 7.99989 13.416C6.61909 13.4159 5.2964 12.8202 4.17957 11.957C3.19891 11.199 2.33815 10.2068 1.68543 9.13281L1.41883 8.66797L1.41786 8.66699C1.19375 8.25105 1.1937 7.74796 1.41786 7.33203L1.41883 7.33105L1.68543 6.86621C2.33825 5.79228 3.19872 4.8 4.17957 4.04199C5.29638 3.17892 6.61911 2.58309 7.99989 2.58301ZM7.99989 4.08301C7.05085 4.08309 6.04242 4.49853 5.09657 5.22949C4.16823 5.94703 3.34715 6.93459 2.76356 7.99902C3.34718 9.06404 4.16803 10.0527 5.09657 10.7705C6.04241 11.5015 7.05085 11.9159 7.99989 11.916C8.94886 11.916 9.95642 11.5014 10.9022 10.7705C11.8308 10.0529 12.6515 9.06465 13.2352 8C12.6516 6.93517 11.8307 5.94708 10.9022 5.22949C9.95645 4.4986 8.94883 4.08306 7.99989 4.08301Z" fill="currentColor"/>
</svg>
