<svg viewBox="0 0 24 24" fill="none" xmlns="http://www.w3.org/2000/svg">
<path d="M9.17191 9.17188C10.734 7.60979 13.2661 7.6098 14.8282 9.17188L14.9707 9.32129C16.389 10.8915 16.3413 13.315 14.8282 14.8281C13.2661 16.3902 10.734 16.3902 9.17191 14.8281C7.60985 13.266 7.60985 10.734 9.17191 9.17188ZM13.2627 10.4482C12.4772 9.80747 11.3182 9.85368 10.586 10.5859C9.80496 11.367 9.80496 12.633 10.586 13.4141C11.367 14.1951 12.6331 14.1951 13.4141 13.4141C14.1464 12.6818 14.1926 11.5229 13.5518 10.7373L13.4141 10.5859L13.2627 10.4482Z" fill="currentColor"/>
<path d="M12 4C14.0352 4.00007 15.9924 4.87937 17.6534 6.16309C19.2157 7.37062 20.5742 8.97915 21.5674 10.71L21.7618 11.0576L21.8174 11.1699C22.0773 11.7339 22.0587 12.3918 21.7618 12.9424C20.7551 14.8041 19.3198 16.549 17.6534 17.8369C15.9924 19.1205 14.0352 19.9999 12 20C9.96479 19.9999 8.00676 19.1207 6.34574 17.8369C4.67941 16.5489 3.24494 14.8045 2.23832 12.9424L2.23734 12.9414C1.92088 12.3544 1.92089 11.6447 2.23734 11.0576L2.23832 11.0566L2.43168 10.709C3.42481 8.97871 4.78354 7.37052 6.34574 6.16309C8.00674 4.87946 9.9648 4.00008 12 4ZM12 6C10.5405 6.00009 9.00241 6.6377 7.56937 7.74512C6.14413 8.84659 4.886 10.365 4.00101 11.999C4.88603 13.6338 6.14391 15.1531 7.56937 16.2549C9.00238 17.3624 10.5405 17.9999 12 18C13.4596 17.9999 14.9977 17.3623 16.4307 16.2549C17.856 15.1534 19.1121 13.634 19.9971 12C19.1121 10.3658 17.8558 8.84655 16.4307 7.74512C14.9977 6.63761 13.4595 6.00007 12 6Z" fill="currentColor"/>
</svg>
