<svg viewBox="0 0 32 32" fill="none" xmlns="http://www.w3.org/2000/svg">
<path d="M12.2881 12.2881C14.3384 10.2378 17.6617 10.2379 19.7119 12.2881L19.8985 12.4834C21.7606 14.5443 21.6982 17.7257 19.7119 19.7119C17.6617 21.7621 14.3384 21.7622 12.2881 19.7119C10.2379 17.6617 10.2379 14.3383 12.2881 12.2881ZM17.7354 13.8662C16.6553 12.9856 15.0624 13.049 14.0557 14.0557C12.9818 15.1296 12.9818 16.8704 14.0557 17.9443C15.1296 19.0183 16.8704 19.0183 17.9444 17.9443C18.951 16.9377 19.0144 15.3448 18.1338 14.2646L17.9444 14.0557L17.7354 13.8662Z" fill="currentColor"/>
<path d="M16 5.41699C18.6897 5.41709 21.2821 6.57886 23.4873 8.2832C25.5611 9.88605 27.3653 12.0223 28.6846 14.3213L28.9424 14.7832L29.0147 14.9277C29.3504 15.6562 29.326 16.5067 28.9424 17.2178L28.9414 17.2188C27.6042 19.6916 25.6992 22.0084 23.4873 23.7178C21.2822 25.4218 18.6895 26.5839 16 26.584C13.3105 26.5839 10.7178 25.422 8.51272 23.7178C6.43894 22.115 4.63377 19.9786 3.31448 17.6797L3.05764 17.2178L3.05666 17.2168C2.64762 16.4586 2.64793 15.5415 3.05666 14.7832L3.05764 14.7822L3.31448 14.3203C4.63374 12.0219 6.43892 9.88595 8.51272 8.2832C10.7179 6.57907 13.3104 5.4171 16 5.41699ZM16 7.91699C14.03 7.91711 11.9613 8.77682 10.041 10.2607C8.12775 11.7394 6.44217 13.7787 5.25686 15.9707C5.25302 15.9783 5.25002 15.9887 5.25002 16C5.25014 16.0111 5.25305 16.0209 5.25686 16.0283L5.4844 16.4375C6.65331 18.4738 8.24713 20.3527 10.041 21.7393C11.9613 23.2234 14.03 24.0839 16 24.084C17.97 24.0839 20.0379 23.2231 21.958 21.7393C23.8713 20.2607 25.5568 18.2221 26.7422 16.0303C26.7462 16.0227 26.749 16.0125 26.749 16.001C26.749 15.9891 26.7463 15.9784 26.7422 15.9707C25.5569 13.7786 23.8709 11.7402 21.958 10.2617C20.0378 8.77762 17.9701 7.91709 16 7.91699Z" fill="currentColor"/>
</svg>
