<svg viewBox="0 0 32 32" fill="none" xmlns="http://www.w3.org/2000/svg">
<path d="M14.1144 6.11438C13.6143 6.61448 13.3333 7.29276 13.3333 8V9.33333H0C0 3.83867 3.28933 0 8 0H24C24.7072 0 25.3855 0.280952 25.8856 0.781049C26.3857 1.28115 26.6667 1.95942 26.6667 2.66667C26.6667 3.37391 26.3857 4.05219 25.8856 4.55228C25.3855 5.05238 24.7072 5.33333 24 5.33333H16C15.2928 5.33333 14.6145 5.61428 14.1144 6.11438Z" fill="currentColor"/>
<path d="M0 12H29.3333C30.0406 12 30.7189 12.281 31.219 12.781C31.719 13.2811 32 13.9594 32 14.6667V17.3333C32 17.687 31.8595 18.0261 31.6095 18.2761C31.3594 18.5262 31.0203 18.6667 30.6667 18.6667H17.3333C16.2725 18.6667 15.2551 19.0881 14.5049 19.8382C13.7548 20.5884 13.3333 21.6058 13.3333 22.6667V30.6667C13.3333 31.0203 13.1929 31.3594 12.9428 31.6095C12.6928 31.8595 12.3536 32 12 32H1.33333C0.979711 32 0.640573 31.8595 0.390524 31.6095C0.140476 31.3594 0 31.0203 0 30.6667V12Z" fill="currentColor"/>
</svg>
