<svg viewBox="0 0 16 16" fill="none" xmlns="http://www.w3.org/2000/svg">
<path d="M7.05719 3.05719C6.80714 3.30724 6.66667 3.64638 6.66667 4V4.66667H0C0 1.91933 1.64467 0 4 0H12C12.3536 0 12.6928 0.140476 12.9428 0.390524C13.1929 0.640573 13.3333 0.979711 13.3333 1.33333C13.3333 1.68696 13.1929 2.02609 12.9428 2.27614C12.6928 2.52619 12.3536 2.66667 12 2.66667H8C7.64638 2.66667 7.30724 2.80714 7.05719 3.05719Z" fill="currentColor"/>
<path d="M0 6H14.6667C15.0203 6 15.3594 6.14048 15.6095 6.39052C15.8595 6.64057 16 6.97971 16 7.33333V8.66667C16 8.84348 15.9298 9.01305 15.8047 9.13807C15.6797 9.2631 15.5101 9.33333 15.3333 9.33333H8.66667C8.13623 9.33333 7.62753 9.54405 7.25245 9.91912C6.87738 10.2942 6.66667 10.8029 6.66667 11.3333V15.3333C6.66667 15.5101 6.59643 15.6797 6.4714 15.8047C6.34638 15.9298 6.17681 16 6 16H0.666667C0.489856 16 0.320286 15.9298 0.195262 15.8047C0.0702379 15.6797 0 15.5101 0 15.3333V6Z" fill="currentColor"/>
</svg>
