<svg viewBox="0 0 16 16" fill="none" xmlns="http://www.w3.org/2000/svg">
<path d="M9.91406 1.92969C11.1325 2.05361 12.083 3.08284 12.083 4.33398V4.66699C12.0828 5.08106 11.7471 5.41699 11.333 5.41699C10.9191 5.41682 10.5832 5.08095 10.583 4.66699V4.33398C10.583 3.82783 10.1731 3.41717 9.66699 3.41699C9.16073 3.41699 8.75 3.82772 8.75 4.33398V8.58301H10.583V7.33301C10.583 7.28935 10.5875 7.24669 10.5947 7.20508C10.6035 7.15417 10.6182 7.10544 10.6367 7.05859C10.6794 6.95061 10.7464 6.85598 10.8311 6.7793C10.9202 6.69831 11.028 6.63905 11.1484 6.6084C11.2076 6.59335 11.2691 6.58303 11.333 6.58301H13.333L13.4102 6.58691C13.788 6.62551 14.0828 6.94498 14.083 7.33301C14.083 7.72116 13.7881 8.04046 13.4102 8.0791L13.333 8.08301H12.083V8.58301H14.666L14.7432 8.58691C15.1212 8.62536 15.4159 8.94487 15.416 9.33301C15.416 9.72127 15.1213 10.0406 14.7432 10.0791L14.666 10.083H14.6426L14.3779 11.7725C14.1268 13.379 12.814 14.5901 11.2217 14.7354L10.8994 14.75H5.10059C3.4743 14.7499 2.07564 13.639 1.68652 12.0879L1.62207 11.7725L1.35742 10.083H1.33301C0.918944 10.0828 0.583008 9.74711 0.583008 9.33301C0.583184 8.91905 0.919052 8.58318 1.33301 8.58301H3.91602V8.08301H2.66699C2.25278 8.08301 1.91699 7.74722 1.91699 7.33301C1.91717 6.91894 2.25289 6.58301 2.66699 6.58301H4.66699L4.74414 6.58691H4.74707C4.77984 6.59042 4.8114 6.59886 4.84277 6.60645C4.87295 6.61374 4.90203 6.62297 4.93066 6.63379C4.94551 6.6394 4.96023 6.64486 4.97461 6.65137C5.00268 6.66408 5.02956 6.67839 5.05566 6.69434C5.07059 6.70345 5.08539 6.71255 5.09961 6.72266C5.12385 6.73989 5.14598 6.75937 5.16797 6.7793C5.18064 6.79078 5.19322 6.80214 5.20508 6.81445C5.22745 6.83769 5.24735 6.86271 5.2666 6.88867C5.27465 6.89951 5.28355 6.90962 5.29102 6.9209C5.30831 6.94705 5.32294 6.97462 5.33691 7.00293C5.34477 7.01885 5.35362 7.03425 5.36035 7.05078C5.37252 7.08064 5.38039 7.11193 5.38867 7.14355C5.39245 7.15796 5.39844 7.1718 5.40137 7.18652C5.40259 7.19266 5.40323 7.19889 5.4043 7.20508C5.41024 7.23953 5.41299 7.27466 5.41406 7.31055C5.41429 7.31803 5.41699 7.32547 5.41699 7.33301C5.41699 7.33627 5.41606 7.33952 5.41602 7.34277V8.58301H7.25V4.33398C7.25 3.02537 8.29024 1.96301 9.58887 1.92188C9.61447 1.91923 9.64069 1.91699 9.66699 1.91699L9.91406 1.92969ZM3.10449 11.541L3.14062 11.7217C3.36386 12.6121 4.16706 13.2499 5.10059 13.25H10.8994L11.084 13.2412C11.998 13.158 12.7513 12.4631 12.8955 11.541L13.123 10.083H8.01953C8.01304 10.0832 8.00653 10.084 8 10.084C7.99347 10.084 7.98696 10.0832 7.98047 10.083H2.87695L3.10449 11.541Z" fill="currentColor"/>
</svg>
