<svg viewBox="0 0 24 24" fill="none" xmlns="http://www.w3.org/2000/svg">
<path d="M10.5858 4.58579C10.2107 4.96086 10 5.46957 10 6V7H0C0 2.879 2.467 0 6 0H18C18.5304 0 19.0391 0.210714 19.4142 0.585786C19.7893 0.960859 20 1.46957 20 2C20 2.53043 19.7893 3.03914 19.4142 3.41421C19.0391 3.78929 18.5304 4 18 4H12C11.4696 4 10.9609 4.21071 10.5858 4.58579Z" fill="currentColor"/>
<path d="M0 9H22C22.5304 9 23.0391 9.21071 23.4142 9.58579C23.7893 9.96086 24 10.4696 24 11V13C24 13.2652 23.8946 13.5196 23.7071 13.7071C23.5196 13.8946 23.2652 14 23 14H13C12.2044 14 11.4413 14.3161 10.8787 14.8787C10.3161 15.4413 10 16.2044 10 17V23C10 23.2652 9.89464 23.5196 9.70711 23.7071C9.51957 23.8946 9.26522 24 9 24H1C0.734784 24 0.48043 23.8946 0.292893 23.7071C0.105357 23.5196 0 23.2652 0 23V9Z" fill="currentColor"/>
</svg>
