<svg viewBox="0 0 24 24" fill="none" xmlns="http://www.w3.org/2000/svg">
<path d="M14.5 3C16.433 3 18 4.567 18 6.5V7C18 7.55228 17.5523 8 17 8C16.4477 8 16 7.55228 16 7V6.5C16 5.67157 15.3284 5 14.5 5C13.6716 5 13 5.67157 13 6.5V13H16V11C16 10.4477 16.4477 10 17 10H20C20.5523 10 21 10.4477 21 11C21 11.5523 20.5523 12 20 12H18V13H22C22.5523 13 23 13.4477 23 14C23 14.5523 22.5523 15 22 15H21.8564L21.4434 17.6396C21.0634 20.0712 19.0228 21.8832 16.5859 21.9941L16.3486 22H7.65137C5.19033 22 3.08443 20.2635 2.59863 17.873L2.55664 17.6396L2.14355 15H2C1.44772 15 1 14.5523 1 14C1.00001 13.4477 1.44772 13 2 13H6V12H4C3.44772 12 3 11.5523 3 11C3.00001 10.4477 3.44772 10 4 10H7C7.03461 10 7.06884 10.0015 7.10254 10.0049C7.60667 10.0562 7.99999 10.4823 8 11V13H11V6.5C11 4.567 12.567 3 14.5 3ZM4.16797 15L4.53223 17.3311L4.58984 17.6143C4.93878 19.0046 6.19352 20 7.65137 20H16.3486L16.6377 19.9873C18.0653 19.8572 19.2427 18.7714 19.4678 17.3311L19.832 15H4.16797Z" fill="currentColor"/>
</svg>
