<svg viewBox="0 0 32 32" fill="none" xmlns="http://www.w3.org/2000/svg">
<path d="M19.5693 4.08887C21.9907 4.21168 23.9166 6.21418 23.917 8.66602V9.33301C23.917 10.0233 23.3572 10.5828 22.667 10.583C21.9766 10.583 21.417 10.0234 21.417 9.33301V8.66602C21.4166 7.51574 20.4834 6.58301 19.333 6.58301C18.1828 6.58318 17.2504 7.51585 17.25 8.66602V17.417H21.417V14.667C21.417 14.3832 21.5116 14.1219 21.6709 13.9121C21.7011 13.8723 21.7339 13.8347 21.7686 13.7988C21.8132 13.7527 21.8609 13.7097 21.9121 13.6709C21.9502 13.642 21.9899 13.6153 22.0312 13.5908C22.061 13.5732 22.0917 13.5571 22.123 13.542C22.2876 13.4623 22.4719 13.417 22.667 13.417H26.667L26.7949 13.4229C27.425 13.4871 27.917 14.02 27.917 14.667C27.9168 15.3138 27.4248 15.8459 26.7949 15.9102L26.667 15.917H23.917V17.417H29.334L29.4619 17.4229C30.0918 17.4873 30.584 18.0201 30.584 18.667C30.5838 19.3137 30.0917 19.8457 29.4619 19.9102L29.334 19.917H29.0703L28.5088 23.5068C28.0082 26.7096 25.3202 29.0973 22.1104 29.2432L21.7988 29.25H10.2012C6.95977 29.2499 4.18586 26.9629 3.5459 23.8145L3.49121 23.5068L2.92969 19.917H2.66699C1.97674 19.917 1.41619 19.3572 1.41602 18.667C1.41602 17.9766 1.97664 17.417 2.66699 17.417H8.08398V15.917H5.33398C4.64374 15.917 4.08416 15.3572 4.08398 14.667C4.08398 13.9766 4.64363 13.417 5.33398 13.417H9.33398L9.46191 13.4229C9.54044 13.4309 9.61689 13.4459 9.69043 13.4678L9.70508 13.4727C9.71167 13.4747 9.71807 13.4773 9.72461 13.4795C9.75299 13.4888 9.78116 13.4985 9.80859 13.5098C9.83195 13.5194 9.85433 13.531 9.87695 13.542C9.88535 13.5461 9.89405 13.5495 9.90234 13.5537L9.92969 13.5674C9.94279 13.5745 9.95496 13.5832 9.96777 13.5908C9.98453 13.6007 10.0013 13.6104 10.0176 13.6211C10.0301 13.6293 10.0425 13.6378 10.0547 13.6465C10.0752 13.661 10.0956 13.6757 10.1152 13.6914C10.1257 13.6998 10.1353 13.7091 10.1455 13.7178C10.1651 13.7346 10.1846 13.7515 10.2031 13.7695C10.213 13.7791 10.2228 13.7889 10.2324 13.7988C10.251 13.8181 10.2688 13.838 10.2861 13.8584C10.2932 13.8667 10.2998 13.8753 10.3066 13.8838C10.3225 13.9035 10.3379 13.9236 10.3525 13.9443C10.3626 13.9585 10.3724 13.9727 10.3818 13.9873C10.3932 14.0048 10.4036 14.0229 10.4141 14.041C10.4227 14.0559 10.4314 14.0707 10.4395 14.0859C10.4491 14.1042 10.4581 14.1228 10.4668 14.1416C10.4752 14.1597 10.4837 14.1777 10.4912 14.1963C10.4992 14.2158 10.5057 14.2359 10.5127 14.2559C10.5182 14.2718 10.5244 14.2875 10.5293 14.3037C10.5642 14.4187 10.584 14.5406 10.584 14.667V17.417H14.75V8.66602C14.7504 6.13514 16.8021 4.08318 19.333 4.08301L19.5693 4.08887ZM5.46094 19.917L5.96094 23.1211L5.99609 23.3154C6.40059 25.3048 8.15303 26.7499 10.2012 26.75H21.7988L21.9961 26.7461C24.0241 26.6537 25.7227 25.1447 26.0391 23.1211L26.5391 19.917H5.46094Z" fill="currentColor"/>
</svg>
