<svg viewBox="0 0 24 24" fill="none" xmlns="http://www.w3.org/2000/svg">
<path d="M17.7705 2.06753C18.0268 1.99918 18.2942 1.9825 18.557 2.01847C18.8198 2.05444 19.0728 2.14233 19.3014 2.27703C19.5299 2.41173 19.7293 2.59055 19.8881 2.80307C20.0469 3.01559 20.1617 3.25758 20.2261 3.51493L20.7694 5.68822C20.8968 6.19757 20.8187 6.73659 20.5521 7.18889C20.2855 7.6412 19.8518 7.97054 19.3445 8.10582L12.2422 9.99976H19C19.5305 9.99976 20.0392 10.2105 20.4143 10.5856C20.7893 10.9606 21 11.4693 21 11.9998V18.9998C21 19.7954 20.684 20.5585 20.1214 21.1211C19.5588 21.6837 18.7957 21.9998 18 21.9998H6.61113C5.81548 21.9998 5.05242 21.6837 4.48981 21.1211C3.9272 20.5585 3.61113 19.7954 3.61113 18.9998V11.1229L3.09007 9.03866C2.89906 8.27464 3.01615 7.46614 3.41606 6.78769C3.81596 6.10925 4.4666 5.61526 5.22754 5.41235L14.0175 3.06832C14.0312 3.06435 14.0451 3.06067 14.059 3.05727L17.7705 2.06753ZM13.2965 5.33048L10.1542 6.16844V8.48666L13.2965 7.64871V5.33048ZM15.2965 7.11537L18.8291 6.17332L18.2858 4L15.2965 4.79714V7.11537ZM8.15424 9.01999V6.70178L5.74287 7.34482C5.48922 7.41245 5.27232 7.57712 5.13902 7.80327C5.00571 8.02942 4.96668 8.29891 5.03035 8.55358L5.33491 9.77181L8.15424 9.01999ZM5.61113 11.9998V18.9998C5.61113 19.265 5.71648 19.5193 5.90402 19.7069C6.09156 19.8944 6.34591 19.9998 6.61113 19.9998H18C18.2653 19.9998 18.5196 19.8944 18.7072 19.7069C18.8947 19.5193 19 19.265 19 18.9998V11.9998H5.61113Z" fill="currentColor"/>
</svg>
