<svg viewBox="0 0 32 32" fill="none" xmlns="http://www.w3.org/2000/svg">
<path d="M25.0293 4.25656L20.5671 5.44652V9.19762L25.9144 7.77168C25.9637 7.75853 26.0059 7.7265 26.0318 7.68253C26.0577 7.63855 26.0653 7.58614 26.0529 7.53661L25.2681 4.3973C25.2618 4.37228 25.2507 4.34875 25.2352 4.32808C25.2198 4.30742 25.2004 4.29003 25.1782 4.27694C25.156 4.26384 25.1314 4.25529 25.1058 4.2518C25.0803 4.2483 25.0543 4.24992 25.0293 4.25656ZM18.0671 9.86429V6.1132L13.1392 7.42731V11.1784L18.0671 9.86429ZM10.6392 11.8451V8.09398L6.91153 9.08803C6.49581 9.19888 6.14033 9.46876 5.92186 9.8394C5.70339 10.21 5.63942 10.6517 5.74376 11.0691L6.2316 13.0204L10.6392 11.8451ZM6.57687 15.8054V26.1111C6.57687 26.5457 6.74954 26.9626 7.0569 27.27C7.36426 27.5773 7.78113 27.75 8.2158 27.75H24.6667C25.1013 27.75 25.5182 27.5773 25.8256 27.27C26.1329 26.9626 26.3056 26.5457 26.3056 26.1111V15.9998C26.3056 15.9483 26.2851 15.8988 26.2486 15.8623C26.2122 15.8259 26.1627 15.8054 26.1111 15.8054H6.57687ZM14.8657 13.3054H26.1111C26.8258 13.3054 27.5111 13.5892 28.0164 14.0946C28.5217 14.5999 28.8056 15.2852 28.8056 15.9998V26.1111C28.8056 27.2088 28.3695 28.2615 27.5933 29.0377C26.8171 29.8139 25.7644 30.25 24.6667 30.25H8.2158C7.11808 30.25 6.06533 29.8139 5.28913 29.0377C4.51293 28.2615 4.07687 27.2088 4.07687 26.1111V14.7092L3.31841 11.6755C3.05489 10.6214 3.21643 9.50594 3.76816 8.56992C4.31988 7.63391 5.21754 6.95239 6.26737 6.67245L24.3852 1.84098C24.7305 1.7489 25.0907 1.72642 25.4448 1.77488C25.7989 1.82334 26.1398 1.94175 26.4476 2.12322C26.7555 2.3047 27.0242 2.54561 27.2381 2.83192C27.452 3.11824 27.6068 3.44424 27.6935 3.79096L28.4783 6.93021C28.6498 7.61641 28.5447 8.34259 28.1855 8.95196C27.8264 9.56133 27.242 10.005 26.5585 10.1873L14.8657 13.3054Z" fill="currentColor"/>
</svg>
