<svg viewBox="0 0 16 16" fill="none" xmlns="http://www.w3.org/2000/svg">
<path d="M12.5196 2.25633L10.4086 2.81929V4.43611L12.8986 3.7721L12.5196 2.25633ZM8.90855 4.83611V3.21929L6.69461 3.80968V5.42649L8.90855 4.83611ZM5.19461 5.82649V4.20969L3.48797 4.6648C3.31182 4.71177 3.16119 4.82612 3.06861 4.98318C2.97604 5.14023 2.94894 5.32738 2.99315 5.50424L3.20627 6.35672L5.19461 5.82649ZM3.41343 8.02768V13.0555C3.41343 13.2397 3.4866 13.4164 3.61684 13.5466C3.74708 13.6768 3.92372 13.75 4.1079 13.75H12.3333C12.5175 13.75 12.6942 13.6768 12.8244 13.5466C12.9546 13.4164 13.0278 13.2397 13.0278 13.0555V8.02768H3.41343ZM8.38672 6.52768H13.0556C13.446 6.52768 13.8205 6.68279 14.0966 6.95889C14.3727 7.23499 14.5278 7.60945 14.5278 7.99991V13.0555C14.5278 13.6375 14.2966 14.1957 13.8851 14.6073C13.4735 15.0188 12.9153 15.25 12.3333 15.25H4.1079C3.52589 15.25 2.96772 15.0188 2.55618 14.6073C2.14464 14.1957 1.91343 13.6375 1.91343 13.0555V7.37001L1.53794 5.86805C1.39822 5.30917 1.48387 4.71776 1.77639 4.22149C2.06892 3.72521 2.54485 3.36387 3.10147 3.21544L9.44926 1.52268C9.45956 1.5197 9.46994 1.51693 9.48042 1.51437L12.1604 0.799709C12.3491 0.749396 12.5459 0.737119 12.7393 0.763595C12.9328 0.790072 13.1191 0.854771 13.2873 0.953926C13.4555 1.05308 13.6023 1.18471 13.7192 1.34115C13.8361 1.49759 13.9206 1.67572 13.968 1.86516L14.3604 3.43478C14.4541 3.80972 14.3967 4.2065 14.2005 4.53945C14.0042 4.8724 13.6849 5.11484 13.3115 5.21442L8.38672 6.52768Z" fill="currentColor"/>
</svg>
