<svg viewBox="0 0 32 32" fill="none" xmlns="http://www.w3.org/2000/svg">
<path d="M21.333 17.417C22.7593 17.417 23.9158 18.5738 23.916 20V21.417H28L28.1279 21.4229C28.7582 21.4869 29.25 22.0198 29.25 22.667C29.2498 23.314 28.7581 23.8461 28.1279 23.9102L28 23.917H23.916V25.334C23.9157 26.76 22.7592 27.917 21.333 27.917H18.666C17.2402 27.9166 16.0833 26.7598 16.083 25.334V23.917H4C3.30975 23.917 2.75018 23.3572 2.75 22.667C2.75 21.9766 3.30964 21.417 4 21.417H16.083V20C16.0832 18.574 17.2401 17.4174 18.666 17.417H21.333ZM18.666 19.917C18.6208 19.9174 18.5832 19.9547 18.583 20V25.334C18.5833 25.3791 18.6209 25.4166 18.666 25.417H21.333C21.3784 25.417 21.4157 25.3793 21.416 25.334V20C21.4158 19.9545 21.3785 19.917 21.333 19.917H18.666Z" fill="currentColor"/>
<path d="M13.333 4.08301C14.7592 4.08301 15.9157 5.23995 15.916 6.66602V8.08398H28L28.1279 8.08984C28.7582 8.15393 29.25 8.68683 29.25 9.33398C29.2497 9.98086 28.758 10.5131 28.1279 10.5771L28 10.584H15.916V12C15.9158 13.4262 14.7593 14.583 13.333 14.583H10.666C9.24009 14.5826 8.08318 13.426 8.08301 12V10.584H4C3.30985 10.584 2.75034 10.0241 2.75 9.33398C2.75 8.64363 3.30964 8.08398 4 8.08398H8.08301V6.66602C8.08335 5.24018 9.24019 4.08338 10.666 4.08301H13.333ZM10.666 6.58301C10.6209 6.58338 10.5833 6.62088 10.583 6.66602V12C10.5832 12.0453 10.6208 12.0826 10.666 12.083H13.333C13.3785 12.083 13.4158 12.0455 13.416 12V6.66602C13.4157 6.62066 13.3784 6.58301 13.333 6.58301H10.666Z" fill="currentColor"/>
</svg>
