<svg viewBox="0 0 24 24" fill="none" xmlns="http://www.w3.org/2000/svg">
<path d="M16 13C17.1043 13 18 13.8957 18 15V16H21C21.5523 16 22 16.4477 22 17C22 17.5523 21.5523 18 21 18H18V19C18 20.1043 17.1043 21 16 21H14C12.8957 21 12 20.1043 12 19V18H3C2.44772 18 2 17.5523 2 17C2 16.4477 2.44772 16 3 16H12V15C12 13.8957 12.8957 13 14 13H16ZM14 19H16V15H14V19Z" fill="currentColor"/>
<path d="M10 3C11.1043 3 12 3.89572 12 5V6H21C21.5523 6 22 6.44772 22 7C22 7.55228 21.5523 8 21 8H12V9C12 10.1043 11.1043 11 10 11H8C6.89572 11 6 10.1043 6 9V8H3C2.44772 8 2 7.55228 2 7C2 6.44772 2.44772 6 3 6H6V5C6 3.89572 6.89572 3 8 3H10ZM8 9H10V5H8V9Z" fill="currentColor"/>
</svg>
