<svg viewBox="0 0 16 16" fill="none" xmlns="http://www.w3.org/2000/svg">
<path d="M10.8115 8.58984C11.5257 8.6624 12.0838 9.26681 12.084 10V10.583H14L14.0762 10.5869C14.4544 10.6252 14.7498 10.9448 14.75 11.333C14.75 11.7214 14.4544 12.0408 14.0762 12.0791L14 12.083H12.084V12.666C12.084 13.4481 11.449 14.0828 10.667 14.083H9.33398C8.60077 14.083 7.99654 13.5256 7.92383 12.8115L7.91699 12.666V12.083H2C1.58579 12.083 1.25 11.7472 1.25 11.333C1.25018 10.9189 1.58589 10.583 2 10.583H7.91699V10C7.91716 9.21793 8.55187 8.58301 9.33398 8.58301H10.667L10.8115 8.58984ZM9.41699 12.583H10.584V11.3516C10.5838 11.3454 10.583 11.3392 10.583 11.333C10.583 11.3265 10.5838 11.32 10.584 11.3135V10.083H9.41699V12.583Z" fill="currentColor"/>
<path d="M6.81152 1.92383C7.52572 1.99643 8.08398 2.60068 8.08398 3.33398V3.91602H14L14.0762 3.91992C14.4543 3.95821 14.7497 4.2779 14.75 4.66602C14.75 5.05439 14.4544 5.37377 14.0762 5.41211L14 5.41602H8.08398V6C8.08382 6.78195 7.44894 7.41679 6.66699 7.41699H5.33398C4.60088 7.41699 3.9967 6.85942 3.92383 6.14551L3.91699 6V5.41602H2C1.58579 5.41602 1.25 5.08023 1.25 4.66602C1.25034 4.25209 1.586 3.91602 2 3.91602H3.91699V3.33398C3.91699 2.55177 4.55177 1.91699 5.33398 1.91699H6.66699L6.81152 1.92383ZM5.41699 5.91699H6.58398V4.68457C6.58384 4.6785 6.58301 4.67212 6.58301 4.66602C6.58301 4.65948 6.58381 4.65298 6.58398 4.64648V3.41699H5.41699V5.91699Z" fill="currentColor"/>
</svg>
