<svg viewBox="0 0 16 16" fill="none" xmlns="http://www.w3.org/2000/svg">
<path d="M6.4541 1.58105C6.67286 1.58113 6.88101 1.67674 7.02344 1.84277L8.95703 4.09863L10.0078 2.87402L10.0645 2.81445C10.2027 2.68503 10.3858 2.61133 10.5771 2.61133C10.796 2.6114 11.004 2.70785 11.1465 2.87402L12.4375 4.37988L12.6104 4.59082C13.4469 5.66008 13.9043 6.98093 13.9043 8.34375V8.51562C13.9042 9.98327 13.3573 11.3947 12.377 12.4775L12.1748 12.6904C11.1369 13.7282 9.75197 14.3397 8.29297 14.4121L8 14.4189L7.69629 14.4111C4.57715 14.2529 2.09677 11.6741 2.09668 8.51562C2.09668 7.06183 2.61644 5.65559 3.5625 4.55176L5.88477 1.84277L5.94141 1.78418C6.07962 1.65462 6.26264 1.58109 6.4541 1.58105ZM4.70215 5.52832C3.98902 6.36032 3.59668 7.41983 3.59668 8.51562C3.59677 10.9475 5.56814 12.9188 8 12.9189C9.16784 12.9189 10.2885 12.4547 11.1143 11.6289L11.2646 11.4707C11.9959 10.663 12.4042 9.61038 12.4043 8.51562V8.34375C12.4043 7.31642 12.0594 6.32063 11.4287 5.51465L11.2988 5.35645L10.5762 4.51367L9.52734 5.73926C9.38491 5.90543 9.17589 6.00188 8.95703 6.00195C8.76571 6.00184 8.58247 5.92828 8.44434 5.79883L8.3877 5.73926L6.4541 3.4834L4.70215 5.52832Z" fill="currentColor"/>
</svg>
