<svg viewBox="0 0 24 24" fill="none" xmlns="http://www.w3.org/2000/svg">
<path d="M9.68066 2.49609C9.97253 2.49609 10.2505 2.62414 10.4404 2.8457L13.4355 6.33984L15.1064 4.3916L15.1816 4.3125C15.3659 4.13989 15.61 4.042 15.8652 4.04199C16.1571 4.04199 16.435 4.17004 16.625 4.3916L18.5615 6.65137L18.8164 6.96191C20.0543 8.54384 20.7303 10.4983 20.7305 12.5146V12.7725C20.7305 14.9433 19.922 17.0312 18.4717 18.6328L18.1738 18.9463C16.6388 20.4813 14.5906 21.3852 12.4326 21.4922L12 21.5029L11.5508 21.4922C6.93784 21.2584 3.26953 17.4435 3.26953 12.7725C3.26964 10.6217 4.03874 8.54123 5.43848 6.9082L8.92188 2.8457L8.99707 2.7666C9.18134 2.59392 9.42544 2.49614 9.68066 2.49609ZM6.95703 8.20996C5.86803 9.48049 5.26964 11.0991 5.26953 12.7725C5.26953 16.4896 8.28286 19.5029 12 19.5029C13.7849 19.5029 15.4966 18.7942 16.7588 17.5322L16.9893 17.29C18.1072 16.0554 18.7305 14.4459 18.7305 12.7725V12.5146C18.7303 10.9458 18.2044 9.42513 17.2412 8.19434L17.043 7.95215L15.8652 6.57812L14.1953 8.52734C14.0053 8.74899 13.7275 8.87695 13.4355 8.87695C13.1437 8.87691 12.8667 8.74893 12.6768 8.52734L9.68066 5.03223L6.95703 8.20996Z" fill="currentColor"/>
</svg>
