<svg viewBox="0 0 32 32" fill="none" xmlns="http://www.w3.org/2000/svg">
<path d="M12.9072 3.41211C13.2721 3.41211 13.619 3.57161 13.8564 3.84863L17.9131 8.58203L20.2041 5.91016L20.2979 5.81152C20.5282 5.5954 20.8341 5.47371 21.1533 5.47363C21.5182 5.47363 21.8651 5.6331 22.1025 5.91016L24.6846 8.92285L25.0225 9.33496C26.6616 11.4297 27.5566 14.0175 27.5566 16.6875V17.0312C27.5565 19.9046 26.4869 22.6681 24.5674 24.7881L24.1719 25.2031C22.1401 27.2348 19.4295 28.4324 16.5732 28.5742L16 28.5879L15.7012 28.584C9.45652 28.4255 4.4427 23.314 4.44238 17.0312C4.44238 14.1834 5.46126 11.4289 7.31445 9.2666L11.958 3.84863L12.0527 3.75C12.283 3.53418 12.5883 3.41224 12.9072 3.41211ZM9.21289 10.8936C7.74799 12.6028 6.94238 14.7801 6.94238 17.0312C6.9427 22.0331 10.9981 26.0878 16 26.0879C18.4019 26.0878 20.7058 25.1339 22.4043 23.4355L22.7139 23.1104C24.2183 21.449 25.0565 19.2832 25.0566 17.0312V16.6875C25.0566 14.5771 24.3492 12.5318 23.0537 10.876L22.7861 10.5498L21.1523 8.64453L18.8633 11.3164C18.6258 11.5933 18.2788 11.7529 17.9141 11.7529C17.5493 11.7529 17.2023 11.5934 16.9648 11.3164L12.9072 6.58301L9.21289 10.8936Z" fill="currentColor"/>
</svg>
