<svg viewBox="0 0 16 16" fill="none" xmlns="http://www.w3.org/2000/svg">
<path d="M3.47898 2.987C6.12873 0.593341 10.2204 0.672733 12.7739 3.22626L13.0132 3.47821C15.3299 6.04233 15.3296 9.95693 13.0132 12.5212L12.7739 12.7731C10.2203 15.3268 6.1287 15.4064 3.47898 13.0124L3.22703 12.7731C0.590991 10.1371 0.590989 5.86229 3.22703 3.22626L3.47898 2.987ZM10.8813 3.61103C9.13765 2.46376 6.8612 2.46345 5.11766 3.61103C6.1309 4.7893 6.74938 6.32008 6.74949 7.9997C6.74948 9.67919 6.13064 11.2099 5.11766 12.3884C6.86133 13.5362 9.13754 13.5361 10.8813 12.3884C9.86846 11.21 9.24951 9.67905 9.24949 7.9997C9.2496 6.32034 9.86839 4.7893 10.8813 3.61103ZM12.0044 4.60614C11.2229 5.52241 10.7496 6.70472 10.7495 7.9997C10.7495 9.29437 11.2224 10.4769 12.0034 11.3933C13.6631 9.43943 13.6641 6.55999 12.0044 4.60614ZM3.99558 4.60614C2.33615 6.55957 2.33672 9.43852 3.99558 11.3923C4.77655 10.476 5.24948 9.29433 5.24949 7.9997C5.24938 6.70477 4.77691 5.52247 3.99558 4.60614Z" fill="currentColor"/>
</svg>
