<svg viewBox="0 0 32 32" fill="none" xmlns="http://www.w3.org/2000/svg">
<path d="M6.87594 6.39164C12.0669 1.45759 20.2757 1.53744 25.3691 6.63089L25.6074 6.87601C30.4636 11.9846 30.4636 20.0155 25.6074 25.1241L25.3691 25.3692C20.2755 30.4628 12.0669 30.542 6.87594 25.6075L6.63083 25.3692C1.4564 20.1947 1.45638 11.8053 6.63083 6.63089L6.87594 6.39164ZM22.1347 7.17386C18.458 4.61191 13.5408 4.6116 9.86422 7.17386C11.9626 9.51385 13.2499 12.6029 13.25 16C13.2499 19.3968 11.9622 22.4852 9.86422 24.8252C13.5409 27.3879 18.4578 27.3882 22.1347 24.8262C20.0366 22.4863 18.75 19.3969 18.75 16C18.75 12.6032 20.0367 9.51384 22.1347 7.17386ZM7.9902 8.83011C4.33694 12.9041 4.33728 19.0948 7.9902 23.169C9.70387 21.2645 10.7499 18.7568 10.75 16C10.7499 13.243 9.70416 10.7347 7.9902 8.83011ZM24.0088 8.83011C22.295 10.7346 21.25 13.2432 21.25 16C21.25 18.7566 22.2954 21.2645 24.0088 23.169C27.6623 19.0947 27.6626 12.9043 24.0088 8.83011Z" fill="currentColor"/>
</svg>
