<svg viewBox="0 0 24 24" fill="none" xmlns="http://www.w3.org/2000/svg">
<path d="M5.30161 4.5743C9.22706 1.0275 15.2879 1.14575 19.0711 4.92879L19.4256 5.30184C22.8581 9.10077 22.8581 14.8994 19.4256 18.6983L19.0711 19.0714C15.2879 22.8546 9.2271 22.9727 5.30161 19.4259L4.92856 19.0714C1.02355 15.1661 1.02343 8.83395 4.92856 4.92879L5.30161 4.5743ZM16.5106 5.39169C13.7996 3.53687 10.2012 3.53702 7.49009 5.39169C9.04615 7.15125 9.99973 9.46131 9.99985 12.0001C9.99977 14.5385 9.04574 16.848 7.49009 18.6075C10.2014 20.4628 13.7993 20.4627 16.5106 18.6075C14.9548 16.848 13.9999 14.5387 13.9999 12.0001C14 9.46116 14.9543 7.15126 16.5106 5.39169ZM5.99204 6.71883C3.33696 9.73339 3.33776 14.2669 5.99302 17.2813C7.24023 15.8706 7.99977 14.0258 7.99985 12.0001C7.99973 9.97407 7.23956 8.12964 5.99204 6.71883ZM18.0067 6.71883C16.7596 8.12961 16 9.97449 15.9999 12.0001C15.9999 14.0257 16.7596 15.8707 18.0067 17.2813C20.6624 14.2667 20.6625 9.73345 18.0067 6.71883Z" fill="currentColor"/>
</svg>
