<svg viewBox="0 0 16 16" fill="none" xmlns="http://www.w3.org/2000/svg">
<path d="M8.10092 0.255859C8.54946 0.46089 8.98293 0.700898 9.36573 1.01408C9.03889 1.18792 8.73463 1.39561 8.4295 1.6039L8.40886 1.61798C8.02686 1.35718 7.60779 1.12536 7.14893 0.932898C7.43946 0.644528 7.75059 0.444268 8.10092 0.255859Z" fill="currentColor"/>
<path d="M3.99992 1.6665H3.33325V5.22206C3.33325 7.74022 5.02509 9.92516 7.33325 10.2822V13.5839C6.88886 12.946 6.22228 12.1799 5.33336 11.6667C3.55512 10.64 1.64917 11.0654 1.64917 11.0654C1.64917 11.0654 2.07812 13.6225 3.8246 14.6308C5.59936 15.6554 7.99074 14.7357 8.00002 14.7321C8.00819 14.7352 10.4002 15.6557 12.1755 14.6308C13.9219 13.6225 14.3509 11.0654 14.3509 11.0654C14.3509 11.0654 12.4449 10.64 10.6667 11.6667C9.77762 12.18 9.11098 12.9462 8.66658 13.5842V10.2772C9.48148 10.1392 10.2054 9.75707 10.8874 9.25717C10.8569 8.75464 10.8018 8.2615 10.6996 7.7679C10.5638 7.11177 10.3171 6.22759 9.87125 5.33574C8.96992 3.53273 7.22505 1.6665 3.99992 1.6665Z" fill="currentColor"/>
<path d="M12.0549 7.75457C12.4459 7.00444 12.6667 6.13852 12.6667 5.22206V1.6665H12C11.0152 1.6665 10.1625 2.03526 9.47461 2.5048C10.1652 3.19716 10.6847 3.9809 11.0639 4.73954C11.5764 5.76478 11.8541 6.7669 12.0053 7.49757C12.0231 7.5835 12.0396 7.66917 12.0549 7.75457Z" fill="currentColor"/>
</svg>
