<svg viewBox="0 0 32 32" fill="none" xmlns="http://www.w3.org/2000/svg">
<path d="M16.2019 0.511719C17.0989 0.92178 17.9659 1.4018 18.7315 2.02817C18.0778 2.37584 17.4693 2.79122 16.859 3.20779L16.8177 3.23597C16.0537 2.71437 15.2156 2.25072 14.2979 1.8658C14.8789 1.28906 15.5012 0.888536 16.2019 0.511719Z" fill="currentColor"/>
<path d="M7.99984 3.33301H6.6665V10.4441C6.6665 15.4804 10.0502 19.8503 14.6665 20.5644V27.1679C13.7777 25.892 12.4446 24.3598 10.6667 23.3333C7.11025 21.28 3.29834 22.1308 3.29834 22.1308C3.29834 22.1308 4.15623 27.2449 7.64919 29.2616C11.1987 31.3108 15.9815 29.4713 16 29.4641C16.0164 29.4704 20.8005 31.3114 24.3509 29.2616C27.8439 27.2449 28.7017 22.1308 28.7017 22.1308C28.7017 22.1308 24.8899 21.28 21.3333 23.3333C19.5552 24.3599 18.222 25.8925 17.3332 27.1685V20.5545C18.963 20.2785 20.4108 19.5141 21.7748 18.5143C21.7138 17.5093 21.6036 16.523 21.3992 15.5358C21.1276 14.2235 20.6341 12.4552 19.7425 10.6715C17.9398 7.06546 14.4501 3.33301 7.99984 3.33301Z" fill="currentColor"/>
<path d="M24.1099 15.5091C24.8918 14.0089 25.3334 12.277 25.3334 10.4441V3.33301H24C22.0304 3.33301 20.3251 4.07053 18.9492 5.00961C20.3304 6.39431 21.3694 7.96179 22.1278 9.47909C23.1528 11.5296 23.7082 13.5338 24.0107 14.9951C24.0463 15.167 24.0792 15.3383 24.1099 15.5091Z" fill="currentColor"/>
</svg>
