<svg viewBox="0 0 24 24" fill="none" xmlns="http://www.w3.org/2000/svg">
<path d="M12.1514 0.383789C12.8242 0.691335 13.4744 1.05135 14.0486 1.52113C13.5583 1.78188 13.1019 2.09342 12.6442 2.40585L12.6133 2.42698C12.0403 2.03578 11.4117 1.68804 10.7234 1.39935C11.1592 0.966792 11.6259 0.666402 12.1514 0.383789Z" fill="currentColor"/>
<path d="M6 2.5H5V7.83333C5 11.6106 7.53775 14.888 11 15.4235V20.3757C10.3334 19.4188 9.33354 18.2696 8.00017 17.4997C5.33281 15.9597 2.47388 16.5978 2.47388 16.5978C2.47388 16.5978 3.1173 20.4334 5.73702 21.9459C8.38757 23.4761 11.9549 22.1152 11.9998 22.098C12.0446 22.1152 15.6126 23.4762 18.2632 21.9459C20.8829 20.4334 21.5263 16.5978 21.5263 16.5978C21.5263 16.5978 18.6674 15.9597 16 17.4997C14.6665 18.2696 13.6666 19.419 13 20.3759V15.4161C14.2223 15.2091 15.3082 14.6359 16.3312 13.886C16.2855 13.1322 16.2028 12.3925 16.0495 11.6521C15.8458 10.6679 15.4757 9.34163 14.807 8.00385C13.455 5.29934 10.8377 2.5 6 2.5Z" fill="currentColor"/>
<path d="M18.0827 11.6321C18.6691 10.5069 19.0003 9.20803 19.0003 7.83333V2.5H18.0003C16.5231 2.5 15.2441 3.05314 14.2122 3.75745C15.2481 4.79598 16.0273 5.97159 16.5961 7.10956C17.3649 8.64741 17.7814 10.1506 18.0083 11.2466C18.035 11.3755 18.0597 11.504 18.0827 11.6321Z" fill="currentColor"/>
</svg>
