<svg viewBox="0 0 16 16" fill="none" xmlns="http://www.w3.org/2000/svg">
<path d="M12.7432 8.58697C13.1212 8.62541 13.4158 8.94494 13.416 9.33306C13.416 12.3245 10.9914 14.7499 8 14.7501C5.0086 14.7499 2.58301 12.3245 2.58301 9.33306C2.5832 8.94483 2.87866 8.62526 3.25684 8.58697C3.28187 8.58443 3.30731 8.58307 3.33301 8.58306L3.70312 8.59576C5.53469 8.71934 7.11549 9.7543 7.99902 11.2501C8.94128 9.65421 10.6786 8.58329 12.666 8.58306L12.7432 8.58697ZM4.1748 10.1749C4.50051 11.6622 5.67097 12.8322 7.1582 13.1583C6.83218 11.6711 5.66212 10.5006 4.1748 10.1749ZM11.8242 10.1749C10.3372 10.5009 9.16653 11.6711 8.84082 13.1583C10.3285 12.8326 11.4985 11.6625 11.8242 10.1749Z" fill="currentColor"/>
<path d="M7.36621 1.45513C7.69805 1.21504 8.13049 1.18652 8.48633 1.36529L8.63379 1.45415L9.85156 2.33208L10.7373 1.69439L10.875 1.60943C11.5751 1.24409 12.4538 1.74508 12.4541 2.5733V4.96294C12.454 7.42309 10.4593 9.41699 8 9.41704C5.54067 9.417 3.54605 7.42309 3.5459 4.96294V2.5733C3.5462 1.74397 4.42577 1.24509 5.125 1.60943L5.2627 1.69439L6.14844 2.33208L7.36621 1.45513ZM6.97559 3.58404C6.48138 3.93913 5.81442 3.94032 5.32031 3.58501L5.0459 3.3858V4.96294C5.04605 6.59449 6.36892 7.917 8 7.91705C9.63107 7.91699 10.954 6.59448 10.9541 4.96294V3.38677L10.6807 3.58404L10.6797 3.58501C10.1855 3.94015 9.51854 3.94032 9.02441 3.58501L8 2.84673L6.97559 3.58404Z" fill="currentColor"/>
</svg>
