<svg viewBox="0 0 32 32" fill="none" xmlns="http://www.w3.org/2000/svg">
<path d="M25.4619 17.4232C26.0918 17.4875 26.5838 18.0195 26.584 18.6663C26.584 24.5113 21.8449 29.2492 16 29.2493C10.1551 29.2492 5.41699 24.5112 5.41699 18.6663C5.41719 18.0193 5.90881 17.4871 6.53906 17.4232C6.58105 17.4189 6.62389 17.4163 6.66699 17.4163L7.04395 17.4232C10.9241 17.5591 14.2722 19.7845 16 23.0081C17.7835 19.6804 21.2943 17.4163 25.334 17.4163L25.4619 17.4232ZM8.03418 20.0345C8.60831 23.4022 11.2641 26.0568 14.6318 26.6312C14.0573 23.2636 11.4019 20.6085 8.03418 20.0345ZM23.9658 20.0335C20.5981 20.6076 17.9418 23.2636 17.3672 26.6312C20.7357 26.0571 23.3919 23.402 23.9658 20.0335Z" fill="currentColor"/>
<path d="M14.8818 3.11066C15.5103 2.65751 16.3419 2.63226 16.9932 3.02667L17.1211 3.11066L19.6553 4.93585L19.6787 4.94757C19.7035 4.95539 19.7311 4.9512 19.7529 4.93585L21.6211 3.59113L21.6221 3.59015L21.7422 3.51007C22.9983 2.73597 24.6581 3.63246 24.6582 5.14679V9.92511C24.6582 14.7075 20.7808 18.5832 16 18.5833C11.3688 18.5832 7.58569 14.9464 7.35352 10.3714L7.3418 9.92511V5.14679L7.34668 5.00226C7.44819 3.57446 9.0446 2.76227 10.2588 3.51007L10.3789 3.59015L10.3799 3.59113L12.248 4.93585C12.2773 4.95682 12.3164 4.95673 12.3457 4.93585L14.8818 3.11066ZM13.8057 6.96515C12.9043 7.61335 11.6884 7.61339 10.7871 6.96515L9.8418 6.28449V9.92511L9.84961 10.2425C10.0147 13.4965 12.706 16.0832 16 16.0833C19.4004 16.0832 22.1582 13.3265 22.1582 9.92511V6.28449L21.2139 6.96515C20.3125 7.61335 19.0967 7.61339 18.1953 6.96515L16 5.38507L13.8057 6.96515Z" fill="currentColor"/>
</svg>
