<svg viewBox="0 0 24 24" fill="none" xmlns="http://www.w3.org/2000/svg">
<path d="M19.1025 13.0049C19.6067 13.0562 20 13.4823 20 14C20 18.4183 16.4183 22 12 22C7.58172 22 4 18.4183 4 14C4.00001 13.4477 4.44772 13 5 13L5.28125 13.0049C8.17561 13.1049 10.6783 14.7432 12 17.127C13.3644 14.6663 15.987 13 19 13L19.1025 13.0049ZM6.10254 15.1025C6.55381 17.5317 8.46751 19.4448 10.8965 19.8965C10.4448 17.4675 8.53166 15.5538 6.10254 15.1025ZM17.8965 15.1025C15.4678 15.5542 13.5542 17.4678 13.1025 19.8965C15.5319 19.4451 17.4451 17.5319 17.8965 15.1025Z" fill="currentColor"/>
<path d="M11.123 2.28419C11.6151 1.92806 12.2669 1.90783 12.7773 2.2168L12.8779 2.28321L14.7773 3.65137H14.7793L16.1797 2.64258L16.2744 2.58008C17.2575 1.97401 18.5565 2.67516 18.5566 3.86036V7.44434C18.5564 11.0654 15.6199 14.0008 12 14.001C8.49339 14.0008 5.62915 11.2463 5.45312 7.78223L5.44434 7.44434V3.86036L5.44824 3.74708C5.52792 2.6296 6.77736 1.99425 7.72754 2.58008L7.82129 2.64258L9.22168 3.65137H9.22363L11.123 2.28419ZM10.3916 5.2754C9.69398 5.77712 8.75245 5.77682 8.05469 5.2754L7.44434 4.83594V7.44434L7.4502 7.67872C7.57235 10.0861 9.56301 12.0008 12 12.001C14.5155 12.0008 16.5564 9.96061 16.5566 7.44434V4.83594L15.9473 5.2754C15.2932 5.7458 14.425 5.77472 13.7441 5.36329L13.6104 5.2754L12.001 4.11622L10.3916 5.2754Z" fill="currentColor"/>
</svg>
