<svg viewBox="0 0 24 24" fill="none" xmlns="http://www.w3.org/2000/svg">
<path d="M9.49928 3.1675C11.0465 2.27403 12.9528 2.27348 14.5003 3.16652L14.7835 3.3423C15.8083 4.02848 16.5332 5.06354 16.8391 6.23683C17.4017 6.08105 17.9934 5.99768 18.6028 5.99758H19.0032C20.1076 5.99769 21.0028 6.89315 21.0032 7.99758V8.39504L20.9983 8.68605C20.9645 9.50729 20.7752 10.31 20.4465 11.0532C20.8528 11.1467 21.2242 11.3641 21.5042 11.6831L21.638 11.853C21.9257 12.2628 22.051 12.7685 21.9846 13.27L21.9837 13.2818C21.6125 15.8465 20.1549 18.1155 18.0022 19.5239V20.0025C18.0022 21.1071 17.1068 22.0032 16.0022 22.0034H7.99831C6.89359 22.0033 5.99733 21.1072 5.99733 20.0025V19.5239C3.84491 18.1155 2.388 15.8464 2.01686 13.2818L2.01491 13.27C1.93908 12.6967 2.11408 12.1179 2.49538 11.6831C2.75828 11.3834 3.10242 11.1748 3.47975 11.0728C2.70099 9.78683 2.86674 8.0897 3.97682 6.97902C4.84897 6.10674 6.08383 5.81684 7.19655 6.10988C7.55059 4.88521 8.36473 3.82275 9.49928 3.1675ZM3.99928 13.0015L3.99733 13.0064C4.31103 15.1505 5.60035 17.0292 7.48854 18.0933C7.80282 18.2704 7.99714 18.6036 7.99733 18.9644V20.0025L7.99831 20.0034H16.0022V18.9644C16.0024 18.6037 16.1968 18.2705 16.511 18.0933C18.3993 17.0292 19.6875 15.1506 20.0012 13.0064L20.0003 13.0015L19.9954 12.9995H13.0481L13.0305 13.0005H6.51393C6.50691 13.0005 6.49947 12.9996 6.49245 12.9995H4.00417L3.99928 13.0015ZM13.5012 4.89894C12.5725 4.36292 11.4279 4.36277 10.4993 4.89894C9.57068 5.43525 8.99918 6.42621 8.99928 7.49855C8.99928 7.51153 8.99783 7.5247 8.99733 7.53761V7.6841C8.99728 8.08813 8.75418 8.45291 8.38112 8.60793C8.00783 8.76273 7.5774 8.67743 7.29128 8.39211C6.76644 7.86815 5.91625 7.86871 5.39186 8.39308C4.86788 8.91724 4.86686 9.76671 5.38991 10.2915L5.80592 10.7066L5.87917 10.7739C6.05431 10.9173 6.27416 10.997 6.50221 10.9995H12.1965C12.6051 9.36203 13.6163 7.97996 14.9719 7.08644C14.8551 6.24221 14.3847 5.48238 13.6712 5.00441L13.5012 4.89894ZM18.6028 7.99758C16.6405 7.99801 14.9422 9.23254 14.2864 10.9995H18.1917C18.7205 10.2404 19.0065 9.33417 19.0032 8.40187V7.99758H18.6028Z" fill="currentColor"/>
</svg>
