<svg viewBox="0 0 16 16" fill="none" xmlns="http://www.w3.org/2000/svg">
<path d="M6.29141 2.0393C7.34869 1.42888 8.65101 1.42904 9.70841 2.0393L9.90176 2.15941C10.5786 2.61256 11.0629 3.28843 11.2836 4.05687C11.6418 3.96479 12.0165 3.91535 12.4018 3.91527H12.6684C13.4509 3.91527 14.0854 4.54967 14.0854 5.33226V5.59594L14.0815 5.79418C14.0598 6.31957 13.9432 6.83289 13.7436 7.31273C13.9465 7.37418 14.1346 7.48016 14.2924 7.62523L14.3988 7.73461L14.4936 7.85473C14.6974 8.145 14.7868 8.50339 14.7397 8.85863L14.7387 8.86742C14.4899 10.5854 13.5191 12.1061 12.0854 13.0598V13.3362C12.085 14.1183 11.4506 14.753 10.6684 14.7532H5.33243C4.55009 14.7532 3.91579 14.1184 3.91544 13.3362V13.0598C2.48158 12.1061 1.51092 10.5855 1.26212 8.86742L1.26114 8.85863C1.20729 8.45257 1.331 8.04264 1.60098 7.73461L1.70743 7.62523C1.84989 7.49419 2.01713 7.39555 2.19766 7.33226C1.7201 6.45536 1.8506 5.33605 2.59219 4.59398C3.17511 4.01091 3.9918 3.80612 4.74063 3.97582C4.99351 3.17054 5.5393 2.47367 6.29141 2.0393ZM2.76407 8.75023C2.99211 10.1161 3.82409 11.3089 5.0336 11.9905C5.26919 12.1235 5.41544 12.3732 5.41544 12.6438V13.2532H10.5854V12.6438C10.5854 12.3731 10.7313 12.1234 10.9672 11.9905C12.1767 11.3089 13.0087 10.1161 13.2367 8.75023H2.76407ZM8.95841 3.33812C8.36517 2.99589 7.63456 2.99572 7.04141 3.33812C6.44813 3.68077 6.08236 4.31414 6.08243 4.99926C6.08237 5.00238 6.08149 5.00591 6.08145 5.00902V5.12328C6.08122 5.42627 5.89847 5.69957 5.61856 5.81566C5.33866 5.9316 5.01668 5.86747 4.80216 5.65355C4.48483 5.33676 3.97079 5.33752 3.65372 5.65453C3.33679 5.97165 3.33596 6.48571 3.65274 6.80297L3.92911 7.07934L4.01798 7.15258C4.11312 7.21598 4.22617 7.2502 4.34219 7.25023H8.06583C8.34834 6.18341 9.00903 5.28086 9.89005 4.6848C9.80401 4.16591 9.50918 3.70122 9.06778 3.40551L8.95841 3.33812ZM12.4018 5.41527C11.1709 5.41558 10.1006 6.16433 9.64688 7.25023H12.0824C12.41 6.76533 12.5874 6.19199 12.5854 5.6018V5.41527H12.4018Z" fill="currentColor"/>
</svg>
