<svg viewBox="0 0 32 32" fill="none" xmlns="http://www.w3.org/2000/svg">
<path d="M12.7061 4.29486C14.7435 3.11821 17.2543 3.11783 19.292 4.29388L19.6641 4.5263C21.0376 5.44587 22.0018 6.841 22.3916 8.41986C23.1594 8.19908 23.969 8.08016 24.8037 8.08001H25.337C26.7637 8.08012 27.9207 9.23716 27.9209 10.664V11.1933L27.9141 11.5781C27.868 12.6976 27.601 13.7899 27.1407 14.7978C27.7057 14.904 28.2252 15.1937 28.6104 15.6327L28.7832 15.8525C29.1018 16.3062 29.2664 16.851 29.253 17.4052L29.2315 17.6835C29.2308 17.6883 29.2302 17.6934 29.2295 17.6982C28.7358 21.1096 26.7916 24.1273 23.92 25.9902V26.6708C23.9199 28.0975 22.7635 29.2543 21.337 29.2548H10.6641C9.23728 29.2546 8.08113 28.0977 8.08109 26.6708V25.9902C5.30559 24.1898 3.39684 21.3107 2.82621 18.04L2.77152 17.6982L2.76957 17.6835C2.67131 16.9426 2.8979 16.1947 3.39066 15.6327C3.75537 15.2171 4.23953 14.9335 4.76957 14.8144C3.68443 13.1214 3.88154 10.8446 5.36137 9.36419C6.52274 8.20254 8.1746 7.83119 9.65043 8.24896C10.1039 6.60296 11.1878 5.17184 12.7061 4.29486ZM5.33988 17.2499C5.31346 17.2499 5.28811 17.2615 5.27055 17.2812C5.25343 17.3007 5.24527 17.3267 5.24808 17.3525C5.66965 20.2378 7.40357 22.7655 9.94437 24.1972L10.085 24.289C10.3945 24.5232 10.581 24.8916 10.5811 25.2861V26.6708C10.5811 26.717 10.618 26.7546 10.6641 26.7548H21.337C21.3828 26.7543 21.4199 26.7168 21.42 26.6708V25.2861C21.4201 24.835 21.6637 24.4187 22.0567 24.1972C24.5973 22.7654 26.3304 20.2377 26.752 17.3525C26.7534 17.3399 26.7536 17.3272 26.75 17.3154L26.7305 17.2812C26.713 17.2615 26.6875 17.25 26.6612 17.2499H5.33988ZM18.042 6.45892C16.7779 5.72939 15.22 5.72995 13.9561 6.4599C12.6925 7.18994 11.914 8.53867 11.9141 9.99798C11.9141 10.0116 11.9126 10.0255 11.9121 10.039V10.246C11.9119 10.7511 11.6082 11.2068 11.1416 11.4003C10.7333 11.5696 10.2707 11.5087 9.92191 11.2519L9.77933 11.1298C9.04691 10.3989 7.86053 10.4 7.12894 11.1318C6.39791 11.8635 6.3974 13.0491 7.12797 13.7812L7.68168 14.3349L7.78519 14.4286C8.03738 14.6354 8.3547 14.7498 8.68363 14.7499H16.3262C16.8596 12.541 18.2218 10.6778 20.0528 9.48724C19.9058 8.31788 19.2591 7.26348 18.2735 6.60345L18.042 6.45892ZM24.8037 10.58C22.1101 10.5806 19.7835 12.3015 18.9287 14.7499H24.3008C25.0314 13.7166 25.4255 12.4768 25.4209 11.2021V10.664C25.4207 10.618 25.3831 10.5801 25.337 10.58H24.8037Z" fill="currentColor"/>
</svg>
