<svg viewBox="0 0 16 16" fill="none" xmlns="http://www.w3.org/2000/svg">
<path d="M12.8115 1.29199C13.5257 1.36458 14.083 1.96884 14.083 2.70215V14.0352C14.0827 14.4491 13.7471 14.7852 13.333 14.7852C12.9191 14.785 12.5833 14.449 12.583 14.0352V10.7832H12.0391L12 10.7852L11.7188 10.7705C10.3322 10.6297 9.25025 9.45885 9.25 8.03516V4.03516C9.25 2.54473 10.4355 1.334 11.915 1.28906C11.9429 1.28592 11.9713 1.28516 12 1.28516H12.667L12.8115 1.29199ZM11.8721 2.79102C11.2417 2.85506 10.75 3.38789 10.75 4.03516V8.03516C10.7502 8.68219 11.2419 9.21427 11.8721 9.27832L11.9805 9.2832H12.583V2.78516H12L11.8721 2.79102Z" fill="currentColor"/>
<path d="M6.66699 1.30566C7.08095 1.30584 7.41682 1.64171 7.41699 2.05566V5.08984L7.41309 5.16699C7.41233 5.17446 7.41019 5.18206 7.40918 5.18945C7.34649 6.65574 6.4259 7.98194 5.08301 8.34766L5.07715 14.001C5.0766 14.415 4.74017 14.7503 4.32617 14.75C3.91207 14.7495 3.57682 14.4131 3.57715 13.999L3.58301 8.34668C2.23888 7.98035 1.31767 6.65261 1.25684 5.18457C1.25298 5.15376 1.25 5.12169 1.25 5.08984V2.05566C1.25018 1.6416 1.58589 1.30566 2 1.30566C2.41411 1.30566 2.74982 1.6416 2.75 2.05566V5.03027L2.75879 5.24219C2.84946 6.27797 3.59855 6.94707 4.33301 6.94727C5.06756 6.94727 5.81652 6.27809 5.90723 5.24219L5.91699 5.03027V2.05566C5.91717 1.6416 6.25289 1.30566 6.66699 1.30566Z" fill="currentColor"/>
<path d="M4.33301 1.25C4.74722 1.25 5.08301 1.58579 5.08301 2V5.7002C5.0829 6.11432 4.74716 6.4502 4.33301 6.4502C3.91901 6.45002 3.58311 6.11421 3.58301 5.7002V2C3.58301 1.58589 3.91894 1.25018 4.33301 1.25Z" fill="currentColor"/>
</svg>
