<svg viewBox="0 0 24 24" fill="none" xmlns="http://www.w3.org/2000/svg">
<path d="M19 2.05176C20.1042 2.05176 20.9999 2.94758 21 4.05176V21.0518C21 21.604 20.5523 22.0518 20 22.0518C19.4477 22.0518 19 21.604 19 21.0518V16.0498H18.041C18.0274 16.0504 18.0138 16.0518 18 16.0518C15.7907 16.0518 14 14.261 14 12.0518V6.05176C14.0001 3.84258 15.7908 2.05176 18 2.05176H19ZM17.7959 4.0625C16.7872 4.16472 16.0001 5.01606 16 6.05176V12.0518C16 13.1496 16.8842 14.0388 17.9795 14.0498H19V4.05176H18L17.7959 4.0625Z" fill="currentColor"/>
<path d="M10 2.08398C10.5523 2.08398 11 2.53171 11 3.08398V7.63574L10.9951 7.72559C10.9227 9.93603 9.52114 11.9224 7.49902 12.4229L7.49023 21.001C7.48959 21.5531 7.04136 22.0004 6.48926 22C5.93707 21.9994 5.4898 21.5512 5.49023 20.999L5.49902 12.4229C3.4779 11.9216 2.07727 9.93536 2.00488 7.72559C2.00226 7.69605 2 7.66596 2 7.63574V3.08398C2.00001 2.53171 2.44772 2.08398 3 2.08398C3.55228 2.08398 3.99999 2.53171 4 3.08398V7.5459L4.01465 7.87402C4.15555 9.47926 5.31928 10.5459 6.5 10.5459C7.68073 10.5459 8.84445 9.47926 8.98535 7.87402L9 7.5459V3.08398C9.00001 2.53171 9.44772 2.08398 10 2.08398Z" fill="currentColor"/>
<path d="M6.5 2C7.05228 2 7.5 2.44772 7.5 3V8.5498C7.5 9.10209 7.05228 9.5498 6.5 9.5498C5.94772 9.5498 5.5 9.10209 5.5 8.5498V3C5.5 2.44772 5.94772 2 6.5 2Z" fill="currentColor"/>
</svg>
