<svg viewBox="0 0 16 16" fill="none" xmlns="http://www.w3.org/2000/svg">
<path d="M6.66675 0C6.48994 0 6.32037 0.0702379 6.19534 0.195262C6.07032 0.320286 6.00008 0.489856 6.00008 0.666667V6C6.00008 6.17681 5.92984 6.34638 5.80482 6.4714C5.6798 6.59643 5.51023 6.66667 5.33342 6.66667H2.66675C2.48994 6.66667 2.32037 6.59643 2.19534 6.4714C2.07032 6.34638 2.00008 6.17681 2.00008 6V0.666667C2.00008 0.489856 1.92984 0.320286 1.80482 0.195262C1.6798 0.0702379 1.51023 0 1.33341 0C1.1566 0 0.987034 0.0702379 0.86201 0.195262C0.736986 0.320286 0.666748 0.489856 0.666748 0.666667V6C0.666748 6.53043 0.877462 7.03914 1.25253 7.41421C1.62761 7.78929 2.13632 8 2.66675 8H3.28208L2.76875 14.672C2.75628 14.8413 2.77887 15.0114 2.8351 15.1716C2.89133 15.3318 2.97999 15.4787 3.09555 15.603C3.21111 15.7274 3.35108 15.8266 3.50672 15.8945C3.66235 15.9623 3.8303 15.9973 4.00008 15.9973C4.16986 15.9973 4.33781 15.9623 4.49345 15.8945C4.64908 15.8266 4.78905 15.7274 4.90461 15.603C5.02017 15.4787 5.10883 15.3318 5.16506 15.1716C5.22129 15.0114 5.24388 14.8413 5.23141 14.672L4.71808 8H5.33342C5.86385 8 6.37256 7.78929 6.74763 7.41421C7.1227 7.03914 7.33342 6.53043 7.33342 6V0.666667C7.33342 0.489856 7.26318 0.320286 7.13815 0.195262C7.01313 0.0702379 6.84356 0 6.66675 0Z" fill="currentColor"/>
<path d="M4.66683 0.666667C4.66683 0.489856 4.59659 0.320286 4.47157 0.195262C4.34654 0.0702379 4.17697 0 4.00016 0C3.82335 0 3.65378 0.0702379 3.52876 0.195262C3.40373 0.320286 3.3335 0.489856 3.3335 0.666667V5.33333H4.66683V0.666667Z" fill="currentColor"/>
<path d="M13.3333 0H14C14.1768 0 14.3464 0.0702379 14.4714 0.195262C14.5964 0.320286 14.6667 0.489856 14.6667 0.666667V15C14.6667 15.2652 14.5613 15.5196 14.3738 15.7071C14.1862 15.8946 13.9319 16 13.6667 16C13.4015 16 13.1471 15.8946 12.9596 15.7071C12.772 15.5196 12.6667 15.2652 12.6667 15V11.3333H10.6667C10.4899 11.3333 10.3203 11.2631 10.1953 11.1381C10.0702 11.013 10 10.8435 10 10.6667V3.33333C10 2.44928 10.3512 1.60143 10.9763 0.976311C11.6014 0.351189 12.4493 0 13.3333 0Z" fill="currentColor"/>
</svg>
