<svg viewBox="0 0 24 24" fill="none" xmlns="http://www.w3.org/2000/svg">
<path d="M10 0C9.73478 0 9.48043 0.105357 9.29289 0.292893C9.10536 0.48043 9 0.734784 9 1V9C9 9.26522 8.89464 9.51957 8.70711 9.70711C8.51957 9.89464 8.26522 10 8 10H4C3.73478 10 3.48043 9.89464 3.29289 9.70711C3.10536 9.51957 3 9.26522 3 9V1C3 0.734784 2.89464 0.48043 2.70711 0.292893C2.51957 0.105357 2.26522 0 2 0C1.73478 0 1.48043 0.105357 1.29289 0.292893C1.10536 0.48043 1 0.734784 1 1V9C1 9.79565 1.31607 10.5587 1.87868 11.1213C2.44129 11.6839 3.20435 12 4 12H4.923L4.153 22.008C4.1343 22.262 4.16818 22.5171 4.25253 22.7574C4.33687 22.9977 4.46987 23.218 4.64321 23.4046C4.81655 23.5911 5.0265 23.7399 5.25995 23.8417C5.4934 23.9435 5.74533 23.996 6 23.996C6.25467 23.996 6.5066 23.9435 6.74005 23.8417C6.9735 23.7399 7.18345 23.5911 7.35679 23.4046C7.53013 23.218 7.66313 22.9977 7.74747 22.7574C7.83182 22.5171 7.8657 22.262 7.847 22.008L7.077 12H8C8.79565 12 9.55871 11.6839 10.1213 11.1213C10.6839 10.5587 11 9.79565 11 9V1C11 0.734784 10.8946 0.48043 10.7071 0.292893C10.5196 0.105357 10.2652 0 10 0Z" fill="currentColor"/>
<path d="M7 1C7 0.734784 6.89464 0.48043 6.70711 0.292893C6.51957 0.105357 6.26522 0 6 0C5.73478 0 5.48043 0.105357 5.29289 0.292893C5.10536 0.48043 5 0.734784 5 1V8H7V1Z" fill="currentColor"/>
<path d="M20 0H21C21.2652 0 21.5196 0.105357 21.7071 0.292893C21.8946 0.48043 22 0.734784 22 1V22.5C22 22.8978 21.842 23.2794 21.5607 23.5607C21.2794 23.842 20.8978 24 20.5 24C20.1022 24 19.7206 23.842 19.4393 23.5607C19.158 23.2794 19 22.8978 19 22.5V17H16C15.7348 17 15.4804 16.8946 15.2929 16.7071C15.1054 16.5196 15 16.2652 15 16V5C15 3.67392 15.5268 2.40215 16.4645 1.46447C17.4021 0.526784 18.6739 0 20 0Z" fill="currentColor"/>
</svg>
