<svg viewBox="0 0 32 32" fill="none" xmlns="http://www.w3.org/2000/svg">
<path d="M13.3335 0C12.9799 0 12.6407 0.140476 12.3907 0.390524C12.1406 0.640573 12.0002 0.979711 12.0002 1.33333V12C12.0002 12.3536 11.8597 12.6928 11.6096 12.9428C11.3596 13.1929 11.0205 13.3333 10.6668 13.3333H5.3335C4.97987 13.3333 4.64074 13.1929 4.39069 12.9428C4.14064 12.6928 4.00016 12.3536 4.00016 12V1.33333C4.00016 0.979711 3.85969 0.640573 3.60964 0.390524C3.35959 0.140476 3.02045 0 2.66683 0C2.31321 0 1.97407 0.140476 1.72402 0.390524C1.47397 0.640573 1.3335 0.979711 1.3335 1.33333V12C1.3335 13.0609 1.75492 14.0783 2.50507 14.8284C3.25521 15.5786 4.27263 16 5.3335 16H6.56416L5.5375 29.344C5.51256 29.6826 5.55774 30.0228 5.6702 30.3432C5.78266 30.6636 5.95999 30.9573 6.19111 31.2061C6.42222 31.4548 6.70216 31.6533 7.01343 31.7889C7.3247 31.9246 7.66061 31.9947 8.00016 31.9947C8.33972 31.9947 8.67562 31.9246 8.98689 31.7889C9.29816 31.6533 9.5781 31.4548 9.80922 31.2061C10.0403 30.9573 10.2177 30.6636 10.3301 30.3432C10.4426 30.0228 10.4878 29.6826 10.4628 29.344L9.43616 16H10.6668C11.7277 16 12.7451 15.5786 13.4953 14.8284C14.2454 14.0783 14.6668 13.0609 14.6668 12V1.33333C14.6668 0.979711 14.5264 0.640573 14.2763 0.390524C14.0263 0.140476 13.6871 0 13.3335 0Z" fill="currentColor"/>
<path d="M9.33366 1.33333C9.33366 0.979711 9.19318 0.640573 8.94313 0.390524C8.69309 0.140476 8.35395 0 8.00033 0C7.6467 0 7.30757 0.140476 7.05752 0.390524C6.80747 0.640573 6.66699 0.979711 6.66699 1.33333V10.6667H9.33366V1.33333Z" fill="currentColor"/>
<path d="M26.6667 0H28C28.3536 0 28.6928 0.140476 28.9428 0.390524C29.1929 0.640573 29.3333 0.979711 29.3333 1.33333V30C29.3333 30.5304 29.1226 31.0391 28.7475 31.4142C28.3725 31.7893 27.8638 32 27.3333 32C26.8029 32 26.2942 31.7893 25.9191 31.4142C25.544 31.0391 25.3333 30.5304 25.3333 30V22.6667H21.3333C20.9797 22.6667 20.6406 22.5262 20.3905 22.2761C20.1405 22.0261 20 21.687 20 21.3333V6.66667C20 4.89856 20.7024 3.20286 21.9526 1.95262C23.2029 0.702379 24.8986 0 26.6667 0Z" fill="currentColor"/>
</svg>
