<svg viewBox="0 0 32 32" fill="none" xmlns="http://www.w3.org/2000/svg">
<path d="M25.333 2.81934C26.7593 2.81934 27.9168 3.97614 27.917 5.40234V28.0693C27.917 28.7596 27.3572 29.3192 26.667 29.3193C25.9766 29.3193 25.417 28.7597 25.417 28.0693V21.3174H24.0361L24 21.3193L23.7295 21.3125C20.9555 21.1717 18.75 18.8783 18.75 16.0693V8.06934C18.75 5.16965 21.1003 2.81934 24 2.81934H25.333ZM24 5.31934C22.481 5.31934 21.25 6.55036 21.25 8.06934V16.0693C21.25 17.4933 22.332 18.6638 23.7188 18.8047L23.9795 18.8174H25.417V5.40234C25.4168 5.35685 25.3785 5.31934 25.333 5.31934H24Z" fill="currentColor"/>
<path d="M9.9043 28.002C9.90324 28.6919 9.34227 29.2505 8.65234 29.25C7.96233 29.249 7.40376 28.6891 7.4043 27.999L9.9043 28.002Z" fill="currentColor"/>
<path d="M13.333 2.8623C14.0234 2.8623 14.583 3.42195 14.583 4.1123V10.1816L14.5781 10.2832C14.4878 13.2294 12.6089 15.8667 9.91504 16.499L9.9043 28.002L7.4043 27.999L7.41504 16.498C4.716 15.8625 2.83585 13.2141 2.75488 10.2598C2.75329 10.234 2.75003 10.2078 2.75 10.1816V4.1123C2.75 3.42195 3.30964 2.8623 4 2.8623C4.69036 2.8623 5.25 3.42195 5.25 4.1123V10.0615L5.25488 10.2861C5.35535 12.581 6.98596 14.1445 8.66699 14.1445C10.3479 14.1443 11.9777 12.5809 12.0781 10.2861L12.083 10.0615V4.1123C12.083 3.42206 12.6428 2.86248 13.333 2.8623Z" fill="currentColor"/>
<path d="M8.66699 2.75C9.3572 2.75018 9.91699 3.30975 9.91699 4V11.4004C9.91678 12.0905 9.35707 12.6502 8.66699 12.6504C7.97677 12.6504 7.4172 12.0906 7.41699 11.4004V4C7.41699 3.30964 7.97664 2.75 8.66699 2.75Z" fill="currentColor"/>
</svg>
