<svg viewBox="0 0 32 32" fill="none" xmlns="http://www.w3.org/2000/svg">
<path d="M26.6667 6.66683V9.3335H29.3333V20.6668C29.3333 21.7697 28.4362 22.6668 27.3333 22.6668C26.2305 22.6668 25.3333 21.7697 25.3333 20.6668V5.3335C25.3333 3.12776 23.5391 1.3335 21.3333 1.3335H6.66667C4.46093 1.3335 2.66667 3.12776 2.66667 5.3335V28.0002H1.33333C0.597 28.0002 0 28.5972 0 29.3335C0 30.0698 0.597 30.6668 1.33333 30.6668H26.6667C27.403 30.6668 28 30.0698 28 29.3335C28 28.5972 27.403 28.0002 26.6667 28.0002H25.3333V24.8654C25.9419 25.1567 26.6149 25.3335 27.3333 25.3335C29.9063 25.3335 32 23.2397 32 20.6668V6.66683H26.6667ZM20 14.6668H8V6.66683H20V14.6668Z" fill="currentColor"/>
</svg>
