<svg viewBox="0 0 24 24" fill="none" xmlns="http://www.w3.org/2000/svg">
<path d="M12.6025 6.00488C13.1067 6.05621 13.5 6.48232 13.5 7V11C13.5 11.5523 13.0523 12 12.5 12H6.5C5.94772 12 5.5 11.5523 5.5 11V7L5.50488 6.89746C5.55621 6.39333 5.98232 6 6.5 6H12.5L12.6025 6.00488ZM7.5 10H11.5V8H7.5V10Z" fill="currentColor"/>
<path d="M13.5 2C15.1573 2 16.5 3.34272 16.5 5V14H17.5C18.6043 14 19.5 14.8957 19.5 16V17.5C19.5 17.7757 19.7243 18 20 18C20.2757 18 20.5 17.7757 20.5 17.5V13H19.6328C18.4312 12.9999 17.4983 11.9459 17.6484 10.751L17.8984 8.75195C18.023 7.75156 18.8737 7.00012 19.8828 7H20.0859L18.793 5.70703L18.7246 5.63086C18.4043 5.23809 18.4269 4.65908 18.793 4.29297C19.1591 3.92685 19.7381 3.90426 20.1309 4.22461L20.207 4.29297L21.6211 5.70703C22.1834 6.26935 22.5 7.03264 22.5 7.82812V17.5C22.5 18.8803 21.3803 20 20 20C19.9647 20 19.9299 19.9977 19.8955 19.9941C18.5637 19.9393 17.5 18.8452 17.5 17.5V16H16.5V20C17.0523 20 17.5 20.4477 17.5 21C17.5 21.5523 17.0523 22 16.5 22H2.5C1.94772 22 1.5 21.5523 1.5 21C1.5 20.4477 1.94772 20 2.5 20V5C2.5 3.34272 3.84272 2 5.5 2H13.5ZM5.5 4C4.94728 4 4.5 4.44728 4.5 5V20H14.5V5C14.5 4.44728 14.0527 4 13.5 4H5.5ZM19.6328 11H20.5V9H19.8828L19.6328 11Z" fill="currentColor"/>
</svg>
