<svg viewBox="0 0 16 16" fill="none" xmlns="http://www.w3.org/2000/svg">
<path d="M13.3333 3.33317V4.6665H14.6667V10.3332C14.6667 10.8846 14.2181 11.3332 13.6667 11.3332C13.1152 11.3332 12.6667 10.8846 12.6667 10.3332V2.6665C12.6667 1.56364 11.7695 0.666504 10.6667 0.666504H3.33333C2.23047 0.666504 1.33333 1.56364 1.33333 2.6665V13.9998H0.666667C0.2985 13.9998 0 14.2983 0 14.6665C0 15.0347 0.2985 15.3332 0.666667 15.3332H13.3333C13.7015 15.3332 14 15.0347 14 14.6665C14 14.2983 13.7015 13.9998 13.3333 13.9998H12.6667V12.4325C12.9709 12.5781 13.3075 12.6665 13.6667 12.6665C14.9531 12.6665 16 11.6196 16 10.3332V3.33317H13.3333ZM10 7.33317H4V3.33317H10V7.33317Z" fill="currentColor"/>
</svg>
