<svg viewBox="0 0 32 32" fill="none" xmlns="http://www.w3.org/2000/svg">
<path d="M16.7949 8.08984C17.4249 8.15409 17.9168 8.68613 17.917 9.33301V14.666C17.917 15.3562 17.3572 15.9158 16.667 15.916H8.66699C7.97664 15.916 7.41699 15.3564 7.41699 14.666V9.33301L7.42383 9.20508C7.48808 8.57501 8.01996 8.08301 8.66699 8.08301H16.667L16.7949 8.08984ZM9.91699 13.416H15.417V10.583H9.91699V13.416Z" fill="currentColor"/>
<path d="M18 2.75C20.1635 2.75022 21.917 4.50344 21.917 6.66699V18.75H23.334C24.76 18.7504 25.917 19.9079 25.917 21.334V23.334C25.9173 23.7473 26.2536 24.084 26.667 24.084C27.0802 24.0838 27.4166 23.7472 27.417 23.334V17.25H26.1768C24.6248 17.2497 23.4206 15.8889 23.6143 14.3457L23.9473 11.6797C24.1082 10.3876 25.2073 9.41711 26.5107 9.41699H26.9824L25.1162 7.55078L25.0303 7.45605C24.63 6.96515 24.6588 6.24082 25.1162 5.7832C25.5738 5.32564 26.2981 5.29696 26.7891 5.69727L26.8838 5.7832L28.7695 7.66797C29.5034 8.40205 29.917 9.39917 29.917 10.4375V23.334C29.9167 25.0719 28.5504 26.4919 26.834 26.5791L26.667 26.584L26.5 26.5791C24.7834 26.4921 23.4173 25.072 23.417 23.334V21.334C23.417 21.2886 23.3793 21.2504 23.334 21.25H21.917V26.75H22L22.1279 26.7559C22.7579 26.8201 23.2498 27.3531 23.25 28C23.2498 28.6469 22.7579 29.179 22.1279 29.2432L22 29.25H3.33301C2.64287 29.2499 2.08318 28.6901 2.08301 28C2.08318 27.3099 2.64287 26.7501 3.33301 26.75H3.41699V6.66699C3.41699 4.5033 5.1703 2.75 7.33398 2.75H18ZM7.33398 5.25C6.55101 5.25 5.91699 5.88401 5.91699 6.66699V26.75H19.417V6.66699C19.417 5.88415 18.7828 5.25022 18 5.25H7.33398ZM26.5107 11.917C26.4683 11.9171 26.4327 11.9489 26.4277 11.9893L26.0947 14.6562C26.0889 14.7044 26.1267 14.7497 26.1768 14.75H27.417V11.917H26.5107Z" fill="currentColor"/>
</svg>
