<svg viewBox="0 0 16 16" fill="none" xmlns="http://www.w3.org/2000/svg">
<path d="M8.41016 3.9209C8.78813 3.95952 9.08301 4.27883 9.08301 4.66699V7.33398C9.08266 7.7479 8.747 8.08398 8.33301 8.08398H4.33301C3.9192 8.08376 3.58336 7.74776 3.58301 7.33398V4.66699L3.58691 4.58984C3.62552 4.21201 3.94503 3.9172 4.33301 3.91699H8.33301L8.41016 3.9209ZM5.08301 6.58398H7.58301V5.41699H5.08301V6.58398Z" fill="currentColor"/>
<path d="M9.21289 1.26074C10.2634 1.36746 11.0828 2.25426 11.083 3.33301V9.25H11.666C12.448 9.25 13.0827 9.8841 13.083 10.666V11.666C13.083 11.8037 13.1954 11.9158 13.333 11.916C13.4708 11.916 13.583 11.8038 13.583 11.666V8.75H13.0889C12.2379 8.74986 11.5765 8.0035 11.6826 7.15723L11.8496 5.82422C11.9353 5.1365 12.5055 4.61617 13.1924 4.58594L12.4697 3.86328L12.418 3.80664C12.1779 3.51208 12.1952 3.07727 12.4697 2.80273C12.7441 2.52853 13.1781 2.51139 13.4727 2.75098L13.5303 2.80273L14.4727 3.74512C14.8631 4.13553 15.0829 4.6664 15.083 5.21875V11.666C15.083 12.5719 14.394 13.3177 13.5117 13.4072L13.333 13.416L13.1543 13.4072C12.2722 13.3175 11.583 12.5717 11.583 11.666V10.75H11.083V13.2549C11.4581 13.2962 11.7498 13.614 11.75 14C11.7498 14.388 11.4551 14.7075 11.0771 14.7461L11 14.75H1.66699C1.25289 14.75 0.917168 14.4141 0.916992 14C0.917156 13.6143 1.20834 13.2966 1.58301 13.2549V3.33301C1.58318 2.18252 2.51558 1.2504 3.66602 1.25H9L9.21289 1.26074ZM3.66602 2.75C3.34401 2.75039 3.08318 3.01095 3.08301 3.33301V13.25H9.58301V3.33301C9.58285 3.05095 9.38311 2.81598 9.11719 2.76172L9 2.75H3.66602ZM13.1826 7.25H13.583V6.08301H13.3291L13.1826 7.25Z" fill="currentColor"/>
</svg>
