<svg viewBox="0 0 24 24" fill="none" xmlns="http://www.w3.org/2000/svg">
<path d="M16 3C18.2091 3 20 4.79086 20 7V10.0498C21.1411 10.2814 22 11.2905 22 12.5V17C22 18.3057 21.1645 19.413 20 19.8252V21C20 21.5523 19.5523 22 19 22C18.4477 22 18 21.5523 18 21V20H6V21C6 21.5523 5.55228 22 5 22C4.44772 22 4 21.5523 4 21V19.8252C2.83548 19.413 2 18.3057 2 17V12.5C2 11.2905 2.85886 10.2814 4 10.0498V7C4 4.79086 5.79086 3 8 3H16ZM4.5 12C4.22386 12 4 12.2239 4 12.5V17C4 17.5523 4.44772 18 5 18H19C19.5523 18 20 17.5523 20 17V12.5C20 12.2239 19.7761 12 19.5 12H18.5C18.2239 12 18 12.2239 18 12.5V15C18 15.5523 17.5523 16 17 16H7C6.44772 16 6 15.5523 6 15V12.5C6 12.2239 5.77614 12 5.5 12H4.5ZM8 5C6.89543 5 6 5.89543 6 7V10.0498C7.14114 10.2814 8 11.2905 8 12.5V14H16V12.5C16 11.2905 16.8589 10.2814 18 10.0498V7C18 5.89543 17.1046 5 16 5H8Z" fill="currentColor"/>
</svg>
