<svg viewBox="0 0 24 24" fill="none" xmlns="http://www.w3.org/2000/svg">
<path d="M9.99785 6.54813C9.98983 6.62993 9.96176 6.70849 9.91613 6.77686C9.87052 6.84541 9.80868 6.90163 9.73611 6.94054C9.66353 6.97944 9.58248 6.99982 9.50014 6.99986H0.500323C0.418011 6.99991 0.336958 6.97964 0.26436 6.94085C0.191761 6.90206 0.129863 6.84595 0.0841583 6.77749C0.0384539 6.70903 0.0103578 6.63035 0.00236369 6.54843C-0.0056304 6.4665 0.00672489 6.38387 0.0383328 6.30787L2.53828 0.307994C2.57623 0.216746 2.64037 0.138791 2.72259 0.0839733C2.80482 0.0291555 2.90145 -6.56753e-05 3.00027 1.10835e-07H7.00019C7.09902 -6.56753e-05 7.19564 0.0291555 7.27787 0.0839733C7.3601 0.138791 7.42423 0.216746 7.46218 0.307994L9.96213 6.30787C9.9936 6.3838 10.0059 6.46632 9.99785 6.54813Z" fill="currentColor"/>
<path d="M13.0002 14.8687C12.9917 14.4833 12.9073 14.1034 12.7518 13.7507C12.5964 13.3979 12.3731 13.0793 12.0945 12.8128C11.8159 12.5464 11.4876 12.3375 11.1283 12.198C10.7689 12.0585 10.3856 11.9911 10.0003 11.9998V9.9998C10.0003 9.73459 10.1056 9.48024 10.2932 9.2927C10.4807 9.10517 10.7351 8.99982 11.0003 8.99982H21.0001C21.2653 8.99982 21.5196 9.10517 21.7072 9.2927C21.8947 9.48024 22 9.73459 22 9.9998V11.9998H21.869C21.4837 12.0083 21.1038 12.0927 20.751 12.2481C20.3983 12.4035 20.0796 12.6269 19.8132 12.9055C19.5468 13.1841 19.3379 13.5124 19.1983 13.8717C19.0588 14.231 18.9915 14.6143 19.0001 14.9997V15.9997H13.0002V14.8687Z" fill="currentColor"/>
<path d="M23 13.9997H22C21.7348 13.9997 21.4805 14.1051 21.2929 14.2926C21.1054 14.4801 21.0001 14.7345 21.0001 14.9997V17.9996H11.0003V14.9997C11.0003 14.7345 10.8949 14.4801 10.7074 14.2926C10.5198 14.1051 10.2655 13.9997 10.0003 13.9997H9.00031C8.73509 13.9997 8.48075 14.1051 8.29321 14.2926C8.10568 14.4801 8.00033 14.7345 8.00033 14.9997V20.9996C8.00033 21.2648 8.10568 21.5191 8.29321 21.7067C8.48075 21.8942 8.73509 21.9996 9.00031 21.9996H10.0003V22.9995C10.0003 23.2647 10.1056 23.5191 10.2932 23.7066C10.4807 23.8942 10.7351 23.9995 11.0003 23.9995C11.2655 23.9995 11.5198 23.8942 11.7074 23.7066C11.8949 23.5191 12.0002 23.2647 12.0002 22.9995V21.9996H20.0001V22.9995C20.0001 23.2647 20.1054 23.5191 20.293 23.7066C20.4805 23.8942 20.7348 23.9995 21.0001 23.9995C21.2653 23.9995 21.5196 23.8942 21.7072 23.7066C21.8947 23.5191 22 23.2647 22 22.9995V21.9996H23C23.2652 21.9996 23.5196 21.8942 23.7071 21.7067C23.8946 21.5191 24 21.2648 24 20.9996V14.9997C24 14.7345 23.8946 14.4801 23.7071 14.2926C23.5196 14.1051 23.2652 13.9997 23 13.9997Z" fill="currentColor"/>
<path d="M4.29329 23.7066C4.10576 23.5191 4.00041 23.2647 4.00041 22.9995V8.99982H6.00037V22.9995C6.00037 23.2647 5.89501 23.5191 5.70748 23.7066C5.51995 23.8942 5.2656 23.9995 5.00039 23.9995C4.73518 23.9995 4.48083 23.8942 4.29329 23.7066Z" fill="currentColor"/>
</svg>
