<svg viewBox="0 0 32 32" fill="none" xmlns="http://www.w3.org/2000/svg">
<path d="M13.3304 8.73081C13.3197 8.83988 13.2823 8.94463 13.2215 9.03579C13.1607 9.12719 13.0782 9.20216 12.9814 9.25402C12.8847 9.30589 12.7766 9.33306 12.6668 9.33312H0.667096C0.557347 9.33319 0.449277 9.30617 0.352479 9.25445C0.255681 9.20273 0.17315 9.12791 0.112211 9.03663C0.0512718 8.94535 0.0138103 8.84044 0.00315157 8.73121C-0.00750718 8.62198 0.00896649 8.51181 0.0511103 8.41047L3.38437 0.410658C3.43496 0.288995 3.52048 0.185054 3.63012 0.111964C3.73975 0.0388741 3.86859 -8.74196e-05 4.00035 1.47282e-07H9.33356C9.46533 -8.74196e-05 9.59417 0.0388741 9.7038 0.111964C9.81344 0.185054 9.89895 0.288995 9.94955 0.410658L13.2828 8.41047C13.3248 8.51172 13.3411 8.62174 13.3304 8.73081Z" fill="currentColor"/>
<path d="M17.3336 19.8249C17.3222 19.3111 17.2096 18.8045 17.0024 18.3342C16.7952 17.8639 16.4974 17.439 16.126 17.0838C15.7545 16.7285 15.3168 16.45 14.8377 16.264C14.3585 16.0779 13.8475 15.9881 13.3337 15.9996V13.333C13.3337 12.9794 13.4742 12.6403 13.7242 12.3902C13.9742 12.1402 14.3134 11.9997 14.667 11.9997H28C28.3536 11.9997 28.6928 12.1402 28.9428 12.3902C29.1928 12.6403 29.3333 12.9794 29.3333 13.333V15.9996H29.1586C28.6448 16.0111 28.1383 16.1236 27.668 16.3308C27.1976 16.538 26.7727 16.8358 26.4175 17.2073C26.0623 17.5787 25.7837 18.0165 25.5977 18.4956C25.4117 18.9747 25.3219 19.4857 25.3334 19.9995V21.3328H17.3336V19.8249Z" fill="currentColor"/>
<path d="M30.6665 18.6661H29.3332C28.9796 18.6661 28.6405 18.8065 28.3904 19.0566C28.1404 19.3066 27.9999 19.6458 27.9999 19.9994V23.9993H14.6669V19.9994C14.6669 19.6458 14.5264 19.3066 14.2764 19.0566C14.0263 18.8065 13.6872 18.6661 13.3336 18.6661H12.0003C11.6467 18.6661 11.3076 18.8065 11.0575 19.0566C10.8075 19.3066 10.667 19.6458 10.667 19.9994V27.9992C10.667 28.3528 10.8075 28.6919 11.0575 28.942C11.3076 29.192 11.6467 29.3325 12.0003 29.3325H13.3336V30.6658C13.3336 31.0194 13.4741 31.3585 13.7241 31.6086C13.9742 31.8586 14.3133 31.9991 14.6669 31.9991C15.0205 31.9991 15.3596 31.8586 15.6097 31.6086C15.8597 31.3585 16.0002 31.0194 16.0002 30.6658V29.3325H26.6666V30.6658C26.6666 31.0194 26.8071 31.3585 27.0571 31.6086C27.3072 31.8586 27.6463 31.9991 27.9999 31.9991C28.3535 31.9991 28.6927 31.8586 28.9427 31.6086C29.1928 31.3585 29.3332 31.0194 29.3332 30.6658V29.3325H30.6665C31.0201 29.3325 31.3593 29.192 31.6093 28.942C31.8594 28.6919 31.9998 28.3528 31.9998 27.9992V19.9994C31.9998 19.6458 31.8594 19.3066 31.6093 19.0566C31.3593 18.8065 31.0201 18.6661 30.6665 18.6661Z" fill="currentColor"/>
<path d="M5.72438 31.6088C5.47434 31.3587 5.33386 31.0196 5.33386 30.666V11.9997H8.00047V30.666C8.00047 31.0196 7.86 31.3587 7.60995 31.6088C7.35991 31.8588 7.02078 31.9993 6.66717 31.9993C6.31355 31.9993 5.97442 31.8588 5.72438 31.6088Z" fill="currentColor"/>
</svg>
