<svg viewBox="0 0 16 16" fill="none" xmlns="http://www.w3.org/2000/svg">
<path d="M6.66516 4.36537C6.65982 4.41991 6.6411 4.47228 6.61069 4.51786C6.58028 4.56356 6.53905 4.60104 6.49067 4.62698C6.44229 4.65291 6.38825 4.6665 6.33336 4.66652H0.333546C0.278671 4.66656 0.224637 4.65305 0.176238 4.62719C0.12784 4.60133 0.0865742 4.56392 0.0561049 4.51828C0.0256357 4.47264 0.00690511 4.42019 0.00157577 4.36557C-0.00375356 4.31096 0.00448321 4.25587 0.025555 4.2052L1.69217 0.205327C1.71747 0.144496 1.76023 0.0925265 1.81504 0.0559817C1.86986 0.0194369 1.93428 -4.37094e-05 2.00016 7.36404e-08H4.66675C4.73263 -4.37094e-05 4.79705 0.0194369 4.85186 0.0559817C4.90668 0.0925265 4.94944 0.144496 4.97474 0.205327L6.64135 4.2052C6.66233 4.25583 6.67051 4.31084 6.66516 4.36537Z" fill="currentColor"/>
<path d="M8.66673 9.91236C8.66101 9.65546 8.60475 9.40219 8.50115 9.16703C8.39754 8.93187 8.24863 8.71942 8.06292 8.54181C7.8772 8.36421 7.65832 8.22492 7.41877 8.13192C7.17922 8.03891 6.9237 7.994 6.66679 7.99976V6.66646C6.66679 6.48966 6.73702 6.32009 6.86205 6.19507C6.98707 6.07005 7.15663 5.99982 7.33343 5.99982H13.9999C14.1767 5.99982 14.3463 6.07005 14.4713 6.19507C14.5963 6.32009 14.6665 6.48966 14.6665 6.66646V7.99976H14.5792C14.3223 8.00547 14.069 8.06174 13.8339 8.16534C13.5987 8.26894 13.3863 8.41785 13.2087 8.60357C13.0311 8.78928 12.8918 9.00817 12.7988 9.24771C12.7058 9.48726 12.6609 9.74279 12.6666 9.99969V10.6663H8.66673V9.91236Z" fill="currentColor"/>
<path d="M15.3333 9.33321H14.6666C14.4898 9.33321 14.3203 9.40345 14.1952 9.52847C14.0702 9.65349 14 9.82305 14 9.99986V11.9998H7.33352V9.99986C7.33352 9.82305 7.26328 9.65349 7.13826 9.52847C7.01324 9.40345 6.84368 9.33321 6.66687 9.33321H6.00022C5.82342 9.33321 5.65385 9.40345 5.52883 9.52847C5.40381 9.65349 5.33358 9.82305 5.33358 9.99986V13.9997C5.33358 14.1765 5.40381 14.3461 5.52883 14.4711C5.65385 14.5961 5.82342 14.6664 6.00022 14.6664H6.66687V15.333C6.66687 15.5098 6.73711 15.6794 6.86213 15.8044C6.98715 15.9294 7.15671 15.9997 7.33352 15.9997C7.51032 15.9997 7.67989 15.9294 7.80491 15.8044C7.92993 15.6794 8.00016 15.5098 8.00016 15.333V14.6664H13.3333V15.333C13.3333 15.5098 13.4036 15.6794 13.5286 15.8044C13.6536 15.9294 13.8232 15.9997 14 15.9997C14.1768 15.9997 14.3464 15.9294 14.4714 15.8044C14.5964 15.6794 14.6666 15.5098 14.6666 15.333V14.6664H15.3333C15.5101 14.6664 15.6796 14.5961 15.8047 14.4711C15.9297 14.3461 15.9999 14.1765 15.9999 13.9997V9.99986C15.9999 9.82305 15.9297 9.65349 15.8047 9.52847C15.6796 9.40345 15.5101 9.33321 15.3333 9.33321Z" fill="currentColor"/>
<path d="M2.86217 15.8043C2.73715 15.6792 2.66691 15.5097 2.66691 15.3329V5.99982H4.0002V15.3329C4.0002 15.5097 3.92997 15.6792 3.80495 15.8043C3.67993 15.9293 3.51036 15.9995 3.33356 15.9995C3.15675 15.9995 2.98719 15.9293 2.86217 15.8043Z" fill="currentColor"/>
</svg>
