<svg viewBox="0 0 16 16" fill="none" xmlns="http://www.w3.org/2000/svg">
<path d="M10.666 1.91699C12.1848 1.91699 13.416 3.14821 13.416 4.66699V6.63379C14.1815 6.82056 14.7499 7.51007 14.75 8.33301V11.333C14.75 12.2191 14.1958 12.9733 13.416 13.2744V14C13.4158 14.4141 13.0801 14.75 12.666 14.75C12.2781 14.7497 11.9585 14.4549 11.9199 14.0771L11.916 14V13.416H4.08301V14C4.08283 14.4141 3.74711 14.75 3.33301 14.75C2.94498 14.7498 2.62551 14.455 2.58691 14.0771L2.58301 14V13.2744C1.80366 12.9731 1.25 12.2187 1.25 11.333V8.33301C1.25015 7.51047 1.81811 6.8219 2.58301 6.63477V4.66699C2.58301 3.14832 3.81437 1.91717 5.33301 1.91699H10.666ZM3 8.08301C2.86204 8.08301 2.75018 8.19509 2.75 8.33301V11.333C2.75 11.6551 3.01099 11.9158 3.33301 11.916H12.667C12.989 11.9158 13.25 11.6551 13.25 11.333V8.33301C13.2498 8.21246 13.1644 8.11131 13.0508 8.08789L13 8.08301H12.6855C12.6792 8.08317 12.6724 8.08398 12.666 8.08398C12.6595 8.08398 12.653 8.08318 12.6465 8.08301H12.333C12.1952 8.08318 12.0832 8.19519 12.083 8.33301V10C12.0828 10.4141 11.7471 10.75 11.333 10.75H4.66699C4.25289 10.75 3.91717 10.4141 3.91699 10V8.33301C3.91684 8.21224 3.83076 8.11107 3.7168 8.08789L3.66699 8.08301H3.35254C3.34615 8.08317 3.33943 8.08398 3.33301 8.08398C3.32647 8.08398 3.31997 8.08318 3.31348 8.08301H3ZM5.33301 3.41699C4.6428 3.41717 4.08301 3.97674 4.08301 4.66699V6.63379C4.84837 6.82067 5.41684 7.51018 5.41699 8.33301V9.25H10.583V8.33301C10.5832 7.51058 11.1512 6.82201 11.916 6.63477V4.66699C11.916 3.97664 11.3564 3.41699 10.666 3.41699H5.33301Z" fill="currentColor"/>
</svg>
