<svg viewBox="0 0 32 32" fill="none" xmlns="http://www.w3.org/2000/svg">
<path d="M21.334 4.08301C24.2331 4.08332 26.5838 6.43387 26.584 9.33301V13.4697C28.1001 13.7449 29.25 15.0715 29.25 16.667V22.667C29.2498 24.3923 28.1334 25.8558 26.584 26.3779V28C26.5838 28.69 26.024 29.2497 25.334 29.25C24.6437 29.25 24.0842 28.6902 24.084 28V26.584H7.91699V28C7.91682 28.6901 7.35709 29.2498 6.66699 29.25C5.97674 29.25 5.41717 28.6902 5.41699 28V26.3779C3.86714 25.856 2.75016 24.3927 2.75 22.667V16.667C2.75 15.0711 3.90029 13.7435 5.41699 13.4688V9.33301C5.41719 6.43368 7.76762 4.08301 10.667 4.08301H21.334ZM6 15.917C5.58579 15.917 5.25 16.2528 5.25 16.667V22.667C5.2502 23.446 5.87944 24.0778 6.65723 24.083C6.66048 24.083 6.66374 24.083 6.66699 24.083C6.67319 24.083 6.67937 24.0839 6.68555 24.084H25.3154C25.3215 24.0839 25.3279 24.083 25.334 24.083C25.3366 24.083 25.3392 24.083 25.3418 24.083C26.12 24.0783 26.7498 23.4463 26.75 22.667V16.667C26.75 16.2528 26.4142 15.917 26 15.917H24.667C24.2528 15.917 23.917 16.2528 23.917 16.667V20C23.9168 20.6901 23.3571 21.2498 22.667 21.25H9.33301C8.64292 21.2498 8.08321 20.6901 8.08301 20V16.667C8.08301 16.2528 7.74722 15.917 7.33301 15.917H6ZM10.667 6.58301C9.14833 6.58301 7.91719 7.81439 7.91699 9.33301V13.4697C9.43315 13.7449 10.583 15.0715 10.583 16.667V18.75H21.417V16.667C21.417 15.0711 22.5673 13.7435 24.084 13.4688V9.33301C24.0838 7.81458 22.8524 6.58332 21.334 6.58301H10.667Z" fill="currentColor"/>
</svg>
