<svg viewBox="0 0 16 16" fill="none" xmlns="http://www.w3.org/2000/svg">
<path d="M2.24566 4.00098H0.666748V5.33431H15.3334V4.00098H13.7448C13.8969 3.69444 13.9875 3.34892 13.9993 2.97918C13.9566 1.66318 12.8459 0.641851 11.5553 0.667851C9.7306 0.667851 8.6186 1.93585 8.0006 3.01185C7.3846 1.93518 6.27793 0.667851 4.46527 0.667851C3.1466 0.623851 2.04327 1.66318 2.0006 2.97918L1.99927 3.00118L2.0006 3.02318C2.01217 3.37424 2.09942 3.70509 2.24566 4.00098ZM4.40638 4.00098H4.36093C3.79229 3.98961 3.36286 3.55188 3.33327 3.00052C3.36393 2.42852 3.8806 1.98452 4.4446 2.00052C5.78327 2.00052 6.59993 3.16185 7.01593 4.00052H4.42327L4.40638 4.00098ZM11.6337 4.00098H8.9847C9.40207 3.16166 10.224 2.00118 11.5759 2.00052C12.1806 1.97385 12.6473 2.44052 12.6673 2.97918C12.6486 3.5425 12.2101 3.98465 11.6337 4.00098Z" fill="currentColor"/>
<path d="M8.66675 6.6665V14.6665H12.0001C13.1027 14.6665 14.0001 13.7692 14.0001 12.6665V6.6665H8.66675Z" fill="currentColor"/>
<path d="M2 6.6665H7.33333V14.6665H4C2.89733 14.6665 2 13.7692 2 12.6665V6.6665Z" fill="currentColor"/>
</svg>
