<svg viewBox="0 0 24 24" fill="none" xmlns="http://www.w3.org/2000/svg">
<path d="M20.6328 6.00099C20.8519 5.55713 20.9821 5.06057 20.9995 4.53377L21.0005 4.50083L20.9995 4.46789C20.9345 2.4957 19.2878 0.947452 17.3177 1.00085C14.8718 1.00734 13.2789 2.57241 12.3576 3.94296C12.2277 4.13624 12.1086 4.32896 12 4.51748C11.8914 4.32896 11.7723 4.13624 11.6424 3.94296C10.7211 2.57241 9.12821 1.00734 6.68227 1.00085C4.71218 0.947452 3.06554 2.4957 3.00054 4.46789L2.99946 4.50083L3.00054 4.53377C3.01791 5.06057 3.14812 5.55713 3.3672 6.00099H2C1.44772 6.00099 1 6.4487 1 7.00099C1 7.55327 1.44771 8.00099 2 8.00099H6.49134C6.55242 8.00254 6.61386 8.00255 6.67562 8.00099H11V20H6C5.44728 20 5 19.5527 5 19V11C5 10.4477 4.55228 10 4 10C3.44772 10 3 10.4477 3 11V19C3 20.6573 4.34272 22 6 22H18C19.6573 22 21 20.6573 21 19V11C21 10.4477 20.5523 10 20 10C19.4477 10 19 10.4477 19 11V19C19 19.5527 18.5527 20 18 20H13V8.00099H17.3244C17.3861 8.00255 17.4476 8.00254 17.5087 8.00099H22C22.5523 8.00099 23 7.55327 23 7.00099C23 6.4487 22.5523 6.00099 22 6.00099H20.6328ZM6.64634 6.00099H6.52387C5.71013 5.97017 5.04476 5.3222 5.00088 4.50083C5.04675 3.64221 5.77176 2.97308 6.63546 3.00033L6.65123 3.00083H6.667C8.15642 3.00083 9.22527 3.9321 9.98258 5.05871C10.1982 5.37953 10.3786 5.70279 10.5262 6.00083H6.65123L6.64634 6.00099ZM17.4761 6.00099H17.3537L17.3488 6.00083H13.4738C13.6214 5.70279 13.8018 5.37953 14.0174 5.05871C14.7747 3.9321 15.8436 3.00083 17.333 3.00083H17.3488L17.3645 3.00033C18.2282 2.97308 18.9533 3.64221 18.9991 4.50083C18.9552 5.3222 18.2899 5.97017 17.4761 6.00099Z" fill="currentColor"/>
</svg>
