<svg viewBox="0 0 32 32" fill="none" xmlns="http://www.w3.org/2000/svg">
<path d="M4.49083 8.00146C4.19865 7.40995 4.02433 6.74857 4.0012 6.04686L3.99854 6.00286L4.0012 5.95886C4.08653 3.32686 6.2932 1.24819 8.93054 1.33619C12.5559 1.33619 14.7692 3.87086 16.0012 6.02419C17.2372 3.87219 19.4612 1.33619 23.1105 1.33619C25.6919 1.28419 27.9132 3.32686 27.9985 5.95886C27.9751 6.69794 27.794 7.38864 27.49 8.00146H30.6666V10.6681H1.33325V8.00146H4.49083ZM14.0318 8.00146C13.1998 6.32414 11.5665 4.00152 8.8892 4.00152C7.7612 3.96952 6.72787 4.85752 6.66654 6.00152C6.72511 7.09285 7.56693 7.96161 8.6867 8.00146H14.0318ZM23.2958 8.00146C24.4346 7.95525 25.2974 7.07623 25.3345 5.95886C25.2945 4.88152 24.3612 3.94819 23.1519 4.00152C20.4486 4.00286 18.8048 6.32291 17.9699 8.00146H23.2958Z" fill="currentColor"/>
<path d="M17.3333 13.3335V29.3335H23.9999C26.2053 29.3335 27.9999 27.5388 27.9999 25.3335V13.3335H17.3333Z" fill="currentColor"/>
<path d="M4 13.3335H14.6667V29.3335H8C5.79467 29.3335 4 27.5388 4 25.3335V13.3335Z" fill="currentColor"/>
</svg>
