<svg viewBox="0 0 16 16" fill="none" xmlns="http://www.w3.org/2000/svg">
<path d="M13.8852 3.91749C14.0029 3.64275 14.0725 3.34193 14.0829 3.02526L14.0837 3.00056L14.0829 2.97585C14.0381 1.61555 12.9026 0.547622 11.5439 0.583906C9.87379 0.58876 8.79018 1.65837 8.16922 2.58215C8.10944 2.67109 8.05308 2.75984 8.00004 2.84762C7.947 2.75984 7.89065 2.67109 7.83086 2.58215C7.2099 1.65837 6.12629 0.58876 4.45616 0.583906C3.09745 0.547622 1.96199 1.61555 1.91716 2.97585L1.91634 3.00056L1.91716 3.02526C1.92759 3.34193 1.99713 3.64275 2.11483 3.91749H1.33325C0.919038 3.91749 0.583252 4.25327 0.583252 4.66749C0.583252 5.0817 0.919039 5.41749 1.33325 5.41749H4.33343C4.3703 5.41831 4.40736 5.41831 4.44459 5.41749H7.25V13.2502H4.00008C3.67763 13.2502 3.41675 12.9893 3.41675 12.6668V7.3335C3.41675 6.91929 3.08096 6.5835 2.66675 6.5835C2.25253 6.5835 1.91675 6.91929 1.91675 7.3335V12.6668C1.91675 13.8177 2.8492 14.7502 4.00008 14.7502H12.0001C13.151 14.7502 14.0834 13.8177 14.0834 12.6668V7.3335C14.0834 6.91929 13.7476 6.5835 13.3334 6.5835C12.9192 6.5835 12.5834 6.91929 12.5834 7.3335V12.6668C12.5834 12.9893 12.3225 13.2502 12.0001 13.2502H8.75V5.41749H11.5555C11.5927 5.41831 11.6298 5.41831 11.6667 5.41749H14.6666C15.0808 5.41749 15.4166 5.0817 15.4166 4.66749C15.4166 4.25327 15.0808 3.91749 14.6666 3.91749H13.8852ZM4.4245 3.91749H4.3554C3.85583 3.90002 3.44664 3.50379 3.41746 3.00056C3.4479 2.47543 3.89216 2.06682 4.42109 2.08352L4.43292 2.08389H4.44475C5.39748 2.08389 6.08801 2.67817 6.58597 3.41896C6.69891 3.58697 6.79719 3.75615 6.88157 3.91722H4.43292L4.4245 3.91749ZM11.6447 3.91749H11.5756L11.5672 3.91722H9.11851C9.20289 3.75615 9.30117 3.58697 9.41411 3.41896C9.91207 2.67817 10.6026 2.08389 11.5553 2.08389H11.5672L11.579 2.08352C12.1079 2.06682 12.5522 2.47543 12.5826 3.00056C12.5534 3.50379 12.1442 3.90002 11.6447 3.91749Z" fill="currentColor"/>
</svg>
