<svg viewBox="0 0 24 24" fill="none" xmlns="http://www.w3.org/2000/svg">
<path d="M3.36824 6.00098C3.14911 5.55734 3.01837 5.06131 3.00102 4.53502L2.99902 4.50202L3.00102 4.46902C3.06502 2.49502 4.72002 0.936021 6.69802 1.00202C9.41702 1.00202 11.077 2.90302 12.001 4.51802C12.928 2.90402 14.596 1.00202 17.333 1.00202C19.269 0.963021 20.935 2.49502 20.999 4.46902C20.9814 5.02333 20.8456 5.54136 20.6176 6.00098H23V8.00098H1V6.00098H3.36824ZM10.524 6.00098C9.89999 4.74298 8.675 3.00102 6.66702 3.00102C5.82102 2.97702 5.04602 3.64302 5.00002 4.50102C5.04396 5.31951 5.67532 5.97108 6.51515 6.00098H10.524ZM17.472 6.00098C18.3261 5.96632 18.9732 5.30705 19.001 4.46902C18.971 3.66102 18.271 2.96102 17.364 3.00102C15.3366 3.00202 14.1037 4.74206 13.4775 6.00098H17.472Z" fill="currentColor"/>
<path d="M13 10V22H18C19.654 22 21 20.654 21 19V10H13Z" fill="currentColor"/>
<path d="M3 10H11V22H6C4.346 22 3 20.654 3 19V10Z" fill="currentColor"/>
</svg>
