<svg viewBox="0 0 32 32" fill="none" xmlns="http://www.w3.org/2000/svg">
<path d="M27.7707 7.83449C28.006 7.28515 28.145 6.68367 28.1659 6.05052L28.1675 6.00111L28.1659 5.9517C28.0762 3.23111 25.8053 1.09524 23.0878 1.16781C19.7476 1.17752 17.5804 3.31675 16.3384 5.1643C16.2188 5.34225 16.1061 5.51982 16 5.69544C15.8938 5.51982 15.7811 5.34225 15.6615 5.1643C14.4195 3.31675 12.2523 1.17752 8.91209 1.16781C6.19465 1.09524 3.92374 3.23111 3.83407 5.9517L3.83244 6.00111L3.83407 6.05052C3.85493 6.68367 3.99394 7.28515 4.22922 7.83449H2.66675C1.83832 7.83449 1.16675 8.50606 1.16675 9.33449C1.16675 10.1629 1.83832 10.8345 2.66675 10.8345H8.64643C8.73351 10.8368 8.82111 10.8368 8.90919 10.8345H14.5V26.4999H7.99992C7.35501 26.4999 6.83325 25.9781 6.83325 25.3332V14.6665C6.83325 13.8381 6.16168 13.1665 5.33325 13.1665C4.50483 13.1665 3.83325 13.8381 3.83325 14.6665V25.3332C3.83325 27.6349 5.69816 29.4999 7.99992 29.4999H23.9999C26.3017 29.4999 28.1666 27.6349 28.1666 25.3332V14.6665C28.1666 13.8381 27.495 13.1665 26.6666 13.1665C25.8382 13.1665 25.1666 13.8381 25.1666 14.6665V25.3332C25.1666 25.9781 24.6448 26.4999 23.9999 26.4999H17.5V10.8345H23.0907C23.1788 10.8368 23.2664 10.8368 23.3535 10.8345H29.3334C30.1618 10.8345 30.8334 10.1629 30.8334 9.33449C30.8334 8.50606 30.1618 7.83449 29.3334 7.83449H27.7707ZM8.86423 7.83449H8.69779C7.70446 7.79327 6.89278 7.00328 6.83468 6.00111C6.89557 4.95086 7.78407 4.13365 8.84194 4.16703L8.86559 4.16778H8.88925C10.7947 4.16778 12.1758 5.35635 13.1717 6.83792C13.3976 7.17394 13.5941 7.51229 13.7629 7.83444H8.86559L8.86423 7.83449ZM23.3021 7.83449H23.1357L23.1343 7.83444H18.237C18.4058 7.51229 18.6024 7.17394 18.8282 6.83792C19.8241 5.35635 21.2052 4.16778 23.1107 4.16778H23.1343L23.158 4.16703C24.2159 4.13365 25.1044 4.95086 25.1652 6.00111C25.1071 7.00328 24.2955 7.79327 23.3021 7.83449Z" fill="currentColor"/>
</svg>
