<svg viewBox="0 0 16 16" fill="none" xmlns="http://www.w3.org/2000/svg">
<path d="M13.2523 9.7946C12.1544 9.30082 10.8997 9.29323 9.79724 9.77311L9.89978 10.7917C9.96372 11.4311 10.5023 11.9186 11.1449 11.9186H12.0013C12.6921 11.9186 13.2523 11.3584 13.2523 10.6676V9.7946ZM2.74744 10.6676C2.74747 11.3584 3.30762 11.9186 3.99841 11.9186H4.85486C5.49747 11.9186 6.03603 11.4311 6.09998 10.7917L6.20154 9.77311C5.09931 9.29362 3.84511 9.30092 2.74744 9.7946V10.6676ZM14.7523 10.6676C14.7523 12.1869 13.5206 13.4186 12.0013 13.4186H11.1449C9.73165 13.4186 8.54822 12.3473 8.40759 10.9411L8.29333 9.7985C8.10285 9.73422 7.89587 9.734 7.70544 9.7985L7.59216 10.9411C7.45154 12.3473 6.2681 13.4186 4.85486 13.4186H3.99841C2.47919 13.4186 1.24747 12.1869 1.24744 10.6676V9.22819C1.24744 8.97882 1.2744 8.72943 1.32849 8.486L2.27869 4.21354L2.33728 4.00163C2.50008 3.51721 2.83641 3.10659 3.28552 2.85221C3.79894 2.56152 4.41232 2.50255 4.97205 2.68913L5.5697 2.88835C5.96236 3.01951 6.17427 3.44379 6.04333 3.83659C5.91233 4.22942 5.48796 4.44205 5.09509 4.3112L4.49744 4.11198C4.34061 4.0597 4.16864 4.07643 4.02478 4.15788C3.88112 4.23932 3.77843 4.37754 3.74255 4.53874L2.94373 8.13151C4.2758 7.75895 5.7097 7.87457 6.97791 8.47819C7.62483 8.176 8.37385 8.17627 9.02087 8.47819C10.289 7.87436 11.723 7.7592 13.0551 8.13151L12.2572 4.53874C12.2213 4.37752 12.1187 4.23931 11.975 4.15788C11.8311 4.07643 11.6591 4.0597 11.5023 4.11198L10.9047 4.3112C10.5118 4.44198 10.0874 4.22941 9.95642 3.83659C9.82549 3.44382 10.0375 3.01955 10.4301 2.88835L11.0287 2.68913C11.5883 2.50265 12.2009 2.56156 12.7142 2.85221C13.2275 3.1429 13.5931 3.63771 13.7211 4.21354L14.6713 8.486C14.7254 8.72943 14.7523 8.97882 14.7523 9.22819V10.6676Z" fill="currentColor"/>
</svg>
