<svg viewBox="0 0 24 24" fill="none" xmlns="http://www.w3.org/2000/svg">
<path d="M20.004 14.6111C18.2799 13.8098 16.293 13.8005 14.5626 14.5828L14.7257 16.2009C14.8281 17.2239 15.6888 18.0027 16.7169 18.0027H18.0021C19.1073 18.0027 20.004 17.1069 20.004 16.0017V14.6111ZM3.99622 16.0017C3.99627 17.1068 4.89209 18.0025 5.99719 18.0027H7.28333C8.31127 18.0025 9.17217 17.2238 9.27454 16.2009L9.43567 14.5818C7.70574 13.8004 5.7197 13.8102 3.99622 14.6111V16.0017ZM22.004 16.0017C22.004 18.2115 20.2119 20.0027 18.0021 20.0027H16.7169C14.6614 20.0027 12.9402 18.4454 12.7355 16.4001L12.5558 14.6082C12.199 14.4658 11.8003 14.4657 11.4435 14.6082L11.2648 16.4001C11.0601 18.4453 9.33871 20.0025 7.28333 20.0027H5.99719C3.78752 20.0025 1.99627 18.2114 1.99622 16.0017V13.8416C1.99625 13.4768 2.03622 13.1127 2.11536 12.7566L3.53918 6.34741C3.72351 5.51816 4.25115 4.80604 4.99036 4.38745C5.72968 3.96885 6.61208 3.88343 7.41809 4.1521L8.31458 4.45093C8.8384 4.62561 9.12193 5.19171 8.94739 5.71558C8.77274 6.23952 8.2057 6.52304 7.68176 6.34839L6.78528 6.04956C6.51647 5.95998 6.22227 5.98808 5.97571 6.12769C5.72918 6.26731 5.55377 6.50541 5.49231 6.78198L4.24817 12.3748C6.29231 11.7486 8.51702 11.9082 10.4689 12.8542C11.4341 12.3843 12.5641 12.3856 13.5294 12.8552C15.4812 11.9087 17.7058 11.7489 19.7501 12.3748L18.5079 6.78198C18.4465 6.5055 18.2709 6.26732 18.0245 6.12769C17.778 5.98807 17.4828 5.95995 17.214 6.04956L16.3175 6.34839C15.7937 6.52274 15.2275 6.23938 15.0529 5.71558C14.8782 5.19165 15.1617 4.62557 15.6857 4.45093L16.5822 4.1521C17.3882 3.88345 18.2706 3.96886 19.0099 4.38745C19.7489 4.80603 20.2757 5.51831 20.4601 6.34741L21.8849 12.7566C21.964 13.1127 22.004 13.4768 22.004 13.8416V16.0017Z" fill="currentColor"/>
</svg>
