<svg viewBox="0 0 32 32" fill="none" xmlns="http://www.w3.org/2000/svg">
<path d="M27.0039 19.8267C24.7562 18.6357 22.1073 18.5161 19.7783 19.4653L20.0059 21.7407C20.1212 22.893 21.3691 23.9935 22.7881 23.9937H24.5029C25.8843 23.9934 27.0038 22.8731 27.0039 21.4917V19.8267ZM5 21.4917C5.00007 22.8733 6.12036 23.9937 7.50195 23.9937H9.21582C10.6429 23.9936 11.9019 22.886 12.0166 21.7407L12.2432 19.4741C9.91033 18.5159 7.25377 18.632 5 19.8247V21.4917ZM30.0039 21.4917C30.0038 24.53 27.5412 26.9934 24.5029 26.9937H22.7881C20.0957 26.9935 17.3144 24.9773 17.0205 22.0386L16.7842 19.6782C16.2953 19.4467 15.7285 19.4427 15.2373 19.6675L15.001 22.0386C14.7064 24.9845 11.9003 26.9936 9.21582 26.9937H7.50195C4.46351 26.9937 2.00007 24.5301 2 21.4917V18.6118C2.00002 18.1132 2.05493 17.6161 2.16309 17.1294L4.06152 8.5835L4.11523 8.36963C4.41033 7.3096 5.11444 6.40592 6.07715 5.86084C7.10392 5.27956 8.32889 5.1606 9.44824 5.53369L10.6436 5.93213C11.4294 6.1941 11.8547 7.0437 11.5928 7.82959C11.3308 8.61548 10.4812 9.03976 9.69531 8.77784L8.5 8.3794C8.18634 8.27484 7.8424 8.3083 7.55469 8.47119C7.26715 8.63405 7.06202 8.91133 6.99023 9.23389L5.39551 16.4097C8.1944 15.4907 11.2624 15.6726 13.9551 16.9536C15.249 16.3493 16.7499 16.3496 18.0439 16.9536C20.7381 15.6716 23.8081 15.491 26.6084 16.4116L25.0137 9.23389C24.9419 8.91131 24.7368 8.63403 24.4492 8.47119C24.1617 8.3084 23.8184 8.27502 23.5049 8.3794L22.3086 8.77784C21.5228 9.03959 20.6741 8.61532 20.4121 7.82959C20.1501 7.04368 20.5744 6.19411 21.3604 5.93213L22.5557 5.53369C23.6751 5.16055 24.9009 5.27946 25.9277 5.86084C26.9544 6.44225 27.6864 7.43173 27.9424 8.5835L29.8418 17.1294C29.9499 17.6161 30.0039 18.1133 30.0039 18.6118V21.4917Z" fill="currentColor"/>
</svg>
