<svg viewBox="0 0 24 24" fill="none" xmlns="http://www.w3.org/2000/svg">
<path d="M12 2C17.5228 2 22 6.47715 22 12C22 17.5228 17.5228 22 12 22C6.47715 22 2 17.5228 2 12C2 6.47715 6.47715 2 12 2ZM4.06445 13C4.44383 16.0414 6.52845 18.5513 9.33301 19.543C8.30936 18.0806 7.24084 15.8983 7.03613 13H4.06445ZM16.9639 13C16.7591 15.8986 15.6898 18.0806 14.666 19.543C17.471 18.5515 19.5561 16.0417 19.9355 13H16.9639ZM9.04102 13C9.29735 16.0917 10.7003 18.1867 11.6768 19.2969L11.7578 19.373C11.8406 19.4354 11.9257 19.458 12 19.458C12.099 19.458 12.2169 19.4177 12.3232 19.2969C13.2997 18.1867 14.7027 16.0917 14.959 13H9.04102ZM14.666 4.45605C15.6899 5.91836 16.7591 8.10083 16.9639 11H19.9355C19.5561 7.95819 17.4712 5.4474 14.666 4.45605ZM9.33301 4.45605C6.5283 5.44761 4.44384 7.9585 4.06445 11H7.03613C7.24087 8.10128 8.30922 5.91838 9.33301 4.45605ZM12 4.54199C11.9257 4.54199 11.8406 4.5646 11.7578 4.62695L11.6768 4.70312C10.7003 5.81326 9.29735 7.90831 9.04102 11H14.959C14.7027 7.90831 13.2997 5.81326 12.3232 4.70312C12.2169 4.58229 12.099 4.54199 12 4.54199Z" fill="currentColor"/>
</svg>
