<svg viewBox="0 0 16 16" fill="none" xmlns="http://www.w3.org/2000/svg">
<path d="M8 1.25C11.7279 1.25 14.75 4.27208 14.75 8C14.75 11.7279 11.7279 14.75 8 14.75C4.27208 14.75 1.25 11.7279 1.25 8C1.25 4.27208 4.27208 1.25 8 1.25ZM6.12109 8.75C6.30951 10.7388 7.21337 12.0895 7.84668 12.8096C7.90183 12.8722 7.95832 12.8886 8 12.8887C8.04166 12.8886 8.0982 12.8722 8.15332 12.8096C8.78663 12.0895 9.69063 10.7388 9.87891 8.75H6.12109ZM2.80469 8.75C3.07138 10.6139 4.31578 12.1619 6.00293 12.8564C5.37174 11.8919 4.75615 10.5218 4.61621 8.75H2.80469ZM11.3838 8.75C11.2438 10.522 10.6274 11.8919 9.99609 12.8564C11.6837 12.1621 12.9286 10.6142 13.1953 8.75H11.3838ZM9.99316 3.1416C10.6252 4.10614 11.2436 5.47629 11.3838 7.25H13.1953C12.9284 5.38458 11.6824 3.83533 9.99316 3.1416ZM6.00293 3.14258C4.31561 3.83705 3.0714 5.38594 2.80469 7.25H4.61621C4.75619 5.47781 5.37158 4.10715 6.00293 3.14258ZM8 3.11133C7.96874 3.11139 7.92867 3.12036 7.8877 3.15137L7.84668 3.19043C7.21337 3.91051 6.30951 5.2612 6.12109 7.25H9.88184C9.71997 5.53967 9.02633 4.30152 8.43262 3.53027L8.15332 3.19043C8.0982 3.12785 8.04166 3.11141 8 3.11133Z" fill="currentColor"/>
</svg>
