<svg viewBox="0 0 32 32" fill="none" xmlns="http://www.w3.org/2000/svg">
<path d="M16 2.75C23.3178 2.75 29.25 8.68223 29.25 16C29.25 23.3178 23.3178 29.25 16 29.25C8.68223 29.25 2.75 23.3178 2.75 16C2.75 8.68223 8.68223 2.75 16 2.75ZM5.3252 17.25C5.81362 21.4665 8.73949 24.937 12.6592 26.2178C11.2489 24.2669 9.72627 21.2754 9.45898 17.25H5.3252ZM22.541 17.25C22.2737 21.2746 20.7519 24.2659 19.3418 26.2168C23.2609 24.9357 26.1864 21.4661 26.6748 17.25H22.541ZM11.9648 17.25C12.2883 21.4441 14.1864 24.284 15.5059 25.7842C15.7908 26.108 16.2092 26.1081 16.4941 25.7842L16.7734 25.457C18.0669 23.8885 19.7348 21.1567 20.0361 17.25H11.9648ZM19.3418 5.78223C20.7521 7.73313 22.2737 10.7249 22.541 14.75H26.6748C26.1864 10.5338 23.261 7.06323 19.3418 5.78223ZM12.6592 5.78125C8.73935 7.06194 5.81363 10.5334 5.3252 14.75H9.45898C9.7263 10.7242 11.2487 7.73212 12.6592 5.78125ZM16.4941 6.21582C16.2449 5.93247 15.894 5.89708 15.6191 6.10938L15.5059 6.21582C14.1864 7.71603 12.2883 10.5559 11.9648 14.75H20.0352C19.7116 10.5559 17.8136 7.71599 16.4941 6.21582Z" fill="currentColor"/>
</svg>
