<svg viewBox="0 0 24 24" fill="none" xmlns="http://www.w3.org/2000/svg">
<path d="M1.04492 11C1.47002 6.28268 4.87326 2.42411 9.36009 1.31885C7.06741 4.1491 5.82017 7.54946 5.61837 11H1.04492Z" fill="currentColor"/>
<path d="M7.62231 13C7.85504 16.5093 9.31431 19.952 12.0001 22.6245C14.6859 19.952 16.1452 16.5093 16.3779 13H7.62231Z" fill="currentColor"/>
<path d="M5.61836 13H1.04492C1.47002 17.7173 4.87325 21.5759 9.36008 22.6812C7.0674 19.8509 5.82016 16.4505 5.61836 13Z" fill="currentColor"/>
<path d="M14.6401 22.6812C16.9328 19.8509 18.18 16.4505 18.3818 13H22.9553C22.5302 17.7173 19.1269 21.5759 14.6401 22.6812Z" fill="currentColor"/>
<path d="M7.62231 11C7.85504 7.49066 9.31431 4.04804 12.0001 1.37555C14.6859 4.04804 16.1452 7.49066 16.3779 11H7.62231Z" fill="currentColor"/>
<path d="M18.3818 11C18.18 7.54946 16.9328 4.1491 14.6401 1.31885C19.1269 2.42411 22.5302 6.28268 22.9553 11H18.3818Z" fill="currentColor"/>
</svg>
