<svg viewBox="0 0 32 32" fill="none" xmlns="http://www.w3.org/2000/svg">
<path d="M1.39307 14.6665C1.95987 8.37674 6.49752 3.23198 12.48 1.7583C9.42305 5.53197 7.76007 10.0658 7.491 14.6665H1.39307Z" fill="currentColor"/>
<path d="M10.1628 17.3333C10.4731 22.0123 12.4188 26.6026 15.9999 30.1659C19.581 26.6026 21.5267 22.0123 21.837 17.3333H10.1628Z" fill="currentColor"/>
<path d="M7.49099 17.3333H1.39307C1.95987 23.623 6.49751 28.7678 12.4799 30.2415C9.42304 26.4678 7.76005 21.9339 7.49099 17.3333Z" fill="currentColor"/>
<path d="M19.52 30.2415C22.577 26.4678 24.2399 21.9339 24.509 17.3333H30.607C30.0402 23.623 25.5024 28.7678 19.52 30.2415Z" fill="currentColor"/>
<path d="M10.1628 14.6666C10.4731 9.98746 12.4188 5.3973 15.9999 1.83398C19.581 5.3973 21.5267 9.98746 21.837 14.6666H10.1628Z" fill="currentColor"/>
<path d="M24.509 14.6665C24.2399 10.0658 22.577 5.53197 19.52 1.7583C25.5024 3.23198 30.0402 8.37674 30.607 14.6665H24.509Z" fill="currentColor"/>
</svg>
