<svg viewBox="0 0 16 16" fill="none" xmlns="http://www.w3.org/2000/svg">
<path d="M0.696533 7.33349C0.979933 4.18861 3.24876 1.61623 6.23998 0.879395C4.71153 2.76623 3.88003 5.03313 3.7455 7.33349H0.696533Z" fill="currentColor"/>
<path d="M5.08154 8.66684C5.2367 11.0064 6.20954 13.3015 8.00008 15.0832C9.79062 13.3015 10.7635 11.0064 10.9186 8.66684H5.08154Z" fill="currentColor"/>
<path d="M3.74549 8.66684H0.696533C0.979933 11.8117 3.24875 14.3841 6.23997 15.121C4.71152 13.2341 3.88003 10.9672 3.74549 8.66684Z" fill="currentColor"/>
<path d="M9.76001 15.121C11.2885 13.2341 12.1199 10.9672 12.2545 8.66684H15.3035C15.0201 11.8117 12.7512 14.3841 9.76001 15.121Z" fill="currentColor"/>
<path d="M5.08154 7.33351C5.2367 4.99395 6.20954 2.69887 8.00008 0.917206C9.79062 2.69887 10.7635 4.99395 10.9186 7.33351H5.08154Z" fill="currentColor"/>
<path d="M12.2545 7.33353C12.1199 5.03316 11.2885 2.76626 9.76001 0.879425C12.7512 1.61626 15.0201 4.18865 15.3035 7.33353H12.2545Z" fill="currentColor"/>
</svg>
