<svg viewBox="0 0 16 16" fill="none" xmlns="http://www.w3.org/2000/svg">
<path d="M5.99731 11.7515C5.99731 10.7859 5.21474 10.0027 4.24927 10.0024C3.28358 10.0024 2.50024 10.7858 2.50024 11.7515C2.50034 12.7171 3.28363 13.4995 4.24927 13.4995C5.21468 13.4992 5.99722 12.7169 5.99731 11.7515ZM13.4993 11.7505C13.4993 10.7844 12.7164 10.0015 11.7502 10.0015C10.7841 10.0015 10.0012 10.7843 10.0012 11.7505C10.0013 12.7166 10.7841 13.4995 11.7502 13.4995C12.7163 13.4994 13.4992 12.7166 13.4993 11.7505ZM13.4993 4.24951C13.4991 3.28356 12.7162 2.50055 11.7502 2.50049C10.7842 2.50049 10.0014 3.28352 10.0012 4.24951C10.0012 5.21568 10.7841 5.99951 11.7502 5.99951C12.7164 5.99945 13.4993 5.21564 13.4993 4.24951ZM5.99731 4.24951C5.99731 3.28394 5.21479 2.50069 4.24927 2.50049C3.28358 2.50049 2.50024 3.28382 2.50024 4.24951C2.50051 5.21498 3.28374 5.99756 4.24927 5.99756C5.21463 5.99736 5.99705 5.21486 5.99731 4.24951ZM7.49731 11.7515C7.49722 13.5453 6.0431 14.9992 4.24927 14.9995C2.45521 14.9995 1.00034 13.5455 1.00024 11.7515C1.00024 9.95735 2.45515 8.50244 4.24927 8.50244C6.04316 8.50271 7.49731 9.95751 7.49731 11.7515ZM14.9993 11.7505C14.9992 13.545 13.5448 14.9994 11.7502 14.9995C9.95567 14.9995 8.50125 13.5451 8.50122 11.7505C8.50122 9.9559 9.95565 8.50146 11.7502 8.50146C13.5448 8.50153 14.9993 9.95594 14.9993 11.7505ZM7.49731 4.24951C7.49705 6.04328 6.04305 7.49736 4.24927 7.49756C2.45531 7.49756 1.00051 6.04341 1.00024 4.24951C1.00024 2.45539 2.45515 1.00049 4.24927 1.00049C6.04322 1.00069 7.49731 2.45552 7.49731 4.24951ZM14.9993 4.24951C14.9993 6.04406 13.5448 7.49945 11.7502 7.49951C9.95565 7.49951 8.50122 6.0441 8.50122 4.24951C8.50142 2.45509 9.95578 1.00049 11.7502 1.00049C13.5447 1.00055 14.9991 2.45513 14.9993 4.24951Z" fill="currentColor"/>
</svg>
