<svg viewBox="0 0 32 32" fill="none" xmlns="http://www.w3.org/2000/svg">
<path d="M12.0049 22.9971C12.0048 21.3394 10.6606 19.9952 9.00293 19.9951C7.34519 19.9951 6.00107 21.3393 6.00098 22.9971C6.00098 24.6549 7.34513 25.999 9.00293 25.999C10.6606 25.9989 12.0049 24.6548 12.0049 22.9971ZM25.999 22.9971C25.9989 21.3393 24.6548 19.9951 22.9971 19.9951C21.3394 19.9953 19.9962 21.3394 19.9961 22.9971C19.9961 24.6548 21.3394 25.9989 22.9971 25.999C24.6549 25.999 25.999 24.6549 25.999 22.9971ZM12.0049 9.00293C12.0049 7.34521 10.6606 6.00111 9.00293 6.00098C7.34513 6.00098 6.00098 7.34513 6.00098 9.00293C6.00109 10.6606 7.3452 12.0049 9.00293 12.0049C10.6605 12.0048 12.0048 10.6606 12.0049 9.00293ZM25.999 9.00293C25.999 7.34513 24.6549 6.00098 22.9971 6.00098C21.3394 6.00114 19.9961 7.34523 19.9961 9.00293C19.9962 10.6605 21.3395 12.0047 22.9971 12.0049C24.6548 12.0049 25.9989 10.6606 25.999 9.00293ZM15.0049 22.9971C15.0049 26.3116 12.3175 28.9989 9.00293 28.999C5.68827 28.999 3.00098 26.3117 3.00098 22.9971C3.00107 19.6825 5.68833 16.9951 9.00293 16.9951C12.3174 16.9952 15.0048 19.6826 15.0049 22.9971ZM28.999 22.9971C28.999 26.3117 26.3117 28.999 22.9971 28.999C19.6825 28.9989 16.9961 26.3117 16.9961 22.9971C16.9962 19.6826 19.6826 16.9953 22.9971 16.9951C26.3117 16.9951 28.9989 19.6825 28.999 22.9971ZM15.0049 9.00293C15.0048 12.3174 12.3174 15.0048 9.00293 15.0049C5.68835 15.0049 3.00109 12.3175 3.00098 9.00293C3.00098 5.68827 5.68827 3.00098 9.00293 3.00098C12.3175 3.00111 15.0049 5.68835 15.0049 9.00293ZM28.999 9.00293C28.9989 12.3175 26.3116 15.0049 22.9971 15.0049C19.6826 15.0047 16.9962 12.3174 16.9961 9.00293C16.9961 5.68837 19.6826 3.00114 22.9971 3.00098C26.3117 3.00098 28.999 5.68827 28.999 9.00293Z" fill="currentColor"/>
</svg>
