<svg viewBox="0 0 16 16" fill="none" xmlns="http://www.w3.org/2000/svg">
<path d="M5.75 8.2998C6.99244 8.2998 7.99968 9.30743 8 10.5498V12.0498C8 13.2924 6.99264 14.2998 5.75 14.2998H4.25C3.00754 14.2996 2 13.2923 2 12.0498V10.5498C2.00032 9.30756 3.00773 8.30002 4.25 8.2998H5.75ZM4.25 9.7998C3.83616 9.80002 3.50032 10.136 3.5 10.5498V12.0498C3.5 12.4639 3.83597 12.7996 4.25 12.7998H5.75C6.16421 12.7998 6.5 12.464 6.5 12.0498V10.5498C6.49968 10.1359 6.16402 9.7998 5.75 9.7998H4.25Z" fill="currentColor"/>
<path d="M11.2998 8.75C11.7139 8.75 12.0496 9.08597 12.0498 9.5V10.5498H13.0996L13.1768 10.5537C13.5547 10.5921 13.8493 10.9118 13.8496 11.2998C13.8496 11.6881 13.5549 12.0074 13.1768 12.0459L13.0996 12.0498H12.0498V13.0996C12.0498 13.5138 11.714 13.8496 11.2998 13.8496C10.8859 13.8493 10.5498 13.5136 10.5498 13.0996V12.0498H9.5C9.08597 12.0496 8.75 11.7139 8.75 11.2998C8.75032 10.886 9.08616 10.55 9.5 10.5498H10.5498V9.5C10.55 9.08616 10.886 8.75032 11.2998 8.75Z" fill="currentColor"/>
<path d="M5.75 2C6.99251 2 7.99979 3.00754 8 4.25V5.75C8 6.99264 6.99264 8 5.75 8H4.25C3.00754 7.99979 2 6.99251 2 5.75V4.25C2.00021 3.00767 3.00767 2.00021 4.25 2H5.75ZM4.25 3.5C3.8361 3.50021 3.50021 3.8361 3.5 4.25V5.75C3.5 6.16408 3.83597 6.49979 4.25 6.5H5.75C6.16421 6.5 6.5 6.16421 6.5 5.75V4.25C6.49979 3.83597 6.16408 3.5 5.75 3.5H4.25Z" fill="currentColor"/>
<path d="M12.0498 2C13.2923 2 14.2996 3.00754 14.2998 4.25V5.75C14.2998 6.99264 13.2924 8 12.0498 8H10.5498C9.30743 7.99968 8.2998 6.99244 8.2998 5.75V4.25C8.30002 3.00773 9.30756 2.00032 10.5498 2H12.0498ZM10.5498 3.5C10.136 3.50032 9.80002 3.83616 9.7998 4.25V5.75C9.7998 6.16402 10.1359 6.49968 10.5498 6.5H12.0498C12.464 6.5 12.7998 6.16421 12.7998 5.75V4.25C12.7996 3.83597 12.4639 3.5 12.0498 3.5H10.5498Z" fill="currentColor"/>
</svg>
