<svg viewBox="0 0 24 24" fill="none" xmlns="http://www.w3.org/2000/svg">
<path d="M8 12.5C9.933 12.5 11.5 14.067 11.5 16V18.5C11.5 20.433 9.933 22 8 22H5.5C3.567 22 2 20.433 2 18.5V16C2 14.067 3.567 12.5 5.5 12.5H8ZM5.5 14.5C4.67157 14.5 4 15.1716 4 16V18.5C4 19.3284 4.67157 20 5.5 20H8C8.82843 20 9.5 19.3284 9.5 18.5V16C9.5 15.1716 8.82843 14.5 8 14.5H5.5Z" fill="currentColor"/>
<path d="M17.25 13.25C17.8023 13.25 18.25 13.6977 18.25 14.25V16.25H20.25C20.8023 16.25 21.25 16.6977 21.25 17.25C21.25 17.8023 20.8023 18.25 20.25 18.25H18.25V20.25C18.25 20.8023 17.8023 21.25 17.25 21.25C16.6977 21.25 16.25 20.8023 16.25 20.25V18.25H14.25C13.6977 18.25 13.25 17.8023 13.25 17.25C13.25 16.6977 13.6977 16.25 14.25 16.25H16.25V14.25C16.25 13.6977 16.6977 13.25 17.25 13.25Z" fill="currentColor"/>
<path d="M8 2C9.933 2 11.5 3.567 11.5 5.5V8C11.5 9.933 9.933 11.5 8 11.5H5.5C3.567 11.5 2 9.933 2 8V5.5C2 3.567 3.567 2 5.5 2H8ZM5.5 4C4.67157 4 4 4.67157 4 5.5V8C4 8.82843 4.67157 9.5 5.5 9.5H8C8.82843 9.5 9.5 8.82843 9.5 8V5.5C9.5 4.67157 8.82843 4 8 4H5.5Z" fill="currentColor"/>
<path d="M18.5 2C20.433 2 22 3.567 22 5.5V8C22 9.933 20.433 11.5 18.5 11.5H16C14.067 11.5 12.5 9.933 12.5 8V5.5C12.5 3.567 14.067 2 16 2H18.5ZM16 4C15.1716 4 14.5 4.67157 14.5 5.5V8C14.5 8.82843 15.1716 9.5 16 9.5H18.5C19.3284 9.5 20 8.82843 20 8V5.5C20 4.67157 19.3284 4 18.5 4H16Z" fill="currentColor"/>
</svg>
