<svg viewBox="0 0 32 32" fill="none" xmlns="http://www.w3.org/2000/svg">
<path d="M10.3096 16.8262C12.9493 16.8264 15.0898 18.9667 15.0898 21.6064V25.1357C15.0896 27.7753 12.9491 29.9158 10.3096 29.916H6.78027C4.14052 29.916 2.00026 27.7754 2 25.1357V21.6064C2 18.9665 4.14036 16.8262 6.78027 16.8262H10.3096ZM6.78027 19.3262C5.52107 19.3262 4.5 20.3472 4.5 21.6064V25.1357C4.50026 26.3947 5.52123 27.416 6.78027 27.416H10.3096C11.5684 27.4158 12.5896 26.3946 12.5898 25.1357V21.6064C12.5898 20.3474 11.5686 19.3264 10.3096 19.3262H6.78027Z" fill="currentColor"/>
<path d="M23.3711 17.8848C24.0611 17.8851 24.621 18.4447 24.6211 19.1348V22.1211H27.6074L27.7344 22.127C28.3647 22.191 28.8574 22.7239 28.8574 23.3711C28.8571 24.018 28.3645 24.5502 27.7344 24.6143L27.6074 24.6211H24.6211V27.6074C24.6206 28.2971 24.0609 28.8571 23.3711 28.8574C22.6811 28.8574 22.1216 28.2973 22.1211 27.6074V24.6211H19.1348C18.4447 24.621 17.8851 24.0611 17.8848 23.3711C17.8848 22.6808 18.4445 22.1212 19.1348 22.1211H22.1211V19.1348C22.1212 18.4445 22.6808 17.8848 23.3711 17.8848Z" fill="currentColor"/>
<path d="M10.3096 2C12.9493 2.00026 15.0898 4.14052 15.0898 6.78027V10.3096C15.0896 12.9491 12.9491 15.0896 10.3096 15.0898H6.78027C4.14052 15.0898 2.00026 12.9493 2 10.3096V6.78027C2 4.14036 4.14036 2 6.78027 2H10.3096ZM6.78027 4.5C5.52107 4.5 4.5 5.52107 4.5 6.78027V10.3096C4.50026 11.5686 5.52123 12.5898 6.78027 12.5898H10.3096C11.5684 12.5896 12.5896 11.5684 12.5898 10.3096V6.78027C12.5898 5.52123 11.5686 4.50026 10.3096 4.5H6.78027Z" fill="currentColor"/>
<path d="M25.1357 2C27.7754 2.00026 29.916 4.14052 29.916 6.78027V10.3096C29.9158 12.9491 27.7753 15.0896 25.1357 15.0898H21.6064C18.9667 15.0898 16.8264 12.9493 16.8262 10.3096V6.78027C16.8262 4.14036 18.9665 2 21.6064 2H25.1357ZM21.6064 4.5C20.3472 4.5 19.3262 5.52107 19.3262 6.78027V10.3096C19.3264 11.5686 20.3474 12.5898 21.6064 12.5898H25.1357C26.3946 12.5896 27.4158 11.5684 27.416 10.3096V6.78027C27.416 5.52123 26.3947 4.50026 25.1357 4.5H21.6064Z" fill="currentColor"/>
</svg>
