<svg viewBox="0 0 32 32" fill="none" xmlns="http://www.w3.org/2000/svg">
<path d="M5.54557 5.23527C7.49532 3.28551 10.6573 3.28551 12.6071 5.23527L12.7838 5.42179C14.5542 7.38168 14.4958 10.4081 12.6071 12.2968C12.3274 12.5765 12.0213 12.8141 11.6989 13.0136L14.6139 14.581L26.0749 8.41984C26.6829 8.09296 27.4403 8.32061 27.7672 8.92863C28.094 9.53658 27.8663 10.2941 27.2585 10.621L17.2536 15.9999L27.2585 21.3788L27.3678 21.4452C27.8928 21.8001 28.0738 22.5021 27.7672 23.0722C27.4607 23.6422 26.7756 23.8779 26.1901 23.6357L26.0749 23.581L14.6139 17.4189L11.6989 18.9862C12.0215 19.1857 12.3273 19.4242 12.6071 19.704L12.7838 19.8905C14.5545 21.8503 14.4956 24.8767 12.6071 26.7655C10.6574 28.7153 7.49533 28.7152 5.54557 26.7655C3.59581 24.8158 3.59581 21.6538 5.54557 19.704C5.82353 19.4261 6.12673 19.1888 6.44694 18.9901C6.4974 18.9521 6.55068 18.9165 6.60807 18.8857L11.9753 15.9999L6.60807 13.1142L6.49869 13.0487C6.47989 13.036 6.46192 13.0223 6.44401 13.0087C6.12491 12.8104 5.82267 12.5738 5.54557 12.2968C3.59582 10.347 3.59582 7.18502 5.54557 5.23527ZM10.6501 21.3007C9.6711 20.5022 8.22677 20.5602 7.31412 21.4726C6.34068 22.446 6.34068 24.0235 7.31412 24.997C8.28758 25.9703 9.86513 25.9704 10.8385 24.997C11.7509 24.0844 11.8089 22.64 11.0104 21.661L10.8385 21.4726L10.6501 21.3007ZM10.6501 6.83195C9.67101 6.03333 8.22676 6.09119 7.31412 7.00382C6.34069 7.97727 6.34068 9.55479 7.31412 10.5282C8.2876 11.5012 9.86525 11.5015 10.8385 10.5282C11.751 9.61576 11.8086 8.17134 11.0104 7.1923L10.8385 7.00382L10.6501 6.83195Z" fill="currentColor"/>
</svg>
