<svg viewBox="0 0 24 24" fill="none" xmlns="http://www.w3.org/2000/svg">
<path d="M4.11553 3.88208C5.60226 2.39546 8.01263 2.39539 9.49932 3.88208L9.63409 4.02368C10.9844 5.51808 10.9395 7.82556 9.49932 9.26587C9.31244 9.45274 9.11016 9.61523 8.89776 9.75512L10.9603 10.8645L19.5257 6.25903L19.6185 6.21509C20.0868 6.02137 20.6349 6.21042 20.8802 6.66626C21.1254 7.12235 20.9809 7.68415 20.5608 7.96802L20.473 8.02075L13.0716 11.9993L20.473 15.9797C20.9593 16.2413 21.1416 16.8468 20.8802 17.3332C20.6186 17.8195 20.012 18.002 19.5257 17.7405L10.9603 13.135L8.89776 14.2434C9.1104 14.3834 9.31224 14.5475 9.49932 14.7346L9.63409 14.8762C10.9842 16.3707 10.9395 18.6782 9.49932 20.1184C8.01274 21.6048 5.60225 21.6046 4.11553 20.1184C2.62885 18.6317 2.62894 16.2214 4.11553 14.7346C4.32856 14.5216 4.56044 14.3387 4.80596 14.1868C4.84378 14.1589 4.8835 14.1325 4.92608 14.1096L8.84893 11.9993L4.92608 9.89087L4.83819 9.83813C4.82312 9.82794 4.80957 9.81582 4.79522 9.80493C4.55397 9.65441 4.32522 9.47552 4.11553 9.26587C2.62881 7.77914 2.62881 5.3688 4.11553 3.88208ZM7.94756 16.0247C7.23782 15.4459 6.19113 15.4871 5.52959 16.1487C4.82405 16.8544 4.82396 17.9987 5.52959 18.7043C6.23526 19.4095 7.37973 19.4097 8.08526 18.7043C8.74677 18.0428 8.78798 16.9951 8.20928 16.2854L8.08526 16.1487L7.94756 16.0247ZM7.94756 5.17212C7.23786 4.59337 6.19114 4.63471 5.52959 5.29614C4.82392 6.00182 4.82392 7.14613 5.52959 7.8518C6.23529 8.55725 7.37966 8.5574 8.08526 7.8518C8.74675 7.1902 8.7882 6.14256 8.20928 5.43286L8.08526 5.29614L7.94756 5.17212Z" fill="currentColor"/>
</svg>
