<svg viewBox="0 0 16 16" fill="none" xmlns="http://www.w3.org/2000/svg">
<path d="M2.68461 2.52885C3.68909 1.52463 5.30371 1.50851 6.3311 2.47514L6.33501 2.4771L6.39165 2.52885L6.57231 2.72807C7.41184 3.75758 7.35108 5.27622 6.39165 6.23589C6.29613 6.3314 6.19251 6.41503 6.08696 6.49272L7.30668 7.148L12.9776 4.10014L13.0469 4.06694C13.3981 3.92156 13.8091 4.06308 13.9932 4.40483C14.1771 4.74687 14.0689 5.16848 13.754 5.38139L13.6885 5.42046L8.88969 7.99956L13.6885 10.5806L13.754 10.6197C14.0689 10.8326 14.1771 11.2542 13.9932 11.5962C13.809 11.9376 13.3979 12.0794 13.0469 11.9341L12.9776 11.9009L7.30571 8.85112L6.08501 9.50835C6.16952 9.57056 6.25286 9.63688 6.3311 9.7105L6.33501 9.71245L6.39165 9.76421L6.57231 9.96342C7.41162 10.993 7.3512 12.5117 6.39165 13.4712C5.36805 14.4948 3.70831 14.4946 2.68461 13.4712C1.66118 12.4475 1.66106 10.7878 2.68461 9.76421C2.82724 9.62158 2.98273 9.4998 3.14653 9.39702C3.17705 9.37387 3.20941 9.35229 3.24419 9.33354L5.7227 8.00053L3.24419 6.66753L3.17876 6.62846C3.16743 6.62081 3.15829 6.61028 3.14751 6.6021C2.9836 6.4992 2.82727 6.37854 2.68461 6.23589C1.66122 5.21217 1.66102 3.55245 2.68461 2.52885ZM5.24614 10.7476C4.80571 10.3886 4.15563 10.4143 3.74516 10.8248C3.30739 11.2626 3.30751 11.9728 3.74516 12.4107C4.18308 12.8483 4.89329 12.8484 5.3311 12.4107C5.74144 12.0003 5.76694 11.3511 5.40825 10.9107L5.3311 10.8248L5.24614 10.7476ZM5.24614 3.51225C4.8058 3.15332 4.15563 3.17917 3.74516 3.5894C3.30735 4.02721 3.30755 4.73741 3.74516 5.17534C4.18307 5.61325 4.89319 5.61325 5.3311 5.17534C5.74133 4.76488 5.76716 4.11568 5.40825 3.67534L5.3311 3.5894L5.24614 3.51225Z" fill="currentColor"/>
</svg>
