<svg viewBox="0 0 32 32" fill="none" xmlns="http://www.w3.org/2000/svg">
<path d="M28 0H21.3333C20.9797 0 20.6406 0.140476 20.3905 0.390524C20.1405 0.640573 20 0.979711 20 1.33333C20 1.68696 20.1405 2.02609 20.3905 2.27614C20.6406 2.52619 20.9797 2.66667 21.3333 2.66667H26.6667C27.0203 2.66667 27.3594 2.80714 27.6095 3.05719C27.8595 3.30724 28 3.64638 28 4C28 4.35362 27.8595 4.69276 27.6095 4.94281C27.3594 5.19286 27.0203 5.33333 26.6667 5.33333H21.3333C20.9797 5.33333 20.6406 5.47381 20.3905 5.72386C20.1405 5.97391 20 6.31305 20 6.66667C20 7.02029 20.1405 7.35943 20.3905 7.60948C20.6406 7.85952 20.9797 8 21.3333 8H26.6667C27.0203 8 27.3594 8.14048 27.6095 8.39052C27.8595 8.64057 28 8.97971 28 9.33333C28 9.68696 27.8595 10.0261 27.6095 10.2761C27.3594 10.5262 27.0203 10.6667 26.6667 10.6667H21.3333C20.9797 10.6667 20.6406 10.8071 20.3905 11.0572C20.1405 11.3072 20 11.6464 20 12C20 12.3536 20.1405 12.6928 20.3905 12.9428C20.6406 13.1929 20.9797 13.3333 21.3333 13.3333H26.6667C27.0203 13.3333 27.3594 13.4738 27.6095 13.7239C27.8595 13.9739 28 14.313 28 14.6667C28 15.0203 27.8595 15.3594 27.6095 15.6095C27.3594 15.8595 27.0203 16 26.6667 16H21.3333C20.9797 16 20.6406 16.1405 20.3905 16.3905C20.1405 16.6406 20 16.9797 20 17.3333C20 17.687 20.1405 18.0261 20.3905 18.2761C20.6406 18.5262 20.9797 18.6667 21.3333 18.6667H23.72C23.9069 18.6657 24.0919 18.7041 24.263 18.7793C24.4341 18.8545 24.5875 18.9648 24.7133 19.1031C24.839 19.2414 24.9342 19.4046 24.9928 19.5821C25.0514 19.7595 25.072 19.9474 25.0533 20.1333L24.0133 30.5333C23.9948 30.7182 24.015 30.9049 24.0728 31.0814C24.1306 31.258 24.2246 31.4205 24.3489 31.5586C24.4732 31.6967 24.625 31.8073 24.7945 31.8833C24.964 31.9593 25.1476 31.9991 25.3333 32H30.6667C31.0203 32 31.3594 31.8595 31.6095 31.6095C31.8595 31.3594 32 31.0203 32 30.6667V4C32 2.93913 31.5786 1.92172 30.8284 1.17157C30.0783 0.421427 29.0609 0 28 0Z" fill="currentColor"/>
<path d="M16.6667 20C15.5874 20.0048 14.5439 20.3874 13.7173 21.0813L6.58933 0.889328C6.47951 0.581973 6.26076 0.325577 5.97454 0.168717C5.68832 0.0118577 5.3545 -0.0345688 5.03634 0.0382341C4.71817 0.111037 4.43777 0.298012 4.24824 0.563734C4.05871 0.829455 3.97323 1.15546 4.008 1.47999L5.136 11.628C5.22089 12.4021 5.47484 13.1482 5.87989 13.8134C6.28493 14.4785 6.83118 15.0466 7.48 15.4773L9.192 16.616L7.616 21.0813C6.78942 20.3874 5.74592 20.0048 4.66667 20C3.42899 20 2.242 20.4917 1.36683 21.3668C0.491665 22.242 0 23.429 0 24.6667V27.3333C0 28.571 0.491665 29.758 1.36683 30.6332C2.242 31.5083 3.42899 32 4.66667 32C5.90434 32 7.09133 31.5083 7.9665 30.6332C8.84167 29.758 9.33333 28.571 9.33333 27.3333V24.6667C9.33333 24.5948 9.32383 24.526 9.31433 24.457C9.30831 24.4134 9.30228 24.3698 9.29867 24.3253L10.6667 20.4507L12.0347 24.3253C12.031 24.3698 12.025 24.4134 12.019 24.457C12.0095 24.5259 12 24.5948 12 24.6667V27.3333C12 28.571 12.4917 29.758 13.3668 30.6332C14.242 31.5083 15.429 32 16.6667 32C17.9043 32 19.0913 31.5083 19.9665 30.6332C20.8417 29.758 21.3333 28.571 21.3333 27.3333V24.6667C21.3333 23.429 20.8417 22.242 19.9665 21.3668C19.0913 20.4917 17.9043 20 16.6667 20ZM6.66667 27.3333C6.66667 27.8638 6.45595 28.3725 6.08088 28.7475C5.70581 29.1226 5.1971 29.3333 4.66667 29.3333C4.13623 29.3333 3.62753 29.1226 3.25245 28.7475C2.87738 28.3725 2.66667 27.8638 2.66667 27.3333V24.6667C2.66667 24.1362 2.87738 23.6275 3.25245 23.2524C3.62753 22.8774 4.13623 22.6667 4.66667 22.6667C5.1971 22.6667 5.70581 22.8774 6.08088 23.2524C6.45595 23.6275 6.66667 24.1362 6.66667 24.6667V27.3333ZM18.6667 27.3333C18.6667 27.8638 18.456 28.3725 18.0809 28.7475C17.7058 29.1226 17.1971 29.3333 16.6667 29.3333C16.1362 29.3333 15.6275 29.1226 15.2525 28.7475C14.8774 28.3725 14.6667 27.8638 14.6667 27.3333V24.6667C14.6667 24.1362 14.8774 23.6275 15.2525 23.2524C15.6275 22.8774 16.1362 22.6667 16.6667 22.6667C17.1971 22.6667 17.7058 22.8774 18.0809 23.2524C18.456 23.6275 18.6667 24.1362 18.6667 24.6667V27.3333Z" fill="currentColor"/>
<path d="M17.3254 1.47999L16.1974 11.628C16.0436 12.9429 15.4022 14.1523 14.4001 15.0173L12.0774 8.43333L14.7441 0.889328C14.8539 0.581973 15.0726 0.325577 15.3589 0.168717C15.6451 0.0118577 15.9789 -0.0345688 16.2971 0.0382341C16.6152 0.111037 16.8956 0.298012 17.0852 0.563734C17.2747 0.829455 17.3602 1.15546 17.3254 1.47999Z" fill="currentColor"/>
</svg>
