<svg viewBox="0 0 24 24" fill="none" xmlns="http://www.w3.org/2000/svg">
<path d="M21 0H16C15.7348 0 15.4804 0.105357 15.2929 0.292893C15.1054 0.48043 15 0.734784 15 1C15 1.26522 15.1054 1.51957 15.2929 1.70711C15.4804 1.89464 15.7348 2 16 2H20C20.2652 2 20.5196 2.10536 20.7071 2.29289C20.8946 2.48043 21 2.73478 21 3C21 3.26522 20.8946 3.51957 20.7071 3.70711C20.5196 3.89464 20.2652 4 20 4H16C15.7348 4 15.4804 4.10536 15.2929 4.29289C15.1054 4.48043 15 4.73478 15 5C15 5.26522 15.1054 5.51957 15.2929 5.70711C15.4804 5.89464 15.7348 6 16 6H20C20.2652 6 20.5196 6.10536 20.7071 6.29289C20.8946 6.48043 21 6.73478 21 7C21 7.26522 20.8946 7.51957 20.7071 7.70711C20.5196 7.89464 20.2652 8 20 8H16C15.7348 8 15.4804 8.10536 15.2929 8.29289C15.1054 8.48043 15 8.73478 15 9C15 9.26522 15.1054 9.51957 15.2929 9.70711C15.4804 9.89464 15.7348 10 16 10H20C20.2652 10 20.5196 10.1054 20.7071 10.2929C20.8946 10.4804 21 10.7348 21 11C21 11.2652 20.8946 11.5196 20.7071 11.7071C20.5196 11.8946 20.2652 12 20 12H16C15.7348 12 15.4804 12.1054 15.2929 12.2929C15.1054 12.4804 15 12.7348 15 13C15 13.2652 15.1054 13.5196 15.2929 13.7071C15.4804 13.8946 15.7348 14 16 14H17.79C17.9302 13.9993 18.0689 14.0281 18.1973 14.0845C18.3256 14.1409 18.4407 14.2236 18.535 14.3273C18.6292 14.431 18.7007 14.5534 18.7446 14.6865C18.7886 14.8197 18.804 14.9605 18.79 15.1L18.01 22.9C17.9961 23.0386 18.0113 23.1787 18.0546 23.3111C18.0979 23.4435 18.1685 23.5654 18.2617 23.669C18.3549 23.7725 18.4687 23.8555 18.5959 23.9125C18.723 23.9695 18.8607 23.9993 19 24H23C23.2652 24 23.5196 23.8946 23.7071 23.7071C23.8946 23.5196 24 23.2652 24 23V3C24 2.20435 23.6839 1.44129 23.1213 0.87868C22.5587 0.31607 21.7956 0 21 0Z" fill="currentColor"/>
<path d="M12.5 15C11.6906 15.0036 10.9079 15.2905 10.288 15.811L4.942 0.666996C4.85963 0.43648 4.69557 0.244183 4.48091 0.126538C4.26624 0.00889325 4.01588 -0.0259266 3.77725 0.0286756C3.53863 0.0832778 3.32832 0.223509 3.18618 0.4228C3.04403 0.622092 2.97993 0.866599 3.006 1.11L3.852 8.721C3.91567 9.30161 4.10613 9.86114 4.40992 10.36C4.7137 10.8589 5.12339 11.2849 5.61 11.608L6.894 12.462L5.712 15.811C5.09207 15.2905 4.30944 15.0036 3.5 15C2.57174 15 1.6815 15.3687 1.02513 16.0251C0.368749 16.6815 0 17.5717 0 18.5V20.5C0 21.4283 0.368749 22.3185 1.02513 22.9749C1.6815 23.6312 2.57174 24 3.5 24C4.42826 24 5.3185 23.6312 5.97487 22.9749C6.63125 22.3185 7 21.4283 7 20.5V18.5C7 18.4461 6.99288 18.3945 6.98574 18.3428C6.98123 18.3101 6.97671 18.2773 6.974 18.244L8 15.338L9.026 18.244C9.02329 18.2773 9.01877 18.3101 9.01426 18.3428C9.00712 18.3945 9 18.4461 9 18.5V20.5C9 21.4283 9.36875 22.3185 10.0251 22.9749C10.6815 23.6312 11.5717 24 12.5 24C13.4283 24 14.3185 23.6312 14.9749 22.9749C15.6313 22.3185 16 21.4283 16 20.5V18.5C16 17.5717 15.6313 16.6815 14.9749 16.0251C14.3185 15.3687 13.4283 15 12.5 15ZM5 20.5C5 20.8978 4.84196 21.2794 4.56066 21.5607C4.27936 21.842 3.89782 22 3.5 22C3.10218 22 2.72064 21.842 2.43934 21.5607C2.15804 21.2794 2 20.8978 2 20.5V18.5C2 18.1022 2.15804 17.7206 2.43934 17.4393C2.72064 17.158 3.10218 17 3.5 17C3.89782 17 4.27936 17.158 4.56066 17.4393C4.84196 17.7206 5 18.1022 5 18.5V20.5ZM14 20.5C14 20.8978 13.842 21.2794 13.5607 21.5607C13.2794 21.842 12.8978 22 12.5 22C12.1022 22 11.7206 21.842 11.4393 21.5607C11.158 21.2794 11 20.8978 11 20.5V18.5C11 18.1022 11.158 17.7206 11.4393 17.4393C11.7206 17.158 12.1022 17 12.5 17C12.8978 17 13.2794 17.158 13.5607 17.4393C13.842 17.7206 14 18.1022 14 18.5V20.5Z" fill="currentColor"/>
<path d="M12.9941 1.11L12.1481 8.721C12.0327 9.70717 11.5517 10.6142 10.8001 11.263L9.05811 6.325L11.0581 0.666996C11.1405 0.43648 11.3045 0.244183 11.5192 0.126538C11.7339 0.00889325 11.9842 -0.0259266 12.2229 0.0286756C12.4615 0.0832778 12.6718 0.223509 12.8139 0.4228C12.9561 0.622092 13.0202 0.866599 12.9941 1.11Z" fill="currentColor"/>
</svg>
