<svg viewBox="0 0 16 16" fill="none" xmlns="http://www.w3.org/2000/svg">
<path d="M14 0H10.6667C10.4899 0 10.3203 0.0702379 10.1953 0.195262C10.0702 0.320286 10 0.489856 10 0.666667C10 0.843478 10.0702 1.01305 10.1953 1.13807C10.3203 1.2631 10.4899 1.33333 10.6667 1.33333H13.3333C13.5101 1.33333 13.6797 1.40357 13.8047 1.5286C13.9298 1.65362 14 1.82319 14 2C14 2.17681 13.9298 2.34638 13.8047 2.4714C13.6797 2.59643 13.5101 2.66667 13.3333 2.66667H10.6667C10.4899 2.66667 10.3203 2.7369 10.1953 2.86193C10.0702 2.98695 10 3.15652 10 3.33333C10 3.51014 10.0702 3.67971 10.1953 3.80474C10.3203 3.92976 10.4899 4 10.6667 4H13.3333C13.5101 4 13.6797 4.07024 13.8047 4.19526C13.9298 4.32029 14 4.48986 14 4.66667C14 4.84348 13.9298 5.01305 13.8047 5.13807C13.6797 5.2631 13.5101 5.33333 13.3333 5.33333H10.6667C10.4899 5.33333 10.3203 5.40357 10.1953 5.5286C10.0702 5.65362 10 5.82319 10 6C10 6.17681 10.0702 6.34638 10.1953 6.4714C10.3203 6.59643 10.4899 6.66667 10.6667 6.66667H13.3333C13.5101 6.66667 13.6797 6.73691 13.8047 6.86193C13.9298 6.98695 14 7.15652 14 7.33333C14 7.51014 13.9298 7.67971 13.8047 7.80474C13.6797 7.92976 13.5101 8 13.3333 8H10.6667C10.4899 8 10.3203 8.07024 10.1953 8.19526C10.0702 8.32029 10 8.48986 10 8.66667C10 8.84348 10.0702 9.01305 10.1953 9.13807C10.3203 9.2631 10.4899 9.33333 10.6667 9.33333H11.86C11.9535 9.33286 12.046 9.35205 12.1315 9.38964C12.2171 9.42723 12.2938 9.48239 12.3566 9.55154C12.4195 9.62069 12.4671 9.70229 12.4964 9.79103C12.5257 9.87977 12.536 9.97368 12.5267 10.0667L12.0067 15.2667C11.9974 15.3591 12.0075 15.4524 12.0364 15.5407C12.0653 15.629 12.1123 15.7103 12.1745 15.7793C12.2366 15.8484 12.3125 15.9037 12.3972 15.9417C12.482 15.9797 12.5738 15.9995 12.6667 16H15.3333C15.5101 16 15.6797 15.9298 15.8047 15.8047C15.9298 15.6797 16 15.5101 16 15.3333V2C16 1.46957 15.7893 0.960859 15.4142 0.585786C15.0391 0.210714 14.5304 0 14 0Z" fill="currentColor"/>
<path d="M8.33333 10C7.79371 10.0024 7.27195 10.1937 6.85867 10.5407L3.29467 0.444664C3.23975 0.290987 3.13038 0.162789 2.98727 0.0843587C2.84416 0.00592884 2.67725 -0.0172844 2.51817 0.019117C2.35909 0.0555185 2.21888 0.149006 2.12412 0.281867C2.02936 0.414728 1.98662 0.577732 2.004 0.739997L2.568 5.814C2.61045 6.20107 2.73742 6.57409 2.93994 6.90668C3.14247 7.23926 3.41559 7.52329 3.74 7.73866L4.596 8.308L3.808 10.5407C3.39471 10.1937 2.87296 10.0024 2.33333 10C1.71449 10 1.121 10.2458 0.683417 10.6834C0.245833 11.121 0 11.7145 0 12.3333V13.6667C0 14.2855 0.245833 14.879 0.683417 15.3166C1.121 15.7542 1.71449 16 2.33333 16C2.95217 16 3.54566 15.7542 3.98325 15.3166C4.42083 14.879 4.66667 14.2855 4.66667 13.6667V12.3333C4.66667 12.2974 4.66192 12.263 4.65716 12.2285C4.65415 12.2067 4.65114 12.1849 4.64933 12.1627L5.33333 10.2253L6.01733 12.1627C6.01552 12.1849 6.01251 12.2067 6.00951 12.2285C6.00475 12.263 6 12.2974 6 12.3333V13.6667C6 14.2855 6.24583 14.879 6.68342 15.3166C7.121 15.7542 7.7145 16 8.33333 16C8.95217 16 9.54566 15.7542 9.98325 15.3166C10.4208 14.879 10.6667 14.2855 10.6667 13.6667V12.3333C10.6667 11.7145 10.4208 11.121 9.98325 10.6834C9.54566 10.2458 8.95217 10 8.33333 10ZM3.33333 13.6667C3.33333 13.9319 3.22798 14.1862 3.04044 14.3738C2.8529 14.5613 2.59855 14.6667 2.33333 14.6667C2.06812 14.6667 1.81376 14.5613 1.62623 14.3738C1.43869 14.1862 1.33333 13.9319 1.33333 13.6667V12.3333C1.33333 12.0681 1.43869 11.8138 1.62623 11.6262C1.81376 11.4387 2.06812 11.3333 2.33333 11.3333C2.59855 11.3333 2.8529 11.4387 3.04044 11.6262C3.22798 11.8138 3.33333 12.0681 3.33333 12.3333V13.6667ZM9.33333 13.6667C9.33333 13.9319 9.22798 14.1862 9.04044 14.3738C8.8529 14.5613 8.59855 14.6667 8.33333 14.6667C8.06812 14.6667 7.81376 14.5613 7.62623 14.3738C7.43869 14.1862 7.33333 13.9319 7.33333 13.6667V12.3333C7.33333 12.0681 7.43869 11.8138 7.62623 11.6262C7.81376 11.4387 8.06812 11.3333 8.33333 11.3333C8.59855 11.3333 8.8529 11.4387 9.04044 11.6262C9.22798 11.8138 9.33333 12.0681 9.33333 12.3333V13.6667Z" fill="currentColor"/>
<path d="M8.66257 0.739997L8.09857 5.814C8.02165 6.47144 7.70099 7.07614 7.19991 7.50866L6.03857 4.21666L7.37191 0.444664C7.42682 0.290987 7.53619 0.162789 7.6793 0.0843587C7.82242 0.00592884 7.98932 -0.0172844 8.14841 0.019117C8.30749 0.0555185 8.44769 0.149006 8.54245 0.281867C8.63722 0.414728 8.67996 0.577732 8.66257 0.739997Z" fill="currentColor"/>
</svg>
