<svg viewBox="0 0 16 16" fill="none" xmlns="http://www.w3.org/2000/svg">
<path d="M10.9998 5.91699C11.9663 5.91699 12.7498 6.70049 12.7498 7.66699V8.5293L13.6687 8.67969L13.8718 8.72266C14.7999 8.97003 15.4402 9.82601 15.4158 10.7861L15.4001 10.9941L15.1589 12.9248C15.0368 13.9022 14.2504 14.6513 13.2869 14.7412L13.0916 14.75H10.5613C9.90812 14.75 9.29547 14.4437 8.90308 13.9277L8.8269 13.8223L7.53394 11.8818C7.08644 11.2104 7.17528 10.3167 7.74585 9.74609L7.86987 9.63379C8.17115 9.38688 8.55018 9.25 8.94312 9.25C9.04677 9.25002 9.14923 9.26074 9.24976 9.2793V7.66699C9.24976 6.70049 10.0333 5.91699 10.9998 5.91699ZM10.9998 7.41699C10.8617 7.41699 10.7498 7.52892 10.7498 7.66699V10.667C10.7496 10.9701 10.5669 11.2433 10.2869 11.3594C10.0067 11.4754 9.68398 11.4116 9.46948 11.1973L9.07886 10.8066C9.04278 10.7706 8.9941 10.7501 8.94312 10.75C8.91754 10.75 8.89207 10.7551 8.8689 10.7646L8.8064 10.8066C8.74142 10.8716 8.73111 10.9733 8.78198 11.0498L10.0759 12.9902L10.1199 13.0479C10.2299 13.1752 10.3907 13.25 10.5613 13.25H13.0916L13.2 13.2402C13.4448 13.1942 13.6387 12.9944 13.6707 12.7393L13.9119 10.8076L13.9148 10.6924C13.8982 10.4661 13.7504 10.269 13.5378 10.1895L13.4265 10.1602L11.8787 9.90723C11.516 9.8479 11.2498 9.53448 11.2498 9.16699V7.66699C11.2498 7.52892 11.1378 7.41699 10.9998 7.41699ZM11.9998 1.25C13.5185 1.25 14.7498 2.48122 14.7498 4V7.33301C14.7498 7.74722 14.414 8.08301 13.9998 8.08301C13.5855 8.08301 13.2498 7.74722 13.2498 7.33301V4C13.2498 3.30964 12.6901 2.75 11.9998 2.75H3.99976C3.3094 2.75 2.74976 3.30964 2.74976 4V8.66699C2.74993 9.3572 3.30951 9.91699 3.99976 9.91699H5.99976L6.0769 9.9209C6.45486 9.95953 6.74976 10.2788 6.74976 10.667C6.74959 11.055 6.45478 11.3745 6.0769 11.4131L5.99976 11.417H3.99976C2.48108 11.417 1.24993 10.1856 1.24976 8.66699V4C1.24976 2.48122 2.48097 1.25 3.99976 1.25H11.9998ZM6.13647 4.80273C6.42939 4.51017 6.90424 4.50995 7.19702 4.80273C7.48981 5.09552 7.48959 5.57036 7.19702 5.86328L6.72729 6.33301L7.19702 6.80273L7.2478 6.86035C7.48796 7.15482 7.47129 7.58868 7.19702 7.86328C6.92243 8.13787 6.4877 8.15532 6.19312 7.91504L6.13647 7.86328L5.66675 7.39355L5.19702 7.86328C4.90413 8.15617 4.42937 8.15617 4.13647 7.86328C3.84358 7.57039 3.84358 7.09563 4.13647 6.80273L4.6062 6.33301L4.13647 5.86328L4.08472 5.80664C3.84444 5.51206 3.86188 5.07733 4.13647 4.80273C4.41107 4.52847 4.84494 4.5118 5.1394 4.75195L5.19702 4.80273L5.66675 5.27246L6.13647 4.80273Z" fill="currentColor"/>
</svg>
