<svg viewBox="0 0 24 24" fill="none" xmlns="http://www.w3.org/2000/svg">
<path d="M15.8574 8.66699C17.1985 8.66715 18.286 9.75464 18.2861 11.0957V12.3887L19.6582 12.6123L19.9414 12.6729C21.3279 13.0423 22.2535 14.3861 22.0723 15.8389L21.7275 18.5986C21.5571 19.9613 20.4607 21.0048 19.1172 21.1299L18.8457 21.1426H15.2305C14.3199 21.1425 13.465 20.7164 12.918 19.9971L12.8135 19.8496L10.9658 17.0771C10.3456 16.1464 10.4679 14.9072 11.2588 14.1162L11.4307 13.96C11.8483 13.6177 12.3743 13.4288 12.9189 13.4287C13.0917 13.4287 13.2627 13.4484 13.4287 13.4854V11.0957C13.4288 9.75462 14.5163 8.66712 15.8574 8.66699ZM15.8574 10.667C15.6209 10.6671 15.4288 10.8592 15.4287 11.0957V15.3809C15.4287 15.7852 15.185 16.1499 14.8115 16.3047C14.4379 16.4594 14.0076 16.3737 13.7217 16.0879L13.1641 15.5303C13.0991 15.4654 13.0107 15.4288 12.9189 15.4287C12.8498 15.4288 12.7822 15.4494 12.7256 15.4873L12.6729 15.5303C12.5561 15.6471 12.5385 15.8302 12.6299 15.9678L14.4775 18.7402L14.5459 18.8291C14.7165 19.0266 14.9658 19.1425 15.2305 19.1426H18.8457L18.9307 19.1387C19.3488 19.0995 19.69 18.7748 19.7432 18.3506L20.0879 15.5918L20.0947 15.501C20.1051 15.0841 19.8269 14.7127 19.4238 14.6055L19.3359 14.5859L17.125 14.2256C16.6414 14.1466 16.2861 13.7284 16.2861 13.2383V11.0957C16.286 10.8592 16.0939 10.6671 15.8574 10.667ZM17.2861 2C19.4161 2.00023 21.1425 3.72743 21.1426 5.85742V10.6191C21.1425 11.1714 20.6948 11.6191 20.1426 11.6191C19.5906 11.6189 19.1426 11.1712 19.1426 10.6191V5.85742C19.1425 4.832 18.3115 4.00023 17.2861 4H5.85742C4.83193 4.00013 4.00013 4.83193 4 5.85742V12.5234C4 13.549 4.83186 14.3807 5.85742 14.3809H8.71387L8.81641 14.3857C9.32063 14.4369 9.71371 14.8632 9.71387 15.3809C9.71387 15.8987 9.32073 16.3248 8.81641 16.376L8.71387 16.3809H5.85742C3.72729 16.3807 2 14.6536 2 12.5234V5.85742C2.00013 3.72737 3.72737 2.00013 5.85742 2H17.2861ZM8.95996 7.05469C9.35043 6.6645 9.98357 6.66448 10.374 7.05469C10.7644 7.44513 10.7643 8.07823 10.374 8.46875L9.65234 9.19043L10.374 9.91211L10.4424 9.98828C10.7625 10.381 10.74 10.9601 10.374 11.3262C10.0078 11.6924 9.42794 11.7152 9.03516 11.3945L8.95996 11.3262L8.23828 10.6045L7.5166 11.3262C7.1261 11.7166 6.49306 11.7166 6.10254 11.3262C5.71226 10.9356 5.71212 10.3026 6.10254 9.91211L6.82422 9.19043L6.10254 8.46875L6.03418 8.39258C5.71412 7.99981 5.73653 7.4207 6.10254 7.05469C6.46856 6.68878 7.0477 6.66628 7.44043 6.98633L7.5166 7.05469L8.23828 7.77637L8.95996 7.05469Z" fill="currentColor"/>
</svg>
