<svg viewBox="0 0 32 32" fill="none" xmlns="http://www.w3.org/2000/svg">
<path d="M21.2498 12.083C23.0446 12.083 24.4996 13.5382 24.4998 15.333V17.2715L26.5466 17.6055L26.74 17.6416C28.65 18.051 29.968 19.8128 29.822 21.7607L29.8025 21.9561L29.3201 25.8193C29.0826 27.718 27.5116 29.1579 25.6179 29.2461L25.4333 29.25H20.3718C19.1441 29.2499 17.9923 28.6748 17.2546 27.7051L17.113 27.5059L14.5261 23.625C13.6972 22.3813 13.8618 20.7258 14.9187 19.6689L15.031 19.5615C15.6062 19.0406 16.3558 18.75 17.1355 18.75C17.4305 18.75 17.7212 18.7922 17.9998 18.8721V15.333C17.9999 13.5382 19.4549 12.083 21.2498 12.083ZM21.2498 14.583C20.8356 14.583 20.4999 14.9189 20.4998 15.333V21.333C20.4998 21.8386 20.1954 22.2948 19.7283 22.4883C19.2612 22.6817 18.7235 22.5743 18.366 22.2168L17.5857 21.4365C17.4664 21.3173 17.3041 21.25 17.1355 21.25C17.0092 21.25 16.8866 21.2874 16.783 21.3564L16.6863 21.4365C16.4721 21.6507 16.4384 21.9861 16.6062 22.2383L19.1931 26.1191L19.2996 26.2598C19.5667 26.569 19.9575 26.7499 20.3718 26.75H25.4333L25.5662 26.7441C26.2214 26.6831 26.7565 26.1734 26.8396 25.5088L27.322 21.6465L27.3328 21.5059C27.3496 20.8526 26.9135 20.2706 26.282 20.1025L26.1443 20.0732L23.0486 19.5684C22.4439 19.4697 21.9998 18.9467 21.9998 18.334V15.333C21.9996 14.9189 21.6639 14.583 21.2498 14.583ZM23.2498 2.75C26.1493 2.75 28.4998 5.1005 28.4998 8V14.667C28.4996 15.3572 27.94 15.917 27.2498 15.917C26.5595 15.917 25.9999 15.3572 25.9998 14.667V8C25.9998 6.48122 24.7685 5.25 23.2498 5.25H7.24976C5.73097 5.25 4.49976 6.48122 4.49976 8V17.333C4.49976 18.8518 5.73097 20.083 7.24976 20.083H11.2498L11.3777 20.0898C12.0078 20.1539 12.4996 20.686 12.4998 21.333C12.4998 21.9802 12.008 22.5131 11.3777 22.5771L11.2498 22.583H7.24976C4.35026 22.583 1.99976 20.2325 1.99976 17.333V8C1.99976 5.1005 4.35026 2.75 7.24976 2.75H23.2498ZM11.699 9.7832C12.1871 9.29505 12.9784 9.29505 13.4666 9.7832C13.9547 10.2714 13.9547 11.0626 13.4666 11.5508L12.3503 12.667L13.4666 13.7832L13.5525 13.8779C13.9529 14.3689 13.9242 15.0931 13.4666 15.5508C13.0089 16.0081 12.2846 16.0371 11.7937 15.6367L11.699 15.5508L10.5828 14.4346L9.46655 15.5508C8.97837 16.0386 8.18702 16.0388 7.69897 15.5508C7.21093 15.0627 7.21114 14.2714 7.69897 13.7832L8.81519 12.667L7.69897 11.5508L7.61304 11.4561C7.21262 10.9652 7.24161 10.2409 7.69897 9.7832C8.15663 9.32555 8.88086 9.29681 9.37183 9.69727L9.46655 9.7832L10.5828 10.8994L11.699 9.7832Z" fill="currentColor"/>
</svg>
