<svg viewBox="0 0 16 16" fill="none" xmlns="http://www.w3.org/2000/svg">
<path d="M2.6202 3.66996C4.12233 2.29997 6.40113 2.21548 8.00008 3.47074C9.65243 2.17375 12.0304 2.30718 13.5274 3.81156L13.6768 3.96977C14.401 4.77704 14.7867 5.83646 14.7472 6.92582C14.7048 8.0876 14.1823 9.17996 13.3048 9.94242L13.3038 9.9434L8.92684 13.7373C8.83859 13.8139 8.70662 13.9129 8.61629 13.9795C8.56708 14.0158 8.52193 14.0488 8.48934 14.0723C8.47337 14.0838 8.45963 14.093 8.45028 14.0996C8.44576 14.1029 8.44119 14.1056 8.43856 14.1075C8.43747 14.1082 8.4363 14.1097 8.43563 14.1104L8.43465 14.1114L8.00008 14.42L7.56551 14.1114L7.56454 14.1104C7.56382 14.1098 7.56284 14.1083 7.56161 14.1075C7.55899 14.1056 7.55453 14.103 7.54989 14.0996C7.54052 14.093 7.52688 14.0839 7.51082 14.0723C7.47822 14.0488 7.43318 14.0159 7.38387 13.9795C7.29354 13.913 7.16167 13.8139 7.07332 13.7373L2.69637 9.9434L2.69539 9.94242C1.81769 9.17995 1.29534 8.08771 1.25301 6.92582C1.21082 5.76383 1.65259 4.63581 2.47274 3.81156L2.6202 3.66996ZM12.4639 4.86918C11.5361 3.93709 10.08 3.82794 9.0284 4.57523L8.82332 4.73637L8.49129 5.02348L8.00008 5.44926L7.50887 5.02348L7.17684 4.73637C6.11712 3.81696 4.52601 3.87503 3.53621 4.86918C3.00912 5.39891 2.72496 6.12434 2.75203 6.87113C2.77921 7.61751 3.11425 8.31957 3.67782 8.80961L8.00008 12.5547L12.3214 8.80961C12.8851 8.31956 13.2209 7.61766 13.2481 6.87113C13.2718 6.21772 13.0575 5.58096 12.6505 5.07719L12.4639 4.86918Z" fill="currentColor"/>
</svg>
