<svg viewBox="0 0 24 24" fill="none" xmlns="http://www.w3.org/2000/svg">
<path d="M11.9987 5.36939C14.4306 3.3952 17.9781 3.56984 20.2028 5.80591L20.4225 6.03834C21.4872 7.22535 22.0541 8.78326 21.9958 10.385C21.9334 12.0933 21.1653 13.6996 19.8747 14.8206L19.8737 14.8215L13.3083 20.512C13.18 20.6232 12.9853 20.7691 12.8493 20.8694C12.7759 20.9235 12.7084 20.9721 12.6599 21.0071C12.6358 21.0245 12.6161 21.0391 12.6022 21.0491C12.5954 21.054 12.5894 21.0581 12.5856 21.0608C12.5838 21.0621 12.5808 21.0637 12.5808 21.0637L12.5788 21.0657L11.9997 21.4768L11.4206 21.0657L11.4186 21.0637C11.4186 21.0637 11.4156 21.0621 11.4138 21.0608C11.41 21.0581 11.4049 21.0539 11.3981 21.0491C11.3842 21.0391 11.3639 21.0246 11.3395 21.0071C11.2909 20.972 11.2236 20.9236 11.1501 20.8694C11.082 20.8192 10.9993 20.7575 10.9177 20.6946L10.6911 20.512L4.12567 14.8215L4.1247 14.8206C2.83406 13.6996 2.06594 12.0933 2.0036 10.385C1.94141 8.67652 2.59076 7.01787 3.79657 5.80591L4.01337 5.59888C6.24604 3.56152 9.64438 3.45903 11.9987 5.36939ZM18.7849 7.21705C17.2539 5.67824 14.7926 5.58766 13.153 7.01002L13.152 7.01099L12.655 7.44263L11.9997 8.01002L10.8474 7.01099L10.8464 7.01002C9.25812 5.63217 6.89879 5.67377 5.36102 7.07642L5.21454 7.21705C4.39952 8.03627 3.96063 9.15694 4.00263 10.3118C4.04471 11.4662 4.56329 12.5521 5.43524 13.3098L11.9997 18.9993L18.5641 13.3098C19.4361 12.5521 19.9547 11.4662 19.9968 10.3118C20.0361 9.22911 19.6529 8.17663 18.9333 7.37427L18.7849 7.21705Z" fill="currentColor"/>
</svg>
