<svg viewBox="0 0 32 32" fill="none" xmlns="http://www.w3.org/2000/svg">
<path d="M16.0005 7.26624C19.2112 4.61639 23.9268 4.83354 26.8784 7.80042L27.1685 8.10706C28.5734 9.67357 29.3215 11.7287 29.2446 13.8424C29.1625 16.0973 28.1494 18.2183 26.4458 19.6979L17.6909 27.2858C17.5229 27.4315 17.2663 27.6244 17.0845 27.7584C16.9868 27.8304 16.8972 27.8954 16.8325 27.942C16.8003 27.9653 16.7729 27.9844 16.7544 27.9977C16.7456 28.004 16.7379 28.0088 16.7329 28.0123C16.7305 28.014 16.7284 28.0162 16.7271 28.0172L16.7251 28.0182L16.0005 28.5338L15.2769 28.0192L15.2759 28.0182L15.2739 28.0172C15.2726 28.0163 15.2705 28.0141 15.2681 28.0123C15.2631 28.0088 15.2555 28.004 15.2466 27.9977C15.2281 27.9845 15.2008 27.9653 15.1685 27.942C15.1038 27.8954 15.0142 27.8304 14.9165 27.7584C14.8256 27.6914 14.7159 27.6091 14.6079 27.526L14.3101 27.2858L5.55617 19.6979C3.85244 18.2183 2.83847 16.0974 2.75636 13.8424C2.6744 11.5875 3.53106 9.39991 5.12257 7.80042L5.40871 7.52601C8.3721 4.82249 12.8918 4.70029 16.0005 7.26624ZM14.5181 9.28382C12.299 7.35838 8.96735 7.4807 6.89503 9.56312C5.79192 10.6718 5.1976 12.1887 5.25441 13.7516C5.31131 15.3142 6.01349 16.7837 7.19386 17.8092L15.9478 25.3971L15.9995 25.4381C16.0192 25.4222 16.038 25.4094 16.0523 25.3971L24.8071 17.8092C25.9873 16.7837 26.6897 15.3141 26.7466 13.7516C26.7999 12.2864 26.281 10.8618 25.3071 9.77601L25.106 9.56312C23.0986 7.54571 19.9097 7.36809 17.6948 9.10901L17.4829 9.28382L16.0005 10.569L14.5181 9.28382Z" fill="currentColor"/>
</svg>
