<svg viewBox="0 0 24 24" fill="none" xmlns="http://www.w3.org/2000/svg">
<path d="M11.4492 14.665C13.242 13.483 15.55 13.4466 17.375 14.5547L17.5508 14.665L17.6328 14.7256C18.0257 15.0459 18.12 15.6185 17.835 16.0508C17.55 16.4828 16.9872 16.6213 16.5381 16.3867L16.4492 16.335L16.2236 16.1982C15.0763 15.5586 13.6596 15.604 12.5508 16.335C10.758 17.517 8.44997 17.5534 6.625 16.4453L6.44922 16.335L6.36719 16.2744C5.97425 15.9541 5.87999 15.3815 6.16504 14.9492C6.45004 14.5172 7.01284 14.3787 7.46191 14.6133L7.55078 14.665L7.77637 14.8018C8.92366 15.4414 10.3404 15.396 11.4492 14.665Z" fill="currentColor"/>
<path d="M11.4492 11.165C13.242 9.98301 15.55 9.94659 17.375 11.0547L17.5508 11.165L17.6328 11.2256C18.0257 11.5459 18.12 12.1185 17.835 12.5508C17.55 12.9828 16.9872 13.1213 16.5381 12.8867L16.4492 12.835L16.2236 12.6982C15.0763 12.0586 13.6596 12.104 12.5508 12.835C10.758 14.017 8.44997 14.0534 6.625 12.9453L6.44922 12.835L6.36719 12.7744C5.97425 12.4541 5.87999 11.8815 6.16504 11.4492C6.45004 11.0172 7.01284 10.8787 7.46191 11.1133L7.55078 11.165L7.77637 11.3018C8.92366 11.9414 10.3404 11.896 11.4492 11.165Z" fill="currentColor"/>
<path d="M11.4492 7.66504C13.242 6.48301 15.55 6.44659 17.375 7.55469L17.5508 7.66504L17.6328 7.72559C18.0257 8.04589 18.12 8.61846 17.835 9.05078C17.55 9.48283 16.9872 9.62134 16.5381 9.38672L16.4492 9.33496L16.2236 9.19824C15.0763 8.55856 13.6596 8.60399 12.5508 9.33496C10.758 10.517 8.44997 10.5534 6.625 9.44531L6.44922 9.33496L6.36719 9.27441C5.97425 8.95412 5.87999 8.38155 6.16504 7.94922C6.45004 7.51716 7.01284 7.37865 7.46191 7.61328L7.55078 7.66504L7.77637 7.80176C8.92366 8.44143 10.3404 8.39601 11.4492 7.66504Z" fill="currentColor"/>
<path d="M13 2C14.3835 2 15.4813 1.99909 16.3652 2.07129C17.2608 2.14446 18.0244 2.29805 18.7236 2.6543L18.9336 2.76563C19.9667 3.34459 20.8065 4.21805 21.3457 5.27637L21.4707 5.54102C21.7397 6.16793 21.8647 6.85102 21.9287 7.63477C22.0009 8.51866 22 9.61647 22 11V13C22 14.3835 22.0009 15.4813 21.9287 16.3652C21.8647 17.149 21.7397 17.8321 21.4707 18.459L21.3457 18.7236C20.8065 19.7819 19.9667 20.6554 18.9336 21.2344L18.7236 21.3457C18.0244 21.7019 17.2608 21.8555 16.3652 21.9287C15.4813 22.0009 14.3835 22 13 22H11C9.61648 22 8.51866 22.0009 7.63477 21.9287C6.85102 21.8647 6.16793 21.7397 5.54102 21.4707L5.27637 21.3457C4.21805 20.8065 3.34459 19.9667 2.76563 18.9336L2.6543 18.7236C2.29805 18.0244 2.14446 17.2608 2.07129 16.3652C1.99909 15.4813 2 14.3835 2 13V11C2 9.61648 1.99909 8.51866 2.07129 7.63477C2.14446 6.73921 2.29805 5.97558 2.6543 5.27637L2.76563 5.06641C3.34459 4.03334 4.21805 3.19354 5.27637 2.6543L5.54102 2.5293C6.16793 2.26025 6.85102 2.13532 7.63477 2.07129C8.51866 1.99909 9.61647 2 11 2H13ZM11 4C9.58363 4 8.58138 4.00047 7.79785 4.06445C7.12254 4.11963 6.67692 4.21809 6.32813 4.36816L6.18359 4.43555C5.52512 4.7711 4.97413 5.2817 4.58984 5.9082L4.43555 6.18359C4.24686 6.55391 4.12752 7.02593 4.06445 7.79785C4.00047 8.58138 4 9.58363 4 11V13C4 14.4164 4.00047 15.4186 4.06445 16.2021C4.12752 16.9741 4.24686 17.4461 4.43555 17.8164L4.58984 18.0918C4.97413 18.7183 5.52512 19.2289 6.18359 19.5645L6.32813 19.6318C6.67692 19.7819 7.12254 19.8804 7.79785 19.9355C8.58138 19.9995 9.58363 20 11 20H13C14.4164 20 15.4186 19.9995 16.2021 19.9355C16.9741 19.8725 17.4461 19.7531 17.8164 19.5645L18.0918 19.4102C18.7183 19.0259 19.2289 18.4749 19.5645 17.8164L19.6318 17.6719C19.7819 17.3231 19.8804 16.8775 19.9355 16.2021C19.9995 15.4186 20 14.4164 20 13V11C20 9.58363 19.9995 8.58138 19.9355 7.79785C19.8804 7.12254 19.7819 6.67692 19.6318 6.32813L19.5645 6.18359C19.2289 5.52512 18.7183 4.97413 18.0918 4.58984L17.8164 4.43555C17.4461 4.24686 16.9741 4.12752 16.2021 4.06445C15.4186 4.00047 14.4164 4 13 4H11Z" fill="currentColor"/>
</svg>
