<svg viewBox="0 0 16 16" fill="none" xmlns="http://www.w3.org/2000/svg">
<path d="M7.58692 9.70703C8.84844 8.87526 10.4845 8.87531 11.7461 9.70703L11.333 10.333L10.9209 10.96C10.1602 10.4584 9.17374 10.4584 8.41309 10.96C7.15162 11.7917 5.51542 11.7916 4.25391 10.96C3.90827 10.7321 3.81246 10.2667 4.04004 9.9209C4.26797 9.57521 4.73333 9.47933 5.0791 9.70703C5.83972 10.2085 6.82628 10.2085 7.58692 9.70703Z" fill="currentColor"/>
<path d="M11.7461 9.70703C12.0918 9.93498 12.1877 10.4003 11.96 10.7461C11.7321 11.0917 11.2667 11.1875 10.9209 10.96L11.333 10.333L11.7461 9.70703Z" fill="currentColor"/>
<path d="M7.58692 7.37403C8.84848 6.54222 10.4845 6.54222 11.7461 7.37403C12.0919 7.60203 12.1879 8.06729 11.96 8.41309C11.732 8.75883 11.2667 8.85381 10.9209 8.62598C10.1603 8.12451 9.17371 8.12461 8.41309 8.62598C7.15152 9.45778 5.51548 9.45778 4.25391 8.62598L4.66699 8L5.0791 7.37403C5.83967 7.8755 6.8263 7.87539 7.58692 7.37403Z" fill="currentColor"/>
<path d="M4.04004 7.58692C4.268 7.24117 4.73331 7.14619 5.0791 7.37403L4.25391 8.62598C3.90813 8.39798 3.81209 7.93272 4.04004 7.58692Z" fill="currentColor"/>
<path d="M7.58692 5.04004C8.84839 4.20833 10.4846 4.20843 11.7461 5.04004C12.0917 5.26794 12.1875 5.73334 11.96 6.0791C11.732 6.4248 11.2667 6.52067 10.9209 6.29297C10.1603 5.79146 9.17373 5.7915 8.41309 6.29297C7.15156 7.12474 5.51546 7.12469 4.25391 6.29297L4.66699 5.66699L5.0791 5.04004C5.83976 5.54157 6.82626 5.54157 7.58692 5.04004Z" fill="currentColor"/>
<path d="M4.04004 5.25391C4.26794 4.90827 4.73334 4.81246 5.0791 5.04004L4.25391 6.29297C3.90819 6.06503 3.81227 5.59969 4.04004 5.25391Z" fill="currentColor"/>
<path d="M10.3242 1.25488C10.6614 1.26023 10.9625 1.271 11.2314 1.29297C11.7781 1.33763 12.258 1.43287 12.7022 1.65918L12.9609 1.80371C13.5482 2.16401 14.0263 2.68055 14.3408 3.29785L14.4199 3.46582C14.5903 3.86282 14.668 4.29021 14.707 4.76856C14.751 5.30639 14.75 5.97222 14.75 6.79981V9.2002C14.75 10.0278 14.751 10.6936 14.707 11.2314C14.668 11.7098 14.5903 12.1372 14.4199 12.5342L14.3408 12.7022C14.0263 13.3195 13.5482 13.836 12.9609 14.1963L12.7022 14.3408C12.258 14.5671 11.7781 14.6624 11.2314 14.707C10.6936 14.751 10.0278 14.75 9.2002 14.75H6.79981C5.97222 14.75 5.30639 14.751 4.76856 14.707C4.29021 14.668 3.86282 14.5903 3.46582 14.4199L3.29785 14.3408C2.68055 14.0263 2.16401 13.5482 1.80371 12.9609L1.65918 12.7022C1.43287 12.258 1.33763 11.7781 1.29297 11.2314C1.271 10.9625 1.26023 10.6614 1.25488 10.3242L1.25 9.2002V6.79981C1.25 5.97222 1.24903 5.30639 1.29297 4.76856C1.33763 4.22195 1.43287 3.74205 1.65918 3.29785L1.80371 3.03906C2.16401 2.45177 2.68055 1.97372 3.29785 1.65918L3.46582 1.58008C3.86282 1.40975 4.29021 1.33205 4.76856 1.29297C5.30639 1.24903 5.97222 1.25 6.79981 1.25H9.2002L10.3242 1.25488ZM6.79981 2.75C5.94746 2.75 5.35322 2.75029 4.89063 2.78809C4.55026 2.8159 4.31856 2.86215 4.14063 2.92578L3.97852 2.99512C3.60815 3.18383 3.29821 3.47089 3.08203 3.82324L2.99512 3.97852C2.89449 4.17602 2.82517 4.4368 2.78809 4.89063C2.75029 5.35322 2.75 5.94746 2.75 6.79981V9.2002L2.75488 10.3008C2.75975 10.6138 2.76919 10.878 2.78809 11.1094C2.82517 11.5632 2.89449 11.824 2.99512 12.0215L3.08203 12.1768C3.29821 12.5291 3.60815 12.8162 3.97852 13.0049L4.14063 13.0742C4.31856 13.1379 4.55026 13.1841 4.89063 13.2119C5.35322 13.2497 5.94746 13.25 6.79981 13.25H9.2002C10.0525 13.25 10.6468 13.2497 11.1094 13.2119C11.5632 13.1748 11.824 13.1055 12.0215 13.0049L12.1768 12.918C12.5291 12.7018 12.8162 12.3919 13.0049 12.0215L13.0742 11.8594C13.1379 11.6814 13.1841 11.4497 13.2119 11.1094C13.2497 10.6468 13.25 10.0525 13.25 9.2002V6.79981C13.25 5.94746 13.2497 5.35322 13.2119 4.89063C13.1841 4.55026 13.1379 4.31856 13.0742 4.14063L13.0049 3.97852C12.8162 3.60815 12.5291 3.29821 12.1768 3.08203L12.0215 2.99512C11.824 2.89449 11.5632 2.82517 11.1094 2.78809C10.878 2.76919 10.6138 2.75975 10.3008 2.75488L9.2002 2.75H6.79981Z" fill="currentColor"/>
</svg>
