<svg viewBox="0 0 32 32" fill="none" xmlns="http://www.w3.org/2000/svg">
<path d="M15.3115 19.623C17.6749 18.0648 20.7182 18.0157 23.124 19.4766L23.3545 19.623L23.458 19.6992C23.9488 20.0997 24.0661 20.8143 23.71 21.3545C23.3537 21.8948 22.6503 22.0688 22.0889 21.7754L21.9785 21.71L21.6719 21.5244C20.1153 20.6567 18.1928 20.7183 16.6885 21.71C14.3251 23.2683 11.2818 23.3173 8.87598 21.8564L8.64551 21.71L8.54199 21.6348C8.05095 21.2344 7.93376 20.5189 8.29004 19.9785C8.64638 19.4383 9.3497 19.265 9.91113 19.5586L10.0215 19.623L10.3281 19.8086C11.8848 20.6764 13.8071 20.6148 15.3115 19.623Z" fill="currentColor"/>
<path d="M15.3115 14.9561C17.675 13.3977 20.7181 13.3495 23.124 14.8105L23.3545 14.9561L23.458 15.0322C23.9489 15.4327 24.0662 16.1482 23.71 16.6885C23.3536 17.2285 22.6502 17.4019 22.0889 17.1084L21.9785 17.0439L21.6719 16.8574C20.1152 15.9897 18.1928 16.0521 16.6885 17.0439C14.325 18.6023 11.2819 18.6504 8.87598 17.1895L8.64551 17.0439L8.54199 16.9678C8.05108 16.5674 7.9338 15.8518 8.29004 15.3115C8.6464 14.7715 9.3498 14.5981 9.91113 14.8916L10.0215 14.9561L10.3281 15.1426C11.8848 16.0103 13.8072 15.9479 15.3115 14.9561Z" fill="currentColor"/>
<path d="M15.3115 10.29C17.6749 8.73174 20.7181 8.68265 23.124 10.1436L23.3545 10.29L23.458 10.3652C23.949 10.7656 24.0662 11.4811 23.71 12.0215C23.3536 12.5617 22.6503 12.735 22.0889 12.4414L21.9785 12.377L21.6719 12.1904C20.1153 11.3228 18.1927 11.3853 16.6885 12.377C14.3251 13.9352 11.2818 13.9842 8.87598 12.5234L8.64551 12.377L8.54199 12.3008C8.05123 11.9003 7.93388 11.1857 8.29004 10.6455C8.64628 10.1052 9.34968 9.93115 9.91113 10.2246L10.0215 10.29L10.3281 10.4756C11.8847 11.3433 13.8072 11.2817 15.3115 10.29Z" fill="currentColor"/>
<path d="M18.4004 2.75C20.0596 2.75 21.3793 2.74909 22.4424 2.83594C23.52 2.92399 24.4438 3.10845 25.291 3.54004L25.5439 3.67578C26.7924 4.37536 27.8083 5.43007 28.46 6.70898L28.6104 7.03027C28.936 7.78941 29.087 8.6146 29.1641 9.55762C29.2509 10.6207 29.25 11.9404 29.25 13.5996V18.4004C29.25 20.0596 29.2509 21.3793 29.1641 22.4424C29.087 23.3854 28.936 24.2106 28.6104 24.9697L28.46 25.291C27.8083 26.5699 26.7924 27.6246 25.5439 28.3242L25.291 28.46C24.4438 28.8915 23.52 29.076 22.4424 29.1641C21.3793 29.2509 20.0596 29.25 18.4004 29.25H13.5996C11.9404 29.25 10.6207 29.2509 9.55762 29.1641C8.6146 29.087 7.78941 28.936 7.03027 28.6104L6.70898 28.46C5.43007 27.8083 4.37536 26.7924 3.67578 25.5439L3.54004 25.291C3.10845 24.4438 2.92398 23.52 2.83594 22.4424C2.74909 21.3793 2.75 20.0596 2.75 18.4004V13.5996C2.75 11.9404 2.74909 10.6207 2.83594 9.55762C2.92399 8.47997 3.10845 7.5562 3.54004 6.70898L3.67578 6.45606C4.37536 5.20762 5.43007 4.19168 6.70898 3.54004L7.03027 3.38965C7.78941 3.06395 8.6146 2.91299 9.55762 2.83594C10.6207 2.74909 11.9404 2.75 13.5996 2.75H18.4004ZM13.5996 5.25C11.899 5.25 10.6985 5.25053 9.76074 5.32715C8.95318 5.39314 8.42524 5.51136 8.01367 5.68848L7.84375 5.76758C7.06168 6.16606 6.40756 6.77251 5.95117 7.5166L5.76758 7.84375C5.54543 8.27983 5.40257 8.83782 5.32715 9.76074C5.25053 10.6985 5.25 11.899 5.25 13.5996V18.4004C5.25 20.101 5.25053 21.3015 5.32715 22.2393C5.40257 23.1622 5.54543 23.7202 5.76758 24.1562L5.95117 24.4834C6.40756 25.2275 7.06168 25.8339 7.84375 26.2324L8.01367 26.3115C8.42524 26.4886 8.95318 26.6069 9.76074 26.6729C10.6985 26.7495 11.899 26.75 13.5996 26.75H18.4004C20.101 26.75 21.3015 26.7495 22.2393 26.6729C23.1622 26.5974 23.7202 26.4546 24.1562 26.2324L24.4834 26.0488C25.2275 25.5924 25.8339 24.9383 26.2324 24.1562L26.3115 23.9863C26.4886 23.5748 26.6069 23.0468 26.6729 22.2393C26.7495 21.3015 26.75 20.101 26.75 18.4004V13.5996C26.75 11.899 26.7495 10.6985 26.6729 9.76074C26.6069 8.95318 26.4886 8.42524 26.3115 8.01367L26.2324 7.84375C25.8339 7.06168 25.2275 6.40756 24.4834 5.95117L24.1562 5.76758C23.7202 5.54543 23.1622 5.40257 22.2393 5.32715C21.3015 5.25053 20.101 5.25 18.4004 5.25H13.5996Z" fill="currentColor"/>
</svg>
