<svg viewBox="0 0 32 32" fill="none" xmlns="http://www.w3.org/2000/svg">
<path d="M10.8271 13.1998C12.2634 11.8915 14.3869 11.7255 16 12.7438C17.6714 11.6891 19.891 11.9051 21.3262 13.3453L21.4795 13.5074C22.2247 14.337 22.6218 15.4264 22.5811 16.5465C22.5401 17.6667 22.0644 18.7246 21.2607 19.4977L21.0957 19.6481L17.6514 22.6334C16.7631 23.4032 15.471 23.4514 14.5322 22.7779L14.3486 22.6334L10.9053 19.6481C10.0017 18.8648 9.46359 17.7415 9.41992 16.5465C9.37646 15.3517 9.83094 14.1922 10.6748 13.3453L10.8271 13.1998ZM12.4453 15.11C12.0908 15.4659 11.8997 15.9536 11.918 16.4557C11.9364 16.9578 12.1623 17.4302 12.542 17.7594L15.9863 20.7438L15.9922 20.7477C15.9939 20.7483 15.9969 20.7496 16 20.7496C16.0031 20.7496 16.0061 20.7483 16.0078 20.7477C16.009 20.7472 16.011 20.7461 16.0137 20.7438L19.458 17.7594L19.5938 17.6295C19.8915 17.3118 20.0659 16.8949 20.082 16.4557C20.098 16.0165 19.9544 15.5881 19.6807 15.2496L19.5547 15.11C18.9323 14.4856 17.9563 14.4123 17.251 14.9127L17.1133 15.0201L16.8184 15.276C16.3486 15.6827 15.6513 15.6829 15.1816 15.276L14.8867 15.0201C14.1763 14.4044 13.1101 14.4433 12.4463 15.109L11.5605 14.2272L12.4453 15.11Z" fill="currentColor"/>
<path d="M11.3291 4.27403C14.2013 2.1736 18.1445 2.2436 20.9453 4.48399L26.5293 8.95079L26.8428 9.21739C28.3699 10.5879 29.25 12.5481 29.25 14.6129V21.9996C29.25 26.0037 26.0041 29.2496 22 29.2496H10C5.99594 29.2496 2.75 26.0037 2.75 21.9996V14.6129C2.75005 12.4107 3.75118 10.3276 5.4707 8.95177L11.0547 4.48399L11.3291 4.27403ZM19.3838 6.43614C17.4673 4.90319 14.7689 4.85529 12.8037 6.29259L12.6162 6.43614L7.03223 10.9039C5.90581 11.8053 5.25005 13.1702 5.25 14.6129V21.9996C5.25 24.623 7.37665 26.7496 10 26.7496H22C24.6234 26.7496 26.75 24.623 26.75 21.9996V14.6129L26.7422 14.3434C26.6711 13.0905 26.1068 11.9159 25.1729 11.0777L24.9678 10.9039L19.3838 6.43614Z" fill="currentColor"/>
</svg>
