<svg viewBox="0 0 33 32" fill="none" xmlns="http://www.w3.org/2000/svg">
<path d="M31.5427 13.66L31.5107 13.6346L16.844 1.63463C16.6059 1.43989 16.3077 1.3335 16 1.3335C15.6924 1.3335 15.3942 1.43989 15.156 1.63463L0.489384 13.6346C0.221818 13.8604 0.0537747 14.1823 0.0215378 14.5309C-0.0106991 14.8795 0.095457 15.2268 0.317085 15.4978C0.538713 15.7688 0.85803 15.9417 1.20609 15.9793C1.55415 16.0169 1.90302 15.9161 2.17738 15.6986L4.00005 14.208V29.3333C4.00005 29.6869 4.14053 30.0261 4.39057 30.2761C4.64062 30.5262 4.97976 30.6666 5.33338 30.6666H26.6667C27.0203 30.6666 27.3595 30.5262 27.6095 30.2761C27.8596 30.0261 28 29.6869 28 29.3333V14.208L29.8227 15.6986C30.0931 15.9267 30.4429 16.0381 30.7954 16.0082C31.1478 15.9783 31.474 15.8096 31.702 15.5393C31.9301 15.269 32.0415 14.9191 32.0116 14.5666C31.9817 14.2142 31.8131 13.888 31.5427 13.66ZM21.6 19.6413L16 25.3333L10.4001 19.6413C9.716 18.9434 9.33285 18.0052 9.33285 17.028C9.33285 16.0508 9.716 15.1125 10.4001 14.4146C10.7785 14.0283 11.2391 13.7321 11.7477 13.5482C12.2563 13.3643 12.7998 13.2973 13.3378 13.3522C13.8758 13.4072 14.3945 13.5827 14.8554 13.8656C15.3163 14.1486 15.7076 14.5317 16 14.9866C16.2925 14.5317 16.6838 14.1486 17.1447 13.8656C17.6056 13.5827 18.1243 13.4072 18.6623 13.3522C19.2003 13.2973 19.7438 13.3643 20.2524 13.5482C20.761 13.7321 21.2216 14.0283 21.6 14.4146C22.2841 15.1125 22.6672 16.0508 22.6672 17.028C22.6672 18.0052 22.2841 18.9434 21.6 19.6413Z" fill="currentColor"/>
</svg>
