<svg viewBox="0 0 24 24" fill="none" xmlns="http://www.w3.org/2000/svg">
<path d="M19.9999 16.494V10.9563C19.9999 9.89353 19.5166 8.888 18.6864 8.22408L14.4989 4.87588C13.038 3.70766 10.9617 3.70766 9.50083 4.87588L5.31333 8.22408C4.96483 8.50276 4.62771 9.00372 4.37583 9.64828C4.12772 10.2832 3.99985 10.9631 3.99985 11.5098C3.9998 12.0618 3.5521 12.5094 2.99985 12.5094C2.4476 12.5094 1.9999 12.0618 1.99985 11.5098C1.99985 10.6901 2.18317 9.76403 2.51255 8.92105C2.83824 8.0876 3.34535 7.23815 4.0643 6.66321L8.2518 3.31404C10.443 1.56198 13.5567 1.56199 15.7479 3.31404L19.9354 6.66321C21.2401 7.70652 21.9999 9.28622 21.9999 10.9563V16.494C21.9999 19.5303 19.5374 21.9917 16.4999 21.9917H12.4803C11.9281 21.9916 11.4803 21.5441 11.4803 20.9921C11.4803 20.4401 11.9281 19.9926 12.4803 19.9925H16.4999C18.4328 19.9925 19.9999 18.4262 19.9999 16.494Z" fill="currentColor"/>
<path d="M3.22535 17.0107C4.24942 17.0772 5.16604 17.4698 5.84742 18.1508C6.5288 18.8319 6.92144 19.7481 6.98804 20.7718L6.99683 20.9777L6.9939 21.0802C6.95394 21.5852 6.53684 21.9882 6.01929 21.9998C5.50171 22.0111 5.06691 21.6269 5.00465 21.1241L4.99683 21.0227L4.98218 20.7864C4.92502 20.2548 4.71714 19.848 4.43336 19.5643C4.14957 19.2807 3.74249 19.0728 3.2107 19.0157L2.97437 19.001L2.87281 18.9932C2.36985 18.9309 1.98534 18.4964 1.99683 17.979C2.00925 17.4274 2.4674 16.9898 3.01929 17.0019L3.22535 17.0107Z" fill="currentColor"/>
<path d="M3.33064 14.013C4.07698 14.0514 4.78724 14.1929 5.4488 14.4259L5.81013 14.5645C7.58289 15.3025 8.92712 16.7198 9.57283 18.5472L9.66755 18.8342C9.8453 19.4135 9.95291 20.0269 9.98591 20.6664L9.99665 20.9886L9.99275 21.091C9.94735 21.5955 9.52598 21.9937 9.00837 21.9998C8.49095 22.0057 8.06078 21.6176 8.00349 21.1145L7.99665 21.0119L7.98884 20.7698C7.96412 20.2898 7.88399 19.8387 7.75544 19.4199L7.68708 19.2129C7.19991 17.8342 6.16543 16.7991 4.78474 16.3108C4.30893 16.1433 3.78748 16.0389 3.22712 16.0102L2.98493 16.0024L2.8824 15.9956C2.37912 15.9381 1.99059 15.5084 1.99665 14.9911C2.00323 14.4392 2.45636 13.9969 3.00837 14.0032L3.33064 14.013Z" fill="currentColor"/>
</svg>
