<svg viewBox="0 0 16 16" fill="none" xmlns="http://www.w3.org/2000/svg">
<path d="M1.25 7.25403C1.25 6.10045 1.77923 5.08046 2.65723 4.37806L5.44922 2.14466C6.94047 0.951783 9.05953 0.951778 10.5508 2.14466L13.3428 4.37806C14.2323 5.0897 14.75 6.16759 14.75 7.30677V11.0001C14.75 13.0712 13.0711 14.7501 11 14.7501H8.75391C8.33969 14.7501 8.00391 14.4143 8.00391 14.0001C8.00391 13.5859 8.33969 13.2501 8.75391 13.2501H11C12.2426 13.2501 13.25 12.2428 13.25 11.0001V7.30677C13.25 6.62326 12.939 5.97692 12.4053 5.54993L9.61426 3.31653C8.67077 2.56174 7.32923 2.56174 6.38574 3.31653L3.59473 5.54993C3.04944 5.98617 2.75 6.58492 2.75 7.25403C2.75 7.66825 2.41421 8.00403 2 8.00403C1.58579 8.00403 1.25 7.66825 1.25 7.25403Z" fill="currentColor"/>
<path d="M2.14381 11.1557C2.8812 11.2037 3.54122 11.4865 4.03185 11.977C4.52248 12.4677 4.8052 13.1277 4.85316 13.8651L4.85949 14.0134L4.85738 14.0873C4.8286 14.4511 4.52827 14.7413 4.1556 14.7497C3.78292 14.7578 3.46984 14.4811 3.42501 14.1189L3.41938 14.0458L3.40883 13.8756C3.36767 13.4927 3.21798 13.1996 3.01365 12.9953C2.8093 12.791 2.51618 12.6412 2.13326 12.6001L1.96309 12.5895L1.88996 12.5839C1.5278 12.539 1.25093 12.226 1.25921 11.8533C1.26815 11.4559 1.59804 11.1407 1.99544 11.1494L2.14381 11.1557Z" fill="currentColor"/>
<path d="M2.21962 8.99631C2.75703 9.02396 3.26846 9.12592 3.74482 9.29376L4.005 9.39356C5.28148 9.92518 6.2494 10.9461 6.71435 12.2626L6.78255 12.4693C6.91054 12.8866 6.98803 13.3285 7.01179 13.7891L7.01952 14.0212L7.01672 14.095C6.98403 14.4584 6.68062 14.7453 6.30791 14.7497C5.93534 14.7539 5.62559 14.4743 5.58434 14.1119L5.57941 14.0381L5.57379 13.8637C5.55599 13.5179 5.49829 13.1929 5.40573 12.8912L5.3565 12.7421C5.00571 11.7489 4.26083 11.0033 3.26666 10.6516C2.92405 10.5309 2.54857 10.4557 2.14508 10.435L1.97069 10.4294L1.89687 10.4245C1.53448 10.3831 1.25471 10.0735 1.25908 9.70088C1.26382 9.30334 1.59009 8.98471 1.98757 8.98925L2.21962 8.99631Z" fill="currentColor"/>
</svg>
