<svg viewBox="0 0 25 24" fill="none" xmlns="http://www.w3.org/2000/svg">
<path d="M23.6571 10.2448L23.6331 10.2258L12.6331 1.22585C12.4545 1.07979 12.2308 1 12.0001 1C11.7694 1 11.5457 1.07979 11.3671 1.22585L0.367099 10.2258C0.166425 10.3952 0.0403921 10.6366 0.0162144 10.8981C-0.00796332 11.1595 0.0716538 11.42 0.237875 11.6232C0.404096 11.8265 0.643583 11.9562 0.904628 11.9844C1.16567 12.0125 1.42733 11.9369 1.6331 11.7738L3.0001 10.6558V21.9998C3.0001 22.2651 3.10546 22.5194 3.29299 22.707C3.48053 22.8945 3.73488 22.9998 4.0001 22.9998H20.0001C20.2653 22.9998 20.5197 22.8945 20.7072 22.707C20.8947 22.5194 21.0001 22.2651 21.0001 21.9998V10.6558L22.3671 11.7738C22.5699 11.9449 22.8323 12.0284 23.0966 12.006C23.3609 11.9836 23.6055 11.8571 23.7766 11.6543C23.9477 11.4516 24.0312 11.1892 24.0088 10.9248C23.9864 10.6605 23.8599 10.4159 23.6571 10.2448ZM16.2001 14.7308L12.0001 18.9998L7.8001 14.7308C7.28706 14.2074 6.9997 13.5038 6.9997 12.7708C6.9997 12.0379 7.28706 11.3342 7.8001 10.8108C8.08392 10.5211 8.42938 10.299 8.81082 10.161C9.19226 10.0231 9.59988 9.97284 10.0034 10.0141C10.4069 10.0553 10.796 10.1869 11.1416 10.3991C11.4873 10.6113 11.7807 10.8987 12.0001 11.2398C12.2195 10.8987 12.5129 10.6113 12.8586 10.3991C13.2042 10.1869 13.5933 10.0553 13.9968 10.0141C14.4003 9.97284 14.8079 10.0231 15.1894 10.161C15.5708 10.299 15.9163 10.5211 16.2001 10.8108C16.7131 11.3342 17.0005 12.0379 17.0005 12.7708C17.0005 13.5038 16.7131 14.2074 16.2001 14.7308Z" fill="currentColor"/>
</svg>
