<svg viewBox="0 0 32 32" fill="none" xmlns="http://www.w3.org/2000/svg">
<path d="M26.5 21.99V14.6071C26.5 13.2408 25.879 11.9478 24.8115 11.0943L19.2275 6.62976C17.3407 5.12118 14.6593 5.12118 12.7725 6.62976L7.18848 11.0943C6.12103 11.9478 5.5 13.2408 5.5 14.6071C5.49982 15.4349 4.82832 16.1063 4 16.1063C3.17168 16.1063 2.50018 15.4349 2.5 14.6071C2.5 12.3301 3.53558 10.1762 5.31445 8.75367L10.8984 4.28917C13.8811 1.90426 18.1189 1.90426 21.1016 4.28917L26.6855 8.75367C28.4644 10.1762 29.5 12.3301 29.5 14.6071V21.99C29.5 26.13 26.1421 29.4861 22 29.4861H18.54C17.7117 29.486 17.04 28.8148 17.04 27.9869C17.04 27.159 17.7117 26.4878 18.54 26.4877H22C24.4853 26.4877 26.5 24.474 26.5 21.99Z" fill="currentColor"/>
<path d="M4.33307 22.0502C5.86239 22.1496 7.23126 22.7358 8.24881 23.7527C9.26637 24.7697 9.85273 26.1379 9.95219 27.6665L9.96532 27.9739L9.96094 28.1271C9.90127 28.8811 9.27838 29.4828 8.50548 29.5001C7.73254 29.517 7.08322 28.9434 6.99024 28.1926L6.97856 28.0411L6.95668 27.6882C6.87132 26.8945 6.56088 26.287 6.13709 25.8634C5.71328 25.4399 5.10535 25.1295 4.31119 25.0442L3.95826 25.0223L3.80659 25.0107C3.05548 24.9175 2.48126 24.2688 2.49842 23.4961C2.51697 22.6725 3.20116 22.019 4.02534 22.0371L4.33307 22.0502Z" fill="currentColor"/>
<path d="M4.71633 17.3481C5.8309 17.4055 6.89158 17.6168 7.87954 17.9647L8.41915 18.1716C11.0666 19.2736 13.074 21.39 14.0383 24.1188L14.1797 24.5473C14.4452 25.4124 14.6059 26.3283 14.6552 27.2832L14.6712 27.7643L14.6654 27.9173C14.5976 28.6706 13.9683 29.2653 13.1953 29.2744C12.4226 29.2832 11.7802 28.7036 11.6947 27.9524L11.6845 27.7992L11.6728 27.4377C11.6359 26.721 11.5162 26.0474 11.3242 25.422L11.2221 25.1128C10.4946 23.0541 8.94975 21.5085 6.88785 20.7793C6.17729 20.5292 5.39856 20.3734 4.56173 20.3304L4.20005 20.3187L4.04694 20.3086C3.29535 20.2228 2.71512 19.5811 2.72417 18.8087C2.734 17.9846 3.4107 17.3241 4.23506 17.3335L4.71633 17.3481Z" fill="currentColor"/>
</svg>
