<svg viewBox="0 0 24 24" fill="none" xmlns="http://www.w3.org/2000/svg">
<path d="M12 9.48496C13.274 8.70207 14.9502 8.87378 16.0381 9.96543L16.1562 10.0895C16.7258 10.7237 17.0293 11.5564 16.998 12.4127C16.9667 13.2692 16.6029 14.0775 15.9883 14.6686L15.8623 14.7838L13.2793 17.0221C12.591 17.6186 11.5897 17.6563 10.8623 17.1344L10.7207 17.0221L8.1377 14.7838C7.44696 14.1851 7.03538 13.3262 7.00195 12.4127C6.9686 11.4992 7.31668 10.612 7.96191 9.96446L7.96289 9.96348C9.05068 8.87273 10.7266 8.70211 12 9.48496ZM9.37793 11.3766C9.12421 11.6313 8.98789 11.9802 9.00098 12.3395C9.01411 12.6987 9.17568 13.0365 9.44727 13.2721L12 15.485L14.5527 13.2721L14.6494 13.1793C14.8625 12.952 14.9875 12.6538 14.999 12.3395C15.0105 12.0249 14.9071 11.7185 14.7109 11.4762L14.6221 11.3766C14.1768 10.9298 13.4781 10.8775 12.9736 11.2359L12.876 11.3131L12.6543 11.5045C12.302 11.8094 11.7902 11.8281 11.418 11.5611L11.3447 11.5045L11.124 11.3121C10.6159 10.8717 9.85255 10.9003 9.37793 11.3766Z" fill="currentColor"/>
<path d="M8.45996 3.15489C10.6368 1.56303 13.6253 1.61611 15.748 3.31407L19.9355 6.66465L20.1738 6.8668C21.3322 7.90651 22 9.39328 22 10.9596V16.4996L21.9932 16.7828C21.8505 19.595 19.5954 21.8501 16.7832 21.9928L16.5 21.9996H7.5C4.55741 21.9996 2.15422 19.6888 2.00684 16.7828L2 16.4996V10.9596C2.00005 9.28883 2.75982 7.70837 4.06445 6.66465L8.25195 3.31407L8.45996 3.15489ZM14.499 4.87657C13.0837 3.74439 11.0909 3.70859 9.63965 4.77012L9.50098 4.87657L5.31348 8.22617C4.48327 8.89035 4.00005 9.89639 4 10.9596V16.4996L4.00488 16.6793C4.09842 18.5288 5.62727 19.9996 7.5 19.9996H16.5L16.6797 19.9947C18.4696 19.9042 19.9046 18.4693 19.9951 16.6793L20 16.4996V10.9596L19.9941 10.7604C19.9416 9.83753 19.5258 8.97251 18.8379 8.35508L18.6865 8.22617L14.499 4.87657Z" fill="currentColor"/>
</svg>
