<svg viewBox="0 0 16 16" fill="none" xmlns="http://www.w3.org/2000/svg">
<path d="M8 6.22666C8.87597 5.71526 10.0105 5.8421 10.751 6.58506L10.9092 6.76084C11.2537 7.18691 11.4352 7.72557 11.415 8.27842C11.3948 8.83158 11.1739 9.35606 10.7988 9.75595L10.6289 9.91904L8.90723 11.4122C8.41895 11.8352 7.70827 11.8616 7.19238 11.4913L7.0918 11.4122L5.37012 9.91904C4.8923 9.50478 4.60811 8.91039 4.58496 8.27842C4.56195 7.64653 4.80183 7.03305 5.24805 6.58506L5.24902 6.58408C5.98954 5.84188 7.1245 5.71509 8 6.22666ZM6.0293 7.36338L6.31055 7.64365L6.30957 7.64463C6.15749 7.79794 6.07616 8.00788 6.08398 8.22373C6.09195 8.44015 6.18889 8.64437 6.35254 8.78623L7.99902 10.213L9.64648 8.78623L9.70508 8.72959C9.83336 8.5927 9.90905 8.413 9.91602 8.22373C9.92288 8.03436 9.86026 7.85011 9.74219 7.7042L9.68848 7.64365C9.43855 7.39301 9.05631 7.34936 8.75977 7.51963L8.63867 7.60556L8.49121 7.73349C8.24462 7.94694 7.89278 7.9737 7.62012 7.81357L7.50879 7.73349L7.36133 7.60556C7.0557 7.34068 6.59607 7.35725 6.31055 7.64365L5.78027 7.11435L6.0293 7.36338Z" fill="currentColor"/>
<path d="M5.59082 2.03623C7.07225 0.952941 9.10617 0.989108 10.5508 2.14463L13.3428 4.37803L13.5049 4.51572C14.2948 5.22462 14.75 6.23872 14.75 7.30674V11.0001C14.75 13.0712 13.0711 14.7501 11 14.7501H5C2.92893 14.7501 1.25 13.0712 1.25 11.0001V7.30674C1.25004 6.16761 1.76772 5.08964 2.65723 4.37803L5.44922 2.14463L5.59082 2.03623ZM9.61426 3.3165C8.7297 2.6089 7.49552 2.56444 6.56738 3.18369L6.38574 3.3165L3.59473 5.5499C3.06104 5.97686 2.75004 6.62328 2.75 7.30674V11.0001C2.75 12.2427 3.75736 13.2501 5 13.2501H11C12.2426 13.2501 13.25 12.2427 13.25 11.0001V7.30674L13.2354 7.05283C13.1782 6.54912 12.9523 6.07916 12.5947 5.71982L12.4053 5.5499L9.61426 3.3165Z" fill="currentColor"/>
</svg>
