<svg viewBox="0 0 17 16" fill="none" xmlns="http://www.w3.org/2000/svg">
<path d="M15.7712 6.83022L15.7552 6.81756L8.4219 0.817558C8.30282 0.720187 8.15373 0.666992 7.9999 0.666992C7.84608 0.666992 7.69699 0.720187 7.5779 0.817558L0.24457 6.81756C0.110787 6.93044 0.0267653 7.0914 0.0106468 7.2657C-0.00547164 7.44 0.0476064 7.61364 0.15842 7.74914C0.269234 7.88463 0.428893 7.97112 0.602922 7.9899C0.776952 8.00869 0.951389 7.95828 1.08857 7.84956L1.9999 7.10422V14.6669C1.9999 14.8437 2.07014 15.0133 2.19517 15.1383C2.32019 15.2633 2.48976 15.3336 2.66657 15.3336H13.3332C13.51 15.3336 13.6796 15.2633 13.8046 15.1383C13.9297 15.0133 13.9999 14.8437 13.9999 14.6669V7.10422L14.9112 7.84956C15.0464 7.9636 15.2213 8.01928 15.3976 8.00434C15.5738 7.9894 15.7369 7.90506 15.8509 7.76989C15.9649 7.63472 16.0206 7.45978 16.0057 7.28356C15.9907 7.10734 15.9064 6.94427 15.7712 6.83022ZM10.7999 9.82089L7.9999 12.6669L5.1999 9.82089C4.85788 9.47196 4.6663 9.00283 4.6663 8.51422C4.6663 8.02562 4.85788 7.55649 5.1999 7.20756C5.38911 7.01437 5.61942 6.8663 5.87371 6.77433C6.12801 6.68237 6.39976 6.64889 6.66877 6.67636C6.93778 6.70384 7.19714 6.79158 7.42759 6.93305C7.65804 7.07453 7.85366 7.26611 7.9999 7.49356C8.14615 7.26611 8.34176 7.07453 8.57221 6.93305C8.80266 6.79158 9.06203 6.70384 9.33104 6.67636C9.60005 6.64889 9.8718 6.68237 10.1261 6.77433C10.3804 6.8663 10.6107 7.01437 10.7999 7.20756C11.1419 7.55649 11.3335 8.02562 11.3335 8.51422C11.3335 9.00283 11.1419 9.47196 10.7999 9.82089Z" fill="currentColor"/>
</svg>
