<svg viewBox="0 0 32 32" fill="none" xmlns="http://www.w3.org/2000/svg">
<path d="M25.8337 15.3354C25.8336 13.5867 24.4146 12.1694 22.6658 12.1694C21.8375 12.1694 21.1659 11.4977 21.1658 10.6694C21.1658 9.29921 20.621 7.98504 19.6521 7.01611C18.6834 6.04739 17.3697 5.50268 15.9998 5.50244C13.7333 5.50891 11.7379 6.99833 11.0867 9.16943C10.9149 9.74151 10.4201 10.1576 9.8269 10.228C7.74264 10.475 6.17093 12.2396 6.16675 14.3384C6.16815 16.6384 8.03342 18.5024 10.3337 18.5024H22.6667L22.8298 18.4985C24.5029 18.4137 25.8337 17.0297 25.8337 15.3354ZM15.9998 25.4976C15.7238 25.4977 15.4998 25.7215 15.4998 25.9976C15.4998 26.2736 15.7238 26.4974 15.9998 26.4976C16.2759 26.4976 16.4997 26.2737 16.4998 25.9976C16.4998 25.7214 16.2759 25.4976 15.9998 25.4976ZM28.8337 15.3354C28.8337 18.7412 26.0725 21.5024 22.6667 21.5024H17.4998V22.8335C18.2278 23.1792 18.817 23.7696 19.1628 24.4976H26.4988C27.327 24.4978 27.9978 25.1693 27.9978 25.9976C27.9978 26.8259 27.3262 27.4976 26.4978 27.4976H19.1628C18.6011 28.6799 17.3959 29.4976 15.9998 29.4976C14.6038 29.4974 13.3994 28.6797 12.8376 27.4976H5.50464C4.67627 27.4975 4.00468 26.8259 4.00464 25.9976C4.00464 25.1692 4.67624 24.4976 5.50464 24.4976H12.8376C13.1834 23.7699 13.7721 23.1802 14.4998 22.8345V21.5024H10.3337C6.3757 21.5024 3.16675 18.2935 3.16675 14.3354V14.3325L3.17554 13.9956C3.32856 10.8475 5.52694 8.19385 8.53491 7.42334C9.80573 4.47118 12.7219 2.51031 15.9949 2.50244H15.9988C18.1645 2.50244 20.2417 3.36272 21.7732 4.89404C22.9845 6.10533 23.7735 7.65878 24.0515 9.32666C26.7902 9.95521 28.8336 12.4061 28.8337 15.3354Z" fill="currentColor"/>
</svg>
