<svg viewBox="0 0 24 24" fill="none" xmlns="http://www.w3.org/2000/svg">
<path d="M19.5 11.0254C19.5 9.64468 18.3807 8.52539 17 8.52539C16.4477 8.52539 16 8.07768 16 7.52539C16 6.46498 15.5776 5.44773 14.8271 4.69727C14.0772 3.94736 13.0605 3.52563 12 3.52539C10.2449 3.53016 8.69964 4.68308 8.19531 6.36426C8.08088 6.74576 7.75096 7.02331 7.35547 7.07031C5.72938 7.263 4.50315 8.63988 4.5 10.2773C4.50106 12.0714 5.95573 13.5254 7.75 13.5254H17C18.3807 13.5254 19.5 12.4061 19.5 11.0254ZM12 19.5059C11.7239 19.5059 11.5 19.7297 11.5 20.0059C11.5002 20.2818 11.724 20.5059 12 20.5059C12.276 20.5059 12.4998 20.2818 12.5 20.0059C12.5 19.7297 12.2761 19.5059 12 19.5059ZM21.5 11.0254C21.5 13.5107 19.4853 15.5254 17 15.5254H13V17.7148C13.5765 17.9669 14.0391 18.4293 14.291 19.0059H20C20.5523 19.0059 21 19.4536 21 20.0059C20.9998 20.558 20.5522 21.0059 20 21.0059H14.29C13.904 21.8883 13.0248 22.5059 12 22.5059C10.9752 22.5059 10.096 21.8883 9.70996 21.0059H4C3.44784 21.0059 3.0002 20.558 3 20.0059C3 19.4536 3.44772 19.0059 4 19.0059H9.70898C9.9609 18.4293 10.4235 17.9669 11 17.7148V15.5254H7.75C4.85051 15.5254 2.5 13.1749 2.5 10.2754V10.2734L2.50586 10.0264C2.61896 7.69958 4.25826 5.74257 6.49219 5.19824C7.41252 2.99736 9.5713 1.53109 11.9971 1.52539H11.999C13.5903 1.52539 15.117 2.15798 16.2422 3.2832C17.1518 4.19296 17.739 5.36511 17.9307 6.62207C19.9694 7.05081 21.5 8.8592 21.5 11.0254Z" fill="currentColor"/>
</svg>
