<svg viewBox="0 0 16 16" fill="none" xmlns="http://www.w3.org/2000/svg">
<path d="M12.9163 7.41504C12.9163 6.54059 12.2077 5.83105 11.3333 5.83105C10.919 5.83105 10.5833 5.49527 10.5833 5.08105C10.5832 4.39651 10.3109 3.73948 9.82642 3.25488C9.34195 2.77041 8.68441 2.49805 7.99927 2.49805C6.86633 2.50151 5.86884 3.24581 5.54321 4.33105C5.45739 4.61719 5.20996 4.82511 4.91333 4.86035C3.87119 4.98384 3.08534 5.86661 3.08325 6.91602C3.08396 8.0659 4.01625 8.99787 5.16626 8.99805H11.3333C12.2076 8.99805 12.9161 8.28934 12.9163 7.41504ZM8.00024 13.002C7.86217 13.002 7.75024 13.1139 7.75024 13.252C7.75046 13.3898 7.86231 13.502 8.00024 13.502C8.13804 13.5018 8.25003 13.3897 8.25024 13.252C8.25024 13.114 8.13818 13.0021 8.00024 13.002ZM14.4163 7.41504C14.4161 9.06472 13.1207 10.4118 11.4915 10.4941L11.3333 10.498H8.75024V11.6719C9.11025 11.8432 9.40109 12.1334 9.57446 12.4922H13.2502C13.6643 12.4924 14.0002 12.8281 14.0002 13.2422C14 13.6561 13.6642 13.992 13.2502 13.9922H9.58325C9.30415 14.5878 8.70149 15.0018 8.00024 15.002C7.29882 15.002 6.69538 14.588 6.41626 13.9922H2.73462C2.32054 13.9922 1.98484 13.6562 1.98462 13.2422C1.98462 12.828 2.32041 12.4922 2.73462 12.4922H6.42505C6.59849 12.1331 6.88997 11.8432 7.25024 11.6719V10.498H5.16626C3.1875 10.4979 1.58343 8.8938 1.58325 6.91504V6.91309L1.58716 6.74414C1.6639 5.16945 2.7647 3.84242 4.26978 3.45801C4.90548 1.98265 6.36134 1.00199 7.99731 0.998047H7.99927C9.08223 0.998047 10.1212 1.42856 10.887 2.19434C11.4923 2.79976 11.8864 3.5762 12.0256 4.41016C13.395 4.72444 14.4163 5.95028 14.4163 7.41504Z" fill="currentColor"/>
</svg>
