<svg viewBox="0 0 24 24" fill="none" xmlns="http://www.w3.org/2000/svg">
<path d="M13.957 13.9824C14.6279 13.9824 15.2722 14.2052 15.7969 14.6074L16.0137 14.79L16.1338 14.9082C16.3677 15.1501 16.5613 15.43 16.7041 15.7383L16.7715 15.8945L16.8037 15.9912C16.9417 16.4788 16.6911 17.0016 16.21 17.1924C15.7286 17.3827 15.1873 17.1735 14.9541 16.7236L14.9111 16.6308L14.8643 16.5283C14.811 16.4286 14.74 16.3372 14.6543 16.2578C14.4617 16.0799 14.2139 15.9824 13.957 15.9824H10.0439C9.78629 15.9825 9.53696 16.0799 9.34473 16.2578L9.34277 16.2588C9.26003 16.3351 9.18999 16.4267 9.13574 16.5283L9.08691 16.6338C8.88186 17.1462 8.29978 17.3961 7.78711 17.1914C7.27452 16.9865 7.02502 16.4043 7.22949 15.8916L7.2959 15.7373C7.46153 15.3808 7.69584 15.0579 7.9873 14.7891C8.5458 14.2726 9.27864 13.9825 10.0439 13.9824H13.957Z" fill="currentColor"/>
<path d="M12.1611 6.583C13.8169 6.66682 15.1337 8.03629 15.1338 9.71288C15.1338 11.4435 13.7306 12.8466 12 12.8467C10.2694 12.8465 8.86624 11.4435 8.86621 9.71288C8.86633 7.98236 10.2695 6.57921 12 6.57909L12.1611 6.583ZM12 8.57909C11.374 8.57921 10.8663 9.08693 10.8662 9.71288C10.8662 10.3389 11.374 10.8465 12 10.8467C12.626 10.8466 13.1338 10.3389 13.1338 9.71288C13.1337 9.08689 12.626 8.57915 12 8.57909Z" fill="currentColor"/>
<path d="M9.6377 2.8496C11.2315 2.06019 13.1259 2.11625 14.6768 3.01854L18.998 5.53417L19.2979 5.72167C20.758 6.70623 21.6434 8.35751 21.6436 10.1338V14.707C21.6435 16.6016 20.6354 18.3526 18.999 19.3057L14.6777 21.8213C13.0233 22.7839 10.9787 22.7838 9.32422 21.8213L5.00195 19.3066C3.3644 18.3536 2.35649 16.6017 2.35645 14.707V10.1338C2.3566 8.23923 3.36454 6.48718 5.00098 5.53417L9.32227 3.01854L9.6377 2.8496ZM13.6709 4.74706C12.6384 4.14637 11.3607 4.1455 10.3281 4.74608L10.3291 4.74706L6.00684 7.26268C4.9853 7.85772 4.3566 8.95164 4.35645 10.1338V14.707C4.35649 15.8891 4.98548 16.982 6.00781 17.5771L10.3301 20.0928C11.3627 20.6936 12.6382 20.6934 13.6709 20.0928L17.9932 17.5771C19.0146 16.982 19.6435 15.8891 19.6436 14.707V10.1338C19.6434 9.02558 19.0912 7.99459 18.1797 7.37987L17.9922 7.26268L13.6709 4.74706Z" fill="currentColor"/>
</svg>
