<svg viewBox="0 0 32 32" fill="none" xmlns="http://www.w3.org/2000/svg">
<path d="M23.2598 16.083C26.568 16.0833 29.2498 18.7659 29.25 22.0742C29.2498 25.3825 26.568 28.0642 23.2598 28.0645C22.0576 28.0645 20.9392 27.7091 20.001 27.0996L18.2168 28.8848L16.4492 27.1162L18.2324 25.332C17.6233 24.3943 17.2686 23.2757 17.2686 22.0742C17.2687 18.7658 19.9513 16.083 23.2598 16.083ZM23.2598 18.583C21.332 18.583 19.7687 20.1465 19.7686 22.0742C19.7688 24.0019 21.332 25.5645 23.2598 25.5645C25.1873 25.5642 26.7498 24.0017 26.75 22.0742C26.7498 20.1466 25.1873 18.5833 23.2598 18.583Z" fill="currentColor"/>
<path d="M14.667 21.25H9.33301C7.0781 21.2502 5.25018 23.0781 5.25 25.333V26.667H2.75V25.333C2.75018 21.6974 5.69739 18.7502 9.33301 18.75H14.667V21.25Z" fill="currentColor"/>
<path d="M14.666 2.75C18.3018 2.75 21.2498 5.69728 21.25 9.33301C21.25 12.9689 18.3019 15.917 14.666 15.917C11.0304 15.9167 8.08301 12.9687 8.08301 9.33301C8.08318 5.69747 11.0305 2.75031 14.666 2.75ZM14.666 5.25C12.4112 5.25031 10.5832 7.07818 10.583 9.33301C10.583 11.588 12.4111 13.4167 14.666 13.417C16.9212 13.417 18.75 11.5882 18.75 9.33301C18.7498 7.07799 16.9211 5.25 14.666 5.25Z" fill="currentColor"/>
</svg>
