<svg viewBox="0 0 32 32" fill="none" xmlns="http://www.w3.org/2000/svg">
<path d="M12.4638 10.2149C14.4166 8.26208 17.5832 8.26224 19.5361 10.2149L19.7129 10.4014C21.4865 12.3644 21.4279 15.3953 19.5361 17.2871C17.5833 19.2397 14.4167 19.2396 12.4638 17.2871C10.5113 15.3343 10.5112 12.1677 12.4638 10.2149ZM17.5781 11.8106C16.5959 11.0098 15.1468 11.067 14.2314 11.9825C13.2552 12.9589 13.2553 14.5421 14.2314 15.5186C15.2079 16.4951 16.791 16.495 17.7675 15.5186C18.6832 14.603 18.7408 13.1541 17.9394 12.1719L17.7675 11.9825L17.5781 11.8106Z" fill="currentColor"/>
<path d="M6.87594 6.39164C12.0669 1.45759 20.2757 1.53744 25.3691 6.63089L25.6074 6.87601C30.4636 11.9846 30.4636 20.0155 25.6074 25.1241L25.3691 25.3692C20.2755 30.4628 12.0669 30.542 6.87594 25.6075L6.63083 25.3692C1.4564 20.1947 1.45638 11.8053 6.63083 6.63089L6.87594 6.39164ZM16 23.25C13.8851 23.25 11.939 23.9642 10.3798 25.1641C13.8168 27.2759 18.182 27.2762 21.6191 25.1651C20.06 23.9656 18.115 23.2501 16 23.25ZM23.2002 8.01761C19.1164 4.3278 12.8836 4.3278 8.79977 8.01761L8.3984 8.39847C4.20923 12.5876 4.20075 19.374 8.37204 23.5743C10.4222 21.8179 13.0847 20.75 16 20.75C18.915 20.7501 21.5759 21.8191 23.6259 23.5743L23.9824 23.2002C27.6722 19.1164 27.6722 12.8837 23.9824 8.79984L23.6015 8.39847L23.2002 8.01761Z" fill="currentColor"/>
</svg>
