<svg viewBox="0 0 24 24" fill="none" xmlns="http://www.w3.org/2000/svg">
<path d="M9.30445 7.61671C10.7935 6.1279 13.207 6.12775 14.696 7.61671L14.8317 7.75831C16.1841 9.25501 16.1383 11.5657 14.696 13.0083C13.207 14.4973 10.7935 14.4972 9.30445 13.0083C7.81541 11.5192 7.81541 9.10576 9.30445 7.61671ZM13.1443 8.90576C12.4323 8.3253 11.3822 8.36732 10.7185 9.03076C10.0105 9.73876 10.0105 10.8862 10.7185 11.5942C11.4265 12.3022 12.574 12.3022 13.2819 11.5942C13.9454 10.9305 13.9874 9.88045 13.4069 9.16845L13.2819 9.03076L13.1443 8.90576Z" fill="currentColor"/>
<path d="M5.30157 4.57378C9.22697 1.02703 15.2877 1.14528 19.0709 4.92827L19.4254 5.30131C22.8579 9.1002 22.8579 14.8988 19.4254 18.6976L19.0709 19.0707C15.2877 22.8538 9.22702 22.972 5.30157 19.4252L4.92853 19.0707C1.02356 15.1655 1.02344 8.83338 4.92853 4.92827L5.30157 4.57378ZM11.9997 17.4994C10.4604 17.4995 9.0417 18.0087 7.89529 18.8676C10.4147 20.3759 13.5846 20.3764 16.1042 18.8685C14.9576 18.01 13.5393 17.4994 11.9997 17.4994ZM17.3581 6.05912C14.319 3.31337 9.68044 3.31323 6.6414 6.05912L6.34257 6.34232C3.23858 9.44634 3.21993 14.4664 6.28398 17.5951C7.82631 16.2915 9.81913 15.4995 11.9997 15.4994C14.1803 15.4994 16.1723 16.2924 17.7145 17.5951L17.9401 17.3578C20.686 14.3187 20.686 9.68025 17.9401 6.64114L17.6569 6.34232L17.3581 6.05912Z" fill="currentColor"/>
</svg>
