<svg viewBox="0 0 16 16" fill="none" xmlns="http://www.w3.org/2000/svg">
<path d="M9.30566 9.23798C9.83761 9.23817 10.3461 9.43996 10.7334 9.79852L10.8955 9.96649C10.9972 10.0841 11.0864 10.2132 11.1602 10.3513L11.2588 10.5651L11.2832 10.6384C11.3864 11.0038 11.1984 11.3957 10.8379 11.5388C10.4769 11.6817 10.0715 11.5245 9.89648 11.1872L9.86426 11.1179L9.80176 11.0016L9.71387 10.8991C9.60088 10.7946 9.45559 10.7382 9.30566 10.738H6.69629C6.54581 10.738 6.39998 10.7948 6.28711 10.8991L6.28613 10.9001C6.25389 10.9298 6.22444 10.9639 6.19922 11.0007L6.13574 11.1198C5.98209 11.5042 5.54561 11.691 5.16113 11.5378C4.77661 11.3841 4.58959 10.9478 4.74316 10.5632L4.8418 10.3513C4.95155 10.1458 5.09562 9.95921 5.26855 9.7995L5.26758 9.79852C5.6553 9.43967 6.16455 9.23798 6.69629 9.23798H9.30566Z" fill="currentColor"/>
<path d="M8.22168 4.31317C9.31727 4.4243 10.1728 5.35042 10.1729 6.47528C10.1728 7.67496 9.19968 8.64804 8 8.64813C6.80035 8.648 5.82725 7.67494 5.82715 6.47528C5.82724 5.27562 6.80035 4.30256 8 4.30243L8.22168 4.31317ZM8 5.80243C7.62878 5.80256 7.32724 6.10405 7.32715 6.47528C7.32725 6.84651 7.62878 7.148 8 7.14813C8.37125 7.14804 8.67275 6.84653 8.67285 6.47528C8.67276 6.10403 8.37125 5.80253 8 5.80243Z" fill="currentColor"/>
<path d="M6.3877 1.82489C7.47512 1.28622 8.76795 1.32456 9.82617 1.94013L12.707 3.61786L12.9111 3.74579C13.9074 4.41757 14.5116 5.54352 14.5117 6.75556V9.80438C14.5117 11.0164 13.9077 12.1423 12.9121 12.8141L12.708 12.9431L9.82617 14.6198C8.76801 15.2353 7.47604 15.2736 6.38867 14.735L6.17383 14.6198L3.29199 12.9431C2.17487 12.2927 1.4873 11.0971 1.4873 9.80438V6.75556C1.48741 5.46311 2.17485 4.26821 3.29102 3.61786L6.17285 1.94013L6.3877 1.82489ZM9.07129 3.237C8.45028 2.8759 7.69185 2.85356 7.05371 3.16962L6.92773 3.237L4.0459 4.91376C3.3907 5.29558 2.98741 5.99729 2.9873 6.75556V9.80438C2.9873 10.5628 3.391 11.2643 4.04688 11.6462L6.92773 13.3229L7.05371 13.3913C7.69201 13.7075 8.45111 13.6843 9.07227 13.3229L11.9531 11.6462L12.0732 11.571C12.6576 11.1765 13.0117 10.5154 13.0117 9.80438V6.75556C13.0116 6.04441 12.6573 5.38332 12.0723 4.98895L11.9521 4.91376L9.07129 3.237Z" fill="currentColor"/>
</svg>
