<svg viewBox="0 0 16 16" fill="none" xmlns="http://www.w3.org/2000/svg">
<path d="M6.14305 5.01825C7.15013 4.01132 8.77047 3.99615 9.7993 4.96747L9.85594 5.01825L10.0366 5.21845C10.8773 6.24955 10.8169 7.77007 9.85594 8.73114C8.83068 9.7564 7.1683 9.7564 6.14305 8.73114C5.11837 7.70584 5.11799 6.04331 6.14305 5.01825ZM8.71043 6.00165C8.26848 5.6414 7.6165 5.66799 7.20457 6.07978C6.76519 6.51916 6.76535 7.23111 7.20457 7.6706C7.64405 8.10991 8.35598 8.11001 8.79539 7.6706C9.2073 7.25854 9.23312 6.60669 8.87254 6.16474L8.79539 6.07978L8.71043 6.00165Z" fill="currentColor"/>
<path d="M3.47898 2.987C6.12873 0.593341 10.2204 0.672733 12.7739 3.22626L13.0132 3.47821C15.3299 6.04233 15.3296 9.95693 13.0132 12.5212L12.7739 12.7731C10.2203 15.3268 6.1287 15.4064 3.47898 13.0124L3.22703 12.7731C0.590991 10.1371 0.590989 5.86229 3.22703 3.22626L3.47898 2.987ZM7.99949 11.7497C7.03786 11.7498 6.1472 12.0525 5.41551 12.569C7.01384 13.4743 8.9839 13.4748 10.5825 12.57C9.85091 12.0538 8.96101 11.7497 7.99949 11.7497ZM11.5171 4.10126C9.52277 2.29926 6.47834 2.29954 4.48387 4.10126L4.28855 4.28779C2.26964 6.30669 2.23956 9.55926 4.19676 11.6159C5.23058 10.7652 6.5539 10.2498 7.99949 10.2497C9.44515 10.2497 10.7684 10.7656 11.8022 11.6159L11.8989 11.5163C13.7006 9.52186 13.7009 6.47741 11.8989 4.4831L11.7124 4.28779L11.5171 4.10126Z" fill="currentColor"/>
</svg>
