<svg viewBox="0 0 16 16" fill="none" xmlns="http://www.w3.org/2000/svg">
<path d="M11.6299 7.91699C13.3529 7.91726 14.7508 9.31406 14.751 11.0371C14.7508 12.7601 13.3529 14.1579 11.6299 14.1582C11.0402 14.1582 10.4899 13.9914 10.0195 13.707L9.19727 14.5303L8.13672 13.4697L8.95996 12.6455C8.67612 12.1753 8.50982 11.6263 8.50977 11.0371C8.5099 9.31398 9.90675 7.91713 11.6299 7.91699ZM11.6299 9.41699C10.7352 9.41713 10.0099 10.1424 10.0098 11.0371C10.0099 11.9318 10.7352 12.6581 11.6299 12.6582C12.5245 12.6579 13.2508 11.9317 13.251 11.0371C13.2508 10.1425 12.5245 9.41726 11.6299 9.41699Z" fill="currentColor"/>
<path d="M7.33301 10.75H4.66699C3.60845 10.75 2.75 11.6084 2.75 12.667V13.333H1.25V12.667C1.25 10.78 2.78002 9.25 4.66699 9.25H7.33301V10.75Z" fill="currentColor"/>
<path d="M7.33398 1.25C9.2207 1.25031 10.75 2.78021 10.75 4.66699C10.7498 6.55363 9.22059 8.0827 7.33398 8.08301C5.44712 8.08301 3.91717 6.55382 3.91699 4.66699C3.91699 2.78002 5.44701 1.25 7.33398 1.25ZM7.33398 2.75C6.27544 2.75 5.41699 3.60845 5.41699 4.66699C5.41717 5.72539 6.27555 6.58301 7.33398 6.58301C8.39216 6.5827 9.24982 5.7252 9.25 4.66699C9.25 3.60864 8.39227 2.75031 7.33398 2.75Z" fill="currentColor"/>
</svg>
