<svg viewBox="0 0 32 32" fill="none" xmlns="http://www.w3.org/2000/svg">
<path d="M18.6094 18.4757C19.6736 18.4757 20.6899 18.8796 21.4648 19.5968L21.4658 19.5978C21.8656 19.9683 22.1925 20.414 22.4238 20.9132L22.5166 21.131L22.5664 21.2756C22.7736 22.007 22.3967 22.7912 21.6748 23.0773C20.9525 23.3633 20.1408 23.0495 19.791 22.3742L19.7275 22.2345L19.6719 22.1154C19.6098 21.9991 19.5276 21.8914 19.4268 21.798C19.2003 21.5884 18.91 21.4757 18.6094 21.4757H13.3916C13.0903 21.4758 12.7991 21.5899 12.5732 21.799L12.5713 21.8009C12.4747 21.89 12.3919 21.996 12.3281 22.1154L12.2705 22.2394C11.9631 23.0084 11.0905 23.3825 10.3213 23.0754C9.55226 22.768 9.1782 21.8953 9.48535 21.1261L9.57715 20.9113C9.80714 20.4166 10.1321 19.9683 10.5371 19.5949C11.3123 18.8783 12.329 18.4758 13.3916 18.4757H18.6094Z" fill="currentColor"/>
<path d="M16.2246 8.61149C18.5199 8.72834 20.3457 10.627 20.3457 12.9513C20.3453 15.3503 18.4 17.2956 16.001 17.2961C13.6016 17.2961 11.6557 15.3506 11.6553 12.9513C11.6553 10.5517 13.6013 8.60563 16.001 8.60563L16.2246 8.61149ZM16.001 11.6056C15.2582 11.6056 14.6553 12.2085 14.6553 12.9513C14.6557 13.6938 15.2585 14.2961 16.001 14.2961C16.7431 14.2956 17.3453 13.6935 17.3457 12.9513C17.3457 12.2088 16.7434 11.6061 16.001 11.6056Z" fill="currentColor"/>
<path d="M12.5605 3.76286C14.7789 2.57 17.4653 2.60953 19.6523 3.882L25.415 7.23551L25.6221 7.36051C27.7343 8.68556 29.0253 11.0071 29.0254 13.5119V19.6095C29.0252 22.1949 27.65 24.5853 25.417 25.8859L25.416 25.8869L19.6543 29.2404C17.3968 30.5539 14.6063 30.5536 12.3486 29.2404L6.58594 25.8869C4.35119 24.5864 2.97573 22.1952 2.97559 19.6095V13.5119C2.97567 10.9263 4.35074 8.53609 6.58398 7.23551L12.3467 3.882L12.5605 3.76286ZM18.1436 6.47477C16.9013 5.75212 15.384 5.70666 14.1074 6.33903L13.8555 6.47477L8.09375 9.82829C6.78262 10.5919 5.97567 11.9948 5.97559 13.5119V19.6095C5.97573 21.1264 6.78268 22.5295 8.09473 23.2931L13.8574 26.6476C15.1823 27.4183 16.8196 27.4182 18.1445 26.6476L23.9072 23.2931C25.218 22.5295 26.0252 21.1264 26.0254 19.6095V13.5119C26.0253 12.0899 25.316 10.7676 24.1465 9.97868L23.9062 9.82829L18.1436 6.47477Z" fill="currentColor"/>
</svg>
