<svg viewBox="0 0 24 24" fill="none" xmlns="http://www.w3.org/2000/svg">
<path d="M17.4443 12C19.9603 12.0001 22 14.0397 22 16.5557C21.9999 19.0715 19.9602 21.1113 17.4443 21.1113C16.5482 21.1113 15.7134 20.8512 15.0088 20.4043L13.707 21.707L12.293 20.293L13.5947 18.9902C13.1483 18.2859 12.8887 17.4512 12.8887 16.5557C12.8887 14.0398 14.9285 12.0001 17.4443 12ZM17.4443 14C16.0331 14.0001 14.8887 15.1443 14.8887 16.5557C14.8887 17.9669 16.0331 19.1112 17.4443 19.1113C18.8556 19.1113 19.9999 17.967 20 16.5557C20 15.1443 18.8557 14.0001 17.4443 14Z" fill="currentColor"/>
<path d="M11 16H7C5.34315 16 4 17.3431 4 19V20H2V19C2 16.2386 4.23858 14 7 14H11V16Z" fill="currentColor"/>
<path d="M11 2C13.7614 2 16 4.23858 16 7C16 9.76142 13.7614 12 11 12C8.23858 12 6 9.76142 6 7C6 4.23858 8.23858 2 11 2ZM11 4C9.34315 4 8 5.34315 8 7C8 8.65685 9.34315 10 11 10C12.6569 10 14 8.65685 14 7C14 5.34315 12.6569 4 11 4Z" fill="currentColor"/>
</svg>
