<svg viewBox="0 0 24 24" fill="none" xmlns="http://www.w3.org/2000/svg">
<path d="M10.6816 16.2577C12.5277 16.3562 13.9945 17.8815 14 19.7509V20.3817C13.9972 21.2764 13.2726 22.0021 12.3779 22.0048H3.61816C2.72364 22.0019 1.99894 21.2762 1.99609 20.3817V19.7509L2.00098 19.5712C2.09958 17.7253 3.62496 16.2584 5.49414 16.2528H10.502L10.6816 16.2577ZM5.34668 18.2606C4.5893 18.3395 3.9984 18.979 3.99609 19.7567V20.0048H12V19.7567C11.9977 18.9789 11.407 18.3393 10.6494 18.2606L10.4961 18.2528H5.5L5.34668 18.2606Z" fill="currentColor"/>
<path d="M7.45605 5.42468C9.46438 2.55062 13.1113 1.32006 16.4502 2.3905C19.7892 3.46111 22.0413 6.58351 22.0039 10.0897C21.9661 13.5956 19.6479 16.6679 16.2871 17.6669L16.1875 17.6913C15.6896 17.786 15.1906 17.4893 15.043 16.993C14.8861 16.4639 15.1877 15.9072 15.7168 15.7499C18.237 15.0009 19.9755 12.6971 20.0039 10.0682C20.032 7.43935 18.3432 5.0987 15.8398 4.29578C13.3361 3.49309 10.6006 4.41491 9.09473 6.57019C8.77847 7.02269 8.15579 7.13323 7.70312 6.81726C7.2505 6.50098 7.13989 5.87738 7.45605 5.42468Z" fill="currentColor"/>
<path d="M8.01562 8.76843C9.94555 8.7783 11.5037 10.3482 11.499 12.2782C11.494 14.2081 9.92804 15.7703 7.99805 15.7704H7.99609C7.06447 15.7681 6.17097 15.3954 5.51465 14.7343C4.85844 14.0729 4.49236 13.1766 4.49707 12.245V12.243C4.51184 10.3132 6.08581 8.75896 8.01562 8.76843ZM8.00586 10.7684C7.17865 10.7644 6.50367 11.4305 6.49707 12.2577C6.49564 12.6572 6.65318 13.0414 6.93457 13.3251C7.21619 13.6087 7.59937 13.768 7.99902 13.7694C8.82593 13.7689 9.49676 13.1004 9.49902 12.2733C9.50104 11.446 8.8332 10.7728 8.00586 10.7684Z" fill="currentColor"/>
<path d="M14.0439 8.75281C14.3607 8.76349 14.6624 8.89254 14.8867 9.11804C15.1214 9.35422 15.2525 9.67474 15.25 10.0077L15.249 10.0067C15.2461 10.51 14.9423 10.964 14.4766 11.1561C14.0091 11.3487 13.4711 11.2399 13.1143 10.8817C12.7575 10.523 12.6525 9.9842 12.8477 9.51746L12.9326 9.34949C13.1361 9.01538 13.4864 8.79711 13.8779 8.75867C13.9176 8.75377 13.958 8.74998 13.999 8.74988L14.0029 8.75085L14.0068 8.74988L14.0439 8.75281Z" fill="currentColor"/>
<path d="M17.1562 8.75281C17.4731 8.76347 17.7746 8.89252 17.999 9.11804C18.2337 9.35423 18.3648 9.67471 18.3623 10.0077L18.3613 10.0067C18.3584 10.51 18.0546 10.964 17.5889 11.1561C17.1214 11.3487 16.5834 11.2399 16.2266 10.8817C15.8698 10.523 15.7648 9.98419 15.96 9.51746L16.0449 9.34949C16.2484 9.0154 16.5988 8.79713 16.9902 8.75867C17.0299 8.75377 17.0703 8.74998 17.1113 8.74988L17.1152 8.75085L17.1191 8.74988L17.1562 8.75281Z" fill="currentColor"/>
</svg>
