<svg viewBox="0 0 32 32" fill="none" xmlns="http://www.w3.org/2000/svg">
<path d="M14.252 21.5101C16.8007 21.6464 18.8263 23.7524 18.834 26.3334V27.1761C18.83 28.4607 17.7894 29.5013 16.5049 29.5052H4.82422C3.53961 29.5013 2.49907 28.4607 2.49512 27.1761V26.3334L2.50195 26.0853C2.63816 23.5365 4.74417 21.511 7.3252 21.5033H14.0039L14.252 21.5101ZM7.14648 24.513C6.2204 24.6095 5.49803 25.3912 5.49512 26.3421V26.5052H15.834V26.3421C15.8311 25.3912 15.1086 24.6096 14.1826 24.513L13.9951 24.5033H7.33398L7.14648 24.513Z" fill="currentColor"/>
<path d="M9.80371 7.13805C12.5231 3.24564 17.4618 1.57934 21.9834 3.02867C26.5051 4.47836 29.5546 8.70537 29.5039 13.4535C29.4531 18.2016 26.3142 22.3624 21.7627 23.7152L21.6133 23.7523C20.8667 23.8938 20.1188 23.4495 19.8975 22.7054C19.6616 21.9115 20.1144 21.0764 20.9082 20.8402L21.2129 20.7425C24.3377 19.674 26.4683 16.7466 26.5039 13.4213C26.5404 9.98896 24.336 6.93307 21.0674 5.88512C17.7988 4.83762 14.2285 6.04214 12.2627 8.85582C11.7882 9.53467 10.8528 9.70032 10.1738 9.22594C9.4955 8.75142 9.3298 7.81687 9.80371 7.13805Z" fill="currentColor"/>
<path d="M10.6885 11.5238C13.3535 11.5374 15.5044 13.7055 15.498 16.3705C15.4913 19.0357 13.3294 21.1936 10.6641 21.1937H10.6602C9.37365 21.1905 8.14063 20.6752 7.23438 19.7621C6.32824 18.8488 5.8225 17.612 5.8291 16.3255V16.3216C5.84968 13.6568 8.02355 11.5106 10.6885 11.5238ZM10.6729 14.5238C9.66181 14.5191 8.837 15.334 8.8291 16.3451C8.82769 16.8331 9.02058 17.3023 9.36426 17.6488C9.70869 17.9957 10.1772 18.1911 10.666 18.1927C11.6763 18.1916 12.4962 17.3742 12.499 16.3636C12.5014 15.3523 11.6842 14.5289 10.6729 14.5238Z" fill="currentColor"/>
<path d="M18.7373 11.5023C19.1391 11.5173 19.5241 11.6621 19.833 11.9164L19.9678 12.0384L20.0898 12.1742C20.3549 12.5 20.5006 12.9089 20.5 13.3324L20.4951 13.4711C20.4432 14.1571 20.0093 14.7612 19.3662 15.0267C18.68 15.3098 17.8908 15.1515 17.3672 14.6254C16.8437 14.099 16.6887 13.3082 16.9756 12.6234L17.0342 12.4984C17.3453 11.8889 17.9737 11.4991 18.665 11.4984L18.6699 11.4994C18.6721 11.4993 18.6746 11.4984 18.6768 11.4984L18.7373 11.5023Z" fill="currentColor"/>
<path d="M22.8867 11.5023C23.2886 11.5172 23.6735 11.6621 23.9824 11.9164L24.1172 12.0384L24.2393 12.1742C24.5044 12.5 24.65 12.9089 24.6494 13.3324L24.6445 13.4711C24.5926 14.1571 24.1589 14.7613 23.5156 15.0267C22.8294 15.3097 22.0401 15.1516 21.5166 14.6254C20.9932 14.099 20.8382 13.3081 21.125 12.6234L21.1836 12.4984C21.4947 11.8889 22.1232 11.4992 22.8145 11.4984L22.8193 11.4994C22.8215 11.4994 22.824 11.4985 22.8262 11.4984L22.8867 11.5023Z" fill="currentColor"/>
</svg>
