<svg viewBox="0 0 16 16" fill="none" xmlns="http://www.w3.org/2000/svg">
<path d="M7.24902 10.7647C8.46495 10.8916 9.41425 11.9184 9.41797 13.167V13.5879C9.41588 14.23 8.89491 14.7507 8.25293 14.753H2.41309C1.77079 14.7511 1.25014 14.2302 1.24805 13.5879V13.167L1.26074 12.921C1.38717 11.7045 2.41402 10.7557 3.66309 10.752H7.00195L7.24902 10.7647ZM3.57324 12.2569C3.11036 12.3053 2.74944 12.6965 2.74805 13.1719V13.253H7.91797V13.1719L7.91211 13.0772C7.86692 12.6454 7.52358 12.3021 7.0918 12.2569L6.99805 12.252H3.66797L3.57324 12.2569Z" fill="currentColor"/>
<path d="M5.0332 3.3897C6.41645 1.57227 8.80305 0.812533 10.9932 1.5147C13.2534 2.23986 14.7783 4.3539 14.7529 6.72759C14.7272 9.10121 13.1572 11.182 10.8818 11.8585C10.485 11.9761 10.0673 11.7492 9.94922 11.3526C9.8315 10.9557 10.0582 10.5379 10.4551 10.42C12.0997 9.93082 13.2344 8.42678 13.2529 6.71099C13.2711 4.99527 12.1688 3.4677 10.5352 2.94341C8.90106 2.41951 7.11589 3.02136 6.13281 4.42779L6.08496 4.48931C5.83697 4.7768 5.40601 4.83516 5.08789 4.61333C4.74864 4.37616 4.66551 3.90884 4.90234 3.56939L5.0332 3.3897Z" fill="currentColor"/>
<path d="M5.34473 5.76275C6.67715 5.76976 7.75334 6.85406 7.75 8.18658C7.74615 9.51867 6.66427 10.5975 5.33203 10.5977C4.68901 10.5961 4.07127 10.3381 3.61816 9.88189C3.16509 9.42537 2.91188 8.80627 2.91504 8.16314C2.9252 6.83057 4.01216 5.75612 5.34473 5.76275ZM5.33691 7.26275C4.8314 7.26036 4.41904 7.66739 4.41504 8.1729C4.41435 8.41697 4.51067 8.652 4.68262 8.82525C4.8547 8.99836 5.08894 9.09579 5.33301 9.09673C5.83801 9.09623 6.2483 8.68775 6.25 8.18267C6.25127 7.67706 5.84249 7.26552 5.33691 7.26275Z" fill="currentColor"/>
<path d="M9.19629 6.00201C9.36019 6.00826 9.51744 6.06735 9.64355 6.17095L9.69922 6.22076L9.75 6.27642C9.85811 6.40953 9.91713 6.57715 9.91699 6.75005C9.91684 7.05337 9.73429 7.32736 9.4541 7.44341C9.17352 7.55919 8.84999 7.49428 8.63574 7.27935C8.42173 7.06406 8.35845 6.74103 8.47559 6.46099C8.58166 6.2078 8.81659 6.03665 9.08496 6.00689C9.11162 6.00327 9.13936 6.00012 9.16699 6.00005L9.16895 6.00103L9.17188 6.00005C9.17994 6.00016 9.1883 6.00163 9.19629 6.00201Z" fill="currentColor"/>
<path d="M11.2715 6.00201C11.4354 6.00826 11.5926 6.06729 11.7188 6.17095L11.7744 6.22076L11.8242 6.27642C11.9325 6.40959 11.9923 6.577 11.9922 6.75005C11.992 7.0535 11.8087 7.32745 11.5283 7.44341C11.2477 7.55908 10.9241 7.49439 10.71 7.27935C10.496 7.06404 10.4336 6.74099 10.5508 6.46099C10.6568 6.20792 10.891 6.03677 11.1592 6.00689C11.186 6.00325 11.2144 6.00012 11.2422 6.00005L11.2441 6.00103L11.2471 6.00005C11.2551 6.00018 11.2635 6.00164 11.2715 6.00201Z" fill="currentColor"/>
</svg>
