<svg viewBox="0 0 16 16" fill="none" xmlns="http://www.w3.org/2000/svg">
<path d="M10.084 4.83789C10.2473 4.85442 10.4025 4.91922 10.5293 5.02344L10.5908 5.0791L10.6455 5.14062C10.7415 5.25833 10.8017 5.39996 10.8232 5.5498C10.8294 5.5886 10.8341 5.62842 10.834 5.66895L10.8301 5.74512C10.8272 5.77336 10.8214 5.80091 10.8154 5.82812C10.8048 5.88232 10.7909 5.93605 10.7695 5.9873C10.7275 6.08823 10.6663 6.18061 10.5889 6.25781C10.5114 6.33501 10.4185 6.39582 10.3174 6.4375C10.2164 6.47905 10.1082 6.50014 9.99902 6.5C9.88968 6.49979 9.78062 6.47851 9.67969 6.43652C9.57885 6.3945 9.4873 6.33226 9.41016 6.25488C9.33303 6.17744 9.27115 6.08539 9.22949 5.98438C9.18798 5.88349 9.16687 5.77511 9.16699 5.66602L9.1709 5.58887C9.18909 5.39611 9.27391 5.21495 9.41211 5.07715L9.47363 5.02148C9.62212 4.90038 9.80867 4.83361 10.002 4.83398L10.084 4.83789Z" fill="currentColor"/>
<path d="M8 0.916992C11.9118 0.917124 15.0838 4.08821 15.084 8C15.0839 9.39475 14.6777 10.6937 13.9814 11.79C13.9753 11.7999 13.9695 11.8097 13.9629 11.8193C12.7033 13.7816 10.5047 15.0839 8 15.084C4.08821 15.0838 0.917124 11.9118 0.916992 8C0.917168 4.08824 4.08824 0.917168 8 0.916992ZM10.001 9.41699C9.8498 9.41699 9.70387 9.47479 9.59375 9.57812L5.90332 13.1748C6.55078 13.4375 7.25831 13.5839 8 13.584C9.76539 13.5839 11.3381 12.7628 12.3613 11.4834L10.4121 9.58203L10.3223 9.51172C10.259 9.47097 10.1881 9.4422 10.1143 9.42773L10.001 9.41699ZM5 8.08301C4.84878 8.08307 4.70287 8.14069 4.59277 8.24414L2.78809 10.0029C3.15304 10.952 3.76913 11.7759 4.55566 12.3936L7.1084 9.90332L5.41113 8.24805L5.32227 8.17773C5.22698 8.11632 5.11494 8.08304 5 8.08301ZM8 2.41699C4.91667 2.41717 2.41717 4.91667 2.41699 8C2.417 8.08838 2.41879 8.17629 2.42285 8.26367L3.5459 7.16992L3.5498 7.16602L3.70215 7.0332C4.07012 6.74276 4.52732 6.58306 5 6.58301C5.47268 6.58304 5.92987 6.74278 6.29785 7.0332L6.4502 7.16602L6.4541 7.16992L8.18359 8.85645L8.5459 8.50391L8.55078 8.5L8.70215 8.36719C9.07023 8.07657 9.52811 7.91699 10.001 7.91699L10.2021 7.92676C10.6021 7.96552 10.9835 8.11816 11.2988 8.36719L11.4502 8.5L11.4551 8.50391L13.1504 10.1572C13.4288 9.4934 13.584 8.76485 13.584 8C13.5838 4.91664 11.0834 2.41712 8 2.41699Z" fill="currentColor"/>
</svg>
