<svg viewBox="0 0 32 32" fill="none" xmlns="http://www.w3.org/2000/svg">
<path d="M20.1426 9.92383C20.4203 9.95197 20.6838 10.062 20.8994 10.2393L21.0029 10.334L21.0977 10.4375C21.3026 10.6886 21.4154 11.0042 21.416 11.3311C21.416 11.3327 21.416 11.3343 21.416 11.3359L21.4092 11.4746C21.3953 11.613 21.3613 11.7491 21.3076 11.8779C21.2361 12.0496 21.1309 12.2056 20.999 12.3369C20.8673 12.4681 20.711 12.5727 20.5391 12.6436C20.3672 12.7143 20.1829 12.7503 19.9971 12.75C19.8112 12.7496 19.6267 12.713 19.4551 12.6416C19.2835 12.5701 19.1273 12.4647 18.9961 12.333C18.8649 12.2012 18.7603 12.0449 18.6895 11.873C18.6187 11.7013 18.5827 11.5168 18.583 11.3311L18.5898 11.2031C18.59 11.2018 18.5897 11.2005 18.5898 11.1992L18.5908 11.1914C18.6236 10.8671 18.7671 10.5622 19 10.3301L19.1035 10.2363C19.3559 10.0302 19.6733 9.91652 20.002 9.91699L20.1426 9.92383Z" fill="currentColor"/>
<path d="M16 2.08301C23.6857 2.08318 29.9159 8.31426 29.916 16C29.916 18.7385 29.1237 21.2914 27.7578 23.4443C27.7488 23.459 27.7401 23.4739 27.7305 23.4883C25.2581 27.3533 20.9287 29.9159 16 29.916C8.31426 29.9159 2.08318 23.6857 2.08301 16C2.08314 8.31423 8.31423 2.08314 16 2.08301ZM20 18.583C19.6288 18.583 19.2718 18.7265 19.0039 18.9834L11.3643 26.4326C12.7812 27.0631 14.3491 27.416 16 27.416C19.6916 27.4159 22.9719 25.6623 25.0586 22.9443L20.9961 18.9834L20.8916 18.8926C20.6749 18.7215 20.4134 18.6164 20.1387 18.5898L20 18.583ZM10 15.917C9.62893 15.9171 9.27172 16.0605 9.00391 16.3174L5.2832 19.9443C6.04703 22.0187 7.3969 23.8088 9.13086 25.1172L14.5762 19.8076L10.9883 16.3105C10.7214 16.0583 10.3675 15.9171 10 15.917ZM16 4.58301C9.69494 4.58314 4.58314 9.69494 4.58301 16C4.58302 16.3656 4.60213 16.7272 4.63574 17.084L7.26562 14.5205L7.27246 14.5137L7.41309 14.3857C8.12845 13.7627 9.0471 13.4171 10 13.417C10.9528 13.4171 11.8706 13.7628 12.5859 14.3857L12.7266 14.5137L12.7344 14.5205L12.7334 14.5215L16.3662 18.0625L17.2656 17.1865L17.2734 17.1797L17.4131 17.0518C18.1285 16.4286 19.047 16.083 20 16.083L20.1904 16.0879C21.0748 16.1307 21.9193 16.4702 22.5869 17.0518L22.7275 17.1797L22.7344 17.1865L26.3828 20.7441C27.0442 19.299 27.416 17.6932 27.416 16C27.4159 9.69497 22.305 4.58318 16 4.58301Z" fill="currentColor"/>
</svg>
