<svg viewBox="0 0 24 24" fill="none" xmlns="http://www.w3.org/2000/svg">
<path d="M15.1133 7.38086C15.3339 7.40319 15.5435 7.49 15.7148 7.63086L15.7969 7.70605L15.8721 7.78906C16.0354 7.98938 16.1254 8.24124 16.125 8.50195C16.1249 8.5757 16.1159 8.64762 16.1006 8.7168C16.086 8.79036 16.0671 8.86304 16.0381 8.93262C15.9813 9.06887 15.8985 9.19264 15.7939 9.29688C15.6894 9.40106 15.5652 9.48377 15.4287 9.54004C15.2922 9.59629 15.1457 9.62526 14.998 9.625C14.8503 9.62472 14.7037 9.59585 14.5674 9.53906C14.431 9.48227 14.3074 9.39862 14.2031 9.29395C14.0989 9.18928 14.0162 9.06526 13.96 8.92871C13.9037 8.79211 13.8747 8.64579 13.875 8.49805L13.8799 8.39551C13.8827 8.36815 13.8866 8.34111 13.8916 8.31445C13.9302 8.08437 14.0386 7.86994 14.2061 7.70312L14.2891 7.62793C14.4894 7.46462 14.7412 7.37455 15.002 7.375L15.1133 7.38086Z" fill="currentColor"/>
<path d="M12 1.5C17.799 1.5 22.5 6.20101 22.5 12C22.5 14.0511 21.9093 15.9632 20.8926 17.5801C20.8738 17.6138 20.8521 17.6459 20.8291 17.6777C18.9605 20.5775 15.7062 22.5 12 22.5C7.23692 22.5 3.21672 19.3279 1.93164 14.9814C1.92768 14.9682 1.92429 14.9548 1.9209 14.9414C1.64891 14.0078 1.5 13.0214 1.5 12C1.5 6.20101 6.20101 1.5 12 1.5ZM15 14C14.7379 14.0001 14.4861 14.1018 14.2969 14.2832L14.2959 14.2822L8.63184 19.8047C9.66479 20.2511 10.8032 20.5 12 20.5C14.7286 20.5 17.1547 19.2125 18.71 17.2139L15.7041 14.2832L15.6299 14.2188C15.4767 14.0979 15.2919 14.0236 15.0977 14.0049L15 14ZM7.5 12C7.23774 12.0001 6.98513 12.1016 6.7959 12.2832L4.03516 14.9736C4.59979 16.4854 5.5827 17.7925 6.84277 18.7559L10.8428 14.8564L8.20312 12.2822C8.01392 12.1008 7.76212 12.0001 7.5 12ZM12 3.5C7.30558 3.5 3.5 7.30558 3.5 12C3.5 12.2268 3.51088 12.4515 3.52832 12.6738L5.40527 10.8457L5.41113 10.8398L5.62988 10.6494C6.16008 10.2306 6.81874 10.0001 7.5 10C8.18107 10.0001 8.83902 10.2308 9.36914 10.6494L9.58789 10.8398L9.59375 10.8457L12.2754 13.46L12.9062 12.8457L12.9121 12.8398L13.1309 12.6494C13.661 12.2308 14.3189 12.0001 15 12L15.29 12.0137C15.8667 12.0693 16.4155 12.2903 16.8701 12.6494L17.0889 12.8398L17.0947 12.8457L19.7676 15.4512C20.237 14.3963 20.5 13.2291 20.5 12C20.5 7.30558 16.6944 3.5 12 3.5Z" fill="currentColor"/>
</svg>
