<svg viewBox="0 0 16 16" fill="none" xmlns="http://www.w3.org/2000/svg">
<path d="M8.00008 0.666992C3.95675 0.666992 0.666748 3.95699 0.666748 8.00033C0.666748 12.0437 3.95675 15.3337 8.00008 15.3337C12.0434 15.3337 15.3334 12.0437 15.3334 8.00033C15.3334 3.95699 12.0434 0.666992 8.00008 0.666992ZM8.66675 12.0003H7.33342V8.00033H6.00008V6.66699H7.66675C8.21808 6.66699 8.66675 7.11566 8.66675 7.66699V12.0003ZM8.00008 5.66699C7.54075 5.66699 7.16675 5.29299 7.16675 4.83366C7.16675 4.37433 7.54075 4.00033 8.00008 4.00033C8.45941 4.00033 8.83342 4.37433 8.83342 4.83366C8.83342 5.29299 8.45941 5.66699 8.00008 5.66699Z" fill="currentColor"/>
</svg>
