<svg viewBox="0 0 24 24" fill="none" xmlns="http://www.w3.org/2000/svg">
<path d="M12.1025 11.0049C12.6067 11.0562 13 11.4823 13 12V17C13 17.5523 12.5523 18 12 18C11.4477 18 11 17.5523 11 17V13C10.4477 13 10 12.5523 10 12C10 11.4477 10.4477 11 11 11H12L12.1025 11.0049Z" fill="currentColor"/>
<path d="M11.8516 7.00488L11.8564 7.00586C12.4952 7.06028 13 7.59356 13 8.25C13 8.94028 12.4403 9.5 11.75 9.5C11.1029 9.5 10.5709 9.00811 10.5068 8.37793L10.5 8.25C10.499 7.59296 11.0042 7.06077 11.6406 7.00586C11.6762 7.00202 11.7124 7 11.749 7L11.8516 7.00488Z" fill="currentColor"/>
<path d="M12 2C17.5233 2 22 6.47672 22 12C22 17.5233 17.5233 22 12 22C6.47672 22 2 17.5233 2 12C2 6.47672 6.47672 2 12 2ZM12 4C7.58128 4 4 7.58128 4 12C4 16.4187 7.58128 20 12 20C16.4187 20 20 16.4187 20 12C20 7.58128 16.4187 4 12 4Z" fill="currentColor"/>
</svg>
