<svg viewBox="0 0 16 16" fill="none" xmlns="http://www.w3.org/2000/svg">
<path d="M8.07617 7.25391C8.45445 7.29223 8.75 7.61161 8.75 8V11.333C8.75 11.7471 8.41406 12.0828 8 12.083C7.58594 12.0828 7.25 11.7471 7.25 11.333V8.74512C6.87502 8.70365 6.58301 8.38603 6.58301 8C6.58301 7.5859 6.91894 7.25018 7.33301 7.25H8L8.07617 7.25391Z" fill="currentColor"/>
<path d="M7.92578 4.58789C8.38723 4.63443 8.74984 5.0236 8.75 5.5C8.74982 6.00606 8.33911 6.41699 7.83301 6.41699C7.35861 6.41683 6.96885 6.05581 6.92188 5.59375L6.91699 5.5C6.91646 5.01806 7.28709 4.62884 7.75391 4.58887C7.77983 4.58616 7.80637 4.58398 7.83301 4.58398L7.92578 4.58789Z" fill="currentColor"/>
<path d="M8 1.25C11.7282 1.25 14.75 4.27179 14.75 8C14.75 11.7282 11.7282 14.75 8 14.75C4.27179 14.75 1.25 11.7282 1.25 8C1.25 4.27179 4.27179 1.25 8 1.25ZM8 2.75C5.10021 2.75 2.75 5.10021 2.75 8C2.75 10.8998 5.10021 13.25 8 13.25C10.8998 13.25 13.25 10.8998 13.25 8C13.25 5.10021 10.8998 2.75 8 2.75Z" fill="currentColor"/>
</svg>
