<svg viewBox="0 0 32 32" fill="none" xmlns="http://www.w3.org/2000/svg">
<path d="M16.0002 1.33301C7.9135 1.33301 1.3335 7.91301 1.3335 15.9997C1.3335 24.0863 7.9135 30.6663 16.0002 30.6663C24.0868 30.6663 30.6668 24.0863 30.6668 15.9997C30.6668 7.91301 24.0868 1.33301 16.0002 1.33301ZM17.3335 23.9997H14.6668V15.9997H12.0002V13.333H15.3335C16.4362 13.333 17.3335 14.2303 17.3335 15.333V23.9997ZM16.0002 11.333C15.0815 11.333 14.3335 10.585 14.3335 9.66634C14.3335 8.74767 15.0815 7.99967 16.0002 7.99967C16.9188 7.99967 17.6668 8.74767 17.6668 9.66634C17.6668 10.585 16.9188 11.333 16.0002 11.333Z" fill="currentColor"/>
</svg>
