<svg viewBox="0 0 16 16" fill="none" xmlns="http://www.w3.org/2000/svg">
<path d="M7.83789 6.1615C7.96289 6.28653 8.13243 6.3568 8.30923 6.35683C8.44106 6.35681 8.56993 6.31769 8.67953 6.24444C8.78914 6.17118 8.87457 6.06707 8.92501 5.94527C8.97546 5.82347 8.98866 5.68945 8.96295 5.56015C8.93724 5.43084 8.87377 5.31207 8.78056 5.21883C8.28064 4.71876 7.9998 4.04061 7.9998 3.3335C7.9998 2.6264 8.28064 1.94824 8.78056 1.44817C8.902 1.32243 8.9692 1.15403 8.96768 0.979233C8.96616 0.804435 8.89604 0.637227 8.77244 0.513622C8.64883 0.390016 8.48163 0.319904 8.30683 0.318385C8.13203 0.316866 7.96363 0.384062 7.83789 0.505501C7.08801 1.25561 6.66675 2.27284 6.66675 3.3335C6.66675 4.39416 7.08801 5.41139 7.83789 6.1615Z" fill="currentColor"/>
<path d="M2.66667 10.6668H13.3333C14.0406 10.6668 14.7189 10.9478 15.219 11.4479C15.719 11.948 16 12.6263 16 13.3335C16 14.0407 15.719 14.719 15.219 15.2191C14.7189 15.7192 14.0406 16.0002 13.3333 16.0002H2.66667C1.95942 16.0002 1.28115 15.7192 0.781049 15.2191C0.280952 14.719 0 14.0407 0 13.3335C0 12.6263 0.280952 11.948 0.781049 11.4479C1.28115 10.9478 1.95942 10.6668 2.66667 10.6668ZM2.1111 14.165C2.27555 14.2748 2.46889 14.3335 2.66667 14.3335C2.93188 14.3335 3.18624 14.2281 3.37377 14.0406C3.56131 13.8531 3.66667 13.5987 3.66667 13.3335C3.66667 13.1357 3.60802 12.9424 3.49814 12.7779C3.38825 12.6135 3.23208 12.4853 3.04935 12.4096C2.86662 12.3339 2.66556 12.3141 2.47158 12.3527C2.2776 12.3913 2.09941 12.4865 1.95956 12.6264C1.81971 12.7662 1.72447 12.9444 1.68588 13.1384C1.6473 13.3324 1.6671 13.5335 1.74279 13.7162C1.81847 13.8989 1.94665 14.0551 2.1111 14.165ZM5.44443 14.165C5.60888 14.2748 5.80222 14.3335 6 14.3335C6.26522 14.3335 6.51957 14.2281 6.70711 14.0406C6.89464 13.8531 7 13.5987 7 13.3335C7 13.1357 6.94135 12.9424 6.83147 12.7779C6.72159 12.6135 6.56541 12.4853 6.38268 12.4096C6.19996 12.3339 5.99889 12.3141 5.80491 12.3527C5.61093 12.3913 5.43275 12.4865 5.29289 12.6264C5.15304 12.7662 5.0578 12.9444 5.01921 13.1384C4.98063 13.3324 5.00043 13.5335 5.07612 13.7162C5.15181 13.8989 5.27998 14.0551 5.44443 14.165Z" fill="currentColor"/>
<path d="M13.0239 6.35683C12.8921 6.35681 12.7632 6.31769 12.6536 6.24444C12.544 6.17118 12.4586 6.06707 12.4082 5.94527C12.3577 5.82347 12.3445 5.68945 12.3702 5.56015C12.3959 5.43084 12.4594 5.31207 12.5526 5.21883C13.0525 4.71876 13.3334 4.04061 13.3334 3.3335C13.3334 2.6264 13.0525 1.94824 12.5526 1.44817C12.4312 1.32243 12.364 1.15403 12.3655 0.979233C12.367 0.804435 12.4371 0.637227 12.5607 0.513622C12.6843 0.390016 12.8515 0.319904 13.0263 0.318385C13.2011 0.316866 13.3695 0.384062 13.4953 0.505501C14.2452 1.25561 14.6664 2.27284 14.6664 3.3335C14.6664 4.39416 14.2452 5.41139 13.4953 6.1615C13.3703 6.28653 13.2007 6.3568 13.0239 6.35683Z" fill="currentColor"/>
<path d="M9.99992 9.33348V4.48148C9.74573 4.33473 9.54707 4.1082 9.43475 3.83703C9.32242 3.56586 9.30272 3.2652 9.37868 2.98169C9.45465 2.69818 9.62204 2.44766 9.8549 2.26898C10.0878 2.0903 10.3731 1.99345 10.6666 1.99345C10.9601 1.99345 11.2454 2.0903 11.4783 2.26898C11.7111 2.44766 11.8785 2.69818 11.9545 2.98169C12.0305 3.2652 12.0107 3.56586 11.8984 3.83703C11.7861 4.1082 11.5874 4.33473 11.3333 4.48148V9.33348H9.99992Z" fill="currentColor"/>
</svg>
