<svg viewBox="0 0 32 32" fill="none" xmlns="http://www.w3.org/2000/svg">
<path d="M16.127 24.4232L16.1309 24.4241C17.0349 24.4917 17.75 25.2434 17.75 26.1673C17.7497 27.1334 16.9662 27.9173 16 27.9173C15.0406 27.9173 14.2567 27.1422 14.252 26.178L14.251 26.179C14.251 26.1755 14.252 26.1718 14.252 26.1683C14.252 26.1659 14.2511 26.1629 14.251 26.1605C14.2517 25.2362 14.9693 24.4917 15.8663 24.4241C15.9098 24.4196 15.9543 24.4173 15.9991 24.4173L16.127 24.4232Z" fill="currentColor"/>
<path d="M9.22367 20.2083C12.9659 16.4863 19.0333 16.4862 22.7754 20.2083C23.2645 20.6951 23.2658 21.4865 22.7793 21.9759C22.2925 22.4651 21.5011 22.4676 21.0118 21.9808C18.2448 19.2287 13.7544 19.2289 10.9873 21.9808C10.4979 22.4676 9.70564 22.4653 9.21879 21.9759C8.73237 21.4865 8.7346 20.6951 9.22367 20.2083Z" fill="currentColor"/>
<path d="M5.55668 14.8284C11.4139 9.72046 20.5842 9.72052 26.4414 14.8284L26.7217 15.0794L26.8116 15.1702C27.233 15.6434 27.2354 16.368 26.7979 16.845C26.3604 17.3216 25.6386 17.3819 25.1309 17.0032L25.0323 16.9212L24.7969 16.7112C19.881 12.4261 12.1171 12.4261 7.20121 16.7112L6.96586 16.9212C6.45709 17.3875 5.66678 17.3537 5.20024 16.845C4.73371 16.3364 4.76794 15.5461 5.27641 15.0794L5.55668 14.8284Z" fill="currentColor"/>
<path d="M1.68266 9.13703C9.71254 2.39888 22.2864 2.3991 30.3164 9.13703L30.7012 9.46808L30.793 9.55792C31.2231 10.023 31.2398 10.7475 30.8116 11.2327C30.3833 11.7177 29.6624 11.7911 29.1475 11.4222L29.0469 11.3421L28.7071 11.0501C21.4924 4.99886 10.03 5.09582 2.95219 11.3421L2.8516 11.4222C2.33669 11.7909 1.61568 11.7178 1.18754 11.2327C0.730946 10.7152 0.780463 9.92485 1.29789 9.46808L1.68266 9.13703Z" fill="currentColor"/>
</svg>
