<svg viewBox="0 0 24 24" fill="none" xmlns="http://www.w3.org/2000/svg">
<path d="M12.1005 18.2542C12.8114 18.3064 13.3737 18.898 13.3739 19.6243C13.3739 20.3836 12.7582 20.9993 11.9989 20.9993C11.2455 20.9988 10.6306 20.3905 10.6269 19.6331L10.6259 19.6341V19.6195C10.6266 18.893 11.1905 18.3079 11.8954 18.2552C11.929 18.2518 11.9635 18.2494 11.998 18.2493L12.1005 18.2542Z" fill="currentColor"/>
<path d="M6.87394 15.1116C9.61647 12.384 14.0087 12.2987 16.8544 14.8558L17.1249 15.1116L17.1943 15.1868C17.5156 15.5787 17.4937 16.1586 17.1288 16.5257C16.7637 16.8926 16.1845 16.9171 15.7909 16.598L15.7148 16.5296L15.5185 16.3441C13.4568 14.4918 10.2708 14.5538 8.28409 16.5296C7.89254 16.9189 7.25945 16.9171 6.87003 16.5257C6.4808 16.1342 6.48252 15.5011 6.87394 15.1116Z" fill="currentColor"/>
<path d="M4.34171 10.89C8.69219 7.28306 15.3055 7.28337 19.6562 10.89L20.0839 11.263L20.1552 11.3353C20.4925 11.7138 20.4944 12.2934 20.1444 12.6751C19.7945 13.0567 19.2167 13.1052 18.8105 12.8021L18.7314 12.7366L18.3769 12.4281C14.6461 9.33831 8.86012 9.44075 5.26652 12.7366L5.18741 12.8021C4.7812 13.1048 4.20328 13.0566 3.85343 12.6751C3.48075 12.2681 3.50827 11.6362 3.91495 11.263L4.34171 10.89Z" fill="currentColor"/>
<path d="M0.931555 7.05403C7.05649 1.64858 16.9423 1.64873 23.0673 7.05403C23.4812 7.41946 23.5204 8.05114 23.1552 8.46516C22.7897 8.87907 22.1581 8.91843 21.7441 8.55306C16.3752 3.81512 7.62464 3.81512 2.25577 8.55306C1.84169 8.9185 1.20911 8.87925 0.843664 8.46516C0.478747 8.05122 0.518035 7.41942 0.931555 7.05403Z" fill="currentColor"/>
</svg>
