<svg viewBox="0 0 24 24" fill="none" xmlns="http://www.w3.org/2000/svg">
<path d="M11.7567 9.24206C11.9442 9.42961 12.1985 9.535 12.4637 9.53506C12.6615 9.53501 12.8548 9.47634 13.0192 9.36646C13.1836 9.25658 13.3117 9.10042 13.3874 8.91772C13.463 8.73503 13.4828 8.534 13.4443 8.34005C13.4057 8.1461 13.3105 7.96794 13.1707 7.82809C12.4208 7.078 11.9996 6.06078 11.9996 5.00015C11.9996 3.93951 12.4208 2.9223 13.1707 2.17221C13.3528 1.98361 13.4536 1.73101 13.4514 1.46882C13.4491 1.20663 13.3439 0.955821 13.1585 0.770417C12.9731 0.585012 12.7223 0.479846 12.4601 0.477567C12.1979 0.475289 11.9453 0.576081 11.7567 0.758236C10.6319 1.88338 10 3.4092 10 5.00015C10 6.5911 10.6319 8.11692 11.7567 9.24206Z" fill="currentColor"/>
<path d="M3.99992 15.9999H19.9996C21.0604 15.9999 22.0778 16.4213 22.828 17.1715C23.5781 17.9216 23.9995 18.939 23.9995 19.9998C23.9995 21.0607 23.5781 22.0781 22.828 22.8282C22.0778 23.5783 21.0604 23.9998 19.9996 23.9998H3.99992C2.93907 23.9998 1.92168 23.5783 1.17155 22.8282C0.421419 22.0781 0 21.0607 0 19.9998C0 18.939 0.421419 17.9216 1.17155 17.1715C1.92168 16.4213 2.93907 15.9999 3.99992 15.9999ZM3.16658 21.247C3.41325 21.4118 3.70325 21.4998 3.99992 21.4998C4.39774 21.4998 4.77926 21.3418 5.06056 21.0605C5.34186 20.7792 5.49989 20.3977 5.49989 19.9998C5.49989 19.7032 5.41192 19.4132 5.2471 19.1665C5.08228 18.9198 4.84802 18.7276 4.57393 18.6141C4.29985 18.5005 3.99825 18.4708 3.70729 18.5287C3.41632 18.5866 3.14905 18.7294 2.93928 18.9392C2.72951 19.149 2.58665 19.4163 2.52877 19.7072C2.47089 19.9982 2.5006 20.2998 2.61413 20.5739C2.72766 20.8479 2.91991 21.0822 3.16658 21.247ZM8.16648 21.247C8.41315 21.4118 8.70315 21.4998 8.99982 21.4998C9.39763 21.4998 9.77916 21.3418 10.0605 21.0605C10.3418 20.7792 10.4998 20.3977 10.4998 19.9998C10.4998 19.7032 10.4118 19.4132 10.247 19.1665C10.0822 18.9198 9.84791 18.7276 9.57383 18.6141C9.29975 18.5005 8.99815 18.4708 8.70719 18.5287C8.41622 18.5866 8.14895 18.7294 7.93918 18.9392C7.7294 19.149 7.58655 19.4163 7.52867 19.7072C7.47079 19.9982 7.5005 20.2998 7.61403 20.5739C7.72755 20.8479 7.91981 21.0822 8.16648 21.247Z" fill="currentColor"/>
<path d="M19.5355 9.53506C19.3378 9.53501 19.1445 9.47634 18.9801 9.36646C18.8157 9.25658 18.6875 9.10042 18.6119 8.91772C18.5362 8.73503 18.5164 8.534 18.555 8.34005C18.5935 8.1461 18.6887 7.96794 18.8285 7.82809C19.5784 7.078 19.9997 6.06078 19.9997 5.00015C19.9997 3.93951 19.5784 2.9223 18.8285 2.17221C18.6464 1.98361 18.5456 1.73101 18.5479 1.46882C18.5501 1.20663 18.6553 0.955821 18.8407 0.770417C19.0261 0.585012 19.2769 0.479846 19.5391 0.477567C19.8013 0.475289 20.0539 0.576081 20.2425 0.758236C21.3673 1.88338 21.9992 3.4092 21.9992 5.00015C21.9992 6.5911 21.3673 8.11692 20.2425 9.24206C20.055 9.42961 19.8007 9.535 19.5355 9.53506Z" fill="currentColor"/>
<path d="M14.9997 14V6.72211C14.6184 6.50198 14.3204 6.1622 14.152 5.75545C13.9835 5.3487 13.9539 4.89773 14.0679 4.47247C14.1818 4.04721 14.4329 3.67144 14.7822 3.40342C15.1315 3.13541 15.5594 2.99014 15.9997 2.99014C16.4399 2.99014 16.8679 3.13541 17.2172 3.40342C17.5665 3.67144 17.8175 4.04721 17.9315 4.47247C18.0454 4.89773 18.0159 5.3487 17.8474 5.75545C17.6789 6.1622 17.3809 6.50198 16.9997 6.72211V14H14.9997Z" fill="currentColor"/>
</svg>
