<svg viewBox="0 0 32 32" fill="none" xmlns="http://www.w3.org/2000/svg">
<path d="M15.676 12.3225C15.926 12.5726 16.2651 12.7131 16.6187 12.7132C16.8824 12.7131 17.1401 12.6349 17.3593 12.4884C17.5785 12.3419 17.7494 12.1337 17.8503 11.8901C17.9512 11.6465 17.9776 11.3784 17.9261 11.1198C17.8747 10.8612 17.7478 10.6236 17.5614 10.4372C16.5615 9.43703 15.9998 8.08072 15.9998 6.66651C15.9998 5.2523 16.5615 3.89599 17.5614 2.89585C17.8042 2.64438 17.9386 2.30757 17.9356 1.95798C17.9326 1.60838 17.7923 1.27397 17.5451 1.02675C17.2979 0.779544 16.9635 0.639319 16.6139 0.636281C16.2643 0.633243 15.9275 0.767636 15.676 1.01051C14.1763 2.51073 13.3337 4.5452 13.3337 6.66651C13.3337 8.78783 14.1763 10.8223 15.676 12.3225Z" fill="currentColor"/>
<path d="M5.33333 21.3333H26.6667C28.0812 21.3333 29.4377 21.8952 30.4379 22.8953C31.4381 23.8955 32 25.2521 32 26.6666C32 28.0811 31.4381 29.4376 30.4379 30.4378C29.4377 31.438 28.0812 31.9999 26.6667 31.9999H5.33333C3.91885 31.9999 2.56229 31.438 1.5621 30.4378C0.561903 29.4376 0 28.0811 0 26.6666C0 25.2521 0.561903 23.8955 1.5621 22.8953C2.56229 21.8952 3.91885 21.3333 5.33333 21.3333ZM4.22219 28.3295C4.55109 28.5493 4.93777 28.6666 5.33333 28.6666C5.86377 28.6666 6.37247 28.4559 6.74755 28.0808C7.12262 27.7057 7.33333 27.197 7.33333 26.6666C7.33333 26.271 7.21604 25.8843 6.99627 25.5554C6.77651 25.2265 6.46415 24.9702 6.0987 24.8188C5.73325 24.6675 5.33111 24.6278 4.94315 24.705C4.55519 24.7822 4.19882 24.9727 3.91912 25.2524C3.63942 25.5321 3.44893 25.8884 3.37176 26.2764C3.29459 26.6644 3.3342 27.0665 3.48557 27.432C3.63695 27.7974 3.89329 28.1098 4.22219 28.3295ZM10.8889 28.3295C11.2178 28.5493 11.6044 28.6666 12 28.6666C12.5304 28.6666 13.0391 28.4559 13.4142 28.0808C13.7893 27.7057 14 27.197 14 26.6666C14 26.271 13.8827 25.8843 13.6629 25.5554C13.4432 25.2265 13.1308 24.9702 12.7654 24.8188C12.3999 24.6675 11.9978 24.6278 11.6098 24.705C11.2219 24.7822 10.8655 24.9727 10.5858 25.2524C10.3061 25.5321 10.1156 25.8884 10.0384 26.2764C9.96126 26.6644 10.0009 27.0665 10.1522 27.432C10.3036 27.7974 10.56 28.1098 10.8889 28.3295Z" fill="currentColor"/>
<path d="M26.0479 12.7132C25.7842 12.7131 25.5265 12.6349 25.3073 12.4884C25.0881 12.3419 24.9172 12.1337 24.8163 11.8901C24.7154 11.6465 24.689 11.3784 24.7404 11.1198C24.7919 10.8612 24.9188 10.6236 25.1052 10.4372C26.1051 9.43703 26.6668 8.08072 26.6668 6.66651C26.6668 5.2523 26.1051 3.89599 25.1052 2.89585C24.8624 2.64438 24.728 2.30757 24.731 1.95798C24.734 1.60838 24.8743 1.27397 25.1215 1.02675C25.3687 0.779544 25.7031 0.639319 26.0527 0.636281C26.4023 0.633243 26.7391 0.767636 26.9906 1.01051C28.4903 2.51073 29.3329 4.5452 29.3329 6.66651C29.3329 8.78783 28.4903 10.8223 26.9906 12.3225C26.7406 12.5726 26.4015 12.7131 26.0479 12.7132Z" fill="currentColor"/>
<path d="M19.9998 18.6665V8.96252C19.4915 8.66901 19.0941 8.21595 18.8695 7.67361C18.6448 7.13127 18.6054 6.52995 18.7574 5.96293C18.9093 5.39591 19.2441 4.89487 19.7098 4.53751C20.1755 4.18015 20.7461 3.98645 21.3332 3.98645C21.9202 3.98645 22.4908 4.18015 22.9565 4.53751C23.4223 4.89487 23.757 5.39591 23.909 5.96293C24.0609 6.52995 24.0215 7.13127 23.7969 7.67361C23.5722 8.21595 23.1749 8.66901 22.6665 8.96252V18.6665H19.9998Z" fill="currentColor"/>
</svg>
