<svg viewBox="0 0 16 16" fill="none" xmlns="http://www.w3.org/2000/svg">
<path d="M8.07629 12.0869L8.08117 12.0879C8.59448 12.1295 8.99995 12.5573 9.00012 13.083C9.0001 13.6351 8.55225 14.0829 8.00012 14.083C7.45198 14.083 7.0049 13.6408 7.00207 13.0898L7.00109 13.0908C6.99596 12.5594 7.40478 12.1294 7.91809 12.0879C7.94467 12.085 7.9718 12.083 7.99914 12.083L8.07629 12.0869Z" fill="currentColor"/>
<path d="M2.84191 7.19527C5.77299 4.76573 10.2263 4.76565 13.1573 7.19527L13.4454 7.44723L13.4991 7.50192C13.7517 7.78575 13.7535 8.22063 13.4913 8.5068C13.229 8.79264 12.7959 8.82842 12.4913 8.60152L12.4318 8.5527L12.1984 8.3486C9.82242 6.38111 6.17689 6.38119 3.8009 8.3486L3.5675 8.5527C3.26229 8.83234 2.78784 8.81179 2.50793 8.5068C2.22813 8.20158 2.24877 7.72718 2.55383 7.44723L2.84191 7.19527Z" fill="currentColor"/>
<path d="M0.566524 4.64059C4.55269 1.12272 10.9059 1.01266 15.0402 4.31051L15.4337 4.64059L15.4884 4.6943C15.7464 4.97335 15.7561 5.40807 15.4991 5.69918C15.2422 5.98985 14.8099 6.03456 14.5011 5.81344L14.4405 5.76559L14.1017 5.48043C10.5334 2.6371 4.99551 2.73245 1.55871 5.76559C1.24819 6.03918 0.774085 6.00945 0.500118 5.69918C0.226205 5.38869 0.256205 4.91467 0.566524 4.64059Z" fill="currentColor"/>
<path d="M4.52356 10.0156C6.44345 8.10614 9.55587 8.10604 11.4757 10.0156C11.7692 10.3076 11.7705 10.7825 11.4786 11.0761C11.1866 11.3696 10.7117 11.3709 10.4181 11.0791C9.08339 9.75154 6.91692 9.75165 5.58215 11.0791C5.28848 11.3712 4.81274 11.3698 4.52063 11.0761C4.22881 10.7826 4.23031 10.3077 4.52356 10.0156Z" fill="currentColor"/>
</svg>
