<svg viewBox="0 0 32 32" fill="none" xmlns="http://www.w3.org/2000/svg">
<path d="M13.0933 26.3477C14.944 25.5259 17.057 25.5258 18.9077 26.3477C20.1126 26.8827 21.4881 26.8828 22.6929 26.3477C24.428 25.5771 26.3939 25.5289 28.1577 26.2031L28.5083 26.3477L28.6216 26.4062C29.1715 26.7206 29.4055 27.4067 29.1431 27.998C28.8804 28.5893 28.2147 28.8757 27.6128 28.6787L27.4927 28.6328L27.2652 28.5391C26.117 28.1001 24.8371 28.1313 23.7075 28.6328C21.8567 29.4548 19.744 29.4548 17.8931 28.6328C16.6883 28.0977 15.3127 28.0979 14.1079 28.6328C12.2571 29.4549 10.1444 29.4547 8.29348 28.6328C7.164 28.1312 5.88409 28.1002 4.73586 28.5391L4.50832 28.6328C3.87743 28.913 3.13819 28.6289 2.85793 27.998C2.57775 27.3672 2.86192 26.6279 3.49269 26.3477L3.84328 26.2031C5.60718 25.529 7.57302 25.577 9.30812 26.3477C10.513 26.8827 11.8884 26.8828 13.0933 26.3477Z" fill="currentColor"/>
<path d="M13.0933 21.0146C14.9441 20.1928 17.057 20.1927 18.9077 21.0146C20.1126 21.5496 21.4881 21.5497 22.6929 21.0146C24.4281 20.2441 26.3938 20.1958 28.1577 20.8701L28.5083 21.0146L28.6216 21.0732C29.1715 21.3877 29.4058 22.0737 29.1431 22.665C28.8804 23.2562 28.2146 23.5426 27.6128 23.3457L27.4927 23.2998L27.2652 23.2061C26.1169 22.7671 24.8371 22.7982 23.7075 23.2998C21.8567 24.1217 19.7439 24.1217 17.8931 23.2998C16.6883 22.7647 15.3128 22.7648 14.1079 23.2998C12.2571 24.1218 10.1443 24.1216 8.29348 23.2998C7.16395 22.7981 5.88413 22.7672 4.73586 23.2061L4.50832 23.2998C3.87756 23.58 3.13832 23.2956 2.85793 22.665C2.57773 22.0342 2.86191 21.2949 3.49269 21.0146L3.84328 20.8701C5.60722 20.1959 7.57297 20.244 9.30812 21.0146C10.5129 21.5496 11.8885 21.5498 13.0933 21.0146Z" fill="currentColor"/>
<path d="M23.3335 2.75C25.1279 2.75 26.5835 4.20564 26.5835 6C26.5835 6.69036 26.0239 7.25 25.3335 7.25C24.6432 7.25 24.0835 6.69035 24.0835 6C24.0835 5.58636 23.7472 5.25 23.3335 5.25C22.9199 5.25 22.5835 5.58636 22.5835 6V18.667C22.5833 19.3572 22.0238 19.917 21.3335 19.917C20.6433 19.917 20.0837 19.3572 20.0835 18.667V17.25H11.9165V18.667C11.9163 19.3572 11.3568 19.917 10.6665 19.917C9.97628 19.917 9.4167 19.3572 9.41652 18.667V6C9.41652 4.20565 10.8722 2.75 12.6665 2.75C14.4609 2.75 15.9165 4.20564 15.9165 6C15.9165 6.69036 15.3569 7.25 14.6665 7.25C13.9762 7.25 13.4165 6.69035 13.4165 6C13.4165 5.58636 13.0802 5.25 12.6665 5.25C12.2529 5.25 11.9165 5.58636 11.9165 6V9.41699H20.0835V6C20.0835 4.20565 21.5392 2.75 23.3335 2.75ZM11.9165 14.75H20.0835V11.917H11.9165V14.75Z" fill="currentColor"/>
</svg>
