<svg viewBox="0 0 16 16" fill="none" xmlns="http://www.w3.org/2000/svg">
<path d="M3.66659 4.66667C3.2051 4.66667 2.75397 4.52982 2.37026 4.27343C1.98654 4.01704 1.68747 3.65262 1.51087 3.22626C1.33426 2.7999 1.28806 2.33075 1.37809 1.87812C1.46812 1.4255 1.69035 1.00974 2.01667 0.683418C2.34299 0.357096 2.75875 0.134868 3.21138 0.0448354C3.664 -0.0451968 4.13315 0.00101101 4.55951 0.177615C4.98588 0.35422 5.35029 0.653289 5.60668 1.037C5.86307 1.42072 5.99992 1.87184 5.99992 2.33333C5.99992 2.95217 5.75409 3.54566 5.3165 3.98325C4.87892 4.42083 4.28542 4.66667 3.66659 4.66667Z" fill="currentColor"/>
<path d="M15.3333 9.3335H0.666667C0.489856 9.3335 0.320286 9.40373 0.195262 9.52876C0.0702379 9.65378 0 9.82335 0 10.0002V14.0002C0 14.5306 0.210714 15.0393 0.585786 15.4144C0.960859 15.7894 1.46957 16.0002 2 16.0002H14C14.5304 16.0002 15.0391 15.7894 15.4142 15.4144C15.7893 15.0393 16 14.5306 16 14.0002V10.0002C16 9.82335 15.9298 9.65378 15.8047 9.52876C15.6797 9.40373 15.5101 9.3335 15.3333 9.3335Z" fill="currentColor"/>
<path d="M12.807 7.24404C12.9079 7.30222 13.0223 7.33295 13.1387 7.33319C13.2568 7.3333 13.3727 7.30207 13.4747 7.24269C13.5768 7.1833 13.6612 7.09789 13.7194 6.99519C13.9339 6.61974 14.0296 6.1881 13.9939 5.75716C13.9582 5.32622 13.7928 4.91621 13.5194 4.58119C13.415 4.45379 13.3517 4.29779 13.3376 4.13371C13.3236 3.96963 13.3595 3.80514 13.4407 3.66186C13.4871 3.58559 13.5176 3.50079 13.5306 3.41249C13.5436 3.32418 13.5387 3.23418 13.5162 3.1478C13.4938 3.06142 13.4542 2.98043 13.3998 2.90964C13.3455 2.83884 13.2775 2.77968 13.1998 2.73566C13.1222 2.69164 13.0365 2.66365 12.9479 2.65337C12.8592 2.64308 12.7694 2.6507 12.6837 2.67578C12.5981 2.70085 12.5183 2.74287 12.4492 2.79934C12.3801 2.85581 12.323 2.92558 12.2814 3.00452C12.0668 3.37997 11.9711 3.81161 12.0068 4.24256C12.0425 4.6735 12.208 5.0835 12.4814 5.41852C12.5857 5.54593 12.6491 5.70192 12.6631 5.866C12.6772 6.03009 12.6412 6.19458 12.56 6.33786C12.5026 6.43918 12.4728 6.55377 12.4734 6.67022C12.4741 6.78667 12.5052 6.90092 12.5637 7.0016C12.6223 7.10227 12.7061 7.18586 12.807 7.24404Z" fill="currentColor"/>
<path d="M9.80521 6.66669C9.68876 6.66645 9.5744 6.63571 9.47352 6.57754C9.37264 6.51936 9.28876 6.43577 9.23022 6.33509C9.17169 6.23442 9.14056 6.12017 9.13991 6.00371C9.13927 5.88726 9.16914 5.77267 9.22655 5.67135C9.30774 5.52807 9.34367 5.36358 9.32963 5.1995C9.31559 5.03542 9.25223 4.87942 9.14788 4.75202C8.87448 4.417 8.70903 4.00699 8.67332 3.57605C8.63762 3.14511 8.73335 2.71346 8.94788 2.33802C8.98953 2.25908 9.0466 2.18931 9.11571 2.13284C9.18482 2.07636 9.26457 2.03435 9.35023 2.00927C9.43589 1.9842 9.52571 1.97658 9.61436 1.98686C9.70302 1.99715 9.7887 2.02513 9.86634 2.06915C9.94398 2.11318 10.012 2.17234 10.0663 2.24313C10.1207 2.31393 10.1603 2.39492 10.1827 2.48129C10.2052 2.56767 10.2101 2.65768 10.1971 2.74598C10.1841 2.83429 10.1536 2.91909 10.1072 2.99535C10.026 3.13863 9.99009 3.30312 10.0041 3.46721C10.0182 3.63129 10.0815 3.78728 10.1859 3.91469C10.4593 4.24971 10.6247 4.65971 10.6604 5.09065C10.6961 5.5216 10.6004 5.95324 10.3859 6.32869C10.3277 6.43139 10.2433 6.5168 10.1412 6.57618C10.0392 6.63557 9.92326 6.6668 9.80521 6.66669Z" fill="currentColor"/>
<path d="M5.31659 6.01651L7.29925 7.99984H1.33325V7.66651C1.33322 7.205 1.47005 6.75384 1.72644 6.37009C1.98282 5.98635 2.34725 5.68725 2.77363 5.51063C3.20002 5.33401 3.6692 5.28781 4.12184 5.37785C4.57449 5.4679 4.99026 5.69015 5.31659 6.01651Z" fill="currentColor"/>
</svg>
