<svg viewBox="0 0 16 16" fill="none" xmlns="http://www.w3.org/2000/svg">
<path d="M6.495 13.0605C7.45283 12.6351 8.54693 12.6351 9.50476 13.0605C10.0747 13.3135 10.7258 13.3136 11.2958 13.0605C12.1936 12.6618 13.2102 12.6365 14.1229 12.9854L14.3046 13.0605L14.3729 13.0947C14.7028 13.2833 14.8428 13.695 14.6854 14.0498C14.5277 14.4043 14.1284 14.5771 13.7675 14.459L13.6952 14.4307L13.4784 14.3477C12.9641 14.1814 12.4031 14.2091 11.9042 14.4307C10.9464 14.856 9.85312 14.856 8.89539 14.4307C8.32535 14.1776 7.67442 14.1776 7.10437 14.4307C6.14662 14.856 5.05331 14.856 4.09558 14.4307C3.52556 14.1775 2.87463 14.1776 2.30457 14.4307L2.2323 14.459C1.87135 14.5769 1.47195 14.4043 1.31433 14.0498C1.14653 13.6715 1.31716 13.2288 1.69519 13.0605L1.87683 12.9854C2.78954 12.6365 3.80616 12.6618 4.70398 13.0605C5.2739 13.3137 5.92501 13.3135 6.495 13.0605Z" fill="currentColor"/>
<path d="M6.495 10.3936C7.4528 9.96815 8.54696 9.96817 9.50476 10.3936C10.0748 10.6466 10.7258 10.6467 11.2958 10.3936C12.1936 9.99485 13.2103 9.96956 14.1229 10.3184L14.3046 10.3936L14.3729 10.4277C14.7029 10.6163 14.8428 11.028 14.6854 11.3828C14.5278 11.7375 14.1285 11.9101 13.7675 11.792L13.6952 11.7637L13.4784 11.6807C12.9641 11.5145 12.4031 11.5421 11.9042 11.7637C10.9464 12.189 9.85317 12.1891 8.89539 11.7637C8.32537 11.5106 7.67439 11.5106 7.10437 11.7637C6.14658 12.189 5.05336 12.1891 4.09558 11.7637C3.52558 11.5106 2.8746 11.5106 2.30457 11.7637L2.2323 11.792C1.87123 11.91 1.47188 11.7375 1.31433 11.3828C1.14651 11.0045 1.31707 10.5618 1.69519 10.3936L1.87683 10.3184C2.78951 9.96953 3.80618 9.99488 4.70398 10.3936C5.27395 10.6467 5.92498 10.6465 6.495 10.3936Z" fill="currentColor"/>
<path d="M11.6669 1.25C12.633 1.2501 13.4169 2.03385 13.4169 3C13.4169 3.41415 13.081 3.7499 12.6669 3.75C12.2527 3.75 11.9169 3.41421 11.9169 3C11.9169 2.86227 11.8046 2.7501 11.6669 2.75C11.5291 2.75 11.4169 2.86221 11.4169 3V9.33301C11.4169 9.74716 11.081 10.0829 10.6669 10.083C10.2527 10.083 9.91687 9.74722 9.91687 9.33301V8.75H6.08289V9.33301C6.08289 9.74722 5.7471 10.083 5.33289 10.083C4.91889 10.0828 4.58289 9.74706 4.58289 9.33301V3C4.58289 2.03394 5.36689 1.25025 6.33289 1.25C7.2991 1.25 8.08289 2.03379 8.08289 3C8.08289 3.41421 7.7471 3.75 7.33289 3.75C6.91889 3.74975 6.58289 3.41406 6.58289 3C6.58289 2.86221 6.47068 2.75 6.33289 2.75C6.19532 2.75026 6.08289 2.86237 6.08289 3V4.58301H9.91687V3C9.91687 2.03379 10.7007 1.25 11.6669 1.25ZM6.08289 7.25H9.91687V6.08301H6.08289V7.25Z" fill="currentColor"/>
</svg>
