<svg viewBox="0 0 32 32" fill="none" xmlns="http://www.w3.org/2000/svg">
<path d="M7.33317 9.33333C6.41019 9.33333 5.50794 9.05964 4.74051 8.54686C3.97308 8.03408 3.37494 7.30525 3.02173 6.45252C2.66853 5.5998 2.57611 4.66149 2.75617 3.75625C2.93624 2.851 3.3807 2.01948 4.03334 1.36684C4.68599 0.714192 5.51751 0.269735 6.42275 0.0896708C7.328 -0.0903936 8.26631 0.00202203 9.11903 0.355231C9.97175 0.70844 10.7006 1.30658 11.2134 2.07401C11.7261 2.84144 11.9998 3.74369 11.9998 4.66667C11.9998 5.90435 11.5082 7.09133 10.633 7.9665C9.75783 8.84167 8.57085 9.33333 7.33317 9.33333Z" fill="currentColor"/>
<path d="M30.6667 18.6665H1.33333C0.979711 18.6665 0.640573 18.807 0.390524 19.057C0.140476 19.3071 0 19.6462 0 19.9998V27.9998C0 29.0607 0.421427 30.0781 1.17157 30.8283C1.92172 31.5784 2.93913 31.9998 4 31.9998H28C29.0609 31.9998 30.0783 31.5784 30.8284 30.8283C31.5786 30.0781 32 29.0607 32 27.9998V19.9998C32 19.6462 31.8595 19.3071 31.6095 19.057C31.3594 18.807 31.0203 18.6665 30.6667 18.6665Z" fill="currentColor"/>
<path d="M25.614 14.4886C25.8158 14.6049 26.0445 14.6664 26.2774 14.6669C26.5135 14.6671 26.7454 14.6046 26.9495 14.4859C27.1535 14.3671 27.3224 14.1963 27.4388 13.9909C27.8678 13.24 28.0593 12.3767 27.9879 11.5148C27.9165 10.6529 27.5856 9.83291 27.0388 9.16287C26.8301 8.90806 26.7033 8.59607 26.6753 8.26791C26.6472 7.93974 26.719 7.61076 26.8814 7.3242C26.9741 7.17167 27.0353 7.00207 27.0612 6.82546C27.0872 6.64886 27.0774 6.46884 27.0325 6.29608C26.9875 6.12333 26.9084 5.96135 26.7997 5.81976C26.691 5.67817 26.555 5.55985 26.3997 5.47181C26.2444 5.38376 26.073 5.3278 25.8957 5.30723C25.7184 5.28665 25.5388 5.30189 25.3675 5.35204C25.1961 5.40219 25.0366 5.48623 24.8984 5.59917C24.7602 5.71211 24.646 5.85166 24.5628 6.00953C24.1337 6.76043 23.9422 7.62372 24.0136 8.4856C24.085 9.34748 24.416 10.1675 24.9628 10.8375C25.1715 11.0923 25.2982 11.4043 25.3263 11.7325C25.3543 12.0607 25.2825 12.3896 25.1201 12.6762C25.0053 12.8788 24.9455 13.108 24.9468 13.3409C24.9481 13.5738 25.0104 13.8023 25.1274 14.0037C25.2445 14.205 25.4123 14.3722 25.614 14.4886Z" fill="currentColor"/>
<path d="M19.6107 13.3334C19.3778 13.3329 19.149 13.2714 18.9473 13.1551C18.7455 13.0387 18.5778 12.8715 18.4607 12.6702C18.3436 12.4688 18.2814 12.2403 18.2801 12.0074C18.2788 11.7745 18.3385 11.5453 18.4533 11.3427C18.6157 11.0561 18.6876 10.7272 18.6595 10.399C18.6314 10.0708 18.5047 9.75884 18.296 9.50404C17.7492 8.834 17.4183 8.01399 17.3469 7.1521C17.2755 6.29022 17.4669 5.42693 17.896 4.67604C17.9793 4.51816 18.0934 4.37861 18.2317 4.26567C18.3699 4.15273 18.5294 4.06869 18.7007 4.01854C18.872 3.9684 19.0517 3.95316 19.229 3.97373C19.4063 3.9943 19.5777 4.05027 19.7329 4.13831C19.8882 4.22635 20.0242 4.34468 20.1329 4.48627C20.2416 4.62786 20.3208 4.78983 20.3657 4.96259C20.4106 5.13534 20.4204 5.31536 20.3945 5.49197C20.3685 5.66857 20.3074 5.83817 20.2147 5.99071C20.0523 6.27726 19.9804 6.60625 20.0085 6.93441C20.0366 7.26258 20.1633 7.57457 20.372 7.82937C20.9188 8.49941 21.2497 9.31942 21.3211 10.1813C21.3925 11.0432 21.2011 11.9065 20.772 12.6574C20.6556 12.8628 20.4868 13.0336 20.2827 13.1524C20.0787 13.2711 19.8468 13.3336 19.6107 13.3334Z" fill="currentColor"/>
<path d="M10.6332 12.0335L14.5985 16.0002H2.6665V15.3335C2.66644 14.4105 2.9401 13.5082 3.45287 12.7407C3.96565 11.9732 4.69451 11.375 5.54727 11.0218C6.40003 10.6685 7.3384 10.5761 8.24368 10.7562C9.14897 10.9363 9.98052 11.3808 10.6332 12.0335Z" fill="currentColor"/>
</svg>
