<svg viewBox="0 0 24 24" fill="none" xmlns="http://www.w3.org/2000/svg">
<path d="M5.5 7C4.80777 7 4.13108 6.79473 3.55551 6.41015C2.97993 6.02556 2.53133 5.47894 2.26642 4.83939C2.00152 4.19985 1.9322 3.49612 2.06725 2.81719C2.2023 2.13825 2.53564 1.51461 3.02513 1.02513C3.51461 0.535644 4.13825 0.202301 4.81719 0.0672531C5.49612 -0.0677952 6.19985 0.00151652 6.83939 0.266423C7.47894 0.53133 8.02556 0.979934 8.41014 1.55551C8.79473 2.13108 9 2.80777 9 3.5C9 4.42826 8.63125 5.3185 7.97487 5.97487C7.3185 6.63125 6.42826 7 5.5 7Z" fill="currentColor"/>
<path d="M23 14H1C0.734784 14 0.48043 14.1054 0.292893 14.2929C0.105357 14.4804 0 14.7348 0 15V21C0 21.7956 0.31607 22.5587 0.87868 23.1213C1.44129 23.6839 2.20435 24 3 24H21C21.7956 24 22.5587 23.6839 23.1213 23.1213C23.6839 22.5587 24 21.7956 24 21V15C24 14.7348 23.8946 14.4804 23.7071 14.2929C23.5196 14.1054 23.2652 14 23 14Z" fill="currentColor"/>
<path d="M19.2105 10.8663C19.3618 10.9536 19.5334 10.9997 19.7081 11C19.8851 11.0002 20.0591 10.9534 20.2121 10.8643C20.3651 10.7752 20.4918 10.6471 20.5791 10.493C20.9009 9.92986 21.0445 9.28239 20.9909 8.63598C20.9373 7.98957 20.6892 7.37456 20.2791 6.87203C20.1225 6.68092 20.0275 6.44693 20.0064 6.20081C19.9854 5.95468 20.0393 5.70795 20.1611 5.49303C20.2306 5.37863 20.2765 5.25143 20.2959 5.11897C20.3154 4.98652 20.308 4.85151 20.2743 4.72194C20.2406 4.59237 20.1813 4.47089 20.0998 4.3647C20.0182 4.25851 19.9162 4.16976 19.7998 4.10373C19.6833 4.0377 19.5548 3.99573 19.4218 3.9803C19.2888 3.96487 19.1541 3.9763 19.0256 4.01391C18.8971 4.05152 18.7775 4.11455 18.6738 4.19925C18.5701 4.28396 18.4845 4.38862 18.4221 4.50703C18.1003 5.0702 17.9567 5.71766 18.0102 6.36408C18.0638 7.01049 18.312 7.6255 18.7221 8.12803C18.8786 8.31913 18.9736 8.55313 18.9947 8.79925C19.0158 9.04537 18.9618 9.29211 18.8401 9.50703C18.7539 9.65901 18.7091 9.83089 18.7101 10.0056C18.7111 10.1802 18.7578 10.3516 18.8456 10.5026C18.9334 10.6537 19.0592 10.779 19.2105 10.8663Z" fill="currentColor"/>
<path d="M14.7081 10C14.5334 9.99967 14.3618 9.95357 14.2105 9.8663C14.0592 9.77904 13.9334 9.65366 13.8456 9.50264C13.7578 9.35163 13.7111 9.18025 13.7101 9.00557C13.7091 8.83089 13.7539 8.65901 13.8401 8.50703C13.9618 8.29211 14.0157 8.04537 13.9947 7.79925C13.9736 7.55313 13.8786 7.31913 13.7221 7.12803C13.312 6.6255 13.0638 6.01049 13.0102 5.36408C12.9567 4.71766 13.1003 4.0702 13.4221 3.50703C13.4845 3.38862 13.5701 3.28396 13.6738 3.19925C13.7775 3.11455 13.8971 3.05152 14.0256 3.01391C14.1541 2.9763 14.2888 2.96487 14.4218 2.9803C14.5548 2.99573 14.6833 3.0377 14.7998 3.10373C14.9162 3.16976 15.0182 3.25851 15.0998 3.3647C15.1813 3.47089 15.2406 3.59237 15.2743 3.72194C15.308 3.85151 15.3154 3.98652 15.2959 4.11897C15.2765 4.25143 15.2306 4.37863 15.1611 4.49303C15.0393 4.70795 14.9854 4.95468 15.0064 5.20081C15.0275 5.44693 15.1225 5.68092 15.2791 5.87203C15.6892 6.37456 15.9374 6.98957 15.9909 7.63598C16.0445 8.28239 15.9009 8.92986 15.5791 9.49303C15.4918 9.64708 15.3651 9.7752 15.2121 9.86428C15.0591 9.95335 14.8851 10.0002 14.7081 10Z" fill="currentColor"/>
<path d="M7.975 9.02477L10.949 11.9998H2V11.4998C1.99995 10.8075 2.20519 10.1308 2.58978 9.55514C2.97436 8.97952 3.521 8.53088 4.16057 8.26595C4.80015 8.00102 5.50392 7.93171 6.18289 8.06678C6.86185 8.20185 7.48552 8.53523 7.975 9.02477Z" fill="currentColor"/>
</svg>
