<svg viewBox="0 0 24 24" fill="none" xmlns="http://www.w3.org/2000/svg">
<path d="M9.79351 19.7041C11.1979 19.0804 12.8013 19.0804 14.2056 19.7041C15.093 20.0982 16.1063 20.0981 16.9937 19.7041C18.3104 19.1193 19.8017 19.083 21.1402 19.5947L21.4058 19.7041L21.4966 19.75C21.9369 20.0014 22.1239 20.5511 21.9136 21.0244C21.7033 21.4974 21.1706 21.7264 20.689 21.5684L20.5933 21.5322L20.4254 21.4629C19.5796 21.1398 18.6371 21.1627 17.8052 21.5322C16.4011 22.1557 14.7982 22.1557 13.3941 21.5322C12.5066 21.1381 11.4925 21.1381 10.605 21.5322C9.20089 22.1556 7.598 22.1558 6.19391 21.5322C5.30648 21.1382 4.29324 21.1381 3.40582 21.5322C2.90126 21.7561 2.30974 21.5288 2.08551 21.0244C1.86147 20.5199 2.08903 19.9285 2.59332 19.7041C3.99764 19.0804 5.60108 19.0805 7.00543 19.7041C7.89284 20.0982 8.90606 20.0981 9.79351 19.7041Z" fill="currentColor"/>
<path d="M9.79351 15.7041C11.1979 15.0804 12.8013 15.0804 14.2056 15.7041C15.093 16.0982 16.1063 16.0981 16.9937 15.7041C18.3104 15.1193 19.8017 15.083 21.1402 15.5947L21.4058 15.7041L21.4966 15.75C21.9369 16.0014 22.1239 16.5511 21.9136 17.0244C21.7033 17.4974 21.1706 17.7264 20.689 17.5684L20.5933 17.5322L20.4254 17.4629C19.5796 17.1398 18.6371 17.1627 17.8052 17.5322C16.4011 18.1557 14.7982 18.1557 13.3941 17.5322C12.5066 17.1381 11.4925 17.1381 10.605 17.5322C9.20089 18.1556 7.598 18.1558 6.19391 17.5322C5.30648 17.1382 4.29324 17.1381 3.40582 17.5322C2.90126 17.7561 2.30974 17.5288 2.08551 17.0244C1.86147 16.5199 2.08903 15.9285 2.59332 15.7041C3.99764 15.0804 5.60108 15.0805 7.00543 15.7041C7.89284 16.0982 8.90606 16.0981 9.79351 15.7041Z" fill="currentColor"/>
<path d="M17.4996 2C18.8799 2 19.9996 3.11972 19.9996 4.5C19.9996 5.05228 19.5519 5.5 18.9996 5.5C18.4475 5.49979 17.9996 5.05216 17.9996 4.5C17.9996 4.22428 17.7753 4 17.4996 4C17.224 4.00021 16.9996 4.22441 16.9996 4.5V14C16.9996 14.5523 16.5519 15 15.9996 15C15.4475 14.9998 14.9996 14.5522 14.9996 14V13H8.99957V14C8.99957 14.5523 8.55185 15 7.99957 15C7.44746 14.9998 6.99957 14.5522 6.99957 14V4.5C6.99957 3.11984 8.11946 2.00021 9.49957 2C10.8799 2 11.9996 3.11972 11.9996 4.5C11.9996 5.05228 11.5519 5.5 10.9996 5.5C10.4475 5.49979 9.99957 5.05216 9.99957 4.5C9.99957 4.22428 9.77528 4 9.49957 4C9.22403 4.00021 8.99957 4.22441 8.99957 4.5V7H14.9996V4.5C14.9996 3.11984 16.1195 2.00021 17.4996 2ZM8.99957 11H14.9996V9H8.99957V11Z" fill="currentColor"/>
</svg>
