<svg viewBox="0 0 24 24" fill="none" xmlns="http://www.w3.org/2000/svg">
<path d="M20 19C20 18.4477 19.5523 18 19 18H5C4.44772 18 4 18.4477 4 19V20H20V19ZM9.94922 15C9.17003 15.0001 8.50956 15.4085 8.1543 16H15.8457C15.4904 15.4085 14.83 15.0001 14.0508 15H9.94922ZM12.5 10.9707C12.3358 10.9889 12.1691 11 12 11C11.8309 11 11.6642 10.9889 11.5 10.9707V13H12.5V10.9707ZM14.5 6.5C14.5 5.11929 13.3807 4 12 4C10.6193 4 9.5 5.11929 9.5 6.5C9.5 7.88071 10.6193 9 12 9C13.3807 9 14.5 7.88071 14.5 6.5ZM16.5 6.5C16.5 8.06001 15.7057 9.43391 14.5 10.2412V13.0244C16.1849 13.2068 17.5812 14.402 17.999 16H19C20.6569 16 22 17.3431 22 19V20C22 21.1046 21.1046 22 20 22H4C2.89543 22 2 21.1046 2 20V19C2 17.3431 3.34315 16 5 16H6.00098C6.41876 14.402 7.81508 13.2068 9.5 13.0244V10.2412C8.29428 9.43391 7.5 8.06001 7.5 6.5C7.5 4.01472 9.51472 2 12 2C14.4853 2 16.5 4.01472 16.5 6.5Z" fill="currentColor"/>
</svg>
