<svg viewBox="0 0 32 32" fill="none" xmlns="http://www.w3.org/2000/svg">
<path d="M13.333 20.167C12.3767 20.1671 11.5463 20.7042 11.126 21.4932H20.874C20.4537 20.7042 19.6233 20.1671 18.667 20.167H13.333ZM16.5 14.8115C16.335 14.8248 16.1684 14.833 16 14.833C15.8316 14.833 15.665 14.8248 15.5 14.8115V17.167H16.5V14.8115ZM25.9971 25.6562C25.997 25.016 25.4771 24.4934 24.8311 24.4932H7.16699C6.5208 24.4932 6.00006 25.0158 6 25.6562V26.4932H25.9971V25.6562ZM19.167 8.66699C19.167 6.91809 17.7489 5.5 16 5.5C14.2511 5.50001 12.833 6.9181 12.833 8.66699C12.8332 10.4157 14.2512 11.833 16 11.833C17.7488 11.833 19.1668 10.4157 19.167 8.66699ZM22.167 8.66699C22.1669 10.7725 21.1106 12.6306 19.5 13.7432V17.2295C21.7557 17.5723 23.5601 19.2855 24.04 21.4932H24.8311C27.1301 21.4934 28.997 23.3553 28.9971 25.6562V26.6621C28.9969 28.2276 27.7268 29.4931 26.1641 29.4932H5.83301C4.27039 29.493 3.0002 28.2275 3 26.6621V25.6562C3.00006 23.3552 4.86774 21.4932 7.16699 21.4932H7.95996C8.43986 19.2855 10.2443 17.5724 12.5 17.2295V13.7432C10.8894 12.6306 9.83312 10.7725 9.83301 8.66699C9.83301 5.26124 12.5943 2.50001 16 2.5C19.4058 2.5 22.167 5.26124 22.167 8.66699Z" fill="currentColor"/>
</svg>
