<svg viewBox="0 0 16 16" fill="none" xmlns="http://www.w3.org/2000/svg">
<path d="M6.68359 9.85352C6.14236 9.85365 5.73352 10.12 5.55664 10.5156H10.4434C10.2665 10.12 9.85765 9.85364 9.31641 9.85352H6.68359ZM8.25 7.11816C8.16753 7.12497 8.08423 7.12988 8 7.12988C7.91577 7.12988 7.83247 7.12497 7.75 7.11816V8.35352H8.25V7.11816ZM13.25 12.5986C13.2499 12.2767 12.9889 12.0158 12.667 12.0156H3.33301C3.01107 12.0158 2.75013 12.2767 2.75 12.5986V13.2617H13.25V12.5986ZM9.5 4.12988C9.5 3.30146 8.82843 2.62988 8 2.62988C7.17157 2.62988 6.5 3.30146 6.5 4.12988C6.5 4.95831 7.17157 5.62988 8 5.62988C8.82843 5.62988 9.5 4.95831 9.5 4.12988ZM11 4.12988C11 5.13322 10.5055 6.01883 9.74902 6.56348C9.74904 6.56535 9.75 6.56746 9.75 6.56934V8.3877C10.8674 8.55328 11.8019 9.35031 11.999 10.5156H12.667C13.8174 10.5158 14.7499 11.4483 14.75 12.5986V13.3447C14.75 14.1271 14.1154 14.7617 13.333 14.7617H2.66699C1.88459 14.7617 1.25 14.1271 1.25 13.3447V12.5986C1.25013 11.4483 2.18265 10.5158 3.33301 10.5156H4.00098C4.19808 9.35032 5.13262 8.55329 6.25 8.3877V6.56348C5.49387 6.01879 5 5.13294 5 4.12988C5 2.47303 6.34315 1.12988 8 1.12988C9.65685 1.12988 11 2.47303 11 4.12988Z" fill="currentColor"/>
</svg>
