<svg viewBox="0 0 16 16" fill="none" xmlns="http://www.w3.org/2000/svg">
<path d="M4.81738 8.22461C5.25631 8.26954 5.59601 8.63903 5.59961 9.08398L5.5957 9.1748C5.5564 9.59482 5.21944 9.92001 4.80859 9.95801C4.78244 9.96078 4.7554 9.96287 4.72852 9.96289C4.70131 9.96289 4.67392 9.96084 4.64746 9.95801C4.23774 9.92002 3.90423 9.59742 3.86133 9.18164L3.85645 9.09082L3.86133 9.00195C3.90594 8.56249 4.27626 8.21989 4.72754 8.21973L4.81738 8.22461Z" fill="currentColor"/>
<path d="M11.3623 8.22461C11.8014 8.26939 12.1409 8.63892 12.1445 9.08398L12.1406 9.1748C12.1013 9.59492 11.7645 9.92015 11.3535 9.95801C11.3273 9.9608 11.3004 9.96288 11.2734 9.96289C11.2461 9.96289 11.2189 9.96086 11.1924 9.95801C10.7827 9.92002 10.4491 9.59744 10.4062 9.18164L10.4014 9.09082L10.4062 9.00195C10.4509 8.56249 10.8212 8.21989 11.2725 8.21973L11.3623 8.22461Z" fill="currentColor"/>
<path d="M9.25684 8.34668C9.63479 8.38512 9.93038 8.70474 9.93066 9.09277C9.93066 9.48102 9.63492 9.80036 9.25684 9.83887L9.18066 9.84277H6.82031C6.4061 9.84277 6.07031 9.50699 6.07031 9.09277C6.07062 8.67882 6.40629 8.34277 6.82031 8.34277H9.18066L9.25684 8.34668Z" fill="currentColor"/>
<path d="M4.81738 6.04199C5.25629 6.08689 5.59593 6.45646 5.59961 6.90137L5.5957 6.99219C5.55659 7.4124 5.21956 7.73736 4.80859 7.77539C4.78244 7.77817 4.7554 7.78025 4.72852 7.78027C4.70128 7.78027 4.67394 7.77823 4.64746 7.77539C4.23757 7.73739 3.904 7.41506 3.86133 6.99902L3.85645 6.9082L3.86133 6.81934C3.90604 6.37998 4.27633 6.03727 4.72754 6.03711L4.81738 6.04199Z" fill="currentColor"/>
<path d="M6.99805 6.04199C7.43718 6.08667 7.77659 6.45631 7.78027 6.90137L7.77637 6.99219C7.73724 7.41257 7.40045 7.73757 6.98926 7.77539C6.96299 7.77818 6.93619 7.78027 6.90918 7.78027C6.88184 7.78026 6.8547 7.77825 6.82812 7.77539C6.38407 7.73457 6.04157 7.36337 6.03711 6.91602V6.9082C6.03737 6.42437 6.43039 6.03737 6.9082 6.03711L6.99805 6.04199Z" fill="currentColor"/>
<path d="M9.18066 6.04199C9.61957 6.08689 9.95921 6.45646 9.96289 6.90137L9.95898 6.99219C9.91987 7.4124 9.58284 7.73736 9.17188 7.77539C9.14572 7.77817 9.11869 7.78025 9.0918 7.78027C9.06457 7.78027 9.03722 7.77823 9.01074 7.77539C8.5666 7.73465 8.22419 7.36342 8.21973 6.91602V6.9082C8.21999 6.42431 8.61293 6.03728 9.09082 6.03711L9.18066 6.04199Z" fill="currentColor"/>
<path d="M11.3623 6.04199C11.8014 6.08674 12.1409 6.45636 12.1445 6.90137L12.1406 6.99219C12.1015 7.41251 11.7646 7.7375 11.3535 7.77539C11.3273 7.77818 11.3004 7.78026 11.2734 7.78027C11.2461 7.78027 11.219 7.77824 11.1924 7.77539C10.7825 7.73739 10.4489 7.41506 10.4062 6.99902L10.4014 6.9082L10.4062 6.81934C10.4509 6.37996 10.8212 6.03727 11.2725 6.03711L11.3623 6.04199Z" fill="currentColor"/>
<path d="M11.9463 3.25C13.2182 3.25 14.2508 4.28075 14.251 5.55371V10.4473C14.25 11.719 13.2189 12.7498 11.9463 12.75H4.05371C2.78194 12.7498 1.75016 11.7191 1.75 10.4463V5.55371C1.75016 4.28106 2.78106 3.25016 4.05371 3.25H11.9463ZM4.05371 4.75C3.60949 4.75016 3.25016 5.10949 3.25 5.55371V10.4463C3.25016 10.8903 3.60994 11.2498 4.05371 11.25H11.9463C12.3629 11.2499 12.7046 10.9337 12.7461 10.5283L12.751 10.4463V5.55371C12.7508 5.1096 12.3902 4.75 11.9463 4.75H4.05371Z" fill="currentColor"/>
</svg>
