<svg viewBox="0 0 16 16" fill="none" xmlns="http://www.w3.org/2000/svg">
<path d="M0.666667 0.666504H15.3333C15.7013 0.666504 16 0.965171 16 1.33317V9.33317C16 9.70117 15.7013 9.99984 15.3333 9.99984H0.666667C0.298667 9.99984 0 9.70117 0 9.33317V1.33317C0 0.965171 0.298667 0.666504 0.666667 0.666504ZM7.33333 3.33317H5.33333V4.6665H7.33333V3.33317ZM2 7.33317H4V5.99984H2V7.33317ZM2 4.6665H4V3.33317H2V4.6665ZM5.33333 7.33317H10.6667V5.99984H5.33333V7.33317ZM8.66667 4.6665H10.6667V3.33317H8.66667V4.6665ZM12 7.33317H14V5.99984H12V7.33317ZM12 4.6665H14V3.33317H12V4.6665Z" fill="currentColor"/>
<path d="M7.5999 15.1998C7.71857 15.2885 7.85924 15.3332 7.9999 15.3332C8.14057 15.3332 8.28124 15.2885 8.3999 15.1998L11.5999 12.7998L10.7999 11.7332L7.9999 13.8332L5.1999 11.7332L4.3999 12.7998L7.5999 15.1998Z" fill="currentColor"/>
</svg>
