<svg viewBox="0 0 32 32" fill="none" xmlns="http://www.w3.org/2000/svg">
<path d="M9.6084 16.6963C10.3606 16.7729 10.9401 17.4065 10.9463 18.1689C10.9542 18.9637 10.3465 19.5977 9.59082 19.666C9.54653 19.6708 9.50161 19.6738 9.45605 19.6738C9.41016 19.6738 9.36492 19.6708 9.32031 19.666C8.61631 19.6022 8.04274 19.0498 7.96973 18.3359L7.96191 18.1816L7.96973 18.0283C8.04622 17.2753 8.68171 16.6885 9.45508 16.6885L9.6084 16.6963ZM9.5625 17.1797L9.55762 17.1787L9.45605 17.1738L9.5625 17.1797Z" fill="currentColor"/>
<path d="M22.6992 16.6963C23.4512 16.7731 24.0309 17.4066 24.0371 18.1689C24.045 18.9636 23.4371 19.5976 22.6816 19.666C22.6375 19.6708 22.5923 19.6738 22.5469 19.6738C22.5011 19.6738 22.4556 19.6708 22.4111 19.666C21.7071 19.6022 21.1336 19.0498 21.0605 18.3359L21.0527 18.1816L21.0605 18.0283C21.1371 17.2753 21.7725 16.6885 22.5459 16.6885L22.6992 16.6963ZM22.6533 17.1797L22.6484 17.1787L22.5469 17.1738L22.6533 17.1797Z" fill="currentColor"/>
<path d="M18.4873 16.9434C19.1177 17.0073 19.6094 17.5402 19.6094 18.1875C19.609 18.8344 19.1174 19.3667 18.4873 19.4307L18.3594 19.4375H13.6396C12.9497 19.4373 12.3901 18.8774 12.3896 18.1875C12.3896 17.4973 12.9494 16.9377 13.6396 16.9375H18.3594L18.4873 16.9434Z" fill="currentColor"/>
<path d="M9.6084 12.332C10.3605 12.4087 10.9399 13.0424 10.9463 13.8047C10.9542 14.5994 10.3465 15.2335 9.59082 15.3018C9.54653 15.3065 9.50161 15.3096 9.45605 15.3096C9.41016 15.3096 9.36492 15.3066 9.32031 15.3018C8.61632 15.238 8.04274 14.6855 7.96973 13.9717L7.96191 13.8174L7.96973 13.6641C8.04637 12.9112 8.68182 12.3242 9.45508 12.3242L9.6084 12.332ZM9.5625 12.8154L9.55762 12.8145L9.45605 12.8096L9.5625 12.8154Z" fill="currentColor"/>
<path d="M13.9707 12.332C14.7228 12.4087 15.3022 13.0424 15.3086 13.8047C15.3165 14.5994 14.7088 15.2335 13.9531 15.3018C13.9089 15.3065 13.8638 15.3096 13.8184 15.3096C13.7729 15.3096 13.7278 15.3075 13.6836 15.3027C12.9208 15.2347 12.3318 14.5973 12.3242 13.8291V13.8174C12.3244 12.9882 12.9984 12.3244 13.8174 12.3242L13.9707 12.332ZM13.9277 12.8164L13.9219 12.8145L13.8184 12.8096L13.9277 12.8164Z" fill="currentColor"/>
<path d="M18.335 12.332C19.087 12.4087 19.6665 13.0424 19.6729 13.8047C19.6807 14.5994 19.073 15.2335 18.3174 15.3018C18.2731 15.3065 18.2282 15.3096 18.1826 15.3096C18.1371 15.3096 18.0921 15.3075 18.0479 15.3027C17.2849 15.2349 16.6961 14.5974 16.6885 13.8291V13.8174C16.6887 12.988 17.3625 12.3242 18.1816 12.3242L18.335 12.332ZM18.292 12.8164L18.2861 12.8145L18.1826 12.8096L18.292 12.8164Z" fill="currentColor"/>
<path d="M22.6992 12.332C23.4512 12.4088 24.0307 13.0425 24.0371 13.8047C24.045 14.5993 23.4371 15.2333 22.6816 15.3018C22.6375 15.3065 22.5923 15.3096 22.5469 15.3096C22.5011 15.3096 22.4557 15.3066 22.4111 15.3018C21.7071 15.238 21.1336 14.6855 21.0605 13.9717L21.0527 13.8174L21.0605 13.6641C21.1372 12.9112 21.7727 12.3242 22.5459 12.3242L22.6992 12.332ZM22.6533 12.8154L22.6484 12.8145L22.5469 12.8096L22.6533 12.8154Z" fill="currentColor"/>
<path d="M23.8936 6.75C26.2995 6.75012 28.251 8.70043 28.251 11.1084V20.8945C28.249 23.3002 26.2991 25.25 23.8916 25.25H8.1084C5.70239 25.25 3.75 23.2996 3.75 20.8916V11.1084C3.75 8.70071 5.70071 6.75 8.1084 6.75H23.8936ZM8.1084 9.25C7.08142 9.25 6.25 10.0814 6.25 11.1084V20.8916C6.25 21.9182 7.08241 22.75 8.1084 22.75H23.8916C24.9183 22.75 25.7495 21.9192 25.751 20.8936V11.1084C25.751 10.0818 24.9194 9.25012 23.8936 9.25H8.1084Z" fill="currentColor"/>
</svg>
