<svg viewBox="0 0 16 16" fill="none" xmlns="http://www.w3.org/2000/svg">
<path d="M15.3333 3.33301H0.666667C0.298667 3.33301 0 3.63167 0 3.99967V11.9997C0 12.3677 0.298667 12.6663 0.666667 12.6663H15.3333C15.7013 12.6663 16 12.3677 16 11.9997V3.99967C16 3.63167 15.7013 3.33301 15.3333 3.33301ZM5.33333 5.99967H7.33333V7.33301H5.33333V5.99967ZM4 9.99967H2V8.66634H4V9.99967ZM4 7.33301H2V5.99967H4V7.33301ZM10.6667 9.99967H5.33333V8.66634H10.6667V9.99967ZM10.6667 7.33301H8.66667V5.99967H10.6667V7.33301ZM14 9.99967H12V8.66634H14V9.99967ZM14 7.33301H12V5.99967H14V7.33301Z" fill="currentColor"/>
</svg>
