<svg viewBox="0 0 32 32" fill="none" xmlns="http://www.w3.org/2000/svg">
<path d="M1.33333 1.3335H30.6667C31.4027 1.3335 32 1.93083 32 2.66683V18.6668C32 19.4028 31.4027 20.0002 30.6667 20.0002H1.33333C0.597333 20.0002 0 19.4028 0 18.6668V2.66683C0 1.93083 0.597333 1.3335 1.33333 1.3335ZM14.6667 6.66683H10.6667V9.3335H14.6667V6.66683ZM4 14.6668H8V12.0002H4V14.6668ZM4 9.3335H8V6.66683H4V9.3335ZM10.6667 14.6668H21.3333V12.0002H10.6667V14.6668ZM17.3333 9.3335H21.3333V6.66683H17.3333V9.3335ZM24 14.6668H28V12.0002H24V14.6668ZM24 9.3335H28V6.66683H24V9.3335Z" fill="currentColor"/>
<path d="M15.2 30.4001C15.4374 30.5775 15.7187 30.6668 16 30.6668C16.2814 30.6668 16.5627 30.5775 16.8 30.4001L23.2 25.6001L21.6 23.4668L16 27.6668L10.4 23.4668L8.80005 25.6001L15.2 30.4001Z" fill="currentColor"/>
</svg>
