<svg viewBox="0 0 24 24" fill="none" xmlns="http://www.w3.org/2000/svg">
<path d="M7.21191 12.46C7.80775 12.5204 8.26742 13.0221 8.27246 13.626L8.26758 13.749C8.21449 14.321 7.75554 14.7624 7.19531 14.8115C7.16131 14.815 7.12672 14.8174 7.0918 14.8174C7.05654 14.8174 7.02162 14.8151 6.9873 14.8115C6.42852 14.7622 5.9728 14.3242 5.91504 13.7578L5.90918 13.6357L5.91504 13.5146C5.9757 12.9185 6.47859 12.4542 7.09082 12.4541L7.21191 12.46Z" fill="currentColor"/>
<path d="M17.0303 12.46C17.626 12.5205 18.0858 13.0222 18.0908 13.626L18.0859 13.749C18.0329 14.3209 17.5738 14.7624 17.0137 14.8115C16.9797 14.815 16.9451 14.8174 16.9102 14.8174C16.8749 14.8174 16.84 14.8151 16.8057 14.8115C16.2468 14.7623 15.7912 14.3243 15.7334 13.7578L15.7275 13.6357L15.7334 13.5146C15.7941 12.9185 16.2969 12.4541 16.9092 12.4541L17.0303 12.46Z" fill="currentColor"/>
<path d="M13.873 12.6445C14.3768 12.6961 14.7703 13.1223 14.7705 13.6396C14.7705 14.1571 14.3769 14.5832 13.873 14.6348L13.7705 14.6396H10.2305C9.67818 14.6396 9.23047 14.1919 9.23047 13.6396C9.23066 13.0875 9.6783 12.6396 10.2305 12.6396H13.7705L13.873 12.6445Z" fill="currentColor"/>
<path d="M7.21191 9.1875C7.80783 9.24795 8.26755 9.74957 8.27246 10.3535L8.26758 10.4766C8.21435 11.0484 7.75544 11.49 7.19531 11.5391C7.16133 11.5426 7.1267 11.5449 7.0918 11.5449C7.05654 11.5449 7.02162 11.5426 6.9873 11.5391C6.42858 11.4898 5.97291 11.0517 5.91504 10.4854L5.90918 10.3633L5.91504 10.2422C5.97559 9.64595 6.47851 9.18173 7.09082 9.18164L7.21191 9.1875Z" fill="currentColor"/>
<path d="M10.4844 9.1875C11.0801 9.24809 11.54 9.74967 11.5449 10.3535L11.54 10.4766C11.4868 11.0483 11.0278 11.4899 10.4678 11.5391C10.4338 11.5426 10.3991 11.5449 10.3643 11.5449C10.3294 11.5449 10.2947 11.5426 10.2607 11.5391C9.69512 11.4902 9.24975 11.0471 9.18848 10.4922L9.18164 10.373V10.3633C9.18164 9.70642 9.71458 9.18164 10.3633 9.18164L10.4844 9.1875Z" fill="currentColor"/>
<path d="M13.7568 9.1875C14.3528 9.24795 14.8125 9.74957 14.8174 10.3535L14.8125 10.4766C14.7593 11.0484 14.3004 11.49 13.7402 11.5391C13.7063 11.5426 13.6716 11.5449 13.6367 11.5449C13.6018 11.5449 13.5672 11.5426 13.5332 11.5391C12.9677 11.4901 12.5222 11.047 12.4609 10.4922L12.4541 10.373V10.3633C12.4541 9.70651 12.9872 9.18178 13.6357 9.18164L13.7568 9.1875Z" fill="currentColor"/>
<path d="M17.0303 9.1875C17.6261 9.24804 18.0859 9.74964 18.0908 10.3535L18.0859 10.4766C18.0327 11.0484 17.5737 11.4899 17.0137 11.5391C16.9797 11.5426 16.9451 11.5449 16.9102 11.5449C16.8749 11.5449 16.84 11.5426 16.8057 11.5391C16.2469 11.4898 15.7913 11.0517 15.7334 10.4854L15.7275 10.3633L15.7334 10.2422C15.794 9.64589 16.2968 9.18164 16.9092 9.18164L17.0303 9.1875Z" fill="currentColor"/>
<path d="M17.9199 5C19.7589 5 21.251 6.49049 21.251 8.33105V15.6709C21.2495 17.5097 19.7591 19 17.9189 19H6.08105C4.24205 19 2.75 17.5095 2.75 15.6689V8.33105C2.75 6.49077 4.24077 5 6.08105 5H17.9199ZM6.08105 7C5.34534 7 4.75 7.59534 4.75 8.33105V15.6689C4.75 16.4044 5.34606 17 6.08105 17H17.9189C18.6546 17 19.25 16.4048 19.251 15.6699V8.33105C19.251 7.59562 18.6549 7 17.9199 7H6.08105Z" fill="currentColor"/>
</svg>
