<svg viewBox="0 0 16 16" fill="none" xmlns="http://www.w3.org/2000/svg">
<path d="M9.26172 12.0381C9.58085 11.8323 10.0104 11.8974 10.2529 12.2002C10.4952 12.5035 10.4648 12.938 10.1934 13.2041L10.1367 13.2549L8.46875 14.5889C8.22926 14.7803 7.90121 14.8036 7.63965 14.6602L7.53223 14.5889L5.86426 13.2549L5.80664 13.2041C5.5353 12.9379 5.50448 12.5034 5.74707 12.2002C5.98963 11.897 6.41997 11.8319 6.73926 12.0381L6.80176 12.083L8 13.042L9.19922 12.083L9.26172 12.0381Z" fill="currentColor"/>
<path d="M4.81543 6.22363C5.25459 6.26833 5.59399 6.63793 5.59766 7.08301L5.59375 7.17383C5.55465 7.59425 5.21786 7.9192 4.80664 7.95703C4.78042 7.95981 4.75352 7.96191 4.72656 7.96191C4.69955 7.96191 4.67275 7.95982 4.64648 7.95703C4.23617 7.91938 3.90206 7.59703 3.85938 7.18066L3.85449 7.08984L3.85938 7.00098C3.90404 6.56158 4.2744 6.21898 4.72559 6.21875L4.81543 6.22363Z" fill="currentColor"/>
<path d="M11.3633 6.22363C11.8025 6.26825 12.1418 6.63787 12.1455 7.08301L12.1416 7.17383C12.1025 7.5943 11.7658 7.91927 11.3545 7.95703C11.3282 7.95982 11.3014 7.96191 11.2744 7.96191C11.2474 7.96191 11.2207 7.95983 11.1943 7.95703C10.784 7.91938 10.4499 7.59704 10.4072 7.18066L10.4023 7.08984L10.4072 7.00098C10.4519 6.56158 10.8222 6.21898 11.2734 6.21875L11.3633 6.22363Z" fill="currentColor"/>
<path d="M9.25684 6.34668C9.63498 6.38498 9.93043 6.70459 9.93066 7.09277C9.9305 7.48102 9.63502 7.80155 9.25684 7.83984L9.18066 7.84277H6.81934C6.40531 7.84269 6.06951 7.50678 6.06934 7.09277C6.06959 6.67883 6.40535 6.34286 6.81934 6.34277H9.18066L9.25684 6.34668Z" fill="currentColor"/>
<path d="M4.81543 4.04102C5.25458 4.08572 5.59399 4.45532 5.59766 4.90039L5.59375 4.99121C5.55454 5.41152 5.2178 5.7366 4.80664 5.77441C4.78042 5.77719 4.75352 5.77929 4.72656 5.7793C4.69956 5.77929 4.67275 5.7772 4.64648 5.77441C4.23625 5.73677 3.90216 5.4143 3.85938 4.99805L3.85449 4.90723L3.85938 4.81836C3.90404 4.37897 4.2744 4.03637 4.72559 4.03613L4.81543 4.04102Z" fill="currentColor"/>
<path d="M6.99805 4.04102C7.43704 4.08587 7.77661 4.45543 7.78027 4.90039L7.77637 4.99121C7.73718 5.41143 7.40028 5.73646 6.98926 5.77441C6.96314 5.77718 6.93603 5.77927 6.90918 5.7793C6.88262 5.77929 6.85592 5.77712 6.83008 5.77441C6.41459 5.73715 6.08815 5.41078 6.04297 5.00293L6.03711 4.91504V4.90723C6.03736 4.42333 6.43035 4.03638 6.9082 4.03613L6.99805 4.04102Z" fill="currentColor"/>
<path d="M9.18066 4.04102C9.61982 4.08572 9.95922 4.45532 9.96289 4.90039L9.95898 4.99121C9.91978 5.41152 9.58303 5.7366 9.17188 5.77441C9.14565 5.77719 9.11876 5.77929 9.0918 5.7793C9.06513 5.77929 9.03864 5.77714 9.0127 5.77441C8.5972 5.73715 8.27076 5.4108 8.22559 5.00293L8.21973 4.91504V4.90723C8.21998 4.42333 8.61297 4.03638 9.09082 4.03613L9.18066 4.04102Z" fill="currentColor"/>
<path d="M11.3633 4.04102C11.8025 4.08565 12.1418 4.45527 12.1455 4.90039L12.1416 4.99121C12.1024 5.41156 11.7657 5.73666 11.3545 5.77441C11.3282 5.7772 11.3014 5.7793 11.2744 5.7793C11.2474 5.77929 11.2206 5.77721 11.1943 5.77441C10.7841 5.73677 10.45 5.41431 10.4072 4.99805L10.4023 4.90723L10.4072 4.81836C10.4519 4.37897 10.8222 4.03637 11.2734 4.03613L11.3633 4.04102Z" fill="currentColor"/>
<path d="M11.7803 1.24707C13.0525 1.24707 14.0848 2.27848 14.085 3.55176V8.44727C14.0838 9.71922 13.0531 10.7498 11.7803 10.75H4.21875C2.9465 10.7499 1.91406 9.71868 1.91406 8.44531V3.55176C1.91426 2.27877 2.94575 1.2472 4.21875 1.24707H11.7803ZM4.21875 2.74707C3.77417 2.7472 3.41426 3.1072 3.41406 3.55176V8.44531C3.41406 8.88983 3.77451 9.24987 4.21875 9.25H11.7803C12.1971 9.24979 12.5395 8.93391 12.5811 8.52832L12.585 8.44629V3.55176C12.5848 3.10733 12.2245 2.74707 11.7803 2.74707H4.21875Z" fill="currentColor"/>
</svg>
