<svg viewBox="0 0 24 24" fill="none" xmlns="http://www.w3.org/2000/svg">
<path d="M11.5186 18.126C11.8675 17.9342 12.3054 17.966 12.625 18.2217L15.126 20.2227L15.2021 20.291C15.5638 20.646 15.6056 21.2246 15.2822 21.6289C14.9589 22.0329 14.3856 22.1193 13.96 21.8447L13.876 21.7842L12 20.2832L10.124 21.7842L10.041 21.8447C9.61532 22.1198 9.04128 22.0331 8.71777 21.6289C8.37278 21.1977 8.44282 20.5677 8.87402 20.2227L11.375 18.2217L11.5186 18.126Z" fill="currentColor"/>
<path d="M7.21094 9.45898C7.80626 9.51983 8.26528 10.0216 8.27051 10.625C8.27711 11.2915 7.73655 11.8173 7.08984 11.8174L6.9707 11.8105C6.41847 11.7549 5.97025 11.3185 5.91309 10.7568L5.90723 10.6348L5.91309 10.5137C5.97393 9.9177 6.47675 9.45323 7.08887 9.45312L7.21094 9.45898Z" fill="currentColor"/>
<path d="M17.0332 9.45898C17.6284 9.51991 18.0876 10.0217 18.0928 10.625C18.0994 11.2914 17.5587 11.8172 16.9121 11.8174L16.793 11.8105C16.2407 11.7549 15.7925 11.3185 15.7354 10.7568L15.7295 10.6348L15.7354 10.5137C15.7962 9.9177 16.299 9.45323 16.9111 9.45312L17.0332 9.45898Z" fill="currentColor"/>
<path d="M13.873 9.64551C14.3771 9.69682 14.7704 10.1221 14.7705 10.6396C14.7703 11.1572 14.3771 11.5835 13.873 11.6348L13.7705 11.6396H10.2295C9.67736 11.6396 9.22974 11.1917 9.22949 10.6396C9.2296 10.0875 9.67728 9.63965 10.2295 9.63965H13.7705L13.873 9.64551Z" fill="currentColor"/>
<path d="M7.21094 6.18457C7.80625 6.24541 8.26526 6.74722 8.27051 7.35059C8.27711 8.01704 7.73655 8.54286 7.08984 8.54297L6.9707 8.53613C6.41847 8.48053 5.97025 8.04407 5.91309 7.48242L5.90723 7.36035L5.91309 7.23926C5.97395 6.6433 6.47677 6.17882 7.08887 6.17871L7.21094 6.18457Z" fill="currentColor"/>
<path d="M10.4844 6.18457C11.0797 6.24544 11.5387 6.74724 11.5439 7.35059C11.5505 8.01702 11.01 8.54282 10.3633 8.54297L10.2422 8.53613C9.6451 8.47564 9.18664 7.97353 9.18066 7.37012V7.36035C9.18103 6.70382 9.71389 6.17882 10.3623 6.17871L10.4844 6.18457Z" fill="currentColor"/>
<path d="M13.7588 6.18457C14.354 6.24546 14.8131 6.74726 14.8184 7.35059C14.825 8.017 14.2843 8.54279 13.6377 8.54297L13.5166 8.53613C12.9195 8.47564 12.4611 7.97353 12.4551 7.37012V7.36035C12.4554 6.70382 12.9883 6.17882 13.6367 6.17871L13.7588 6.18457Z" fill="currentColor"/>
<path d="M17.0332 6.18457C17.6284 6.24549 18.0875 6.74727 18.0928 7.35059C18.0994 8.01698 17.5587 8.54277 16.9121 8.54297L16.793 8.53613C16.2407 8.48053 15.7925 8.04407 15.7354 7.48242L15.7295 7.36035L15.7354 7.23926C15.7962 6.64331 16.299 6.17882 16.9111 6.17871L17.0332 6.18457Z" fill="currentColor"/>
<path d="M17.6719 1.99609C19.5111 1.99642 21.0038 3.48728 21.0039 5.32812V12.6709C21.0025 14.51 19.5113 16.0006 17.6709 16.001H6.3291C4.48956 16.001 2.99609 14.51 2.99609 12.6689V5.32812C2.99616 3.48736 4.48832 1.99609 6.3291 1.99609H17.6719ZM6.3291 3.99609C5.59289 3.99609 4.99714 4.59193 4.99707 5.32812V12.6689C4.99707 13.4049 5.59357 14.001 6.3291 14.001H17.6709C18.4068 14.0006 19.003 13.4052 19.0039 12.6699V5.32812C19.0038 4.59241 18.4071 3.99642 17.6719 3.99609H6.3291Z" fill="currentColor"/>
</svg>
