<svg viewBox="0 0 32 32" fill="none" xmlns="http://www.w3.org/2000/svg">
<path d="M15.3066 24.2969C15.7555 23.9974 16.3523 24.0184 16.7803 24.3604L20.1152 27.0283L20.2109 27.1133C20.6632 27.5569 20.7146 28.2797 20.3105 28.7852C19.9062 29.2906 19.1894 29.3995 18.6572 29.0557L18.5537 28.9805L15.999 26.9375L13.4463 28.9805L13.3418 29.0557C12.8096 29.3993 12.0927 29.2905 11.6885 28.7852C11.2578 28.2461 11.345 27.4594 11.8838 27.0283L15.2188 24.3604L15.3066 24.2969Z" fill="currentColor"/>
<path d="M9.60547 12.6953C10.3617 12.7725 10.9453 13.4127 10.9453 14.1807C10.9467 15.0161 10.2656 15.6736 9.45312 15.6738L9.30176 15.666C8.6049 15.5955 8.03926 15.0436 7.9668 14.335L7.95898 14.1807L7.9668 14.0283C8.04296 13.2749 8.67849 12.6875 9.45215 12.6875L9.60547 12.6953Z" fill="currentColor"/>
<path d="M22.7012 12.6953C23.4576 12.7723 24.041 13.4126 24.041 14.1807C24.0424 15.0162 23.3616 15.6738 22.5488 15.6738L22.3975 15.666C21.7006 15.5955 21.1349 15.0436 21.0625 14.335L21.0547 14.1807L21.0625 14.0283C21.1387 13.2749 21.7742 12.6875 22.5479 12.6875L22.7012 12.6953Z" fill="currentColor"/>
<path d="M18.4893 12.9424C19.1193 13.0065 19.6112 13.5386 19.6113 14.1855C19.6113 14.8326 19.1194 15.3645 18.4893 15.4287L18.3613 15.4355H13.6396C12.9493 15.4355 12.3897 14.8759 12.3896 14.1855C12.3898 13.4953 12.9494 12.9355 13.6396 12.9355H18.3613L18.4893 12.9424Z" fill="currentColor"/>
<path d="M9.60547 8.3291C10.3616 8.40624 10.9452 9.04663 10.9453 9.81445C10.9468 10.65 10.2657 11.3074 9.45312 11.3076L9.30176 11.2998C8.6048 11.2292 8.03914 10.6775 7.9668 9.96875L7.95898 9.81445L7.9668 9.66211C8.0431 8.90882 8.67859 8.32129 9.45215 8.32129L9.60547 8.3291Z" fill="currentColor"/>
<path d="M13.9697 8.3291C14.7261 8.40603 15.3094 9.04647 15.3096 9.81445C15.3111 10.6501 14.6302 11.3076 13.8174 11.3076L13.665 11.2998C12.961 11.2288 12.4096 10.6713 12.333 9.97754L12.3232 9.82715V9.81445C12.3234 8.985 12.9972 8.32129 13.8164 8.32129L13.9697 8.3291Z" fill="currentColor"/>
<path d="M18.3359 8.3291C19.0921 8.40624 19.6757 9.04663 19.6758 9.81445C19.6773 10.65 18.9962 11.3074 18.1836 11.3076L18.0312 11.2998C17.3272 11.2288 16.7759 10.6713 16.6992 9.97754L16.6895 9.82715V9.81445C16.6896 8.985 17.3634 8.32129 18.1826 8.32129L18.3359 8.3291Z" fill="currentColor"/>
<path d="M22.7012 8.3291C23.4576 8.40603 24.0409 9.04647 24.041 9.81445C24.0425 10.6501 23.3616 11.3076 22.5488 11.3076L22.3975 11.2998C21.7005 11.2292 21.1348 10.6775 21.0625 9.96875L21.0547 9.81445L21.0625 9.66211C21.1388 8.90879 21.7743 8.32129 22.5479 8.32129L22.7012 8.3291Z" fill="currentColor"/>
<path d="M23.5625 2.74512C25.9688 2.74564 27.9209 4.69606 27.9209 7.10449V16.8945C27.9189 19.3007 25.9685 21.2517 23.5605 21.252H8.43848C6.03187 21.252 4.07831 19.3012 4.07812 16.8926V7.10449C4.07812 4.69609 6.03007 2.74512 8.43848 2.74512H23.5625ZM8.43848 5.24512C7.41078 5.24512 6.5791 6.0768 6.5791 7.10449V16.8926C6.57928 17.9198 7.41188 18.752 8.43848 18.752H23.5605C24.5879 18.7517 25.4196 17.9199 25.4209 16.8936V7.10449C25.4209 6.07747 24.5888 5.24564 23.5625 5.24512H8.43848Z" fill="currentColor"/>
</svg>
