<svg viewBox="0 0 32 32" fill="none" xmlns="http://www.w3.org/2000/svg">
<path d="M30.6667 6.6665H1.33333C0.597333 6.6665 0 7.26384 0 7.99984V23.9998C0 24.7358 0.597333 25.3332 1.33333 25.3332H30.6667C31.4027 25.3332 32 24.7358 32 23.9998V7.99984C32 7.26384 31.4027 6.6665 30.6667 6.6665ZM10.6667 11.9998H14.6667V14.6665H10.6667V11.9998ZM8 19.9998H4V17.3332H8V19.9998ZM8 14.6665H4V11.9998H8V14.6665ZM21.3333 19.9998H10.6667V17.3332H21.3333V19.9998ZM21.3333 14.6665H17.3333V11.9998H21.3333V14.6665ZM28 19.9998H24V17.3332H28V19.9998ZM28 14.6665H24V11.9998H28V14.6665Z" fill="currentColor"/>
</svg>
