<svg viewBox="0 0 24 24" fill="none" xmlns="http://www.w3.org/2000/svg">
<path d="M1 1H23C23.552 1 24 1.448 24 2V14C24 14.552 23.552 15 23 15H1C0.448 15 0 14.552 0 14V2C0 1.448 0.448 1 1 1ZM11 5H8V7H11V5ZM3 11H6V9H3V11ZM3 7H6V5H3V7ZM8 11H16V9H8V11ZM13 7H16V5H13V7ZM18 11H21V9H18V11ZM18 7H21V5H18V7Z" fill="currentColor"/>
<path d="M11.4001 22.8001C11.5781 22.9331 11.7891 23.0001 12.0001 23.0001C12.2111 23.0001 12.4221 22.9331 12.6001 22.8001L17.4001 19.2001L16.2001 17.6001L12.0001 20.7501L7.8001 17.6001L6.6001 19.2001L11.4001 22.8001Z" fill="currentColor"/>
</svg>
