<svg viewBox="0 0 32 32" fill="none" xmlns="http://www.w3.org/2000/svg">
<path d="M6.00881 21.5C6.07135 22.1918 6.49402 22.4528 6.63674 22.4746H6.63772C6.73735 22.4896 6.83784 22.4982 6.93752 22.5H25.0908C25.1326 22.5 25.2279 22.4938 25.3672 22.4775C25.5104 22.453 25.9333 22.1966 25.9922 21.5H6.00881ZM8.50002 18.5H23.5V8.5H8.50002V18.5ZM26.5 18.5H27.2266C28.4682 18.5002 28.9999 19.61 29 20.333V21.3105L28.9873 21.6631C28.857 23.4301 27.6958 25.1982 25.753 25.4541C25.7469 25.4549 25.7405 25.4563 25.7344 25.457C25.5122 25.4835 25.2878 25.5 25.0908 25.5H6.88186C6.6504 25.4957 6.41949 25.476 6.19045 25.4414V25.4404C4.15255 25.1336 2.99391 23.1659 3.00002 21.3066V20.333C3.00018 19.61 3.5318 18.5002 4.77346 18.5H5.50002V8C5.50002 6.53973 6.72742 5.50009 8.05862 5.5H23.9414C25.2726 5.50014 26.5 6.53976 26.5 8V18.5Z" fill="currentColor"/>
</svg>
