<svg viewBox="0 0 24 24" fill="none" xmlns="http://www.w3.org/2000/svg">
<path d="M4.00002 17C4.00302 17.6221 4.38804 17.9421 4.64064 17.9785H4.64162C4.72867 17.9911 4.81597 17.9985 4.90334 18H19.1143C19.1582 18 19.2433 17.9947 19.3604 17.9814C19.6125 17.9453 20.0002 17.6278 20 17H4.00002ZM6.00002 15H18V6H6.00002V15ZM20 15H20.7862C21.5956 15.0003 22 15.7099 22 16.25V16.9834L21.9903 17.2451C21.8898 18.5537 20.9963 19.7921 19.6045 19.9678L19.5928 19.9688C19.4242 19.988 19.2574 20 19.1143 20H4.86818C4.78245 19.9985 4.69678 19.9942 4.61135 19.9873L4.35549 19.958C2.89373 19.7475 1.99526 18.3674 2.00002 16.9805V16.25C2.00002 15.7099 2.40447 15.0003 3.21389 15H4.00002V5.8457C4.00026 4.85211 4.79108 4.00016 5.82326 4H18.1768C19.209 4.00016 19.9998 4.85211 20 5.8457V15Z" fill="currentColor"/>
</svg>
