<svg viewBox="0 0 16 16" fill="none" xmlns="http://www.w3.org/2000/svg">
<path d="M2.50685 11.5C2.5409 11.8038 2.7451 11.9657 2.89259 11.9863H2.89357C2.95293 11.9946 3.01264 11.999 3.07228 12H12.9404C12.9693 12 13.0264 11.9968 13.1055 11.9883C13.253 11.9694 13.4606 11.8086 13.4932 11.5H2.50685ZM3.75001 10H12.25V4H3.75001V10ZM13.75 10H14.1016C14.6754 10.0002 15 10.493 15 10.917V11.4053L14.9932 11.5898C14.9195 12.5126 14.2644 13.3597 13.2842 13.4785L13.2764 13.4795C13.1586 13.4924 13.0412 13.5 12.9404 13.5H3.04689C2.98658 13.499 2.92634 13.4959 2.86622 13.4912L2.68751 13.4717C1.65753 13.3292 0.996507 12.3849 1.00001 11.4033V10.917C1.00001 10.493 1.32463 10.0002 1.89845 10H2.25001V3.82715C2.25001 3.08076 2.86276 2.50018 3.5879 2.5H12.4121C13.1373 2.50018 13.75 3.08076 13.75 3.82715V10Z" fill="currentColor"/>
</svg>
