<svg viewBox="0 0 24 24" fill="none" xmlns="http://www.w3.org/2000/svg">
<path d="M10.4883 3.02762C11.6435 1.62224 13.9996 2.41501 14 4.30301V9L18.0127 8.99991C19.6143 9.00033 20.5572 10.8006 19.6465 12.1181L13.6201 20.8535C12.5116 22.4529 10 21.6722 10 19.7227V15L5.9893 14.9728C4.38738 14.9726 3.44248 13.1724 4.35648 11.8537L10.3799 3.17117L10.4883 3.02762ZM6.01469 12.9728L11 13C11.5519 13.0003 11.9998 13.4481 12 14V19.6797L17.9864 10.9999L13 11C12.4479 10.9998 12 10.5522 12 10V4.345L6.01469 12.9728Z" fill="currentColor"/>
</svg>
