<svg viewBox="0 0 32 32" fill="none" xmlns="http://www.w3.org/2000/svg">
<path d="M13.786 4.12187C14.6655 2.87429 16.1179 2.8182 17.1058 3.22797C18.0784 3.63144 19.0061 4.62319 19.0061 5.99661V11.9989H24.2242C26.5239 11.9989 27.7693 14.5083 26.4938 16.3531C26.4889 16.3602 26.4832 16.3676 26.4781 16.3746L18.2382 27.8585C17.3601 29.1254 15.8977 29.1838 14.9046 28.772C13.9321 28.3686 13.0035 27.3777 13.0034 26.0043V20.002H7.80089C5.53549 20.0017 4.2185 17.5203 5.51765 15.6458L5.53132 15.6253L13.785 4.12089L13.786 4.12187ZM8.23858 17.0008H14.5041C15.3329 17.0008 16.0047 17.6727 16.0047 18.5014V25.8236L23.7709 15.0001H17.5054C17.1075 15 16.7258 14.8418 16.4444 14.5605C16.163 14.2791 16.0048 13.8974 16.0047 13.4995V6.17539L8.23858 17.0008Z" fill="currentColor"/>
</svg>
