<svg viewBox="0 0 24 24" fill="none" xmlns="http://www.w3.org/2000/svg">
<path d="M5.89844 8.8877C6.29209 8.56824 6.87213 8.59277 7.2373 8.95996C7.62629 9.35149 7.62458 9.98467 7.2334 10.374L5.77148 11.8281C4.95194 12.6484 4.49129 13.7603 4.49121 14.9199C4.49123 16.0806 4.95258 17.1941 5.77344 18.0146L5.93066 18.165C6.73318 18.8921 7.78013 19.2969 8.86816 19.2969C10.0287 19.2967 11.1416 18.8356 11.9619 18.0146L13.4199 16.5566C13.8104 16.1665 14.4435 16.1665 14.834 16.5566C15.2243 16.9471 15.2244 17.5812 14.834 17.9717L13.377 19.4287C12.1815 20.625 10.5594 21.2967 8.86816 21.2969C7.28247 21.2969 5.75739 20.7062 4.58789 19.6465L4.35938 19.4287C3.16337 18.2331 2.49123 16.6111 2.49121 14.9199C2.49129 13.2288 3.16334 11.6067 4.35938 10.4111L4.36133 10.4092L5.82227 8.95605L5.89844 8.8877Z" fill="currentColor"/>
<path d="M14.4746 7.91016C14.8674 7.58948 15.4472 7.61233 15.8135 7.97852C16.1794 8.34459 16.202 8.92369 15.8818 9.31641L15.8135 9.39258L9.60059 15.6055C9.2101 15.9958 8.577 15.9958 8.18652 15.6055C7.79612 15.215 7.79621 14.5819 8.18652 14.1914L14.3994 7.97852L14.4746 7.91016Z" fill="currentColor"/>
<path d="M15.1318 2.28516C16.8232 2.28516 18.4454 2.95864 19.6406 4.15527L19.8584 4.38379C20.9182 5.5533 21.5098 7.07833 21.5098 8.66406C21.5096 10.3552 20.8369 11.9774 19.6406 13.1729L19.6387 13.1748L18.1777 14.6279C17.7862 15.0171 17.1521 15.0153 16.7627 14.624C16.3738 14.2325 16.3755 13.5993 16.7666 13.21L18.2266 11.7578L18.377 11.6006C19.1038 10.7982 19.5096 9.75185 19.5098 8.66406C19.5098 7.5035 19.0474 6.39071 18.2266 5.57031C17.4064 4.74895 16.2926 4.28613 15.1318 4.28613C14.0438 4.28623 12.9975 4.6916 12.1953 5.41895L12.0381 5.56934L10.5801 7.02734C10.1896 7.41738 9.55645 7.41739 9.16602 7.02734C8.77561 6.63694 8.77586 6.00384 9.16602 5.61328L10.624 4.15527C11.8191 2.95879 13.4407 2.28526 15.1318 2.28516Z" fill="currentColor"/>
</svg>
