<svg viewBox="0 0 32 32" fill="none" xmlns="http://www.w3.org/2000/svg">
<path d="M7.82129 12C8.31072 11.5133 9.10301 11.5156 9.58984 12.0049C10.0767 12.4944 10.0745 13.2866 9.58496 13.7734L7.63574 15.7109C6.52711 16.8204 5.90432 18.325 5.9043 19.8936C5.9043 21.463 6.52788 22.9685 7.6377 24.0781L7.63867 24.0791C8.74811 25.1893 10.2537 25.8134 11.8232 25.8135C13.3928 25.8135 14.8983 25.1893 16.0078 24.0791L17.9512 22.1348C18.4393 21.6467 19.2316 21.6468 19.7197 22.1348C20.2077 22.6228 20.2074 23.4142 19.7197 23.9023L17.7754 25.8467C16.1971 27.4257 14.0559 28.3135 11.8232 28.3135C9.5903 28.3134 7.44846 27.4252 5.87012 25.8457C4.29177 24.2672 3.4043 22.1258 3.4043 19.8936C3.40432 17.6608 4.29204 15.519 5.87109 13.9404L5.87305 13.9385L7.82129 12Z" fill="currentColor"/>
<path d="M19.2578 10.6973C19.7459 10.2092 20.5372 10.2092 21.0254 10.6973C21.5132 11.1854 21.5134 11.9768 21.0254 12.4648L12.7422 20.748C12.2541 21.2361 11.4628 21.2359 10.9746 20.748C10.4866 20.2599 10.4865 19.4686 10.9746 18.9805L19.2578 10.6973Z" fill="currentColor"/>
<path d="M20.1768 3.13086C22.4097 3.13098 24.551 4.01875 26.1289 5.59863L26.417 5.90039C27.8161 7.44443 28.5957 9.45822 28.5957 11.5518C28.5956 13.7847 27.7084 15.9265 26.1289 17.5049L26.127 17.5068L24.1777 19.4443L24.083 19.5303C23.5909 19.9296 22.8666 19.8984 22.4102 19.4395C21.9234 18.95 21.9256 18.1587 22.415 17.6719L24.3633 15.7334C25.4722 14.6242 26.0956 13.1203 26.0957 11.5518C26.0957 9.98209 25.4716 8.47671 24.3613 7.36719L24.3604 7.36621C23.2513 6.2555 21.7464 5.63098 20.1768 5.63086C18.7053 5.63086 17.2901 6.17944 16.2051 7.16309L15.9922 7.36621L14.0479 9.30957C13.5597 9.79773 12.7684 9.79773 12.2803 9.30957C11.7923 8.8214 11.7922 8.03009 12.2803 7.54199L14.2236 5.59863C15.8017 4.01862 17.9437 3.13086 20.1768 3.13086Z" fill="currentColor"/>
</svg>
