<svg viewBox="0 0 16 16" fill="none" xmlns="http://www.w3.org/2000/svg">
<path d="M3.87988 5.86035C4.17509 5.6209 4.60994 5.63881 4.88379 5.91406C5.15763 6.18941 5.17273 6.62405 4.93164 6.91797L4.88086 6.97559L3.90625 7.94434L3.90527 7.94336C3.37454 8.47464 3.07715 9.19626 3.07715 9.94727C3.07727 10.6987 3.37577 11.4199 3.90723 11.9512C4.43837 12.4826 5.15981 12.7811 5.91113 12.7812C6.66265 12.7812 7.38375 12.4827 7.91504 11.9512L8.8877 10.9795C9.18056 10.6866 9.65534 10.6867 9.94824 10.9795C10.2409 11.2724 10.241 11.7472 9.94824 12.04L8.97656 13.0117C8.16393 13.8248 7.06072 14.2812 5.91113 14.2812C4.83331 14.2811 3.79681 13.8796 3.00195 13.1592L2.84668 13.0117C2.03386 12.1991 1.57727 11.0966 1.57715 9.94727C1.57715 8.79774 2.03373 7.69456 2.84668 6.88184L2.84863 6.88086L3.82227 5.91113L3.87988 5.86035Z" fill="currentColor"/>
<path d="M9.54004 5.25977C9.8328 4.967 10.3077 4.96726 10.6006 5.25977C10.8935 5.55266 10.8935 6.02742 10.6006 6.32031L6.45898 10.4619C6.16609 10.7548 5.69133 10.7548 5.39844 10.4619C5.10593 10.169 5.10567 9.69413 5.39844 9.40137L9.54004 5.25977Z" fill="currentColor"/>
<path d="M10.0879 1.44043C11.2377 1.44043 12.3408 1.89735 13.1533 2.71094C13.9665 3.52352 14.4228 4.62581 14.4229 5.77539C14.4229 6.92509 13.9656 8.02816 13.1523 8.84082L13.1514 8.8418L12.1768 9.81055C11.8831 10.1026 11.4083 10.1013 11.1162 9.80762C10.8244 9.5139 10.8255 9.03906 11.1191 8.74707L12.0938 7.77832C12.6247 7.24713 12.9229 6.52646 12.9229 5.77539C12.9228 5.02382 12.6244 4.30273 12.0928 3.77148C11.5616 3.23956 10.8396 2.94043 10.0879 2.94043C9.43015 2.94049 8.79603 3.16938 8.29199 3.58301L8.08496 3.77148L7.1123 4.74316C6.81941 5.03606 6.34465 5.03606 6.05176 4.74316C5.75895 4.45026 5.75889 3.97548 6.05176 3.68262L7.02344 2.71094L7.17871 2.56348C7.97351 1.84269 9.00984 1.4405 10.0879 1.44043Z" fill="currentColor"/>
</svg>
