<svg viewBox="0 0 24 24" fill="none" xmlns="http://www.w3.org/2000/svg">
<path d="M11 7V2H13V7H11ZM19.7782 5.63591L16.2071 9.20695L14.7929 7.79274L18.3639 4.22169L19.7782 5.63591ZM7.79272 9.20695L4.2218 5.63604L5.63601 4.22183L9.20693 7.79274L7.79272 9.20695ZM7 13H2V11H7V13ZM22 13H17V11H22V13ZM9.20693 16.2071L5.63602 19.778L4.2218 18.3638L7.79272 14.7929L9.20693 16.2071ZM18.3639 19.7782L14.7929 16.2071L16.2071 14.7929L19.7782 18.364L18.3639 19.7782ZM11 22V17H13V22H11Z" fill="currentColor"/>
</svg>
