<svg viewBox="0 0 24 24" fill="none" xmlns="http://www.w3.org/2000/svg">
<path d="M12 6C14.2093 6 16 7.79072 16 10C16 12.2093 14.2093 14 12 14C9.79072 14 8 12.2093 8 10C8 7.79072 9.79072 6 12 6ZM12 8C10.8953 8 10 8.89528 10 10C10 11.1047 10.8953 12 12 12C13.1047 12 14 11.1047 14 10C14 8.89528 13.1047 8 12 8Z" fill="currentColor"/>
<path d="M12 2C16.4183 2 20 5.58172 20 10C20 13.0072 18.0331 15.998 16.2676 18.1104C15.3611 19.1948 14.4573 20.1063 13.7812 20.7461C13.4426 21.0666 13.159 21.3201 12.959 21.4951C12.859 21.5826 12.7798 21.6505 12.7246 21.6973C12.697 21.7206 12.6753 21.7393 12.6602 21.752C12.6528 21.7581 12.6468 21.7631 12.6426 21.7666C12.6406 21.7682 12.6377 21.7705 12.6377 21.7705L12.6357 21.7715L12.6348 21.7725C12.289 22.0565 11.8002 22.0746 11.4365 21.8262L11.3652 21.7725L11.3643 21.7715L11.3623 21.7705C11.3623 21.7705 11.3594 21.7682 11.3574 21.7666C11.3532 21.7631 11.3472 21.7581 11.3398 21.752C11.3247 21.7393 11.303 21.7206 11.2754 21.6973C11.2202 21.6505 11.141 21.5826 11.041 21.4951C10.841 21.3201 10.5574 21.0666 10.2188 20.7461C9.54271 20.1063 8.63887 19.1948 7.73242 18.1104C5.96686 15.998 4 13.0072 4 10C4 5.58172 7.58172 2 12 2ZM12 4C8.68629 4 6 6.68629 6 10C6 12.2428 7.53315 14.752 9.26758 16.8271C10.1111 17.8364 10.9573 18.6906 11.5938 19.293C11.7415 19.4328 11.8783 19.5581 12 19.6689C12.1217 19.5581 12.2585 19.4328 12.4062 19.293C13.0427 18.6906 13.8889 17.8364 14.7324 16.8271C16.4668 14.752 18 12.2428 18 10C18 6.68629 15.3137 4 12 4Z" fill="currentColor"/>
</svg>
