<svg viewBox="0 0 24 24" fill="none" xmlns="http://www.w3.org/2000/svg">
<path d="M12.1016 13.9355L12.1025 13.9365C12.6971 13.9887 13.1738 14.4835 13.1738 15.1045C13.1736 15.7526 12.6481 16.2783 12 16.2783C11.3551 16.2783 10.8327 15.7578 10.8271 15.1143L10.8262 15.1152C10.8197 14.4927 11.2963 13.9897 11.8945 13.9365C11.9289 13.933 11.9637 13.9307 11.999 13.9307L12.1016 13.9355Z" fill="currentColor"/>
<path d="M12.001 6C13.6171 6.00013 14.9266 7.30968 14.9268 8.92578C14.9268 10.0604 14.2726 10.7223 13.7471 11.1133L13.5322 11.2646L13.5312 11.2656C13.3167 11.4094 13.1869 11.5219 13.1074 11.6289C13.0447 11.7133 13.0001 11.8096 13 11.9746V12.2148C13 12.767 12.5522 13.2147 12 13.2148C11.4478 13.2147 11 12.7671 11 12.2148V11.9746C11.0002 10.6631 11.8627 9.97647 12.416 9.60547L12.5576 9.50488C12.6842 9.41046 12.7692 9.3307 12.8262 9.25391C12.8856 9.17384 12.9268 9.08259 12.9268 8.92578C12.9266 8.41425 12.5125 8.00013 12.001 8C11.4874 8.00013 11.0743 8.4143 11.0742 8.92383C11.0742 9.47603 10.6264 9.9237 10.0742 9.92383C9.52193 9.92383 9.07422 9.47611 9.07422 8.92383C9.07431 7.30568 10.3869 6.00013 12.001 6Z" fill="currentColor"/>
<path d="M12 2C16.4181 2.00013 19.9999 5.58191 20 10C19.9999 13.0071 18.0331 15.998 16.2676 18.1104C15.3611 19.1948 14.4573 20.1063 13.7812 20.7461C13.4426 21.0666 13.159 21.3201 12.959 21.4951C12.8591 21.5826 12.7798 21.6506 12.7246 21.6973C12.697 21.7206 12.6753 21.7394 12.6602 21.752C12.6528 21.7581 12.6468 21.7631 12.6426 21.7666C12.6407 21.7682 12.6377 21.7705 12.6377 21.7705L12.6357 21.7715L12.6348 21.7725C12.2891 22.0564 11.8002 22.0743 11.4365 21.8262L11.3652 21.7725L11.3643 21.7715L11.3623 21.7705C11.3623 21.7705 11.3591 21.768 11.3574 21.7666C11.3533 21.7632 11.347 21.7579 11.3398 21.752C11.3248 21.7394 11.3027 21.7204 11.2754 21.6973C11.2203 21.6506 11.1407 21.5823 11.041 21.4951C10.8411 21.3202 10.5571 21.0663 10.2188 20.7461C9.54279 20.1063 8.63867 19.1946 7.73242 18.1104C5.96697 15.9981 4.00011 13.0069 4 10C4.00013 5.58193 7.58194 2.00016 12 2ZM12 4C8.68651 4.00016 6.00013 6.6865 6 10C6.00011 12.2427 7.53331 14.7522 9.26758 16.8271C10.1109 17.8361 10.9574 18.6907 11.5938 19.293C11.7413 19.4326 11.8784 19.5583 12 19.6689C12.1217 19.5581 12.2585 19.4328 12.4062 19.293C13.0427 18.6906 13.8889 17.8363 14.7324 16.8271C16.4668 14.7521 17.9999 12.2428 18 10C17.9999 6.68648 15.3135 4.00013 12 4Z" fill="currentColor"/>
</svg>
