<svg viewBox="0 0 32 32" fill="none" xmlns="http://www.w3.org/2000/svg">
<path d="M16.1484 18.6641C16.89 18.7388 17.4813 19.3616 17.4814 20.1387C17.4813 20.9568 16.8181 21.6199 16 21.6201C15.1858 21.62 14.525 20.9631 14.5186 20.1504L14.5176 20.1514C14.5177 20.1492 14.5186 20.1467 14.5186 20.1445L14.5176 20.1387C14.5161 19.3139 15.1868 18.6565 15.998 18.6562L16.1484 18.6641ZM15.8965 21.1514L15.998 21.1562C15.9619 21.1562 15.926 21.1534 15.8906 21.1504L15.8965 21.1514Z" fill="currentColor"/>
<path d="M16.001 8.08301C18.1099 8.08301 19.8191 9.79251 19.8193 11.9014C19.8192 13.5861 18.711 14.4695 17.9961 14.9502L17.9941 14.9512C17.7055 15.1446 17.5228 15.3009 17.4082 15.4551C17.3147 15.5811 17.2501 15.7278 17.25 15.9668V16.2861C17.25 16.9764 16.6902 17.5359 16 17.5361C15.3098 17.536 14.75 16.9764 14.75 16.2861V15.9668C14.7502 14.2617 15.8683 13.3669 16.6006 12.876L16.793 12.7402C16.966 12.6113 17.0855 12.4988 17.168 12.3877C17.2571 12.2676 17.3193 12.1293 17.3193 11.9014C17.3191 11.1732 16.7292 10.583 16.001 10.583C15.2704 10.5831 14.6818 11.1729 14.6816 11.8984C14.6816 12.5887 14.122 13.1484 13.4316 13.1484C12.7414 13.1483 12.1817 12.5887 12.1816 11.8984C12.1818 9.78713 13.8947 8.08314 16.001 8.08301Z" fill="currentColor"/>
<path d="M15.999 2.75C21.8438 2.75 26.5826 7.4883 26.583 13.333C26.5828 17.3106 23.9777 21.2789 21.625 24.0938C20.4193 25.5362 19.217 26.7492 18.3174 27.6006C17.8669 28.0269 17.4895 28.365 17.2236 28.5977C17.0909 28.7138 16.9853 28.8042 16.9121 28.8662C16.8757 28.897 16.8461 28.9209 16.8262 28.9375C16.8164 28.9456 16.8083 28.9524 16.8027 28.957C16.8001 28.9592 16.7975 28.9616 16.7959 28.9629L16.793 28.9658C16.3319 29.3443 15.6671 29.3444 15.2061 28.9658L15.2051 28.9648L15.2021 28.9629C15.2005 28.9615 15.1977 28.959 15.1953 28.957C15.1897 28.9524 15.1813 28.9454 15.1719 28.9375C15.1519 28.9209 15.123 28.8968 15.0869 28.8662C15.0137 28.8042 14.908 28.7137 14.7754 28.5977C14.5095 28.365 14.1321 28.0269 13.6816 27.6006C12.7821 26.7492 11.5796 25.5361 10.374 24.0938C8.0214 21.2789 5.41618 17.3104 5.41602 13.333C5.41639 7.48863 10.1547 2.75053 15.999 2.75ZM15.999 5.25C11.5354 5.25053 7.91639 8.86934 7.91602 13.333C7.91618 16.3551 9.97835 19.722 12.292 22.4902C13.4191 23.8387 14.5503 24.9805 15.4004 25.7852C15.6209 25.9938 15.8224 26.1798 15.999 26.3398C16.1758 26.1796 16.3779 25.9941 16.5986 25.7852C17.4488 24.9805 18.5798 23.8389 19.707 22.4902C22.0208 19.722 24.0828 16.3552 24.083 13.333C24.0826 8.86901 20.4631 5.25 15.999 5.25Z" fill="currentColor"/>
</svg>
