<svg viewBox="0 0 16 16" fill="none" xmlns="http://www.w3.org/2000/svg">
<path d="M8.08691 9.20801C8.52007 9.2516 8.86605 9.61522 8.86621 10.0693C8.86601 10.5473 8.47798 10.9354 8 10.9355C7.55195 10.9354 7.18319 10.5946 7.13867 10.1582L7.13477 10.0693C7.13416 9.58733 7.52598 9.2041 8 9.2041L8.08691 9.20801Z" fill="currentColor"/>
<path d="M8 3.91699C9.12355 3.91699 10.0342 4.82763 10.0342 5.95117C10.0339 6.85915 9.43281 7.33344 9.06738 7.5791L9.06641 7.58008C8.92605 7.67417 8.84904 7.74302 8.80469 7.80273C8.77305 7.84546 8.75004 7.89276 8.75 7.9834V8.14355C8.7498 8.55754 8.41401 8.89346 8 8.89355C7.58602 8.89342 7.2502 8.55752 7.25 8.14355V7.9834C7.25011 7.06481 7.8571 6.58489 8.23145 6.33398C8.36735 6.24256 8.44124 6.17668 8.4834 6.12012C8.51302 6.08021 8.53409 6.03635 8.53418 5.95117C8.53418 5.65605 8.29512 5.41699 8 5.41699C7.70385 5.41738 7.46606 5.65606 7.46582 5.94922C7.46562 6.36326 7.12991 6.69922 6.71582 6.69922C6.30184 6.69909 5.96602 6.36318 5.96582 5.94922C5.96606 4.8246 6.87846 3.91739 8 3.91699Z" fill="currentColor"/>
<path d="M8.00098 1.25C10.992 1.25053 13.4168 3.67594 13.417 6.66699C13.4167 8.70321 12.0873 10.7173 10.9092 12.127C10.3025 12.8528 9.69737 13.4626 9.24512 13.8906C9.01884 14.1048 8.82933 14.2753 8.69531 14.3926C8.62872 14.4508 8.57519 14.4969 8.53809 14.5283C8.51975 14.5438 8.50438 14.5569 8.49414 14.5654C8.48942 14.5694 8.48526 14.5728 8.48242 14.5752C8.48115 14.5762 8.47945 14.5774 8.47852 14.5781L8.47754 14.5791C8.23566 14.7778 7.89914 14.803 7.63379 14.6543L7.52441 14.5791L7.51953 14.5752C7.51669 14.5728 7.51174 14.5695 7.50684 14.5654C7.49667 14.557 7.48221 14.5439 7.46387 14.5283C7.42682 14.497 7.37344 14.451 7.30664 14.3926C7.17267 14.2753 6.98232 14.1049 6.75586 13.8906C6.30364 13.4626 5.69844 12.8527 5.0918 12.127C3.91361 10.7173 2.58429 8.70332 2.58398 6.66699C2.58418 3.67561 5.00955 1.25 8.00098 1.25ZM8.00098 2.75C5.83798 2.75 4.08418 4.50404 4.08398 6.66699C4.0843 8.13017 5.08839 9.78341 6.24316 11.165C6.80269 11.8344 7.36462 12.4019 7.78711 12.8018C7.86204 12.8727 7.93494 12.9363 8 12.9961C8.06524 12.9362 8.1387 12.8729 8.21387 12.8018C8.63648 12.4018 9.1992 11.8345 9.75879 11.165C10.9135 9.78346 11.9167 8.13008 11.917 6.66699C11.9168 4.50437 10.1635 2.75053 8.00098 2.75Z" fill="currentColor"/>
</svg>
