<svg viewBox="0 0 32 32" fill="none" xmlns="http://www.w3.org/2000/svg">
<path d="M16.0498 7.59961C19.0597 7.59982 21.4999 10.0399 21.5 13.0498C21.4998 16.0597 19.0597 18.4998 16.0498 18.5C13.0399 18.4999 10.5998 16.0597 10.5996 13.0498C10.5997 10.0398 13.0398 7.59975 16.0498 7.59961ZM16.0498 10.0996C14.4205 10.0997 13.0997 11.4205 13.0996 13.0498C13.0998 14.679 14.4206 15.9999 16.0498 16C17.679 15.9998 18.9998 14.679 19 13.0498C18.9999 11.4206 17.679 10.0998 16.0498 10.0996Z" fill="currentColor"/>
<path d="M16.0498 2C22.1523 2.00021 27.1004 6.94726 27.1006 13.0498C27.1004 17.2023 24.3785 21.3532 21.9092 24.3076C20.6449 25.8203 19.3839 27.0924 18.4404 27.9854C17.9679 28.4325 17.5727 28.7864 17.2939 29.0303C17.1546 29.1522 17.0445 29.2476 16.9678 29.3125C16.9298 29.3447 16.8998 29.3693 16.8789 29.3867C16.8687 29.3952 16.8603 29.4024 16.8545 29.4072C16.8516 29.4096 16.8484 29.4116 16.8467 29.4131L16.8438 29.416C16.3828 29.7947 15.718 29.7944 15.2568 29.416L15.2529 29.4131C15.2513 29.4117 15.2487 29.4094 15.2461 29.4072C15.2403 29.4024 15.2319 29.3952 15.2217 29.3867C15.2009 29.3694 15.1707 29.3446 15.1328 29.3125C15.0562 29.2476 14.9449 29.1521 14.8057 29.0303C14.527 28.7865 14.1314 28.4323 13.6592 27.9854C12.7158 27.0925 11.4555 25.82 10.1914 24.3076C7.72201 21.3532 5.00017 17.2024 5 13.0498C5.00014 6.94722 9.94722 2.00014 16.0498 2ZM16.0498 4.5C11.3279 4.50014 7.50014 8.32793 7.5 13.0498C7.50017 16.247 9.67891 19.7972 12.1094 22.7051C13.2949 24.1234 14.4841 25.324 15.3779 26.1699C15.6273 26.4059 15.8543 26.6133 16.0498 26.79C16.2454 26.6132 16.4721 26.4061 16.7217 26.1699C17.6157 25.3238 18.8056 24.1236 19.9912 22.7051C22.4217 19.7972 24.6004 16.247 24.6006 13.0498C24.6004 8.32797 20.7716 4.50021 16.0498 4.5Z" fill="currentColor"/>
</svg>
