<svg viewBox="0 0 12 12" fill="none" xmlns="http://www.w3.org/2000/svg">
<path d="M6 1C8.2089 1.00013 10 2.79666 10 5.01249C9.9999 6.52078 9.01816 8.01225 8.14819 9.05645C7.70003 9.59431 7.25236 10.0468 6.91833 10.3639C6.7513 10.5225 6.61159 10.6482 6.51271 10.735C6.45958 10.7816 6.40599 10.8277 6.35154 10.8728C6.14735 11.041 5.85274 11.0409 5.64846 10.8728C5.59328 10.8285 5.54044 10.7817 5.48729 10.735C5.38833 10.6481 5.24788 10.5227 5.08058 10.3639C4.74656 10.0468 4.29997 9.59431 3.85181 9.05645C2.98179 8.01224 2.0001 6.52089 2 5.01249C2 2.79658 3.79099 1 6 1ZM3.10763 5.01249C3.10774 6.09639 3.8492 7.32115 4.702 8.34466C5.11521 8.84052 5.53008 9.26044 5.84208 9.55665C5.89775 9.6095 5.95171 9.65648 6 9.70096C6.04824 9.65652 6.10232 9.60944 6.15792 9.55665C6.46995 9.2604 6.88481 8.84053 7.298 8.34466C8.1508 7.32115 8.89226 6.09639 8.89237 5.01249C8.89237 3.4103 7.59717 2.11121 6 2.11108C4.40272 2.11108 3.10763 3.41022 3.10763 5.01249Z" fill="currentColor"/>
<path d="M6 2.97586C7.1212 2.97616 8.03117 3.88777 8.03137 5.01249C8.03108 6.13713 7.12114 7.04991 6 7.0502C4.87878 7.05 3.97001 6.13719 3.96971 5.01249C3.96991 3.88771 4.87872 2.97606 6 2.97586ZM5.07734 5.01249C5.07763 5.52355 5.4905 5.93892 6 5.93912C6.50941 5.93882 6.92345 5.52349 6.92374 5.01249C6.92355 4.5014 6.50947 4.08724 6 4.08695C5.49044 4.08714 5.07753 4.50134 5.07734 5.01249Z" fill="currentColor"/>
</svg>
