<svg viewBox="0 0 16 16" fill="none" xmlns="http://www.w3.org/2000/svg">
<path d="M7.9502 4.40039C6.54209 4.4006 5.4006 5.54209 5.40039 6.9502C5.40048 8.35841 6.54201 9.49979 7.9502 9.5C9.35848 9.49991 10.4999 8.35848 10.5 6.9502C10.4998 5.54201 9.35841 4.40048 7.9502 4.40039ZM7.9502 5.90039C8.52998 5.90048 8.99979 6.37044 9 6.9502C8.99991 7.53005 8.53005 7.99991 7.9502 8C7.37044 7.99979 6.90048 7.52998 6.90039 6.9502C6.9006 6.37052 7.37052 5.9006 7.9502 5.90039Z" fill="currentColor"/>
<path d="M7.9502 2C10.6838 2.00009 12.9002 4.21661 12.9004 6.9502C12.9003 8.81158 11.6875 10.6419 10.626 11.9121C10.0774 12.5685 9.53067 13.1201 9.12207 13.5068C8.91731 13.7006 8.74531 13.8538 8.62402 13.96C8.55851 14.0173 8.49236 14.0738 8.42578 14.1299C8.14911 14.3569 7.7502 14.3571 7.47363 14.1299C7.47363 14.1299 7.32543 14.0037 7.27539 13.96C7.15418 13.8539 6.98264 13.7002 6.77832 13.5068C6.36976 13.1201 5.82283 12.5682 5.27441 11.9121C4.21289 10.6419 3.00007 8.81147 3 6.9502C3.00021 4.21668 5.21668 2.00021 7.9502 2ZM4.5 6.9502C4.50008 8.2384 5.38765 9.70805 6.42578 10.9502C6.92699 11.5499 7.43073 12.0584 7.80957 12.417C7.85789 12.4627 7.90635 12.5043 7.9502 12.5449C7.99413 12.5042 8.04238 12.4628 8.09082 12.417C8.46971 12.0584 8.97323 11.5501 9.47461 10.9502C10.5129 9.70799 11.4003 8.23851 11.4004 6.9502C11.4002 5.04503 9.85539 3.50009 7.9502 3.5C6.04511 3.50021 4.50021 5.04511 4.5 6.9502Z" fill="currentColor"/>
</svg>
