<svg viewBox="0 0 16 16" fill="none" xmlns="http://www.w3.org/2000/svg">
<path d="M11.998 8.74756C11.998 8.05861 11.439 7.50049 10.75 7.50049H5.25C4.55964 7.50055 4 8.06023 4 8.75049V11.7505C4.00019 12.4407 4.55976 13.0005 5.25 13.0005H10.748C11.4381 13.0003 11.9979 12.4406 11.998 11.7505V8.74756ZM10 4.57178C9.99992 3.61252 9.15274 2.75049 8 2.75049C6.84732 2.75055 6.00008 3.61255 6 4.57178V6.00049H10V4.57178ZM11.5 6.10596C12.6526 6.43249 13.498 7.49037 13.498 8.74756V11.7505C13.4979 13.269 12.2665 14.5003 10.748 14.5005H5.25C3.73133 14.5005 2.50019 13.2691 2.5 11.7505V8.75049C2.5 7.49193 3.34611 6.43265 4.5 6.10596V4.57178C4.50008 2.69088 6.11533 1.25055 8 1.25049C9.88472 1.25049 11.4999 2.69084 11.5 4.57178V6.10596Z" fill="currentColor"/>
<path d="M7.24885 10.2501C7.24885 9.83592 7.58464 9.50014 7.99885 9.50014C8.41306 9.50014 8.74885 9.83593 8.74885 10.2501C8.74882 10.6643 8.41304 11.0001 7.99885 11.0001C7.58466 11.0001 7.24888 10.6643 7.24885 10.2501Z" fill="currentColor"/>
</svg>
