<svg viewBox="0 0 16 16" fill="none" xmlns="http://www.w3.org/2000/svg">
<path d="M6.99984 9.49933H8.99984C9.41395 9.49933 9.74967 9.83527 9.74984 10.2493C9.74984 10.6635 9.41405 10.9993 8.99984 10.9993H6.99984C6.58565 10.9993 6.24984 10.6635 6.24984 10.2493C6.25001 9.83528 6.58575 9.49936 6.99984 9.49933Z" fill="currentColor"/>
<path d="M11.9978 8.75C11.9978 8.05977 11.438 7.5002 10.7478 7.5H5.24976C4.5594 7.5 3.99976 8.05964 3.99976 8.75V11.75C3.99995 12.4402 4.55952 13 5.24976 13H10.7478C11.4379 12.9998 11.9976 12.4401 11.9978 11.75V8.75ZM13.4978 11.75C13.4976 13.2685 12.2663 14.4998 10.7478 14.5H5.24976C3.73109 14.5 2.49995 13.2686 2.49976 11.75V8.75C2.49976 7.49144 3.34581 6.43213 4.49976 6.10547V4.66699C4.49976 2.78006 6.02981 1.25 7.91675 1.25C9.51084 1.25018 10.8483 2.34133 11.2263 3.81641C11.3291 4.21754 11.0873 4.62652 10.6863 4.72949C10.285 4.83231 9.87602 4.58973 9.77319 4.18848C9.56099 3.36098 8.8092 2.75018 7.91675 2.75C6.85824 2.75 5.99976 3.60848 5.99976 4.66699V6H10.7478C12.2664 6.0002 13.4978 7.23134 13.4978 8.75V11.75Z" fill="currentColor"/>
</svg>
