<svg viewBox="0 0 24 24" fill="none" xmlns="http://www.w3.org/2000/svg">
<path d="M18.0002 13C18.0001 11.8956 17.1046 11.0002 16.0002 11H8.00024C6.89578 11 6.00024 11.8955 6.00024 13V18C6.00029 19.1045 6.89571 20 8.00024 20H16.0002C17.1046 19.9998 18.0002 19.1044 18.0002 18V13ZM20.0002 18C20.0002 20.209 18.2092 21.9998 16.0002 22H8.00024C5.79114 22 4.00029 20.2091 4.00024 18V13C4.00024 11.1362 5.275 9.56994 7.00024 9.12598V6.5C7.00024 3.73863 9.23887 1.5 12.0002 1.5C14.3331 1.50013 16.2908 3.09708 16.844 5.25586C16.981 5.79074 16.6581 6.33551 16.1233 6.47266C15.5883 6.60975 15.0436 6.28695 14.9065 5.75195C14.5744 4.45651 13.3976 3.50013 12.0002 3.5C10.3434 3.5 9.00024 4.8432 9.00024 6.5V9H16.0002C18.2092 9.00019 20.0001 10.7911 20.0002 13V18Z" fill="currentColor"/>
<path d="M10.5001 14.5001H13.5001C14.0524 14.5001 14.5001 14.9478 14.5001 15.5001C14.5001 16.0523 14.0524 16.5001 13.5001 16.5001H10.5001C9.94783 16.5 9.50008 16.0523 9.50007 15.5001C9.50007 14.9478 9.94782 14.5001 10.5001 14.5001Z" fill="currentColor"/>
</svg>
