<svg viewBox="0 0 32 32" fill="none" xmlns="http://www.w3.org/2000/svg">
<path d="M24 17.4995C23.9998 16.1189 22.8806 14.9995 21.5 14.9995H10.5C9.11938 14.9996 8.00016 16.119 8 17.4995V24.4995C8 25.8802 9.11929 26.9995 10.5 26.9995H21.5C22.8807 26.9995 24 25.8802 24 24.4995V17.4995ZM19.5 9.14307C19.4999 7.16033 17.8502 5.50051 15.75 5.50049C13.6497 5.50049 12.0001 7.16032 12 9.14307V11.9995H19.5V9.14307ZM22.5 12.0913C25.06 12.5616 26.9999 14.8036 27 17.4995V24.4995C27 27.5371 24.5376 29.9995 21.5 29.9995H10.5C7.46243 29.9995 5 27.5371 5 24.4995V17.4995C5.00013 14.9822 6.69185 12.8616 9 12.2085V9.14307C9.00008 5.44545 12.0515 2.50049 15.75 2.50049C19.4485 2.50051 22.4999 5.44546 22.5 9.14307V12.0913Z" fill="currentColor"/>
<path d="M14.5 20.9998C14.5 20.1714 15.1716 19.4998 16 19.4998C16.8284 19.4998 17.5 20.1714 17.5 20.9998C17.4999 21.8282 16.8284 22.4998 16 22.4998C15.1716 22.4998 14.5 21.8282 14.5 20.9998Z" fill="currentColor"/>
</svg>
