<svg viewBox="0 0 24 24" fill="none" xmlns="http://www.w3.org/2000/svg">
<path d="M18.0002 12.9995C18 11.8954 17.1045 10.9998 16.0002 10.9995L8.00024 11.0005C6.89573 11.0005 6.00024 11.896 6.00024 13.0005V18.0005C6.00048 19.1049 6.89582 20.0005 8.00024 20.0005H16.0002C17.1045 20.0003 18 19.1047 18.0002 18.0005V12.9995ZM15.0002 7.00049C15.0002 5.34375 13.657 4.00059 12.0002 4.00049C10.3434 4.00049 9.00024 5.34369 9.00024 7.00049V8.99951H15.0002V7.00049ZM17.0002 9.12646C18.725 9.57068 20 11.1361 20.0002 12.9995V18.0005C20 20.2093 18.2091 22.0003 16.0002 22.0005H8.00024C5.79125 22.0005 4.00048 20.2094 4.00024 18.0005V13.0005C4.00024 11.1367 5.27504 9.57049 7.00024 9.12646V7.00049C7.00024 4.23912 9.23887 2.00049 12.0002 2.00049C14.7615 2.00059 17.0002 4.23918 17.0002 7.00049V9.12646Z" fill="currentColor"/>
<path d="M11.0001 15.5002C11.0001 14.9479 11.4478 14.5002 12.0001 14.5002C12.5524 14.5002 13.0001 14.9479 13.0001 15.5002C13 16.0524 12.5523 16.5002 12.0001 16.5002C11.4478 16.5002 11.0001 16.0524 11.0001 15.5002Z" fill="currentColor"/>
</svg>
