<svg viewBox="0 0 32 32" fill="none" xmlns="http://www.w3.org/2000/svg">
<path d="M14.0001 19.5H18.0001C18.8285 19.5 19.5001 20.1716 19.5001 21C19.5001 21.8284 18.8285 22.5 18.0001 22.5H14.0001C13.1717 22.4999 12.5001 21.8284 12.5001 21C12.5001 20.1716 13.1717 19.5001 14.0001 19.5Z" fill="currentColor"/>
<path d="M24 17.5C24 16.1193 22.8807 15 21.5 15H10.5C9.11928 15.0001 8 16.1194 8 17.5V24.5C8 25.8807 9.11929 27 10.5 27H21.5C22.8807 27 24 25.8807 24 24.5V17.5ZM27 24.5C27 27.5376 24.5376 30 21.5 30H10.5C7.46243 30 5 27.5376 5 24.5V17.5C5 14.9825 6.69168 12.861 9 12.208V9.14258C9.00016 5.42315 12.1112 2.50017 15.833 2.5C18.9834 2.5 21.6802 4.5835 22.4492 7.47754C22.6618 8.27809 22.1853 9.09976 21.3848 9.3125C20.5844 9.52493 19.7627 9.04835 19.5498 8.24805C19.1386 6.70048 17.6566 5.5 15.833 5.5C13.6644 5.50016 12.0002 7.18181 12 9.14258V12H21.5C24.5376 12 27 14.4624 27 17.5V24.5Z" fill="currentColor"/>
</svg>
