<svg viewBox="0 0 16 16" fill="none" xmlns="http://www.w3.org/2000/svg">
<path d="M7.99988 1.25C8.41409 1.25 8.74988 1.58579 8.74988 2C8.74988 2.41421 8.41409 2.75 7.99988 2.75C5.10038 2.75 2.74988 5.10051 2.74988 8C2.74988 10.8088 4.95559 13.1024 7.72937 13.2432L7.99988 13.25L8.07703 13.2539C8.455 13.2925 8.74988 13.6118 8.74988 14C8.74988 14.3882 8.455 14.7075 8.07703 14.7461L7.99988 14.75L7.65222 14.7412C4.08587 14.5603 1.24988 11.6113 1.24988 8C1.24988 4.27208 4.27196 1.25 7.99988 1.25Z" fill="currentColor"/>
<path d="M11.1366 5.13672C11.4112 4.86211 11.8459 4.84465 12.1405 5.08496L12.1971 5.13672L14.5302 7.46973L14.5448 7.48633C14.5508 7.49271 14.5566 7.49927 14.5624 7.50586L14.5819 7.52734C14.5907 7.53811 14.5973 7.5504 14.6053 7.56152C14.6201 7.58187 14.6346 7.60221 14.6473 7.62402C14.658 7.64241 14.6667 7.66162 14.6757 7.68066C14.6866 7.70371 14.6974 7.72671 14.7059 7.75098C14.7119 7.76797 14.7159 7.78543 14.7206 7.80273C14.7281 7.83029 14.7348 7.858 14.7391 7.88672C14.742 7.90553 14.7426 7.92441 14.744 7.94336C14.7454 7.96205 14.7499 7.98095 14.7499 8C14.7499 8.00622 14.7481 8.01237 14.7479 8.01855C14.7474 8.03787 14.745 8.05693 14.743 8.07617C14.7401 8.10467 14.7373 8.13269 14.7313 8.16016C14.7278 8.17637 14.7223 8.19201 14.7177 8.20801C14.7096 8.23567 14.7013 8.26282 14.6903 8.28906C14.6838 8.30449 14.6754 8.31893 14.6678 8.33398C14.6549 8.35983 14.6416 8.38514 14.6259 8.40918C14.6167 8.42314 14.6058 8.43576 14.5956 8.44922C14.5778 8.47277 14.5603 8.49631 14.5399 8.51758C14.5363 8.5214 14.5339 8.52651 14.5302 8.53027L12.1971 10.8643C11.9044 11.1568 11.4295 11.1566 11.1366 10.8643C10.8438 10.5714 10.8439 10.0966 11.1366 9.80371L12.1893 8.75H7.33289C6.91893 8.74982 6.58306 8.41396 6.58289 8C6.58306 7.58604 6.91893 7.25018 7.33289 7.25H12.1893L11.1366 6.19727L11.0848 6.14062C10.8445 5.84604 10.862 5.41132 11.1366 5.13672Z" fill="currentColor"/>
</svg>
