<svg viewBox="0 0 24 24" fill="none" xmlns="http://www.w3.org/2000/svg">
<path d="M12.1025 2.00488C12.6067 2.05621 13 2.48232 13 3C13 3.51768 12.6067 3.94379 12.1025 3.99512L12 4C7.58172 4 4 7.58172 4 12C4 16.2801 7.36114 19.7748 11.5879 19.9893L12 20L12.1025 20.0049C12.6067 20.0562 13 20.4823 13 21C13 21.5177 12.6067 21.9438 12.1025 21.9951L12 22L11.4854 21.9873C6.20167 21.7195 2 17.3502 2 12C2 6.47715 6.47715 2 12 2L12.1025 2.00488Z" fill="currentColor"/>
<path d="M16.793 7.79297C17.1591 7.42685 17.7381 7.40426 18.1309 7.72461L18.207 7.79297L21.707 11.293C21.7687 11.3547 21.8213 11.425 21.8652 11.501C21.8737 11.5155 21.882 11.53 21.8896 11.5449C21.9216 11.6072 21.9465 11.6732 21.9648 11.7422C21.9768 11.7869 21.9856 11.8322 21.9912 11.8779C21.9934 11.8957 21.9949 11.9136 21.9961 11.9316C21.9972 11.9476 21.9987 11.9635 21.999 11.9795C21.9992 11.9863 22 11.9931 22 12C22 12.0069 21.9992 12.0137 21.999 12.0205C21.9987 12.0381 21.9974 12.0557 21.9961 12.0732C21.9948 12.091 21.9934 12.1085 21.9912 12.126C21.9897 12.1378 21.9873 12.1494 21.9854 12.1611C21.9823 12.1802 21.9788 12.1991 21.9746 12.2178C21.9726 12.227 21.9701 12.236 21.9678 12.2451C21.9503 12.3142 21.9255 12.3799 21.8945 12.4424C21.8475 12.5375 21.7863 12.6278 21.707 12.707L18.207 16.207C17.8165 16.5976 17.1835 16.5976 16.793 16.207C16.4024 15.8165 16.4024 15.1835 16.793 14.793L18.5859 13H11C10.4477 13 10 12.5523 10 12C10 11.4477 10.4477 11 11 11H18.5859L16.793 9.20703L16.7246 9.13086C16.4043 8.73809 16.4269 8.15908 16.793 7.79297Z" fill="currentColor"/>
</svg>
