<svg viewBox="0 0 32 32" fill="none" xmlns="http://www.w3.org/2000/svg">
<path d="M16.0001 2.75C16.6905 2.75 17.2501 3.30964 17.2501 4C17.2501 4.69036 16.6905 5.25 16.0001 5.25C10.0631 5.25 5.25012 10.0629 5.25012 16C5.25012 21.7517 9.76719 26.4486 15.4474 26.7363L16.0001 26.75L16.1281 26.7568C16.7583 26.8209 17.2501 27.3528 17.2501 28C17.2501 28.6472 16.7583 29.1791 16.1281 29.2432L16.0001 29.25L15.6583 29.2461C8.49851 29.0648 2.75012 23.2035 2.75012 16C2.75012 8.68223 8.68235 2.75 16.0001 2.75Z" fill="currentColor"/>
<path d="M22.4493 10.4492C22.9069 9.99167 23.6312 9.9631 24.1222 10.3633L24.2169 10.4492L28.8839 15.1162C28.8897 15.122 28.8949 15.1289 28.9005 15.1348C28.9194 15.1544 28.9377 15.1745 28.9552 15.1953C28.9628 15.2044 28.9703 15.2134 28.9777 15.2227C28.9938 15.2429 29.0087 15.2639 29.0236 15.2852C29.0336 15.2996 29.0444 15.3134 29.0538 15.3281C29.0617 15.3404 29.0679 15.3536 29.0753 15.3662C29.0886 15.3887 29.1026 15.4105 29.1144 15.4336C29.146 15.4958 29.1715 15.5613 29.1925 15.6289C29.2614 15.8508 29.2666 16.0871 29.2091 16.3115C29.1955 16.3644 29.1794 16.4159 29.1593 16.4658C29.1226 16.5575 29.0741 16.645 29.0148 16.7275C29.0048 16.7414 28.995 16.7552 28.9845 16.7686C28.9724 16.784 28.9593 16.7985 28.9464 16.8135C28.9321 16.8301 28.9176 16.8465 28.9025 16.8623C28.8959 16.8691 28.8906 16.8771 28.8839 16.8838L24.2169 21.5498C23.7288 22.038 22.9375 22.038 22.4493 21.5498C21.9617 21.0616 21.9613 20.2702 22.4493 19.7822L24.9806 17.25H14.6671C13.9769 17.25 13.4173 16.6902 13.4171 16C13.4173 15.3098 13.9769 14.75 14.6671 14.75H24.9825L22.4493 12.2168L22.3634 12.1221C21.9632 11.6311 21.9918 10.9068 22.4493 10.4492Z" fill="currentColor"/>
</svg>
