<svg viewBox="0 0 32 32" fill="none" xmlns="http://www.w3.org/2000/svg">
<path d="M30.9516 14.2444C30.5981 14.4536 29.7933 14.2867 29.3288 14.2146C26.2427 13.6569 23.082 13.6922 19.9566 13.9652C19.2711 14.0061 18.3386 13.9617 18.4967 13.0659C18.9695 10.993 21.8009 5.4434 23.4465 4.1492C24.4867 3.38709 25.1286 4.10832 25.3019 5.2023C25.4282 5.9561 25.4641 6.76324 25.598 7.52605C25.9183 9.68282 27.0641 11.2881 28.8656 12.4618C29.159 12.6655 29.4516 12.8567 29.7443 13.0465C30.0618 13.2696 31.2421 13.9285 30.9557 14.2416L30.9516 14.2444Z" fill="currentColor"/>
<path d="M30.8188 17.2334C30.8333 18.1486 29.4908 18.8379 28.815 19.3576C26.0133 21.2802 25.3437 23.0309 25.2126 26.3399C25.1795 27.1893 25.0159 28.6373 24.2946 27.1616C24.1745 26.917 24.0592 26.617 23.9605 26.3475C23.0335 23.8339 21.7165 21.5005 20.189 19.2841C19.8576 18.7853 19.4255 18.2684 19.1853 17.7322C18.7008 16.6826 19.761 16.5232 20.5368 16.3902C22.0347 16.1401 23.5781 16.0077 25.1318 15.9592C26.1541 15.9301 27.1729 15.9454 28.1903 16.0258C29.0352 16.1131 30.6718 16.2031 30.8188 17.223V17.2334Z" fill="currentColor"/>
<path d="M22.2025 29.4284C21.4101 29.9182 20.1249 29.0993 19.3201 28.7778C16.2326 27.3381 14.402 27.74 11.494 29.2746C10.7465 29.6709 9.40049 30.2639 10.3268 28.8998C10.6609 28.4169 11.0944 27.9548 11.4547 27.4822C11.7466 27.1102 12.0269 26.7333 12.2988 26.3481C13.5537 24.5744 14.6257 22.62 15.5534 20.635C15.6969 20.3274 15.8764 19.972 16.0635 19.7233C16.7061 18.8122 17.3391 19.5417 17.8381 20.148C18.8031 21.3133 19.6831 22.5735 20.5011 23.8941C21.0333 24.7587 21.5247 25.6435 21.9582 26.5594C22.3088 27.3492 23.0177 28.7695 22.2101 29.4229L22.2025 29.4284Z" fill="currentColor"/>
<path d="M13.2706 18.1548C13.8401 18.5566 13.2962 19.5487 13.1215 20.0808C12.6418 21.3009 12.071 22.5078 11.4214 23.7126C11.0204 24.454 10.5883 25.1835 10.1251 25.8833C9.56536 26.6696 8.60453 28.3199 7.52567 28.0698C5.63715 27.3188 7.95639 22.6651 3.25786 19.5661C2.76433 19.2155 2.19073 18.8594 1.71101 18.5372C1.29755 18.2497 0.53413 17.6809 1.38728 17.6047C2.14448 17.5693 3.02179 17.8153 3.79073 17.8998C5.43421 18.1222 7.08529 18.1956 8.75431 18.1624C9.82696 18.1437 10.8975 18.0689 11.9654 17.9816C12.3871 17.9518 12.9586 17.9462 13.2637 18.1499L13.2706 18.1548Z" fill="currentColor"/>
<path d="M12.8744 14.818C12.8067 15.4512 11.9122 15.5053 11.4007 15.6147C10.4212 15.7845 9.03175 15.9355 7.81346 16.0027C6.29974 16.0872 4.82192 16.0872 3.39517 15.948C2.62485 15.8496 1.41346 15.7422 1.14289 14.8956C0.84884 12.9307 6.12304 12.5261 6.59103 7.24188C6.67179 6.57815 6.70147 5.81327 6.75186 5.18072C6.80224 4.66179 6.92925 3.76735 7.42554 4.47196C7.82588 5.09412 8.05021 5.95114 8.35738 6.6412C8.98067 8.14048 9.7358 9.5691 10.5952 10.9631C11.1522 11.8721 11.7582 12.7513 12.3739 13.6215C12.6114 13.9637 12.9013 14.4494 12.8758 14.8097V14.818H12.8744Z" fill="currentColor"/>
<path d="M21.9795 2.53001C21.9036 2.81615 21.5875 3.25125 21.3514 3.53877C21.0643 3.88657 20.7661 4.23853 20.49 4.59672C19.0563 6.43549 17.8677 8.45509 16.8358 10.5641C16.6501 10.9382 16.4755 11.3255 16.2898 11.6982C15.9709 12.3342 15.4719 13.1054 14.7664 12.4936C13.1851 10.9929 9.79664 5.85559 9.44668 3.73761C9.28171 2.39214 10.2619 2.21686 11.3242 2.64087C12.1794 2.9762 13.027 3.43208 13.905 3.7293C16.354 4.5891 18.1901 3.94477 20.3747 2.80022C20.7185 2.63879 22.1183 1.83718 21.9802 2.52378L21.9795 2.53001Z" fill="currentColor"/>
</svg>
