<svg viewBox="0 0 16 16" fill="none" xmlns="http://www.w3.org/2000/svg">
<path d="M4.8121 1.866C4.32637 1.29272 5.00005 0.471583 5.65089 0.843621L7.26 1.76344C7.77181 2.05601 8.39873 2.05601 8.91054 1.76344L10.52 0.84342C11.1709 0.471381 11.8446 1.29255 11.3588 1.86582L9.35696 4.22835C8.68961 5.01594 7.48095 5.01592 6.81362 4.2283L4.8121 1.866Z" fill="currentColor"/>
<path d="M1.93801 6.98716C2.35777 6.59073 2.54546 6.00476 2.43483 5.4361L2.12172 3.8266C1.9785 3.0904 2.9581 2.70569 3.34777 3.3451L4.81213 5.74797C5.34991 6.6304 4.97641 7.78786 4.02619 8.18351L1.40901 9.27326C0.849781 9.47348 0.15384 8.67222 0.696063 8.16012L1.93801 6.98716Z" fill="currentColor"/>
<path d="M11.9543 8.11201C11.004 7.71634 10.6306 6.55885 11.1684 5.67642L12.6324 3.27441C13.0221 2.635 14.0017 3.01978 13.8584 3.75599L13.5454 5.36449C13.4347 5.93318 13.6224 6.51921 14.0421 6.91567L15.2839 8.08847C15.8262 8.60057 15.258 9.48767 14.571 9.2016L11.9543 8.11201Z" fill="currentColor"/>
<path d="M9.06256 11.5594C9.14261 10.5272 10.1205 9.8118 11.1202 10.0541L14.0421 10.7623C14.7669 10.9379 14.7056 11.9956 13.9655 12.0852L12.1407 12.3061C11.5613 12.3762 11.0602 12.7456 10.8186 13.2805L10.108 14.854C9.79833 15.5397 8.7745 15.274 8.83274 14.5229L9.06256 11.5594Z" fill="currentColor"/>
<path d="M5.24143 13.2234C4.99984 12.6886 4.49874 12.3193 3.91939 12.2492L2.09468 12.0283C1.35453 11.9387 1.29324 10.881 2.01801 10.7053L4.93987 9.99717C5.93956 9.75488 6.91744 10.4702 6.99756 11.5023L7.22763 14.4661C7.28593 15.2171 6.26215 15.483 5.95241 14.7973L5.24143 13.2234Z" fill="currentColor"/>
</svg>
