<svg viewBox="0 0 24 24" fill="none" xmlns="http://www.w3.org/2000/svg">
<path d="M23.9612 10.5955C23.6784 10.7629 23.0346 10.6293 22.6629 10.5717C20.1941 10.1255 17.6655 10.1538 15.1652 10.3722C14.6168 10.4049 13.8708 10.3694 13.9973 9.65273C14.3755 7.99437 16.6406 3.55472 17.9571 2.51936C18.7893 1.90967 19.3028 2.48666 19.4414 3.36184C19.5425 3.96488 19.5712 4.61059 19.6783 5.22084C19.9345 6.94626 20.8512 8.23049 22.2924 9.16941C22.5271 9.33236 22.7612 9.48534 22.9954 9.63721C23.2494 9.81568 24.1936 10.3428 23.9645 10.5933L23.9612 10.5955Z" fill="currentColor"/>
<path d="M23.855 12.9867C23.8666 13.7189 22.7925 14.2704 22.2519 14.6861C20.0105 16.2241 19.4749 17.6248 19.37 20.2719C19.3435 20.9515 19.2126 22.1099 18.6356 20.9293C18.5395 20.7336 18.4473 20.4936 18.3683 20.278C17.6267 18.2672 16.5731 16.4004 15.3511 14.6273C15.086 14.2282 14.7403 13.8148 14.5482 13.3858C14.1605 12.5461 15.0087 12.4186 15.6294 12.3122C16.8277 12.1121 18.0624 12.0062 19.3054 11.9674C20.1232 11.9441 20.9382 11.9563 21.7522 12.0206C22.4281 12.0904 23.7373 12.1625 23.855 12.9784V12.9867Z" fill="currentColor"/>
<path d="M16.962 22.7427C16.328 23.1346 15.2998 22.4795 14.656 22.2223C12.186 21.0705 10.7215 21.392 8.39512 22.6197C7.79709 22.9367 6.7203 23.4112 7.46135 22.3198C7.72862 21.9335 8.0754 21.5638 8.36365 21.1858C8.59723 20.8882 8.82142 20.5866 9.03899 20.2785C10.0429 18.8596 10.9005 17.296 11.6426 15.708C11.7575 15.4619 11.901 15.1776 12.0507 14.9786C12.5648 14.2498 13.0712 14.8334 13.4704 15.3184C14.2424 16.2506 14.9464 17.2589 15.6008 18.3153C16.0265 19.007 16.4197 19.7148 16.7665 20.4475C17.047 21.0794 17.6141 22.2156 16.968 22.7383L16.962 22.7427Z" fill="currentColor"/>
<path d="M9.81641 13.7238C10.272 14.0453 9.83684 14.839 9.69713 15.2647C9.31335 16.2407 8.85668 17.2063 8.33706 18.1701C8.01623 18.7632 7.67056 19.3468 7.30003 19.9066C6.8522 20.5357 6.08353 21.856 5.22044 21.6559C3.70962 21.0551 5.56502 17.3321 1.80619 14.8529C1.41137 14.5724 0.952487 14.2875 0.568707 14.0298C0.237939 13.7998 -0.372794 13.3447 0.309725 13.2837C0.915489 13.2555 1.61734 13.4522 2.23249 13.5199C3.54728 13.6978 4.86814 13.7565 6.20336 13.7299C7.06148 13.715 7.91794 13.6551 8.7722 13.5853C9.10959 13.5614 9.56681 13.557 9.81089 13.7199L9.81641 13.7238Z" fill="currentColor"/>
<path d="M9.49941 11.0544C9.44529 11.561 8.72964 11.6042 8.32046 11.6918C7.53689 11.8276 6.42531 11.9484 5.45068 12.0022C4.2397 12.0698 3.05744 12.0698 1.91604 11.9584C1.29979 11.8797 0.330674 11.7938 0.114211 11.1165C-0.121026 9.54456 4.09834 9.22087 4.47273 4.99351C4.53734 4.46252 4.56108 3.85062 4.60139 3.34457C4.6417 2.92943 4.74331 2.21388 5.14034 2.77756C5.46061 3.27529 5.64008 3.96091 5.88581 4.51296C6.38445 5.71239 6.98855 6.85528 7.67604 7.97046C8.12167 8.69765 8.6065 9.40101 9.09906 10.0972C9.28902 10.371 9.52094 10.7595 9.50051 11.0477V11.0544H9.49941Z" fill="currentColor"/>
<path d="M16.7836 1.22401C16.7228 1.45292 16.4699 1.80099 16.2811 2.03101C16.0513 2.30925 15.8128 2.59082 15.5919 2.87737C14.445 4.34839 13.4941 5.96407 12.6686 7.65125C12.52 7.95055 12.3803 8.26038 12.2318 8.55858C11.9767 9.06739 11.5774 9.68428 11.0131 9.19487C9.74797 7.99434 7.03722 3.88447 6.75725 2.19009C6.62528 1.11371 7.4094 0.973479 8.25924 1.31269C8.94342 1.58095 9.62152 1.94566 10.3239 2.18344C12.2831 2.87128 13.752 2.35581 15.4997 1.44017C15.7747 1.31103 16.8945 0.669743 16.7841 1.21902L16.7836 1.22401Z" fill="currentColor"/>
</svg>
