<svg viewBox="0 0 16 16" fill="none" xmlns="http://www.w3.org/2000/svg">
<path d="M9.25 3.37451C9.25 3.23644 9.13807 3.12451 9 3.12451H7C6.86193 3.12451 6.75 3.23644 6.75 3.37451V4.12549H9.25V3.37451ZM10.75 4.12549H11C11.9664 4.12549 12.7498 4.90913 12.75 5.87549V11.6255C12.75 12.592 11.9665 13.3755 11 13.3755H10.75V13.6255C10.75 14.0397 10.4142 14.3755 10 14.3755C9.58579 14.3755 9.25 14.0397 9.25 13.6255V13.3755H6.75V13.6255C6.75 14.0397 6.41421 14.3755 6 14.3755C5.58579 14.3755 5.25 14.0397 5.25 13.6255V13.3755H5C4.0335 13.3755 3.25 12.592 3.25 11.6255V5.87549C3.25016 4.90913 4.0336 4.12549 5 4.12549H5.25V3.37451C5.25 2.40801 6.0335 1.62451 7 1.62451H9C9.9665 1.62451 10.75 2.40801 10.75 3.37451V4.12549Z" fill="currentColor"/>
</svg>
