<svg viewBox="0 0 32 32" fill="none" xmlns="http://www.w3.org/2000/svg">
<path d="M18.5 6.99854C18.5 6.72239 18.2761 6.49854 18 6.49854H14C13.7239 6.49854 13.5 6.72239 13.5 6.99854V8.50146H18.5V6.99854ZM21.5 8.50146H22C23.933 8.50146 25.5 10.0685 25.5 12.0015V23.5015C25.4998 25.4343 23.9329 27.0015 22 27.0015H21.5V27.5015C21.4998 28.3297 20.8283 29.0015 20 29.0015C19.1717 29.0015 18.5002 28.3297 18.5 27.5015V27.0015H13.5V27.5015C13.4998 28.3297 12.8283 29.0015 12 29.0015C11.1717 29.0015 10.5002 28.3297 10.5 27.5015V27.0015H10C8.06712 27.0015 6.50019 25.4343 6.5 23.5015V12.0015C6.5 10.0685 8.067 8.50146 10 8.50146H10.5V6.99854C10.5 5.06554 12.067 3.49854 14 3.49854H18C19.933 3.49854 21.5 5.06554 21.5 6.99854V8.50146Z" fill="currentColor"/>
</svg>
