<svg viewBox="0 0 16 16" fill="none" xmlns="http://www.w3.org/2000/svg">
<path d="M11.0995 10.5562L9.40517 12.2495H10.8495C10.9876 12.2495 11.0995 12.1376 11.0995 11.9995V10.5562ZM9.0995 3.74854C9.0995 3.61046 8.98757 3.49854 8.8495 3.49854H6.8495C6.71161 3.49875 6.5995 3.61059 6.5995 3.74854V4.49951H9.0995V3.74854ZM12.5995 11.9995C12.5995 12.966 11.816 13.7495 10.8495 13.7495H10.5995V13.9995C10.5995 14.4137 10.2637 14.7495 9.8495 14.7495C9.43547 14.7493 9.0995 14.4136 9.0995 13.9995V13.7495H7.59267C7.28939 13.7494 7.01631 13.5668 6.90028 13.2866C6.78427 13.0064 6.84793 12.6837 7.06239 12.4692L11.3202 8.21631C11.5346 8.00209 11.8566 7.9374 12.1366 8.05322C12.4168 8.16935 12.5995 8.44329 12.5995 8.74658V11.9995ZM4.5995 10.7642L9.36415 5.99951H4.8495C4.71171 5.99972 4.59966 6.11171 4.5995 6.24951V10.7642ZM10.5995 4.49951H10.8495V4.51416L12.2196 3.14404C12.5125 2.85115 12.9873 2.85115 13.2802 3.14404C13.573 3.43694 13.5731 3.91171 13.2802 4.20459L3.28017 14.2046C2.9873 14.4974 2.51249 14.4974 2.21962 14.2046C1.92676 13.9117 1.92682 13.4369 2.21962 13.144L3.0995 12.2642V6.24951C3.09966 5.28328 3.88328 4.49972 4.8495 4.49951H5.0995V3.74854C5.0995 2.78217 5.88318 1.99875 6.8495 1.99854H8.8495C9.816 1.99854 10.5995 2.78204 10.5995 3.74854V4.49951Z" fill="currentColor"/>
</svg>
