<svg viewBox="0 0 24 24" fill="none" xmlns="http://www.w3.org/2000/svg">
<path d="M17 9.25C17 8.97387 16.7761 8.75 16.5 8.75H7.5C7.22387 8.75 7.00001 8.97387 7 9.25V17.75C7 18.0261 7.22386 18.25 7.5 18.25H16.5C16.7761 18.25 17 18.0261 17 17.75V9.25ZM14 5.25C14 4.97386 13.7761 4.75 13.5 4.75H10.5C10.2239 4.75 10 4.97386 10 5.25V6.75H14V5.25ZM16 6.75H16.5C17.8807 6.75 19 7.8693 19 9.25V17.75C19 19.1307 17.8807 20.25 16.5 20.25H16V20.75C16 21.3023 15.5523 21.75 15 21.75C14.4477 21.75 14 21.3023 14 20.75V20.25H10V20.75C10 21.3023 9.55228 21.75 9 21.75C8.44772 21.75 8 21.3023 8 20.75V20.25H7.5C6.11929 20.25 5 19.1307 5 17.75V9.25C5.00001 7.8693 6.1193 6.75 7.5 6.75H8V5.25C8 3.86929 9.11929 2.75 10.5 2.75H13.5C14.8807 2.75 16 3.86929 16 5.25V6.75Z" fill="currentColor"/>
</svg>
