<svg viewBox="0 0 24 24" fill="none" xmlns="http://www.w3.org/2000/svg">
<path d="M16.9999 14.7402L13.2958 18.4385H16.4999C16.7761 18.4385 16.9999 18.2146 16.9999 17.9385V14.7402ZM13.9999 5.56152C13.9999 5.28538 13.7761 5.06152 13.4999 5.06152H10.4999C10.2238 5.06156 9.99992 5.28541 9.99992 5.56152V6.81348H13.9999V5.56152ZM18.9999 17.9385C18.9999 19.3192 17.8806 20.4385 16.4999 20.4385H15.9999V20.9385C15.9999 21.4907 15.5522 21.9385 14.9999 21.9385C14.4477 21.9384 13.9999 21.4907 13.9999 20.9385V20.4385H10.8788C10.4742 20.4385 10.1087 20.1942 9.95402 19.8203C9.7996 19.4465 9.88556 19.0162 10.1718 18.7305L17.2939 11.6211C17.5799 11.3358 18.0095 11.2506 18.3827 11.4053C18.7562 11.5602 18.9999 11.9248 18.9999 12.3291V17.9385ZM6.99992 16.2744L14.4609 8.81348H7.49992C7.22381 8.81352 6.99992 9.03736 6.99992 9.31348V16.2744ZM15.9999 6.81348H16.4609L18.0429 5.23145C18.4334 4.84093 19.0664 4.84093 19.457 5.23145C19.8475 5.62197 19.8475 6.25498 19.457 6.64551L5.20695 20.8955C4.81643 21.286 4.18341 21.286 3.79289 20.8955C3.40237 20.505 3.40237 19.872 3.79289 19.4814L4.99992 18.2744V9.31348C4.99992 7.93279 6.11924 6.81352 7.49992 6.81348H7.99992V5.56152C7.99992 4.18084 9.11924 3.06156 10.4999 3.06152H13.4999C14.8806 3.06152 15.9999 4.18081 15.9999 5.56152V6.81348Z" fill="currentColor"/>
</svg>
