<svg viewBox="0 0 32 32" fill="none" xmlns="http://www.w3.org/2000/svg">
<path d="M22.4998 21.1118L19.1092 24.5005H21.9998C22.2758 24.5005 22.4995 24.2764 22.4998 24.0005V21.1118ZM18.4998 7.49756C18.4998 7.22142 18.2759 6.99756 17.9998 6.99756H13.9998C13.7237 6.99762 13.4998 7.22145 13.4998 7.49756V9.00049H18.4998V7.49756ZM25.4998 24.0005C25.4995 25.9333 23.9326 27.5005 21.9998 27.5005L21.4998 27.4995V28.0005C21.4995 28.8287 20.8281 29.5005 19.9998 29.5005C19.1716 29.5004 18.5001 28.8287 18.4998 28.0005V27.4995H15.4861C14.8794 27.4995 14.3325 27.1343 14.1004 26.5737C13.8683 26.0131 13.9964 25.3679 14.4256 24.939L22.9392 16.4321C23.3683 16.0034 24.0137 15.8757 24.574 16.1079C25.1344 16.3402 25.4998 16.8871 25.4998 17.4937V24.0005ZM9.49979 21.3784L18.8777 12.0005H9.99979C9.7237 12.0006 9.49979 12.2244 9.49979 12.5005V21.3784ZM21.4998 9.00049H21.8777L23.9392 6.93896C24.525 6.35343 25.4746 6.35343 26.0603 6.93896C26.6461 7.52469 26.6459 8.47426 26.0603 9.06006L7.06034 28.0601C6.47455 28.6458 5.52503 28.6458 4.93925 28.0601C4.35365 27.4743 4.35352 26.5247 4.93925 25.939L6.49979 24.3784V12.5005C6.49979 10.5675 8.06685 9.00055 9.99979 9.00049H10.4998V7.49756C10.4998 5.5646 12.0668 3.99762 13.9998 3.99756H17.9998C19.9328 3.99756 21.4998 5.56456 21.4998 7.49756V9.00049Z" fill="currentColor"/>
</svg>
