<svg viewBox="0 0 16 16" fill="none" xmlns="http://www.w3.org/2000/svg">
<path d="M13.3821 7.10645C13.3821 5.91556 12.9085 4.77385 12.0664 3.93176C10.3128 2.17821 7.4705 2.17823 5.71688 3.93176L4.70883 4.93873L5.90542 6.13635L6.91453 5.12938C7.43892 4.605 8.15005 4.3099 8.89166 4.3099C9.63326 4.30991 10.3444 4.605 10.8688 5.12938C11.9608 6.22135 11.9608 7.99154 10.8688 9.08351L9.86073 10.0915L11.0584 11.2881L12.0664 10.2811C12.9085 9.43904 13.3821 8.29733 13.3821 7.10645ZM7.76984 12.2592C7.76997 12.308 7.7901 12.3553 7.82462 12.3899L8.76104 13.3263C8.83315 13.3983 8.95017 13.3983 9.02227 13.3263L9.91445 12.432L8.7168 11.2354L7.82462 12.1286C7.79001 12.1633 7.76984 12.2103 7.76984 12.2592ZM2.61794 7.10645C2.61794 7.1554 2.63705 7.20243 2.67166 7.23706L3.60808 8.17345C3.68019 8.24556 3.79719 8.24553 3.86931 8.17345L4.76149 7.28024L3.56489 6.08263L2.67166 6.97583C2.63705 7.01046 2.61794 7.05749 2.61794 7.10645ZM15 7.10645C15 8.72644 14.3559 10.2806 13.2104 11.4261L10.1662 14.4701C9.46226 15.174 8.32106 15.174 7.61711 14.4701L6.68069 13.5338C6.34275 13.1958 6.15204 12.7371 6.15191 12.2592C6.15191 11.7812 6.34263 11.3217 6.68069 10.9837L9.72485 7.93962C10.185 7.47947 10.185 6.73342 9.72485 6.27328C9.50388 6.05231 9.20416 5.92779 8.89166 5.92779C8.61813 5.92779 8.35454 6.02344 8.14483 6.19533L8.05846 6.27328L5.0143 9.31735C4.31033 10.0213 3.16811 10.0213 2.46415 9.31735L1.52773 8.38095C1.1897 8.04291 1 7.58449 1 7.10645C1 6.6284 1.18969 6.16998 1.52773 5.83194L4.57189 2.78682C6.95719 0.401627 10.8249 0.401955 13.2104 2.78682C14.3559 3.93232 15 5.48646 15 7.10645Z" fill="currentColor"/>
</svg>
