<svg viewBox="0 0 24 24" fill="none" xmlns="http://www.w3.org/2000/svg">
<path d="M7.71429 21.0476V20.0953C7.71429 19.5693 8.14068 19.1429 8.66667 19.1429C9.19265 19.1429 9.61905 19.5693 9.61905 20.0953V21.0476C9.61903 21.5736 9.19264 22 8.66667 22C8.14069 22 7.7143 21.5736 7.71429 21.0476ZM20.0952 10.2898C20.0952 8.59661 19.4222 6.9727 18.2249 5.77541C15.7316 3.28218 11.6892 3.28218 9.19587 5.77541L7.68266 7.28859L9.57812 9.18402L11.0923 7.67084C11.7867 6.97639 12.7283 6.5856 13.7104 6.58548C14.6927 6.58548 15.6349 6.97628 16.3294 7.67084C17.7758 9.11719 17.7758 11.4615 16.3294 12.9079L14.8153 14.4211L16.7117 16.3174L18.2249 14.8043C19.4221 13.6071 20.0951 11.9829 20.0952 10.2898ZM4.85714 17.7962C5.22907 17.4243 5.83194 17.4243 6.20387 17.7962C6.57579 18.1681 6.5758 18.771 6.20387 19.1429L5.53051 19.8163C5.15858 20.1882 4.5557 20.1882 4.18378 19.8163C3.81186 19.4443 3.81187 18.8415 4.18378 18.4696L4.85714 17.7962ZM3.90476 14.3811C4.43075 14.3811 4.85714 14.8075 4.85714 15.3335C4.85713 15.8594 4.43074 16.2858 3.90476 16.2858H2.95238C2.4264 16.2858 2.00001 15.8594 2 15.3335C2 14.8075 2.4264 14.3811 2.95238 14.3811H3.90476ZM11.9907 17.4223C11.9907 17.5345 12.0351 17.6424 12.1144 17.7218L13.4118 19.0192C13.5771 19.1841 13.8446 19.1841 14.0099 19.0192L15.365 17.6641L13.4686 15.7678L12.1144 17.1238C12.0353 17.2031 11.9908 17.3103 11.9907 17.4223ZM4.85714 10.2898C4.85726 10.4018 4.90175 10.5091 4.98084 10.5884L6.27827 11.8858C6.4435 12.0508 6.71103 12.0508 6.8763 11.8858L8.2314 10.5307L6.33594 8.63529L4.98084 9.99036C4.90163 10.0697 4.85714 10.1777 4.85714 10.2898ZM22 10.2898C21.9999 12.4881 21.1269 14.5966 19.5725 16.151L15.3566 20.3659C14.4475 21.2747 12.9742 21.2747 12.0651 20.3659L10.7677 19.0685C10.3312 18.6319 10.0859 18.0397 10.0859 17.4223C10.086 16.805 10.3312 16.2127 10.7677 15.7762L14.9827 11.5612C15.6852 10.8587 15.6852 9.72005 14.9827 9.01754C14.6453 8.68019 14.1875 8.49021 13.7104 8.49021C13.2334 8.49033 12.7762 8.6803 12.439 9.01754L8.22396 13.2325C7.31485 14.1416 5.84071 14.1415 4.93155 13.2325L3.63411 11.936C3.19762 11.4995 2.95249 10.9071 2.95238 10.2898C2.95238 9.67254 3.19769 9.08022 3.63411 8.64366L7.84914 4.42778C11.0863 1.19075 16.3354 1.19073 19.5725 4.42778C21.1271 5.98228 22 8.09144 22 10.2898Z" fill="currentColor"/>
</svg>
