<svg viewBox="0 0 32 32" fill="none" xmlns="http://www.w3.org/2000/svg">
<path d="M10.2228 27.5552V26.592C10.2228 25.7941 10.8697 25.1472 11.6677 25.1472C12.4657 25.1472 13.1126 25.7941 13.1126 26.592V27.5552C13.1125 28.353 12.4656 29 11.6677 29C10.8698 29 10.2229 28.353 10.2228 27.5552ZM26.112 13.7187C26.112 11.6425 25.2868 9.65125 23.8186 8.18315C20.7612 5.12601 15.805 5.12604 12.7476 8.18315L11.0045 9.92518L13.059 11.9795L14.8021 10.2375C15.7252 9.31437 16.978 8.79643 18.2836 8.79643C19.5889 8.79656 20.8411 9.31448 21.7641 10.2375C23.6865 12.1597 23.6865 15.2767 21.7641 17.199L20.021 18.941L22.0755 20.9953L23.8186 19.2533C25.2866 17.7853 26.1119 15.7947 26.112 13.7187ZM6.02543 23.931C6.5897 23.3668 7.5053 23.3668 8.06955 23.931C8.63377 24.4952 8.63375 25.4107 8.06955 25.975L7.38755 26.656C6.82326 27.2198 5.90852 27.2201 5.34437 26.656C4.78011 26.0917 4.7801 25.1762 5.34437 24.612L6.02543 23.931ZM5.40646 19.3699C6.20445 19.3699 6.85135 20.0168 6.85135 20.8147C6.85135 21.6127 6.20445 22.2595 5.40646 22.2595H4.44319C3.64519 22.2595 2.99829 21.6127 2.99829 20.8147C2.9983 20.0168 3.6452 19.3699 4.44319 19.3699H5.40646ZM16.3495 22.7345C16.3496 22.8124 16.381 22.8873 16.436 22.9424L18.0757 24.581C18.1905 24.6957 18.3757 24.6957 18.4905 24.581L20.0323 23.0384L17.9778 20.984L16.436 22.5267C16.3809 22.5818 16.3495 22.6566 16.3495 22.7345ZM7.33299 13.7187C7.3331 13.7965 7.36451 13.8706 7.41953 13.9256L9.05821 15.5651C9.17301 15.6799 9.3592 15.6799 9.474 15.5651L11.0158 14.0225L8.96132 11.9682L7.41953 13.5108C7.3644 13.5659 7.33299 13.6407 7.33299 13.7187ZM29.0018 13.7187C29.0017 16.5611 27.8727 19.2874 25.8627 21.2973L20.5346 26.6249C19.2913 27.8681 17.2749 27.8681 16.0315 26.6249L14.3929 24.9854C13.7959 24.3885 13.4598 23.5788 13.4597 22.7345C13.4597 21.8902 13.7958 21.0807 14.3929 20.4836L16.9515 17.9251C16.9532 17.9235 16.9546 17.9212 16.9562 17.9195C16.9591 17.9167 16.9619 17.9138 16.9647 17.911L19.7209 15.156C20.5148 14.3622 20.5148 13.0743 19.7209 12.2805C19.3398 11.8994 18.8225 11.6861 18.2836 11.686C17.7444 11.686 17.2265 11.8993 16.8452 12.2805V12.2814L14.0853 15.0393C14.0837 15.0409 14.0831 15.0434 14.0815 15.045C14.0798 15.0466 14.0775 15.048 14.0758 15.0497L11.5172 17.6082C10.2738 18.8514 8.25836 18.8514 7.01503 17.6082L5.37541 15.9696C4.77845 15.3727 4.44331 14.5629 4.44319 13.7187C4.44319 12.8744 4.77834 12.0639 5.37541 11.4669L10.7035 6.13918C14.8894 1.95362 21.6768 1.95359 25.8627 6.13918C27.8728 8.14918 29.0018 10.8761 29.0018 13.7187Z" fill="currentColor"/>
</svg>
