<svg viewBox="0 0 24 24" fill="none" xmlns="http://www.w3.org/2000/svg">
<path d="M6.08301 8.58398C6.28993 8.10939 6.82103 7.8767 7.30371 8.03125L7.39941 8.06738L11.6045 9.90039L11.7012 9.93652C11.9298 10.0092 12.1781 9.99741 12.4004 9.90137L16.6035 8.08496L16.6992 8.04883C17.1823 7.89579 17.7125 8.13027 17.918 8.60547C18.1372 9.11239 17.9034 9.70073 17.3965 9.91992L13.1943 11.7373C12.4795 12.0463 11.6745 12.0644 10.9492 11.792L10.8047 11.7334L6.60059 9.90039L6.50879 9.85449C6.06707 9.60601 5.8761 9.05857 6.08301 8.58398Z" fill="currentColor"/>
<path d="M17 3.5C19.7614 3.5 22 5.73858 22 8.5V15.5C22 18.2614 19.7614 20.5 17 20.5H7C4.23858 20.5 2 18.2614 2 15.5V8.5C2 5.73858 4.23858 3.5 7 3.5H17ZM7 5.5C5.34315 5.5 4 6.84315 4 8.5V15.5C4 17.1569 5.34315 18.5 7 18.5H17C18.6569 18.5 20 17.1569 20 15.5V8.5C20 6.84315 18.6569 5.5 17 5.5H7Z" fill="currentColor"/>
</svg>
