<svg viewBox="0 0 32 32" fill="none" xmlns="http://www.w3.org/2000/svg">
<path d="M8.1875 11.4785C8.44619 10.8854 9.10964 10.594 9.71289 10.7871L9.83301 10.832L15.4395 13.2764L15.5762 13.3281C15.9002 13.4311 16.2523 13.4146 16.5674 13.2783L22.1709 10.8555C22.8044 10.5819 23.5395 10.8735 23.8135 11.5068C24.0874 12.1404 23.7965 12.8763 23.1631 13.1504L17.5596 15.5732C16.6261 15.9768 15.575 16.0004 14.6279 15.6445L14.4395 15.5684L8.83398 13.124L8.71875 13.0674C8.16664 12.7567 7.92885 12.0717 8.1875 11.4785Z" fill="currentColor"/>
<path d="M22.667 4.75C26.3026 4.75018 29.2498 7.69739 29.25 11.333V20.667C29.2498 24.3026 26.3026 27.2498 22.667 27.25H9.33301C5.69739 27.2498 2.75018 24.3026 2.75 20.667V11.333C2.75018 7.69739 5.69739 4.75018 9.33301 4.75H22.667ZM9.33301 7.25C7.0781 7.25018 5.25018 9.0781 5.25 11.333V20.667C5.25018 22.9219 7.0781 24.7498 9.33301 24.75H22.667C24.9219 24.7498 26.7498 22.9219 26.75 20.667V11.333C26.7498 9.0781 24.9219 7.25018 22.667 7.25H9.33301Z" fill="currentColor"/>
</svg>
