<svg viewBox="0 0 16 16" fill="none" xmlns="http://www.w3.org/2000/svg">
<path d="M3.97949 5.68945C4.13471 5.33358 4.53256 5.15854 4.89453 5.27441L4.9668 5.30176L7.76953 6.52344L7.88379 6.56055C8.00051 6.58482 8.12319 6.57249 8.23438 6.52441L11.0361 5.31348C11.4163 5.14929 11.8571 5.324 12.0215 5.7041C12.1858 6.08428 12.011 6.52604 11.6309 6.69043L8.8291 7.90137C8.36565 8.10167 7.84767 8.12622 7.37109 7.97461L7.16992 7.89844L4.36719 6.67676L4.29785 6.64258C3.96667 6.45617 3.82432 6.04534 3.97949 5.68945Z" fill="currentColor"/>
<path d="M11.333 2.25C13.22 2.25 14.75 3.78002 14.75 5.66699V10.333C14.75 12.22 13.22 13.75 11.333 13.75H4.66699C2.78002 13.75 1.25 12.22 1.25 10.333V5.66699C1.25 3.78002 2.78002 2.25 4.66699 2.25H11.333ZM4.66699 3.75C3.60845 3.75 2.75 4.60845 2.75 5.66699V10.333C2.75 11.3916 3.60845 12.25 4.66699 12.25H11.333C12.3916 12.25 13.25 11.3916 13.25 10.333V5.66699C13.25 4.60845 12.3916 3.75 11.333 3.75H4.66699Z" fill="currentColor"/>
</svg>
