<svg viewBox="0 0 24 24" fill="none" xmlns="http://www.w3.org/2000/svg">
<path d="M7 6.99971H2V0.999707C2.00004 0.854447 2.03173 0.710942 2.09286 0.579171C2.15399 0.447401 2.24309 0.33053 2.35397 0.236688C2.46485 0.142847 2.59484 0.0742871 2.7349 0.035779C2.87496 -0.00272911 3.02173 -0.0102613 3.165 0.0137065L6.165 0.513707C6.39832 0.552739 6.61024 0.673221 6.76312 0.853746C6.916 1.03427 6.99993 1.26315 7 1.49971V6.99971Z" fill="currentColor"/>
<path d="M18.33 18.9997H23C23.2652 18.9997 23.5196 19.1051 23.7071 19.2926C23.8946 19.4801 24 19.7345 24 19.9997V21.9997C24 22.5301 23.7893 23.0389 23.4142 23.4139C23.0391 23.789 22.5304 23.9997 22 23.9997H11V17.3997C11.9513 17.7936 12.9704 17.9974 14 17.9997C15.2287 18.0024 16.4415 17.7221 17.5444 17.1804C18.6472 16.6387 19.6105 15.8503 20.3595 14.8763C21.1084 13.9022 21.623 12.7688 21.8632 11.5638C22.1034 10.3588 22.0629 9.11464 21.7446 7.92786C21.4264 6.74108 20.8391 5.64355 20.0283 4.72038C19.2174 3.79721 18.2048 3.07322 17.069 2.60455C15.9332 2.13589 14.7047 1.93515 13.4788 2.0179C12.2529 2.10065 11.0625 2.46466 10 3.08171V0.840715C12.399 -0.205419 15.1126 -0.268484 17.5576 0.665078C20.0025 1.59864 21.9836 3.45428 23.0748 5.83307C24.166 8.21186 24.2802 10.9238 23.393 13.386C22.5057 15.8481 20.6878 17.8638 18.33 18.9997Z" fill="currentColor"/>
<path d="M1 14.9998H8C8.55229 14.9998 9 15.4475 9 15.9998V22.9998C9 23.552 8.55229 23.9998 8 23.9998H1C0.447715 23.9998 0 23.552 0 22.9998V15.9998C0 15.4475 0.447715 14.9998 1 14.9998Z" fill="currentColor"/>
<path d="M7 8.99976H2C1.73478 8.99976 1.48043 9.10511 1.29289 9.29265C1.10536 9.48019 1 9.73454 1 9.99976V12.9998H8V9.99976C8 9.73454 7.89464 9.48019 7.70711 9.29265C7.51957 9.10511 7.26522 8.99976 7 8.99976Z" fill="currentColor"/>
</svg>
