<svg viewBox="0 0 24 24" fill="none" xmlns="http://www.w3.org/2000/svg">
<path d="M18.0029 10.9997C19.6601 10.9999 21.0039 12.3435 21.0039 14.0006V20.0026C21.0038 21.1072 20.1076 22.0035 19.0029 22.0036H15.001C13.8965 22.0033 13.0011 21.1071 13.001 20.0026V14.0006C13.001 12.3433 14.3446 10.9997 16.002 10.9997H18.0029ZM16.002 12.9997C15.4492 12.9997 15.001 13.4479 15.001 14.0006V20.0036H19.0029L19.0039 20.0026V14.0006C19.0039 13.448 18.5555 12.9999 18.0029 12.9997H16.002Z" fill="currentColor"/>
<path d="M7.22168 2.15297C7.81543 1.90276 8.49714 1.95321 9.0498 2.29457L9.15723 2.36586C9.68239 2.73907 9.99842 3.34527 9.99902 3.99477V9.65102C10.5965 9.9969 10.9998 10.6416 11 11.3815V19.0016C11 20.6587 9.65604 22.0022 7.99902 22.0026H5.99805C4.34073 22.0026 2.99707 20.6589 2.99707 19.0016V11.3815C2.99731 10.6416 3.39966 9.99689 3.99707 9.65102V4.99575L4.00195 4.85414C4.04868 4.19969 4.41463 3.6089 4.97949 3.27504L5.10352 3.20668L7.10352 2.20668L7.22168 2.15297ZM4.99707 16.0006V19.0016C4.99707 19.5544 5.4453 20.0026 5.99805 20.0026H7.99902C8.55147 20.0022 9 19.5541 9 19.0016V16.0006H4.99707ZM4.99707 14.0006H9V11.3815H4.99707V14.0006ZM5.99707 4.99575V9.38149H7.99902V3.99575L5.99707 4.99575Z" fill="currentColor"/>
</svg>
