<svg viewBox="0 0 16 16" fill="none" xmlns="http://www.w3.org/2000/svg">
<path d="M4.86621 1.32643C5.20896 1.20717 5.58537 1.22469 5.91602 1.37428L6.07617 1.46022L6.22559 1.56569C6.55387 1.83245 6.74873 2.23495 6.74902 2.66432V6.386C7.14973 6.63648 7.41602 7.0819 7.41602 7.58913V12.6692C7.4159 13.8199 6.48277 14.7531 5.33203 14.7532H3.99805C2.91925 14.753 2.03151 13.9328 1.9248 12.8821L1.91406 12.6692V7.58913C1.91406 7.08237 2.18103 6.63843 2.58105 6.38795V3.33131L2.59473 3.13307C2.65942 2.67653 2.94446 2.27469 3.36426 2.06471L4.69824 1.39772L4.86621 1.32643ZM3.41406 10.7512V12.6692L3.42578 12.7864C3.48007 13.0525 3.71592 13.253 3.99805 13.2532H5.33203C5.65434 13.2531 5.9159 12.9915 5.91602 12.6692V10.7512H3.41406ZM3.41406 9.25124H5.91602V7.67213H3.41406V9.25124ZM4.08105 3.38307V6.17213H5.24902V2.79909L4.08105 3.38307Z" fill="currentColor"/>
<path d="M12.2148 7.261C13.2655 7.36776 14.0858 8.25544 14.0859 9.33424V13.3362C14.0857 14.1185 13.4512 14.753 12.6689 14.7532H10.001C9.21855 14.7532 8.58419 14.1186 8.58398 13.3362V9.33424C8.58413 8.18347 9.51716 7.25026 10.668 7.25026H12.002L12.2148 7.261ZM10.668 8.75026C10.3456 8.75026 10.0841 9.0119 10.084 9.33424V13.2532H12.5859V9.33424C12.5858 9.05211 12.3852 8.81631 12.1191 8.76198L12.002 8.75026H10.668Z" fill="currentColor"/>
</svg>
