<svg viewBox="0 0 32 32" fill="none" xmlns="http://www.w3.org/2000/svg">
<path d="M9.33313 9.33363H2.66667V1.33388C2.66672 1.14021 2.70897 0.94887 2.79048 0.773181C2.87198 0.597493 2.99078 0.44167 3.13861 0.316551C3.28644 0.191433 3.45976 0.100023 3.6465 0.0486804C3.83325 -0.00266218 4.02893 -0.0127047 4.21995 0.0192513L8.21983 0.685898C8.53091 0.737939 8.81347 0.898577 9.0173 1.13927C9.22113 1.37996 9.33304 1.68512 9.33313 2.00052V9.33363Z" fill="currentColor"/>
<path d="M24.4392 25.3332H30.6656C31.0193 25.3332 31.3584 25.4737 31.6084 25.7237C31.8585 25.9738 31.9989 26.3129 31.9989 26.6665V29.3331C31.9989 30.0403 31.718 30.7186 31.2179 31.2187C30.7178 31.7188 30.0396 31.9997 29.3324 31.9997H14.6661V23.2C15.9344 23.7251 17.2933 23.9969 18.666 23.9999C20.3042 24.0035 21.9213 23.6298 23.3917 22.9075C24.8621 22.1853 26.1465 21.1341 27.1451 19.8355C28.1437 18.5368 28.8297 17.0255 29.15 15.4189C29.4703 13.8123 29.4162 12.1535 28.9919 10.5712C28.5676 8.98889 27.7846 7.52556 26.7035 6.2947C25.6224 5.06385 24.2723 4.09856 22.7579 3.47369C21.2436 2.84882 19.6056 2.58118 17.9711 2.69151C16.3366 2.80183 14.7495 3.28717 13.3328 4.10989V1.12198C16.5314 -0.272826 20.1494 -0.35691 23.4093 0.887802C26.6691 2.13251 29.3104 4.60663 30.7653 7.77825C32.2203 10.9499 32.3726 14.5657 31.1896 17.8485C30.0066 21.1312 27.5828 23.8188 24.4392 25.3332Z" fill="currentColor"/>
<path d="M1.33329 19.9999H10.6663C11.4027 19.9999 11.9996 20.5968 11.9996 21.3332V30.6662C11.9996 31.4026 11.4027 31.9995 10.6663 31.9995H1.33329C0.596935 31.9995 0 31.4026 0 30.6662V21.3332C0 20.5968 0.596935 19.9999 1.33329 19.9999Z" fill="currentColor"/>
<path d="M9.33297 12.0001H2.6665C2.31289 12.0001 1.97376 12.1406 1.72372 12.3906C1.47368 12.6407 1.33321 12.9798 1.33321 13.3334V17.3333H10.6663V13.3334C10.6663 12.9798 10.5258 12.6407 10.2757 12.3906C10.0257 12.1406 9.68658 12.0001 9.33297 12.0001Z" fill="currentColor"/>
</svg>
