<svg viewBox="0 0 16 16" fill="none" xmlns="http://www.w3.org/2000/svg">
<path d="M4.66658 4.66647H1.33325V0.666471C1.33328 0.569632 1.35441 0.473961 1.39516 0.386114C1.43591 0.298267 1.49531 0.220353 1.56923 0.157792C1.64315 0.0952311 1.72981 0.0495247 1.82319 0.0238527C1.91656 -0.00181941 2.01441 -0.00684084 2.10992 0.00913765L4.10992 0.342471C4.26546 0.368493 4.40675 0.448814 4.50867 0.569164C4.61059 0.689513 4.66654 0.842097 4.66658 0.999804V4.66647Z" fill="currentColor"/>
<path d="M12.2201 12.6662H15.3334C15.5102 12.6662 15.6798 12.7364 15.8048 12.8614C15.9298 12.9864 16.0001 13.156 16.0001 13.3328V14.6662C16.0001 15.0198 15.8596 15.3589 15.6096 15.609C15.3595 15.859 15.0204 15.9995 14.6667 15.9995H7.33341V11.5995C7.96759 11.8621 8.64703 11.998 9.33341 11.9995C10.1525 12.0013 10.9611 11.8144 11.6963 11.4533C12.4316 11.0922 13.0737 10.5665 13.5731 9.91718C14.0724 9.26782 14.4154 8.51218 14.5756 7.70885C14.7357 6.90552 14.7087 6.0761 14.4965 5.28491C14.2844 4.49373 13.8928 3.76204 13.3523 3.14659C12.8117 2.53115 12.1366 2.04849 11.3794 1.73604C10.6222 1.4236 9.80323 1.28977 8.98596 1.34494C8.16868 1.40011 7.3751 1.64278 6.66675 2.05415V0.560151C8.26605 -0.137272 10.0752 -0.179315 11.7051 0.44306C13.3351 1.06543 14.6558 2.30253 15.3833 3.88839C16.1107 5.47425 16.1869 7.28224 15.5954 8.92366C15.0039 10.5651 13.7919 11.9089 12.2201 12.6662Z" fill="currentColor"/>
<path d="M0.666667 9.99951H5.33333C5.70152 9.99951 6 10.298 6 10.6662V15.3328C6 15.701 5.70152 15.9995 5.33333 15.9995H0.666667C0.298477 15.9995 0 15.701 0 15.3328V10.6662C0 10.298 0.298477 9.99951 0.666667 9.99951Z" fill="currentColor"/>
<path d="M4.66675 5.99951H1.33341C1.1566 5.99951 0.987034 6.06975 0.86201 6.19477C0.736986 6.3198 0.666748 6.48937 0.666748 6.66618V8.66618H5.33341V6.66618C5.33341 6.48937 5.26318 6.3198 5.13815 6.19477C5.01313 6.06975 4.84356 5.99951 4.66675 5.99951Z" fill="currentColor"/>
</svg>
