<svg viewBox="0 0 32 32" fill="none" xmlns="http://www.w3.org/2000/svg">
<path d="M9.66113 2.94889C10.4281 2.62559 11.3085 2.69056 12.0225 3.13151L12.1621 3.22428C12.8402 3.70638 13.2483 4.48903 13.249 5.3278V12.9167C14.0437 13.3573 14.5819 14.2043 14.582 15.1774V25.3376C14.582 27.5011 12.8285 29.2553 10.665 29.2555H7.99707C5.83335 29.2555 4.07911 27.5013 4.0791 25.3376V15.1774C4.07919 14.204 4.61791 13.3572 5.41309 12.9167V6.66178L5.41992 6.48014C5.48438 5.57423 6.0214 4.76224 6.8418 4.35221L9.50977 3.01823L9.66113 2.94889ZM6.5791 21.2526V25.3376C6.57911 26.1206 7.21406 26.7555 7.99707 26.7555H10.665C11.4478 26.7553 12.082 26.1204 12.082 25.3376V21.2526H6.5791ZM6.66309 15.0934C6.61684 15.0934 6.57923 15.1312 6.5791 15.1774V18.7526H12.082V15.1774C12.0819 15.1314 12.045 15.0937 11.999 15.0934H6.66309ZM10.627 5.25358L10.6279 5.25456L7.95996 6.58854C7.93169 6.60267 7.91329 6.63216 7.91309 6.66374V12.5934H10.749V5.32975L10.7383 5.28874L10.709 5.25846C10.6844 5.24332 10.6528 5.24091 10.627 5.25358Z" fill="currentColor"/>
<path d="M24.0039 14.7507C26.1674 14.7509 27.9209 16.5051 27.9209 18.6686V26.6715C27.9208 28.0983 26.7646 29.2552 25.3379 29.2555H20.002C18.575 29.2555 17.4181 28.0985 17.418 26.6715V18.6686C17.418 16.5049 19.1722 14.7507 21.3359 14.7507H24.0039ZM21.3359 17.2507C20.5529 17.2507 19.918 17.8856 19.918 18.6686V26.6715C19.9181 26.7178 19.9557 26.7555 20.002 26.7555H25.3379C25.3839 26.7552 25.4208 26.7176 25.4209 26.6715V18.6686C25.4209 17.8858 24.7867 17.2509 24.0039 17.2507H21.3359Z" fill="currentColor"/>
</svg>
