<svg viewBox="0 0 16 16" fill="none" xmlns="http://www.w3.org/2000/svg">
<path d="M10.6982 6.72451C11.7778 5.64505 13.5279 5.64505 14.6074 6.72451C15.6866 7.80386 15.6861 9.55367 14.6064 10.6327L14.6074 10.6337L11.3008 13.9403C10.2213 15.0198 8.47117 15.0197 7.3916 13.9403C6.31212 12.8608 6.31207 11.1107 7.3916 10.0312L10.6982 6.72451ZM8.45215 11.0917C7.95851 11.5853 7.95879 12.385 8.45215 12.8788C8.94592 13.3726 9.74548 13.3726 10.2393 12.8788L11.3613 11.7558L9.57422 9.96865L8.45215 11.0917ZM13.5459 7.78506C13.0521 7.29173 12.2524 7.2915 11.7588 7.78506L10.6357 8.90713L12.4229 10.6942L13.5459 9.57217L13.6338 9.47646C14.0382 8.98058 14.0088 8.24798 13.5459 7.78506Z" fill="currentColor"/>
<path d="M1.71094 4.12978C3.0089 2.95677 4.99003 2.95693 6.28809 4.12978L6.41602 4.25088L6.53711 4.37783C7.70976 5.67572 7.70965 7.65703 6.53711 8.95498L6.41602 9.08291C5.12341 10.3753 3.05207 10.4157 1.71094 9.204L1.58398 9.08291C0.925626 8.42451 0.592607 7.56399 0.583984 6.70107C0.583452 6.68948 0.583008 6.67765 0.583008 6.66592C0.583016 6.65348 0.583378 6.6411 0.583984 6.62881C0.593486 5.76716 0.926644 4.90835 1.58398 4.25088L1.71094 4.12978ZM2.23633 7.41592C2.3297 7.63573 2.46531 7.8421 2.64453 8.02139L2.79004 8.15322C3.54276 8.7672 4.65274 8.72289 5.35449 8.02139L5.48633 7.87588C5.60219 7.7338 5.69369 7.57829 5.7627 7.41592H2.23633ZM5.20898 5.17959C4.50641 4.60688 3.49253 4.60671 2.79004 5.17959L2.64453 5.31143C2.4656 5.49042 2.33064 5.69651 2.2373 5.91592H5.7627C5.69371 5.75374 5.60208 5.59885 5.48633 5.45693L5.35449 5.31143L5.20898 5.17959Z" fill="currentColor"/>
<path d="M8.1416 1.1249C9.07124 0.366828 10.4315 0.406149 11.3184 1.23916L11.376 1.29092L11.541 1.47451C12.2637 2.36055 12.2639 3.63934 11.541 4.52529L11.376 4.70889C10.4912 5.59368 9.09081 5.64815 8.1416 4.87393L7.95801 4.70889C7.01432 3.76511 7.01427 2.23466 7.95801 1.29092L8.1416 1.1249ZM10.2451 2.28799C9.90915 2.01427 9.4238 2.01416 9.08789 2.28799L9.01855 2.35146C8.66065 2.70936 8.66081 3.28936 9.01855 3.64736L9.08789 3.71084C9.44793 4.00454 9.97883 3.98299 10.3145 3.64736L10.3779 3.57803C10.6518 3.24198 10.652 2.75676 10.3779 2.4208L10.3145 2.35146L10.2451 2.28799Z" fill="currentColor"/>
</svg>
