<svg viewBox="0 0 24 24" fill="none" xmlns="http://www.w3.org/2000/svg">
<path d="M18 5C18 4.44772 17.5523 4 17 4H7C6.44772 4 6 4.44772 6 5V19C6 19.5523 6.44772 20 7 20H17C17.5523 20 18 19.5523 18 19V5ZM11 15.5V14.501H10C9.44787 14.501 9.00026 14.053 9 13.501C9 12.9487 9.44772 12.501 10 12.501H11V11.5C11 10.9477 11.4477 10.5 12 10.5C12.5523 10.5 13 10.9477 13 11.5V12.501H14C14.5523 12.501 15 12.9487 15 13.501C14.9997 14.053 14.5521 14.501 14 14.501H13V15.5C13 16.0523 12.5523 16.5 12 16.5C11.4477 16.5 11 16.0523 11 15.5ZM14.5 6C15.0523 6 15.5 6.44772 15.5 7C15.5 7.55228 15.0523 8 14.5 8H9.5C8.94772 8 8.5 7.55228 8.5 7C8.5 6.44772 8.94772 6 9.5 6H14.5ZM20 19C20 20.6569 18.6569 22 17 22H7C5.34315 22 4 20.6569 4 19V5C4 3.34315 5.34315 2 7 2H17C18.6569 2 20 3.34315 20 5V19Z" fill="currentColor"/>
</svg>
