<svg viewBox="0 0 24 24" fill="none" xmlns="http://www.w3.org/2000/svg">
<path d="M16.2865 10.033C17.8651 8.60694 20.3013 8.65427 21.8226 10.1756C23.3436 11.6969 23.3919 14.1348 21.9652 15.7127L21.8226 15.8621L16.8627 20.8221C15.2922 22.3925 12.7467 22.3923 11.1761 20.8221C9.60564 19.2516 9.60562 16.7061 11.1761 15.1356L16.1361 10.1756L16.2865 10.033ZM12.5902 16.5496C11.8007 17.3391 11.8007 18.6185 12.5902 19.408C13.3797 20.1972 14.6592 20.1974 15.4486 19.408L17.2211 17.6346L14.3627 14.7762L12.5902 16.5496ZM20.4086 11.5897C19.6191 10.8003 18.3396 10.8003 17.5502 11.5897L15.7767 13.3621L18.6351 16.2205L20.4086 14.4481L20.5472 14.2938C21.1941 13.5009 21.1485 12.3299 20.4086 11.5897Z" fill="currentColor"/>
<path d="M2.65172 6.28693C4.6145 4.51387 7.64403 4.57317 9.53551 6.46466L9.71325 6.65119C10.5643 7.5934 10.9917 8.78155 10.9984 9.9715C10.9987 9.98088 11.0004 9.99038 11.0004 9.99982C11.0004 10.009 10.9986 10.0181 10.9984 10.0272C10.9919 11.2174 10.5646 12.406 9.71325 13.3485L9.53551 13.535C7.64406 15.4264 4.6145 15.4856 2.65172 13.7127L2.4652 13.535C0.512578 11.5824 0.512574 8.41728 2.4652 6.46466L2.65172 6.28693ZM3.17516 10.9998C3.31961 11.4086 3.55218 11.7938 3.87926 12.1209L3.99059 12.2274C5.16824 13.2914 6.98648 13.2559 8.12145 12.1209L8.2279 12.0096C8.50045 11.708 8.69823 11.3632 8.82653 10.9998H3.17516ZM8.01012 7.77228C6.87042 6.74226 5.13036 6.74234 3.99059 7.77228L3.87926 7.87873C3.55203 8.20596 3.31862 8.59079 3.17419 8.99982H8.82653C8.69825 8.63637 8.50044 8.2917 8.2279 7.99005L8.12145 7.87873L8.01012 7.77228Z" fill="currentColor"/>
<path d="M12.1556 1.90119C13.5296 0.659544 15.6507 0.700991 16.975 2.02521L17.099 2.15509C18.3006 3.48481 18.3007 5.51488 17.099 6.84455L16.975 6.97443C15.6508 8.2986 13.5296 8.33997 12.1556 7.09845L12.0257 6.97443C10.6589 5.60759 10.6589 3.39205 12.0257 2.02521L12.1556 1.90119ZM15.4466 3.33576C14.897 2.88782 14.1038 2.8879 13.5541 3.33576L13.4398 3.43927C12.854 4.02506 12.854 4.97458 13.4398 5.56037L13.5541 5.66388C14.1432 6.14377 15.012 6.10931 15.5609 5.56037L15.6644 5.44611C16.1123 4.89649 16.1122 4.1032 15.6644 3.55353L15.5609 3.43927L15.4466 3.33576Z" fill="currentColor"/>
</svg>
