<svg viewBox="0 0 16 16" fill="none" xmlns="http://www.w3.org/2000/svg">
<path d="M5.78705 9.03602C5.48541 9.76416 5.33118 10.5449 5.33329 11.333C5.33427 11.6908 5.36707 12.0478 5.43129 12.3997C4.5761 12.7266 3.63467 12.7502 2.76418 12.4666C1.89369 12.183 1.14682 11.6094 0.648269 10.8415C0.149721 10.0737 -0.0703288 9.15801 0.0248587 8.24745C0.120046 7.33689 0.52471 6.48654 1.17129 5.83837L5.83795 1.17171C6.48602 0.524921 7.33637 0.120045 8.24699 0.024688C9.15761 -0.0706685 10.0734 0.149267 10.8414 0.647768C11.6094 1.14627 12.1831 1.89316 12.4668 2.76371C12.7504 3.63426 12.7268 4.57578 12.4 5.43104C12.048 5.36682 11.691 5.33402 11.3333 5.33304C11.2312 5.33304 11.1303 5.3399 11.0297 5.34675C11.0049 5.34843 10.9801 5.35012 10.9553 5.35171C11.2902 4.79376 11.4089 4.13241 11.289 3.49282C11.1691 2.85323 10.8189 2.27977 10.3048 1.88096C9.79056 1.48215 9.14801 1.28566 8.4987 1.32867C7.8494 1.37169 7.23838 1.65122 6.78129 2.11437L4.44795 4.44771L7.09062 7.09104C6.53177 7.6468 6.0887 8.30788 5.78705 9.03602Z" fill="currentColor"/>
<path d="M14.1247 7.59968C13.2272 6.92693 12.1172 6.60044 10.9983 6.68011C9.87949 6.75979 8.82692 7.24028 8.03378 8.03342C7.24065 8.82656 6.76015 9.87912 6.68048 10.998C6.60081 12.1168 6.9273 13.2268 7.60004 14.1243L14.1247 7.59968Z" fill="currentColor"/>
<path d="M8.54199 15.0664C9.43952 15.7391 10.5496 16.0656 11.6684 15.9859C12.7872 15.9062 13.8398 15.4257 14.6329 14.6326C15.4261 13.8395 15.9065 12.7869 15.9862 11.6681C16.0659 10.5492 15.7394 9.43921 15.0667 8.54169L8.54199 15.0664Z" fill="currentColor"/>
</svg>
