<svg viewBox="0 0 24 24" fill="none" xmlns="http://www.w3.org/2000/svg">
<path d="M8.6807 13.5545C8.22823 14.6467 7.99689 15.8178 8.00005 17C8.00153 17.5367 8.05072 18.0721 8.14705 18.6C6.86428 19.0903 5.45213 19.1258 4.14639 18.7004C2.84065 18.275 1.72035 17.4146 0.972526 16.2628C0.224704 15.111 -0.105371 13.7375 0.0374101 12.3717C0.180191 11.0058 0.787187 9.7303 1.75705 8.75805L8.75705 1.75805C9.72915 0.78787 11.0047 0.180555 12.3706 0.0375203C13.7365 -0.105515 15.1102 0.224389 16.2622 0.97214C17.4142 1.71989 18.2748 2.84022 18.7003 4.14605C19.1258 5.45188 19.0904 6.86416 18.6001 8.14705C18.0721 8.05072 17.5367 8.00152 17.0001 8.00005C16.8469 8.00005 16.6956 8.01034 16.5447 8.02061C16.5075 8.02314 16.4703 8.02567 16.4331 8.02805C16.9354 7.19112 17.1134 6.1991 16.9336 5.23971C16.7538 4.28033 16.2285 3.42014 15.4573 2.82192C14.686 2.22371 13.7221 1.92898 12.7482 1.9935C11.7742 2.05802 10.8577 2.47732 10.1721 3.17205L6.67205 6.67205L10.6361 10.637C9.79778 11.4707 9.13317 12.4623 8.6807 13.5545Z" fill="currentColor"/>
<path d="M21.1869 11.4001C19.8407 10.3909 18.1756 9.90121 16.4974 10.0207C14.8191 10.1402 13.2403 10.861 12.0506 12.0507C10.8609 13.2404 10.1401 14.8192 10.0206 16.4975C9.90109 18.1757 10.3908 19.8408 11.3999 21.1871L21.1869 11.4001Z" fill="currentColor"/>
<path d="M12.813 22.6C14.1593 23.6092 15.8243 24.0989 17.5026 23.9794C19.1808 23.8599 20.7597 23.1391 21.9494 21.9494C23.1391 20.7597 23.8598 19.1809 23.9793 17.5026C24.0988 15.8244 23.6091 14.1593 22.6 12.813L12.813 22.6Z" fill="currentColor"/>
</svg>
