<svg viewBox="0 0 32 32" fill="none" xmlns="http://www.w3.org/2000/svg">
<path d="M11.5741 18.073C10.9708 19.5293 10.6624 21.0908 10.6666 22.6671C10.6685 23.3826 10.7341 24.0965 10.8626 24.8004C9.15221 25.4541 7.26935 25.5013 5.52836 24.9342C3.78737 24.367 2.29363 23.2198 1.29654 21.684C0.299443 20.1483 -0.140658 18.317 0.0497174 16.4959C0.240092 14.6748 1.04942 12.9741 2.34257 11.6777L11.6759 2.34439C12.972 1.05082 14.6727 0.241066 16.494 0.0503526C18.3152 -0.140361 20.1468 0.299511 21.6828 1.29651C23.2188 2.29351 24.3662 3.78729 24.9335 5.5284C25.5009 7.26951 25.4537 9.15254 24.7999 10.8631C24.096 10.7346 23.3821 10.669 22.6666 10.6671C22.4623 10.6671 22.2607 10.6808 22.0595 10.6945C22.0098 10.6978 21.9602 10.7012 21.9106 10.7044C22.5803 9.58849 22.8178 8.26579 22.578 6.98661C22.3382 5.70743 21.6379 4.56051 20.6095 3.76289C19.5811 2.96527 18.296 2.5723 16.9974 2.65832C15.6988 2.74435 14.4768 3.30342 13.5626 4.22972L8.89591 8.89639L14.1812 14.1831C13.0635 15.2946 12.1774 16.6167 11.5741 18.073Z" fill="currentColor"/>
<path d="M28.2494 15.2003C26.4544 13.8548 24.2343 13.2019 21.9966 13.3612C19.759 13.5206 17.6538 14.4815 16.0676 16.0678C14.4813 17.6541 13.5203 19.7592 13.361 21.9969C13.2016 24.2345 13.8546 26.4546 15.2001 28.2497L28.2494 15.2003Z" fill="currentColor"/>
<path d="M17.084 30.1337C18.879 31.4792 21.0991 32.1322 23.3368 31.9728C25.5744 31.8135 27.6796 30.8525 29.2658 29.2662C30.8521 27.6799 31.8131 25.5748 31.9724 23.3371C32.1318 21.0995 31.4788 18.8794 30.1333 17.0844L17.084 30.1337Z" fill="currentColor"/>
</svg>
