<svg viewBox="0 0 16 16" fill="none" xmlns="http://www.w3.org/2000/svg">
<path d="M12 3.25C12 2.83579 11.6642 2.5 11.25 2.5H4.75C4.33579 2.5 4 2.83579 4 3.25V12.75C4 13.1642 4.33579 13.5 4.75 13.5H11.25C11.6642 13.5 12 13.1642 12 12.75V3.25ZM7.25 10.25V9.75H6.75C6.33579 9.75 6 9.41421 6 9C6.00018 8.58594 6.3359 8.25 6.75 8.25H7.25V7.75C7.25 7.33579 7.58579 7 8 7C8.41421 7 8.75 7.33579 8.75 7.75V8.25H9.25C9.6641 8.25 9.99982 8.58594 10 9C10 9.41421 9.66421 9.75 9.25 9.75H8.75V10.25C8.75 10.6642 8.41421 11 8 11C7.58579 11 7.25 10.6642 7.25 10.25ZM9.75 4C10.1642 4 10.5 4.33579 10.5 4.75C10.5 5.16421 10.1642 5.5 9.75 5.5H6.25C5.83579 5.5 5.5 5.16421 5.5 4.75C5.5 4.33579 5.83579 4 6.25 4H9.75ZM13.5 12.75C13.5 13.9926 12.4926 15 11.25 15H4.75C3.50736 15 2.5 13.9926 2.5 12.75V3.25C2.5 2.00736 3.50736 1 4.75 1H11.25C12.4926 1 13.5 2.00736 13.5 3.25V12.75Z" fill="currentColor"/>
</svg>
