<svg viewBox="0 0 32 32" fill="none" xmlns="http://www.w3.org/2000/svg">
<path d="M21.7703 13.4391C23.8422 11.5669 27.0397 11.629 29.0369 13.6256C31.0982 15.6868 31.099 19.03 29.0369 21.0904L29.0359 21.0894L22.4236 27.7027C20.3621 29.7642 17.0212 29.7642 14.9597 27.7027C12.8989 25.6412 12.8985 22.3002 14.9597 20.2389L21.573 13.6256L21.7703 13.4391ZM16.7273 22.0064C15.6423 23.0914 15.6427 24.8499 16.7273 25.9352C17.8125 27.0203 19.5709 27.0203 20.656 25.9352L23.0789 23.5123L19.1502 19.5836L16.7273 22.0064ZM27.2693 15.3932C26.1841 14.3086 24.4256 14.3083 23.3406 15.3932L20.9178 17.816L24.8465 21.7447L27.2693 19.3219L27.4607 19.1109C28.3502 18.0209 28.2868 16.4107 27.2693 15.3932Z" fill="currentColor"/>
<path d="M3.59061 8.44394C6.09155 6.18449 9.90908 6.18438 12.4099 8.44394L12.6551 8.67734L12.8885 8.92343C15.1482 11.4245 15.1484 15.2418 12.8885 17.7428L12.6551 17.9879C10.1644 20.4784 6.17488 20.5562 3.59061 18.2213L3.34451 17.9879C0.773916 15.4169 0.773751 11.2482 3.34451 8.67734L3.59061 8.44394ZM4.11405 14.5826C4.30603 15.1813 4.63789 15.7451 5.11307 16.2203L5.26541 16.3648C6.8683 17.813 9.3427 17.765 10.8875 16.2203L11.032 16.068C11.4309 15.6265 11.7156 15.1186 11.8875 14.5826H4.11405ZM10.7351 10.3004C9.18405 8.89911 6.81658 8.89922 5.26541 10.3004L5.11307 10.4459C4.63809 10.9209 4.30605 11.4842 4.11405 12.0826H11.8875C11.7156 11.5469 11.4307 11.0395 11.032 10.5982L10.8875 10.4459L10.7351 10.3004Z" fill="currentColor"/>
<path d="M16.2635 2.59531C18.0625 0.970102 20.8401 1.02491 22.574 2.75839L22.7361 2.92929C24.3094 4.67051 24.3095 7.32775 22.7361 9.06894L22.574 9.23984C20.84 10.9738 18.0627 11.0276 16.2635 9.40195L16.0926 9.23984C14.3031 7.4499 14.3028 4.54816 16.0926 2.75839L16.2635 2.59531ZM20.6482 4.38242C19.8846 3.76 18.7819 3.7599 18.0183 4.38242L17.8601 4.52597C17.0467 5.33943 17.0469 6.65864 17.8601 7.47226L18.0183 7.61484C18.8366 8.28228 20.0437 8.23502 20.8064 7.47226L20.949 7.31406C21.572 6.55031 21.572 5.44794 20.949 4.68418L20.8064 4.52597L20.6482 4.38242Z" fill="currentColor"/>
</svg>
