<svg viewBox="0 0 32 32" fill="none" xmlns="http://www.w3.org/2000/svg">
<path d="M23.5 7.5C23.5 6.67157 22.8284 6 22 6H10C9.17157 6 8.5 6.67157 8.5 7.5V24.5C8.5 25.3284 9.17157 26 10 26H22C22.8284 26 23.5 25.3284 23.5 24.5V7.5ZM14.5 20.667V19.501H13.333C12.5048 19.5008 11.8332 18.8291 11.833 18.001C11.833 17.1727 12.5047 16.5012 13.333 16.501H14.5V15.333C14.5002 14.5047 15.1717 13.833 16 13.833C16.8283 13.833 17.4998 14.5047 17.5 15.333V16.501H18.667C19.4953 16.5012 20.167 17.1727 20.167 18.001C20.1668 18.8291 19.4952 19.5008 18.667 19.501H17.5V20.667C17.4998 21.4953 16.8283 22.167 16 22.167C15.1717 22.167 14.5002 21.4953 14.5 20.667ZM19.333 8.00261C20.1613 8.00261 20.8328 8.67434 20.833 9.50261C20.833 10.331 20.1614 11.0026 19.333 11.0026H12.667C11.8386 11.0026 11.167 10.331 11.167 9.50261C11.1672 8.67434 11.8387 8.00261 12.667 8.00261H19.333ZM26.5 24.5C26.5 26.9853 24.4853 29 22 29H10C7.51472 29 5.5 26.9853 5.5 24.5V7.5C5.5 5.01472 7.51472 3 10 3H22C24.4853 3 26.5 5.01472 26.5 7.5V24.5Z" fill="currentColor"/>
</svg>
