<svg viewBox="0 0 24 24" fill="none" xmlns="http://www.w3.org/2000/svg">
<path d="M12.0002 9.25068C12.5524 9.25082 13.0002 9.69848 13.0002 10.2507V11.0007H13.7502C14.3024 11.0008 14.7502 11.4485 14.7502 12.0007C14.75 12.5527 14.3023 13.0005 13.7502 13.0007H13.0002V13.7507C13 14.3027 12.5523 14.7505 12.0002 14.7507C11.448 14.7507 11.0003 14.3028 11.0002 13.7507V13.0007H10.2502C9.698 13.0007 9.25035 12.5528 9.2502 12.0007C9.2502 11.4484 9.69791 11.0007 10.2502 11.0007H11.0002V10.2507C11.0002 9.69839 11.4479 9.25068 12.0002 9.25068Z" fill="currentColor"/>
<path d="M12.5822 2.06123C15.038 2.20192 17.3553 3.24502 19.0891 4.98994C20.8229 6.73514 21.8511 9.05938 21.9758 11.5163C22.1004 13.9732 21.3132 16.3898 19.7648 18.3015C18.2165 20.213 16.0162 21.4853 13.5871 21.8737C11.2891 22.2411 8.9398 21.7915 6.94258 20.613L4.74531 20.9802C4.50985 21.0194 4.26756 21.0022 4.04024 20.9294C3.81324 20.8565 3.60633 20.7307 3.4377 20.5622C3.26891 20.3933 3.14235 20.1861 3.06953 19.9587C2.99672 19.7313 2.97942 19.4891 3.01875 19.2536L3.38789 17.0368C2.22178 15.0316 1.78767 12.6787 2.17012 10.3825C2.57439 7.95617 3.86103 5.76404 5.78242 4.22822C7.70407 2.69247 10.1263 1.92069 12.5822 2.06123ZM12.468 4.05732C10.5045 3.94499 8.56781 4.56201 7.03145 5.78974C5.4951 7.01769 4.46604 8.7706 4.14277 10.7106C3.81955 12.6507 4.22423 14.6427 5.27949 16.3024L5.32539 16.3815C5.4234 16.5723 5.45767 16.7905 5.42207 17.0036L5.10664 18.8923L6.98067 18.5798L7.07344 18.5681C7.28879 18.5525 7.50481 18.6074 7.6877 18.7253L8.00117 18.9177C9.58861 19.8409 11.4509 20.1902 13.2717 19.8991C15.2136 19.5885 16.9723 18.5708 18.2102 17.0427C19.4481 15.5142 20.0783 13.5822 19.9787 11.6179C19.8791 9.65347 19.0574 7.79448 17.6711 6.39912C16.2849 5.00395 14.4315 4.16984 12.468 4.05732Z" fill="currentColor"/>
</svg>
