<svg viewBox="0 0 16 16" fill="none" xmlns="http://www.w3.org/2000/svg">
<path d="M8.00027 6.08426C8.41439 6.08437 8.75027 6.42011 8.75027 6.83426V7.25027H9.16629L9.24344 7.25418C9.62147 7.29264 9.91615 7.61212 9.91629 8.00027C9.91629 8.38855 9.62156 8.70789 9.24344 8.74637L9.16629 8.75027H8.75027V9.16726C8.75003 9.5812 8.41423 9.91715 8.00027 9.91726C7.58621 9.91726 7.25052 9.58127 7.25027 9.16726V8.75027H6.83328C6.41908 8.75026 6.08328 8.41448 6.08328 8.00027C6.08343 7.58619 6.41917 7.25029 6.83328 7.25027H7.25027V6.83426C7.25027 6.42004 7.58606 6.08426 8.00027 6.08426Z" fill="currentColor"/>
<path d="M8.39383 1.29031C10.0515 1.38541 11.6162 2.08997 12.7864 3.26785C13.9566 4.4458 14.6505 6.01487 14.7346 7.67312C14.8188 9.33136 14.2873 10.9628 13.2425 12.2532C12.1974 13.5435 10.7111 14.402 9.07156 14.6643C7.53015 14.9107 5.9542 14.6136 4.6116 13.8294L3.17801 14.0686C3.00801 14.097 2.83337 14.085 2.66922 14.0325C2.50506 13.9799 2.35561 13.8887 2.23367 13.7669C2.11178 13.645 2.02068 13.4955 1.96805 13.3313C1.91551 13.1672 1.90262 12.9925 1.93094 12.8225L2.17215 11.3743C1.39602 10.0262 1.10885 8.4479 1.36551 6.9075C1.6385 5.26962 2.50685 3.78985 3.80398 2.7532C5.10113 1.71673 6.73615 1.19538 8.39383 1.29031ZM8.30789 2.78836C7.01946 2.71457 5.74873 3.11951 4.74051 3.92508C3.7324 4.73074 3.05728 5.8807 2.845 7.15359C2.63286 8.42679 2.89854 9.7343 3.59109 10.8235L3.65359 10.9456C3.68772 11.0304 3.70662 11.1208 3.70828 11.2122L3.69754 11.3489L3.50613 12.4925L4.6409 12.304L4.77957 12.2942C4.91756 12.2971 5.05367 12.3376 5.17117 12.4134C6.25579 13.1129 7.5608 13.3877 8.83523 13.1839C10.1096 12.9799 11.2642 12.3118 12.0764 11.3089C12.8885 10.306 13.3019 9.0381 13.2366 7.7493C13.1711 6.46034 12.6316 5.24009 11.722 4.32449C10.8124 3.40912 9.5962 2.86227 8.30789 2.78836Z" fill="currentColor"/>
</svg>
