<svg viewBox="0 0 32 32" fill="none" xmlns="http://www.w3.org/2000/svg">
<path d="M16.0002 12.4171C16.6905 12.4172 17.2502 12.9768 17.2502 13.6671V14.7501H18.3342L18.4622 14.757C19.092 14.8214 19.5842 15.3533 19.5842 16.0001C19.5842 16.647 19.092 17.1789 18.4622 17.2433L18.3342 17.2501H17.2502V18.3341L17.2434 18.462C17.1791 19.092 16.6472 19.584 16.0002 19.5841C15.3532 19.5841 14.8214 19.0921 14.7571 18.462L14.7502 18.3341V17.2501H13.6672C12.9769 17.2501 12.4172 16.6905 12.4172 16.0001C12.4173 15.3098 12.9769 14.7501 13.6672 14.7501H14.7502V13.6671C14.7502 12.9768 15.3099 12.4171 16.0002 12.4171Z" fill="currentColor"/>
<path d="M16.7717 2.83021C20.0257 3.01661 23.0965 4.39898 25.3938 6.71107C27.691 9.02334 29.0528 12.1033 29.218 15.3585C29.3832 18.6139 28.3398 21.8158 26.2883 24.3488C24.2369 26.8815 21.3222 28.5674 18.1038 29.0822C15.0485 29.5707 11.9249 28.969 9.27271 27.3956L6.31373 27.8908C6.01278 27.941 5.7039 27.9193 5.41333 27.8263C5.12282 27.7332 4.85856 27.5713 4.64283 27.3556C4.42722 27.1399 4.26515 26.8756 4.17212 26.5851C4.07924 26.2946 4.05742 25.9855 4.10767 25.6847L4.60572 22.6994C3.04891 20.0366 2.46719 16.9084 2.97583 13.8556C3.51161 10.6405 5.21673 7.7362 7.76294 5.70131C10.3091 3.66654 13.5177 2.64393 16.7717 2.83021ZM16.6282 5.32631C13.9896 5.17538 11.3881 6.00448 9.32349 7.65443C7.25882 9.30449 5.87612 11.6597 5.44166 14.2667C5.00736 16.8737 5.55203 19.5501 6.96998 21.7804C7.13518 22.0404 7.19835 22.3525 7.14771 22.6564L6.70728 25.2902L9.32154 24.8536L9.43677 24.84C9.70623 24.8203 9.97649 24.8888 10.2053 25.0363C12.4263 26.4689 15.0984 27.0307 17.7083 26.6134C20.3182 26.196 22.6824 24.8285 24.346 22.7745C26.0092 20.7207 26.8557 18.1249 26.7219 15.4855C26.5879 12.8459 25.4831 10.3478 23.6204 8.47279C21.7575 6.59802 19.2668 5.47742 16.6282 5.32631Z" fill="currentColor"/>
</svg>
