<svg viewBox="0 0 32 32" fill="none" xmlns="http://www.w3.org/2000/svg">
<path d="M18.667 26.9991C19.4953 26.9993 20.167 27.6708 20.167 28.4991C20.167 29.3274 19.4953 29.9989 18.667 29.9991H13.333C12.5047 29.9989 11.833 29.3274 11.833 28.4991C11.8331 27.6708 12.5048 26.9992 13.333 26.9991H18.667ZM8.33596 3.28031C12.9915 1.38974 18.5065 1.33022 23.2158 3.10258L23.6699 3.28031L23.7022 3.29399C25.715 4.16688 27.0146 6.15416 27.0078 8.3477V20.5069C27.0078 22.6349 25.7984 24.479 24.0303 25.3936L25.2364 27.1504C25.7053 27.8334 25.5316 28.7674 24.8487 29.2364C24.1658 29.705 23.2326 29.5314 22.7637 28.8487L20.8115 26.0069H11.1524L9.24417 28.8379C8.78124 29.5249 7.84911 29.706 7.16214 29.2432C6.47514 28.7802 6.29292 27.8482 6.75589 27.1612L7.95315 25.3829C6.27533 24.5056 5.10516 22.7894 5.00393 20.7901L4.9971 20.5069V8.3477C4.99037 6.15403 6.29074 4.1668 8.30374 3.29399L8.33596 3.28031ZM7.9971 20.5069C7.9971 21.8875 9.11644 23.0068 10.4971 23.0069H21.5078C22.8886 23.0069 24.0078 21.8876 24.0078 20.5069V16.003H7.9971V20.5069ZM12 17.5137C12.8284 17.5138 13.5 18.1853 13.5 19.0137C13.5 19.8421 12.8284 20.5137 12 20.5137H10.667C9.83859 20.5137 9.16702 19.8421 9.16702 19.0137C9.16704 18.1853 9.8386 17.5137 10.667 17.5137H12ZM21.333 17.5137C22.1615 17.5137 22.833 18.1853 22.833 19.0137C22.833 19.8421 22.1615 20.5137 21.333 20.5137H20C19.1716 20.5137 18.5 19.8421 18.5 19.0137C18.5 18.1853 19.1716 17.5137 20 17.5137H21.333ZM7.9971 13.003H24.0078V11H7.9971V13.003ZM22.5205 6.0518C18.4504 4.40537 13.559 4.40448 9.48831 6.04984C8.68468 6.40176 8.13383 7.14614 8.01956 8.00004H23.9854C23.8713 7.14753 23.322 6.40441 22.5205 6.0518Z" fill="currentColor"/>
</svg>
