<svg viewBox="0 0 16 16" fill="none" xmlns="http://www.w3.org/2000/svg">
<path d="M9.33302 13.4985C9.74712 13.4985 10.0828 13.8345 10.083 14.2485C10.083 14.6627 9.74723 14.9985 9.33302 14.9985H6.66701C6.25279 14.9985 5.91701 14.6627 5.91701 14.2485C5.91719 13.8345 6.25291 13.4985 6.66701 13.4985H9.33302ZM2.50001 10.2593V4.13035C2.49664 3.0335 3.14682 2.03941 4.15333 1.603L4.16896 1.59617C6.42829 0.678629 9.08441 0.655861 11.3818 1.45847L11.836 1.63035L11.8516 1.63718C12.861 2.07484 13.5032 3.07025 13.5 4.16355V10.2934C13.4999 11.3536 12.8985 12.2711 12.0195 12.73L12.6123 13.5659C12.8518 13.9039 12.7716 14.3723 12.4336 14.6118C12.0956 14.8512 11.6272 14.7711 11.3877 14.4331L10.4014 13.0405L5.62599 13.0112L4.61036 14.435C4.36986 14.7722 3.90165 14.8512 3.56447 14.6108C3.22726 14.3703 3.14911 13.9011 3.38966 13.5639L4.00001 12.7065C3.11027 12.2511 2.50001 11.3274 2.50001 10.2593ZM6.00001 8.74851C6.41423 8.74851 6.75001 9.0843 6.75001 9.49851C6.74982 9.91256 6.41411 10.2485 6.00001 10.2485H5.33302C4.9191 10.2483 4.58321 9.91243 4.58302 9.49851C4.58302 9.08442 4.91898 8.74871 5.33302 8.74851H6.00001ZM10.667 8.74851C11.0811 8.74868 11.417 9.0844 11.417 9.49851C11.4168 9.91245 11.081 10.2483 10.667 10.2485H10C9.58593 10.2485 9.25021 9.91255 9.25001 9.49851C9.25001 9.0843 9.5858 8.74852 10 8.74851H10.667ZM4.00001 6.50046H12V5.50535H4.00001V6.50046ZM11.2588 3.01511C9.21712 2.18993 6.77294 2.16221 4.74513 2.98191C4.32848 3.16463 4.05081 3.55841 4.0088 4.00535H11.9893C11.9372 3.56954 11.6632 3.19194 11.2588 3.01511ZM4.00685 10.3872C4.07085 11.0175 4.6028 11.5093 5.25001 11.5093H5.2549L10.75 11.5425C11.4403 11.5424 11.9999 10.9837 12 10.2934V8.00046H4.00001V10.2593L4.00685 10.3872Z" fill="currentColor"/>
</svg>
