<svg viewBox="0 0 24 24" fill="none" xmlns="http://www.w3.org/2000/svg">
<path d="M18 11.9999H6.00002V14.9999C6.00007 16.1044 6.89549 16.9999 8.00002 16.9999H16C17.1046 16.9999 18 16.1044 18 14.9999V11.9999ZM14 19.9999C14.5523 19.9999 15 20.4476 15 20.9999C15 21.5522 14.5523 21.9999 14 21.9999H10C9.44777 21.9999 9.00007 21.5521 9.00002 20.9999C9.00002 20.4476 9.44774 19.9999 10 19.9999H14ZM9.00002 12.9999C9.5523 12.9999 10 13.4476 10 13.9999C9.99997 14.5521 9.55228 14.9999 9.00002 14.9999H8.00002C7.44777 14.9999 7.00007 14.5521 7.00002 13.9999C7.00002 13.4476 7.44774 12.9999 8.00002 12.9999H9.00002ZM16 12.9999C16.5523 12.9999 17 13.4476 17 13.9999C17 14.5521 16.5523 14.9999 16 14.9999H15C14.4478 14.9999 14.0001 14.5521 14 13.9999C14 13.4476 14.4477 12.9999 15 12.9999H16ZM6.00002 9.99991H18V8.49991H6.00002V9.99991ZM16.8037 4.76065C13.7222 3.51457 10.2768 3.51434 7.19533 4.76065C6.49591 5.06599 6.0359 5.74268 6.00295 6.49991H17.9971C17.9641 5.74237 17.5036 5.06581 16.8037 4.76065ZM20 14.9999C20 16.6263 19.0284 18.0241 17.6348 18.6493L18.8321 20.4452C19.1384 20.9047 19.0142 21.5256 18.5547 21.8319C18.0952 22.1382 17.4743 22.0141 17.168 21.5546L15.4649 18.9999H8.53518L6.83205 21.5546C6.52569 22.0141 5.90484 22.1382 5.44533 21.8319C4.98583 21.5256 4.86169 20.9047 5.16799 20.4452L6.36428 18.6493C4.97107 18.0239 4.00005 16.626 4.00002 14.9999V6.59952C3.99498 5.00407 4.9403 3.55853 6.40432 2.92373C6.41141 2.92066 6.41864 2.91785 6.4258 2.91494C9.88859 1.50867 13.7506 1.46461 17.2383 2.78311L17.5742 2.91494L17.5957 2.92373C19.0598 3.55851 20.0051 5.00405 20 6.59952V14.9999Z" fill="currentColor"/>
</svg>
