<svg viewBox="0 0 24 24" fill="none" xmlns="http://www.w3.org/2000/svg">
<path d="M8 6C8 3.79086 9.79086 2 12 2C14.2091 2 16 3.79086 16 6V11C16 13.2091 14.2091 15 12 15C9.79086 15 8 13.2091 8 11V6Z" fill="currentColor"/>
<path d="M15 20C15.5523 20 16 20.4477 16 21C16 21.5523 15.5523 22 15 22L12 21.9998L9 22C8.44772 22 8 21.5523 8 21C8 20.4477 8.44772 20 9 20H11V19.007C7.04762 18.5109 4.00006 15.1123 4 11.0088V10C4 9.44772 4.44772 9 5 9C5.55228 9 6 9.44772 6 10V11.0088C6.00007 14.3641 8.69445 17.0693 12 17.0693C15.3055 17.0693 17.9999 14.3641 18 11.0088V10C18 9.44772 18.4477 9 19 9C19.5523 9 20 9.44772 20 10V11.0088C19.9999 15.1123 16.9524 18.5109 13 19.007V20H15Z" fill="currentColor"/>
</svg>
