<svg viewBox="0 0 16 16" fill="none" xmlns="http://www.w3.org/2000/svg">
<path d="M5.5 3.49902C5.5 2.11831 6.61929 0.999023 8 0.999023C9.38071 0.999023 10.5 2.11831 10.5 3.49902V7.49902C10.5 8.87973 9.38071 9.99902 8 9.99902C6.61929 9.99902 5.5 8.87973 5.5 7.49902V3.49902Z" fill="currentColor"/>
<path d="M9.749 13.5C10.1631 13.5 10.4988 13.8359 10.499 14.25C10.499 14.6642 10.1632 15 9.749 15H6.25096C5.83674 15 5.50096 14.6642 5.50096 14.25C5.50113 13.8359 5.83685 13.5 6.25096 13.5H7.24967V12.4507C4.58446 12.0962 2.5 9.88025 2.5 7.15649V6.50024C2.5 6.08603 2.83579 5.75024 3.25 5.75024C3.66421 5.75024 4 6.08603 4 6.50024V7.15649C4 9.25589 5.76702 11.0002 8 11.0002C10.233 11.0002 12 9.25589 12 7.15649V6.50024C12 6.08603 12.3358 5.75024 12.75 5.75024C13.1642 5.75024 13.5 6.08603 13.5 6.50024V7.15649C13.5 9.88047 11.4152 12.0966 8.74967 12.4508V13.5H9.749Z" fill="currentColor"/>
</svg>
