<svg viewBox="0 0 32 32" fill="none" xmlns="http://www.w3.org/2000/svg">
<path d="M10.75 7.25293C10.75 4.35343 13.1005 2.00293 16 2.00293C18.8995 2.00293 21.25 4.35343 21.25 7.25293V13.7529C21.25 16.6524 18.8995 19.0029 16 19.0029C13.1005 19.0029 10.75 16.6524 10.75 13.7529V7.25293Z" fill="currentColor"/>
<path d="M19.5 27.0137C20.3284 27.0137 21 27.6852 21 28.5137C20.9998 29.3419 20.3283 30.0137 19.5 30.0137H12.5C11.6717 30.0137 11.0002 29.3419 11 28.5137C11 27.6852 11.6716 27.0137 12.5 27.0137H14.5003V25.004C9.19454 24.3093 5.00366 19.9865 5.00366 14.6162V13.333C5.00366 12.5046 5.67523 11.833 6.50366 11.833C7.33209 11.833 8.00366 12.5046 8.00366 13.333V14.6162C8.00366 18.6724 11.5049 22.1016 16.0017 22.1016C20.4985 22.1016 23.9998 18.6724 23.9998 14.6162V13.333C23.9998 12.5046 24.6713 11.833 25.4998 11.833C26.3282 11.833 26.9998 12.5046 26.9998 13.333V14.6162C26.9998 19.9874 22.8074 24.3108 17.5003 25.0043V27.0137H19.5Z" fill="currentColor"/>
</svg>
