<svg viewBox="0 0 16 16" fill="none" xmlns="http://www.w3.org/2000/svg">
<path d="M13.9998 3.72433L14.6665 3.05766L15.6092 4.00033L13.3332 6.27633L11.0572 4.00033L11.9998 3.05766L12.6665 3.72433V2.66699C12.6665 2.29966 12.3678 2.00033 11.9998 2.00033H10.6665V0.666992H11.9998C13.1025 0.666992 13.9998 1.56433 13.9998 2.66699V3.72433Z" fill="currentColor"/>
<path d="M3.33329 13.3337C3.33329 13.701 3.63196 14.0003 3.99996 14.0003H5.33329V15.3337H3.99996C2.89729 15.3337 1.99996 14.4363 1.99996 13.3337V12.2763L1.33329 12.943L0.390625 12.0003L2.66662 9.72432L4.94262 12.0003L3.99996 12.943L3.33329 12.2763V13.3337Z" fill="currentColor"/>
<path d="M5.21252 10.0415L5.43384 8.72699L4.7765 8.61633C3.16717 8.34566 1.99917 6.96499 1.99917 5.33366C1.99917 3.49566 3.4945 2.00033 5.3325 2.00033C6.96317 2.00033 8.3445 3.16833 8.61517 4.77766L8.72584 5.43499L10.0412 5.21366L9.9305 4.55633C9.55117 2.30299 7.61784 0.666992 5.33317 0.666992C2.7605 0.666992 0.666504 2.76033 0.666504 5.33366C0.666504 7.61833 2.3025 9.55166 4.55584 9.93099L5.21252 10.0415Z" fill="currentColor"/>
<path d="M7.99984 6.66699H13.9998C14.7362 6.66699 15.3332 7.26395 15.3332 8.00033V14.0003C15.3332 14.7367 14.7362 15.3337 13.9998 15.3337H7.99984C7.26346 15.3337 6.6665 14.7367 6.6665 14.0003V8.00033C6.6665 7.26395 7.26346 6.66699 7.99984 6.66699Z" fill="currentColor"/>
</svg>
