<svg viewBox="0 0 32 32" fill="none" xmlns="http://www.w3.org/2000/svg">
<path d="M14.4961 21.5C14.4961 20.6716 15.1677 20 15.9961 20C16.8245 20 17.4961 20.6716 17.4961 21.5V24.877L17.9336 24.4395C18.5193 23.8537 19.4689 23.8538 20.0547 24.4395C20.6405 25.0252 20.6405 25.9748 20.0547 26.5605L17.0576 29.5576C16.4718 30.1434 15.5223 30.1434 14.9365 29.5576L11.9395 26.5605C11.3537 25.9748 11.3537 25.0252 11.9395 24.4395C12.5252 23.8537 13.4748 23.8537 14.0605 24.4395L14.4961 24.875V21.5ZM6 16.4082V11.5C6 10.6716 6.67157 10 7.5 10C8.32843 10 9 10.6716 9 11.5V16.4082C9 17.5635 9.93653 18.5 11.0918 18.5C11.9202 18.5 12.5918 19.1716 12.5918 20C12.5918 20.8284 11.9202 21.5 11.0918 21.5C8.27968 21.5 6 19.2203 6 16.4082ZM23.0049 16.4004V11.5C23.0049 10.6716 23.6765 10 24.5049 10C25.3333 10 26.0049 10.6716 26.0049 11.5V16.4004C26.0047 19.2167 23.7216 21.4998 20.9053 21.5C20.0768 21.5 19.4053 20.8284 19.4053 20C19.4053 19.1716 20.0768 18.5 20.9053 18.5C22.0648 18.4998 23.0047 17.5599 23.0049 16.4004ZM11.4414 11.5244C11.4416 10.6962 12.1131 10.0244 12.9414 10.0244C13.7697 10.0244 14.4412 10.6962 14.4414 11.5244C14.4414 12.3996 15.1453 13.0967 15.9971 13.0967C16.8488 13.0966 17.5527 12.3996 17.5527 11.5244C17.5529 10.6962 18.2244 10.0244 19.0527 10.0244C19.8809 10.0245 20.5525 10.6962 20.5527 11.5244C20.5527 14.0418 18.5203 16.0966 15.9971 16.0967C13.4738 16.0967 11.4414 14.0418 11.4414 11.5244ZM26.5 4C27.3284 4 28 4.67157 28 5.5C28 6.32843 27.3284 7 26.5 7H5.5C4.67157 7 4 6.32843 4 5.5C4 4.67157 4.67157 4 5.5 4H26.5Z" fill="currentColor"/>
</svg>
