<svg viewBox="0 0 24 24" fill="none" xmlns="http://www.w3.org/2000/svg">
<path d="M10.9971 16C10.9971 15.4477 11.4448 15 11.9971 15C12.5494 15 12.9971 15.4477 12.9971 16V19.085L13.5391 18.543C13.9296 18.1526 14.5626 18.1525 14.9531 18.543C15.3435 18.9335 15.3435 19.5665 14.9531 19.957L12.7051 22.2051C12.3146 22.5955 11.6815 22.5955 11.291 22.2051L9.04297 19.957C8.65245 19.5665 8.65246 18.9335 9.04297 18.543C9.43349 18.1525 10.0665 18.1525 10.457 18.543L10.9971 19.083V16ZM4.5 13V8.5C4.5 7.94772 4.94772 7.5 5.5 7.5C6.05228 7.5 6.5 7.94772 6.5 8.5V13C6.5 13.8284 7.17157 14.5 8 14.5C8.55228 14.5 9 14.9477 9 15.5C9 16.0523 8.55228 16.5 8 16.5C6.067 16.5 4.5 14.933 4.5 13ZM17.5 13V8.5C17.5 7.94772 17.9477 7.5 18.5 7.5C19.0523 7.5 19.5 7.94772 19.5 8.5V13C19.5 14.933 17.933 16.5 16 16.5C15.4477 16.5 15 16.0523 15 15.5C15 14.9477 15.4477 14.5 16 14.5C16.8284 14.5 17.5 13.8284 17.5 13ZM8.70605 8.5C8.70605 7.94772 9.15377 7.5 9.70605 7.5C10.2583 7.5 10.7061 7.94772 10.7061 8.5C10.7061 9.22483 11.2896 9.80371 11.998 9.80371C12.7064 9.80353 13.2891 9.22472 13.2891 8.5C13.2891 7.94782 13.7369 7.50018 14.2891 7.5C14.8413 7.5 15.2891 7.94772 15.2891 8.5C15.2891 10.3195 13.8207 11.8035 11.998 11.8037C10.1752 11.8037 8.70605 10.3196 8.70605 8.5ZM20 3.5C20.5523 3.5 21 3.94772 21 4.5C21 5.05228 20.5523 5.5 20 5.5H4C3.44772 5.5 3 5.05228 3 4.5C3 3.94772 3.44772 3.5 4 3.5H20Z" fill="currentColor"/>
</svg>
