<svg viewBox="0 0 24 24" fill="none" xmlns="http://www.w3.org/2000/svg">
<path d="M10.999 20.999V18.4131L10.457 18.9551C10.0665 19.3455 9.43347 19.3455 9.04297 18.9551C8.65247 18.5646 8.65253 17.9315 9.04297 17.541L11.291 15.293L11.3672 15.2246C11.76 14.9043 12.339 14.9269 12.7051 15.293L14.9531 17.541C15.3434 17.9315 15.3436 18.5646 14.9531 18.9551C14.5627 19.3455 13.9296 19.3454 13.5391 18.9551L12.999 18.415V20.999C12.999 21.5513 12.5513 21.999 11.999 21.999C11.4467 21.999 10.999 21.5513 10.999 20.999ZM4.5 13V8.5C4.5 7.94772 4.94772 7.5 5.5 7.5C6.05228 7.5 6.5 7.94772 6.5 8.5V13C6.5 13.8284 7.17157 14.5 8 14.5C8.55228 14.5 9 14.9477 9 15.5C9 16.0523 8.55228 16.5 8 16.5C6.067 16.5 4.5 14.933 4.5 13ZM17.5 13V8.5C17.5 7.94772 17.9477 7.5 18.5 7.5C19.0523 7.5 19.5 7.94772 19.5 8.5V13C19.5 14.933 17.933 16.5 16 16.5C15.4477 16.5 15 16.0523 15 15.5C15 14.9477 15.4477 14.5 16 14.5C16.8284 14.5 17.5 13.8284 17.5 13ZM8.70605 8.5C8.70605 7.94772 9.15377 7.5 9.70605 7.5C10.2583 7.5 10.7061 7.94772 10.7061 8.5C10.7061 9.22483 11.2896 9.80371 11.998 9.80371C12.7064 9.80353 13.2891 9.22472 13.2891 8.5C13.2891 7.94782 13.7369 7.50018 14.2891 7.5C14.8413 7.5 15.2891 7.94772 15.2891 8.5C15.2891 10.3195 13.8207 11.8035 11.998 11.8037C10.1752 11.8037 8.70605 10.3196 8.70605 8.5ZM20 3.5C20.5523 3.5 21 3.94772 21 4.5C21 5.05228 20.5523 5.5 20 5.5H4C3.44772 5.5 3 5.05228 3 4.5C3 3.94772 3.44772 3.5 4 3.5H20Z" fill="currentColor"/>
</svg>
