<svg viewBox="0 0 16 16" fill="none" xmlns="http://www.w3.org/2000/svg">
<path d="M7.24902 14.249V12.5605L7.03027 12.7793C6.73743 13.0719 6.26257 13.0719 5.96973 12.7793C5.6769 12.4865 5.67705 12.0117 5.96973 11.7188L7.46875 10.2197L7.52539 10.168C7.81996 9.92788 8.25477 9.94521 8.5293 10.2197L10.0273 11.7178C10.3202 12.0107 10.3202 12.4864 10.0273 12.7793C9.73447 13.0718 9.2596 13.072 8.9668 12.7793L8.74902 12.5605V14.249C8.74879 14.663 8.41309 14.999 7.99902 14.999C7.58503 14.9989 7.24925 14.663 7.24902 14.249ZM2.9541 8.2041V5.75C2.9541 5.33579 3.28989 5 3.7041 5C4.11832 5 4.4541 5.33579 4.4541 5.75V8.2041C4.4541 8.78174 4.92237 9.25 5.5 9.25C5.91421 9.25 6.25 9.58579 6.25 10C6.25 10.4142 5.91421 10.75 5.5 10.75C4.09394 10.75 2.9541 9.61016 2.9541 8.2041ZM11.5029 8.2002V5.75C11.5029 5.33579 11.8387 5 12.2529 5C12.6669 5.00026 13.0029 5.33595 13.0029 5.75V8.2002C13.0028 9.60843 11.8604 10.75 10.4521 10.75C10.0381 10.7498 9.70215 10.4141 9.70215 10C9.70215 9.58588 10.0381 9.25016 10.4521 9.25C11.032 9.25 11.5028 8.78 11.5029 8.2002ZM5.7207 5.7627C5.7207 5.34848 6.05649 5.0127 6.4707 5.0127C6.88492 5.0127 7.2207 5.34848 7.2207 5.7627C7.22087 6.2 7.57244 6.54762 7.99805 6.54785C8.42385 6.54785 8.7762 6.20015 8.77637 5.7627C8.77637 5.34848 9.11215 5.0127 9.52637 5.0127C9.94053 5.01275 10.2764 5.34852 10.2764 5.7627C10.2762 7.02125 9.25958 8.04785 7.99805 8.04785C6.73671 8.04762 5.72087 7.02111 5.7207 5.7627ZM13.25 2C13.6642 2 14 2.33579 14 2.75C14 3.16421 13.6642 3.5 13.25 3.5H2.75C2.33579 3.5 2 3.16421 2 2.75C2 2.33579 2.33579 2 2.75 2H13.25Z" fill="currentColor"/>
</svg>
