<svg viewBox="0 0 32 32" fill="none" xmlns="http://www.w3.org/2000/svg">
<path d="M28 21.4169C28.6904 21.4169 29.25 21.9766 29.25 22.6669C29.2498 25.4579 27.0722 27.7382 24.3232 27.9052C24.7012 28.3954 24.6662 29.1013 24.2168 29.5507C23.7591 30.0081 23.0348 30.037 22.5439 29.6366L22.4492 29.5507L20.4492 27.5507L20.3633 27.456C20.3379 27.4248 20.3149 27.3922 20.293 27.3593C20.284 27.3459 20.276 27.332 20.2676 27.3183C20.2331 27.262 20.2025 27.2043 20.1777 27.1444C20.1729 27.1326 20.1695 27.1202 20.165 27.1083C20.1556 27.0834 20.1464 27.0585 20.1387 27.0331C20.1339 27.0176 20.1301 27.0019 20.126 26.9862C20.1217 26.97 20.1169 26.9538 20.1133 26.9374C20.1119 26.9312 20.1097 26.9251 20.1084 26.9189L20.0938 26.831C20.0925 26.8212 20.0919 26.8114 20.0908 26.8017C20.0893 26.7877 20.088 26.7737 20.0869 26.7597C20.0852 26.7369 20.0844 26.7141 20.084 26.6913C20.0836 26.6711 20.0834 26.651 20.084 26.6308C20.0845 26.6138 20.0857 26.5969 20.0869 26.58C20.0882 26.5614 20.0897 26.5429 20.0918 26.5243C20.0948 26.4982 20.0989 26.4722 20.1035 26.4462C20.1054 26.4358 20.1063 26.4253 20.1084 26.415C20.1134 26.3903 20.1204 26.3661 20.127 26.3417C20.1318 26.3238 20.136 26.3057 20.1416 26.288C20.147 26.2708 20.154 26.2542 20.1602 26.2372C20.1667 26.2194 20.1723 26.2011 20.1797 26.1835C20.1887 26.1619 20.1997 26.1412 20.21 26.12C20.2175 26.1045 20.2242 26.0884 20.2324 26.0732C20.2403 26.0586 20.2493 26.0445 20.2578 26.0302C20.2698 26.0099 20.2817 25.9894 20.2949 25.9696C20.3018 25.9594 20.3092 25.9494 20.3164 25.9394C20.3557 25.8846 20.4 25.8324 20.4492 25.7831L22.4492 23.7831L22.5439 23.6972C23.0349 23.2967 23.7591 23.3255 24.2168 23.7831C24.6552 24.2216 24.6988 24.9033 24.3496 25.3915C25.7032 25.2196 26.7498 24.0672 26.75 22.6669C26.75 21.9766 27.3096 21.4169 28 21.4169Z" fill="currentColor"/>
<path d="M12.666 10.7499C17.3896 10.7499 21.2498 14.6094 21.25 19.3329C21.2499 24.0566 17.3897 27.9169 12.666 27.9169C9.86301 27.9167 7.37578 26.552 5.81348 24.4735C4.73653 23.0444 4.08303 21.264 4.08301 19.3329C4.08319 14.6096 7.94269 10.7502 12.666 10.7499ZM12.666 13.2499C9.32341 13.2502 6.58319 15.9903 6.58301 19.3329C6.58303 20.6065 6.98517 21.7919 7.66992 22.7763L7.81152 22.9696L7.8125 22.9716L8.0293 23.2441C9.15105 24.5742 10.8168 25.4167 12.666 25.4169C16.009 25.4169 18.7499 22.6758 18.75 19.3329C18.7498 15.9901 16.0089 13.2499 12.666 13.2499Z" fill="currentColor"/>
<path d="M13.583 6.29386C16.8346 3.35806 21.8313 3.35829 25.083 6.29386L25.4023 6.59659L25.4209 6.6171L25.7061 6.91691C28.7393 10.2769 28.638 15.5006 25.4023 18.7362C25.1031 19.0355 24.7878 19.2727 24.5293 19.4628C23.9732 19.8715 23.1912 19.7522 22.7822 19.1962C22.3735 18.6401 22.4929 17.8581 23.0488 17.4491C23.294 17.2688 23.4782 17.1242 23.6348 16.9677C25.9244 14.6777 25.9964 10.9692 23.8496 8.59073L23.6348 8.36515L23.6279 8.35831L23.4082 8.15031C21.0296 6.0038 17.3211 6.07438 15.0312 8.36417C14.9497 8.44574 14.8714 8.53467 14.79 8.63273L14.5322 8.9589C14.1148 9.50865 13.331 9.61648 12.7812 9.19913C12.2317 8.78157 12.1246 7.99687 12.542 7.44718L12.8672 7.03507C12.9871 6.89077 13.1186 6.7417 13.2637 6.59659L13.583 6.29386Z" fill="currentColor"/>
<path d="M7.7832 2.44913C8.24088 1.99165 8.96515 1.96277 9.45605 2.3632L9.55078 2.44913L11.5508 4.44913L11.5771 4.47843C11.5827 4.48431 11.5883 4.49002 11.5938 4.49601L11.6367 4.54386C11.6436 4.55235 11.6496 4.5616 11.6562 4.57023C11.6646 4.5811 11.6726 4.59228 11.6807 4.60343C11.6925 4.61984 11.7039 4.6364 11.7148 4.65323C11.7256 4.66976 11.7351 4.68697 11.7451 4.70402C11.7565 4.72349 11.7681 4.74268 11.7783 4.76261C11.7834 4.77258 11.7881 4.78276 11.793 4.79288C11.8035 4.81479 11.8131 4.83693 11.8223 4.85929C11.8286 4.87482 11.8351 4.89033 11.8408 4.90616C11.8483 4.92684 11.855 4.9477 11.8613 4.96866C11.8662 4.98451 11.8708 5.00041 11.875 5.01652C11.8786 5.03021 11.8826 5.04375 11.8857 5.05753C11.8866 5.06139 11.8869 5.06538 11.8877 5.06925C11.8917 5.08799 11.8952 5.10685 11.8984 5.12589C11.9023 5.14927 11.9056 5.17267 11.9082 5.1962C11.9097 5.20983 11.9111 5.22347 11.9121 5.23722C11.9138 5.25967 11.9145 5.28211 11.915 5.3046C11.9153 5.31424 11.917 5.32421 11.917 5.3339C11.917 5.34338 11.9153 5.35279 11.915 5.36222C11.9148 5.37231 11.9155 5.38241 11.915 5.39249C11.9146 5.40067 11.9127 5.40874 11.9121 5.41691C11.9108 5.43724 11.9095 5.4574 11.9072 5.47745C11.9048 5.49804 11.9018 5.51851 11.8984 5.53898C11.8958 5.55466 11.8938 5.57037 11.8906 5.58585C11.887 5.60325 11.8823 5.62035 11.8779 5.63761C11.8722 5.66032 11.8663 5.6828 11.8594 5.70499C11.8544 5.72111 11.8485 5.7369 11.8428 5.75284C11.8368 5.76947 11.8318 5.78636 11.8252 5.80265C11.8165 5.82421 11.8059 5.84498 11.7959 5.86613C11.7894 5.87985 11.7833 5.8937 11.7764 5.90714C11.7722 5.91528 11.7681 5.92349 11.7637 5.93156C11.7565 5.94462 11.7479 5.95679 11.7402 5.96964C11.7327 5.98234 11.7258 5.99533 11.7178 6.00773C11.7082 6.02266 11.6978 6.03707 11.6875 6.05167C11.6743 6.07034 11.6606 6.08847 11.6465 6.10636C11.6427 6.11114 11.6406 6.11725 11.6367 6.12198L11.6133 6.1464C11.6 6.16181 11.5872 6.17755 11.5732 6.1923L11.5508 6.21671L9.55078 8.21671C9.06264 8.70485 8.27136 8.70481 7.7832 8.21671C7.34459 7.7781 7.30081 7.09562 7.65039 6.60734C6.29672 6.77917 5.25007 7.93254 5.25 9.33292C5.25 10.0233 4.69036 10.5829 4 10.5829C3.30964 10.5829 2.75 10.0233 2.75 9.33292C2.75007 6.54219 4.92719 4.26112 7.67578 4.09366C7.29858 3.60349 7.33411 2.89822 7.7832 2.44913Z" fill="currentColor"/>
</svg>
