<svg viewBox="0 0 24 24" fill="none" xmlns="http://www.w3.org/2000/svg">
<path d="M21 5.586L22 4.586L23.414 6L20 9.414L16.586 6L18 4.586L19 5.586V4C19 3.449 18.552 3 18 3H16V1H18C19.654 1 21 2.346 21 4V5.586Z" fill="currentColor"/>
<path d="M4.99994 20C4.99994 20.551 5.44794 21 5.99994 21H7.99994V23H5.99994C4.34594 23 2.99994 21.654 2.99994 20V18.414L1.99994 19.414L0.585938 18L3.99994 14.586L7.41394 18L5.99994 19.414L4.99994 18.414V20Z" fill="currentColor"/>
<path d="M7.81903 15.0618L8.151 13.09L7.165 12.924C4.751 12.518 2.999 10.447 2.999 8C2.999 5.243 5.242 3 7.999 3C10.445 3 12.517 4.752 12.923 7.166L13.089 8.152L15.062 7.82L14.896 6.834C14.327 3.454 11.427 1 8 1C4.141 1 1 4.14 1 8C1 11.427 3.454 14.327 6.834 14.896L7.81903 15.0618Z" fill="currentColor"/>
<path d="M12 10H21C22.1046 10 23 10.8954 23 12V21C23 22.1046 22.1046 23 21 23H12C10.8954 23 10 22.1046 10 21V12C10 10.8954 10.8954 10 12 10Z" fill="currentColor"/>
</svg>
