<svg viewBox="0 0 16 16" fill="none" xmlns="http://www.w3.org/2000/svg">
<path d="M14 10.5831C14.4141 10.5831 14.7498 10.919 14.75 11.3331C14.75 12.7293 13.7092 13.8796 12.3613 14.0567C12.4685 14.3265 12.4154 14.645 12.1973 14.8634C11.9227 15.138 11.4879 15.1554 11.1934 14.9151L11.1367 14.8634L10.1367 13.8634L10.085 13.8067C10.0839 13.8055 10.0831 13.8041 10.082 13.8028C10.0603 13.7758 10.0419 13.747 10.0244 13.7179C10.0115 13.6963 10.0008 13.6739 9.99023 13.6514C9.98509 13.6405 9.97826 13.6304 9.97363 13.6192C9.96982 13.61 9.96729 13.6003 9.96387 13.5909C9.95505 13.5668 9.94766 13.5424 9.94141 13.5177C9.93569 13.4951 9.9294 13.4726 9.92578 13.4493C9.92422 13.4392 9.92302 13.4291 9.92188 13.419C9.91866 13.3909 9.91699 13.3621 9.91699 13.3331C9.917 13.3266 9.9178 13.3201 9.91797 13.3136C9.91829 13.3018 9.91906 13.2901 9.91992 13.2784C9.92266 13.2408 9.92746 13.2039 9.93555 13.1681C9.9408 13.1448 9.94953 13.1225 9.95703 13.0997C9.96319 13.081 9.96694 13.0613 9.97461 13.0431C9.9851 13.018 9.99938 12.9948 10.0127 12.9708C10.0458 12.9111 10.086 12.8535 10.1367 12.8028L11.1367 11.8028L11.1934 11.7511C11.4879 11.511 11.9228 11.5284 12.1973 11.8028C12.3919 11.9975 12.4536 12.272 12.3896 12.5206C12.8891 12.3568 13.25 11.8874 13.25 11.3331C13.2502 10.919 13.5859 10.5831 14 10.5831Z" fill="currentColor"/>
<path d="M6.33398 5.25008C8.76457 5.25039 10.7499 7.23643 10.75 9.66707C10.7498 12.0976 8.7645 14.0828 6.33398 14.0831C4.89086 14.0831 3.61107 13.3804 2.80762 12.3116C2.25403 11.5767 1.91707 10.6609 1.91699 9.66707C1.91705 7.23624 3.90314 5.25008 6.33398 5.25008ZM6.33398 6.75008C4.73157 6.75008 3.41705 8.06467 3.41699 9.66707C3.41706 10.2361 3.58464 10.7684 3.87402 11.2208L4.00586 11.4102L4.00684 11.4112L4.11035 11.5411C4.64884 12.1799 5.44801 12.5831 6.33398 12.5831C7.93607 12.5828 9.24982 11.2692 9.25 9.66707C9.24994 8.06486 7.93614 6.75039 6.33398 6.75008Z" fill="currentColor"/>
<path d="M6.70801 3.05379C8.43703 1.49311 11.125 1.54516 12.79 3.21004L12.8203 3.24325L12.9453 3.37508C14.5066 5.10415 14.4543 7.79189 12.7891 9.45711C12.6324 9.61365 12.4687 9.73764 12.3389 9.83309C12.0053 10.078 11.5354 10.0063 11.29 9.67293C11.0449 9.33937 11.1169 8.86954 11.4502 8.62411C11.5718 8.53467 11.6575 8.46747 11.7285 8.39657C12.8261 7.29894 12.8609 5.52022 11.832 4.37996L11.7285 4.27157L11.7227 4.26473L11.6201 4.16805C10.5167 3.17257 8.81624 3.17253 7.71289 4.16805L7.60449 4.27059C7.52934 4.34574 7.4575 4.43554 7.36621 4.55575L6.76855 4.10164L6.1709 3.64852C6.26884 3.51955 6.39257 3.36142 6.54395 3.21004L6.70801 3.05379Z" fill="currentColor"/>
<path d="M3.80273 1.1368C4.07731 0.862221 4.51206 0.844801 4.80664 1.08504L4.86328 1.1368L5.86328 2.1368L5.875 2.1495C5.88313 2.15802 5.89072 2.16696 5.89844 2.17586L5.91504 2.19344C5.92248 2.20256 5.92763 2.21336 5.93457 2.22274C5.94264 2.23363 5.95158 2.24375 5.95898 2.25496C5.96669 2.26667 5.97341 2.27894 5.98047 2.2911C5.98991 2.30734 5.99774 2.32414 6.00586 2.3409C6.01224 2.35406 6.01982 2.36653 6.02539 2.37996C6.02976 2.39052 6.03321 2.4014 6.03711 2.41219C6.04407 2.43149 6.04936 2.45108 6.05469 2.47078C6.05822 2.4838 6.06163 2.4967 6.06445 2.50985C6.06666 2.52021 6.06854 2.53058 6.07031 2.5411C6.07389 2.56222 6.07637 2.58327 6.07812 2.60457C6.0793 2.6186 6.08067 2.6325 6.08105 2.64657C6.08123 2.65307 6.083 2.65955 6.08301 2.6661C6.08301 2.67253 6.08122 2.67924 6.08105 2.68563C6.08069 2.70002 6.07932 2.71424 6.07812 2.7286C6.07639 2.74991 6.07387 2.77095 6.07031 2.79207C6.06888 2.80056 6.06812 2.80908 6.06641 2.81746C6.0633 2.83265 6.05874 2.84738 6.05469 2.86239C6.04965 2.88111 6.0446 2.89969 6.03809 2.91805C6.03409 2.92926 6.0299 2.9403 6.02539 2.95125C6.0198 2.96486 6.01326 2.97796 6.00684 2.99129C5.99799 3.00967 5.98797 3.02725 5.97754 3.045C5.9716 3.0551 5.96635 3.06549 5.95996 3.07528C5.95295 3.08601 5.94512 3.09609 5.9375 3.10653C5.92956 3.11741 5.92364 3.13016 5.91504 3.14071L5.89355 3.16317C5.88926 3.16801 5.88527 3.17309 5.88086 3.17782L5.86328 3.19735L4.86328 4.19735C4.57037 4.49005 4.09556 4.49018 3.80273 4.19735C3.60787 4.00245 3.54489 3.72737 3.60938 3.4786C3.11019 3.64254 2.75 4.11298 2.75 4.66707C2.74992 5.08122 2.41417 5.41707 2 5.41707C1.58583 5.41707 1.25008 5.08122 1.25 4.66707C1.25 3.27109 2.29019 2.1199 3.6377 1.94246C3.53121 1.67291 3.58485 1.35484 3.80273 1.1368Z" fill="currentColor"/>
<path d="M7.36621 4.55575C7.11579 4.88545 6.64527 4.94946 6.31543 4.6993C5.98581 4.44886 5.92075 3.97833 6.1709 3.64852L7.36621 4.55575Z" fill="currentColor"/>
</svg>
