<svg viewBox="0 0 32 32" fill="none" xmlns="http://www.w3.org/2000/svg">
<path d="M27.9999 7.44767L29.3333 6.11434L31.2186 7.99967L26.6666 12.5517L22.1146 7.99967L23.9999 6.11434L25.3333 7.44767V5.33301C25.3333 4.59834 24.7359 3.99967 23.9999 3.99967H21.3333V1.33301H23.9999C26.2053 1.33301 27.9999 3.12767 27.9999 5.33301V7.44767Z" fill="currentColor"/>
<path d="M6.66658 26.6663C6.66658 27.401 7.26392 27.9996 7.99992 27.9996H10.6666V30.6663H7.99992C5.79458 30.6663 3.99992 28.8716 3.99992 26.6663V24.5516L2.66658 25.885L0.78125 23.9996L5.33325 19.4476L9.88525 23.9996L7.99992 25.885L6.66658 24.5516V26.6663Z" fill="currentColor"/>
<path d="M10.4253 20.0821L10.8679 17.453L9.55325 17.2317C6.33459 16.6903 3.99859 13.929 3.99859 10.6663C3.99859 6.99034 6.98925 3.99967 10.6653 3.99967C13.9266 3.99967 16.6893 6.33567 17.2306 9.55434L17.4519 10.869L20.0826 10.4263L19.8613 9.11167C19.1026 4.60501 15.2359 1.33301 10.6666 1.33301C5.52125 1.33301 1.33325 5.51967 1.33325 10.6663C1.33325 15.2357 4.60525 19.1023 9.11192 19.861L10.4253 20.0821Z" fill="currentColor"/>
<path d="M15.9999 13.333H27.9999C29.4727 13.333 30.6666 14.5269 30.6666 15.9997V27.9997C30.6666 29.4724 29.4727 30.6663 27.9999 30.6663H15.9999C14.5272 30.6663 13.3333 29.4724 13.3333 27.9997V15.9997C13.3333 14.5269 14.5272 13.333 15.9999 13.333Z" fill="currentColor"/>
</svg>
