<svg viewBox="0 0 24 24" fill="none" xmlns="http://www.w3.org/2000/svg">
<path d="M21 15.9998C21.5523 15.9998 22 16.4475 22 16.9998C21.9999 19.0895 20.3976 20.8037 18.3545 20.9832C18.5874 21.3677 18.5392 21.8746 18.207 22.2068C17.8409 22.5728 17.2619 22.5954 16.8691 22.2752L16.793 22.2068L15.293 20.7068L15.2246 20.6306C15.218 20.6225 15.2124 20.6135 15.2061 20.6052C15.1926 20.5876 15.1793 20.57 15.167 20.5515C15.1566 20.5359 15.1471 20.5198 15.1377 20.5037C15.1311 20.4924 15.1233 20.4819 15.1172 20.4705C15.1085 20.4542 15.1015 20.4373 15.0938 20.4207C15.0742 20.3787 15.0566 20.3356 15.043 20.2908C15.0389 20.2772 15.0357 20.2634 15.0322 20.2498C15.028 20.2335 15.0239 20.2173 15.0205 20.2009C15.0182 20.1896 15.0166 20.1782 15.0146 20.1668C15.012 20.1512 15.0097 20.1356 15.0078 20.1199C15.0064 20.1085 15.0049 20.0972 15.0039 20.0857C15.0035 20.0815 15.0032 20.0772 15.0029 20.073C15.0016 20.0548 15.0013 20.0366 15.001 20.0183C15.0007 20.0056 15.0007 19.9929 15.001 19.9802C15.0014 19.96 15.0023 19.9398 15.0039 19.9197C15.0043 19.9145 15.0044 19.9093 15.0049 19.9041C15.0057 19.8956 15.0058 19.8871 15.0068 19.8787C15.0085 19.8646 15.0114 19.8507 15.0137 19.8367C15.0166 19.8191 15.0196 19.8014 15.0234 19.7839C15.0242 19.7803 15.0255 19.7768 15.0264 19.7732L15.043 19.7068C15.0543 19.6697 15.0676 19.6335 15.083 19.5984C15.0878 19.5875 15.0935 19.5769 15.0986 19.5662C15.1048 19.5533 15.1114 19.5407 15.1182 19.5281C15.127 19.5115 15.1366 19.4954 15.1465 19.4793C15.1536 19.4676 15.1603 19.4555 15.168 19.4441C15.2045 19.3895 15.2467 19.339 15.293 19.2927L16.793 17.7927C17.1835 17.4022 17.8165 17.4022 18.207 17.7927C18.5233 18.1091 18.5828 18.584 18.3867 18.9607C19.3061 18.7805 19.9999 17.972 20 16.9998C20 16.4475 20.4477 15.9998 21 15.9998Z" fill="currentColor"/>
<path d="M9.5 7.99977C13.0773 7.99977 16 10.9225 16 14.4998C15.9999 18.0769 13.0772 20.9998 9.5 20.9998C7.37726 20.9998 5.4945 19.9665 4.31152 18.3933C3.49532 17.3109 3.00005 15.9632 3 14.4998C3 10.9225 5.92272 7.99977 9.5 7.99977ZM9.5 9.99977C7.02728 9.99977 5 12.0271 5 14.4998C5.00005 15.3786 5.25958 16.2004 5.70605 16.8982L5.9082 17.1892L5.90918 17.1912L6.07031 17.3923C6.90048 18.3767 8.13246 18.9998 9.5 18.9998C11.9726 18.9998 13.9999 16.9724 14 14.4998C14 12.0271 11.9727 9.99977 9.5 9.99977Z" fill="currentColor"/>
<path d="M9.9043 4.90406C12.3547 2.45369 16.3099 2.37656 18.8545 4.67359L19.0967 4.90406L19.1162 4.92555L19.3252 5.14527C21.6228 7.6898 21.5463 11.6459 19.0957 14.0964C18.8679 14.3241 18.6286 14.5045 18.4346 14.6472L18.3486 14.7039C17.9122 14.961 17.3428 14.8511 17.0361 14.4343C16.7093 13.9897 16.8048 13.3642 17.249 13.0369L17.4912 12.8513C17.562 12.7939 17.6248 12.7392 17.6816 12.6824C19.3754 10.9886 19.4286 8.24456 17.8408 6.48512L17.6816 6.31812L17.6758 6.31129L17.5146 6.15895C15.7552 4.5713 13.0121 4.62441 11.3184 6.31812C11.1993 6.4372 11.0877 6.57655 10.9502 6.75758L10.8838 6.8357C10.5381 7.20634 9.9612 7.26188 9.54883 6.94898C9.10899 6.61499 9.02247 5.98746 9.35645 5.54762L9.60254 5.23609C9.69339 5.1268 9.79397 5.0144 9.9043 4.90406Z" fill="currentColor"/>
<path d="M5.79297 1.79273C6.15908 1.42662 6.73809 1.40402 7.13086 1.72437L7.20703 1.79273L8.70703 3.29273C8.75318 3.3389 8.7946 3.38966 8.83105 3.4441C8.85855 3.48514 8.88158 3.52821 8.90234 3.57203C8.92299 3.61553 8.94178 3.66012 8.95605 3.7068C8.9585 3.7148 8.95967 3.72316 8.96191 3.73121C8.9649 3.74193 8.96807 3.75258 8.9707 3.76344C8.97268 3.77158 8.97479 3.77967 8.97656 3.78785C8.97783 3.79372 8.97931 3.79953 8.98047 3.80543C8.98206 3.81352 8.98298 3.82172 8.98438 3.82984C8.98711 3.84575 8.98925 3.8617 8.99121 3.8777C8.99264 3.8894 8.99508 3.90102 8.99609 3.91285C8.99643 3.91673 8.9958 3.92069 8.99609 3.92457C8.99749 3.94312 8.99866 3.96165 8.99902 3.98023C8.99927 3.99294 8.99926 4.00562 8.99902 4.01832C8.99874 4.03366 8.99708 4.0489 8.99609 4.06422C8.99475 4.08527 8.99286 4.10604 8.99023 4.12672C8.9892 4.13486 8.98854 4.14302 8.9873 4.15113C8.98389 4.17357 8.97949 4.19562 8.97461 4.21754C8.9725 4.22703 8.97016 4.23643 8.96777 4.24586C8.96405 4.26056 8.96046 4.27526 8.95605 4.2898C8.9399 4.34308 8.91893 4.39402 8.89453 4.44313C8.89052 4.45121 8.88705 4.45954 8.88281 4.46754C8.88131 4.47037 8.88043 4.47352 8.87891 4.47633C8.85208 4.52574 8.81996 4.57267 8.78418 4.61793C8.76014 4.64834 8.73511 4.67872 8.70703 4.7068L7.20703 6.2068C6.81654 6.59716 6.18346 6.59716 5.79297 6.2068C5.47643 5.89026 5.4157 5.41378 5.6123 5.03688C4.69317 5.21734 4 6.02768 4 6.99977C3.99987 7.55194 3.55221 7.99977 3 7.99977C2.44779 7.99977 2.00013 7.55194 2 6.99977C2 4.91028 3.6018 3.19525 5.64453 3.01539C5.4122 2.63096 5.46115 2.12466 5.79297 1.79273Z" fill="currentColor"/>
</svg>
