<svg viewBox="0 0 24 24" fill="none" xmlns="http://www.w3.org/2000/svg">
<path d="M6.77319 8.14862C6.77319 7.15768 6.93249 6.20301 7.22632 5.30976C5.26507 6.80444 3.99976 9.1655 3.99976 11.8205C3.9999 16.338 7.66199 20 12.1794 20.0002C14.8345 20.0002 17.1945 18.734 18.6892 16.7726C17.7961 17.0664 16.842 17.2267 15.8513 17.2267C10.8378 17.2265 6.7734 13.1622 6.77319 8.14862ZM8.77319 8.14862C8.7734 12.0576 11.9423 15.2265 15.8513 15.2267C17.5664 15.2267 19.137 14.6179 20.3621 13.6037C20.7001 13.3239 21.1806 13.2977 21.5476 13.5383C21.9145 13.7788 22.0824 14.2301 21.9607 14.6516C20.7341 18.8953 16.8204 22.0002 12.1794 22.0002C6.55742 22 1.9999 17.4425 1.99976 11.8205C1.99976 7.17956 5.10469 3.26585 9.34839 2.03925C9.76989 1.91754 10.2211 2.08543 10.4617 2.45234C10.7022 2.8193 10.676 3.29988 10.3962 3.63788C9.38209 4.86297 8.77319 6.43357 8.77319 8.14862Z" fill="currentColor"/>
</svg>
