<svg viewBox="0 0 16 16" fill="none" xmlns="http://www.w3.org/2000/svg">
<path d="M4.37379 5.37852C4.3738 4.77492 4.46084 4.19141 4.62077 3.63893C3.40133 4.64763 2.62447 6.17227 2.62444 7.8776C2.62444 10.914 5.08596 13.3756 8.1224 13.3756C9.82781 13.3756 11.3514 12.5978 12.3601 11.3783C11.8078 11.5381 11.2249 11.6262 10.6215 11.6262C7.17098 11.6262 4.37379 8.82902 4.37379 5.37852ZM5.87324 5.37852C5.87324 8.0009 7.9991 10.1268 10.6215 10.1268C11.7719 10.1268 12.8249 9.71851 13.6467 9.0383C13.9001 8.82857 14.2609 8.80829 14.536 8.98851C14.8112 9.16891 14.9369 9.50808 14.8455 9.82414C14.0023 12.741 11.3125 14.875 8.1224 14.875C4.25784 14.875 1.125 11.7422 1.125 7.8776C1.12503 4.68757 3.25903 1.99768 6.17586 1.1545C6.49192 1.06315 6.83109 1.18883 7.01149 1.46396C7.19177 1.73907 7.17145 2.0999 6.9617 2.35328C6.2815 3.17506 5.87326 4.22811 5.87324 5.37852Z" fill="currentColor"/>
</svg>
