<svg viewBox="0 0 32 32" fill="none" xmlns="http://www.w3.org/2000/svg">
<path d="M8.74683 10.7572C8.74685 9.55132 8.92078 8.3855 9.23999 7.28162C6.80286 9.29884 5.24981 12.3462 5.24976 15.7552C5.24976 21.8276 10.1725 26.7504 16.2449 26.7504C19.654 26.7503 22.7003 25.1963 24.7175 22.7592C23.6138 23.0782 22.4486 23.2533 21.2429 23.2533C14.3418 23.2533 8.74683 17.6583 8.74683 10.7572ZM11.7468 10.7572C11.7468 16.0014 15.9987 20.2533 21.2429 20.2533C23.5437 20.2532 25.6503 19.436 27.2937 18.0756C27.8007 17.6563 28.5218 17.6163 29.072 17.9769C29.6224 18.3378 29.8738 19.0155 29.6912 19.6478C28.0049 25.4817 22.6251 29.7503 16.2449 29.7504C8.51568 29.7504 2.24976 23.4844 2.24976 15.7552C2.24983 9.375 6.51838 3.9952 12.3523 2.30896C12.9846 2.12633 13.6623 2.37771 14.0232 2.9281C14.3838 3.47836 14.3439 4.19946 13.9246 4.70642C12.5641 6.34986 11.7469 8.45643 11.7468 10.7572Z" fill="currentColor"/>
</svg>
