<svg viewBox="0 0 24 24" fill="none" xmlns="http://www.w3.org/2000/svg">
<path d="M8.10156 10.6299C8.8129 10.6823 9.37246 11.2732 9.37598 11.9951V12L9.36914 12.1406C9.2987 12.8339 8.7128 13.375 8.00098 13.375C7.28916 13.375 6.70325 12.8339 6.63281 12.1406L6.62598 12C6.62394 11.2711 7.18887 10.6838 7.89551 10.6309C7.92954 10.6274 7.96406 10.625 7.99902 10.625L8.10156 10.6299Z" fill="currentColor"/>
<path d="M12.1016 10.6299C12.8129 10.6823 13.3725 11.2732 13.376 11.9951V12L13.3691 12.1406C13.2987 12.8339 12.7128 13.375 12.001 13.375C11.2892 13.375 10.7033 12.8339 10.6328 12.1406L10.626 12C10.6239 11.2711 11.1889 10.6838 11.8955 10.6309C11.9295 10.6274 11.9641 10.625 11.999 10.625L12.1016 10.6299Z" fill="currentColor"/>
<path d="M16.1016 10.6299C16.8129 10.6823 17.3725 11.2732 17.376 11.9951V12L17.3691 12.1406C17.2987 12.8339 16.7128 13.375 16.001 13.375C15.2892 13.375 14.7033 12.8339 14.6328 12.1406L14.626 12C14.6239 11.2711 15.1889 10.6838 15.8955 10.6309C15.9295 10.6274 15.9641 10.625 15.999 10.625L16.1016 10.6299Z" fill="currentColor"/>
<path d="M12 2C17.5233 2 22 6.47672 22 12C22 17.5233 17.5233 22 12 22C6.47672 22 2 17.5233 2 12C2 6.47672 6.47672 2 12 2ZM12 4C7.58128 4 4 7.58128 4 12C4 16.4187 7.58128 20 12 20C16.4187 20 20 16.4187 20 12C20 7.58128 16.4187 4 12 4Z" fill="currentColor"/>
</svg>
