<svg viewBox="0 0 32 32" fill="none" xmlns="http://www.w3.org/2000/svg">
<path d="M16.0002 1.33301C7.9135 1.33301 1.3335 7.91301 1.3335 15.9997C1.3335 24.0863 7.9135 30.6663 16.0002 30.6663C24.0868 30.6663 30.6668 24.0863 30.6668 15.9997C30.6668 7.91301 24.0868 1.33301 16.0002 1.33301ZM9.00016 17.6663C8.08016 17.6663 7.3335 16.9197 7.3335 15.9997C7.3335 15.0797 8.08016 14.333 9.00016 14.333C9.92016 14.333 10.6668 15.0797 10.6668 15.9997C10.6668 16.9197 9.92016 17.6663 9.00016 17.6663ZM16.0002 17.6663C15.0802 17.6663 14.3335 16.9197 14.3335 15.9997C14.3335 15.0797 15.0802 14.333 16.0002 14.333C16.9202 14.333 17.6668 15.0797 17.6668 15.9997C17.6668 16.9197 16.9202 17.6663 16.0002 17.6663ZM23.0002 17.6663C22.0802 17.6663 21.3335 16.9197 21.3335 15.9997C21.3335 15.0797 22.0802 14.333 23.0002 14.333C23.9202 14.333 24.6668 15.0797 24.6668 15.9997C24.6668 16.9197 23.9202 17.6663 23.0002 17.6663Z" fill="currentColor"/>
</svg>
