<svg viewBox="0 0 16 16" fill="none" xmlns="http://www.w3.org/2000/svg">
<path d="M5.40918 7.00391L5.41309 7.00488C5.92762 7.04575 6.33146 7.47407 6.33398 7.99707V8L6.3291 8.10254C6.2778 8.60657 5.8515 8.99988 5.33398 9C4.81653 8.99983 4.39118 8.6065 4.33984 8.10254L4.33398 8C4.33279 7.47261 4.73989 7.04703 5.25 7.00488C5.27718 7.0019 5.30503 7 5.33301 7L5.40918 7.00391Z" fill="currentColor"/>
<path d="M8.0752 7.00391L8.0791 7.00488C8.59376 7.04562 8.99747 7.47398 9 7.99707V8L8.99512 8.10254C8.94378 8.60662 8.51761 9 8 9C7.48264 8.99971 7.05717 8.60644 7.00586 8.10254L7 8C6.9988 7.4727 7.40602 7.04715 7.91602 7.00488C7.94319 7.00189 7.97106 7.00001 7.99902 7L8.0752 7.00391Z" fill="currentColor"/>
<path d="M10.7422 7.00391L10.7461 7.00488C11.2607 7.04563 11.6645 7.47399 11.667 7.99707V8L11.6621 8.10254C11.6108 8.60664 11.1846 9 10.667 9C10.1495 8.99983 9.72418 8.60651 9.67285 8.10254L9.66699 8C9.6658 7.47262 10.0729 7.04704 10.583 7.00488C10.6103 7.00188 10.638 7 10.666 7L10.7422 7.00391Z" fill="currentColor"/>
<path d="M8 1.25C11.7282 1.25 14.75 4.27179 14.75 8C14.75 11.7282 11.7282 14.75 8 14.75C4.27179 14.75 1.25 11.7282 1.25 8C1.25 4.27179 4.27179 1.25 8 1.25ZM8 2.75C5.10021 2.75 2.75 5.10021 2.75 8C2.75 10.8998 5.10021 13.25 8 13.25C10.8998 13.25 13.25 10.8998 13.25 8C13.25 5.10021 10.8998 2.75 8 2.75Z" fill="currentColor"/>
</svg>
