<svg viewBox="0 0 32 32" fill="none" xmlns="http://www.w3.org/2000/svg">
<path d="M10.793 14.2559L10.7969 14.2568C11.7015 14.3241 12.4132 15.0751 12.418 15.9932V16L12.4082 16.1787C12.3185 17.0609 11.5737 17.7498 10.668 17.75C9.70542 17.7499 8.92491 16.9719 8.91895 16.0107L8.91797 16.0117C8.9091 15.0792 9.62956 14.3251 10.5322 14.2568C10.5758 14.2522 10.6203 14.25 10.665 14.25L10.793 14.2559ZM10.5889 16.7461L10.665 16.75C10.6389 16.75 10.6127 16.7467 10.5869 16.7451L10.5889 16.7461Z" fill="currentColor"/>
<path d="M16.127 14.2559L16.1309 14.2568C17.0353 14.3242 17.7472 15.0752 17.752 15.9932V16L17.7422 16.1787C17.6525 17.0608 16.9076 17.7497 16.002 17.75C15.0393 17.75 14.2589 16.972 14.2529 16.0107L14.252 16.0117C14.2431 15.0791 14.9634 14.325 15.8662 14.2568C15.9098 14.2522 15.9543 14.25 15.999 14.25L16.127 14.2559ZM15.9229 16.7461L15.999 16.75C15.9728 16.75 15.9467 16.7467 15.9209 16.7451L15.9229 16.7461Z" fill="currentColor"/>
<path d="M21.46 14.2559L21.4639 14.2568C22.3684 14.3241 23.0802 15.0751 23.085 15.9932V16L23.0752 16.1787C22.9855 17.0609 22.2407 17.7498 21.335 17.75C20.3723 17.75 19.5919 16.972 19.5859 16.0107L19.585 16.0117C19.5761 15.0791 20.2964 14.325 21.1992 14.2568C21.2428 14.2522 21.2872 14.25 21.332 14.25L21.46 14.2559ZM21.2559 16.7461L21.332 16.75C21.3058 16.75 21.2798 16.7467 21.2539 16.7451L21.2559 16.7461Z" fill="currentColor"/>
<path d="M16 2.75C23.3184 2.75 29.25 8.68164 29.25 16C29.25 23.3184 23.3184 29.25 16 29.25C8.68164 29.25 2.75 23.3184 2.75 16C2.75 8.68164 8.68164 2.75 16 2.75ZM16 5.25C10.0624 5.25 5.25 10.0624 5.25 16C5.25 21.9376 10.0624 26.75 16 26.75C21.9376 26.75 26.75 21.9376 26.75 16C26.75 10.0624 21.9376 5.25 16 5.25Z" fill="currentColor"/>
</svg>
