<svg viewBox="0 0 24 24" fill="none" xmlns="http://www.w3.org/2000/svg">
<path d="M12 1C5.935 1 1 5.935 1 12C1 18.065 5.935 23 12 23C18.065 23 23 18.065 23 12C23 5.935 18.065 1 12 1ZM6.75 13.25C6.06 13.25 5.5 12.69 5.5 12C5.5 11.31 6.06 10.75 6.75 10.75C7.44 10.75 8 11.31 8 12C8 12.69 7.44 13.25 6.75 13.25ZM12 13.25C11.31 13.25 10.75 12.69 10.75 12C10.75 11.31 11.31 10.75 12 10.75C12.69 10.75 13.25 11.31 13.25 12C13.25 12.69 12.69 13.25 12 13.25ZM17.25 13.25C16.56 13.25 16 12.69 16 12C16 11.31 16.56 10.75 17.25 10.75C17.94 10.75 18.5 11.31 18.5 12C18.5 12.69 17.94 13.25 17.25 13.25Z" fill="currentColor"/>
</svg>
