<svg viewBox="0 0 16 16" fill="none" xmlns="http://www.w3.org/2000/svg">
<path d="M8.00008 0.666992C3.95675 0.666992 0.666748 3.95699 0.666748 8.00033C0.666748 12.0437 3.95675 15.3337 8.00008 15.3337C12.0434 15.3337 15.3334 12.0437 15.3334 8.00033C15.3334 3.95699 12.0434 0.666992 8.00008 0.666992ZM4.50008 8.83366C4.04008 8.83366 3.66675 8.46033 3.66675 8.00033C3.66675 7.54033 4.04008 7.16699 4.50008 7.16699C4.96008 7.16699 5.33342 7.54033 5.33342 8.00033C5.33342 8.46033 4.96008 8.83366 4.50008 8.83366ZM8.00008 8.83366C7.54008 8.83366 7.16675 8.46033 7.16675 8.00033C7.16675 7.54033 7.54008 7.16699 8.00008 7.16699C8.46008 7.16699 8.83342 7.54033 8.83342 8.00033C8.83342 8.46033 8.46008 8.83366 8.00008 8.83366ZM11.5001 8.83366C11.0401 8.83366 10.6667 8.46033 10.6667 8.00033C10.6667 7.54033 11.0401 7.16699 11.5001 7.16699C11.9601 7.16699 12.3334 7.54033 12.3334 8.00033C12.3334 8.46033 11.9601 8.83366 11.5001 8.83366Z" fill="currentColor"/>
</svg>
