<svg viewBox="0 0 24 24" fill="none" xmlns="http://www.w3.org/2000/svg">
<path d="M7.87868 14.1213C8.44129 14.6839 9.20435 14.9999 10 14.9999H14C14.7956 14.9999 15.5587 14.6839 16.1213 14.1213C16.6839 13.5587 17 12.7956 17 11.9999V7.68581C17.6535 8.6674 18.0014 9.8206 18 10.9998V22.9998C18 23.265 18.1054 23.5194 18.2929 23.7069C18.4804 23.8945 18.7348 23.9998 19 23.9998C19.2652 23.9998 19.5196 23.8945 19.7071 23.7069C19.8946 23.5194 20 23.265 20 22.9998V10.9998C19.9964 9.80463 19.7251 8.62544 19.2059 7.54889C18.6868 6.47234 17.933 5.5258 17 4.77881V2.07895C16.9998 1.90359 16.9535 1.73135 16.8658 1.57953C16.778 1.42771 16.6519 1.30163 16.5 1.21395C15.1286 0.433697 13.5778 0.0234375 12 0.0234375C10.4222 0.0234375 8.87142 0.433697 7.5 1.21395C7.34813 1.30163 7.22199 1.42771 7.13423 1.57953C7.04647 1.73135 7.00018 1.90359 7 2.07895V4.77881C6.067 5.5258 5.31323 6.47234 4.79408 7.54889C4.27493 8.62544 4.00359 9.80463 4 10.9998V22.9998C4 23.265 4.10536 23.5194 4.29289 23.7069C4.48043 23.8945 4.73478 23.9998 5 23.9998C5.26522 23.9998 5.51957 23.8945 5.70711 23.7069C5.89464 23.5194 6 23.265 6 22.9998V10.9998C5.99855 9.8206 6.34653 8.6674 7 7.68581V11.9999C7 12.7956 7.31607 13.5587 7.87868 14.1213Z" fill="currentColor"/>
<path d="M9.29289 21.7071C9.48043 21.8946 9.73478 22 10 22H14C14.2652 22 14.5196 21.8946 14.7071 21.7071C14.8946 21.5196 15 21.2652 15 21C15 20.7348 14.8946 20.4804 14.7071 20.2929C14.5196 20.1054 14.2652 20 14 20H10C9.73478 20 9.48043 20.1054 9.29289 20.2929C9.10536 20.4804 9 20.7348 9 21C9 21.2652 9.10536 21.5196 9.29289 21.7071Z" fill="currentColor"/>
</svg>
