<svg viewBox="0 0 32 32" fill="none" xmlns="http://www.w3.org/2000/svg">
<path d="M15.9995 2.74512C16.6898 2.74512 17.2495 3.30476 17.2495 3.99512C17.2495 4.68547 16.6898 5.24512 15.9995 5.24512C13.0944 5.2453 10.3124 6.42081 8.28755 8.50391C6.26579 10.584 5.16983 13.3927 5.24849 16.292L5.28169 16.8213C5.51648 19.5254 6.73719 21.9435 8.5815 23.7178L8.57369 19.6182L8.57466 19.6172C8.56288 17.8067 9.49381 16.1196 11.0327 15.165C11.0487 15.1549 11.0654 15.1458 11.0815 15.1357V12.4658C11.0815 11.48 11.4734 10.5341 12.1704 9.83691L12.3042 9.70996C12.986 9.09257 13.8751 8.74816 14.7993 8.74805H17.2006C19.2537 8.74829 20.9174 10.4127 20.9174 12.4658V15.1357C20.9336 15.1458 20.9502 15.1558 20.9663 15.166L20.9672 15.165C22.5063 16.1196 23.437 17.8066 23.4252 19.6172L23.4262 19.6182L23.4174 23.7832C23.4429 23.7589 23.4703 23.7365 23.4956 23.7119C25.5788 21.6869 26.7543 18.9053 26.7543 16C26.7544 15.31 27.3144 14.7504 28.0043 14.75C28.6947 14.75 29.2543 15.3097 29.2543 16C29.2543 19.5806 27.8062 23.0091 25.2387 25.5049C22.6712 28.0005 19.2026 29.3515 15.6235 29.25H15.6108C13.3111 29.1611 11.1631 28.491 9.30415 27.3877C9.22676 27.351 9.15308 27.3079 9.0854 27.2568C5.50229 25.0368 3.04656 21.175 2.76704 16.7148L2.75044 16.3887L2.74947 16.376C2.64803 12.7971 3.99929 9.32914 6.49458 6.76172C8.99016 4.19439 12.4191 2.7453 15.9995 2.74512ZM11.0776 19.4297L11.0737 19.6055V19.6133L11.0854 25.5205C12.476 26.2483 14.0429 26.6867 15.7075 26.751C17.5322 26.8007 19.3197 26.3842 20.9135 25.5654L20.9262 19.6133V19.6055L20.9223 19.4297C20.9193 19.3772 20.9147 19.3244 20.9086 19.2725C20.7684 21.6783 18.7744 23.5868 16.3335 23.5869H15.6665C13.2256 23.5867 11.2315 21.6783 11.0913 19.2725C11.0853 19.3244 11.0806 19.3772 11.0776 19.4297ZM14.7993 11.248C14.517 11.2481 14.2443 11.3462 14.0278 11.5234L13.9379 11.6045C13.7098 11.8328 13.5815 12.143 13.5815 12.4658V15.8359C13.5819 15.848 13.5814 15.86 13.5815 15.8721V19.002C13.5817 20.153 14.5154 21.0867 15.6665 21.0869H16.3335C17.4845 21.0868 18.4172 20.153 18.4174 19.002V12.4658C18.4174 11.7935 17.8729 11.2483 17.2006 11.248H14.7993Z" fill="currentColor"/>
<path d="M25.4907 1.41699C26.202 1.46545 26.8489 1.84936 27.2329 2.4502L27.311 2.58203L28.0444 3.92285L28.0776 3.95605L29.4184 4.68945L29.5502 4.76758C30.1941 5.17888 30.5883 5.89211 30.5883 6.66309C30.5882 7.43388 30.1939 8.14733 29.5502 8.55859L29.4184 8.63672L28.0795 9.37012L28.0463 9.40332L27.311 10.7461C26.9159 11.4669 26.1587 11.915 25.3374 11.915C24.5664 11.9149 23.853 11.5203 23.4418 10.877L23.3637 10.7451L22.6303 9.40527L22.5971 9.37207L21.2543 8.63672C20.5785 8.26647 20.1423 7.57781 20.0903 6.81641L20.0854 6.66309L20.0903 6.50977C20.1422 5.74774 20.5797 5.05942 21.2553 4.68945L22.5971 3.95508L22.6303 3.92188L23.3637 2.58203L23.4418 2.4502C23.8531 1.80663 24.5666 1.41128 25.3374 1.41113L25.4907 1.41699ZM24.8237 5.12207C24.6164 5.50058 24.3176 5.82103 23.9565 6.05371L23.7973 6.14844L22.8559 6.66309L23.7983 7.17969L23.9565 7.27344C24.3178 7.50626 24.6164 7.82629 24.8237 8.20508L25.3374 9.14355L25.854 8.20215L25.9477 8.04297C26.1804 7.68202 26.501 7.38393 26.8793 7.17676L27.8168 6.66211L26.8784 6.14941C26.4996 5.94215 26.1786 5.64358 25.9458 5.28223L25.852 5.12305L25.3374 4.18262L24.8237 5.12207Z" fill="currentColor"/>
</svg>
