<svg viewBox="0 0 24 24" fill="none" xmlns="http://www.w3.org/2000/svg">
<path d="M11.9999 1.99609C12.552 1.99613 12.9997 2.44394 12.9999 2.99609C12.9999 3.54836 12.5521 3.99606 11.9999 3.99609C9.83792 3.99612 7.76756 4.87071 6.2606 6.4209C4.75597 7.96879 3.94048 10.0592 3.99888 12.2168L4.0233 12.6104C4.19347 14.5702 5.0601 16.3275 6.3729 17.6377L6.36802 14.7129L6.369 14.7119C6.36033 13.3325 7.06941 12.0475 8.24204 11.3203C8.2444 11.3188 8.24652 11.3179 8.24888 11.3164V9.34863C8.24893 8.59263 8.54926 7.86759 9.08384 7.33301L9.29283 7.14355C9.80005 6.72798 10.438 6.49809 11.0995 6.49805H12.9002C14.4746 6.49812 15.7507 7.77433 15.7508 9.34863V11.3174C15.7528 11.3186 15.7547 11.32 15.7567 11.3213L15.7577 11.3203C16.9303 12.0475 17.6394 13.3325 17.6307 14.7119L17.6317 14.7129L17.6258 17.6904C19.1458 16.1876 20.0037 14.1394 20.0038 12C20.0039 11.4479 20.4516 11.0001 21.0038 11C21.5559 11.0001 22.0036 11.4479 22.0038 12C22.0037 14.7022 20.9101 17.2893 18.9725 19.1729C17.0349 21.0563 14.4177 22.0764 11.7167 22L11.7059 21.999C9.96307 21.9317 8.33457 21.4248 6.92759 20.5859C6.8739 20.5588 6.82284 20.5272 6.77525 20.4912C4.14036 18.8561 2.3143 16.0447 2.03111 12.7852L1.99986 12.2939V12.2832C1.92343 9.58228 2.94279 6.96492 4.82603 5.02734C6.70957 3.08969 9.29758 1.99612 11.9999 1.99609ZM8.37583 19.1016C9.39971 19.6314 10.5504 19.9512 11.7723 20C13.1202 20.0381 14.4427 19.7346 15.6229 19.1357L15.6307 15.1602C15.2303 16.6528 13.8688 17.7519 12.2499 17.752H11.7499C10.1308 17.7519 8.76838 16.6529 8.36802 15.1602L8.37583 19.1016ZM11.0995 8.49805C10.9022 8.49809 10.7117 8.56652 10.5604 8.69043L10.4979 8.74707C10.3384 8.90658 10.2489 9.12306 10.2489 9.34863V14.251C10.2489 15.0799 10.9209 15.7519 11.7499 15.752H12.2499C13.0788 15.7519 13.7508 15.0799 13.7508 14.251V9.34863C13.7507 8.8789 13.37 8.49812 12.9002 8.49805H11.0995Z" fill="currentColor"/>
<path d="M19.1229 1C19.676 1.03785 20.1789 1.3365 20.4774 1.80371L20.5379 1.90625L21.0877 2.91113L21.0887 2.91211L22.0946 3.46191L22.1971 3.52246C22.6976 3.84244 23.0038 4.39759 23.0038 4.99707C23.0036 5.59654 22.6977 6.1518 22.1971 6.47168L22.0946 6.53223L21.0897 7.08203L20.5379 8.08887C20.2307 8.64966 19.6418 8.998 19.0028 8.99805C18.4034 8.99793 17.849 8.69144 17.5292 8.19141L17.4686 8.08887L16.9178 7.08301L15.911 6.53223C15.3853 6.24427 15.0462 5.70843 15.0057 5.11621L15.0018 4.99707L15.0057 4.87793C15.046 4.28494 15.3861 3.74967 15.912 3.46191L16.9178 2.91113L17.4686 1.90625L17.5292 1.80371C17.849 1.30315 18.4033 0.996257 19.0028 0.996094L19.1229 1ZM18.6727 3.87109C18.5121 4.1645 18.2808 4.41253 18.0008 4.59277L17.8778 4.66602L17.2723 4.99707L17.8788 5.3291L18.0018 5.40234C18.2812 5.58253 18.5124 5.83006 18.6727 6.12305L19.0028 6.72754L19.3358 6.12109L19.409 5.99805C19.5893 5.71851 19.8367 5.48753 20.1297 5.32715L20.7323 4.99609L20.1288 4.66602C19.8356 4.5056 19.5873 4.27478 19.4071 3.99512L19.3338 3.87207L19.0028 3.2666L18.6727 3.87109Z" fill="currentColor"/>
</svg>
