<svg viewBox="0 0 16 16" fill="none" xmlns="http://www.w3.org/2000/svg">
<path d="M8.00027 1.24805C8.41432 1.24825 8.75027 1.58396 8.75027 1.99805C8.75001 2.41191 8.41415 2.74785 8.00027 2.74805C6.5815 2.74812 5.22259 3.32249 4.23367 4.33984C3.24683 5.35533 2.7113 6.72631 2.7493 8.1416L2.76492 8.40039C2.87047 9.61457 3.38341 10.7104 4.16531 11.5527L4.16238 9.80957L4.16336 9.80859C4.15755 8.87384 4.63086 8.00275 5.41629 7.49902V6.23242C5.41641 5.70644 5.62542 5.20201 5.99734 4.83008L6.14285 4.69824C6.49575 4.40911 6.93948 4.24913 7.39969 4.24902H8.60086C9.69616 4.24926 10.584 5.13713 10.5843 6.23242V7.49902C11.3695 8.00278 11.843 8.87396 11.8372 9.80859L11.8382 9.80957L11.8343 11.5889C12.7429 10.6182 13.252 9.33666 13.2522 8.00098C13.2522 7.58691 13.5882 7.25122 14.0022 7.25098C14.4164 7.25098 14.7522 7.58676 14.7522 8.00098C14.752 9.82472 14.0141 11.5716 12.7063 12.8428C11.3985 14.1137 9.6318 14.8016 7.80887 14.75H7.80105C6.60134 14.7037 5.48228 14.3473 4.5198 13.7607C4.51 13.7545 4.5 13.7488 4.49051 13.7422C2.70288 12.6402 1.46262 10.7381 1.27078 8.53125L1.25027 8.19922V8.19238C1.1986 6.36932 1.88647 4.60185 3.1575 3.29395C4.42884 1.98605 6.1763 1.24812 8.00027 1.24805ZM10.3362 10.5605C9.94327 11.3633 9.1214 11.9178 8.16727 11.918H7.83328C6.87906 11.9178 6.05632 11.3635 5.66336 10.5605L5.66824 12.6836C6.33074 13.0183 7.07228 13.2206 7.85867 13.251H8.12332C8.89592 13.2329 9.64835 13.0425 10.3313 12.7041L10.3362 10.5605ZM7.39969 5.74902C7.30378 5.74911 7.2108 5.77772 7.13211 5.83008L7.05789 5.89062C6.96727 5.98126 6.91641 6.10427 6.91629 6.23242V9.50098C6.91646 10.0073 7.32691 10.4178 7.83328 10.418H8.16727C8.67364 10.4178 9.08408 10.0074 9.08426 9.50098V6.23242C9.08402 5.96555 8.86773 5.74926 8.60086 5.74902H7.39969Z" fill="currentColor"/>
<path d="M12.8382 0.592773C13.1719 0.638336 13.4738 0.817004 13.6741 1.08789L13.7659 1.23145L14.1204 1.87988L14.7698 2.23535L14.9134 2.32617C15.2292 2.55981 15.4202 2.93255 15.4202 3.33203C15.4199 3.7313 15.2291 4.10346 14.9134 4.33691L14.7698 4.42773L14.1214 4.78223L13.7659 5.43359C13.5464 5.83391 13.1254 6.0829 12.6692 6.08301C12.2695 6.08301 11.8979 5.89109 11.6643 5.5752L11.5725 5.43262L11.2171 4.7832L10.5677 4.42773C10.2174 4.23583 9.98327 3.8899 9.92996 3.50098L9.91824 3.33203L9.92996 3.16211C9.98318 2.77282 10.2175 2.42717 10.5677 2.23535L11.218 1.87988L11.5725 1.23145L11.6643 1.08789C11.898 0.771872 12.2696 0.580078 12.6692 0.580078L12.8382 0.592773ZM12.5218 2.62109C12.4244 2.799 12.2902 2.95344 12.1292 3.07422L11.9593 3.18359L11.6878 3.33105L11.9593 3.48047L12.1292 3.58887C12.2366 3.66944 12.3319 3.76562 12.4124 3.87305L12.5218 4.04297L12.6682 4.31152L12.8177 4.04102L12.927 3.87109C13.0479 3.71007 13.2022 3.5759 13.3802 3.47852L13.6487 3.33105L13.3792 3.18457C13.2012 3.08716 13.0469 2.95211 12.9261 2.79102L12.8167 2.62109L12.6692 2.35156L12.5218 2.62109Z" fill="currentColor"/>
</svg>
