<svg viewBox="0 0 32 32" fill="none" xmlns="http://www.w3.org/2000/svg">
<path d="M10.5051 18.8284C11.2552 19.5785 12.2726 19.9999 13.3335 19.9999H18.6668C19.7277 19.9999 20.7451 19.5785 21.4953 18.8284C22.2454 18.0782 22.6668 17.0608 22.6668 15.9999V2.77193C22.6666 2.53812 22.6049 2.30847 22.4879 2.10604C22.3708 1.90361 22.2027 1.73551 22.0002 1.6186C20.1716 0.578262 18.104 0.03125 16.0002 0.03125C13.8964 0.03125 11.8287 0.578262 10.0002 1.6186C9.79767 1.73551 9.62948 1.90361 9.51247 2.10604C9.39546 2.30847 9.33374 2.53812 9.3335 2.77193V6.37207C8.0895 7.36805 7.08447 8.63011 6.39227 10.0655C5.70007 11.5009 5.33828 13.0732 5.3335 14.6667V30.6667C5.3335 31.0204 5.47397 31.3595 5.72402 31.6095C5.97407 31.8596 6.31321 32.0001 6.66683 32.0001C7.02045 32.0001 7.35959 31.8596 7.60964 31.6095C7.85969 31.3595 8.00016 31.0204 8.00016 30.6667V14.6667C7.99823 13.0945 8.4622 11.5569 9.3335 10.2481V15.9999C9.3335 17.0608 9.75492 18.0782 10.5051 18.8284Z" fill="currentColor"/>
<path d="M22.667 6.37207V10.2481C23.5383 11.5569 24.0023 13.0945 24.0003 14.6667V30.6667C24.0003 31.0204 24.1408 31.3595 24.3908 31.6095C24.6409 31.8596 24.98 32.0001 25.3337 32.0001C25.6873 32.0001 26.0264 31.8596 26.2765 31.6095C26.5265 31.3595 26.667 31.0204 26.667 30.6667V14.6667C26.6622 13.0732 26.3004 11.5009 25.6082 10.0655C24.916 8.63011 23.911 7.36805 22.667 6.37207Z" fill="currentColor"/>
<path d="M13.3333 29.3332H18.6667C19.0203 29.3332 19.3594 29.1927 19.6095 28.9426C19.8595 28.6926 20 28.3535 20 27.9998C20 27.6462 19.8595 27.3071 19.6095 27.057C19.3594 26.807 19.0203 26.6665 18.6667 26.6665H13.3333C12.9797 26.6665 12.6406 26.807 12.3905 27.057C12.1405 27.3071 12 27.6462 12 27.9998C12 28.3535 12.1405 28.6926 12.3905 28.9426C12.6406 29.1927 12.9797 29.3332 13.3333 29.3332Z" fill="currentColor"/>
</svg>
