<svg viewBox="0 0 16 16" fill="none" xmlns="http://www.w3.org/2000/svg">
<path d="M5.25253 9.41418C5.62761 9.78925 6.13631 9.99997 6.66675 9.99997H9.33341C9.86385 9.99997 10.3726 9.78925 10.7476 9.41418C11.1227 9.03911 11.3334 8.5304 11.3334 7.99997V1.38597C11.3333 1.26906 11.3024 1.15424 11.2439 1.05302C11.1854 0.951805 11.1013 0.867754 11.0001 0.8093C10.0858 0.289131 9.05198 0.015625 8.00008 0.015625C6.94818 0.015625 5.91436 0.289131 5.00008 0.8093C4.89884 0.867754 4.81474 0.951805 4.75624 1.05302C4.69773 1.15424 4.66687 1.26906 4.66675 1.38597V3.18604C4.04475 3.68403 3.54224 4.31506 3.19614 5.03275C2.85003 5.75045 2.66914 6.53658 2.66675 7.33337V15.3334C2.66675 15.5102 2.73699 15.6797 2.86201 15.8048C2.98703 15.9298 3.1566 16 3.33341 16C3.51023 16 3.67979 15.9298 3.80482 15.8048C3.92984 15.6797 4.00008 15.5102 4.00008 15.3334V7.33337C3.99912 6.54723 4.2311 5.77843 4.66675 5.12403V7.99997C4.66675 8.5304 4.87746 9.03911 5.25253 9.41418Z" fill="currentColor"/>
<path d="M11.3335 3.18604V5.12403C11.7691 5.77843 12.0011 6.54723 12.0002 7.33337V15.3334C12.0002 15.5102 12.0704 15.6797 12.1954 15.8048C12.3204 15.9298 12.49 16 12.6668 16C12.8436 16 13.0132 15.9298 13.1382 15.8048C13.2633 15.6797 13.3335 15.5102 13.3335 15.3334V7.33337C13.3311 6.53658 13.1502 5.75045 12.8041 5.03275C12.458 4.31506 11.9555 3.68403 11.3335 3.18604Z" fill="currentColor"/>
<path d="M6.66667 14.6668H9.33333C9.51014 14.6668 9.67971 14.5966 9.80474 14.4716C9.92976 14.3465 10 14.177 10 14.0002C10 13.8234 9.92976 13.6538 9.80474 13.5288C9.67971 13.4037 9.51014 13.3335 9.33333 13.3335H6.66667C6.48986 13.3335 6.32029 13.4037 6.19526 13.5288C6.07024 13.6538 6 13.8234 6 14.0002C6 14.177 6.07024 14.3465 6.19526 14.4716C6.32029 14.5966 6.48986 14.6668 6.66667 14.6668Z" fill="currentColor"/>
</svg>
