<svg viewBox="0 0 32 32" fill="none" xmlns="http://www.w3.org/2000/svg">
<path d="M16.1396 11.1298C16.6203 10.6492 17.3994 10.6492 17.88 11.1298C20.5698 13.8196 20.5698 18.1804 17.88 20.8702C17.3994 21.3508 16.6203 21.3508 16.1396 20.8702C15.659 20.3895 15.659 19.6105 16.1396 19.1298C17.8681 17.4013 17.8681 14.5987 16.1396 12.8702C15.659 12.3895 15.659 11.6105 16.1396 11.1298Z" fill="currentColor"/>
<path d="M12.9306 16C12.9306 15.5763 12.7627 15.1698 12.4631 14.8702C11.9825 14.3896 11.9825 13.6104 12.4631 13.1298C12.9437 12.6492 13.7228 12.6492 14.2035 13.1298C14.9647 13.8911 15.3922 14.9234 15.3922 16C15.3922 17.0766 14.9647 18.1089 14.2035 18.8702C13.7228 19.3508 12.9437 19.3508 12.4631 18.8702C11.9825 18.3896 11.9825 17.6104 12.4631 17.1298C12.7627 16.8302 12.9306 16.4237 12.9306 16Z" fill="currentColor"/>
<path d="M23 27H9L8.69141 26.9922C5.62332 26.8368 3.16325 24.3767 3.00781 21.3086L3 21V11C3 7.68629 5.68629 5 9 5H23C26.3137 5 29 7.68629 29 11V21C29 24.2102 26.4789 26.8316 23.3086 26.9922L23 27ZM23 24C24.6569 24 26 22.6569 26 21V11C26 9.34315 24.6569 8 23 8H9C7.34315 8 6 9.34315 6 11V21C6 22.6569 7.34315 24 9 24H23Z" fill="currentColor"/>
</svg>
