<svg viewBox="0 0 24 24" fill="none" xmlns="http://www.w3.org/2000/svg">
<path d="M17.2778 20H6.72222L6.50472 19.9951C4.27392 19.8879 2.5 18.14 2.5 16V8C2.5 5.79086 4.39035 4 6.72222 4H17.2778C19.6096 4 21.5 5.79086 21.5 8V16L21.4948 16.2061C21.3853 18.2512 19.654 19.8913 17.4953 19.9951L17.2778 20ZM9.69798 12C9.69798 12.3178 9.57203 12.6226 9.34732 12.8474C8.98686 13.2078 8.98686 13.7922 9.34732 14.1526C9.7078 14.5131 10.2921 14.5131 10.6526 14.1526C11.2235 13.5817 11.5441 12.8074 11.5441 12C11.5441 11.1926 11.2235 10.4183 10.6526 9.84736C10.2921 9.48689 9.7078 9.48688 9.34732 9.84736C8.98686 10.2078 8.98686 10.7922 9.34732 11.1526C9.57203 11.3774 9.69798 11.6822 9.69798 12ZM13.41 8.34736C13.0495 7.98687 12.4652 7.98687 12.1047 8.34736C11.7442 8.70784 11.7442 9.29216 12.1047 9.65264C13.4011 10.949 13.4011 13.051 12.1047 14.3474C11.7442 14.7078 11.7442 15.2922 12.1047 15.6526C12.4652 16.0131 13.0495 16.0131 13.41 15.6526C15.4273 13.6353 15.4273 10.3647 13.41 8.34736Z" fill="currentColor"/>
</svg>
