<svg viewBox="0 0 16 16" fill="none" xmlns="http://www.w3.org/2000/svg">
<path d="M15.0011 11.2455C15.0011 12.7643 13.7699 13.9955 12.2511 13.9955H3.74878C2.23 13.9955 0.998779 12.7643 0.998779 11.2455V4.75488C0.998779 3.2361 2.23 2.00488 3.74878 2.00488L12.2511 2.00488C13.7699 2.00488 15.0011 3.2361 15.0011 4.75488V11.2455ZM6.3305 8.00021C6.3305 8.17637 6.26073 8.34537 6.13616 8.46994C5.84343 8.7628 5.84343 9.23762 6.13616 9.53048C6.42901 9.82333 6.9038 9.82325 7.19671 9.53048C7.60258 9.12461 7.8305 8.57419 7.8305 8.00021C7.8305 7.42622 7.60258 6.8758 7.19671 6.46994C6.9038 6.17717 6.42901 6.17708 6.13616 6.46994C5.84343 6.7628 5.84343 7.23762 6.13616 7.53048C6.26073 7.65505 6.3305 7.82405 6.3305 8.00021ZM9.03521 5.46994C8.74232 5.17704 8.26756 5.17704 7.97466 5.46994C7.68177 5.76283 7.68177 6.23759 7.97466 6.53048C8.78634 7.34216 8.78634 8.65826 7.97466 9.46994C7.68177 9.76283 7.68177 10.2376 7.97466 10.5305C8.26756 10.8234 8.74232 10.8234 9.03521 10.5305C10.4327 9.13302 10.4327 6.8674 9.03521 5.46994Z" fill="currentColor"/>
</svg>
