<svg viewBox="0 0 32 32" fill="none" xmlns="http://www.w3.org/2000/svg">
<path d="M23 27H9L8.69141 26.9922C5.62332 26.8368 3.16325 24.3767 3.00781 21.3086L3 21V11C3 7.68629 5.68629 5 9 5H23C26.3137 5 29 7.68629 29 11V21C29 24.2102 26.4789 26.8316 23.3086 26.9922L23 27ZM12.9306 16C12.9306 16.4237 12.7627 16.8302 12.4631 17.1298C11.9825 17.6104 11.9825 18.3896 12.4631 18.8702C12.9437 19.3508 13.7228 19.3508 14.2035 18.8702C14.9647 18.1089 15.3922 17.0766 15.3922 16C15.3922 14.9234 14.9647 13.8911 14.2035 13.1298C13.7228 12.6492 12.9437 12.6492 12.4631 13.1298C11.9825 13.6104 11.9825 14.3896 12.4631 14.8702C12.7627 15.1698 12.9306 15.5763 12.9306 16ZM17.88 11.1298C17.3994 10.6492 16.6203 10.6492 16.1396 11.1298C15.659 11.6105 15.659 12.3895 16.1396 12.8702C17.8681 14.5987 17.8681 17.4013 16.1396 19.1298C15.659 19.6105 15.659 20.3895 16.1396 20.8702C16.6203 21.3508 17.3994 21.3508 17.88 20.8702C20.5698 18.1804 20.5698 13.8196 17.88 11.1298Z" fill="currentColor"/>
</svg>
