<svg viewBox="0 0 24 24" fill="none" xmlns="http://www.w3.org/2000/svg">
<path d="M12.1047 8.34736C12.4652 7.98687 13.0495 7.98687 13.41 8.34736C15.4273 10.3647 15.4273 13.6353 13.41 15.6526C13.0495 16.0131 12.4652 16.0131 12.1047 15.6526C11.7442 15.2922 11.7442 14.7078 12.1047 14.3474C13.4011 13.051 13.4011 10.949 12.1047 9.65264C11.7442 9.29216 11.7442 8.70784 12.1047 8.34736Z" fill="currentColor"/>
<path d="M9.69798 12C9.69798 11.6822 9.57203 11.3774 9.34732 11.1526C8.98686 10.7922 8.98686 10.2078 9.34732 9.84736C9.7078 9.48688 10.2921 9.48689 10.6526 9.84736C11.2235 10.4183 11.5441 11.1926 11.5441 12C11.5441 12.8074 11.2235 13.5817 10.6526 14.1526C10.2921 14.5131 9.7078 14.5131 9.34732 14.1526C8.98686 13.7922 8.98686 13.2078 9.34732 12.8474C9.57203 12.6226 9.69798 12.3178 9.69798 12Z" fill="currentColor"/>
<path d="M17.2778 20L17.4953 19.9951C19.654 19.8913 21.3853 18.2512 21.4948 16.2061L21.5 16V8C21.5 5.79086 19.6096 4 17.2778 4H6.72222C4.39035 4 2.5 5.79086 2.5 8V16C2.5 18.14 4.27392 19.8879 6.50472 19.9951L6.72222 20H17.2778ZM17.2778 18H6.72222C5.55629 18 4.61111 17.1046 4.61111 16V8C4.61111 6.89543 5.55629 6 6.72222 6H17.2778C18.4437 6 19.3889 6.89543 19.3889 8V16C19.3889 17.1046 18.4437 18 17.2778 18Z" fill="currentColor"/>
</svg>
