<svg viewBox="0 0 24 24" fill="none" xmlns="http://www.w3.org/2000/svg">
<path d="M12.1025 16.0068C12.6066 16.0582 12.9999 16.4843 13 17.002C13 17.5196 12.6067 17.9457 12.1025 17.9971L12 18.002H6.99805C6.44576 18.002 5.99805 17.5542 5.99805 17.002C5.99811 16.4497 6.4458 16.002 6.99805 16.002H12L12.1025 16.0068Z" fill="currentColor"/>
<path d="M17.5166 1.99707C18.8182 1.99701 19.9947 2.77266 20.5059 3.96973L21.6055 6.53223L21.6074 6.53613L21.7002 6.77148C21.9023 7.3239 22.0054 7.90854 22.0039 8.49805V19.0029C22.0038 20.6601 20.6601 22.0038 19.0029 22.0039H5.24707C3.45178 22.0038 1.99624 20.5482 1.99609 18.7529V8.49805C1.99584 7.82285 2.13357 7.15484 2.39941 6.53418L3.49316 3.96973L3.59668 3.75098C4.15182 2.67895 5.26187 1.99596 6.48242 1.99609L17.5166 1.99707ZM4.99707 8.99805C4.44446 8.99811 3.99623 9.44643 3.99609 9.99902V18.7529C3.99624 19.4436 4.55634 20.0038 5.24707 20.0039H19.0029C19.5556 20.0038 20.0038 19.5555 20.0039 19.0029V9.99902C20.0038 9.48105 19.6099 9.05433 19.1055 9.00293L19.0029 8.99805H4.99707ZM13 6.99805H19.0029L19.1572 7.00195C19.3295 7.01069 19.4977 7.03567 19.6611 7.07227L18.667 4.75684L18.666 4.75488C18.4938 4.3521 18.1259 4.07303 17.7012 4.00977L17.5166 3.99609H13V6.99805ZM6.48242 3.99609C6.04424 3.99602 5.64311 4.22505 5.41797 4.59082L5.33203 4.75488L4.34375 7.07129C4.55418 7.02453 4.77257 6.99806 4.99707 6.99805H11V3.99609H6.48242Z" fill="currentColor"/>
</svg>
