<svg viewBox="0 0 32 32" fill="none" xmlns="http://www.w3.org/2000/svg">
<path d="M16.1279 21.4268C16.7582 21.4909 17.251 22.0228 17.251 22.6699C17.2507 23.3169 16.758 23.849 16.1279 23.9131L16.001 23.9199H9.33106C8.64086 23.9199 8.08132 23.3601 8.08106 22.6699C8.08106 21.9796 8.6407 21.4199 9.33106 21.4199H16.001L16.1279 21.4268Z" fill="currentColor"/>
<path d="M23.3555 2.74609C25.057 2.74594 26.5948 3.75975 27.2637 5.32422L28.7305 8.74316L28.7324 8.74707L28.8555 9.05762C29.1216 9.78503 29.2569 10.5548 29.2549 11.3311V25.3369C29.2548 27.5006 27.5005 29.2548 25.3369 29.2549H6.99609C4.64837 29.2547 2.7452 27.3516 2.74512 25.0039V11.3311C2.74476 10.4415 2.92497 9.56077 3.27539 8.74316L4.73438 5.32617L4.87012 5.03906C5.59622 3.63756 7.04766 2.74586 8.64356 2.74609H23.3555ZM6.66309 11.9141C5.88019 11.9141 5.24532 12.5492 5.24512 13.332V25.0039C5.2452 25.9709 6.02909 26.7547 6.99609 26.7549H25.3369C26.1199 26.7548 26.7548 26.1198 26.7549 25.3369V13.332C26.7547 12.5492 26.1198 11.9141 25.3369 11.9141H16.0186C16.0124 11.9142 16.0062 11.915 16 11.915C15.9938 11.915 15.9876 11.9142 15.9814 11.9141H6.66309ZM17.25 9.41406H25.3369C25.6896 9.41407 26.0313 9.46142 26.3564 9.54883L24.9668 6.31055L24.9658 6.30762C24.7078 5.70332 24.1344 5.29828 23.4863 5.25L23.3555 5.24512H17.25V9.41406ZM8.64356 5.24512C7.98633 5.24494 7.38786 5.61227 7.08887 6.18945L7.0332 6.30762L5.65039 9.54688C5.97342 9.46068 6.31291 9.41406 6.66309 9.41406H14.75V5.24512H8.64356Z" fill="currentColor"/>
</svg>
