<svg viewBox="0 0 16 16" fill="none" xmlns="http://www.w3.org/2000/svg">
<path d="M8.07617 10.5889C8.45449 10.6272 8.75 10.9465 8.75 11.335C8.74988 11.7233 8.45441 12.0428 8.07617 12.0811L8 12.085H4.66504C4.25102 12.0848 3.91517 11.749 3.91504 11.335C3.91504 10.9208 4.25094 10.5851 4.66504 10.585H8L8.07617 10.5889Z" fill="currentColor"/>
<path d="M11.8447 1.25293C12.6781 1.3148 13.4151 1.83639 13.7471 2.61328L14.4795 4.32129L14.4814 4.32422L14.5449 4.48535C14.683 4.86269 14.7529 5.26237 14.752 5.66504V12.668C14.752 13.8189 13.8189 14.752 12.668 14.752H3.49805C2.25523 14.7518 1.24707 13.7438 1.24707 12.501V5.66504C1.24694 5.20353 1.34068 4.74647 1.52246 4.32227L2.25195 2.61328L2.32324 2.46191C2.70753 1.71987 3.47643 1.24709 4.32129 1.24707H11.6768L11.8447 1.25293ZM3.33105 6.08203C3.00879 6.08223 2.74714 6.34372 2.74707 6.66602V12.501C2.74707 12.9154 3.08366 13.2518 3.49805 13.252H12.668C12.9905 13.252 13.252 12.9904 13.252 12.668V6.66602C13.2519 6.3436 12.9904 6.08203 12.668 6.08203H3.33105ZM4.32129 2.74707C4.05865 2.74713 3.81769 2.88436 3.68262 3.10352L3.63086 3.20215L3.03125 4.60547C3.12923 4.59132 3.22916 4.58205 3.33105 4.58203H7.25V2.74707H4.32129ZM8.75 4.58203H12.668C12.7704 4.58203 12.8712 4.59119 12.9697 4.60547L12.3682 3.2041L12.3672 3.20215C12.2491 2.92641 11.9777 2.74716 11.6777 2.74707H8.75V4.58203Z" fill="currentColor"/>
</svg>
