<svg viewBox="0 0 16 16" fill="none" xmlns="http://www.w3.org/2000/svg">
<path d="M12.0045 3.48145C12.0045 3.07766 11.6778 2.75 11.2753 2.75H4.72473C4.32216 2.75 3.99549 3.07766 3.99549 3.48145V12.5186C3.99549 12.9223 4.32216 13.25 4.72473 13.25H11.2753C11.6778 13.25 12.0045 12.9223 12.0045 12.5186V3.48145ZM9.329 10.4834C9.74196 10.4834 10.0767 10.8192 10.0767 11.2334C10.0767 11.6476 9.74196 11.9834 9.329 11.9834H6.671C6.25804 11.9834 5.92327 11.6476 5.92326 11.2334C5.92326 10.8192 6.25804 10.4834 6.671 10.4834H9.329ZM9.07975 6.66699C9.07975 6.06627 8.59891 5.58301 8 5.58301C7.40112 5.58304 6.92025 6.06629 6.92025 6.66699C6.92042 7.26754 7.40123 7.74997 8 7.75C8.5988 7.75 9.07958 7.26756 9.07975 6.66699ZM10.5752 6.66699C10.5751 8.09599 9.42474 9.25 8 9.25C6.57529 9.24997 5.42494 8.09597 5.42477 6.66699C5.42477 5.23787 6.57518 4.08304 8 4.08301C9.42485 4.08301 10.5752 5.23785 10.5752 6.66699ZM13.5 12.5186C13.5 13.7508 12.5038 14.75 11.2753 14.75H4.72473C3.49623 14.75 2.5 13.7508 2.5 12.5186V3.48145C2.5 2.24923 3.49622 1.25 4.72473 1.25H11.2753C12.5038 1.25 13.5 2.24923 13.5 3.48145V12.5186Z" fill="currentColor"/>
</svg>
