<svg viewBox="0 0 24 24" fill="none" xmlns="http://www.w3.org/2000/svg">
<path d="M18 5.22168C17.9998 4.54722 17.4528 4.00017 16.7783 4H7.22168C6.54722 4.00017 6.00017 4.54722 6 5.22168V18.7783C6.00017 19.4528 6.54722 19.9998 7.22168 20H16.7783C17.4528 19.9998 17.9998 19.4528 18 18.7783V5.22168ZM14 16C14.5523 16 15 16.4477 15 17C15 17.5523 14.5523 18 14 18H10C9.44772 18 9 17.5523 9 17C9 16.4477 9.44772 16 10 16H14ZM13.75 10C13.75 9.02988 12.9701 8.25 12 8.25C11.0299 8.25 10.25 9.02988 10.25 10C10.25 10.9701 11.0299 11.75 12 11.75C12.9701 11.75 13.75 10.9701 13.75 10ZM15.75 10C15.75 12.0747 14.0747 13.75 12 13.75C9.92531 13.75 8.25 12.0747 8.25 10C8.25 7.92531 9.92531 6.25 12 6.25C14.0747 6.25 15.75 7.92531 15.75 10ZM20 18.7783C19.9998 20.5574 18.5574 21.9998 16.7783 22H7.22168C5.44265 21.9998 4.00017 20.5574 4 18.7783V5.22168C4.00017 3.44265 5.44265 2.00017 7.22168 2H16.7783C18.5574 2.00017 19.9998 3.44265 20 5.22168V18.7783Z" fill="currentColor"/>
</svg>
