<svg viewBox="0 0 32 32" fill="none" xmlns="http://www.w3.org/2000/svg">
<path d="M24.0088 6.96289C24.0088 6.15532 23.3554 5.5 22.5503 5.5H9.44922C8.64407 5.5 7.99073 6.15532 7.99073 6.96289V25.0371C7.99073 25.8447 8.64407 26.5 9.44922 26.5H22.5503C23.3554 26.5 24.0088 25.8447 24.0088 25.0371V6.96289ZM18.6587 21.0664C19.4845 21.0666 20.1541 21.7382 20.1542 22.5664C20.1542 23.3947 19.4845 24.0663 18.6587 24.0664H13.3408C12.515 24.0662 11.8453 23.3947 11.8453 22.5664C11.8454 21.7382 12.5151 21.0666 13.3408 21.0664H18.6587ZM18.1602 13.333C18.1601 12.1317 17.1975 11.167 15.9998 11.167C14.8021 11.1671 13.8395 12.1318 13.8393 13.333C13.8393 14.5344 14.802 15.4999 15.9998 15.5C17.1976 15.5 18.1602 14.5344 18.1602 13.333ZM21.1512 13.333C21.1512 16.1913 18.8494 18.5 15.9998 18.5C13.1501 18.4999 10.8483 16.1913 10.8483 13.333C10.8485 10.4749 13.1502 8.16706 15.9998 8.16699C18.8493 8.16699 21.151 10.4749 21.1512 13.333ZM26.9998 25.0371C26.9998 27.5015 25.0073 29.5 22.5503 29.5H9.44922C6.99221 29.5 4.99976 27.5015 4.99976 25.0371V6.96289C4.99976 4.49846 6.99221 2.5 9.44922 2.5H22.5503C25.0073 2.5 26.9998 4.49846 26.9998 6.96289V25.0371Z" fill="currentColor"/>
</svg>
