<svg viewBox="0 0 24 24" fill="none" xmlns="http://www.w3.org/2000/svg">
<path d="M11.9999 10.6252C14.2094 10.6253 16.0016 12.4166 16.0019 14.6262C16.0019 15.7309 15.1056 16.627 14.0009 16.6271H9.99893C8.89432 16.6269 7.99893 15.7308 7.99893 14.6262C7.99919 12.4166 9.79036 10.6253 11.9999 10.6252ZM11.9999 12.6252C10.8949 12.6253 9.99919 13.5212 9.99893 14.6262L14.0009 14.6271L14.0019 14.6262C14.0016 13.5212 13.1049 12.6253 11.9999 12.6252Z" fill="currentColor"/>
<path d="M9.0126 8.37518C9.29662 8.37801 9.57027 8.47736 9.78897 8.65545L9.88174 8.73846L9.96572 8.83026C10.1486 9.05289 10.2491 9.33361 10.2489 9.6242L10.2431 9.75213C10.1792 10.3819 9.64751 10.8733 9.00088 10.8742C8.35431 10.8748 7.82116 10.3847 7.75576 9.75506L7.74893 9.62811C7.74725 8.95896 8.27235 8.41263 8.9335 8.37811C8.95211 8.37692 8.97126 8.37439 8.99014 8.3742L8.99209 8.37518L8.99404 8.3742L9.0126 8.37518Z" fill="currentColor"/>
<path d="M15.0155 8.37518C15.2996 8.37801 15.5732 8.47724 15.7919 8.65545L15.8847 8.73846L15.9687 8.83026C16.1515 9.05289 16.252 9.33361 16.2519 9.6242L16.246 9.75213C16.1821 10.3819 15.6504 10.8733 15.0038 10.8742C14.3142 10.8751 13.7539 10.3177 13.7519 9.62811C13.7502 8.95884 14.2751 8.41245 14.9364 8.37811C14.9552 8.37691 14.9741 8.37436 14.9931 8.3742L14.995 8.37518L14.997 8.3742L15.0155 8.37518Z" fill="currentColor"/>
<path d="M12.0146 7.37518C12.2986 7.37807 12.5722 7.47722 12.7909 7.65545L12.8837 7.73846L12.9677 7.83026C13.1504 8.05289 13.2511 8.33367 13.2509 8.6242L13.245 8.75213C13.181 9.3817 12.6493 9.87316 12.0028 9.8742C11.3133 9.87512 10.7531 9.31757 10.7509 8.62811C10.7491 7.95872 11.274 7.41241 11.9354 7.37811C11.9541 7.3769 11.9731 7.37435 11.9921 7.3742L11.994 7.37518L11.996 7.3742L12.0146 7.37518Z" fill="currentColor"/>
<path d="M9.92764 2.70233C11.1504 1.76815 12.8461 1.76884 14.0692 2.70233L14.0702 2.70135L15.4247 3.73065L17.1142 3.95623L17.3974 4.00604C18.7889 4.31178 19.8568 5.45849 20.0468 6.8908L20.2694 8.57244L21.3075 9.92498L21.3085 9.92694L21.4726 10.1623C22.2387 11.361 22.1842 12.9239 21.3085 14.0705L21.3036 14.0773C21.0057 14.4606 20.7065 14.8489 20.4823 15.1418C20.4002 15.249 20.3277 15.3437 20.2694 15.4201L20.0448 17.1105C19.8407 18.638 18.6379 19.8405 17.1103 20.0431L15.4247 20.2658L14.0722 21.299C12.8487 22.234 11.1501 22.2342 9.92666 21.299L9.92471 21.298L8.58291 20.2668L6.89541 20.0431C5.46329 19.8518 4.31707 18.7825 4.0126 17.3908L3.96279 17.1086L3.73916 15.426L2.70205 14.0744L2.70303 14.0734C1.76594 12.8534 1.76054 11.1574 2.69033 9.93182L2.69717 9.92205L3.51846 8.8576C3.60058 8.75029 3.67203 8.6548 3.73037 8.5783L3.95596 6.88885L4.00576 6.60565C4.31153 5.21435 5.45843 4.14634 6.89053 3.95623L8.57412 3.7326L9.92764 2.70233ZM12.8573 4.29119C12.3509 3.9044 11.6479 3.90435 11.1415 4.29119L11.1396 4.29217L9.5751 5.48553C9.43677 5.59074 9.27278 5.658 9.10049 5.68084L7.1542 5.93963C6.56144 6.01857 6.0853 6.4603 5.95889 7.03631L5.93838 7.15252L5.67861 9.10565C5.6614 9.23444 5.61975 9.35884 5.55557 9.47088L5.4833 9.5783L5.48232 9.58123C5.48106 9.58278 5.47856 9.58531 5.47647 9.58807C5.47185 9.59412 5.4645 9.60321 5.45596 9.61444C5.43826 9.63771 5.41245 9.67215 5.37979 9.71502C5.31379 9.80163 5.21921 9.92594 5.10635 10.0734C4.88222 10.3663 4.58177 10.7542 4.28213 11.1398L4.28311 11.1408C3.92245 11.6166 3.90196 12.2639 4.22061 12.759L4.28897 12.8556L5.49014 14.4211L5.5624 14.5305C5.62758 14.6435 5.67014 14.7685 5.6874 14.8986L5.94619 16.8459L5.9667 16.9621C6.09266 17.5383 6.56719 17.9814 7.16006 18.0607L9.11221 18.3205L9.24014 18.3459C9.36613 18.3798 9.48458 18.4388 9.58877 18.5187L11.1415 19.7101L11.2382 19.7775C11.7345 20.0953 12.3823 20.0728 12.8573 19.7101L12.8583 19.7092L14.4228 18.5148L14.5312 18.4426C14.6437 18.3779 14.7688 18.3358 14.8983 18.3185L16.8476 18.0607L16.9638 18.0402C17.54 17.9143 17.983 17.4397 18.0624 16.8469L18.3222 14.8937L18.3476 14.7668C18.381 14.6423 18.4391 14.5244 18.5175 14.4211L18.5185 14.4191C18.5196 14.4177 18.5222 14.415 18.5243 14.4123C18.5289 14.4063 18.5361 14.3964 18.5448 14.3849C18.5625 14.3617 18.5883 14.3273 18.621 14.2844C18.6869 14.1979 18.7816 14.0744 18.8944 13.9269C19.1203 13.6318 19.4224 13.2385 19.7245 12.8498C20.1057 12.3445 20.1043 11.6467 19.7206 11.1428L18.5204 9.5783C18.4138 9.43936 18.3452 9.27436 18.3222 9.10076L18.0644 7.15448C17.9858 6.56128 17.543 6.08663 16.9667 5.96014L16.8505 5.93866L14.8974 5.67889C14.7684 5.66163 14.6443 5.6192 14.5321 5.55487L14.4237 5.48358L12.8593 4.29315L12.8573 4.29119Z" fill="currentColor"/>
</svg>
