<svg viewBox="0 0 16 16" fill="none" xmlns="http://www.w3.org/2000/svg">
<path d="M8.6665 3.33333C8.6665 2.14877 9.46884 1 10.6665 1C11.8642 1 12.6665 2.14877 12.6665 3.33333C12.6665 4.51789 11.8642 5.66667 10.6665 5.66667C9.46884 5.66667 8.6665 4.51789 8.6665 3.33333Z" fill="currentColor"/>
<path d="M1.99992 5.3335C0.970165 5.3335 0.333252 6.35451 0.333252 7.3335C0.333252 8.3125 0.970165 9.3335 1.99992 9.3335C3.02967 9.3335 3.66658 8.3125 3.66658 7.3335C3.66658 6.35451 3.02967 5.3335 1.99992 5.3335Z" fill="currentColor"/>
<path d="M12.3333 7.3335C12.3333 6.35451 12.9702 5.3335 13.9999 5.3335C15.0297 5.3335 15.6666 6.35451 15.6666 7.3335C15.6666 8.3125 15.0297 9.3335 13.9999 9.3335C12.9702 9.3335 12.3333 8.3125 12.3333 7.3335Z" fill="currentColor"/>
<path d="M6.07928 7.27997C6.67397 6.9165 7.3365 6.6665 7.99984 6.6665C8.66317 6.6665 9.3257 6.9165 9.92037 7.27997C10.5209 7.6469 11.0936 8.15424 11.5894 8.73264C12.5656 9.8717 13.3332 11.3953 13.3332 12.8332C13.3332 13.5158 13.0368 14.1575 12.5312 14.621C12.0276 15.0826 11.3559 15.3332 10.6665 15.3332C9.8613 15.3332 9.42624 15.137 9.05537 14.967L9.04404 14.9618C8.75371 14.8287 8.52099 14.722 7.99984 14.722C7.47868 14.722 7.24626 14.8286 6.95593 14.9616L6.9443 14.967C6.57342 15.137 6.13838 15.3332 5.33317 15.3332C4.64374 15.3332 3.97213 15.0826 3.46848 14.621C2.96288 14.1575 2.6665 13.5158 2.6665 12.8332C2.6665 11.3953 3.434 9.8717 4.41033 8.73264C4.90612 8.15424 5.4788 7.6469 6.07928 7.27997Z" fill="currentColor"/>
<path d="M5.33325 1C4.13556 1 3.33325 2.14877 3.33325 3.33333C3.33325 4.51789 4.13556 5.66667 5.33325 5.66667C6.53095 5.66667 7.33325 4.51789 7.33325 3.33333C7.33325 2.14877 6.53095 1 5.33325 1Z" fill="currentColor"/>
</svg>
