<svg viewBox="0 0 16 16" fill="none" xmlns="http://www.w3.org/2000/svg">
<path d="M7.99991 7.00053C9.51909 7.00061 10.7509 8.23231 10.7509 9.7515C10.7506 10.5338 10.1162 11.1684 9.33389 11.1685H6.66593C5.88364 11.1684 5.24921 10.5338 5.24893 9.7515C5.24893 8.23234 6.48077 7.00065 7.99991 7.00053ZM7.99991 8.50053C7.33709 8.50065 6.79654 9.01645 6.75382 9.6685H9.246C9.20329 9.01642 8.66278 8.5006 7.99991 8.50053Z" fill="currentColor"/>
<path d="M6.07218 5.50346C6.0734 5.50358 6.07486 5.50424 6.07608 5.50443C6.26039 5.51979 6.43578 5.58976 6.57901 5.70658L6.6464 5.76713L6.70792 5.83451C6.84209 5.99776 6.91598 6.20343 6.91593 6.41654L6.91104 6.51029C6.86416 6.97202 6.47496 7.33277 6.00089 7.33354C5.527 7.33399 5.1361 6.97461 5.0878 6.51322L5.08292 6.41947C5.08165 5.94171 5.44633 5.54929 5.913 5.50541C5.93907 5.50244 5.96625 5.50076 5.99307 5.50053L5.99405 5.5015L5.996 5.50053L6.07218 5.50346Z" fill="currentColor"/>
<path d="M10.0741 5.50346C10.0754 5.50358 10.0767 5.50428 10.078 5.50443C10.2624 5.51979 10.4377 5.58974 10.581 5.70658L10.6483 5.76713L10.7099 5.83451C10.844 5.99774 10.9179 6.20348 10.9179 6.41654L10.913 6.51029C10.8661 6.97204 10.4769 7.33277 10.0028 7.33354C9.49719 7.33415 9.08643 6.92508 9.08487 6.41947C9.0836 5.94163 9.44817 5.54918 9.91495 5.50541C9.9411 5.50243 9.96812 5.50075 9.99503 5.50053L9.996 5.5015L9.99796 5.50053L10.0741 5.50346Z" fill="currentColor"/>
<path d="M8.07315 4.83647C8.07442 4.83659 8.0758 4.83727 8.07706 4.83744C8.26138 4.8528 8.43676 4.92275 8.57999 5.03959L8.64737 5.10014L8.7089 5.16752C8.84304 5.33076 8.91695 5.53646 8.9169 5.74955L8.91202 5.8433C8.86514 6.30504 8.47594 6.66578 8.00186 6.66654C7.49627 6.66709 7.08545 6.25805 7.0839 5.75248C7.08262 5.27468 7.44725 4.88224 7.91397 4.83842C7.94009 4.83545 7.96718 4.83376 7.99405 4.83354L7.99503 4.83451L7.99698 4.83354L8.07315 4.83647Z" fill="currentColor"/>
<path d="M6.56827 1.7349C7.41329 1.08947 8.58535 1.08986 9.43057 1.7349L9.43155 1.73393L10.3163 2.40775L11.4208 2.55522L11.6171 2.5894C12.5785 2.8009 13.317 3.59376 13.4482 4.58354L13.5927 5.68119L14.2714 6.56596L14.2724 6.56693L14.3857 6.72904C14.9155 7.55741 14.8775 8.63766 14.2724 9.43022L14.2685 9.43608C14.0701 9.69127 13.8709 9.94993 13.7216 10.1451C13.6731 10.2085 13.6299 10.2655 13.5937 10.313L13.4462 11.4185C13.314 12.4082 12.575 13.1993 11.6132 13.4097L11.4179 13.4449L10.3163 13.5904L9.43253 14.2652C8.58693 14.9115 7.41286 14.9116 6.56729 14.2652L6.56632 14.2642L5.68936 13.5904L4.58682 13.4439C3.59731 13.3116 2.80514 12.5734 2.59464 11.6119L2.56046 11.4165L2.41397 10.3169L1.73722 9.43315L1.73624 9.43412C1.08817 8.59097 1.08477 7.41805 1.72745 6.57084L1.73331 6.564L2.28018 5.85404C2.32892 5.79036 2.37175 5.73275 2.40811 5.6851L2.55557 4.58158L2.58975 4.38627C2.80096 3.42434 3.59376 2.6864 4.5839 2.55522L5.6835 2.40775L6.56827 1.7349ZM8.5214 2.92729C8.21362 2.69205 7.78623 2.69211 7.47843 2.92729L6.43448 3.72318C6.35683 3.7823 6.26837 3.82592 6.17472 3.85111L6.07901 3.86967L4.78116 4.04154C4.39698 4.09264 4.09325 4.39565 4.0419 4.77983L3.86905 6.08158C3.85614 6.17809 3.82436 6.27105 3.77628 6.35502L3.72257 6.43608L3.72159 6.43705C3.72082 6.43806 3.71917 6.43999 3.71768 6.44193C3.71463 6.44595 3.70979 6.45192 3.70401 6.45951C3.69221 6.47503 3.67514 6.49814 3.65323 6.5269C3.60923 6.58465 3.54594 6.66772 3.47061 6.76615C3.32139 6.96114 3.12137 7.21927 2.92179 7.47611L2.92276 7.47709C2.68869 7.78553 2.68973 8.21307 2.92569 8.52006L3.72647 9.56303L3.78116 9.64506C3.83003 9.72978 3.86196 9.82384 3.87491 9.92143L4.04679 11.2193L4.07804 11.3589C4.17525 11.6751 4.44869 11.9127 4.78507 11.9576L6.08682 12.1304L6.18253 12.1499C6.27695 12.1754 6.36617 12.2199 6.44425 12.2798L7.47843 13.0738L7.59952 13.1509C7.89156 13.3051 8.25219 13.2794 8.5214 13.0738L8.52237 13.0728L9.56534 12.2769L9.64639 12.2232C9.73092 12.1746 9.82451 12.1423 9.92179 12.1294L11.2206 11.9576L11.3612 11.9273C11.6771 11.83 11.9149 11.5563 11.9599 11.2203L12.1327 9.9185L12.1523 9.82279C12.1774 9.72934 12.2203 9.64057 12.2792 9.56303L12.2802 9.56205C12.281 9.56098 12.2826 9.55907 12.2841 9.55717C12.2872 9.55312 12.292 9.5471 12.2978 9.53959C12.3096 9.52403 12.3267 9.50091 12.3485 9.47221C12.3926 9.41444 12.4559 9.33229 12.5312 9.23393C12.6809 9.03826 12.8806 8.77787 13.081 8.52006C13.3155 8.21253 13.3155 7.78559 13.081 7.47807L12.2812 6.43608C12.2012 6.33182 12.15 6.20795 12.1327 6.07768L11.9608 4.77983C11.9098 4.39561 11.6067 4.09293 11.2226 4.04154L9.92179 3.86869C9.79284 3.85152 9.66988 3.80091 9.56632 3.72221L8.52335 2.92826L8.5214 2.92729Z" fill="currentColor"/>
</svg>
