<svg viewBox="0 0 32 32" fill="none" xmlns="http://www.w3.org/2000/svg">
<path d="M16 14.2493C18.9002 14.2494 21.2508 16.6011 21.251 19.5012C21.2508 20.928 20.0947 22.085 18.668 22.0852H13.332C11.9052 22.0851 10.7482 20.9281 10.748 19.5012C10.7482 16.6011 13.0998 14.2494 16 14.2493ZM16 16.7493C14.4805 16.7494 13.2482 17.9818 13.248 19.5012C13.2482 19.5473 13.2859 19.5851 13.332 19.5852H18.668C18.714 19.585 18.7508 19.5473 18.751 19.5012C18.7508 17.9818 17.5195 16.7494 16 16.7493Z" fill="currentColor"/>
<path d="M12.0635 11.2512C12.4067 11.2648 12.7359 11.3876 13.001 11.6038L13.1182 11.7092L13.2236 11.8255C13.4555 12.1076 13.5833 12.463 13.583 12.8313L13.5752 12.9934C13.4941 13.7909 12.8208 14.4131 12.0019 14.4143C11.1829 14.4154 10.5079 13.7948 10.4248 12.9973L10.416 12.8352C10.4141 12.0077 11.048 11.3284 11.8574 11.2561C11.8689 11.2549 11.881 11.2551 11.8926 11.2542C11.9258 11.2519 11.9594 11.2475 11.9932 11.2473L12.0635 11.2512Z" fill="currentColor"/>
<path d="M20.0664 11.2512C20.4097 11.2647 20.7388 11.3877 21.0039 11.6038L21.1211 11.7092L21.2266 11.8255C21.4584 12.1076 21.5862 12.463 21.5859 12.8313L21.5781 12.9934C21.497 13.791 20.8239 14.4132 20.0049 14.4143C19.1313 14.4154 18.4213 13.7088 18.4189 12.8352C18.417 12.0078 19.051 11.3285 19.8603 11.2561C19.8719 11.2548 19.8838 11.2551 19.8955 11.2542C19.9288 11.2519 19.9623 11.2475 19.9961 11.2473L20.0664 11.2512Z" fill="currentColor"/>
<path d="M16.0644 9.91726C16.4077 9.93076 16.7368 10.0537 17.0019 10.2698L17.1191 10.3753L17.2246 10.4915C17.4565 10.7736 17.5842 11.129 17.584 11.4973L17.5762 11.6594C17.495 12.457 16.8219 13.0793 16.0029 13.0803C15.1294 13.0813 14.4193 12.3748 14.417 11.5012C14.4151 10.6738 15.0491 9.99458 15.8584 9.92214C15.8699 9.92084 15.8819 9.92115 15.8935 9.92019C15.9268 9.91796 15.9604 9.91352 15.9941 9.91335L16.0644 9.91726Z" fill="currentColor"/>
<path d="M13.2861 3.66823C14.8877 2.44387 17.1113 2.44398 18.7129 3.66823L18.7119 3.66921L20.5332 5.053L22.8086 5.35671L22.9951 5.38601C24.9059 5.72287 26.3898 7.26084 26.6465 9.19851L26.9473 11.4632L28.3437 13.2835L28.3457 13.2854L28.457 13.4378C29.5672 15.0249 29.53 17.1575 28.3457 18.7083L28.3389 18.7171C27.9414 19.2284 27.5431 19.7473 27.2441 20.138C27.1283 20.2893 27.0273 20.4217 26.9473 20.5266L26.6435 22.802C26.3847 24.7389 24.8998 26.2764 22.9893 26.6116L22.8027 26.6399L20.5332 26.9407L18.7119 28.3303L18.7129 28.3313C17.1113 29.5554 14.8876 29.5556 13.2861 28.3313L13.2842 28.3294L11.4766 26.9417L9.20507 26.6399C7.26774 26.3812 5.73047 24.8957 5.3955 22.9846L5.36718 22.7991L5.0664 20.5344L3.66992 18.7132L3.67089 18.7122C2.44424 17.1152 2.43701 14.8955 3.65429 13.2913L3.6621 13.2796L4.75781 11.8596C4.87368 11.7082 4.97363 11.575 5.0537 11.47L5.35839 9.1946L5.38671 9.00808C5.72359 7.09753 7.26178 5.61359 9.19921 5.35671L11.4639 5.05593L13.2861 3.66823ZM17.1943 5.65456C16.489 5.11552 15.5099 5.11541 14.8047 5.65456L14.8027 5.65554L12.7168 7.24636C12.544 7.37792 12.3393 7.46186 12.124 7.4905L9.52734 7.83523C8.70173 7.9449 8.04031 8.56037 7.86425 9.36257L7.83593 9.52468L7.48925 12.1282C7.46779 12.2891 7.4151 12.4442 7.33495 12.5842L7.24609 12.719L7.24511 12.72C7.24468 12.7206 7.24384 12.722 7.24316 12.7229C7.2416 12.725 7.23913 12.728 7.23632 12.7317C7.23017 12.7398 7.22068 12.7525 7.20898 12.7678C7.18534 12.7989 7.15016 12.8443 7.10644 12.9016C7.01847 13.0171 6.89366 13.1825 6.74316 13.3792C6.44422 13.7698 6.04424 14.2876 5.64452 14.802L5.6455 14.803C5.14301 15.4655 5.11383 16.3665 5.55761 17.0559L5.65234 17.1907L5.65331 17.1917L7.2539 19.2776L7.34472 19.4143C7.42616 19.5555 7.47938 19.7117 7.50097 19.8743L7.8457 22.47L7.87402 22.6331C8.04944 23.4353 8.70976 24.052 9.53515 24.1624L12.1387 24.5091L12.2988 24.5413C12.4563 24.5837 12.6051 24.6562 12.7353 24.7561L14.8066 26.346C15.5117 26.8842 16.4894 26.8836 17.1943 26.345L17.1953 26.344L19.2812 24.7512L19.417 24.6614C19.5578 24.5805 19.7139 24.5276 19.876 24.5061L22.4746 24.1614L22.6367 24.1331C23.4391 23.9577 24.0557 23.2976 24.166 22.4719L24.5127 19.8684L24.5439 19.7092C24.5857 19.5536 24.6579 19.4068 24.7559 19.2776L24.7568 19.2766C24.7572 19.2761 24.7581 19.2747 24.7588 19.2737L24.793 19.2298C24.8166 19.1987 24.8507 19.1525 24.8945 19.095C24.9824 18.9797 25.1083 18.815 25.2588 18.6184C25.5599 18.225 25.9625 17.701 26.3652 17.1829C26.8969 16.4791 26.8952 15.5071 26.3603 14.805L24.7598 12.719C24.6265 12.5453 24.5415 12.3394 24.5127 12.1223L24.168 9.52663C24.0586 8.701 23.4436 8.03993 22.6416 7.86355L22.4785 7.83523L19.875 7.48855C19.6599 7.45986 19.4559 7.37481 19.2832 7.24343L17.1973 5.65652L17.1943 5.65456Z" fill="currentColor"/>
</svg>
