<svg viewBox="0 0 32 32" fill="none" xmlns="http://www.w3.org/2000/svg">
<path d="M17.333 6.66667C17.333 4.29755 18.9377 2 21.333 2C23.7283 2 25.333 4.29755 25.333 6.66667C25.333 9.03579 23.7283 11.3333 21.333 11.3333C18.9377 11.3333 17.333 9.03579 17.333 6.66667Z" fill="currentColor"/>
<path d="M3.99984 10.6665C1.94033 10.6665 0.666504 12.7085 0.666504 14.6665C0.666504 16.6245 1.94033 18.6665 3.99984 18.6665C6.05934 18.6665 7.33317 16.6245 7.33317 14.6665C7.33317 12.7085 6.05934 10.6665 3.99984 10.6665Z" fill="currentColor"/>
<path d="M24.6665 14.6665C24.6665 12.7085 25.9404 10.6665 27.9998 10.6665C30.0593 10.6665 31.3332 12.7085 31.3332 14.6665C31.3332 16.6245 30.0593 18.6665 27.9998 18.6665C25.9404 18.6665 24.6665 16.6245 24.6665 14.6665Z" fill="currentColor"/>
<path d="M12.1586 14.5604C13.3479 13.8335 14.673 13.3335 15.9997 13.3335C17.3263 13.3335 18.6514 13.8335 19.8407 14.5604C21.0418 15.2943 22.1871 16.309 23.1787 17.4658C25.1313 19.7439 26.6663 22.7911 26.6663 25.6668C26.6663 27.0322 26.0735 28.3155 25.0623 29.2424C24.0551 30.1658 22.7118 30.6668 21.333 30.6668C19.7226 30.6668 18.8525 30.2744 18.1107 29.9344L18.0881 29.924C17.5074 29.6579 17.042 29.4446 15.9997 29.4446C14.9574 29.4446 14.4925 29.6576 13.9119 29.9238L13.8886 29.9344C13.1468 30.2744 12.2768 30.6668 10.6663 30.6668C9.28749 30.6668 7.94426 30.1658 6.93695 29.2424C5.92575 28.3155 5.33301 27.0322 5.33301 25.6668C5.33301 22.7911 6.86801 19.7439 8.82066 17.4658C9.81225 16.309 10.9576 15.2943 12.1586 14.5604Z" fill="currentColor"/>
<path d="M10.6665 2C8.27112 2 6.6665 4.29755 6.6665 6.66667C6.6665 9.03579 8.27112 11.3333 10.6665 11.3333C13.0619 11.3333 14.6665 9.03579 14.6665 6.66667C14.6665 4.29755 13.0619 2 10.6665 2Z" fill="currentColor"/>
</svg>
