<svg viewBox="0 0 16 16" fill="none" xmlns="http://www.w3.org/2000/svg">
<path d="M8.91602 8.79395C9.25821 8.51021 9.75833 8.51449 10.0977 8.80762C10.1032 8.81222 10.1088 8.8175 10.1143 8.82227L10.1377 8.8418L10.1465 8.85059C10.1504 8.85443 10.1553 8.85832 10.1592 8.8623C10.5088 9.22384 10.5019 9.80035 10.1436 10.1533C9.78496 10.5062 9.20852 10.5038 8.85254 10.1484C8.49667 9.79256 8.49383 9.21623 8.84668 8.85742L8.91602 8.79395Z" fill="currentColor"/>
<path d="M9.01172 5.93164C9.3063 5.69136 9.74103 5.70881 10.0156 5.9834C10.2899 6.25801 10.3076 6.69284 10.0674 6.9873L10.0156 7.04395L7.04395 10.0156C6.75115 10.3082 6.27625 10.3081 5.9834 10.0156C5.69058 9.7228 5.69072 9.24799 5.9834 8.95508L8.95508 5.9834L9.01172 5.93164Z" fill="currentColor"/>
<path d="M5.92676 5.78516C6.2629 5.51492 6.74494 5.51649 7.0791 5.78906L7.14844 5.85254L7.21094 5.9209C7.5031 6.27884 7.48431 6.80722 7.15332 7.14355C6.80034 7.50183 6.22382 7.50881 5.8623 7.15918L5.85352 7.15039L5.85449 7.14941L5.85059 7.14648L5.84766 7.1416L5.8418 7.1377L5.8252 7.11816C5.81425 7.10607 5.803 7.09366 5.79297 7.08105C5.4944 6.71819 5.5167 6.18205 5.85742 5.84668L5.92676 5.78516Z" fill="currentColor"/>
<path d="M8 1.25C11.7279 1.25 14.75 4.27208 14.75 8C14.75 11.7279 11.7279 14.75 8 14.75C4.27208 14.75 1.25 11.7279 1.25 8C1.25 4.27208 4.27208 1.25 8 1.25ZM8 2.75C5.10051 2.75 2.75 5.10051 2.75 8C2.75 10.8995 5.10051 13.25 8 13.25C10.8995 13.25 13.25 10.8995 13.25 8C13.25 5.10051 10.8995 2.75 8 2.75Z" fill="currentColor"/>
</svg>
