<svg viewBox="0 0 32 32" fill="none" xmlns="http://www.w3.org/2000/svg">
<path d="M17.9902 17.7812C18.5807 17.2913 19.444 17.2969 20.0303 17.8018C20.0416 17.8111 20.0524 17.8213 20.0635 17.8311L20.1016 17.8633L20.123 17.8848L20.209 17.9795C20.2122 17.9834 20.2146 17.9882 20.2178 17.9922C20.7377 18.619 20.7003 19.5481 20.1104 20.1289C19.4906 20.7384 18.4946 20.7347 17.8799 20.1201C17.2654 19.5054 17.2617 18.5094 17.8711 17.8896L17.9902 17.7812Z" fill="currentColor"/>
<path d="M18.1816 12.0576C18.6726 11.6572 19.3969 11.6859 19.8545 12.1436C20.3118 12.6012 20.3408 13.3256 19.9404 13.8164L19.8545 13.9111L13.9111 19.8545C13.4231 20.3423 12.6317 20.3422 12.1436 19.8545C11.6555 19.3664 11.6556 18.5751 12.1436 18.0869L18.0869 12.1436L18.1816 12.0576Z" fill="currentColor"/>
<path d="M12.0098 11.7646C12.5905 11.2984 13.4231 11.3014 14 11.7725L14.1191 11.8809L14.2275 12.001C14.732 12.6192 14.6996 13.5305 14.1279 14.1113C13.539 14.7091 12.5925 14.7391 11.9658 14.1963C11.9548 14.1872 11.9443 14.1775 11.9336 14.168L11.8984 14.1377C11.8937 14.1331 11.8885 14.1287 11.8838 14.124L11.876 14.1162L11.8711 14.1094C11.8685 14.1068 11.8649 14.1051 11.8623 14.1025C11.845 14.0846 11.8298 14.0644 11.8135 14.0459C11.805 14.0361 11.7962 14.0266 11.7881 14.0166C11.2615 13.3899 11.2967 12.4553 11.8887 11.8721L12.0098 11.7646Z" fill="currentColor"/>
<path d="M16 2.75C23.3178 2.75 29.25 8.68223 29.25 16C29.25 23.3178 23.3178 29.25 16 29.25C8.68223 29.25 2.75 23.3178 2.75 16C2.75 8.68223 8.68223 2.75 16 2.75ZM16 5.25C10.0629 5.25 5.25 10.0629 5.25 16C5.25 21.9371 10.0629 26.75 16 26.75C21.9371 26.75 26.75 21.9371 26.75 16C26.75 10.0629 21.9371 5.25 16 5.25Z" fill="currentColor"/>
</svg>
