<svg viewBox="0 0 32 32" fill="none" xmlns="http://www.w3.org/2000/svg">
<path d="M1.3335 15.9997C1.3335 7.8995 7.89999 1.33301 16.0002 1.33301C24.1003 1.33301 30.6668 7.8995 30.6668 15.9997C30.6668 24.0998 24.1003 30.6663 16.0002 30.6663C7.89999 30.6663 1.3335 24.0998 1.3335 15.9997ZM7.3335 10.6663C7.3335 12.5073 8.82588 13.9997 10.6668 13.9997C12.5078 13.9997 14.0002 12.5073 14.0002 10.6663C14.0002 8.8254 12.5078 7.33301 10.6668 7.33301C8.82588 7.33301 7.3335 8.8254 7.3335 10.6663ZM21.3335 17.9997C19.4926 17.9997 18.0002 19.4921 18.0002 21.333C18.0002 23.1739 19.4926 24.6663 21.3335 24.6663C23.1744 24.6663 24.6668 23.1739 24.6668 21.333C24.6668 19.4921 23.1744 17.9997 21.3335 17.9997ZM23.8858 9.99967L22.0002 8.11406L8.11455 21.9997L10.0002 23.8853L23.8858 9.99967Z" fill="currentColor"/>
</svg>
