<svg viewBox="0 0 24 24" fill="none" xmlns="http://www.w3.org/2000/svg">
<path d="M13.4531 13.2871C13.9178 12.9016 14.5959 12.9059 15.0586 13.3008C15.0718 13.3115 15.0849 13.3225 15.0977 13.334L15.1191 13.3525L15.1309 13.3633L15.1367 13.3691L15.2051 13.4453C15.2073 13.448 15.2088 13.4514 15.2109 13.4541C15.6216 13.9489 15.5927 14.682 15.127 15.1406C14.6377 15.6221 13.8516 15.6192 13.3662 15.1338C12.8808 14.6484 12.8779 13.8623 13.3594 13.373L13.4531 13.2871Z" fill="currentColor"/>
<path d="M13.5967 8.99512C13.9894 8.67462 14.5684 8.69748 14.9346 9.06348C15.3003 9.42952 15.3239 10.0087 15.0039 10.4014L14.9346 10.4775L10.4775 14.9346C10.0871 15.3248 9.45396 15.3247 9.06348 14.9346C8.67321 14.5441 8.6732 13.911 9.06348 13.5205L13.5205 9.06348L13.5967 8.99512Z" fill="currentColor"/>
<path d="M8.96875 8.77441C9.42709 8.40649 10.0836 8.40879 10.5391 8.78027L10.6338 8.86621L10.7197 8.96094C11.1178 9.44903 11.0919 10.1684 10.6406 10.627C10.1779 11.0969 9.43627 11.1216 8.94141 10.6992C8.92819 10.6885 8.91512 10.6775 8.90234 10.666L8.88086 10.6475C8.87706 10.6438 8.87288 10.6405 8.86914 10.6367L8.86328 10.6309L8.79492 10.5547C8.7927 10.552 8.79125 10.5486 8.78906 10.5459C8.37836 10.0511 8.40727 9.318 8.87305 8.85938L8.96875 8.77441Z" fill="currentColor"/>
<path d="M12 2C17.5228 2 22 6.47715 22 12C22 17.5228 17.5228 22 12 22C6.47715 22 2 17.5228 2 12C2 6.47715 6.47715 2 12 2ZM12 4C7.58172 4 4 7.58172 4 12C4 16.4183 7.58172 20 12 20C16.4183 20 20 16.4183 20 12C20 7.58172 16.4183 4 12 4Z" fill="currentColor"/>
</svg>
