<svg viewBox="0 0 16 16" fill="none" xmlns="http://www.w3.org/2000/svg">
<path d="M0.666748 8.00033C0.666748 3.95024 3.94999 0.666992 8.00008 0.666992C12.0501 0.666992 15.3334 3.95024 15.3334 8.00033C15.3334 12.0504 12.0501 15.3337 8.00008 15.3337C3.94999 15.3337 0.666748 12.0504 0.666748 8.00033ZM3.66675 5.33366C3.66675 6.25413 4.41294 7.00033 5.33342 7.00033C6.25389 7.00033 7.00008 6.25413 7.00008 5.33366C7.00008 4.41319 6.25389 3.66699 5.33342 3.66699C4.41294 3.66699 3.66675 4.41319 3.66675 5.33366ZM10.6667 9.00033C9.74628 9.00033 9.00008 9.74653 9.00008 10.667C9.00008 11.5875 9.74628 12.3337 10.6667 12.3337C11.5872 12.3337 12.3334 11.5875 12.3334 10.667C12.3334 9.74653 11.5872 9.00033 10.6667 9.00033ZM11.9429 5.00033L11.0001 4.05752L4.05727 11.0003L5.00008 11.9431L11.9429 5.00033Z" fill="currentColor"/>
</svg>
