<svg viewBox="0 0 32 32" fill="none" xmlns="http://www.w3.org/2000/svg">
<path d="M16 5.5C16.8284 5.5 17.5 6.17157 17.5 7V14.5L25 14.5C25.8284 14.5 26.5 15.1716 26.5 16C26.5 16.8284 25.8284 17.5 25 17.5L17.5 17.5V25C17.5 25.8284 16.8284 26.5 16 26.5C15.1716 26.5 14.5 25.8284 14.5 25V17.5L7 17.5C6.17157 17.5 5.5 16.8284 5.5 16C5.5 15.1716 6.17157 14.5 7 14.5L14.5 14.5V7C14.5 6.17157 15.1716 5.5 16 5.5Z" fill="currentColor"/>
<path d="M25.3333 9.33268C25.3333 10.8054 24.1394 11.9993 22.6667 11.9993C21.1939 11.9993 20 10.8054 20 9.33268C20 7.85992 21.1939 6.66602 22.6667 6.66602C24.1394 6.66602 25.3333 7.85992 25.3333 9.33268Z" fill="currentColor"/>
</svg>
