<svg viewBox="0 0 24 24" fill="none" xmlns="http://www.w3.org/2000/svg">
<path d="M12 4C12.5523 4 13 4.44772 13 5V11L19 11C19.5523 11 20 11.4477 20 12C20 12.5523 19.5523 13 19 13H13V19C13 19.5523 12.5523 20 12 20C11.4477 20 11 19.5523 11 19L11 13H5C4.44772 13 4 12.5523 4 12C4 11.4477 4.44772 11 5 11L11 11V5C11 4.44772 11.4477 4 12 4Z" fill="currentColor"/>
<path d="M19 6.99951C19 8.10408 18.1046 8.99951 17 8.99951C15.8954 8.99951 15 8.10408 15 6.99951C15 5.89494 15.8954 4.99951 17 4.99951C18.1046 4.99951 19 5.89494 19 6.99951Z" fill="currentColor"/>
</svg>
