<svg viewBox="0 0 16 16" fill="none" xmlns="http://www.w3.org/2000/svg">
<path d="M8.66659 12C8.66659 12.3682 8.36811 12.6666 7.99992 12.6666C7.63173 12.6666 7.33325 12.3682 7.33325 12C7.33325 11.6318 7.63173 11.3333 7.99992 11.3333C8.36811 11.3333 8.66659 11.6318 8.66659 12Z" fill="currentColor"/>
<path d="M4 0H12C12.5304 0 13.0391 0.210714 13.4142 0.585786C13.7893 0.960859 14 1.46957 14 2V14C14 14.5304 13.7893 15.0391 13.4142 15.4142C13.0391 15.7893 12.5304 16 12 16H4C3.46957 16 2.96086 15.7893 2.58579 15.4142C2.21071 15.0391 2 14.5304 2 14V2C2 1.46957 2.21071 0.960859 2.58579 0.585786C2.96086 0.210714 3.46957 0 4 0ZM12.4714 13.8047C12.5964 13.6797 12.6667 13.5101 12.6667 13.3333V2.66667C12.6667 2.48986 12.5964 2.32029 12.4714 2.19526C12.3464 2.07024 12.1768 2 12 2H4C3.82319 2 3.65362 2.07024 3.5286 2.19526C3.40357 2.32029 3.33333 2.48986 3.33333 2.66667V13.3333C3.33333 13.5101 3.40357 13.6797 3.5286 13.8047C3.65362 13.9298 3.82319 14 4 14H12C12.1768 14 12.3464 13.9298 12.4714 13.8047Z" fill="currentColor"/>
</svg>
