<svg viewBox="0 0 32 32" fill="none" xmlns="http://www.w3.org/2000/svg">
<path d="M17.3334 24C17.3334 24.7363 16.7365 25.3333 16.0001 25.3333C15.2637 25.3333 14.6667 24.7363 14.6667 24C14.6667 23.2636 15.2637 22.6666 16.0001 22.6666C16.7365 22.6666 17.3334 23.2636 17.3334 24Z" fill="currentColor"/>
<path d="M8 0H24C25.0609 0 26.0783 0.421427 26.8284 1.17157C27.5786 1.92172 28 2.93913 28 4V28C28 29.0609 27.5786 30.0783 26.8284 30.8284C26.0783 31.5786 25.0609 32 24 32H8C6.93913 32 5.92172 31.5786 5.17157 30.8284C4.42143 30.0783 4 29.0609 4 28V4C4 2.93913 4.42143 1.92172 5.17157 1.17157C5.92172 0.421427 6.93913 0 8 0ZM24.9428 27.6095C25.1929 27.3594 25.3333 27.0203 25.3333 26.6667V5.33333C25.3333 4.97971 25.1929 4.64057 24.9428 4.39052C24.6928 4.14048 24.3536 4 24 4H8C7.64638 4 7.30724 4.14048 7.05719 4.39052C6.80714 4.64057 6.66667 4.97971 6.66667 5.33333V26.6667C6.66667 27.0203 6.80714 27.3594 7.05719 27.6095C7.30724 27.8595 7.64638 28 8 28H24C24.3536 28 24.6928 27.8595 24.9428 27.6095Z" fill="currentColor"/>
</svg>
