<svg viewBox="0 0 16 16" fill="none" xmlns="http://www.w3.org/2000/svg">
<path d="M9.41016 11.2539C9.78821 11.2923 10.0838 11.6118 10.084 12C10.0837 12.3881 9.78817 12.7077 9.41016 12.7461L9.33398 12.75H6.66699C6.25294 12.75 5.91726 12.414 5.91699 12C5.91717 11.5859 6.25289 11.25 6.66699 11.25H9.33398L9.41016 11.2539Z" fill="currentColor"/>
<path d="M10.8799 1.26074C11.9302 1.36751 12.7498 2.25454 12.75 3.33301V12.667C12.7498 13.8173 11.8173 14.7498 10.667 14.75H5.33301C4.18267 14.7498 3.25018 13.8173 3.25 12.667V3.33301C3.25018 2.18267 4.18267 1.25018 5.33301 1.25H10.667L10.8799 1.26074ZM5.33301 2.75C5.0111 2.75018 4.75018 3.0111 4.75 3.33301V12.667C4.75018 12.9889 5.0111 13.2498 5.33301 13.25H10.667C10.9889 13.2498 11.2498 12.9889 11.25 12.667V3.33301L11.2383 3.21582C11.1917 2.98792 11.0121 2.80832 10.7842 2.76172L10.667 2.75H5.33301Z" fill="currentColor"/>
</svg>
