<svg viewBox="0 0 32 32" fill="none" xmlns="http://www.w3.org/2000/svg">
<path d="M18.7939 22.7568C19.4244 22.8207 19.916 23.3537 19.916 24.001C19.9156 24.6479 19.4241 25.1802 18.7939 25.2441L18.666 25.251H13.333C12.643 25.2508 12.0834 24.6909 12.083 24.001C12.083 23.3107 12.6428 22.7511 13.333 22.751H18.666L18.7939 22.7568Z" fill="currentColor"/>
<path d="M21.333 2.75C23.4961 2.75 25.25 4.50388 25.25 6.66699V25.333C25.25 27.4961 23.4961 29.25 21.333 29.25H10.667C8.50388 29.25 6.75 27.4961 6.75 25.333V6.66699C6.75 4.50388 8.50388 2.75 10.667 2.75H21.333ZM10.667 5.25C9.88459 5.25 9.25 5.88459 9.25 6.66699V25.333C9.25 26.1154 9.88459 26.75 10.667 26.75H21.333C22.1154 26.75 22.75 26.1154 22.75 25.333V6.66699L22.7432 6.52148C22.6705 5.80726 22.0664 5.25 21.333 5.25H10.667Z" fill="currentColor"/>
</svg>
