<svg viewBox="0 0 33 32" fill="none" xmlns="http://www.w3.org/2000/svg">
<path d="M17.888 0.781049C17.3879 0.280952 16.7096 0 16.0024 0C15.2951 0 14.6168 0.280952 14.1167 0.781049C13.6166 1.28115 13.3357 1.95942 13.3357 2.66667V17.3333H18.669V2.66667C18.669 1.95942 18.3881 1.28115 17.888 0.781049Z" fill="currentColor"/>
<path d="M8.62894 11.4665C8.84112 11.598 9.08597 11.6673 9.3356 11.6665C9.62592 11.6674 9.90861 11.5736 10.1407 11.3992C10.3729 11.2248 10.5417 10.9795 10.6217 10.7004C10.7016 10.4213 10.6883 10.1237 10.5837 9.85289C10.4792 9.58206 10.289 9.35276 10.0423 9.19983L2.04227 4.19983C1.74169 4.01241 1.37897 3.95207 1.0339 4.03208C0.688837 4.1121 0.389689 4.32592 0.202269 4.62649C0.0148497 4.92707 -0.0454893 5.28979 0.0345262 5.63486C0.114542 5.97993 0.328357 6.27908 0.628936 6.46649L8.62894 11.4665Z" fill="currentColor"/>
<path d="M21.864 11.3992C22.0962 11.5736 22.3789 11.6674 22.6692 11.6665C22.9188 11.6673 23.1637 11.598 23.3758 11.4665L31.3758 6.46649C31.6764 6.27908 31.8902 5.97993 31.9703 5.63486C32.0503 5.28979 31.9899 4.92707 31.8025 4.62649C31.6151 4.32592 31.3159 4.1121 30.9709 4.03208C30.6258 3.95207 30.2631 4.01241 29.9625 4.19983L21.9625 9.19983C21.7157 9.35276 21.5256 9.58206 21.421 9.85289C21.3165 10.1237 21.3032 10.4213 21.3831 10.7004C21.4631 10.9795 21.6319 11.2248 21.864 11.3992Z" fill="currentColor"/>
<path d="M30.6691 14.6665H21.3358V18.6665C21.3358 19.0201 21.1953 19.3593 20.9453 19.6093C20.6952 19.8594 20.3561 19.9998 20.0024 19.9998H12.0024C11.6488 19.9998 11.3097 19.8594 11.0596 19.6093C10.8096 19.3593 10.6691 19.0201 10.6691 18.6665V14.6665H1.33577C0.982153 14.6665 0.643014 14.807 0.392966 15.057C0.142917 15.3071 0.0024414 15.6462 0.0024414 15.9998V27.9998C0.0024414 29.0607 0.423869 30.0781 1.17401 30.8283C1.92416 31.5784 2.94158 31.9998 4.00244 31.9998H28.0024C29.0633 31.9998 30.0807 31.5784 30.8309 30.8283C31.581 30.0781 32.0024 29.0607 32.0024 27.9998V15.9998C32.0024 15.6462 31.862 15.3071 31.6119 15.057C31.3619 14.807 31.0227 14.6665 30.6691 14.6665Z" fill="currentColor"/>
</svg>
