<svg viewBox="0 0 16 16" fill="none" xmlns="http://www.w3.org/2000/svg">
<path d="M6.33286 7.91582C6.74699 7.91582 7.08272 8.25172 7.08286 8.66582V11.3328C7.08269 11.7469 6.74697 12.0828 6.33286 12.0828C5.94467 12.0826 5.62507 11.7871 5.58677 11.409L5.58286 11.3328V8.66582C5.58301 8.25187 5.91894 7.91605 6.33286 7.91582Z" fill="currentColor"/>
<path d="M9.66587 7.91582C10.08 7.91582 10.4157 8.25172 10.4159 8.66582V11.3328C10.4157 11.7469 10.08 12.0828 9.66587 12.0828C9.27784 12.0824 8.95806 11.787 8.91978 11.409L8.91587 11.3328V8.66582C8.91601 8.25199 9.25212 7.91625 9.66587 7.91582Z" fill="currentColor"/>
<path d="M9.95494 1.35234C10.2902 1.15676 10.7145 1.2504 10.9383 1.55742L10.9803 1.62187L13.1073 5.26738C13.6711 5.33667 14.1921 5.61704 14.5604 6.05839C14.9344 6.50667 15.1171 7.07998 15.077 7.65605L15.0467 7.90214L14.1376 12.9021C13.9551 13.9049 13.1247 14.6515 12.1258 14.741L11.9237 14.7498H4.07603C3.05676 14.7497 2.17375 14.0662 1.90708 13.0994L1.86216 12.9021L0.952982 7.90214C0.833733 7.24598 1.01214 6.57052 1.43931 6.05839C1.80739 5.61736 2.32807 5.33697 2.89146 5.26738L5.01841 1.62187C5.22707 1.26422 5.68607 1.1439 6.0438 1.35234C6.40156 1.56103 6.52294 2.01996 6.31431 2.37773L4.63853 5.2498H11.3602L9.6854 2.37773L9.64927 2.30937C9.49219 1.96362 9.62008 1.5481 9.95494 1.35234ZM3.08384 6.75468C2.89275 6.77603 2.71524 6.87008 2.59068 7.01933C2.44857 7.1899 2.38898 7.41513 2.42857 7.63359L3.33775 12.6336L3.37388 12.7625C3.48169 13.051 3.75896 13.2497 4.07603 13.2498H11.9237L12.0565 13.2381C12.3597 13.1837 12.6042 12.9456 12.661 12.6336L13.5702 7.63359L13.5809 7.55156C13.5942 7.35961 13.5327 7.16868 13.4081 7.01933C13.2835 6.87015 13.1069 6.77601 12.9159 6.75468L12.8329 6.7498H3.16685L3.08384 6.75468Z" fill="currentColor"/>
</svg>
