<svg viewBox="0 0 32 32" fill="none" xmlns="http://www.w3.org/2000/svg">
<path d="M12.6669 16.0843C13.3571 16.0845 13.9169 16.6441 13.9169 17.3343V22.6673C13.9168 23.3575 13.357 23.9172 12.6669 23.9173C11.9766 23.9172 11.4169 23.3576 11.4169 22.6673V17.3343C11.4169 16.644 11.9766 16.0844 12.6669 16.0843Z" fill="currentColor"/>
<path d="M19.3339 16.0843C20.024 16.0846 20.5839 16.6441 20.5839 17.3343V22.6673C20.5838 23.3575 20.0239 23.917 19.3339 23.9173C18.6435 23.9173 18.0839 23.3576 18.0839 22.6673V17.3343C18.0839 16.644 18.6435 16.0843 19.3339 16.0843Z" fill="currentColor"/>
<path d="M20.037 2.92026C20.5958 2.59456 21.3038 2.75125 21.6766 3.26303L21.7469 3.37045L26.0624 10.7708C27.1738 10.8749 28.2064 11.4117 28.9286 12.2767C29.6855 13.1836 30.0284 14.3624 29.8827 15.5277L29.8465 15.7611L28.0292 25.7611C27.6731 27.7186 26.0098 29.1584 24.0389 29.2464L23.8475 29.2503H8.15221C6.16258 29.2502 4.44788 27.8719 4.00866 25.9486L3.97057 25.7611L2.15221 15.7611C1.92693 14.5213 2.26376 13.2441 3.07116 12.2767C3.79311 11.4119 4.82536 10.8742 5.93639 10.7699L10.2538 3.37045L10.3241 3.26303C10.6971 2.7514 11.405 2.59432 11.9637 2.92026C12.5598 3.26806 12.7605 4.034 12.413 4.63022L8.84362 10.7503H23.1571L19.5868 4.63022L19.5282 4.51693C19.2659 3.94022 19.4779 3.24637 20.037 2.92026ZM6.14049 13.2611C5.69436 13.3107 5.28091 13.5308 4.9901 13.8792C4.65784 14.2775 4.51952 14.8035 4.61217 15.3138L6.43053 25.3138L6.46569 25.4671C6.67323 26.2188 7.35964 26.7502 8.15221 26.7503H23.8475L24.0048 26.7435C24.7815 26.6739 25.4272 26.0936 25.5692 25.3138L27.3876 15.3138L27.411 15.1214C27.442 14.6735 27.2995 14.2277 27.0087 13.8792C26.7177 13.5308 26.3046 13.3105 25.8583 13.2611L25.6659 13.2503H6.33385L6.14049 13.2611Z" fill="currentColor"/>
</svg>
