<svg viewBox="0 0 17 16" fill="none" xmlns="http://www.w3.org/2000/svg">
<path d="M8.94387 0.390524C8.69382 0.140476 8.35468 0 8.00106 0C7.64744 0 7.3083 0.140476 7.05825 0.390524C6.8082 0.640573 6.66772 0.979711 6.66772 1.33333V8.66667H9.33439V1.33333C9.33439 0.979711 9.19392 0.640573 8.94387 0.390524Z" fill="currentColor"/>
<path d="M4.31447 5.73349C4.42056 5.79924 4.54298 5.83389 4.6678 5.83349C4.81296 5.83396 4.95431 5.78704 5.07037 5.69985C5.18643 5.61266 5.27086 5.48998 5.31084 5.35043C5.35082 5.21089 5.34415 5.06211 5.29187 4.92669C5.23958 4.79127 5.14452 4.67662 5.02113 4.60016L1.02113 2.10016C0.870845 2.00645 0.689485 1.97628 0.516952 2.01629C0.344418 2.05629 0.194845 2.1632 0.101135 2.31349C0.00742485 2.46378 -0.0227447 2.64514 0.0172631 2.81767C0.0572709 2.99021 0.164179 3.13978 0.314468 3.23349L4.31447 5.73349Z" fill="currentColor"/>
<path d="M10.9318 5.69985C11.0478 5.78704 11.1892 5.83396 11.3343 5.83349C11.4592 5.83389 11.5816 5.79924 11.6877 5.73349L15.6877 3.23349C15.838 3.13978 15.9449 2.99021 15.9849 2.81767C16.0249 2.64514 15.9947 2.46378 15.901 2.31349C15.8073 2.1632 15.6577 2.05629 15.4852 2.01629C15.3127 1.97628 15.1313 2.00645 14.981 2.10016L10.981 4.60016C10.8576 4.67662 10.7626 4.79127 10.7103 4.92669C10.658 5.06211 10.6513 5.21089 10.6913 5.35043C10.7313 5.48998 10.8157 5.61266 10.9318 5.69985Z" fill="currentColor"/>
<path d="M15.3346 7.3335H10.6679V9.3335C10.6679 9.51031 10.5976 9.67988 10.4726 9.8049C10.3476 9.92992 10.178 10.0002 10.0012 10.0002H6.00122C5.82441 10.0002 5.65484 9.92992 5.52982 9.8049C5.40479 9.67988 5.33455 9.51031 5.33455 9.3335V7.3335H0.667887C0.491076 7.3335 0.321507 7.40373 0.196483 7.52876C0.0714586 7.65378 0.0012207 7.82335 0.0012207 8.00016V14.0002C0.0012207 14.5306 0.211934 15.0393 0.587007 15.4144C0.96208 15.7894 1.47079 16.0002 2.00122 16.0002H14.0012C14.5317 16.0002 15.0404 15.7894 15.4154 15.4144C15.7905 15.0393 16.0012 14.5306 16.0012 14.0002V8.00016C16.0012 7.82335 15.931 7.65378 15.806 7.52876C15.6809 7.40373 15.5114 7.3335 15.3346 7.3335Z" fill="currentColor"/>
</svg>
