<svg viewBox="0 0 25 24" fill="none" xmlns="http://www.w3.org/2000/svg">
<path d="M13.4159 0.585786C13.0408 0.210714 12.5321 0 12.0017 0C11.4713 0 10.9626 0.210714 10.5875 0.585786C10.2124 0.960859 10.0017 1.46957 10.0017 2V13H14.0017V2C14.0017 1.46957 13.791 0.960859 13.4159 0.585786Z" fill="currentColor"/>
<path d="M6.4717 8.60024C6.63084 8.69887 6.81448 8.75084 7.0017 8.75024C7.21944 8.75094 7.43146 8.68056 7.60555 8.54978C7.77964 8.419 7.90629 8.23497 7.96626 8.02565C8.02622 7.81633 8.01623 7.59316 7.9378 7.39003C7.85937 7.18691 7.71678 7.01494 7.5317 6.90024L1.5317 3.15024C1.30627 3.00967 1.03423 2.96442 0.775428 3.02443C0.516628 3.08444 0.292267 3.2448 0.151702 3.47024C0.0111373 3.69567 -0.034117 3.96771 0.0258947 4.22651C0.0859063 4.48531 0.246268 4.70967 0.471702 4.85024L6.4717 8.60024Z" fill="currentColor"/>
<path d="M16.3979 8.54978C16.572 8.68056 16.784 8.75094 17.0018 8.75024C17.189 8.75084 17.3726 8.69887 17.5318 8.60024L23.5318 4.85024C23.7572 4.70967 23.9176 4.48531 23.9776 4.22651C24.0376 3.96771 23.9923 3.69567 23.8518 3.47024C23.7112 3.2448 23.4868 3.08444 23.228 3.02443C22.9692 2.96442 22.6972 3.00967 22.4718 3.15024L16.4718 6.90024C16.2867 7.01494 16.1441 7.18691 16.0657 7.39003C15.9872 7.59316 15.9772 7.81633 16.0372 8.02565C16.0972 8.23497 16.2238 8.419 16.3979 8.54978Z" fill="currentColor"/>
<path d="M23.0017 11H16.0017V14C16.0017 14.2652 15.8964 14.5196 15.7088 14.7071C15.5213 14.8946 15.2669 15 15.0017 15H9.00171C8.73649 15 8.48214 14.8946 8.2946 14.7071C8.10707 14.5196 8.00171 14.2652 8.00171 14V11H1.00171C0.736493 11 0.482139 11.1054 0.294602 11.2929C0.107066 11.4804 0.00170898 11.7348 0.00170898 12V21C0.00170898 21.7956 0.317779 22.5587 0.880389 23.1213C1.443 23.6839 2.20606 24 3.00171 24H21.0017C21.7974 24 22.5604 23.6839 23.123 23.1213C23.6856 22.5587 24.0017 21.7956 24.0017 21V12C24.0017 11.7348 23.8964 11.4804 23.7088 11.2929C23.5213 11.1054 23.2669 11 23.0017 11Z" fill="currentColor"/>
</svg>
