<svg viewBox="0 0 24 24" fill="none" xmlns="http://www.w3.org/2000/svg">
<path d="M13.8929 3.10352C14.4759 2.87838 15.1425 3.01585 15.5892 3.46388L21.5355 9.41016L21.6214 9.50196C22.0019 9.94511 22.1082 10.5636 21.8978 11.1084L21.848 11.2236C21.5736 11.7947 20.988 12.1452 20.3626 12.124L20.2367 12.1143L18.7288 11.9424C18.676 11.9373 18.6235 11.9563 18.5863 11.9941L16.1995 14.3809C16.1677 14.4126 16.1498 14.456 16.1497 14.501V18.666C16.1482 19.5457 15.6178 20.3393 14.805 20.6758C13.9924 21.0122 13.0568 20.826 12.4339 20.2051L12.432 20.2041L9.32259 17.0918L5.70442 20.7109C5.31401 21.1012 4.68087 21.1011 4.29036 20.7109C3.89994 20.3205 3.89998 19.6874 4.29036 19.2969L7.9095 15.6768L4.80208 12.5664C4.18077 11.9436 3.99506 11.0072 4.33138 10.1943L4.39974 10.0459C4.7673 9.31772 5.51529 8.85094 6.34017 8.84962H10.5023C10.5469 8.84941 10.5898 8.83138 10.6214 8.79981L13.0003 6.42188L13.0062 6.41505L13.0316 6.3838C13.0527 6.35065 13.063 6.31037 13.0589 6.27052L12.887 4.76466C12.8108 4.09299 13.1674 3.44601 13.7767 3.15333L13.8929 3.10352ZM15.0462 6.05372L15.0482 6.06251C15.1166 6.71893 14.8822 7.37088 14.4134 7.83497L14.4144 7.83595L12.0374 10.2129C11.6314 10.6197 11.08 10.8486 10.5052 10.8496H6.3431L6.29134 10.8574C6.25812 10.8676 6.22855 10.8873 6.20638 10.9141L6.17903 10.96C6.15189 11.0262 6.16663 11.1026 6.21712 11.1533L13.846 18.7891L13.888 18.8203C13.9341 18.8447 13.9905 18.8478 14.0404 18.8272C14.1058 18.7998 14.1488 18.7359 14.1497 18.665V14.5029C14.1493 13.924 14.3803 13.3687 14.7913 12.9609L17.1654 10.5869C17.5713 10.1768 18.121 9.94671 18.6917 9.94141L18.9378 9.95313L18.9476 9.95411L19.2904 9.99317L15.0062 5.70997L15.0462 6.05372ZM20.1253 10.8291L20.1234 10.8262L20.1175 10.8203L20.1253 10.8291Z" fill="currentColor"/>
</svg>
