<svg viewBox="0 0 16 16" fill="none" xmlns="http://www.w3.org/2000/svg">
<path d="M9.31671 1.96168C9.71424 1.84311 10.1518 1.94862 10.4515 2.24878L14.4153 6.21363L14.5335 6.35035C14.7435 6.63803 14.8073 7.00902 14.7054 7.35035L14.64 7.51832C14.4557 7.90157 14.0768 8.14638 13.6614 8.1648L13.4817 8.15796L12.4788 8.04273C12.4687 8.04167 12.4578 8.0464 12.4505 8.05347L12.4456 8.05933L12.4446 8.05835L10.8587 9.64527C10.8532 9.65075 10.85 9.65896 10.8499 9.66675V12.4431C10.8489 13.0632 10.4745 13.6228 9.90167 13.8601C9.32866 14.0972 8.66878 13.9661 8.22979 13.5281L6.21515 11.5105L3.86163 13.865C3.56876 14.1578 3.09397 14.1578 2.80108 13.865C2.50841 13.5721 2.50831 13.0973 2.80108 12.8044L5.15558 10.449L3.14288 8.43531C2.70495 7.99624 2.57366 7.33643 2.81085 6.76343L2.8587 6.65894C3.11784 6.14574 3.64547 5.81612 4.22686 5.81519H7.00128C7.00901 5.8151 7.01632 5.8119 7.02179 5.8064L7.02374 5.80543L8.61261 4.21656L8.62237 4.18824L8.50811 3.18531C8.45362 2.70248 8.71067 2.23646 9.14874 2.02613L9.31671 1.96168ZM10.1146 4.03394C10.1624 4.49609 9.99721 4.95415 9.66729 5.28101L9.66827 5.28199L8.08429 6.86597C7.79796 7.15312 7.40876 7.3145 7.00323 7.31519H4.22882L4.20929 7.32203L4.19659 7.33765C4.19122 7.3508 4.19438 7.36567 4.2044 7.37574L9.29034 12.4666C9.30045 12.4766 9.31526 12.4788 9.32843 12.4734C9.3409 12.4679 9.34952 12.4558 9.34991 12.4421V9.66773C9.34969 9.25976 9.51246 8.86821 9.80206 8.58082L11.3851 6.99781C11.7115 6.66862 12.1698 6.50331 12.6312 6.55054L10.1146 4.03394Z" fill="currentColor"/>
</svg>
