<svg viewBox="0 0 32 32" fill="none" xmlns="http://www.w3.org/2000/svg">
<path d="M18.5528 4.2157C19.2996 3.92704 20.1534 4.10293 20.7257 4.67663L28.6544 12.6053L28.7648 12.7235C29.2523 13.2912 29.3889 14.0831 29.1192 14.7811L29.0548 14.9286C28.68 15.7092 27.8517 16.1677 26.9913 16.0702L26.9903 16.0692L24.9825 15.8397C24.8861 15.8296 24.7897 15.8644 24.7218 15.9335L24.714 15.9423L21.5411 19.1151C21.4825 19.1733 21.4492 19.2523 21.4493 19.3348V24.8876C21.4475 26.027 20.7599 27.0543 19.7071 27.4901C18.6546 27.9256 17.4433 27.685 16.6368 26.8807L12.4298 22.6708L7.54698 27.5546C7.05885 28.0426 6.26754 28.0426 5.77941 27.5546C5.29128 27.0664 5.29133 26.2751 5.77941 25.787L10.6632 20.9022L6.46105 16.6962C5.65625 15.8895 5.41586 14.6767 5.85167 13.6239L5.93956 13.4315C6.41555 12.4883 7.38489 11.8844 8.45323 11.8827H14.0021C14.0839 11.8825 14.163 11.8498 14.2208 11.7919L17.4005 8.61218L17.4454 8.55652C17.4838 8.49652 17.5017 8.4246 17.4942 8.35241L17.2648 6.34363C17.1671 5.4832 17.6247 4.65399 18.4054 4.27917L18.5528 4.2157ZM19.9786 8.07995L19.9806 8.09167L19.9923 8.25183C20.03 9.04753 19.7279 9.82405 19.1583 10.3876L19.1593 10.3885L15.9903 13.5575C15.4645 14.0845 14.7505 14.3815 14.006 14.3827H8.45714L8.36339 14.3964C8.30345 14.4148 8.24999 14.4506 8.21007 14.4989L8.16124 14.5809C8.11208 14.7001 8.139 14.837 8.2296 14.9286L13.3048 20.0087C13.3082 20.012 13.3121 20.015 13.3155 20.0184C13.3186 20.0215 13.3213 20.0251 13.3243 20.0282L18.4015 25.1102C18.4931 25.2016 18.6315 25.229 18.7511 25.1796C18.8702 25.1302 18.9485 25.0145 18.9493 24.8856V19.3368C18.9487 18.5869 19.2479 17.8678 19.7804 17.3397L22.9454 14.1747C23.5089 13.6051 24.2865 13.304 25.0821 13.3417L25.2423 13.3534L25.254 13.3553L25.9484 13.4344L19.8985 7.38464L19.9786 8.07995Z" fill="currentColor"/>
</svg>
