<svg viewBox="0 0 24 24" fill="none" xmlns="http://www.w3.org/2000/svg">
<path d="M16.8068 2.98526C17.9978 1.90409 19.7541 1.9394 20.9074 3.09268C22.0607 4.24597 22.096 6.00225 21.0148 7.19326L20.9074 7.30752L17.9855 10.2274L19.673 18.5722C19.8443 19.2013 19.6627 19.985 19.0568 20.456L18.4074 21.1073C17.887 21.6276 17.1812 21.7615 16.591 21.6435C16.0232 21.5298 15.417 21.147 15.1681 20.4608L13.1222 15.1913L11.1379 17.1747L11.2961 18.9091L11.3 18.9999C11.3 19.4362 11.1751 19.9341 10.8556 20.3397L10.7072 20.5067L9.60662 21.6073C9.38891 21.8248 9.08294 21.9301 8.77752 21.8925C8.47213 21.8547 8.20054 21.6788 8.04217 21.4149L6.07049 18.1288L2.78533 16.1571C2.54097 16.0104 2.37068 15.7663 2.31756 15.4862C2.26449 15.2061 2.33329 14.9164 2.50701 14.6903L3.50701 13.3905L3.59295 13.2929L3.76092 13.1444C4.16643 12.8253 4.6637 12.7002 5.09979 12.7001L5.19061 12.704L6.92401 12.8612L8.90252 10.8827L3.54315 8.83389L3.45233 8.79483C2.33434 8.23558 1.83981 6.64583 2.89276 5.59268L3.59295 4.89346L3.69354 4.80069C3.93284 4.5989 4.20565 4.48426 4.41815 4.41885C4.67514 4.33978 4.94998 4.29973 5.20037 4.29971L5.29998 4.30459C5.3329 4.3079 5.36614 4.31365 5.39861 4.32022L13.7717 6.01358L16.6926 3.09268L16.8068 2.98526ZM19.4933 4.50674C19.1094 4.12285 18.5869 4.09951 18.1857 4.43545L18.1066 4.50674L14.8068 7.80752C14.5996 8.01448 14.3136 8.11908 14.0256 8.09756L13.9015 8.07998L5.12908 6.30557C5.12317 6.3063 5.11681 6.30658 5.11053 6.30752C5.0736 6.31311 5.03758 6.32158 5.00701 6.33096C4.99071 6.33598 4.97777 6.34101 4.96893 6.34463L4.32537 6.98721C4.32755 6.99006 4.3303 6.99243 4.33318 6.99502L11.0568 9.56631C11.3733 9.68733 11.6072 9.96049 11.6779 10.2919C11.7484 10.623 11.6467 10.9674 11.4074 11.2069L8.00701 14.6073C7.79718 14.817 7.5046 14.9232 7.20916 14.8964L5.07537 14.7021C5.05074 14.7038 5.02961 14.7071 5.01385 14.7118L4.77752 15.0194L7.31463 16.5429L7.41522 16.6122C7.51174 16.6876 7.59404 16.78 7.6574 16.8856L9.09783 19.287L9.28143 19.1034C9.28229 19.1015 9.28415 19.0988 9.28533 19.0956C9.29148 19.0786 9.29609 19.0528 9.29803 19.0214L9.10369 16.8905C9.07688 16.5951 9.18304 16.3025 9.39276 16.0927L12.7931 12.6933L12.8869 12.6103C13.1173 12.4314 13.4167 12.3608 13.7062 12.4218C14.0367 12.4915 14.3095 12.7232 14.4318 13.038L17.008 19.6776L17.6926 18.9931L17.714 18.9726L15.9201 10.0985C15.8537 9.77028 15.9559 9.43021 16.1926 9.19326L19.4933 5.89346L19.5646 5.81436C19.9006 5.41318 19.8772 4.89064 19.4933 4.50674Z" fill="currentColor"/>
</svg>
