<svg viewBox="0 0 32 32" fill="none" xmlns="http://www.w3.org/2000/svg">
<path d="M30.0348 7.11252C30.7169 7.29854 31.2971 7.74781 31.6481 8.36154C31.8219 8.66559 31.9341 9.0009 31.9783 9.34832C32.0225 9.69573 31.9979 10.0485 31.9057 10.3863C31.8136 10.7242 31.6559 11.0407 31.4414 11.3176C31.227 11.5945 30.9602 11.8264 30.6561 12.0002L12.8041 22.2322L12.4414 22.3735L6.54675 23.7215C6.1688 23.8081 5.77652 23.8112 5.39725 23.7306C5.01798 23.65 4.66085 23.4876 4.35075 23.2549L0.81875 20.6055C0.730385 20.5392 0.659887 20.452 0.613593 20.3517C0.5673 20.2514 0.546663 20.1411 0.553538 20.0308C0.560413 19.9206 0.594585 19.8137 0.652981 19.72C0.711377 19.6262 0.792165 19.5484 0.888084 19.4935L2.68808 18.4629C2.76498 18.4189 2.84987 18.3908 2.93778 18.38C3.02569 18.3693 3.11486 18.3761 3.20008 18.4002L6.92142 19.4562L12.9574 16.0002H12.9508L2.33208 9.90821C2.23075 9.84969 2.14659 9.76554 2.08809 9.66419C2.02958 9.56285 1.99878 9.44789 1.99878 9.33088C1.99878 9.21386 2.02958 9.0989 2.08809 8.99756C2.14659 8.89621 2.23075 8.81206 2.33208 8.75354L4.41742 7.54154C4.49624 7.49562 4.58366 7.46636 4.67425 7.45558C4.76484 7.4448 4.85668 7.45273 4.94408 7.47888L19.9548 11.9869L28.0107 7.36954C28.6247 7.01895 29.3527 6.9265 30.0348 7.11252Z" fill="currentColor"/>
<path d="M1.33333 32.0003H30.6667C31.0203 32.0003 31.3594 31.8598 31.6095 31.6098C31.8595 31.3597 32 31.0206 32 30.667C32 30.3133 31.8595 29.9742 31.6095 29.7241C31.3594 29.4741 31.0203 29.3336 30.6667 29.3336H1.33333C0.979711 29.3336 0.640573 29.4741 0.390524 29.7241C0.140476 29.9742 0 30.3133 0 30.667C0 31.0206 0.140476 31.3597 0.390524 31.6098C0.640573 31.8598 0.979711 32.0003 1.33333 32.0003Z" fill="currentColor"/>
</svg>
