<svg viewBox="0 0 16 16" fill="none" xmlns="http://www.w3.org/2000/svg">
<path d="M15.0174 3.55577C15.3584 3.64878 15.6486 3.87341 15.824 4.18028C15.9109 4.33231 15.967 4.49996 15.9892 4.67367C16.0113 4.84738 15.9989 5.02374 15.9529 5.19268C15.9068 5.36163 15.8279 5.51984 15.7207 5.6583C15.6135 5.79675 15.4801 5.91273 15.328 5.99962L6.40204 11.1156L6.22071 11.1863L3.27338 11.8603C3.0844 11.9036 2.88826 11.9051 2.69862 11.8648C2.50899 11.8245 2.33043 11.7433 2.17538 11.6269L0.409375 10.3023C0.365193 10.2691 0.329943 10.2255 0.306797 10.1753C0.28365 10.1252 0.273332 10.0701 0.276769 10.0149C0.280207 9.9598 0.297293 9.90638 0.32649 9.85949C0.355688 9.8126 0.396083 9.77369 0.444042 9.74628L1.34404 9.23095C1.38249 9.20898 1.42493 9.1949 1.46889 9.18952C1.51284 9.18414 1.55743 9.18757 1.60004 9.19962L3.46071 9.72762L6.47871 7.99962H6.47538L1.16604 4.95362C1.11537 4.92436 1.0733 4.88228 1.04404 4.83161C1.01479 4.78094 0.99939 4.72346 0.99939 4.66495C0.99939 4.60644 1.01479 4.54896 1.04404 4.49829C1.0733 4.44762 1.11537 4.40554 1.16604 4.37628L2.20871 3.77028C2.24812 3.74732 2.29183 3.73269 2.33713 3.7273C2.38242 3.72191 2.42834 3.72588 2.47204 3.73895L9.97738 5.99295L14.0054 3.68428C14.3123 3.50899 14.6764 3.46276 15.0174 3.55577Z" fill="currentColor"/>
<path d="M0.666667 15.9996H15.3333C15.5101 15.9996 15.6797 15.9294 15.8047 15.8044C15.9298 15.6794 16 15.5098 16 15.333C16 15.1562 15.9298 14.9866 15.8047 14.8616C15.6797 14.7365 15.5101 14.6663 15.3333 14.6663H0.666667C0.489856 14.6663 0.320286 14.7365 0.195262 14.8616C0.0702379 14.9866 0 15.1562 0 15.333C0 15.5098 0.0702379 15.6794 0.195262 15.8044C0.320286 15.9294 0.489856 15.9996 0.666667 15.9996Z" fill="currentColor"/>
</svg>
