<svg viewBox="0 0 16 16" fill="none" xmlns="http://www.w3.org/2000/svg">
<path d="M11.2293 1.85711C12.0531 1.17926 13.2222 1.22817 13.9969 2.00262C14.7712 2.77708 14.8197 3.94543 14.1424 4.76922L13.9969 4.92938L12.0809 6.84442L13.1971 12.362C13.3174 12.8096 13.188 13.3661 12.7566 13.7018L12.3299 14.1296C11.9605 14.4988 11.4613 14.5927 11.0447 14.5095C10.6446 14.4294 10.2122 14.1594 10.034 13.6696L8.71659 10.2751L7.51152 11.4802L7.61406 12.5983L7.61699 12.6657C7.61699 12.9709 7.52909 13.3222 7.30253 13.61L7.19706 13.7292L6.46367 14.4626C6.30036 14.6259 6.07082 14.7047 5.84159 14.6764C5.61248 14.6482 5.40862 14.516 5.28984 14.3181L3.98613 12.1452L1.81425 10.8425C1.63091 10.7324 1.50252 10.5487 1.46269 10.3386C1.4231 10.1286 1.47504 9.91125 1.60527 9.74188L2.27226 8.87567L2.33671 8.80243C2.64248 8.49677 3.05142 8.38252 3.40019 8.3825L3.46757 8.38543L4.58378 8.487L5.78398 7.2868L2.33183 5.96649C2.30898 5.95773 2.28633 5.94716 2.26445 5.93621C1.47608 5.54165 1.12179 4.41676 1.86992 3.66864L2.33671 3.20184L2.408 3.13641C2.57933 2.99177 2.77308 2.91136 2.9207 2.8659C3.09989 2.81077 3.29131 2.78291 3.46659 2.78289L3.61503 2.79754L9.15312 3.91766L11.0701 2.00262L11.2293 1.85711ZM12.9363 3.06317C12.726 2.85303 12.4509 2.8265 12.2244 2.98407L12.1307 3.06317L9.93046 5.26239C9.75283 5.44002 9.49798 5.51713 9.25175 5.46746L3.41679 4.2868C3.39674 4.28994 3.37773 4.29469 3.3621 4.2995C3.36109 4.29981 3.36011 4.30017 3.35917 4.30047L3.03105 4.62762L7.40117 6.29852C7.63837 6.38921 7.81384 6.59417 7.86699 6.84246C7.91998 7.09096 7.84348 7.35026 7.66386 7.52996L5.39726 9.79657C5.25955 9.93425 5.07421 10.0115 4.88163 10.0153L4.79863 10.0124L3.38749 9.88446L3.30742 9.98895L4.91874 10.9557L4.99492 11.0085C5.06714 11.0649 5.1291 11.1345 5.17656 11.2136L6.08183 12.7223L6.11503 12.6891C6.11518 12.6877 6.11484 12.6858 6.11503 12.6843L5.98613 11.2673C5.96608 11.0457 6.04561 10.826 6.20292 10.6686L8.46952 8.40204L8.54081 8.33954C8.71349 8.20584 8.9383 8.15329 9.15507 8.19891C9.40264 8.25124 9.60725 8.42502 9.69902 8.66082L11.3699 12.9675L11.7185 12.6188L10.532 6.74774C10.4824 6.50158 10.5586 6.24666 10.7361 6.06903L12.9363 3.86883L13.0154 3.77508C13.173 3.54859 13.1465 3.27346 12.9363 3.06317Z" fill="currentColor"/>
</svg>
