<svg viewBox="0 0 32 32" fill="none" xmlns="http://www.w3.org/2000/svg">
<path d="M22.4645 4.04276C24.0197 2.63058 26.3107 2.67726 27.817 4.18338C29.3231 5.68968 29.3708 7.98166 27.9586 9.5369L27.817 9.68436L23.8912 13.6101L26.153 24.7928C26.3702 25.6023 26.1339 26.6096 25.3551 27.2127L24.484 28.0847C23.8128 28.7559 22.9021 28.9288 22.1383 28.7762C21.4025 28.629 20.621 28.1347 20.3014 27.2517L17.528 20.1062L14.7643 22.8699L14.9782 25.2205L14.983 25.3338C14.983 25.9413 14.7969 26.6374 14.317 27.1785L14.2174 27.2849L12.7506 28.7508C12.4785 29.0228 12.0954 29.1552 11.7135 29.1082C11.3318 29.0611 10.9925 28.8403 10.7946 28.5105L8.15491 24.1111L3.75647 21.4724C3.45103 21.289 3.23797 20.9836 3.17151 20.6336C3.10513 20.2834 3.19159 19.921 3.40882 19.6385L4.7428 17.9051L4.84925 17.784C5.40338 17.2298 6.15232 17.0174 6.80042 17.0174L6.91272 17.0222L9.26331 17.2351L12.0192 14.4793L4.75354 11.7019C4.71537 11.6873 4.6778 11.6704 4.64124 11.6521C3.19345 10.9282 2.55855 8.87462 3.91663 7.51639L4.84925 6.58377L4.97815 6.46561C5.28569 6.20616 5.63797 6.05789 5.91565 5.97244C6.25046 5.86943 6.60771 5.81718 6.93323 5.81717L7.05823 5.82401C7.0994 5.82815 7.14067 5.83435 7.18128 5.84256L18.3903 8.10916L22.316 4.18338L22.4645 4.04276ZM26.0494 5.95096C25.5071 5.40878 24.7625 5.37494 24.195 5.8494L24.0836 5.95096L19.6842 10.3513C19.3881 10.6474 18.9628 10.7751 18.5524 10.6922L6.84241 8.32401C6.78225 8.33075 6.7143 8.34262 6.65101 8.36209C6.61687 8.37259 6.59267 8.38259 6.57776 8.38944L5.68421 9.28494C5.67816 9.291 5.67427 9.29505 5.67249 9.29764C5.67234 9.29994 5.67196 9.30497 5.67347 9.31229C5.67934 9.34001 5.69886 9.37408 5.73206 9.3992L14.7135 12.8328C15.1089 12.9841 15.4006 13.3259 15.4889 13.74C15.5661 14.1024 15.4783 14.4777 15.2545 14.7664L15.151 14.8846L10.6168 19.4178C10.3874 19.6471 10.0793 19.7775 9.75843 19.784L9.61975 19.7791L6.76722 19.5193C6.71742 19.5223 6.67495 19.5306 6.64417 19.5418C6.6412 19.5429 6.63792 19.5437 6.63538 19.5447L6.24573 20.0506L9.7096 22.1287L9.83655 22.2156C9.95687 22.3097 10.0593 22.4257 10.1383 22.5574L12.1139 25.8513L12.4498 25.5164L12.4586 25.49C12.4703 25.4579 12.4776 25.4128 12.4801 25.3601L12.2223 22.5135C12.1888 22.1442 12.3205 21.7786 12.5826 21.5164L17.1158 16.9832L17.234 16.8797C17.5219 16.6563 17.8958 16.5682 18.2575 16.6443C18.6707 16.7314 19.0128 17.0211 19.1657 17.4148L22.6217 26.323C22.6238 26.3236 22.6262 26.3245 22.6285 26.325C22.6574 26.3307 22.6835 26.3283 22.6998 26.324C22.7119 26.3208 22.7152 26.3184 22.7164 26.3172L23.6491 25.3836L23.7116 25.326L23.7086 25.3152L21.3082 13.448C21.2254 13.0378 21.3533 12.6132 21.6491 12.3172L26.0494 7.91678L26.151 7.80545C26.6254 7.23791 26.5916 6.49326 26.0494 5.95096Z" fill="currentColor"/>
</svg>
