<svg viewBox="0 0 24 24" fill="none" xmlns="http://www.w3.org/2000/svg">
<path d="M22.526 5.33415C23.0375 5.47366 23.4727 5.81061 23.7359 6.27091C23.8663 6.49895 23.9505 6.75043 23.9836 7.01099C24.0168 7.27156 23.9983 7.5361 23.9292 7.78951C23.8601 8.04293 23.7418 8.28025 23.581 8.48794C23.4201 8.69562 23.22 8.86959 22.9919 8.99991L9.60294 16.6739L9.33094 16.7799L4.90994 17.7909C4.62647 17.8558 4.33226 17.8581 4.04781 17.7977C3.76336 17.7372 3.49552 17.6155 3.26294 17.4409L0.613941 15.4539C0.547667 15.4042 0.494793 15.3387 0.460073 15.2635C0.425353 15.1883 0.409875 15.1056 0.415032 15.0229C0.420188 14.9402 0.445817 14.8601 0.489614 14.7897C0.53341 14.7194 0.594002 14.661 0.665941 14.6199L2.01594 13.8469C2.07362 13.814 2.13728 13.7928 2.20321 13.7848C2.26914 13.7767 2.33602 13.7818 2.39994 13.7999L5.19094 14.5919L9.71794 11.9999H9.71294L1.74894 7.43091C1.67294 7.38703 1.60982 7.32391 1.56594 7.2479C1.52206 7.17189 1.49896 7.08568 1.49896 6.99791C1.49896 6.91015 1.52206 6.82393 1.56594 6.74792C1.60982 6.67192 1.67294 6.6088 1.74894 6.56491L3.31294 5.65591C3.37206 5.62147 3.43762 5.59953 3.50557 5.59144C3.57351 5.58336 3.64239 5.5893 3.70794 5.60891L14.9659 8.98991L21.0079 5.52691C21.4684 5.26397 22.0144 5.19463 22.526 5.33415Z" fill="currentColor"/>
<path d="M1 23.9999H23C23.2652 23.9999 23.5196 23.8946 23.7071 23.707C23.8946 23.5195 24 23.2651 24 22.9999C24 22.7347 23.8946 22.4803 23.7071 22.2928C23.5196 22.1053 23.2652 21.9999 23 21.9999H1C0.734784 21.9999 0.48043 22.1053 0.292893 22.2928C0.105357 22.4803 0 22.7347 0 22.9999C0 23.2651 0.105357 23.5195 0.292893 23.707C0.48043 23.8946 0.734784 23.9999 1 23.9999Z" fill="currentColor"/>
</svg>
