<svg viewBox="0 0 24 24" fill="none" xmlns="http://www.w3.org/2000/svg">
<path d="M10.975 3.00858C11.0977 3.54707 10.7606 4.08305 10.2221 4.20571C9.34552 4.40539 8.50926 4.75257 7.74902 5.23245C7.28199 5.52724 6.66441 5.38762 6.36962 4.92059C6.07483 4.45356 6.21445 3.83598 6.68148 3.54119C7.63333 2.94037 8.68037 2.50567 9.77787 2.25566C10.3164 2.133 10.8523 2.47009 10.975 3.00858ZM13.025 3.00858C13.1476 2.47009 13.6836 2.133 14.2221 2.25566C15.3196 2.50567 16.3666 2.94037 17.3185 3.54119C17.7855 3.83598 17.9251 4.45356 17.6303 4.92059C17.3355 5.38762 16.718 5.52724 16.2509 5.23245C15.4907 4.75257 14.6544 4.40539 13.7779 4.20571C13.2394 4.08305 12.9023 3.54707 13.025 3.00858ZM19.0795 6.36954C19.5466 6.07482 20.1641 6.21453 20.4588 6.6816C21.6681 8.59798 22.1898 10.8686 21.9382 13.1206C21.6867 15.3726 20.6768 17.4722 19.0745 19.0745C17.4722 20.6768 15.3726 21.6867 13.1206 21.9382C10.8686 22.1898 8.59798 21.6681 6.6816 20.4588C6.21453 20.1641 6.07482 19.5466 6.36954 19.0795C6.66427 18.6124 7.28183 18.4727 7.7489 18.7674C9.28155 19.7346 11.0975 20.1518 12.8986 19.9506C14.6997 19.7494 16.3788 18.9418 17.6603 17.6603C18.9418 16.3788 19.7494 14.6997 19.9506 12.8986C20.1518 11.0975 19.7346 9.28156 18.7674 7.7489C18.4727 7.28183 18.6124 6.66427 19.0795 6.36954ZM4.92059 6.36962C5.38762 6.66441 5.52724 7.28199 5.23245 7.74902C4.75258 8.50926 4.40539 9.34552 4.20571 10.2221C4.08305 10.7606 3.54707 11.0977 3.00858 10.975C2.47009 10.8523 2.133 10.3164 2.25567 9.77787C2.50567 8.68037 2.94037 7.63333 3.54119 6.68148C3.83598 6.21445 4.45356 6.07483 4.92059 6.36962ZM12 8.99998C12.5523 8.99998 13 9.44769 13 9.99998V11H14C14.5523 11 15 11.4477 15 12C15 12.5523 14.5523 13 14 13H13V14C13 14.5523 12.5523 15 12 15C11.4477 15 11 14.5523 11 14V13H9.99998C9.44769 13 8.99998 12.5523 8.99998 12C8.99998 11.4477 9.44769 11 9.99998 11H11V9.99998C11 9.44769 11.4477 8.99998 12 8.99998ZM3.00858 13.025C3.54707 12.9023 4.08304 13.2394 4.20571 13.7779C4.40539 14.6544 4.75258 15.4907 5.23245 16.2509C5.52724 16.718 5.38761 17.3355 4.92059 17.6303C4.45356 17.9251 3.83598 17.7855 3.54119 17.3185C2.94037 16.3666 2.50567 15.3196 2.25567 14.2221C2.133 13.6836 2.47009 13.1476 3.00858 13.025Z" fill="currentColor"/>
</svg>
