<svg viewBox="0 0 16 16" fill="none" xmlns="http://www.w3.org/2000/svg">
<path d="M7.54097 2.83359C7.63297 3.23745 7.38015 3.63943 6.97628 3.73143C6.50366 3.83909 6.05278 4.02629 5.64288 4.28502C5.29261 4.50611 4.82942 4.4014 4.60833 4.05113C4.38723 3.70086 4.49195 3.23767 4.84222 3.01658C5.39583 2.66713 6.0048 2.4143 6.64313 2.2689C7.047 2.1769 7.44897 2.42972 7.54097 2.83359ZM8.32951 2.83359C8.42151 2.42972 8.82349 2.1769 9.22736 2.2689C9.86568 2.4143 10.4747 2.66713 11.0283 3.01658C11.3785 3.23767 11.4833 3.70086 11.2622 4.05113C11.0411 4.4014 10.5779 4.50611 10.2276 4.28502C9.81771 4.02629 9.36682 3.83909 8.8942 3.73143C8.49033 3.63943 8.23751 3.23745 8.32951 2.83359ZM11.8194 4.60827C12.1697 4.38722 12.6329 4.49201 12.854 4.84231C13.5572 5.95671 13.8605 7.27711 13.7143 8.58669C13.568 9.89627 12.9807 11.1172 12.049 12.049C11.1172 12.9807 9.89627 13.568 8.58669 13.7143C7.27711 13.8605 5.95671 13.5572 4.84231 12.854C4.49201 12.6329 4.38722 12.1697 4.60827 11.8194C4.82932 11.4691 5.29249 11.3644 5.64279 11.5854C6.46939 12.107 7.4488 12.332 8.42017 12.2235C9.39155 12.115 10.2972 11.6794 10.9883 10.9883C11.6794 10.2972 12.115 9.39155 12.2235 8.42017C12.332 7.4488 12.107 6.46939 11.5854 5.64279C11.3644 5.29249 11.4691 4.82932 11.8194 4.60827ZM4.05113 4.60833C4.4014 4.82942 4.50611 5.2926 4.28502 5.64288C4.02629 6.05278 3.83909 6.50366 3.73143 6.97628C3.63943 7.38015 3.23745 7.63297 2.83359 7.54097C2.42972 7.44897 2.1769 7.04699 2.2689 6.64313C2.4143 6.0048 2.66713 5.39583 3.01658 4.84222C3.23767 4.49195 3.70085 4.38723 4.05113 4.60833ZM7.93524 6.05971C8.34946 6.05971 8.68524 6.39549 8.68524 6.80971V7.18524H9.06078C9.47499 7.18524 9.81078 7.52103 9.81078 7.93524C9.81078 8.34946 9.47499 8.68524 9.06078 8.68524H8.68524V9.06078C8.68524 9.47499 8.34946 9.81078 7.93524 9.81078C7.52103 9.81078 7.18524 9.47499 7.18524 9.06078V8.68524H6.80971C6.39549 8.68524 6.05971 8.34946 6.05971 7.93524C6.05971 7.52103 6.39549 7.18524 6.80971 7.18524H7.18524V6.80971C7.18524 6.39549 7.52103 6.05971 7.93524 6.05971ZM2.83358 8.32951C3.23745 8.23751 3.63943 8.49033 3.73143 8.8942C3.83909 9.36682 4.02629 9.81771 4.28502 10.2276C4.50611 10.5779 4.4014 11.0411 4.05112 11.2622C3.70085 11.4833 3.23767 11.3785 3.01657 11.0283C2.66713 10.4746 2.41431 9.86568 2.2689 9.22736C2.1769 8.82349 2.42972 8.42151 2.83358 8.32951Z" fill="currentColor"/>
</svg>
