<svg viewBox="0 0 32 32" fill="none" xmlns="http://www.w3.org/2000/svg">
<path d="M14.3617 3.72264C14.515 4.39576 14.0937 5.06572 13.4206 5.21905C12.2255 5.49128 11.0854 5.96461 10.049 6.61883C9.46518 6.98732 8.69321 6.81279 8.32471 6.22901C7.95622 5.64522 8.13075 4.87325 8.71454 4.50476C9.99051 3.69935 11.3941 3.11663 12.8653 2.7815C13.5384 2.62816 14.2084 3.04953 14.3617 3.72264ZM17.3267 3.72264C17.4801 3.04953 18.15 2.62816 18.8231 2.7815C20.2944 3.11663 21.6979 3.69935 22.9739 4.50476C23.5577 4.87325 23.7322 5.64522 23.3637 6.22901C22.9952 6.81279 22.2233 6.98732 21.6395 6.61883C20.603 5.96461 19.4629 5.49128 18.2679 5.21905C17.5948 5.06572 17.1734 4.39576 17.3267 3.72264ZM6.22876 8.32496C6.81255 8.69345 6.98708 9.46542 6.61859 10.0492C5.96436 11.0857 5.49103 12.2258 5.21881 13.4208C5.06548 14.0939 4.39551 14.5153 3.7224 14.362C3.04929 14.2086 2.62792 13.5387 2.78125 12.8655C3.11639 11.3943 3.6991 9.99076 4.50451 8.71478C4.873 8.131 5.64498 7.95647 6.22876 8.32496ZM25.4598 8.32487C26.0437 7.95646 26.8156 8.13109 27.184 8.71493C28.8051 11.284 29.5045 14.3279 29.1672 17.3469C28.83 20.3659 27.4762 23.1805 25.3282 25.3285C23.1802 27.4765 20.3656 28.8303 17.3466 29.1675C14.3277 29.5047 11.2837 28.8054 8.71468 27.1843C8.13085 26.8158 7.95621 26.0439 8.32462 25.4601C8.69303 24.8762 9.46498 24.7016 10.0488 25.07C12.1382 26.3884 14.6138 26.9572 17.0691 26.6829C19.5244 26.4087 21.8135 25.3077 23.5605 23.5607C25.3074 21.8137 26.4084 19.5247 26.6827 17.0693C26.957 14.614 26.3882 12.1384 25.0698 10.0491C24.7013 9.46522 24.876 8.69328 25.4598 8.32487ZM15.8442 11.8932C16.5346 11.8932 17.0942 12.4528 17.0942 13.1432V14.5945H18.5455C19.2359 14.5945 19.7955 15.1541 19.7955 15.8445C19.7955 16.5348 19.2359 17.0945 18.5455 17.0945H17.0942V18.5457C17.0942 19.2361 16.5346 19.7957 15.8442 19.7957C15.1539 19.7957 14.5942 19.2361 14.5942 18.5457V17.0945H13.1429C12.4526 17.0945 11.8929 16.5348 11.8929 15.8445C11.8929 15.1541 12.4526 14.5945 13.1429 14.5945H14.5942V13.1432C14.5942 12.4528 15.1539 11.8932 15.8442 11.8932ZM3.72239 17.327C4.39551 17.1736 5.06547 17.595 5.21881 18.2681C5.49104 19.4632 5.96437 20.6033 6.61859 21.6397C6.98708 22.2235 6.81255 22.9955 6.22876 23.364C5.64497 23.7325 4.873 23.5579 4.50451 22.9741C3.69911 21.6982 3.11639 20.2946 2.78125 18.8234C2.62792 18.1503 3.04928 17.4803 3.72239 17.327Z" fill="currentColor"/>
</svg>
