<svg viewBox="0 0 24 24" fill="none" xmlns="http://www.w3.org/2000/svg">
<path d="M17 2C19.2091 2 21 3.79086 21 6V10C21 10.5523 20.5523 11 20 11C19.4477 11 19 10.5523 19 10V6C19 4.89543 18.1046 4 17 4H6C4.89543 4 4 4.89543 4 6V18C4 19.1046 4.89543 20 6 20H9C9.55228 20 10 20.4477 10 21C10 21.5523 9.55228 22 9 22H6C3.79086 22 2 20.2091 2 18V6C2 3.79086 3.79086 2 6 2H17Z" fill="currentColor"/>
<path d="M15.5654 12.4189C16.4636 11.8197 17.6577 11.8631 18.5137 12.5479L21.0615 14.5859L21.1699 14.6777C21.6965 15.1503 21.9999 15.8261 22 16.5381V20C22 21.1046 21.1046 22 20 22H14C12.8954 22 12 21.1046 12 20V16.4619C12 15.7025 12.3455 14.9842 12.9385 14.5098L15.3906 12.5479L15.5654 12.4189ZM17.2646 14.1094C17.105 13.9816 16.8863 13.9659 16.7119 14.0615L16.6396 14.1094L14.1875 16.0713C14.069 16.1662 14 16.3101 14 16.4619V20H20V16.5381C19.9999 16.4242 19.961 16.315 19.8916 16.2275L19.8125 16.1475L17.2646 14.1094Z" fill="currentColor"/>
<path d="M9 15C9.55228 15 10 15.4477 10 16C10 16.5523 9.55228 17 9 17H7C6.44772 17 6 16.5523 6 16C6 15.4477 6.44772 15 7 15H9Z" fill="currentColor"/>
<path d="M12 11C12.5523 11 13 11.4477 13 12C13 12.5523 12.5523 13 12 13H7C6.44772 13 6 12.5523 6 12C6 11.4477 6.44772 11 7 11H12Z" fill="currentColor"/>
<path d="M16 7C16.5523 7 17 7.44772 17 8C17 8.55228 16.5523 9 16 9H7C6.44772 9 6 8.55228 6 8C6 7.44772 6.44772 7 7 7H16Z" fill="currentColor"/>
</svg>
