<svg viewBox="0 0 24 24" fill="none" xmlns="http://www.w3.org/2000/svg">
<path d="M19 11.439L12 17.039V24H3C2.73478 24 2.48043 23.8946 2.29289 23.7071C2.10536 23.5196 2 23.2652 2 23V1C2 0.734784 2.10536 0.48043 2.29289 0.292893C2.48043 0.105357 2.73478 0 3 0H21C21.2652 0 21.5196 0.105357 21.7071 0.292893C21.8946 0.48043 22 0.734784 22 1V13.839L19 11.439ZM17.953 6H6V8H17.953V6ZM6 18H10V16H6V18ZM6 11V13H14V11H6Z" fill="currentColor"/>
<path d="M19 14L24 18V23C24 23.2652 23.8946 23.5196 23.7071 23.7071C23.5196 23.8946 23.2652 24 23 24H20V21H18V24H15C14.7348 24 14.4804 23.8946 14.2929 23.7071C14.1054 23.5196 14 23.2652 14 23V18L19 14Z" fill="currentColor"/>
</svg>
