<svg viewBox="0 0 32 32" fill="none" xmlns="http://www.w3.org/2000/svg">
<path d="M25.3334 15.252L16.0001 22.7187V32H4.00008C3.64646 32 3.30732 31.8595 3.05727 31.6095C2.80722 31.3594 2.66675 31.0203 2.66675 30.6667V1.33333C2.66675 0.979711 2.80722 0.640573 3.05727 0.390524C3.30732 0.140476 3.64646 0 4.00008 0H28.0001C28.3537 0 28.6928 0.140476 28.9429 0.390524C29.1929 0.640573 29.3334 0.979711 29.3334 1.33333V18.452L25.3334 15.252ZM23.9374 8H8.00008V10.6667H23.9374V8ZM8.00008 24H13.3334V21.3333H8.00008V24ZM8.00008 14.6667V17.3333H18.6667V14.6667H8.00008Z" fill="currentColor"/>
<path d="M25.3334 18.6665L32.0001 23.9998V30.6665C32.0001 31.0201 31.8596 31.3593 31.6096 31.6093C31.3595 31.8594 31.0204 31.9998 30.6667 31.9998H26.6667V27.9998H24.0001V31.9998H20.0001C19.6465 31.9998 19.3073 31.8594 19.0573 31.6093C18.8072 31.3593 18.6667 31.0201 18.6667 30.6665V23.9998L25.3334 18.6665Z" fill="currentColor"/>
</svg>
