<svg viewBox="0 0 16 16" fill="none" xmlns="http://www.w3.org/2000/svg">
<path d="M12.6668 7.626L8.00016 11.3593V16H2.00016C1.82335 16 1.65378 15.9298 1.52876 15.8047C1.40373 15.6797 1.3335 15.5101 1.3335 15.3333V0.666667C1.3335 0.489856 1.40373 0.320286 1.52876 0.195262C1.65378 0.0702379 1.82335 0 2.00016 0H14.0002C14.177 0 14.3465 0.0702379 14.4716 0.195262C14.5966 0.320286 14.6668 0.489856 14.6668 0.666667V9.226L12.6668 7.626ZM11.9688 4H4.00016V5.33333H11.9688V4ZM4.00016 12H6.66683V10.6667H4.00016V12ZM4.00016 7.33333V8.66667H9.3335V7.33333H4.00016Z" fill="currentColor"/>
<path d="M12.6666 9.3335L15.9999 12.0002V15.3335C15.9999 15.5103 15.9297 15.6799 15.8047 15.8049C15.6796 15.9299 15.5101 16.0002 15.3333 16.0002H13.3333V14.0002H11.9999V16.0002H9.99992C9.82311 16.0002 9.65354 15.9299 9.52851 15.8049C9.40349 15.6799 9.33325 15.5103 9.33325 15.3335V12.0002L12.6666 9.3335Z" fill="currentColor"/>
</svg>
