<svg viewBox="0 0 16 16" fill="none" xmlns="http://www.w3.org/2000/svg">
<path d="M11.333 1.25C12.8518 1.25 14.083 2.48122 14.083 4V6.66699C14.0828 7.08106 13.7471 7.41699 13.333 7.41699C12.9191 7.41682 12.5832 7.08095 12.583 6.66699V4C12.583 3.30964 12.0234 2.75 11.333 2.75H4C3.30964 2.75 2.75 3.30964 2.75 4V12C2.75 12.6904 3.30964 13.25 4 13.25H6L6.07715 13.2539C6.45512 13.2925 6.75 13.6118 6.75 14C6.75 14.3882 6.45512 14.7075 6.07715 14.7461L6 14.75H4C2.48122 14.75 1.25 13.5188 1.25 12V4C1.25 2.48122 2.48122 1.25 4 1.25H11.333Z" fill="currentColor"/>
<path d="M10.3311 8.21094C10.9598 7.7913 11.7952 7.8214 12.3945 8.30078L14.0938 9.65918L14.2412 9.79199C14.5651 10.1179 14.75 10.5615 14.75 11.0264V13.334C14.7496 14.1158 14.1158 14.7496 13.334 14.75H9.33398C8.55185 14.75 7.91743 14.116 7.91699 13.334V10.9746C7.91702 10.443 8.15909 9.94048 8.57422 9.6084L10.208 8.30078L10.3311 8.21094ZM11.2197 9.43066L11.1455 9.47168L9.51074 10.7793C9.45146 10.8267 9.41702 10.8987 9.41699 10.9746V13.25H13.25V11.0264C13.25 10.9695 13.2309 10.9138 13.1963 10.8701L13.1562 10.8311L11.458 9.47168C11.3895 9.41689 11.299 9.40325 11.2197 9.43066Z" fill="currentColor"/>
<path d="M6.07715 9.9209C6.45498 9.95954 6.74984 10.279 6.75 10.667C6.74975 11.0549 6.45495 11.3745 6.07715 11.4131L6 11.417H4.66699C4.25294 11.417 3.91726 11.081 3.91699 10.667C3.91717 10.2529 4.25289 9.91699 4.66699 9.91699H6L6.07715 9.9209Z" fill="currentColor"/>
<path d="M8.07715 7.25391C8.45498 7.29254 8.74984 7.612 8.75 8C8.74975 8.38794 8.45495 8.70748 8.07715 8.74609L8 8.75H4.66699C4.25294 8.75 3.91726 8.41399 3.91699 8C3.91717 7.58594 4.25289 7.25 4.66699 7.25H8L8.07715 7.25391Z" fill="currentColor"/>
<path d="M10.7441 4.58691C11.1218 4.62568 11.4168 4.9451 11.417 5.33301C11.417 5.72104 11.1219 6.0403 10.7441 6.0791L10.667 6.08301H4.66699C4.25278 6.08301 3.91699 5.74722 3.91699 5.33301C3.91717 4.91894 4.25289 4.58301 4.66699 4.58301H10.667L10.7441 4.58691Z" fill="currentColor"/>
</svg>
