<svg viewBox="0 0 32 32" fill="none" xmlns="http://www.w3.org/2000/svg">
<path d="M20.8008 16.6289C21.9684 15.8503 23.5202 15.9058 24.6328 16.7959L28.0303 19.5137L28.1709 19.6328C28.8555 20.2472 29.25 21.1261 29.25 22.0518V26.667C29.2497 28.0935 28.0926 29.251 26.666 29.251H18.666C17.2398 29.2506 16.0833 28.0933 16.083 26.667V21.9492C16.0831 20.9621 16.5321 20.0279 17.3027 19.4111L20.5723 16.7959L20.8008 16.6289ZM23.0713 18.748C22.8315 18.5562 22.503 18.5327 22.2412 18.6768L22.1338 18.748L18.8643 21.3633C18.6867 21.5056 18.5831 21.7216 18.583 21.9492V26.667C18.5833 26.7126 18.6205 26.7506 18.666 26.751H26.666C26.7119 26.751 26.7497 26.7128 26.75 26.667V22.0518C26.75 21.8523 26.6704 21.6622 26.5312 21.5225L26.4678 21.4658L23.0713 18.748Z" fill="currentColor"/>
<path d="M22.667 2.75C25.5663 2.75018 27.917 5.10061 27.917 8V13.333C27.917 14.0233 27.3572 14.5828 26.667 14.583C25.9766 14.583 25.417 14.0234 25.417 13.333V8C25.417 6.48133 24.1856 5.25018 22.667 5.25H8C6.48122 5.25 5.25 6.48122 5.25 8V24C5.25 25.5188 6.48122 26.75 8 26.75H12L12.1279 26.7568C12.7582 26.8209 13.25 27.3528 13.25 28C13.25 28.6472 12.7582 29.1791 12.1279 29.2432L12 29.25H8C5.10051 29.25 2.75 26.8995 2.75 24V8C2.75 5.10051 5.10051 2.75 8 2.75H22.667Z" fill="currentColor"/>
<path d="M12.1279 20.0898C12.758 20.154 13.25 20.6869 13.25 21.334C13.2496 21.9807 12.7578 22.513 12.1279 22.5771L12 22.584H9.33301C8.64309 22.5838 8.08345 22.0238 8.08301 21.334C8.08301 20.6438 8.64282 20.0842 9.33301 20.084H12L12.1279 20.0898Z" fill="currentColor"/>
<path d="M16.1279 14.7568C16.758 14.821 17.25 15.3539 17.25 16.001C17.2496 16.6477 16.7578 17.1799 16.1279 17.2441L16 17.251H9.33301C8.64309 17.2508 8.08345 16.6908 8.08301 16.001C8.08301 15.3107 8.64282 14.7512 9.33301 14.751H16L16.1279 14.7568Z" fill="currentColor"/>
<path d="M21.4609 9.42285C22.0912 9.48691 22.583 10.0198 22.583 10.667C22.5828 11.314 22.0911 11.8461 21.4609 11.9102L21.333 11.917H9.33301C8.64293 11.9168 8.08318 11.3571 8.08301 10.667C8.08301 9.97676 8.64282 9.41719 9.33301 9.41699H21.333L21.4609 9.42285Z" fill="currentColor"/>
</svg>
