<svg viewBox="0 0 32 32" fill="none" xmlns="http://www.w3.org/2000/svg">
<path d="M3.33301 20.1133C4.02336 20.1133 4.58301 20.6729 4.58301 21.3633V26.001C4.58347 26.7835 5.21742 27.4169 6 27.417H10.6367L10.7646 27.4238C11.3949 27.4878 11.8866 28.0199 11.8867 28.667C11.8865 29.314 11.3949 29.8472 10.7646 29.9111L10.6367 29.917H6C3.83671 29.9169 2.08347 28.1642 2.08301 26.001V21.3633C2.08301 20.673 2.64276 20.1134 3.33301 20.1133Z" fill="currentColor"/>
<path d="M28.666 20.1133C29.3564 20.1133 29.916 20.6729 29.916 21.3633V26.001C29.9156 28.1642 28.1632 29.9168 26 29.917H21.3623C20.6722 29.9169 20.1126 29.357 20.1123 28.667C20.1125 27.9769 20.6722 27.4171 21.3623 27.417H26C26.7825 27.4168 27.4156 26.7834 27.416 26.001V21.3633C27.416 20.6731 27.9759 20.1136 28.666 20.1133Z" fill="currentColor"/>
<path d="M17.8359 22.9795C18.3071 22.5952 18.981 22.5871 19.4619 22.9531C19.4754 22.9632 19.4898 22.9727 19.5029 22.9834L19.5977 23.0693L19.6885 23.1699C20.1097 23.6871 20.0795 24.4498 19.5977 24.9316C19.0835 25.4455 18.2495 25.4455 17.7354 24.9316C17.2214 24.4175 17.2215 23.5835 17.7354 23.0693L17.8359 22.9795Z" fill="currentColor"/>
<path d="M23.1699 22.9795C23.6411 22.5953 24.315 22.5871 24.7959 22.9531C24.8093 22.9631 24.8239 22.9728 24.8369 22.9834L24.9316 23.0693L25.0225 23.1699C25.4435 23.6871 25.4134 24.4499 24.9316 24.9316C24.4176 25.4457 23.5836 25.4453 23.0693 24.9316C22.5553 24.4174 22.5552 23.5835 23.0693 23.0693L23.1699 22.9795Z" fill="currentColor"/>
<path d="M13.4609 17.4238C14.0913 17.4878 14.583 18.0197 14.583 18.667V24C14.5827 24.6901 14.0232 25.25 13.333 25.25H8C7.30981 25.25 6.75026 24.6901 6.75 24V18.667L6.75684 18.5391C6.82092 17.9088 7.35285 17.417 8 17.417H13.333L13.4609 17.4238ZM9.25 22.75H12.083V19.917H9.25V22.75Z" fill="currentColor"/>
<path d="M20.5029 20.3125C20.9741 19.9282 21.648 19.9201 22.1289 20.2861C22.1423 20.2962 22.1568 20.3057 22.1699 20.3164L22.2646 20.4023L22.3555 20.5029C22.7766 21.0201 22.7465 21.7828 22.2646 22.2646C21.7506 22.7786 20.9165 22.7784 20.4023 22.2646C19.8884 21.7505 19.8883 20.9165 20.4023 20.4023L20.5029 20.3125Z" fill="currentColor"/>
<path d="M17.8359 17.6455C18.3071 17.2612 18.981 17.2531 19.4619 17.6191C19.4755 17.6293 19.4897 17.6386 19.5029 17.6494L19.5977 17.7354L19.6885 17.8359C20.11 18.3531 20.0796 19.1157 19.5977 19.5977C19.0835 20.1118 18.2495 20.1118 17.7354 19.5977C17.2213 19.0835 17.2212 18.2495 17.7354 17.7354L17.8359 17.6455Z" fill="currentColor"/>
<path d="M23.1699 17.6455C23.6411 17.2615 24.3151 17.2532 24.7959 17.6191C24.8094 17.6292 24.8238 17.6387 24.8369 17.6494L24.9316 17.7354L25.0225 17.8359C25.4437 18.353 25.4133 19.1158 24.9316 19.5977C24.4175 20.1118 23.5835 20.1116 23.0693 19.5977C22.5553 19.0835 22.5552 18.2495 23.0693 17.7354L23.1699 17.6455Z" fill="currentColor"/>
<path d="M24 6.75098C24.6904 6.75098 25.25 7.31062 25.25 8.00098V13.334L25.2432 13.4619C25.1789 14.0919 24.647 14.584 24 14.584H18.667L18.5391 14.5771C17.9088 14.5132 17.4172 13.981 17.417 13.334V8C17.4173 7.30987 17.9768 6.75 18.667 6.75L24 6.75098ZM19.917 12.084H22.75V9.25098L19.917 9.25V12.084Z" fill="currentColor"/>
<path d="M13.4609 6.75684C14.0913 6.82077 14.583 7.35274 14.583 8V13.333C14.583 14.0234 14.0234 14.583 13.333 14.583H8C7.30964 14.583 6.75 14.0234 6.75 13.333V8L6.75684 7.87207C6.82092 7.24183 7.35285 6.75 8 6.75H13.333L13.4609 6.75684ZM9.25 12.083H12.083V9.25H9.25V12.083Z" fill="currentColor"/>
<path d="M10.7646 2.09082C11.395 2.15478 11.8867 2.68673 11.8867 3.33398C11.8865 3.98101 11.3949 4.51321 10.7646 4.57715L10.6367 4.58398H6C5.21713 4.58412 4.58301 5.21808 4.58301 6.00098V10.6377C4.58274 11.3278 4.0232 11.8877 3.33301 11.8877C2.64293 11.8876 2.08327 11.3277 2.08301 10.6377V6.00098C2.08301 3.83737 3.83642 2.08314 6 2.08301H10.6367L10.7646 2.09082Z" fill="currentColor"/>
<path d="M26 2.08301C28.1635 2.0832 29.916 3.83741 29.916 6.00098V10.6377C29.9158 11.3278 29.3562 11.8877 28.666 11.8877C27.9761 11.8874 27.4163 11.3276 27.416 10.6377V6.00098C27.416 5.21812 26.7828 4.58418 26 4.58398H21.3623C20.6722 4.58385 20.1126 4.02403 20.1123 3.33398C20.1123 2.64371 20.6721 2.08314 21.3623 2.08301H26Z" fill="currentColor"/>
</svg>
