<svg viewBox="0 0 16 16" fill="none" xmlns="http://www.w3.org/2000/svg">
<path d="M1.66699 9.93164C2.08109 9.93177 2.41699 10.2675 2.41699 10.6816V13C2.41726 13.3221 2.67786 13.5838 3 13.584H5.31934L5.39551 13.5879C5.77362 13.6264 6.06934 13.9457 6.06934 14.334C6.06891 14.7219 5.77343 15.0417 5.39551 15.0801L5.31934 15.084H3C1.84943 15.0838 0.917256 14.1505 0.916992 13V10.6816C0.916992 10.2674 1.25278 9.93164 1.66699 9.93164Z" fill="currentColor"/>
<path d="M14.334 9.93164C14.7479 9.93196 15.084 10.2676 15.084 10.6816V13C15.0837 14.1506 14.1506 15.0839 13 15.084H10.6816C10.2677 15.084 9.93209 14.7478 9.93164 14.334C9.93164 13.9198 10.2674 13.584 10.6816 13.584H13C13.3222 13.5839 13.5837 13.3221 13.584 13V10.6816C13.584 10.2674 13.9198 9.93164 14.334 9.93164Z" fill="currentColor"/>
<path d="M8.83887 11.3926C9.1268 11.1577 9.54283 11.1584 9.83008 11.3945L9.8877 11.4463L9.94141 11.5059C10.192 11.8135 10.1743 12.268 9.8877 12.5547C9.5819 12.8602 9.08516 12.8601 8.7793 12.5547C8.47347 12.2489 8.47363 11.7522 8.7793 11.4463L8.83887 11.3926Z" fill="currentColor"/>
<path d="M11.5059 11.3926C11.7938 11.1577 12.2098 11.1584 12.4971 11.3945L12.5547 11.4463L12.6084 11.5059C12.8589 11.8135 12.8413 12.2681 12.5547 12.5547C12.2489 12.8603 11.7522 12.86 11.4463 12.5547C11.1404 12.2488 11.1405 11.7522 11.4463 11.4463L11.5059 11.3926Z" fill="currentColor"/>
<path d="M6.74316 8.58789C7.12142 8.62624 7.41699 8.94561 7.41699 9.33398V12.001C7.41655 12.4147 7.08078 12.7508 6.66699 12.751H4C3.58606 12.751 3.25044 12.4148 3.25 12.001V9.33398L3.25391 9.25684C3.29253 8.87887 3.61183 8.58398 4 8.58398H6.66699L6.74316 8.58789ZM4.75 11.251H5.91699V10.084H4.75V11.251Z" fill="currentColor"/>
<path d="M10.1719 10.0596C10.4598 9.82473 10.8758 9.82541 11.1631 10.0615L11.2207 10.1133L11.2744 10.1729C11.5251 10.4805 11.5074 10.935 11.2207 11.2217C10.9149 11.5271 10.4181 11.5272 10.1123 11.2217C9.80652 10.9159 9.80676 10.4192 10.1123 10.1133L10.1719 10.0596Z" fill="currentColor"/>
<path d="M8.83887 8.72559C9.1268 8.49074 9.54283 8.49143 9.83008 8.72754L9.8877 8.7793L9.94141 8.83887C10.1922 9.14654 10.1744 9.60095 9.8877 9.8877C9.58184 10.1936 9.08522 10.1934 8.7793 9.8877C8.47339 9.58178 8.47339 9.08521 8.7793 8.7793L8.83887 8.72559Z" fill="currentColor"/>
<path d="M11.5059 8.72559C11.7938 8.49086 12.2099 8.49147 12.4971 8.72754L12.5547 8.7793L12.6084 8.83887C12.8591 9.14649 12.8413 9.60098 12.5547 9.8877C12.2489 10.1935 11.7522 10.1933 11.4463 9.8877C11.1404 9.58178 11.1404 9.08521 11.4463 8.7793L11.5059 8.72559Z" fill="currentColor"/>
<path d="M6.74316 3.25391C7.12144 3.29223 7.41699 3.61161 7.41699 4V6.66699C7.41682 7.08095 7.08095 7.41682 6.66699 7.41699H4C3.58589 7.41699 3.25018 7.08106 3.25 6.66699V4L3.25391 3.92285C3.29253 3.54488 3.61183 3.25 4 3.25H6.66699L6.74316 3.25391ZM4.75 5.91699H5.91699V4.75H4.75V5.91699Z" fill="currentColor"/>
<path d="M12 3.25C12.4141 3.25 12.7498 3.58594 12.75 4V6.66699L12.7461 6.74414C12.7072 7.12188 12.388 7.41699 12 7.41699H9.33301L9.25684 7.41309C8.87872 7.37478 8.58326 7.05516 8.58301 6.66699V3.99902C8.58345 3.58529 8.91922 3.2492 9.33301 3.24902L12 3.25ZM10.083 5.91699H11.25V4.75H10.083V5.91699Z" fill="currentColor"/>
<path d="M5.39551 0.920898C5.77364 0.959365 6.06934 1.27871 6.06934 1.66699C6.06909 2.05509 5.77353 2.37468 5.39551 2.41309L5.31934 2.41699H3C2.67781 2.41717 2.41717 2.67781 2.41699 3V5.31934C2.41654 5.73309 2.08082 6.0692 1.66699 6.06934C1.25306 6.06934 0.917442 5.73317 0.916992 5.31934V3C0.917168 1.84938 1.84938 0.916191 3 0.916016H5.31934L5.39551 0.920898Z" fill="currentColor"/>
<path d="M13 0.916016C14.1507 0.916147 15.0838 1.84935 15.084 3V5.31934C15.0835 5.73297 14.7477 6.06902 14.334 6.06934C13.92 6.06934 13.5844 5.73317 13.584 5.31934V3C13.5838 2.67778 13.3222 2.41712 13 2.41699H10.6816C10.2676 2.41699 9.9319 2.08098 9.93164 1.66699C9.93164 1.25278 10.2674 0.916016 10.6816 0.916016H13Z" fill="currentColor"/>
</svg>
