<svg viewBox="0 0 24 24" fill="none" xmlns="http://www.w3.org/2000/svg">
<path d="M2.5 15.0225C3.05228 15.0225 3.5 15.4702 3.5 16.0225V19.5C3.50026 20.0525 3.94745 20.5 4.5 20.5H7.97754L8.08008 20.5059C8.58423 20.557 8.97731 20.9824 8.97754 21.5C8.97729 22.0176 8.58425 22.444 8.08008 22.4951L7.97754 22.5H4.5C2.84288 22.5 1.50026 21.1571 1.5 19.5V16.0225C1.5 15.4702 1.94772 15.0225 2.5 15.0225Z" fill="currentColor"/>
<path d="M21.5 15.0225C22.0521 15.0227 22.5 15.4703 22.5 16.0225V19.5C22.4997 21.1569 21.1569 22.4997 19.5 22.5H16.0225C15.4703 22.5 15.0227 22.0521 15.0225 21.5C15.0227 20.9479 15.4703 20.5 16.0225 20.5H19.5C20.0523 20.4997 20.4997 20.0523 20.5 19.5V16.0225C20.5 15.4703 20.9479 15.0227 21.5 15.0225Z" fill="currentColor"/>
<path d="M13.3369 17.1855C13.6978 16.891 14.2091 16.8723 14.5889 17.1299L14.667 17.1885L14.7422 17.2578L14.8115 17.333L14.8135 17.3369C15.1505 17.7493 15.1268 18.3575 14.7422 18.7422C14.3321 19.1522 13.6679 19.1522 13.2578 18.7422C12.8478 18.3321 12.8478 17.6679 13.2578 17.2578L13.3369 17.1855ZM13.2627 18.5996L13.3281 18.6719C13.3042 18.648 13.2827 18.6223 13.2617 18.5967L13.2627 18.5996Z" fill="currentColor"/>
<path d="M17.3369 17.1855C17.6978 16.891 18.2091 16.8723 18.5889 17.1299L18.667 17.1885L18.7422 17.2578L18.8115 17.333L18.8135 17.3369C19.1505 17.7493 19.1268 18.3575 18.7422 18.7422C18.3321 19.1522 17.6679 19.1522 17.2578 18.7422C16.8478 18.3321 16.8478 17.6679 17.2578 17.2578L17.3369 17.1855ZM17.2627 18.5996L17.3281 18.6719C17.3042 18.648 17.2827 18.6223 17.2617 18.5967L17.2627 18.5996Z" fill="currentColor"/>
<path d="M10.1025 13.0049C10.6067 13.0562 11 13.4823 11 14V18C11 18.5523 10.5523 19 10 19H6C5.44772 19 5 18.5523 5 18V14L5.00488 13.8975C5.05621 13.3933 5.48232 13 6 13H10L10.1025 13.0049ZM7 17H9V15H7V17Z" fill="currentColor"/>
<path d="M15.3369 15.1855C15.6978 14.891 16.2091 14.8723 16.5889 15.1299L16.667 15.1885L16.7422 15.2578L16.8115 15.333L16.8135 15.3369C17.1505 15.7493 17.1268 16.3575 16.7422 16.7422C16.3321 17.1522 15.6679 17.1522 15.2578 16.7422C14.8478 16.3321 14.8478 15.6679 15.2578 15.2578L15.3369 15.1855ZM15.2627 16.5996L15.3281 16.6719C15.3042 16.648 15.2827 16.6223 15.2617 16.5967L15.2627 16.5996Z" fill="currentColor"/>
<path d="M13.3369 13.1855C13.6978 12.891 14.2091 12.8723 14.5889 13.1299L14.667 13.1885L14.7422 13.2578L14.8115 13.333L14.8135 13.3369C15.1505 13.7493 15.1268 14.3575 14.7422 14.7422C14.3321 15.1522 13.6679 15.1522 13.2578 14.7422C12.8478 14.3321 12.8478 13.6679 13.2578 13.2578L13.3369 13.1855ZM13.2627 14.5996L13.3281 14.6719C13.3042 14.648 13.2827 14.6223 13.2617 14.5967L13.2627 14.5996Z" fill="currentColor"/>
<path d="M17.3369 13.1855C17.6978 12.891 18.2091 12.8723 18.5889 13.1299L18.667 13.1885L18.7422 13.2578L18.8115 13.333L18.8135 13.3369C19.1505 13.7493 19.1268 14.3575 18.7422 14.7422C18.3321 15.1522 17.6679 15.1522 17.2578 14.7422C16.8478 14.3321 16.8478 13.6679 17.2578 13.2578L17.3369 13.1855ZM17.2627 14.5996L17.3281 14.6719C17.3042 14.648 17.2827 14.6223 17.2617 14.5967L17.2627 14.5996Z" fill="currentColor"/>
<path d="M10.1025 5.00488C10.6067 5.05621 11 5.48232 11 6V10C11 10.5523 10.5523 11 10 11H6C5.44772 11 5 10.5523 5 10V6L5.00488 5.89746C5.05621 5.39333 5.48232 5 6 5H10L10.1025 5.00488ZM7 9H9V7H7V9Z" fill="currentColor"/>
<path d="M18 5C18.5523 5 19 5.44772 19 6V10L18.9951 10.1025C18.9438 10.6067 18.5177 11 18 11H14L13.8975 10.9951C13.3933 10.9438 13 10.5177 13 10V6C13 5.44772 13.4477 5 14 5H18ZM15 9H17V7H15V9Z" fill="currentColor"/>
<path d="M8.08008 1.50488C8.58443 1.556 8.97754 1.98217 8.97754 2.5C8.97754 3.01783 8.58443 3.444 8.08008 3.49512L7.97754 3.5H4.5C3.94728 3.5 3.5 3.94728 3.5 4.5V7.97754L3.49512 8.08008C3.444 8.58443 3.01783 8.97754 2.5 8.97754C1.98217 8.97754 1.556 8.58443 1.50488 8.08008L1.5 7.97754V4.5C1.5 2.84272 2.84272 1.5 4.5 1.5H7.97754L8.08008 1.50488Z" fill="currentColor"/>
<path d="M19.5 1.5C21.1571 1.50026 22.5 2.84288 22.5 4.5V7.97754C22.5 8.52966 22.0521 8.97728 21.5 8.97754C20.9479 8.97729 20.5 8.52967 20.5 7.97754V4.5C20.5 3.94745 20.0525 3.50026 19.5 3.5H16.0225C15.4702 3.5 15.0225 3.05228 15.0225 2.5C15.0225 1.94772 15.4702 1.5 16.0225 1.5H19.5Z" fill="currentColor"/>
</svg>
