<svg viewBox="0 0 32 32" fill="none" xmlns="http://www.w3.org/2000/svg">
<path d="M16.126 20.0898L16.127 20.0908C16.9396 20.1562 17.583 20.833 17.583 21.667C17.5828 22.5411 16.8741 23.2498 16 23.25C15.1803 23.2498 14.5057 22.6265 14.4248 21.8281L14.416 21.667C14.4145 20.8323 15.0588 20.1572 15.8682 20.0908C15.9108 20.0864 15.9543 20.083 15.998 20.083L16.126 20.0898ZM15.9053 22.5791L15.998 22.583C15.9659 22.583 15.9339 22.5805 15.9023 22.5781L15.9053 22.5791Z" fill="currentColor"/>
<path d="M16 9.19434C18.1635 9.19451 19.916 10.9477 19.916 13.1113C19.9157 14.8345 18.7836 15.74 18.0459 16.2373L18.0449 16.2383C17.7443 16.4403 17.549 16.6061 17.4248 16.7734C17.3216 16.9127 17.25 17.0751 17.25 17.334V17.667C17.2498 18.3571 16.6901 18.9168 16 18.917C15.3099 18.9168 14.7502 18.3571 14.75 17.667V17.334C14.75 15.588 15.8951 14.6707 16.6504 14.1631C16.943 13.9658 17.1309 13.805 17.25 13.6445C17.3483 13.5119 17.4159 13.3584 17.416 13.1113C17.416 12.3285 16.7828 11.6945 16 11.6943C15.2172 11.6945 14.583 12.3285 14.583 13.1113C14.5827 13.8014 14.0231 14.3613 13.333 14.3613C12.643 14.3612 12.0834 13.8013 12.083 13.1113C12.083 10.9477 13.8365 9.19451 16 9.19434Z" fill="currentColor"/>
<path d="M16 2.75C23.3184 2.75 29.25 8.68164 29.25 16C29.25 23.3184 23.3184 29.25 16 29.25C8.68164 29.25 2.75 23.3184 2.75 16C2.75 8.68164 8.68164 2.75 16 2.75ZM16 5.25C10.0624 5.25 5.25 10.0624 5.25 16C5.25 21.9376 10.0624 26.75 16 26.75C21.9376 26.75 26.75 21.9376 26.75 16C26.75 10.0624 21.9376 5.25 16 5.25Z" fill="currentColor"/>
</svg>
