<svg viewBox="0 0 16 16" fill="none" xmlns="http://www.w3.org/2000/svg">
<path d="M8.09277 9.9209C8.55408 9.96757 8.91683 10.3567 8.91699 10.833C8.91699 11.3391 8.50606 11.7498 8 11.75C7.5255 11.7498 7.13571 11.389 7.08887 10.9268L7.08398 10.833C7.08345 10.3511 7.45407 9.96183 7.9209 9.92188C7.94672 9.91918 7.97347 9.91699 8 9.91699L8.09277 9.9209Z" fill="currentColor"/>
<path d="M8 4.47168C9.15051 4.47186 10.0836 5.40421 10.084 6.55469C10.084 7.48182 9.4706 7.96759 9.09375 8.22168L9.09277 8.22266C8.94627 8.32111 8.86278 8.39464 8.81348 8.46094C8.77678 8.51039 8.75011 8.56542 8.75 8.66602V8.83301C8.75 9.24711 8.41406 9.58283 8 9.58301C7.61197 9.58284 7.2925 9.28804 7.25391 8.91016L7.25 8.83301V8.66602C7.25029 7.72827 7.86918 7.23683 8.25488 6.97754L8.42578 6.84961C8.46937 6.81206 8.50203 6.77857 8.52539 6.74707C8.55945 6.70096 8.58398 6.6494 8.58398 6.55469C8.58363 6.23264 8.32209 5.97185 8 5.97168C7.67791 5.97186 7.41734 6.23264 7.41699 6.55469C7.41699 6.96879 7.08106 7.30451 6.66699 7.30469C6.25278 7.30469 5.91699 6.9689 5.91699 6.55469C5.91734 5.40422 6.84949 4.47186 8 4.47168Z" fill="currentColor"/>
<path d="M8 1.25C11.7282 1.25 14.75 4.27179 14.75 8C14.75 11.7282 11.7282 14.75 8 14.75C4.27179 14.75 1.25 11.7282 1.25 8C1.25 4.27179 4.27179 1.25 8 1.25ZM8 2.75C5.10021 2.75 2.75 5.10021 2.75 8C2.75 10.8998 5.10021 13.25 8 13.25C10.8998 13.25 13.25 10.8998 13.25 8C13.25 5.10021 10.8998 2.75 8 2.75Z" fill="currentColor"/>
</svg>
