<svg viewBox="0 0 24 24" fill="none" xmlns="http://www.w3.org/2000/svg">
<path d="M12 1C5.935 1 1 5.935 1 12C1 18.065 5.935 23 12 23C18.065 23 23 18.065 23 12C23 5.935 18.065 1 12 1ZM12 18.5C11.311 18.5 10.75 17.939 10.75 17.25C10.75 16.561 11.311 16 12 16C12.689 16 13.25 16.561 13.25 17.25C13.25 17.939 12.689 18.5 12 18.5ZM14.19 12.018C13.488 12.536 13.103 12.847 12.99 13.533L12.995 14.501H10.862L10.992 13.377C11.197 11.738 12.242 10.97 13.006 10.408C13.78 9.838 14.154 9.527 14.183 8.693C14.227 7.376 13.235 7.047 12.395 7.005C11.303 6.946 10.494 7.554 10.211 8.624L9.958 9.591L8.023 9.084L8.277 8.116C8.799 6.121 10.457 4.898 12.497 5.007C14.808 5.126 16.254 6.6 16.181 8.762C16.119 10.601 15.005 11.421 14.191 12.019L14.19 12.018Z" fill="currentColor"/>
</svg>
