<svg viewBox="0 0 32 32" fill="none" xmlns="http://www.w3.org/2000/svg">
<path d="M16.0002 1.33301C7.9135 1.33301 1.3335 7.91301 1.3335 15.9997C1.3335 24.0863 7.9135 30.6663 16.0002 30.6663C24.0868 30.6663 30.6668 24.0863 30.6668 15.9997C30.6668 7.91301 24.0868 1.33301 16.0002 1.33301ZM16.0002 24.6663C15.0815 24.6663 14.3335 23.9183 14.3335 22.9997C14.3335 22.081 15.0815 21.333 16.0002 21.333C16.9188 21.333 17.6668 22.081 17.6668 22.9997C17.6668 23.9183 16.9188 24.6663 16.0002 24.6663ZM18.9202 16.0237C17.9842 16.7143 17.4708 17.129 17.3202 18.0437L17.3268 19.3343H14.4828L14.6562 17.8357C14.9295 15.6503 16.3228 14.6263 17.3415 13.877C18.3735 13.117 18.8722 12.7023 18.9108 11.5903C18.9695 9.83434 17.6468 9.39567 16.5268 9.33967C15.0708 9.26101 13.9922 10.0717 13.6148 11.4983L13.2775 12.7877L10.6975 12.1117L11.0362 10.821C11.7322 8.16101 13.9428 6.53034 16.6628 6.67567C19.7442 6.83434 21.6722 8.79967 21.5748 11.6823C21.4922 14.1343 20.0068 15.2277 18.9215 16.025L18.9202 16.0237Z" fill="currentColor"/>
</svg>
