<svg viewBox="0 0 24 24" fill="none" xmlns="http://www.w3.org/2000/svg">
<path d="M12.1016 15.0049L12.1064 15.0059C12.7452 15.0603 13.25 15.5936 13.25 16.25C13.25 16.9403 12.6903 17.5 12 17.5C11.3529 17.5 10.8209 17.0081 10.7568 16.3779L10.75 16.25C10.749 15.593 11.2542 15.0608 11.8906 15.0059C11.9262 15.002 11.9624 15 11.999 15L12.1016 15.0049Z" fill="currentColor"/>
<path d="M12 6.83301C13.6573 6.83301 15 8.17572 15 9.83301C15 11.1585 14.1276 11.8538 13.5703 12.2295L13.5684 12.2305C13.3448 12.3808 13.2058 12.5004 13.1191 12.6172C13.0491 12.7116 13 12.8199 13 13V13.25C13 13.8023 12.5523 14.25 12 14.25C11.4477 14.25 11 13.8023 11 13.25V13C11 11.6575 11.8826 10.9537 12.4531 10.5703C12.6708 10.4235 12.8048 10.3081 12.8877 10.1963C12.9541 10.1068 13 10.0043 13 9.83301C13 9.28029 12.5527 8.83301 12 8.83301C11.4819 8.83301 11.0561 9.226 11.0049 9.73047L10.9951 9.93555C10.9438 10.4397 10.5177 10.833 10 10.833C9.44772 10.833 9 10.3853 9 9.83301C9 8.17572 10.3427 6.83301 12 6.83301Z" fill="currentColor"/>
<path d="M12 2C17.5233 2 22 6.47672 22 12C22 17.5233 17.5233 22 12 22C6.47672 22 2 17.5233 2 12C2 6.47672 6.47672 2 12 2ZM12 4C7.58128 4 4 7.58128 4 12C4 16.4187 7.58128 20 12 20C16.4187 20 20 16.4187 20 12C20 7.58128 16.4187 4 12 4Z" fill="currentColor"/>
</svg>
