<svg viewBox="0 0 16 16" fill="none" xmlns="http://www.w3.org/2000/svg">
<path d="M8.00008 0.666992C3.95675 0.666992 0.666748 3.95699 0.666748 8.00033C0.666748 12.0437 3.95675 15.3337 8.00008 15.3337C12.0434 15.3337 15.3334 12.0437 15.3334 8.00033C15.3334 3.95699 12.0434 0.666992 8.00008 0.666992ZM8.00008 12.3337C7.54075 12.3337 7.16675 11.9597 7.16675 11.5003C7.16675 11.041 7.54075 10.667 8.00008 10.667C8.45941 10.667 8.83342 11.041 8.83342 11.5003C8.83342 11.9597 8.45941 12.3337 8.00008 12.3337ZM9.46008 8.01233C8.99208 8.35766 8.73541 8.56499 8.66008 9.02233L8.66341 9.66766H7.24142L7.32808 8.91833C7.46475 7.82566 8.16141 7.31366 8.67075 6.93899C9.18675 6.55899 9.43608 6.35166 9.45541 5.79566C9.48475 4.91766 8.82342 4.69833 8.26342 4.67033C7.53542 4.63099 6.99608 5.03633 6.80742 5.74966L6.63875 6.39433L5.34875 6.05633L5.51808 5.41099C5.86608 4.08099 6.97141 3.26566 8.33141 3.33833C9.87208 3.41766 10.8361 4.40033 10.7874 5.84166C10.7461 7.06766 10.0027 7.61366 9.46008 8.01233Z" fill="currentColor"/>
</svg>
