<svg viewBox="0 0 24 24" fill="none" xmlns="http://www.w3.org/2000/svg">
<path d="M23.2471 9.23772L14.7611 0.753724C14.5736 0.566253 14.3193 0.460938 14.0541 0.460938C13.7889 0.460937 13.5346 0.566253 13.3471 0.753724L10.5191 3.58172C10.3316 3.76925 10.2263 4.02356 10.2263 4.28872C10.2263 4.55389 10.3316 4.8082 10.5191 4.99572L11.7501 6.22772C11.8936 6.91199 11.8508 7.62222 11.6262 8.2843C11.4015 8.94638 11.0033 9.53604 10.4731 9.99172L1.73209 18.7317C1.26318 19.2006 0.999756 19.8366 0.999756 20.4997C0.999756 21.1629 1.26318 21.7988 1.73209 22.2677C2.20099 22.7366 2.83696 23.0001 3.50009 23.0001C4.16321 23.0001 4.79918 22.7366 5.26809 22.2677L14.0081 13.5267C14.4643 12.9971 15.0539 12.5992 15.7158 12.3745C16.3777 12.1497 17.0877 12.1063 17.7721 12.2487L19.0001 13.4807C19.1876 13.6682 19.4419 13.7735 19.7071 13.7735C19.9722 13.7735 20.2266 13.6682 20.4141 13.4807L23.2431 10.6517C23.4311 10.4647 23.5371 10.2107 23.5379 9.94555C23.5386 9.68039 23.434 9.42578 23.2471 9.23772ZM19.7111 11.3597L12.6401 4.28872L14.0541 2.87472L21.1251 9.94472L19.7111 11.3597Z" fill="currentColor"/>
</svg>
