<svg viewBox="0 0 24 24" fill="none" xmlns="http://www.w3.org/2000/svg">
<path d="M10.3617 6.25944C10.7278 5.89332 11.3068 5.87073 11.6996 6.19108L11.7757 6.25944L17.7416 12.2253L17.8099 12.3005C18.1303 12.6932 18.1077 13.2732 17.7416 13.6393C17.3754 14.0052 16.7954 14.028 16.4027 13.7077L16.3275 13.6393L10.3617 7.6735L10.2933 7.59733C9.97306 7.20466 9.99585 6.62557 10.3617 6.25944Z" fill="currentColor"/>
<path d="M9.59606 2.87467C10.7676 1.7033 12.6677 1.70317 13.8392 2.87467L21.1263 10.1618C22.2974 11.3333 22.2976 13.2335 21.1263 14.4049L18.5072 17.0231C17.3358 18.1943 15.4365 18.1942 14.265 17.0231L13.517 16.2751L12.6127 17.1803C12.0121 17.7804 11.2075 18.0505 10.4222 17.9928L6.70446 21.7116C6.31398 22.1016 5.6808 22.1017 5.29039 21.7116C4.90001 21.3212 4.90028 20.6881 5.29039 20.2975L6.08336 19.5036L4.49645 17.9167L3.70348 18.7096C3.31296 19.1002 2.67994 19.1002 2.28942 18.7096C1.89901 18.3191 1.89893 17.6861 2.28942 17.2956L6.00817 13.5758C6.00321 13.5081 5.99744 13.4401 5.99743 13.3717C5.99751 12.6277 6.29365 11.9136 6.81969 11.3874L7.72399 10.4821L6.97789 9.736C5.80632 8.56443 5.80632 6.66441 6.97789 5.49284L9.59606 2.87467ZM5.91051 16.5026L7.49743 18.0895L8.52477 17.0612L6.93786 15.4743L5.91051 16.5026ZM8.23375 12.8014C8.08282 12.9526 7.99751 13.1581 7.99743 13.3717C7.99747 13.4548 8.0129 13.536 8.03747 13.6139C8.04103 13.6253 8.04408 13.6367 8.04723 13.6481C8.07814 13.7329 8.12228 13.813 8.18004 13.8835L8.23375 13.9421L10.058 15.7663L10.1195 15.8219C10.1917 15.8808 10.2728 15.9227 10.3568 15.9528C10.3758 15.9581 10.3947 15.9639 10.4134 15.9704C10.6842 16.0453 10.9856 15.9789 11.1986 15.7663L12.1029 14.861L9.13805 11.8962L8.23375 12.8014ZM12.4242 4.28873C12.0337 3.89856 11.4006 3.89851 11.0101 4.28873L8.39196 6.90787C8.00163 7.29841 8.0015 7.93148 8.39196 8.32194L15.6791 15.609L15.7543 15.6774C16.147 15.9978 16.727 15.975 17.0931 15.609L19.7123 12.9899C20.102 12.5995 20.1021 11.9662 19.7123 11.5758L12.4242 4.28873Z" fill="currentColor"/>
</svg>
