<svg viewBox="0 0 16 16" fill="none" xmlns="http://www.w3.org/2000/svg">
<path d="M6.84883 4.11399C7.12337 3.83948 7.55817 3.82209 7.85273 4.06223L7.90937 4.11399L11.8859 8.09055L11.9377 8.14817C12.1777 8.44256 12.161 8.87651 11.8869 9.15109C11.6123 9.42566 11.1776 9.44305 10.883 9.20285L10.8254 9.15109L6.84883 5.17453L6.79707 5.11789C6.55693 4.82331 6.57429 4.38853 6.84883 4.11399Z" fill="currentColor"/>
<path d="M6.33808 1.85813C7.1516 1.04461 8.47076 1.04476 9.28437 1.85813L14.1418 6.71555C14.9554 7.52914 14.9564 8.84922 14.1428 9.66281L12.3967 11.4079C11.5831 12.2213 10.2639 12.2205 9.45039 11.407L9.01191 10.9685L8.46797 11.5134C8.05931 11.9219 7.51469 12.1098 6.97969 12.0808L5.5334 13.5271C5.53178 13.5287 5.53112 13.5313 5.52949 13.5329C5.52791 13.5345 5.52522 13.5353 5.52363 13.5368L4.52851 14.5329C4.23562 14.8258 3.76086 14.8258 3.46797 14.5329C3.17533 14.24 3.17516 13.7652 3.46797 13.4724L3.93769 13.0017L2.99824 12.0622L2.52754 12.5329C2.23464 12.8254 1.75975 12.8256 1.46699 12.5329C1.17429 12.2402 1.17454 11.7653 1.46699 11.4724L3.92011 9.01828C3.91828 8.98386 3.91524 8.94941 3.91523 8.91477C3.91529 8.39662 4.12118 7.89937 4.4875 7.53293L5.03144 6.98801L4.59297 6.54953C3.77968 5.736 3.77968 4.41678 4.59297 3.60324L6.33808 1.85813ZM4.05879 11.0017L4.99824 11.9411L5.56465 11.3747L4.62519 10.4343L4.05879 11.0017ZM5.54804 8.59348C5.46303 8.67861 5.41529 8.79445 5.41523 8.91477C5.4153 9.03506 5.46304 9.15094 5.54804 9.23606L6.76484 10.4529L6.83613 10.5105C7.0124 10.6267 7.25219 10.6078 7.40742 10.4529L7.95136 9.90793L6.09199 8.04856L5.54804 8.59348ZM8.22383 2.91867C7.996 2.6911 7.62636 2.69094 7.39863 2.91867L5.65351 4.66477C5.42605 4.89252 5.42603 5.26125 5.65351 5.48899L10.5109 10.3464C10.7387 10.5741 11.1083 10.5749 11.3361 10.3474L13.0822 8.60227C13.31 8.37454 13.3088 8.0049 13.0812 7.77707L8.22383 2.91867Z" fill="currentColor"/>
</svg>
