<svg viewBox="0 0 16 16" fill="none" xmlns="http://www.w3.org/2000/svg">
<path d="M15.4981 6.15881L9.84072 0.502808C9.7157 0.377827 9.54617 0.307617 9.36939 0.307617C9.19261 0.307617 9.02308 0.377827 8.89806 0.502808L7.01272 2.38814C6.88774 2.51316 6.81753 2.6827 6.81753 2.85947C6.81753 3.03625 6.88774 3.20579 7.01272 3.33081L7.83339 4.15214C7.92905 4.60832 7.90052 5.08181 7.75077 5.52319C7.60102 5.96458 7.33555 6.35768 6.98206 6.66148L1.15472 12.4881C0.842122 12.8007 0.666504 13.2247 0.666504 13.6668C0.666504 14.1089 0.842122 14.5329 1.15472 14.8455C1.46733 15.1581 1.8913 15.3337 2.33339 15.3337C2.77548 15.3337 3.19946 15.1581 3.51206 14.8455L9.33872 9.01814C9.64284 8.66504 10.0359 8.3998 10.4772 8.24998C10.9185 8.10015 11.3918 8.07121 11.8481 8.16614L12.6667 8.98748C12.7917 9.11246 12.9613 9.18267 13.1381 9.18267C13.3148 9.18267 13.4844 9.11246 13.6094 8.98748L15.4954 7.10148C15.6207 6.97681 15.6914 6.80747 15.6919 6.63069C15.6924 6.45392 15.6227 6.28418 15.4981 6.15881ZM13.1407 7.57347L8.42672 2.85947L9.36939 1.91681L14.0834 6.63014L13.1407 7.57347Z" fill="currentColor"/>
</svg>
