<svg viewBox="0 0 32 32" fill="none" xmlns="http://www.w3.org/2000/svg">
<path d="M30.9961 12.3176L19.6814 1.00562C19.4314 0.755655 19.0923 0.615234 18.7388 0.615234C18.3852 0.615234 18.0462 0.755655 17.7961 1.00562L14.0254 4.77628C13.7755 5.02632 13.6351 5.3654 13.6351 5.71895C13.6351 6.0725 13.7755 6.41158 14.0254 6.66162L15.6668 8.30428C15.8581 9.21663 15.801 10.1636 15.5015 11.0464C15.202 11.9292 14.6711 12.7154 13.9641 13.323L2.30945 24.9763C1.68424 25.6015 1.33301 26.4494 1.33301 27.3336C1.33301 28.2178 1.68424 29.0657 2.30945 29.6909C2.93465 30.3162 3.78261 30.6674 4.66678 30.6674C5.55095 30.6674 6.39891 30.3162 7.02411 29.6909L18.6774 18.0363C19.2857 17.3301 20.0719 16.7996 20.9544 16.5C21.837 16.2003 22.7836 16.1424 23.6961 16.3323L25.3334 17.975C25.5835 18.2249 25.9226 18.3653 26.2761 18.3653C26.6297 18.3653 26.9687 18.2249 27.2188 17.975L30.9908 14.203C31.2414 13.9536 31.3828 13.6149 31.3838 13.2614C31.3848 12.9078 31.2454 12.5684 30.9961 12.3176ZM26.2814 15.1469L16.8534 5.71895L18.7388 3.83362L28.1668 13.2603L26.2814 15.1469Z" fill="currentColor"/>
</svg>
