<svg viewBox="0 0 32 32" fill="none" xmlns="http://www.w3.org/2000/svg">
<path d="M13.8753 8.40423C14.3329 7.94667 15.0572 7.91784 15.5481 8.31829L15.6429 8.40423L23.597 16.3583L23.6829 16.4531C24.0829 16.944 24.0544 17.6684 23.597 18.1259C23.1395 18.5834 22.4151 18.6119 21.9241 18.2118L21.8294 18.1259L13.8753 10.1718L13.7893 10.0771C13.3889 9.58611 13.4176 8.86189 13.8753 8.40423Z" fill="currentColor"/>
<path d="M13.0003 3.75286C14.5378 2.36402 16.9112 2.41086 18.3929 3.89251L28.1087 13.6083C29.6379 15.1379 29.6371 17.617 28.1077 19.1464L24.6175 22.6376C23.088 24.167 20.6079 24.1669 19.0784 22.6376L18.0237 21.5829L16.7591 22.8476C15.9661 23.6404 14.8997 23.9923 13.8636 23.9052L10.8919 26.8769C10.8883 26.8805 10.8857 26.885 10.8821 26.8886C10.8789 26.8919 10.8747 26.8942 10.8714 26.8974L8.88114 28.8886C8.39309 29.3767 7.60174 29.3764 7.11356 28.8886C6.62557 28.4004 6.62546 27.6091 7.11356 27.121L8.22977 26.0038L5.99637 23.7704L4.87919 24.8876C4.39108 25.3755 3.59972 25.3755 3.11161 24.8876C2.62356 24.3995 2.62365 23.6082 3.11161 23.12L8.09403 18.1367C8.0854 18.0345 8.08133 17.9314 8.08133 17.8281C8.08152 16.858 8.46667 15.9271 9.15262 15.2411L10.4173 13.9765L9.36258 12.9218C7.83346 11.3923 7.83328 8.91217 9.36258 7.38274L12.8538 3.89251L13.0003 3.75286ZM7.76395 22.0029L9.99735 24.2363L11.4856 22.748L9.25126 20.5146L7.76395 22.0029ZM10.9212 17.0087C10.704 17.2259 10.5815 17.521 10.5813 17.8281C10.5813 17.9336 10.5965 18.0377 10.6243 18.1376C10.6324 18.1605 10.6391 18.1837 10.6458 18.207C10.7028 18.3712 10.796 18.5222 10.9212 18.6474L13.3528 21.08L13.4407 21.1601C13.5403 21.2413 13.6504 21.3026 13.7659 21.3456C13.8032 21.3554 13.8398 21.3675 13.8763 21.3808C14.2617 21.4819 14.6893 21.382 14.9915 21.08L16.2561 19.8154L12.1848 15.7441L10.9212 17.0087ZM16.6253 5.66009C16.1067 5.14152 15.2852 5.1079 14.7288 5.56145L14.6214 5.66009L11.1311 9.15032C10.5779 9.70357 10.5779 10.601 11.1311 11.1542L20.847 20.87C21.4002 21.4229 22.2967 21.4231 22.8499 20.87L26.3401 17.3788C26.8933 16.8257 26.894 15.9292 26.3411 15.3759L16.6253 5.66009Z" fill="currentColor"/>
</svg>
