<svg viewBox="0 0 16 16" fill="none" xmlns="http://www.w3.org/2000/svg">
<path d="M5.3798 8.04297C5.60213 7.73495 6.02607 7.63916 6.36223 7.83301C6.7207 8.04005 6.84432 8.4988 6.63762 8.85742L6.18059 9.64844H7.09367L7.17082 9.65234C7.5486 9.69106 7.84355 10.0105 7.84367 10.3984C7.84366 10.7865 7.54865 11.1058 7.17082 11.1445L7.09367 11.1484H5.92863C4.8857 11.1484 4.23427 10.0188 4.75578 9.11621L5.33781 8.10742L5.3798 8.04297Z" fill="currentColor"/>
<path d="M9.63859 7.83301C9.99722 7.62641 10.456 7.74893 10.663 8.10742L11.2441 9.11621C11.7655 10.0187 11.1149 11.1482 10.0722 11.1484H8.90715C8.49294 11.1484 8.15716 10.8126 8.15715 10.3984C8.15728 9.98434 8.49302 9.64844 8.90715 9.64844H9.82023L9.3632 8.85742L9.32902 8.78906C9.17315 8.44231 9.30225 8.02717 9.63859 7.83301Z" fill="currentColor"/>
<path d="M6.93449 5.37012C7.50905 4.62981 8.68387 4.68248 9.17277 5.52832L9.75578 6.53809L9.79094 6.60645C9.94642 6.95304 9.81743 7.36841 9.48137 7.5625C9.14529 7.75647 8.72139 7.66037 8.49894 7.35254L8.45695 7.28809L7.99992 6.49707L7.54387 7.28809C7.33677 7.64649 6.87804 7.76925 6.51945 7.5625C6.16076 7.35543 6.03804 6.8968 6.24504 6.53809L6.82805 5.52832L6.93449 5.37012Z" fill="currentColor"/>
<path d="M12.6669 1.25C13.8312 1.25009 14.7528 2.19885 14.7509 3.33398L14.7372 3.56348L13.7001 12.8965C13.6346 13.4831 13.2936 13.9504 12.8974 14.2549C12.5509 14.5211 12.1173 14.7006 11.6669 14.7412L11.4736 14.75H4.52726C4.00889 14.75 3.49846 14.5591 3.10246 14.2549C2.75571 13.9885 2.45111 13.5981 2.33684 13.1113L2.29973 12.8965L1.26262 3.56348C1.12623 2.32979 2.09194 1.25 3.33391 1.25H12.6669ZM3.33391 2.75C2.98679 2.75 2.71603 3.05146 2.75383 3.39746L3.79094 12.7314L3.80851 12.8037C3.83672 12.882 3.89962 12.9756 4.01652 13.0654C4.17266 13.1853 4.36639 13.25 4.52726 13.25H11.4736C11.6343 13.25 11.8273 13.1853 11.9833 13.0654C12.1389 12.9458 12.2 12.819 12.2099 12.7305L13.247 3.39746C13.2847 3.05154 13.0139 2.75009 12.6669 2.75H3.33391Z" fill="currentColor"/>
</svg>
