<svg viewBox="0 0 32 32" fill="none" xmlns="http://www.w3.org/2000/svg">
<path d="M10.9622 16.2334C11.3327 15.7197 12.0394 15.5594 12.5999 15.8828C13.1974 16.228 13.4029 16.9931 13.0579 17.5908L11.927 19.5479H14.1868L14.3147 19.5547C14.9449 19.6188 15.4368 20.1507 15.4368 20.7979C15.4365 21.4448 14.9448 21.9769 14.3147 22.041L14.1868 22.0479H11.8567C9.96364 22.0479 8.78079 19.9977 9.72682 18.3594L10.8928 16.3408L10.9622 16.2334Z" fill="currentColor"/>
<path d="M19.4007 15.8828C19.961 15.5595 20.6678 15.7198 21.0383 16.2334L21.1087 16.3408L22.2737 18.3594L22.3557 18.5137C23.1448 20.1232 21.9783 22.0473 20.1448 22.0479H17.8137C17.1236 22.0479 16.564 21.488 16.5637 20.7979C16.5637 20.1075 17.1234 19.5479 17.8137 19.5479H20.0735L18.9436 17.5908L18.885 17.4766C18.6255 16.8987 18.8402 16.2064 19.4007 15.8828Z" fill="currentColor"/>
<path d="M13.9641 11.0332C14.932 9.59319 17.0685 9.59325 18.0364 11.0332L18.1292 11.1816L19.2952 13.2012L19.3528 13.3145C19.6124 13.8923 19.3977 14.5846 18.8372 14.9082C18.2396 15.2531 17.4755 15.0483 17.1301 14.4512L16.0003 12.4941L14.8714 14.4512C14.5262 15.0486 13.761 15.253 13.1633 14.9082C12.5658 14.5632 12.3608 13.7989 12.7053 13.2012L13.8714 11.1826L13.9641 11.0332Z" fill="currentColor"/>
<path d="M25.5501 2.75586C27.7791 2.87689 29.4743 4.85153 29.2258 7.09863L27.1516 25.7656C27.03 26.856 26.3953 27.7332 25.6428 28.3115C24.9379 28.8532 24.0435 29.2044 23.1292 29.2461L22.9466 29.25H9.053C8.0759 29.2499 7.10865 28.8892 6.35671 28.3115C5.65121 27.7695 5.04826 26.9654 4.87624 25.9678L4.84792 25.7656L2.7737 7.09961C2.51732 4.78029 4.33166 2.75024 6.66628 2.75H25.3333L25.5501 2.75586ZM6.511 5.25879C5.744 5.34234 5.17142 6.03551 5.25807 6.82324L7.33327 25.4902L7.34987 25.5898C7.40571 25.8263 7.57252 26.0927 7.88014 26.3291C8.2323 26.5996 8.6717 26.7499 9.053 26.75H22.9466C23.3278 26.75 23.7673 26.5996 24.1194 26.3291C24.4702 26.0594 24.637 25.7501 24.6663 25.4902L26.7415 6.82324C26.8282 6.03541 26.2557 5.34222 25.4885 5.25879L25.3333 5.25H6.66628L6.511 5.25879Z" fill="currentColor"/>
</svg>
