<svg viewBox="0 0 24 24" fill="none" xmlns="http://www.w3.org/2000/svg">
<path d="M8.11521 12.2246C8.39134 11.7463 9.00313 11.5823 9.48142 11.8584C9.95928 12.1346 10.1235 12.7465 9.84763 13.2246L9.05466 14.5986H10.6406L10.7422 14.6035C11.2464 14.6547 11.6406 15.0809 11.6406 15.5986C11.6403 16.1162 11.2463 16.5426 10.7422 16.5938L10.6406 16.5986H8.89255C7.42454 16.5986 6.50739 15.0087 7.24119 13.7383L8.11521 12.2246Z" fill="currentColor"/>
<path d="M14.5195 11.8584C14.9679 11.5996 15.5337 11.7275 15.8301 12.1387L15.8857 12.2246L16.7597 13.7383C17.4933 15.0086 16.5761 16.5984 15.1084 16.5986H13.3603C12.8082 16.5986 12.3606 16.1507 12.3603 15.5986C12.3603 15.0463 12.808 14.5986 13.3603 14.5986H14.9463L14.1533 13.2246L14.1064 13.1338C13.8985 12.6714 14.071 12.1173 14.5195 11.8584Z" fill="currentColor"/>
<path d="M10.4209 8.23926C11.1715 7.12312 12.8286 7.12301 13.5791 8.23926L13.6504 8.35547L14.5244 9.86914L14.5713 9.96094C14.7787 10.4231 14.6072 10.9765 14.1592 11.2354C13.7108 11.494 13.145 11.3661 12.8486 10.9551L12.7929 10.8691L12 9.49512L11.207 10.8691C10.9308 11.3472 10.319 11.5114 9.8408 11.2354C9.36267 10.9593 9.19871 10.3474 9.47458 9.86914L10.3486 8.35547L10.4209 8.23926Z" fill="currentColor"/>
<path d="M19 2C20.7324 2.00015 22.0914 3.45878 21.9961 5.16504L21.9824 5.33105L20.4258 19.3311C20.3322 20.1695 19.8448 20.8418 19.2705 21.2832C18.7684 21.669 18.1402 21.9284 17.4902 21.9873L17.2099 22H6.79001C6.04246 21.9999 5.30433 21.7239 4.73044 21.2832C4.1918 20.8694 3.7289 20.2534 3.59666 19.4863L3.57419 19.3311L2.01853 5.33105C1.82215 3.5546 3.21175 2.00021 4.99998 2H19ZM4.99998 4C4.40482 4.00021 3.94076 4.51739 4.00583 5.11035L5.56248 19.1104L5.57419 19.1777C5.61212 19.3384 5.72624 19.5267 5.94822 19.6973C6.20232 19.8924 6.51895 19.9999 6.79001 20H17.2099C17.481 19.9999 17.7977 19.8925 18.0517 19.6973C18.305 19.5026 18.4189 19.2846 18.4385 19.1104L19.9941 5.11035C20.0592 4.51733 19.5952 4.00016 19 4H4.99998Z" fill="currentColor"/>
</svg>
