<svg viewBox="0 0 32 32" fill="none" xmlns="http://www.w3.org/2000/svg">
<path d="M20.449 12.4502C20.9371 11.9621 21.7285 11.9622 22.2166 12.4502C22.7046 12.9384 22.7047 13.7297 22.2166 14.2178L20.4334 16L22.2166 17.7832L22.3026 17.8779C22.7031 18.3689 22.6743 19.0931 22.2166 19.5508C21.7589 20.0082 21.0346 20.0373 20.5438 19.6367L20.449 19.5508L18.6658 17.7676L16.8836 19.5508C16.3955 20.0386 15.6041 20.0386 15.116 19.5508C14.6281 19.0627 14.6282 18.2713 15.116 17.7832L16.8983 16L15.116 14.2178L15.0301 14.123C14.6297 13.6322 14.6586 12.9079 15.116 12.4502C15.5737 11.9925 16.2979 11.9638 16.7889 12.3643L16.8836 12.4502L18.6658 14.2324L20.449 12.4502Z" fill="currentColor"/>
<path d="M25.3328 6.34961C27.4965 6.34961 29.2498 8.10389 29.2498 10.2676V21.7344C29.2493 23.8976 27.4962 25.6504 25.3328 25.6504H10.8221C9.63661 25.6502 8.5194 25.1135 7.77912 24.1992L7.63557 24.0107L3.54084 18.2773L3.54182 18.2764C2.5692 16.9152 2.56894 15.0857 3.54182 13.7246L7.63557 7.99121C8.37024 6.96132 9.55753 6.3498 10.8221 6.34961H25.3328ZM10.8221 8.85059C10.3648 8.85077 9.93588 9.07148 9.67072 9.44336L9.66975 9.44434L5.576 15.1777L5.57502 15.1787C5.24573 15.6398 5.22489 16.2509 5.5135 16.7305L5.57502 16.8242L5.576 16.8252L9.66877 22.5576C9.93397 22.9288 10.3646 23.1502 10.8221 23.1504H25.3328C26.1155 23.1504 26.7493 22.5169 26.7498 21.7344V10.2676C26.7498 9.4846 26.1158 8.85059 25.3328 8.85059H10.8221Z" fill="currentColor"/>
</svg>
