<svg viewBox="0 0 16 16" fill="none" xmlns="http://www.w3.org/2000/svg">
<path d="M10.1362 6.13672C10.4291 5.84399 10.9039 5.84388 11.1967 6.13672C11.4894 6.42957 11.4894 6.90442 11.1967 7.19727L10.393 8L11.1967 8.80371L11.2475 8.86035C11.4879 9.15493 11.4713 9.58964 11.1967 9.86426C10.9221 10.1385 10.4872 10.1553 10.1928 9.91504L10.1362 9.86426L9.33247 9.06055L8.52973 9.86426C8.23685 10.1565 7.76189 10.1568 7.46919 9.86426C7.1765 9.57157 7.17692 9.09665 7.46919 8.80371L8.27192 8L7.46919 7.19727L7.41743 7.14062C7.17726 6.84621 7.19503 6.41135 7.46919 6.13672C7.74378 5.86212 8.17851 5.84467 8.47309 6.08496L8.52973 6.13672L9.33247 6.93945L10.1362 6.13672Z" fill="currentColor"/>
<path d="M12.6665 3.0498C13.8172 3.04983 14.7493 3.9821 14.7495 5.13281V10.8662C14.7495 12.0171 13.8173 12.9502 12.6665 12.9502H5.41157C4.78085 12.9502 4.18628 12.6642 3.79243 12.1777L3.71626 12.0781L1.66841 9.21094L1.66938 9.20996C1.15207 8.4858 1.15167 7.51303 1.66938 6.78906L3.71626 3.92285L3.79145 3.82324C4.18534 3.33558 4.78051 3.0498 5.41157 3.0498H12.6665ZM5.41157 4.5498C5.24672 4.5498 5.09038 4.61925 4.98091 4.73926L4.93696 4.79395L2.88911 7.66113C2.76245 7.83826 2.74722 8.0692 2.84223 8.25977L2.88911 8.33887L4.93696 11.2061L4.98091 11.2598C5.09045 11.3797 5.24653 11.4502 5.41157 11.4502H12.6665C12.9889 11.4502 13.2495 11.1886 13.2495 10.8662V5.13281C13.2493 4.81053 12.9888 4.54983 12.6665 4.5498H5.41157Z" fill="currentColor"/>
</svg>
