<svg viewBox="0 0 24 24" fill="none" xmlns="http://www.w3.org/2000/svg">
<path d="M11.2928 9.29297C11.6589 8.9269 12.2379 8.90439 12.6307 9.22461L12.7069 9.29297L13.9999 10.5859L15.2928 9.29297L15.369 9.22461C15.7617 8.9043 16.3408 8.92698 16.7069 9.29297C17.073 9.65908 17.0956 10.2381 16.7752 10.6309L16.7069 10.707L15.4139 12L16.7069 13.293L16.7752 13.3691C17.0956 13.7619 17.073 14.3409 16.7069 14.707C16.3408 15.073 15.7617 15.0957 15.369 14.7754L15.2928 14.707L13.9999 13.4141L12.7069 14.707C12.3163 15.0974 11.6833 15.0975 11.2928 14.707C10.9025 14.3165 10.9025 13.6835 11.2928 13.293L12.5858 12L11.2928 10.707L11.2245 10.6309C10.9043 10.2381 10.9269 9.65905 11.2928 9.29297Z" fill="currentColor"/>
<path d="M19.1551 4.7041C20.7403 4.78478 22.0008 6.09494 22.0008 7.7002V16.2998C22.0008 17.9568 20.6577 19.2994 19.0008 19.2998H8.11704C7.14853 19.2997 6.23931 18.8324 5.67661 18.0449L2.60532 13.7441L2.6063 13.7432C1.86127 12.7004 1.86083 11.2994 2.6063 10.2568L5.67661 5.95703C6.23936 5.16826 7.1485 4.70034 8.11704 4.7002H19.0008L19.1551 4.7041ZM8.11704 6.7002C7.83461 6.70032 7.56739 6.81973 7.37973 7.02539L7.30454 7.11914L4.23325 11.4189C4.01605 11.7227 3.98832 12.1195 4.15122 12.4463L4.23325 12.5811L7.30454 16.8818L7.37973 16.9756C7.56745 17.1807 7.83469 17.2997 8.11704 17.2998H19.0008C19.5532 17.2994 20.0008 16.8522 20.0008 16.2998V7.7002C20.0008 7.18204 19.6069 6.75626 19.1024 6.70508L19.0008 6.7002H8.11704Z" fill="currentColor"/>
</svg>
