<svg viewBox="0 0 16 16" fill="none" xmlns="http://www.w3.org/2000/svg">
<path d="M8 3.91699C9.88686 3.91699 11.4168 5.44618 11.417 7.33301C11.417 9.21998 9.88697 10.75 8 10.75C6.11303 10.75 4.58301 9.21998 4.58301 7.33301C4.58318 5.44618 6.11314 3.91699 8 3.91699ZM8 5.41699C6.94156 5.41699 6.08318 6.27461 6.08301 7.33301C6.08301 8.39155 6.94145 9.25 8 9.25C8.7924 9.25 9.47178 8.76884 9.76367 8.08301H8C7.58579 8.08301 7.25 7.74722 7.25 7.33301C7.25018 6.91894 7.5859 6.58301 8 6.58301H9.76367C9.47165 5.89747 8.79219 5.41699 8 5.41699Z" fill="currentColor"/>
<path d="M11.333 1.25C13.22 1.25 14.75 2.78002 14.75 4.66699V10C14.75 11.6011 13.6485 12.944 12.1621 13.3145L12.3379 13.665L12.3682 13.7354C12.5027 14.0907 12.3492 14.4973 12.002 14.6709C11.6546 14.8445 11.2366 14.7235 11.0332 14.4023L10.9961 14.335L10.5371 13.417H5.46289L5.00391 14.335C4.81869 14.7054 4.36851 14.856 3.99805 14.6709C3.62774 14.4857 3.47727 14.0354 3.66211 13.665L3.83691 13.3145C2.351 12.9437 1.25 11.6007 1.25 10V4.66699C1.25 2.78002 2.78002 1.25 4.66699 1.25H11.333ZM4.66699 2.75C3.60845 2.75 2.75 3.60845 2.75 4.66699V10C2.75 11.0585 3.60845 11.917 4.66699 11.917H11.333C12.3916 11.917 13.25 11.0585 13.25 10V4.66699C13.25 3.60845 12.3916 2.75 11.333 2.75H4.66699Z" fill="currentColor"/>
</svg>
