<svg viewBox="0 0 16 16" fill="none" xmlns="http://www.w3.org/2000/svg">
<path d="M8 5.99969C6.8954 5.99969 6 6.89509 6 7.99969C6 9.10429 6.8954 9.99969 8 9.99969C9.1046 9.99969 10 9.10429 10 7.99969C10 6.89509 9.1046 5.99969 8 5.99969Z" fill="currentColor"/>
<path d="M3.3335 1.33301C2.22893 1.33301 1.3335 2.22844 1.3335 3.33301V12.6663C1.3335 13.7709 2.22893 14.6663 3.3335 14.6663H4V15.9997H5.33333V14.6663H10.6667V15.9997H12.0001V14.6663H12.6668C13.7714 14.6663 14.6668 13.7709 14.6668 12.6663V3.33301C14.6668 2.22844 13.7714 1.33301 12.6668 1.33301H3.3335ZM11.8858 5.05687L10.7812 6.16141C11.1302 6.68834 11.3335 7.32027 11.3335 7.99967C11.3335 8.67907 11.1302 9.31101 10.7812 9.83794L11.8858 10.9425L10.943 11.8853L9.83843 10.7807C9.3115 11.1297 8.67956 11.333 8.00016 11.333C7.32076 11.333 6.68883 11.1297 6.1619 10.7807L5.05736 11.8853L4.11454 10.9425L5.2191 9.83794C4.87008 9.31101 4.66683 8.67907 4.66683 7.99967C4.66683 7.32027 4.87008 6.68834 5.2191 6.16141L4.11454 5.05687L5.05736 4.11405L6.1619 5.21861C6.68883 4.86959 7.32076 4.66634 8.00016 4.66634C8.67956 4.66634 9.3115 4.86959 9.83843 5.21861L10.943 4.11405L11.8858 5.05687Z" fill="currentColor"/>
</svg>
