<svg viewBox="0 0 24 24" fill="none" xmlns="http://www.w3.org/2000/svg">
<path d="M12 9C10.3431 9 9 10.3431 9 12C9 13.6569 10.3431 15 12 15C13.6569 15 15 13.6569 15 12C15 10.3431 13.6569 9 12 9Z" fill="currentColor"/>
<path d="M5 2C3.34315 2 2 3.34315 2 5V19C2 20.6569 3.34315 22 5 22H6V24H8V22H16V24H18V22H19C20.6569 22 22 20.6569 22 19V5C22 3.34315 20.6569 2 19 2H5ZM17.8284 7.58579L16.1716 9.24261C16.6951 10.033 17 10.9809 17 12C17 13.0191 16.6951 13.967 16.1716 14.7574L17.8284 16.4142L16.4142 17.8284L14.7574 16.1716C13.967 16.6951 13.0191 17 12 17C10.9809 17 10.033 16.6951 9.24261 16.1716L7.58579 17.8284L6.17157 16.4142L7.8284 14.7574C7.30488 13.967 7 13.0191 7 12C7 10.9809 7.30488 10.033 7.8284 9.24261L6.17157 7.58579L7.58579 6.17157L9.24261 7.8284C10.033 7.30488 10.9809 7 12 7C13.0191 7 13.967 7.30488 14.7574 7.8284L16.4142 6.17157L17.8284 7.58579Z" fill="currentColor"/>
</svg>
