<svg viewBox="0 0 24 24" fill="none" xmlns="http://www.w3.org/2000/svg">
<path d="M12 6C14.7614 6 17 8.23858 17 11C17 13.7614 14.7614 16 12 16C9.23858 16 7 13.7614 7 11C7 8.23858 9.23858 6 12 6ZM12 8C10.3431 8 9 9.34315 9 11C9 12.6569 10.3431 14 12 14C13.3059 14 14.4141 13.1647 14.8262 12H12C11.4478 12 11.0001 11.5522 11 11C11 10.4477 11.4477 10 12 10H14.8262C14.4141 8.83532 13.3059 8 12 8Z" fill="currentColor"/>
<path d="M17 2C19.7614 2 22 4.23858 22 7V15C22 17.3974 20.3124 19.3992 18.0605 19.8857L18.3945 20.5527L18.4355 20.6465C18.6153 21.1204 18.4104 21.663 17.9473 21.8945C17.4842 22.1261 16.9276 21.9643 16.6562 21.5361L16.6055 21.4473L15.8818 20H8.11816L7.39453 21.4473C7.14754 21.9412 6.54671 22.1415 6.05273 21.8945C5.55876 21.6475 5.35848 21.0467 5.60547 20.5527L5.93848 19.8857C3.6871 19.3989 2 17.3971 2 15V7C2 4.23858 4.23858 2 7 2H17ZM7 4C5.34315 4 4 5.34315 4 7V15C4 16.6569 5.34315 18 7 18H17C18.6569 18 20 16.6569 20 15V7C20 5.34315 18.6569 4 17 4H7Z" fill="currentColor"/>
</svg>
