<svg viewBox="0 0 32 32" fill="none" xmlns="http://www.w3.org/2000/svg">
<path d="M16 12.0004C13.7908 12.0004 12 13.7912 12 16.0004C12 18.2096 13.7908 20.0004 16 20.0004C18.2092 20.0004 20 18.2096 20 16.0004C20 13.7912 18.2092 12.0004 16 12.0004Z" fill="currentColor"/>
<path d="M6.6665 2.66699C4.45737 2.66699 2.6665 4.45786 2.6665 6.66699V25.3337C2.6665 27.5429 4.45737 29.3337 6.6665 29.3337H8V32.0003H10.6667V29.3337H21.3333V32.0003H23.9999V29.3337H25.3332C27.5424 29.3337 29.3332 27.5429 29.3332 25.3337V6.66699C29.3332 4.45786 27.5424 2.66699 25.3332 2.66699H6.6665ZM23.771 10.1147L21.562 12.3238C22.26 13.3777 22.6665 14.6415 22.6665 16.0003C22.6665 17.3591 22.26 18.623 21.562 19.6769L23.771 21.8859L21.8854 23.7715L19.6764 21.5625C18.6225 22.2605 17.3586 22.667 15.9998 22.667C14.641 22.667 13.3772 22.2605 12.3233 21.5625L10.1142 23.7715L8.2286 21.8859L10.4377 19.6769C9.73968 18.623 9.33317 17.3591 9.33317 16.0003C9.33317 14.6415 9.73968 13.3777 10.4377 12.3238L8.2286 10.1147L10.1142 8.22908L12.3233 10.4382C13.3772 9.74017 14.641 9.33366 15.9998 9.33366C17.3586 9.33366 18.6225 9.74017 19.6764 10.4382L21.8854 8.22908L23.771 10.1147Z" fill="currentColor"/>
</svg>
