<svg viewBox="0 0 32 32" fill="none" xmlns="http://www.w3.org/2000/svg">
<path d="M16 8.08301C19.6359 8.08301 22.583 11.0311 22.583 14.667C22.5828 18.3027 19.6358 21.25 16 21.25C12.3642 21.25 9.41717 18.3027 9.41699 14.667C9.41699 11.0311 12.3641 8.08301 16 8.08301ZM16 10.583C13.7448 10.583 11.917 12.4118 11.917 14.667C11.9172 16.922 13.7449 18.75 16 18.75C17.819 18.75 19.3596 17.5605 19.8877 15.917H16C15.3098 15.917 14.7502 15.3572 14.75 14.667C14.75 13.9766 15.3096 13.417 16 13.417H19.8877C19.3597 11.7732 17.8192 10.583 16 10.583Z" fill="currentColor"/>
<path d="M22.667 2.75C26.3026 2.75018 29.2498 5.69739 29.25 9.33301V20C29.25 23.1938 26.9754 25.8548 23.958 26.4551L24.4512 27.4414L24.5029 27.5586C24.7273 28.1509 24.4712 28.8288 23.8926 29.1182C23.3138 29.4075 22.6175 29.2058 22.2783 28.6709L22.2148 28.5586L21.2266 26.583H10.7734L9.78516 28.5586C9.47642 29.1761 8.7249 29.4269 8.10742 29.1182C7.49013 28.8094 7.24031 28.0588 7.54883 27.4414L8.04102 26.4551C5.02408 25.8544 2.75 23.1935 2.75 20V9.33301C2.75018 5.6974 5.69739 2.75018 9.33301 2.75H22.667ZM9.33301 5.25C7.07811 5.25018 5.25018 7.0781 5.25 9.33301V20C5.25 22.2551 7.07799 24.0828 9.33301 24.083H22.667C24.922 24.0828 26.75 22.2551 26.75 20V9.33301C26.7498 7.0781 24.9219 5.25018 22.667 5.25H9.33301Z" fill="currentColor"/>
</svg>
