<svg viewBox="0 0 24 24" fill="none" xmlns="http://www.w3.org/2000/svg">
<path d="M14 4.49317C16.2091 4.49317 18 2.70231 18 0.493164L10 0.493165C10 2.70231 11.7909 4.49317 14 4.49317Z" fill="currentColor"/>
<path d="M3.61778 19.3126C4.48878 20.3678 5.68515 21.0837 7 21.3626V23.4932H9V21.4932H16V23.4932H18V21.3431C21.4233 20.6482 24 17.6216 24 13.9932C24 9.85103 20.6421 6.49317 16.5 6.49317H10.299C9.3013 5.24459 7.63927 4.69906 6.0763 5.14562L4 5.73885V9.70733L2.86585 11.151L0 11.9013V16.8178L2.38561 17.8198L3.61778 19.3126ZM5.5 13.4932C4.67157 13.4932 4 12.8216 4 11.9932C4 11.1648 4.67157 10.4932 5.5 10.4932C6.32843 10.4932 7 11.1648 7 11.9932C7 12.8216 6.32843 13.4932 5.5 13.4932ZM18 11.4932H10V9.49317H18V11.4932Z" fill="currentColor"/>
</svg>
