<svg viewBox="0 0 24 24" fill="none" xmlns="http://www.w3.org/2000/svg">
<path d="M10.5 8C12.0957 8 13.4959 8.83156 14.2949 10.084C16.2251 10.4264 17.7392 11.999 17.9697 13.9912C18.2227 16.1784 16.854 18.2267 14.7363 18.8291C12.8092 19.3772 10.7789 18.581 9.72363 16.9316C7.60847 16.5637 6 14.7204 6 12.5C6 10.0147 8.01472 8 10.5 8ZM14.999 12.5117C14.9961 13.701 14.5238 14.8414 13.6826 15.6826C13.2645 16.1008 12.7715 16.4265 12.2363 16.6504C12.8083 16.9892 13.5094 17.0983 14.1885 16.9053C15.3637 16.571 16.1238 15.4344 15.9834 14.2207C15.9021 13.5182 15.5322 12.9107 14.999 12.5117ZM10.5 10C9.11929 10 8 11.1193 8 12.5C8 13.8308 9.04005 14.9153 10.3516 14.9922C10.3794 14.9924 10.407 14.9936 10.4346 14.9961C10.4563 14.9967 10.4781 15 10.5 15L10.7471 14.9883C11.3195 14.9316 11.8573 14.6779 12.2676 14.2676C12.7364 13.7987 13.0001 13.163 13 12.5C13 11.1193 11.8807 10 10.5 10Z" fill="currentColor"/>
<path d="M17.5 1C18.8807 1 20 2.11929 20 3.5C20 4.31703 19.6061 5.0399 19 5.49609V6.58594L19.5352 7.12109L19.7061 7.30078C20.5367 8.21803 21 9.41387 21 10.6572V18C21 20.2091 19.2091 22 17 22H7C4.79086 22 3 20.2091 3 18V10.6572C3 9.33115 3.52717 8.05877 4.46484 7.12109L5 6.58594V5.49609C4.39389 5.0399 4 4.31703 4 3.5C4 2.11929 5.11929 1 6.5 1H17.5ZM7 6.58594L6.99023 6.7832C6.9513 7.17583 6.79698 7.54836 6.54688 7.85352L6.41406 8L5.87891 8.53516C5.3163 9.09776 5 9.86158 5 10.6572V18C5 19.1046 5.89543 20 7 20H17C18.1046 20 19 19.1046 19 18V10.6572C19 9.96104 18.7577 9.28969 18.3203 8.75586L18.1211 8.53516L17.5859 8C17.2109 7.62496 17 7.11631 17 6.58594V6H7V6.58594ZM6.5 3C6.22386 3 6 3.22386 6 3.5C6 3.77614 6.22386 4 6.5 4H17.5C17.7761 4 18 3.77614 18 3.5C18 3.22386 17.7761 3 17.5 3H6.5Z" fill="currentColor"/>
</svg>
