<svg viewBox="0 0 32 32" fill="none" xmlns="http://www.w3.org/2000/svg">
<path d="M23.9999 0.658203C23.9999 3.60373 21.6121 5.99154 18.6666 5.99154C15.7211 5.99154 13.3333 3.60373 13.3333 0.658203H23.9999Z" fill="currentColor"/>
<path d="M9.33325 28.4842C7.58015 28.1122 5.98502 27.1578 4.82371 25.7508L3.18081 23.7604L0 22.4244V15.8691L3.82113 14.8687L5.33333 12.9438V7.65249L8.10173 6.86151C10.1857 6.2661 12.4017 6.99347 13.732 8.65825H22C27.5228 8.65825 32 13.1354 32 18.6583C32 23.4962 28.5644 27.5317 23.9999 28.4582V31.3249H21.3333V28.6583H11.9999V31.3249H9.33325V28.4842ZM24 12.6582H13.3333V15.3249H24V12.6582ZM7.33333 17.9916C8.43791 17.9916 9.33333 17.0961 9.33333 15.9916C9.33333 14.8871 8.43791 13.9916 7.33333 13.9916C6.22876 13.9916 5.33333 14.8871 5.33333 15.9916C5.33333 17.0961 6.22876 17.9916 7.33333 17.9916Z" fill="currentColor"/>
</svg>
