<svg viewBox="0 0 16 16" fill="none" xmlns="http://www.w3.org/2000/svg">
<path d="M12.0001 0.329102C12.0001 1.80186 10.8061 2.99577 9.33342 2.99577C7.86068 2.99577 6.66675 1.80186 6.66675 0.329102H12.0001Z" fill="currentColor"/>
<path d="M4.66675 14.2421C3.79015 14.0562 2.99254 13.5789 2.41185 12.8754L1.59041 11.8802L0 11.2122V7.93453L1.91057 7.43433L2.66667 6.4719V3.82624L4.05087 3.43076C5.09285 3.13305 6.20087 3.49674 6.866 4.32912H11C13.7614 4.32912 16 6.5677 16 9.32913C16 11.748 14.2823 13.7658 12.0001 14.2291V15.6625H10.6667V14.3291H6.00008V15.6625H4.66675V14.2421ZM12 6.32912H6.66667V7.66246H12V6.32912ZM3.66667 8.9958C4.21895 8.9958 4.66667 8.54806 4.66667 7.9958C4.66667 7.44353 4.21895 6.9958 3.66667 6.9958C3.11438 6.9958 2.66667 7.44353 2.66667 7.9958C2.66667 8.54806 3.11438 8.9958 3.66667 8.9958Z" fill="currentColor"/>
</svg>
