<svg viewBox="0 0 16 16" fill="none" xmlns="http://www.w3.org/2000/svg">
<path d="M7 5.25098C8.08094 5.2511 9.03066 5.80843 9.58105 6.65039C10.8859 6.89842 11.907 7.96605 12.0635 9.31836C12.2366 10.8169 11.2976 12.221 9.84668 12.6338C8.53934 13.0054 7.16531 12.4718 6.43652 11.3643C5.00319 11.0993 3.91723 9.84398 3.91699 8.33398C3.91699 6.63122 5.29727 5.25115 7 5.25098ZM10.0771 8.51465C10.033 9.26635 9.71607 9.97924 9.18066 10.5146C8.93485 10.7604 8.64978 10.9568 8.34277 11.1055C8.67549 11.259 9.06175 11.297 9.43652 11.1904C10.1803 10.9788 10.6616 10.2593 10.5732 9.49121C10.5285 9.10491 10.3454 8.76329 10.0771 8.51465ZM7 6.75098C6.1257 6.75115 5.41699 7.45964 5.41699 8.33398C5.41726 9.2081 6.12586 9.91682 7 9.91699L7.15723 9.90918C7.51934 9.87314 7.86049 9.71363 8.12012 9.4541C8.41693 9.15729 8.58393 8.75372 8.58398 8.33398L8.5752 8.17188C8.49401 7.37371 7.81955 6.75116 7 6.75098Z" fill="currentColor"/>
<path d="M11.667 0.583008C12.6333 0.583206 13.417 1.36761 13.417 2.33398C13.4168 2.89099 13.1556 3.38664 12.75 3.70703V4.35645L13.083 4.68945L13.2002 4.8125C13.7672 5.43914 14.084 6.25635 14.084 7.10547V12.001C14.0836 13.5192 12.8522 14.7506 11.334 14.751H4.66699C3.14846 14.751 1.9174 13.5194 1.91699 12.001V7.10547C1.91699 6.19934 2.27726 5.3302 2.91797 4.68945L3.25 4.35645V3.70605C2.84486 3.38564 2.58414 2.89059 2.58398 2.33398C2.58398 1.36749 3.36749 0.583008 4.33398 0.583008H11.667ZM4.75 4.3916L4.74316 4.53125C4.71549 4.80902 4.60659 5.07312 4.42969 5.28906L4.33496 5.39258L3.97852 5.75C3.61911 6.10944 3.41699 6.59717 3.41699 7.10547V12.001C3.4174 12.691 3.97689 13.251 4.66699 13.251H11.334C12.0238 13.2506 12.5836 12.6908 12.584 12.001V7.10547C12.584 6.66086 12.4287 6.23162 12.1494 5.89062L12.0225 5.75L11.665 5.39258C11.4329 5.16026 11.2891 4.85524 11.2568 4.53125L11.25 4.3916V4.08398H4.75V4.3916ZM4.33398 2.08398C4.19591 2.08398 4.08398 2.19591 4.08398 2.33398C4.08425 2.47183 4.19608 2.58398 4.33398 2.58398H11.667C11.8047 2.58379 11.9167 2.47171 11.917 2.33398C11.917 2.19603 11.8049 2.08418 11.667 2.08398H4.33398Z" fill="currentColor"/>
</svg>
