<svg viewBox="0 0 32 32" fill="none" xmlns="http://www.w3.org/2000/svg">
<path d="M14 10.75C16.1118 10.7501 17.9639 11.8577 19.0107 13.5225C21.5646 13.9601 23.5723 16.0332 23.877 18.6641C24.2095 21.5397 22.4094 24.2334 19.625 25.0254C17.0802 25.7489 14.3996 24.689 13.0176 22.501C10.2177 22.033 8.08324 19.5997 8.08301 16.667C8.08301 13.3994 10.7325 10.7502 14 10.75ZM19.916 16.667L19.9092 16.96C19.8368 18.4223 19.2238 19.8103 18.1836 20.8506C17.5946 21.4395 16.8931 21.8902 16.1309 22.1846C16.9364 22.7165 17.9565 22.9011 18.9414 22.6211C20.5472 22.1642 21.5851 20.6106 21.3936 18.9521C21.2756 17.933 20.7141 17.0595 19.9121 16.5186C19.9133 16.5677 19.916 16.6175 19.916 16.667ZM14 13.25C12.1132 13.2502 10.583 14.7801 10.583 16.667C10.5833 18.4677 11.9769 19.9424 13.7441 20.0732C13.8063 20.0708 13.8684 20.0752 13.9297 20.082C13.9528 20.0825 13.9767 20.084 14 20.084C14.9059 20.0841 15.7753 19.7235 16.416 19.083C17.0164 18.4825 17.3702 17.681 17.4121 16.8369L17.416 16.667C17.416 16.1594 17.304 15.6782 17.1055 15.2451C17.0974 15.2289 17.0903 15.2119 17.083 15.1953C16.5331 14.0453 15.3597 13.2501 14 13.25Z" fill="currentColor"/>
<path d="M23.333 1.41602C25.1279 1.41602 26.583 2.87207 26.583 4.66699C26.5828 5.74385 26.0568 6.69584 25.25 7.28711V8.78125L25.2559 8.81348C25.26 8.82338 25.2667 8.83309 25.2744 8.84082L25.9883 9.55469L26.2129 9.79102C27.3064 10.9987 27.916 12.573 27.916 14.21V24C27.9158 26.8993 25.5653 29.25 22.666 29.25H9.33301C6.43384 29.2498 4.08327 26.8991 4.08301 24V14.21C4.08301 12.4643 4.77661 10.7892 6.01074 9.55469L6.72559 8.84082L6.74316 8.81348L6.75 8.78125V7.28711C5.94299 6.69586 5.41617 5.74403 5.41602 4.66699C5.41602 2.8723 6.87141 1.41639 8.66602 1.41602H23.333ZM9.25 8.78125L9.2373 9.03711C9.18685 9.54371 8.98769 10.0251 8.66504 10.4189L8.49316 10.6084L7.7793 11.3223C7.01379 12.088 6.58301 13.1272 6.58301 14.21V24C6.58327 25.5184 7.81456 26.7498 9.33301 26.75H22.666C24.1846 26.75 25.4158 25.5186 25.416 24V14.21C25.416 13.1947 25.0385 12.2178 24.3604 11.4688L24.2207 11.3223L23.5059 10.6084C23.0216 10.1241 22.7501 9.46615 22.75 8.78125V7.91699H9.25V8.78125ZM8.66602 3.91699C8.25212 3.91737 7.91602 4.25301 7.91602 4.66699C7.91628 5.08075 8.25228 5.41662 8.66602 5.41699H23.333C23.7471 5.41699 24.0827 5.08098 24.083 4.66699C24.083 4.25278 23.7472 3.91699 23.333 3.91699H8.66602Z" fill="currentColor"/>
</svg>
