<svg viewBox="0 0 24 24" fill="none" xmlns="http://www.w3.org/2000/svg">
<path d="M11 3.8418C11 3.28951 11.4477 2.8418 12 2.8418C12.5523 2.8418 13 3.28951 13 3.8418V6.17871L17.7139 4.79883L17.8799 4.76465C18.2673 4.71946 18.6529 4.90527 18.8564 5.25V5.25098H18.8574C18.8578 5.25155 18.8577 5.25281 18.8584 5.25391C18.8598 5.25632 18.8625 5.25993 18.8652 5.26465C18.8709 5.2743 18.8796 5.28886 18.8906 5.30762C18.9128 5.34521 18.9455 5.40078 18.9873 5.47168C19.0709 5.61339 19.191 5.81746 19.3379 6.06641C19.632 6.5648 20.033 7.24424 20.459 7.96582C21.3112 9.40936 22.2644 11.0231 22.6699 11.707H22.6689C22.7687 11.8716 22.8456 12.0472 22.9004 12.2295C22.9183 12.2809 22.932 12.3339 22.9414 12.3887C22.9873 12.5946 23.0071 12.8065 22.9941 13.0195C22.8458 15.6772 20.6941 17.7834 18.0332 17.875C18.0107 17.8758 17.9883 17.8757 17.9658 17.875C15.3011 17.7857 13.1459 15.675 13.001 13.0127V13.0117C12.9886 12.808 13.0045 12.6048 13.0459 12.4072C13.0557 12.3428 13.0713 12.2804 13.0928 12.2207C13.1472 12.0392 13.2244 11.8643 13.3232 11.7002L15.8467 7.42871L8.3125 9.63672L11.4619 14.9766C11.5602 15.1378 11.6373 15.3099 11.6924 15.4883C11.7175 15.5552 11.7358 15.6253 11.7461 15.6982C11.7864 15.8934 11.8013 16.0938 11.7891 16.2949C11.6455 18.956 9.49347 21.0674 6.83008 21.1582C6.80777 21.159 6.78501 21.1589 6.7627 21.1582C4.09971 21.0696 1.94494 18.9626 1.79688 16.3027L1.79297 16.126C1.79572 15.9799 1.81529 15.8353 1.8457 15.6934C1.85696 15.6162 1.87647 15.5421 1.9043 15.4717C1.95906 15.3019 2.03295 15.1382 2.12695 14.9844L5.90527 8.58398C6.02603 8.34774 6.23993 8.15957 6.51465 8.0791L11 6.76465V3.8418ZM3.90039 16.8389C4.25114 18.1364 5.40572 19.0952 6.79492 19.1562C8.18327 19.0945 9.33668 18.1357 9.68652 16.8389H3.90039ZM15.1055 13.5586C15.457 14.8541 16.6105 15.8114 17.998 15.873C19.3853 15.8108 20.5379 14.8537 20.8896 13.5586H15.1055ZM4.53516 14.8389H9.05957L6.79785 11.0049L4.53516 14.8389ZM15.7295 11.5586H20.2588C19.8112 10.8012 19.2545 9.86013 18.7363 8.98242C18.4728 8.53594 18.2191 8.10573 17.9941 7.72461L15.7295 11.5586Z" fill="currentColor"/>
</svg>
