<svg viewBox="0 0 16 16" fill="none" xmlns="http://www.w3.org/2000/svg">
<path d="M7.50977 3.05273C7.50977 2.63852 7.84555 2.30273 8.25977 2.30273C8.67386 2.30287 9.00977 2.6386 9.00977 3.05273V4.30566L11.4541 3.57031C11.4648 3.56709 11.4756 3.56425 11.4863 3.56152C11.5537 3.54187 11.6242 3.53126 11.6963 3.53125C11.9616 3.53133 12.2079 3.67186 12.3428 3.90039L12.3438 3.90234C12.3446 3.90384 12.3459 3.90628 12.3477 3.90918C12.3513 3.91532 12.3572 3.92461 12.3643 3.93652C12.3784 3.96058 12.399 3.99663 12.4258 4.04199C12.4793 4.1327 12.5563 4.26349 12.6504 4.42285C12.8385 4.7417 13.0947 5.17613 13.3672 5.6377C13.9124 6.56119 14.5228 7.59268 14.7822 8.03027H14.7812C14.9457 8.30166 15.0242 8.61667 15.0049 8.93359C14.9066 10.6906 13.4839 12.083 11.7246 12.1436C11.7077 12.1441 11.6908 12.1441 11.6738 12.1436C9.91445 12.0846 8.49116 10.6932 8.3916 8.93652V8.9375C8.37044 8.61831 8.44748 8.30033 8.6123 8.02637L10.0732 5.55176L5.94238 6.79492L7.9043 10.1211C8.07022 10.3934 8.14814 10.7102 8.12891 11.0283L8.12988 11.0293C8.03475 12.7888 6.61073 14.1842 4.84961 14.2441C4.83301 14.2447 4.8164 14.2447 4.7998 14.2441C3.03921 14.1856 1.61483 12.7926 1.5166 11.0342L1.51367 10.9121C1.51889 10.6356 1.59851 10.3651 1.74316 10.1279H1.74219L4.18066 5.99902L4.18652 5.9873C4.27737 5.81828 4.43259 5.68371 4.63086 5.62402L7.50977 4.75684V3.05273ZM3.12109 11.4805C3.37373 12.1926 4.03652 12.7056 4.82422 12.7422C5.61128 12.7051 6.27334 12.1921 6.52539 11.4805H3.12109ZM9.99609 9.38184C10.2491 10.0928 10.9115 10.6047 11.6982 10.6416C12.4846 10.6042 13.1464 10.0924 13.3994 9.38184H9.99609ZM3.57129 9.98047H6.08008L4.82617 7.85547L3.57129 9.98047ZM10.4404 7.88184H12.9512C12.684 7.42973 12.3707 6.89825 12.0762 6.39941C11.9436 6.1749 11.8142 5.95729 11.6953 5.75586L10.4404 7.88184Z" fill="currentColor"/>
</svg>
