<svg viewBox="0 0 32 32" fill="none" xmlns="http://www.w3.org/2000/svg">
<path d="M14.5005 5.70898C14.5005 4.88056 15.172 4.20898 16.0005 4.20898C16.8287 4.20919 17.5005 4.88068 17.5005 5.70898V8.61035L23.1118 6.9668L23.2358 6.93555C23.8575 6.80932 24.4986 7.08925 24.8257 7.64355V7.64453H24.8266C24.8271 7.6453 24.8277 7.64692 24.8286 7.64844C24.8304 7.65148 24.8329 7.65626 24.8364 7.66211C24.8435 7.67408 24.854 7.69172 24.8677 7.71484C24.8952 7.76153 24.9358 7.8309 24.9878 7.91895C25.0916 8.09494 25.2409 8.34816 25.4233 8.65723C25.7886 9.2762 26.2869 10.1195 26.8159 11.0156C27.8744 12.8086 29.0575 14.8129 29.561 15.6621H29.56C29.6916 15.8795 29.7939 16.1112 29.8677 16.3516C29.8936 16.425 29.9129 16.501 29.9272 16.5791C29.9903 16.8598 30.0172 17.1489 29.9995 17.4395L29.9985 17.4385C29.8067 20.8722 27.0282 23.5934 23.5903 23.7119C23.5564 23.7131 23.5217 23.7131 23.4878 23.7119C20.0448 23.5963 17.2609 20.8696 17.0737 17.4297V17.4287C17.0571 17.1525 17.0789 16.8772 17.1352 16.6094C17.1501 16.5177 17.1729 16.429 17.2036 16.3438C17.2768 16.1038 17.3776 15.8717 17.5083 15.6543L20.3081 10.9131L11.8979 13.377L15.6411 19.7197L15.7563 19.9277C15.8349 20.0824 15.8985 20.2435 15.9497 20.4082C15.9845 20.5029 16.0107 20.6015 16.0259 20.7041C16.0796 20.9664 16.0988 21.2356 16.0825 21.5059L16.0844 21.5068C15.8989 24.9454 13.1168 27.6728 9.67527 27.79C9.64165 27.7912 9.60732 27.7912 9.57371 27.79C6.13128 27.6754 3.34652 24.9499 3.15769 21.5107L3.15867 21.5098C3.14276 21.2299 3.16616 20.9514 3.22507 20.6807C3.2418 20.5788 3.26803 20.4806 3.30417 20.3867C3.3779 20.159 3.47814 19.9399 3.60398 19.7334H3.60203L8.29734 11.7803C8.48 11.4341 8.79731 11.1597 9.20261 11.041L14.5005 9.48828V5.70898ZM6.38035 22.4258C6.88006 23.7599 8.13496 24.718 9.62253 24.7881C11.1096 24.7175 12.364 23.7595 12.8628 22.4258H6.38035ZM20.2964 18.3516C20.7968 19.6838 22.0513 20.6406 23.5376 20.7109C25.0227 20.6394 26.2755 19.6828 26.7759 18.3516H20.2964ZM7.26804 19.4258H11.9839L9.62644 15.4307L7.26804 19.4258ZM21.1723 15.3516H25.893C25.3831 14.4885 24.7893 13.4852 24.2319 12.541C23.9887 12.129 23.7518 11.7284 23.5317 11.3555L21.1723 15.3516Z" fill="currentColor"/>
</svg>
