<svg viewBox="0 0 16 16" fill="none" xmlns="http://www.w3.org/2000/svg">
<path d="M2.75 10.5C3.16421 10.5 3.5 10.8358 3.5 11.25V11.75C3.5 12.1642 3.83579 12.5 4.25 12.5H4.74805L4.8252 12.5039C5.20327 12.5424 5.49805 12.8618 5.49805 13.25C5.49805 13.6382 5.20327 13.9576 4.8252 13.9961L4.74805 14H4.25C3.00736 14 2 12.9926 2 11.75V11.25C2 10.8358 2.33579 10.5 2.75 10.5Z" fill="currentColor"/>
<path d="M13.25 10.5C13.6642 10.5 14 10.8358 14 11.25V11.75C14 12.9926 12.9926 14 11.75 14H11.25C10.8358 14 10.5 13.6642 10.5 13.25C10.5 12.8358 10.8358 12.5 11.25 12.5H11.75C12.1642 12.5 12.5 12.1642 12.5 11.75V11.25C12.5 10.8358 12.8358 10.5 13.25 10.5Z" fill="currentColor"/>
<path d="M15.3877 7.33203C15.6983 7.39571 15.9316 7.67061 15.9316 8C15.9316 8.32939 15.6983 8.60429 15.3877 8.66797L15.25 8.68164H0.75C0.373442 8.68164 0.0683594 8.37656 0.0683594 8C0.0683594 7.62344 0.373442 7.31836 0.75 7.31836H15.25L15.3877 7.33203Z" fill="currentColor"/>
<path d="M4.8252 2.00391C5.20327 2.04243 5.49805 2.36176 5.49805 2.75C5.49805 3.13824 5.20327 3.45757 4.8252 3.49609L4.74805 3.5H4.25C3.83579 3.5 3.5 3.83579 3.5 4.25V4.75C3.5 5.16421 3.16421 5.5 2.75 5.5C2.33579 5.5 2 5.16421 2 4.75V4.25C2 3.00736 3.00736 2 4.25 2H4.74805L4.8252 2.00391Z" fill="currentColor"/>
<path d="M11.75 2C12.9926 2 14 3.00736 14 4.25V4.75C14 5.16421 13.6642 5.5 13.25 5.5C12.8358 5.5 12.5 5.16421 12.5 4.75V4.25C12.5 3.83579 12.1642 3.5 11.75 3.5H11.25C10.8358 3.5 10.5 3.16421 10.5 2.75C10.5 2.33579 10.8358 2 11.25 2H11.75Z" fill="currentColor"/>
</svg>
