<svg viewBox="0 0 24 24" fill="none" xmlns="http://www.w3.org/2000/svg">
<path d="M4 16C4.55228 16 5 16.4477 5 17V18C5 18.5523 5.44772 19 6 19H7C7.55228 19 8 19.4477 8 20C8 20.5523 7.55228 21 7 21H6C4.34315 21 3 19.6569 3 18V17C3 16.4477 3.44772 16 4 16Z" fill="currentColor"/>
<path d="M20 16C20.5523 16 21 16.4477 21 17V18C21 19.6569 19.6569 21 18 21H17C16.4477 21 16 20.5523 16 20C16 19.4477 16.4477 19 17 19H18C18.5523 19 19 18.5523 19 18V17C19 16.4477 19.4477 16 20 16Z" fill="currentColor"/>
<path d="M23 11C23.5523 11 24 11.4477 24 12C24 12.5523 23.5523 13 23 13H1C0.447715 13 0 12.5523 0 12C0 11.4477 0.447715 11 1 11H23Z" fill="currentColor"/>
<path d="M7 3C7.55228 3 8 3.44772 8 4C8 4.55228 7.55228 5 7 5H6C5.44772 5 5 5.44772 5 6V7C5 7.55228 4.55228 8 4 8C3.44772 8 3 7.55228 3 7V6C3 4.34315 4.34315 3 6 3H7Z" fill="currentColor"/>
<path d="M18 3C19.6569 3 21 4.34315 21 6V7C21 7.55228 20.5523 8 20 8C19.4477 8 19 7.55228 19 7V6C19 5.44772 18.5523 5 18 5H17C16.4477 5 16 4.55228 16 4C16 3.44772 16.4477 3 17 3H18Z" fill="currentColor"/>
</svg>
