<svg viewBox="0 0 32 32" fill="none" xmlns="http://www.w3.org/2000/svg">
<path d="M5.25 21.5C5.94036 21.5 6.5 22.0596 6.5 22.75V24.25C6.5 24.9404 7.05964 25.5 7.75 25.5H9.25C9.94036 25.5 10.5 26.0596 10.5 26.75C10.5 27.4404 9.94036 28 9.25 28H7.75C5.67893 28 4 26.3211 4 24.25V22.75C4 22.0596 4.55964 21.5 5.25 21.5Z" fill="currentColor"/>
<path d="M26.75 21.5C27.4404 21.5 28 22.0596 28 22.75V24.25C28 26.3211 26.3211 28 24.25 28H22.75C22.0596 28 21.5 27.4404 21.5 26.75C21.5 26.0596 22.0596 25.5 22.75 25.5H24.25C24.9404 25.5 25.5 24.9404 25.5 24.25V22.75C25.5 22.0596 26.0596 21.5 26.75 21.5Z" fill="currentColor"/>
<path d="M30.75 14.75C31.4404 14.75 32 15.3096 32 16C32 16.6904 31.4404 17.25 30.75 17.25H1.25C0.559644 17.25 0 16.6904 0 16C0 15.3096 0.559644 14.75 1.25 14.75H30.75Z" fill="currentColor"/>
<path d="M9.25 4C9.94036 4 10.5 4.55964 10.5 5.25C10.5 5.94036 9.94036 6.5 9.25 6.5H7.75C7.05964 6.5 6.5 7.05964 6.5 7.75V9.25C6.5 9.94036 5.94036 10.5 5.25 10.5C4.55964 10.5 4 9.94036 4 9.25V7.75C4 5.67893 5.67893 4 7.75 4H9.25Z" fill="currentColor"/>
<path d="M24.25 4C26.3211 4 28 5.67893 28 7.75V9.25C28 9.94036 27.4404 10.5 26.75 10.5C26.0596 10.5 25.5 9.94036 25.5 9.25V7.75C25.5 7.05964 24.9404 6.5 24.25 6.5H22.75C22.0596 6.5 21.5 5.94036 21.5 5.25C21.5 4.55964 22.0596 4 22.75 4H24.25Z" fill="currentColor"/>
</svg>
