<svg viewBox="0 0 24 24" fill="none" xmlns="http://www.w3.org/2000/svg">
<path d="M8 11C8.55225 11 8.99998 11.4478 9 12V13.5C8.99996 14.0523 8.55227 14.5 8 14.5C7.44774 14.5 7 14.0523 7 13.5V12C7.00004 11.4478 7.44781 11.0001 8 11Z" fill="currentColor"/>
<path d="M11.5 8.5C12.0523 8.50001 12.5 8.94773 12.5 9.5V13.5C12.5 14.0523 12.0523 14.5 11.5 14.5C10.9477 14.5 10.5 14.0523 10.5 13.5V9.5C10.5 8.94774 10.9477 8.50003 11.5 8.5Z" fill="currentColor"/>
<path d="M15 10C15.5523 10 16 10.4478 16 11V13.5C16 14.0523 15.5522 14.5 15 14.5C14.4477 14.5 14 14.0523 14 13.5V11C14 10.4478 14.4478 10 15 10Z" fill="currentColor"/>
<path d="M11.5 2C16.7467 2 21 6.25329 21 11.5C21 13.7631 20.2068 15.8398 18.8857 17.4717L21.707 20.293L21.7754 20.3691C22.0957 20.7619 22.0731 21.3409 21.707 21.707C21.3409 22.0731 20.7619 22.0957 20.3691 21.7754L20.293 21.707L17.4717 18.8857C15.8398 20.2068 13.7631 21 11.5 21C6.25329 21 2 16.7467 2 11.5C2.00039 6.2535 6.2535 2.00039 11.5 2ZM11.5 4C7.35801 4.00035 4.00035 7.35801 4 11.5C4 15.6421 7.35786 19 11.5 19C13.5649 19 15.4348 18.1655 16.791 16.8154C16.795 16.8113 16.7987 16.8068 16.8027 16.8027C16.8068 16.7987 16.8113 16.795 16.8154 16.791C18.1655 15.4348 19 13.5649 19 11.5C19 7.35786 15.6421 4 11.5 4Z" fill="currentColor"/>
</svg>
