<svg viewBox="0 0 24 24" fill="none" xmlns="http://www.w3.org/2000/svg">
<path d="M11.5263 4.89474C15.1888 4.89474 18.1579 7.86379 18.1579 11.5263C18.1579 13.3367 17.4324 14.9777 16.2564 16.1744C16.242 16.1871 16.2279 16.2004 16.2141 16.2141C16.2004 16.2279 16.1871 16.242 16.1744 16.2564C14.9777 17.4324 13.3367 18.1579 11.5263 18.1579C7.8638 18.1579 4.89474 15.1888 4.89474 11.5263C4.89474 7.86379 7.8638 4.89474 11.5263 4.89474ZM18.1881 16.8483C19.3549 15.3897 20.0526 13.5395 20.0526 11.5263C20.0526 6.81736 16.2353 3 11.5263 3C6.81736 3 3 6.81736 3 11.5263C3 16.2353 6.81736 20.0526 11.5263 20.0526C13.5395 20.0526 15.3897 19.3549 16.8483 18.1881L19.3827 20.7225C19.7527 21.0925 20.3526 21.0925 20.7225 20.7225C21.0925 20.3526 21.0925 19.7527 20.7225 19.3827L18.1881 16.8483Z" fill="currentColor"/>
</svg>
