<svg viewBox="0 0 16 16" fill="none" xmlns="http://www.w3.org/2000/svg">
<path d="M5.99976 7.25C6.41395 7.25003 6.74976 7.58581 6.74976 8V8.75C6.74973 9.16419 6.41393 9.49999 5.99976 9.5C5.58557 9.49997 5.24977 9.16418 5.24976 8.75V8C5.24978 7.58581 5.58558 7.25001 5.99976 7.25Z" fill="currentColor"/>
<path d="M7.74976 6C8.16396 6.00001 8.49976 6.33579 8.49976 6.75V8.75C8.49975 9.1642 8.16395 9.49999 7.74976 9.5C7.33555 9.49999 6.99976 9.16421 6.99976 8.75V6.75C6.99977 6.3358 7.33556 6.00001 7.74976 6Z" fill="currentColor"/>
<path d="M9.49976 6.75C9.91396 6.75002 10.2498 7.0858 10.2498 7.5V8.75C10.2497 9.1642 9.91394 9.49999 9.49976 9.5C9.08556 9.49998 8.74977 9.16419 8.74976 8.75V7.5C8.74977 7.0858 9.08557 6.75001 9.49976 6.75Z" fill="currentColor"/>
<path d="M7.74976 2.75C10.5112 2.75 12.7498 4.98858 12.7498 7.75C12.7498 8.86012 12.3872 9.88519 11.7751 10.7148L13.03 11.9697L13.0818 12.0264C13.322 12.3209 13.3046 12.7557 13.03 13.0303C12.7554 13.3049 12.3207 13.3223 12.0261 13.082L11.9695 13.0303L10.7146 11.7754C9.88495 12.3875 8.85987 12.75 7.74976 12.75C4.98833 12.75 2.74976 10.5114 2.74976 7.75C2.74996 4.98869 4.98845 2.7502 7.74976 2.75ZM7.74976 4.25C5.81683 4.25017 4.24993 5.81708 4.24976 7.75C4.24976 9.683 5.81676 11.25 7.74976 11.25C9.68275 11.25 11.2498 9.683 11.2498 7.75C11.2498 5.817 9.68275 4.25 7.74976 4.25Z" fill="currentColor"/>
</svg>
