<svg viewBox="0 0 32 32" fill="none" xmlns="http://www.w3.org/2000/svg">
<path d="M15.2353 4.25C21.3023 4.25 26.2206 9.16828 26.2206 15.2353C26.2206 18.238 25.0159 20.9593 23.0634 22.9422C23.042 22.9609 23.0211 22.9804 23.0008 23.0008C22.9804 23.0212 22.9609 23.042 22.9422 23.0634C20.9593 25.0159 18.238 26.2206 15.2353 26.2206C9.16828 26.2206 4.25 21.3023 4.25 15.2353C4.25 9.16828 9.16828 4.25 15.2353 4.25ZM25.6139 23.8461C27.554 21.5103 28.7206 18.509 28.7206 15.2353C28.7206 7.78757 22.683 1.75 15.2353 1.75C7.78757 1.75 1.75 7.78757 1.75 15.2353C1.75 22.683 7.78757 28.7206 15.2353 28.7206C18.509 28.7206 21.5103 27.554 23.8461 25.6139L28.1161 29.8839C28.6043 30.372 29.3957 30.372 29.8839 29.8839C30.372 29.3957 30.372 28.6043 29.8839 28.1161L25.6139 23.8461Z" fill="currentColor"/>
</svg>
