<svg viewBox="0 0 16 16" fill="none" xmlns="http://www.w3.org/2000/svg">
<path d="M7.67647 3.25C10.1211 3.25 12.1029 5.2318 12.1029 7.67647C12.1029 8.88365 11.6197 9.97796 10.8361 10.7765C10.8257 10.7858 10.8155 10.7955 10.8055 10.8055C10.7955 10.8155 10.7858 10.8257 10.7765 10.8361C9.97796 11.6197 8.88365 12.1029 7.67647 12.1029C5.2318 12.1029 3.25 10.1211 3.25 7.67647C3.25 5.2318 5.2318 3.25 7.67647 3.25ZM12.364 11.3033C13.1406 10.3009 13.6029 9.04268 13.6029 7.67647C13.6029 4.40337 10.9496 1.75 7.67647 1.75C4.40337 1.75 1.75 4.40337 1.75 7.67647C1.75 10.9496 4.40337 13.6029 7.67647 13.6029C9.04268 13.6029 10.3009 13.1406 11.3033 12.364L12.9697 14.0303C13.2626 14.3232 13.7374 14.3232 14.0303 14.0303C14.3232 13.7374 14.3232 13.2626 14.0303 12.9697L12.364 11.3033Z" fill="currentColor"/>
</svg>
