<svg viewBox="0 0 32 32" fill="none" xmlns="http://www.w3.org/2000/svg">
<path d="M10.3513 14.75C11.0415 14.75 11.6011 15.3099 11.6013 16V18.1172C11.6013 18.8075 11.0417 19.3672 10.3513 19.3672C9.66113 19.3669 9.10127 18.8074 9.10132 18.1172V16C9.10161 15.3101 9.66142 14.7503 10.3513 14.75Z" fill="currentColor"/>
<path d="M15.2937 11.2197C15.9838 11.2199 16.5435 11.7797 16.5437 12.4697V18.1172C16.5437 18.8074 15.9839 19.367 15.2937 19.3672C14.6034 19.3671 14.0437 18.8075 14.0437 18.1172V12.4697C14.044 11.7796 14.6036 11.2198 15.2937 11.2197Z" fill="currentColor"/>
<path d="M20.2351 13.3379C20.9253 13.3379 21.4849 13.8977 21.4851 14.5879V18.1172C21.4851 18.8075 20.9254 19.3672 20.2351 19.3672C19.5448 19.3671 18.9851 18.8075 18.9851 18.1172V14.5879C18.9854 13.8979 19.5451 13.3381 20.2351 13.3379Z" fill="currentColor"/>
<path d="M15.6355 2.0459C22.7959 2.22736 28.5444 8.08988 28.5447 15.2939C28.5446 18.503 27.4037 21.4455 25.5056 23.7383L29.5906 27.8232L29.6765 27.918C30.0771 28.4089 30.0482 29.1331 29.5906 29.5908C29.1329 30.0485 28.4087 30.0774 27.9177 29.6768L27.823 29.5908L23.738 25.5059C21.4452 27.404 18.5028 28.5448 15.2937 28.5449C8.08952 28.5448 2.22712 22.7962 2.04565 15.6357L2.04175 15.2939C2.04253 7.97583 7.97556 2.04264 15.2937 2.04199L15.6355 2.0459ZM15.2937 4.54199C9.35612 4.54254 4.54243 9.3564 4.54175 15.2939L4.55542 15.8467C4.84327 21.5275 9.54133 26.0448 15.2937 26.0449C18.2558 26.0448 20.938 24.847 22.8826 22.9092C22.8868 22.9048 22.8909 22.8999 22.8953 22.8955C22.8996 22.8912 22.9045 22.8871 22.9089 22.8828C24.8467 20.9383 26.0446 18.256 26.0447 15.2939C26.0444 9.54169 21.5272 4.84351 15.8464 4.55566L15.2937 4.54199Z" fill="currentColor"/>
</svg>
