<svg viewBox="0 0 32 32" fill="none" xmlns="http://www.w3.org/2000/svg">
<path d="M25.3341 6C26.2928 6 27.1783 6.51446 27.6525 7.34766C28.1266 8.18091 28.1168 9.20514 27.6271 10.0293L17.714 26.6943C17.1549 27.6351 16.0776 28.1389 14.9972 27.9648C13.9168 27.7907 13.0518 26.974 12.8165 25.9053L11.0434 17.8497C11.0098 17.697 11.11 17.5504 11.2472 17.4756L16.5812 14.5664C17.0657 14.3019 17.2438 13.6947 16.9796 13.21C16.7152 12.7251 16.108 12.5461 15.6232 12.8105L10.2902 15.7197C10.154 15.794 9.97711 15.7974 9.86794 15.6872L4.77258 10.543C4.01534 9.7784 3.79115 8.63386 4.2052 7.64062C4.61945 6.64728 5.59085 5.99997 6.66711 6H25.3341Z" fill="currentColor"/>
</svg>
