<svg viewBox="0 0 24 24" fill="none" xmlns="http://www.w3.org/2000/svg">
<path d="M19.0028 4C19.7218 4 20.3855 4.38579 20.7411 5.01074C21.0966 5.63569 21.0899 6.40338 20.7225 7.02148L13.285 19.5205C12.8657 20.2259 12.0581 20.6032 11.2479 20.4727C10.4377 20.3421 9.78971 19.7301 9.61317 18.9287L8.23621 12.6758C8.30392 12.6609 8.37151 12.6403 8.43543 12.6055L12.4354 10.4238C12.7989 10.2254 12.9326 9.76979 12.7343 9.40625C12.5358 9.04292 12.0802 8.90915 11.7167 9.10742L7.71668 11.2891C7.65314 11.3238 7.59863 11.3684 7.54969 11.417L3.57899 7.40723C3.01094 6.83373 2.84349 5.9745 3.15418 5.22949C3.46488 4.48467 4.19287 4.0001 4.99989 4H19.0028Z" fill="currentColor"/>
</svg>
