<svg viewBox="0 0 16 16" fill="none" xmlns="http://www.w3.org/2000/svg">
<path d="M12.6622 3C13.1415 3 13.5843 3.25719 13.8214 3.67383C14.0583 4.09044 14.0535 4.60261 13.8087 5.01465L8.85651 13.3467C8.57704 13.8169 8.03915 14.0693 7.49909 13.9824C6.95888 13.8954 6.5259 13.4865 6.40827 12.9521L5.49128 8.78418C5.53624 8.77426 5.58162 8.76045 5.62409 8.7373L8.29108 7.28223C8.53291 7.14981 8.62229 6.84665 8.4903 6.60449C8.35814 6.36221 8.05395 6.27337 7.81159 6.40527L5.14557 7.85938C5.10339 7.88238 5.06678 7.91215 5.03425 7.94434L2.38581 5.27148C2.00739 4.88926 1.89575 4.3168 2.1026 3.82031C2.30973 3.32364 2.79592 2.99999 3.33405 3H12.6622Z" fill="currentColor"/>
</svg>
