<svg viewBox="0 0 16 16" fill="none" xmlns="http://www.w3.org/2000/svg">
<path d="M9.69312 6.16788C9.98769 5.92769 10.4225 5.94508 10.697 6.21963C10.9714 6.49422 10.9889 6.92904 10.7488 7.22354L10.697 7.28018L8.19702 9.78018C7.92249 10.0547 7.48769 10.072 7.19312 9.83194L7.13647 9.78018L5.63647 8.28018L5.58472 8.22354C5.34441 7.92896 5.36187 7.49424 5.63647 7.21963C5.91108 6.94514 6.34584 6.9276 6.64038 7.16788L6.69702 7.21963L7.66675 8.18936L9.63647 6.21963L9.69312 6.16788Z" fill="currentColor"/>
<path d="M6.72046 1.71768C7.60734 1.40438 8.5813 1.42605 9.45581 1.78409L12.7888 3.14834L12.9324 3.21377C13.6332 3.56462 14.0836 4.283 14.0837 5.07608V7.45401C14.0837 10.8407 11.5562 13.9688 8.16479 14.7314C8.05661 14.7557 7.94388 14.7556 7.83569 14.7314C4.444 13.969 1.91675 10.8409 1.91675 7.45401V5.07608C1.91691 4.23075 2.42807 3.4684 3.21167 3.14834L6.54468 1.78409L6.72046 1.71768ZM8.88745 3.17276C8.38996 2.96908 7.83949 2.94382 7.32886 3.09659L7.11304 3.17276L3.77905 4.53702C3.56041 4.62627 3.41691 4.83918 3.41675 5.07608V7.45401C3.41675 10.0675 5.35928 12.5508 7.99976 13.2265C10.6404 12.5509 12.5837 10.0676 12.5837 7.45401V5.07608C12.5836 4.83986 12.4402 4.62617 12.2205 4.53604L8.88745 3.17276Z" fill="currentColor"/>
</svg>
