<svg viewBox="0 0 24 24" fill="none" xmlns="http://www.w3.org/2000/svg">
<path d="M10.123 2.69416C11.4243 2.23457 12.8526 2.26656 14.1357 2.79182L19.1357 4.83771L19.3428 4.93244C20.3523 5.43775 21 6.47281 21 7.61506V11.1815C21 16.0449 17.482 20.5538 12.6875 21.8592L12.2197 21.9754C12.1114 21.9998 11.9995 22.0062 11.8896 21.994L11.7803 21.9754C6.74856 20.8443 3.00001 16.2018 3 11.1815V7.61506C3 6.39759 3.73586 5.29868 4.86426 4.83771L9.86426 2.79182L10.123 2.69416ZM10.6309 9.40998C10.2382 9.08985 9.65904 9.11246 9.29297 9.47834C8.92692 9.84438 8.90446 10.4235 9.22461 10.8162L9.29297 10.8924L10.5859 12.1854L9.29297 13.4783C8.90251 13.8688 8.90264 14.5019 9.29297 14.8924C9.68349 15.2829 10.3165 15.2829 10.707 14.8924L12 13.5994L13.293 14.8924L13.3691 14.9608C13.7619 15.2811 14.3409 15.2585 14.707 14.8924C15.073 14.5263 15.0957 13.9472 14.7754 13.5545L14.707 13.4783L13.4141 12.1854L14.707 10.8924L14.7754 10.8162C15.0955 10.4235 15.0731 9.84438 14.707 9.47834C14.341 9.11246 13.7618 9.08985 13.3691 9.40998L13.293 9.47834L12 10.7713L10.707 9.47834L10.6309 9.40998Z" fill="currentColor"/>
</svg>
