<svg viewBox="0 0 32 32" fill="none" xmlns="http://www.w3.org/2000/svg">
<path d="M19.4495 12.6156C19.9375 12.1276 20.7289 12.1278 21.217 12.6156C21.7052 13.1038 21.7052 13.8951 21.217 14.3832L16.217 19.3832C15.7289 19.8714 14.9376 19.8714 14.4495 19.3832L11.4495 16.3832L11.3635 16.2885C10.9634 15.7975 10.9919 15.0732 11.4495 14.6156C11.907 14.1581 12.6314 14.1295 13.1223 14.5297L13.217 14.6156L15.3333 16.7318L19.4495 12.6156Z" fill="currentColor"/>
<path d="M13.5247 3.67032C15.2405 3.06429 17.1247 3.10755 18.8167 3.8002L18.8157 3.80118L25.4827 6.52872L25.7532 6.65177C27.0711 7.31152 27.9163 8.66254 27.9163 10.1537V14.9096C27.916 21.5634 22.9457 27.7205 16.2737 29.2201C16.0935 29.2605 15.906 29.2606 15.7258 29.2201C9.05395 27.7204 4.08348 21.5633 4.08325 14.9096V10.1537C4.08325 8.66337 4.92858 7.30988 6.24829 6.65079L6.51782 6.52774L13.1838 3.8002L13.5247 3.67032ZM17.8694 6.11466C16.7464 5.65493 15.4956 5.62539 14.3567 6.02774L14.1311 6.11466L7.46411 8.8422L7.46313 8.84317C6.93168 9.06035 6.58325 9.57834 6.58325 10.1537V14.9096C6.58348 20.2742 10.5793 25.3565 15.9993 26.7123C21.42 25.3571 25.416 20.2747 25.4163 14.9096V10.1537C25.4163 9.61505 25.1111 9.12628 24.6331 8.88712L24.5354 8.8422L17.8694 6.11466Z" fill="currentColor"/>
</svg>
