<svg viewBox="0 0 16 16" fill="none" xmlns="http://www.w3.org/2000/svg">
<path d="M6.72046 1.71768C7.60734 1.40438 8.5813 1.42605 9.45581 1.78409L12.7888 3.14834L12.9324 3.21377C13.6332 3.56462 14.0836 4.283 14.0837 5.07608V7.45401C14.0837 10.8407 11.5562 13.9688 8.16479 14.7314C8.05661 14.7557 7.94388 14.7556 7.83569 14.7314C4.444 13.969 1.91675 10.8409 1.91675 7.45401V5.07608C1.91691 4.23075 2.42807 3.4684 3.21167 3.14834L6.54468 1.78409L6.72046 1.71768ZM9.86401 6.26065C9.57117 5.96781 9.09637 5.96792 8.80347 6.26065L7.99976 7.06338L7.19702 6.26065L7.14038 6.20889C6.8458 5.96858 6.41108 5.98604 6.13647 6.26065C5.86188 6.53525 5.84441 6.96998 6.08472 7.26455L6.13647 7.3212L6.93921 8.12393L6.13647 8.92764C5.84375 9.22055 5.84364 9.69535 6.13647 9.98819C6.42935 10.2805 6.90428 10.2807 7.19702 9.98819L7.99976 9.18448L8.80347 9.98819L8.86011 10.039C9.15468 10.2791 9.58948 10.2627 9.86401 9.98819C10.1385 9.71366 10.1549 9.27886 9.91479 8.98428L9.86401 8.92764L9.0603 8.12393L9.86401 7.3212C10.1566 7.02846 10.1564 6.55353 9.86401 6.26065Z" fill="currentColor"/>
</svg>
