<svg viewBox="0 0 16 16" fill="none" xmlns="http://www.w3.org/2000/svg">
<path d="M6.72046 1.71768C7.60734 1.40438 8.5813 1.42605 9.45581 1.78409L12.7888 3.14834L12.9324 3.21377C13.6332 3.56462 14.0836 4.283 14.0837 5.07608V7.45401C14.0837 10.8407 11.5562 13.9688 8.16479 14.7314C8.05661 14.7557 7.94388 14.7556 7.83569 14.7314C4.444 13.969 1.91675 10.8409 1.91675 7.45401V5.07608C1.91691 4.23075 2.42807 3.4684 3.21167 3.14834L6.54468 1.78409L6.72046 1.71768ZM10.697 6.21963C10.4225 5.94508 9.98769 5.92769 9.69312 6.16788L9.63647 6.21963L7.66675 8.18936L6.69702 7.21963L6.64038 7.16788C6.34584 6.9276 5.91108 6.94514 5.63647 7.21963C5.36187 7.49424 5.34441 7.92896 5.58472 8.22354L5.63647 8.28018L7.13647 9.78018L7.19312 9.83194C7.48769 10.072 7.92249 10.0547 8.19702 9.78018L10.697 7.28018L10.7488 7.22354C10.9889 6.92904 10.9714 6.49422 10.697 6.21963Z" fill="currentColor"/>
</svg>
