<svg viewBox="0 0 24 24" fill="none" xmlns="http://www.w3.org/2000/svg">
<path d="M9.54297 9.54279C9.90908 9.17668 10.4881 9.15408 10.8809 9.47443L10.957 9.54279L12.25 10.8358L13.543 9.54279L13.6191 9.47443C14.0119 9.15408 14.5909 9.17668 14.957 9.54279C15.3231 9.90891 15.3457 10.4879 15.0254 10.8807L14.957 10.9569L13.6641 12.2498L14.957 13.5428L15.0254 13.619C15.3456 14.0117 15.3231 14.5908 14.957 14.9569C14.5909 15.3228 14.0119 15.3455 13.6191 15.0252L13.543 14.9569L12.25 13.6639L10.957 14.9569C10.5665 15.3472 9.93347 15.3472 9.54297 14.9569C9.15248 14.5664 9.15254 13.9333 9.54297 13.5428L10.8359 12.2498L9.54297 10.9569L9.47461 10.8807C9.15429 10.4879 9.17695 9.90891 9.54297 9.54279Z" fill="currentColor"/>
<path d="M10.123 2.69416C11.4243 2.23457 12.8526 2.26656 14.1357 2.79182L19.1357 4.83771L19.3428 4.93244C20.3523 5.43775 21 6.47281 21 7.61506V11.1815C21 16.0449 17.482 20.5538 12.6875 21.8592L12.2197 21.9754C12.1114 21.9998 11.9995 22.0062 11.8896 21.994L11.7803 21.9754C6.74856 20.8443 3.00001 16.2018 3 11.1815V7.61506C3 6.39759 3.73586 5.29868 4.86426 4.83771L9.86426 2.79182L10.123 2.69416ZM13.3779 4.64338C12.55 4.30444 11.6287 4.28337 10.7891 4.5799L10.6221 4.64338L5.62207 6.68928C5.24683 6.84247 5 7.20876 5 7.61506V11.1815C5.00001 15.1708 7.96934 18.954 12 19.9696C16.0307 18.954 19 15.1708 19 11.1815V7.61506C19 7.2602 18.8122 6.93561 18.5127 6.75666L18.3779 6.68928L13.3779 4.64338Z" fill="currentColor"/>
</svg>
