<svg viewBox="0 0 16 16" fill="none" xmlns="http://www.w3.org/2000/svg">
<path d="M8.96948 6.30264C9.2623 6.01 9.73717 6.01008 10.03 6.30264C10.3227 6.59549 10.3227 7.07034 10.03 7.36319L9.22632 8.16592L10.03 8.96963L10.0808 9.02627C10.3212 9.32086 10.3047 9.75554 10.03 10.0302C9.75538 10.3048 9.32069 10.3214 9.02612 10.081L8.96948 10.0302L8.16577 9.22647L7.36304 10.0302C7.07018 10.3228 6.59533 10.3228 6.30249 10.0302C6.00994 9.73734 6.0099 9.26245 6.30249 8.96963L7.10522 8.16592L6.30249 7.36319L6.25073 7.30655C6.01069 7.01199 6.02803 6.57716 6.30249 6.30264C6.577 6.02813 7.01182 6.01084 7.3064 6.25088L7.36304 6.30264L8.16577 7.10538L8.96948 6.30264Z" fill="currentColor"/>
<path d="M6.72046 1.71768C7.60734 1.40438 8.5813 1.42605 9.45581 1.78409L12.7888 3.14834L12.9324 3.21377C13.6332 3.56462 14.0836 4.283 14.0837 5.07608V7.45401C14.0837 10.8407 11.5562 13.9688 8.16479 14.7314C8.05661 14.7557 7.94388 14.7556 7.83569 14.7314C4.444 13.969 1.91675 10.8409 1.91675 7.45401V5.07608C1.91691 4.23075 2.42807 3.4684 3.21167 3.14834L6.54468 1.78409L6.72046 1.71768ZM8.88745 3.17276C8.38996 2.96908 7.83949 2.94382 7.32886 3.09659L7.11304 3.17276L3.77905 4.53702C3.56041 4.62627 3.41691 4.83918 3.41675 5.07608V7.45401C3.41675 10.0675 5.35928 12.5508 7.99976 13.2265C10.6404 12.5509 12.5837 10.0676 12.5837 7.45401V5.07608C12.5836 4.83986 12.4402 4.62617 12.2205 4.53604L8.88745 3.17276Z" fill="currentColor"/>
</svg>
