<svg viewBox="0 0 32 32" fill="none" xmlns="http://www.w3.org/2000/svg">
<path d="M18.1165 12.7826C18.6046 12.2947 19.3959 12.2947 19.884 12.7826C20.372 13.2707 20.372 14.0621 19.884 14.5502L18.1008 16.3324L19.884 18.1156L19.97 18.2104C20.3706 18.7013 20.3416 19.4255 19.884 19.8832C19.4263 20.3409 18.7022 20.3698 18.2112 19.9691L18.1165 19.8832L16.3333 18.1L14.551 19.8832C14.0629 20.3713 13.2716 20.3712 12.7834 19.8832C12.2955 19.395 12.2953 18.6037 12.7834 18.1156L14.5657 16.3324L12.7834 14.5502L12.6975 14.4555C12.297 13.9645 12.3258 13.2403 12.7834 12.7826C13.2411 12.3251 13.9654 12.2963 14.4563 12.6967L14.551 12.7826L16.3333 14.5649L18.1165 12.7826Z" fill="currentColor"/>
<path d="M13.5247 3.67032C15.2405 3.06429 17.1247 3.10755 18.8167 3.8002L18.8157 3.80118L25.4827 6.52872L25.7532 6.65177C27.0711 7.31152 27.9163 8.66254 27.9163 10.1537V14.9096C27.916 21.5634 22.9457 27.7205 16.2737 29.2201C16.0935 29.2605 15.906 29.2606 15.7258 29.2201C9.05395 27.7204 4.08348 21.5633 4.08325 14.9096V10.1537C4.08325 8.66337 4.92858 7.30988 6.24829 6.65079L6.51782 6.52774L13.1838 3.8002L13.5247 3.67032ZM17.8694 6.11466C16.7464 5.65493 15.4956 5.62539 14.3567 6.02774L14.1311 6.11466L7.46411 8.8422L7.46313 8.84317C6.93168 9.06035 6.58325 9.57834 6.58325 10.1537V14.9096C6.58348 20.2742 10.5793 25.3565 15.9993 26.7123C21.42 25.3571 25.416 20.2747 25.4163 14.9096V10.1537C25.4163 9.61505 25.1111 9.12628 24.6331 8.88712L24.5354 8.8422L17.8694 6.11466Z" fill="currentColor"/>
</svg>
