<svg viewBox="0 0 32 32" fill="none" xmlns="http://www.w3.org/2000/svg">
<path d="M13.5247 3.67032C15.2405 3.06429 17.1247 3.10755 18.8167 3.8002L18.8157 3.80118L25.4827 6.52872L25.7532 6.65177C27.0711 7.31152 27.9163 8.66254 27.9163 10.1537V14.9096C27.916 21.5634 22.9457 27.7205 16.2737 29.2201C16.0935 29.2605 15.906 29.2606 15.7258 29.2201C9.05395 27.7204 4.08348 21.5633 4.08325 14.9096V10.1537C4.08325 8.66337 4.92858 7.30988 6.24829 6.65079L6.51782 6.52774L13.1838 3.8002L13.5247 3.67032ZM21.217 12.6156C20.7289 12.1278 19.9375 12.1276 19.4495 12.6156L15.3333 16.7318L13.217 14.6156L13.1223 14.5297C12.6314 14.1295 11.907 14.1581 11.4495 14.6156C10.9919 15.0732 10.9634 15.7975 11.3635 16.2885L11.4495 16.3832L14.4495 19.3832C14.9376 19.8714 15.7289 19.8714 16.217 19.3832L21.217 14.3832C21.7052 13.8951 21.7052 13.1038 21.217 12.6156Z" fill="currentColor"/>
</svg>
