<svg viewBox="0 0 24 24" fill="none" xmlns="http://www.w3.org/2000/svg">
<path d="M10.123 2.69416C11.4243 2.23457 12.8526 2.26656 14.1357 2.79182L19.1357 4.83771L19.3428 4.93244C20.3523 5.43775 21 6.47281 21 7.61506V11.1815C21 16.0449 17.482 20.5538 12.6875 21.8592L12.2197 21.9754C12.1114 21.9998 11.9995 22.0062 11.8896 21.994L11.7803 21.9754C6.74856 20.8443 3.00001 16.2018 3 11.1815V7.61506C3 6.39759 3.73586 5.29868 4.86426 4.83771L9.86426 2.79182L10.123 2.69416ZM15.957 9.41779C15.5909 9.05168 15.0119 9.02908 14.6191 9.34943L14.543 9.41779L11.5 12.4608L9.95703 10.9178L9.88086 10.8494C9.48809 10.5291 8.90908 10.5517 8.54297 10.9178C8.17695 11.2839 8.15429 11.8629 8.47461 12.2557L8.54297 12.3319L10.793 14.5819L10.8691 14.6502C11.2619 14.9705 11.8409 14.9478 12.207 14.5819L15.957 10.8319L16.0254 10.7557C16.3457 10.3629 16.3231 9.78391 15.957 9.41779Z" fill="currentColor"/>
</svg>
