<svg viewBox="0 0 32 32" fill="none" xmlns="http://www.w3.org/2000/svg">
<path d="M13.5247 3.67032C15.2405 3.06429 17.1247 3.10755 18.8167 3.8002L18.8157 3.80118L25.4827 6.52872L25.7532 6.65177C27.0711 7.31152 27.9163 8.66254 27.9163 10.1537V14.9096C27.916 21.5634 22.9457 27.7205 16.2737 29.2201C16.0935 29.2605 15.906 29.2606 15.7258 29.2201C9.05395 27.7204 4.08348 21.5633 4.08325 14.9096V10.1537C4.08325 8.66337 4.92858 7.30988 6.24829 6.65079L6.51782 6.52774L13.1838 3.8002L13.5247 3.67032ZM19.55 12.6977C19.0619 12.2098 18.2705 12.2096 17.7825 12.6977L15.9993 14.4799L14.217 12.6977L14.1223 12.6117C13.6313 12.2114 12.9071 12.24 12.4495 12.6977C11.992 13.1553 11.9632 13.8796 12.3635 14.3705L12.4495 14.4652L14.2317 16.2475L12.4495 18.0307C11.9616 18.5188 11.9616 19.3102 12.4495 19.7983C12.9375 20.2863 13.7289 20.2862 14.217 19.7983L15.9993 18.015L17.7825 19.7983L17.8772 19.8842C18.3681 20.2849 19.0923 20.2558 19.55 19.7983C20.0078 19.3405 20.0368 18.6164 19.636 18.1254L19.55 18.0307L17.7668 16.2475L19.55 14.4652C20.0382 13.9771 20.0382 13.1858 19.55 12.6977Z" fill="currentColor"/>
</svg>
