<svg viewBox="0 0 16 16" fill="none" xmlns="http://www.w3.org/2000/svg">
<path d="M6.33286 7.91583C6.74698 7.91583 7.08271 8.25174 7.08286 8.66583V11.3328C7.08268 11.7469 6.74697 12.0828 6.33286 12.0828C5.94466 12.0826 5.62506 11.7871 5.58677 11.409L5.58286 11.3328V8.66583C5.58301 8.25189 5.91894 7.91606 6.33286 7.91583Z" fill="currentColor"/>
<path d="M9.66587 7.91583C10.08 7.91583 10.4157 8.25174 10.4159 8.66583V11.3328C10.4157 11.7469 10.08 12.0828 9.66587 12.0828C9.27778 12.0825 8.95806 11.7871 8.91978 11.409L8.91587 11.3328V8.66583C8.91602 8.25197 9.25206 7.9162 9.66587 7.91583Z" fill="currentColor"/>
<path d="M9.95493 1.35235C10.2902 1.15676 10.7145 1.25038 10.9383 1.55743L10.9803 1.62189L13.1073 5.26739C13.6712 5.33666 14.192 5.61705 14.5604 6.05841C14.9344 6.50668 15.1171 7.07999 15.077 7.65606L15.0467 7.90216L14.1375 12.9022C13.9551 13.9049 13.1247 14.6516 12.1258 14.741L11.9237 14.7498H4.07603C3.05679 14.7497 2.17372 14.0662 1.90708 13.0994L1.86216 12.9022L0.952978 7.90216C0.833733 7.24602 1.01216 6.57053 1.43931 6.05841C1.80736 5.6174 2.3281 5.33701 2.89145 5.26739L5.01841 1.62189C5.22708 1.2642 5.68606 1.14384 6.0438 1.35235C6.40155 1.56104 6.52293 2.01997 6.31431 2.37774L4.63853 5.24981H11.3602L9.6854 2.37774L9.64927 2.30939C9.49217 1.9636 9.62 1.54809 9.95493 1.35235ZM3.08384 6.7547C2.89279 6.77607 2.71521 6.87012 2.59067 7.01935C2.44859 7.18991 2.38898 7.41516 2.42856 7.6336L3.33774 12.6336L3.37388 12.7625C3.48166 13.051 3.75898 13.2497 4.07603 13.2498H11.9237L12.0565 13.2381C12.3597 13.1837 12.6041 12.9456 12.661 12.6336L13.5702 7.6336L13.5809 7.55157C13.5942 7.35962 13.5327 7.1687 13.4081 7.01935C13.2835 6.87019 13.1069 6.77602 12.9159 6.7547L12.8329 6.74981H3.16685L3.08384 6.7547Z" fill="currentColor"/>
</svg>
