<svg viewBox="0 0 32 32" fill="none" xmlns="http://www.w3.org/2000/svg">
<path d="M12.6669 16.0843C13.3571 16.0845 13.9169 16.644 13.9169 17.3343V22.6673C13.9168 23.3575 13.357 23.9171 12.6669 23.9173C11.9766 23.9172 11.4169 23.3576 11.4169 22.6673V17.3343C11.4169 16.644 11.9766 16.0844 12.6669 16.0843Z" fill="currentColor"/>
<path d="M19.3338 16.0843C20.024 16.0845 20.5838 16.6441 20.5838 17.3343V22.6673C20.5838 23.3575 20.024 23.9171 19.3338 23.9173C18.6435 23.9173 18.0839 23.3576 18.0838 22.6673V17.3343C18.0838 16.6439 18.6435 16.0843 19.3338 16.0843Z" fill="currentColor"/>
<path d="M20.037 2.92023C20.5958 2.59449 21.3037 2.75126 21.6766 3.263L21.7469 3.37042L26.0624 10.7708C27.1738 10.8749 28.2064 11.4117 28.9286 12.2767C29.6855 13.1836 30.0284 14.3624 29.8827 15.5277L29.8465 15.761L28.0292 25.761C27.6731 27.7186 26.0098 29.1584 24.0389 29.2464L23.8475 29.2503H8.15221C6.16262 29.2501 4.44787 27.8718 4.00865 25.9485L3.97057 25.761L2.15221 15.761C1.92694 14.5213 2.26377 13.2441 3.07115 12.2767C3.79308 11.4119 4.82538 10.8742 5.93639 10.7698L10.2538 3.37042L10.3241 3.263C10.6971 2.75137 11.4049 2.59435 11.9637 2.92023C12.5598 3.26805 12.7605 4.03397 12.4129 4.63019L8.84361 10.7503H23.1571L19.5868 4.63019L19.5282 4.51691C19.2659 3.9402 19.4779 3.24634 20.037 2.92023ZM6.14049 13.261C5.69438 13.3107 5.28088 13.5308 4.9901 13.8792C4.65784 14.2775 4.51953 14.8035 4.61217 15.3138L6.43053 25.3138L6.46568 25.4671C6.67321 26.2188 7.35968 26.7501 8.15221 26.7503H23.8475L24.0047 26.7435C24.7815 26.6738 25.4272 26.0936 25.5692 25.3138L27.3876 15.3138L27.411 15.1214C27.442 14.6735 27.2995 14.2277 27.0087 13.8792C26.7177 13.5308 26.3045 13.3105 25.8583 13.261L25.6659 13.2503H6.33385L6.14049 13.261Z" fill="currentColor"/>
</svg>
