<svg viewBox="0 0 16 16" fill="none" xmlns="http://www.w3.org/2000/svg">
<path d="M3.46289 1.5957C3.7594 1.64762 4.0015 1.87415 4.06641 2.17676L4.36816 3.58301H13.333L13.4961 3.59277C13.8201 3.63036 14.1214 3.77879 14.3486 4.0127L14.4561 4.13672L14.5479 4.27246C14.7154 4.5523 14.7815 4.88137 14.7344 5.2041L14.7012 5.36426L13.6357 9.36426C13.4807 9.94567 12.9769 10.3615 12.3857 10.4111L12.2666 10.416H5.83203L5.93945 10.916H12.167L12.2432 10.9199L12.248 10.9209C13.2688 10.9636 14.083 11.8027 14.083 12.834C14.0826 13.892 13.2251 14.7498 12.167 14.75C11.1087 14.75 10.2504 13.8922 10.25 12.834C10.25 12.6905 10.267 12.5505 10.2969 12.416H7.36914C7.39903 12.5505 7.41602 12.6905 7.41602 12.834C7.41558 13.892 6.55812 14.7498 5.5 14.75C4.44184 14.7499 3.58345 13.8921 3.58301 12.834C3.58301 12.1551 3.9372 11.5594 4.46973 11.2188L2.72656 3.08398H2C1.58595 3.08398 1.25026 2.74797 1.25 2.33398C1.25 1.91977 1.58579 1.58301 2 1.58301H3.33301L3.46289 1.5957ZM5.5 12.417C5.26999 12.4171 5.08301 12.6039 5.08301 12.834C5.08345 13.0636 5.27026 13.2499 5.5 13.25C5.7297 13.2498 5.91558 13.0636 5.91602 12.834C5.91602 12.604 5.72997 12.4172 5.5 12.417ZM12.167 12.417C11.9369 12.417 11.75 12.6039 11.75 12.834C11.7504 13.0637 11.9371 13.25 12.167 13.25C12.3967 13.2498 12.5826 13.0636 12.583 12.834C12.583 12.604 12.397 12.4172 12.167 12.417ZM5.51074 8.91602H12.2021L13.2236 5.08301H4.68945L5.51074 8.91602Z" fill="currentColor"/>
</svg>
