<svg viewBox="0 0 24 24" fill="none" xmlns="http://www.w3.org/2000/svg">
<path d="M7.734 17H18.36C19.785 17 21.023 15.985 21.301 14.589L23.219 5H5.438L4.867 1H0V3H3.133L4.764 14.425C4.974 15.893 6.251 17 7.734 17Z" fill="currentColor"/>
<path d="M6 23C7.10457 23 8 22.1046 8 21C8 19.8954 7.10457 19 6 19C4.89543 19 4 19.8954 4 21C4 22.1046 4.89543 23 6 23Z" fill="currentColor"/>
<path d="M20 23C21.1046 23 22 22.1046 22 21C22 19.8954 21.1046 19 20 19C18.8954 19 18 19.8954 18 21C18 22.1046 18.8954 23 20 23Z" fill="currentColor"/>
</svg>
