<svg viewBox="0 0 16 16" fill="none" xmlns="http://www.w3.org/2000/svg">
<path d="M5.156 11.3337H12.24C13.19 11.3337 14.0153 10.657 14.2007 9.72633L15.4793 3.33366H3.62533L3.24467 0.666992H0V2.00033H2.08867L3.176 9.61699C3.316 10.5957 4.16733 11.3337 5.156 11.3337Z" fill="currentColor"/>
<path d="M4.00008 15.3337C4.73646 15.3337 5.33342 14.7368 5.33342 14.0004C5.33342 13.264 4.73646 12.6671 4.00008 12.6671C3.2637 12.6671 2.66675 13.264 2.66675 14.0004C2.66675 14.7368 3.2637 15.3337 4.00008 15.3337Z" fill="currentColor"/>
<path d="M13.3333 15.3337C14.0697 15.3337 14.6667 14.7368 14.6667 14.0004C14.6667 13.264 14.0697 12.6671 13.3333 12.6671C12.597 12.6671 12 13.264 12 14.0004C12 14.7368 12.597 15.3337 13.3333 15.3337Z" fill="currentColor"/>
</svg>
