<svg viewBox="0 0 24 24" fill="none" xmlns="http://www.w3.org/2000/svg">
<path d="M5 2.5C5.47138 2.5 5.87856 2.82921 5.97754 3.29004L6.45117 5.5H19.999L20.2305 5.51367C20.7638 5.57574 21.2538 5.85041 21.585 6.28125C21.9161 6.71223 22.0559 7.25667 21.9785 7.78809L21.9316 8.01562L20.332 14.0156C20.1131 14.8361 19.4027 15.423 18.5684 15.4932L18.3994 15.5H8.59473L8.80859 16.5H18.25C18.2859 16.5 18.3215 16.5012 18.3564 16.5049C19.8258 16.5609 21 17.7669 21 19.25C21 20.7688 19.7688 22 18.25 22C16.7312 22 15.5 20.7688 15.5 19.25C15.5 18.9897 15.5389 18.7386 15.6064 18.5H10.8936C10.9611 18.7386 11 18.9897 11 19.25C11 20.7688 9.76878 22 8.25 22C6.73122 22 5.5 20.7688 5.5 19.25C5.5 18.2447 6.04054 17.3674 6.8457 16.8877L4.19141 4.5H3C2.44772 4.5 2 4.05228 2 3.5C2 2.94772 2.44772 2.5 3 2.5H5ZM8.25 18.5C7.83579 18.5 7.5 18.8358 7.5 19.25C7.5 19.6642 7.83579 20 8.25 20C8.66421 20 9 19.6642 9 19.25C9 18.8358 8.66421 18.5 8.25 18.5ZM18.25 18.5C17.8358 18.5 17.5 18.8358 17.5 19.25C17.5 19.6642 17.8358 20 18.25 20C18.6642 20 19 19.6642 19 19.25C19 18.8358 18.6642 18.5 18.25 18.5ZM8.16602 13.5H18.3994L19.999 7.5H6.87988L8.16602 13.5Z" fill="currentColor"/>
</svg>
