<svg viewBox="0 0 32 32" fill="none" xmlns="http://www.w3.org/2000/svg">
<path d="M6.77637 3.42188C7.31835 3.4693 7.7729 3.86502 7.88867 4.40527L8.53418 7.41699H26.667L26.8164 7.4209C27.5625 7.46433 28.2565 7.83026 28.7148 8.42676C29.173 9.02322 29.3475 9.7876 29.1973 10.5195L29.1631 10.666L27.0303 18.666C26.7476 19.7259 25.8295 20.4833 24.752 20.5742L24.5342 20.584H11.3555L11.6768 22.084H24.2959C24.3083 22.0839 24.3206 22.083 24.333 22.083C26.3119 22.083 27.9168 23.6871 27.917 25.666C27.917 27.645 26.312 29.25 24.333 29.25C22.3541 29.2498 20.75 27.6449 20.75 25.666C20.75 25.2888 20.8089 24.9254 20.917 24.584H14.416C14.5242 24.9255 14.584 25.2888 14.584 25.666C14.584 27.6449 12.9788 29.2497 11 29.25C9.02113 29.2498 7.41699 27.6449 7.41699 25.666C7.41711 24.3347 8.14294 23.1734 9.2207 22.5557L5.65625 5.91699H4C3.30964 5.91699 2.75 5.35735 2.75 4.66699C2.75 3.97664 3.30964 3.41699 4 3.41699H6.66699L6.77637 3.42188ZM10.9902 24.583C10.3965 24.5882 9.91717 25.0711 9.91699 25.666C9.91699 26.2642 10.4018 26.7498 11 26.75C11.5981 26.7497 12.084 26.2642 12.084 25.666C12.0838 25.0742 11.608 24.5942 11.0186 24.584H11C10.9967 24.584 10.9935 24.583 10.9902 24.583ZM24.333 24.584H24.3145C23.725 24.5941 23.2502 25.0742 23.25 25.666C23.25 26.2642 23.7348 26.7498 24.333 26.75C24.9313 26.75 25.417 26.2643 25.417 25.666C25.4168 25.0708 24.936 24.5877 24.3418 24.583L24.333 24.584ZM10.8193 18.084H24.5342L24.5615 18.0791C24.5868 18.0701 24.607 18.0485 24.6143 18.0215L26.7471 10.0215L26.748 9.98438C26.7456 9.97198 26.7403 9.95953 26.7324 9.94922C26.7246 9.93918 26.7142 9.93129 26.7031 9.92578L26.667 9.91699H9.06934L10.8193 18.084Z" fill="currentColor"/>
</svg>
