<svg viewBox="0 0 24 24" fill="none" xmlns="http://www.w3.org/2000/svg">
<path d="M9.50033 11.9993C10.0523 11.9995 10.5001 12.4473 10.5003 12.9993V16.9993C10.5003 17.5515 10.0525 17.9992 9.50033 17.9993C8.94805 17.9993 8.50033 17.5516 8.50033 16.9993V12.9993C8.50056 12.4472 8.94819 11.9993 9.50033 11.9993Z" fill="currentColor"/>
<path d="M14.5003 11.9993C15.0523 11.9995 15.5001 12.4473 15.5003 12.9993V16.9993C15.5003 17.5515 15.0525 17.9992 14.5003 17.9993C13.948 17.9993 13.5003 17.5516 13.5003 16.9993V12.9993C13.5006 12.4472 13.9482 11.9993 14.5003 11.9993Z" fill="currentColor"/>
<path d="M14.9964 2.13507C15.4434 1.87473 16.0097 2.00021 16.308 2.40948L16.3646 2.49542L19.5853 8.01691C20.4228 8.10391 21.1992 8.51424 21.7445 9.1673C22.3231 9.86079 22.5853 10.7618 22.474 11.6526L22.4466 11.8304L21.0833 19.3304C20.8199 20.7792 19.6202 21.8576 18.1771 21.9866L17.8851 21.9993H6.11361C4.64154 21.999 3.36694 21.0119 2.98178 19.6155L2.91635 19.3304L1.55307 11.8304C1.38096 10.8825 1.63801 9.90696 2.25522 9.1673C2.80032 8.51417 3.57697 8.10506 4.4144 8.01788L7.63608 2.49542L7.69272 2.40948C7.99112 2.00033 8.55728 1.87447 9.00424 2.13507C9.45128 2.39588 9.62097 2.95116 9.41147 3.41241L9.36459 3.50323L6.74154 7.99933H17.2591L14.6361 3.50323L14.5892 3.41241C14.3795 2.95109 14.5493 2.39591 14.9964 2.13507ZM4.61264 10.0071C4.29388 10.0426 3.99814 10.1996 3.79037 10.4485C3.55312 10.733 3.45473 11.1085 3.52084 11.473L4.88412 18.973L4.90951 19.0823C5.05758 19.6193 5.54761 19.999 6.11361 19.9993H17.8851L17.9974 19.9944C18.5525 19.9449 19.0142 19.5302 19.1156 18.973L20.4788 11.473L20.4964 11.3362C20.5186 11.0162 20.4161 10.6975 20.2083 10.4485C20.0006 10.1999 19.7056 10.0425 19.3871 10.0071L19.2494 9.99933H4.75033L4.61264 10.0071Z" fill="currentColor"/>
</svg>
