<svg viewBox="0 0 32 32" fill="none" xmlns="http://www.w3.org/2000/svg">
<path d="M10.312 22.6663H24.48C26.38 22.6663 28.0307 21.313 28.4013 19.4517L30.9587 6.66634H7.25067L6.48933 1.33301H0V3.99967H4.17733L6.352 19.233C6.632 21.1903 8.33467 22.6663 10.312 22.6663Z" fill="currentColor"/>
<path d="M7.99992 30.6663C9.47268 30.6663 10.6666 29.4724 10.6666 27.9997C10.6666 26.5269 9.47268 25.333 7.99992 25.333C6.52716 25.333 5.33325 26.5269 5.33325 27.9997C5.33325 29.4724 6.52716 30.6663 7.99992 30.6663Z" fill="currentColor"/>
<path d="M26.6667 30.6663C28.1394 30.6663 29.3333 29.4724 29.3333 27.9997C29.3333 26.5269 28.1394 25.333 26.6667 25.333C25.1939 25.333 24 26.5269 24 27.9997C24 29.4724 25.1939 30.6663 26.6667 30.6663Z" fill="currentColor"/>
</svg>
