<svg viewBox="0 0 16 16" fill="none" xmlns="http://www.w3.org/2000/svg">
<path d="M8.74023 10.209C8.99037 9.88471 9.45558 9.82084 9.78418 10.0674C10.1148 10.3161 10.182 10.7861 9.93359 11.1172L9.93164 11.1191L9.93066 11.1211C9.92947 11.1227 9.92822 11.1251 9.92676 11.127C9.92387 11.1307 9.91992 11.1347 9.91602 11.1396C9.90792 11.1499 9.8972 11.1629 9.88477 11.1777C9.85994 11.2073 9.82648 11.2459 9.78418 11.29C9.70008 11.3778 9.57808 11.4921 9.4209 11.6064C9.10898 11.8333 8.62309 12.0839 8 12.084C7.37702 12.0839 6.89206 11.8333 6.58008 11.6064C6.42296 11.4922 6.30094 11.3778 6.2168 11.29C6.17456 11.246 6.14007 11.2073 6.11523 11.1777C6.10298 11.1631 6.09298 11.1498 6.08496 11.1396C6.08104 11.1347 6.07713 11.1298 6.07422 11.126C6.07294 11.1243 6.0714 11.1225 6.07031 11.1211L6.06738 11.1182L6.02441 11.0527C5.8285 10.7273 5.9065 10.3004 6.2168 10.0674C6.52748 9.8345 6.96019 9.87869 7.21777 10.1582L7.26562 10.2158L7.26465 10.2139L7.2998 10.252C7.33534 10.289 7.39059 10.3416 7.46191 10.3936C7.60804 10.4998 7.79018 10.5839 8 10.584C8.20973 10.5839 8.39176 10.4999 8.53809 10.3936C8.6098 10.3414 8.66555 10.2891 8.70117 10.252C8.71841 10.234 8.73053 10.2208 8.73633 10.2139C8.73861 10.2112 8.73999 10.2093 8.74023 10.209Z" fill="currentColor"/>
<path d="M5.66602 6.58301C6.08012 6.58301 6.41584 6.91894 6.41602 7.33301V8C6.41584 8.41406 6.08012 8.75 5.66602 8.75C5.27791 8.74967 4.95821 8.45425 4.91992 8.07617L4.91602 8V7.33301C4.91619 6.91916 5.25221 6.58336 5.66602 6.58301Z" fill="currentColor"/>
<path d="M10.333 6.58301C10.7471 6.58301 11.0828 6.91894 11.083 7.33301V8C11.0828 8.41406 10.7471 8.75 10.333 8.75C9.94476 8.74984 9.62521 8.45436 9.58691 8.07617L9.58301 8V7.33301C9.58318 6.91905 9.91905 6.58318 10.333 6.58301Z" fill="currentColor"/>
<path d="M8 1.25C11.7282 1.25 14.75 4.27179 14.75 8C14.75 11.7282 11.7282 14.75 8 14.75C4.27179 14.75 1.25 11.7282 1.25 8C1.25 4.27179 4.27179 1.25 8 1.25ZM8 2.75C5.10021 2.75 2.75 5.10021 2.75 8C2.75 10.8998 5.10021 13.25 8 13.25C10.8998 13.25 13.25 10.8998 13.25 8C13.25 5.10021 10.8998 2.75 8 2.75Z" fill="currentColor"/>
</svg>
