<svg viewBox="0 0 16 16" fill="none" xmlns="http://www.w3.org/2000/svg">
<path d="M2.93408 8.34225C2.93408 5.35555 5.35528 2.93435 8.34198 2.93435C8.75619 2.93435 9.09198 2.59857 9.09198 2.18435C9.09198 1.77014 8.75619 1.43435 8.34198 1.43435C4.52685 1.43435 1.43408 4.52712 1.43408 8.34225C1.43408 12.1574 4.52685 15.2501 8.34198 15.2501C12.1571 15.2501 15.2499 12.1574 15.2499 8.34225C15.2499 7.92803 14.9141 7.59225 14.4999 7.59225C14.0857 7.59225 13.7499 7.92803 13.7499 8.34225C13.7499 11.3289 11.3287 13.7501 8.34198 13.7501C5.35528 13.7501 2.93408 11.3289 2.93408 8.34225Z" fill="currentColor"/>
<path d="M7.03934 6.51412C7.03934 6.09991 6.70356 5.76412 6.28934 5.76412C5.87513 5.76412 5.53934 6.09991 5.53934 6.51412V7.19833C5.53934 7.61255 5.87513 7.94833 6.28934 7.94833C6.70356 7.94833 7.03934 7.61255 7.03934 7.19833V6.51412Z" fill="currentColor"/>
<path d="M6.65376 9.62914C6.36075 9.33636 5.88587 9.33655 5.5931 9.62956C5.30032 9.92257 5.30051 10.3974 5.59352 10.6902C7.11155 12.207 9.57147 12.207 11.0895 10.6902C11.3825 10.3974 11.3827 9.92257 11.0899 9.62956C10.7971 9.33655 10.3223 9.33636 10.0293 9.62914C9.09692 10.5607 7.58609 10.5607 6.65376 9.62914Z" fill="currentColor"/>
<path d="M11.1446 6.51412C11.1446 6.09991 10.8088 5.76412 10.3946 5.76412C9.98039 5.76412 9.64461 6.09991 9.64461 6.51412V7.19833C9.64461 7.61255 9.98039 7.94833 10.3946 7.94833C10.8088 7.94833 11.1446 7.61255 11.1446 7.19833V6.51412Z" fill="currentColor"/>
<path d="M13.738 0.904943C13.1252 0.570339 12.3573 0.795597 12.0224 1.40803L11.6563 2.07687L10.9889 2.44157C10.7752 2.55802 10.5991 2.73397 10.4828 2.94771C10.1491 3.56074 10.3752 4.32811 10.9878 4.6623L10.9889 4.6629L11.6563 5.02761L12.0221 5.69578C12.1382 5.90851 12.3131 6.08336 12.5258 6.19953C13.1385 6.53413 13.9064 6.30889 14.2413 5.69648L14.6075 5.02824L15.2749 4.6629L15.2759 4.66235C15.8884 4.32816 16.1143 3.56078 15.7806 2.94775C15.6643 2.73401 15.4885 2.55802 15.2749 2.44157L14.6075 2.07687L14.2413 1.40803C14.1252 1.1956 13.9505 1.02099 13.738 0.904943ZM13.3241 2.85629C13.4403 3.06877 13.6154 3.24413 13.828 3.36025L14.1796 3.55241L13.8305 3.74353L13.8287 3.74453C13.6152 3.86058 13.4399 4.03592 13.3238 4.24939L13.3228 4.25121L13.132 4.5995L12.9409 4.25052L12.94 4.24876C12.8239 4.0352 12.6485 3.85981 12.4349 3.74375L12.4333 3.74284L12.0845 3.55224L12.4356 3.36036C12.6485 3.24412 12.8234 3.06916 12.9397 2.85629L13.1319 2.50515L13.3241 2.85629Z" fill="currentColor"/>
</svg>
