<svg viewBox="0 0 24 24" fill="none" xmlns="http://www.w3.org/2000/svg">
<path d="M12 0C9.62663 0 7.30655 0.703788 5.33316 2.02236C3.35977 3.34094 1.8217 5.21509 0.913451 7.4078C0.00519943 9.60051 -0.232441 12.0133 0.230582 14.3411C0.693605 16.6689 1.83649 18.8071 3.51472 20.4853C5.19295 22.1635 7.33115 23.3064 9.65892 23.7694C11.9867 24.2324 14.3995 23.9948 16.5922 23.0866C18.7849 22.1783 20.6591 20.6402 21.9776 18.6668C23.2962 16.6935 24 14.3734 24 12C24 8.8174 22.7357 5.76515 20.4853 3.51472C18.2348 1.26428 15.1826 0 12 0ZM6.00001 10.5C6.00001 10.2033 6.08798 9.91332 6.2528 9.66665C6.41762 9.41997 6.65189 9.22771 6.92598 9.11418C7.20007 9.00065 7.50167 8.97094 7.79264 9.02882C8.08361 9.0867 8.35089 9.22956 8.56067 9.43934C8.77044 9.64912 8.91331 9.91639 8.97118 10.2074C9.02906 10.4983 8.99936 10.7999 8.88583 11.074C8.77229 11.3481 8.58003 11.5824 8.33336 11.7472C8.08669 11.912 7.79668 12 7.50001 12C7.10218 12 6.72065 11.842 6.43934 11.5607C6.15804 11.2794 6.00001 10.8978 6.00001 10.5ZM12 19C10.9391 19 9.92172 18.5786 9.17158 17.8284C8.42143 17.0783 8.00001 16.0609 8.00001 15H16C16 16.0609 15.5786 17.0783 14.8284 17.8284C14.0783 18.5786 13.0609 19 12 19ZM16.5 12C16.2033 12 15.9133 11.912 15.6667 11.7472C15.42 11.5824 15.2277 11.3481 15.1142 11.074C15.0007 10.7999 14.971 10.4983 15.0288 10.2074C15.0867 9.91639 15.2296 9.64912 15.4393 9.43934C15.6491 9.22956 15.9164 9.0867 16.2074 9.02882C16.4983 8.97094 16.7999 9.00065 17.074 9.11418C17.3481 9.22771 17.5824 9.41997 17.7472 9.66665C17.912 9.91332 18 10.2033 18 10.5C18 10.8978 17.842 11.2794 17.5607 11.5607C17.2794 11.842 16.8978 12 16.5 12Z" fill="currentColor"/>
</svg>
