<svg viewBox="0 0 32 32" fill="none" xmlns="http://www.w3.org/2000/svg">
<path d="M16 0C12.8355 0 9.74207 0.938384 7.11088 2.69649C4.4797 4.45459 2.42894 6.95345 1.21793 9.87706C0.00693262 12.8007 -0.309921 16.0177 0.307443 19.1214C0.924806 22.2251 2.44866 25.0761 4.6863 27.3137C6.92394 29.5513 9.77487 31.0752 12.8786 31.6926C15.9823 32.3099 19.1993 31.9931 22.1229 30.7821C25.0466 29.5711 27.5454 27.5203 29.3035 24.8891C31.0616 22.2579 32 19.1645 32 16C32 11.7565 30.3143 7.68687 27.3137 4.68629C24.3131 1.68571 20.2435 0 16 0ZM8.00001 14C8.00001 13.6044 8.11731 13.2178 8.33707 12.8889C8.55683 12.56 8.86919 12.3036 9.23464 12.1522C9.60009 12.0009 10.0022 11.9613 10.3902 12.0384C10.7782 12.1156 11.1345 12.3061 11.4142 12.5858C11.6939 12.8655 11.8844 13.2219 11.9616 13.6098C12.0387 13.9978 11.9991 14.3999 11.8478 14.7654C11.6964 15.1308 11.44 15.4432 11.1111 15.6629C10.7822 15.8827 10.3956 16 10 16C9.46957 16 8.96087 15.7893 8.58579 15.4142C8.21072 15.0391 8.00001 14.5304 8.00001 14ZM16 25.3333C14.5855 25.3333 13.229 24.7714 12.2288 23.7712C11.2286 22.771 10.6667 21.4145 10.6667 20H21.3333C21.3333 21.4145 20.7714 22.771 19.7712 23.7712C18.771 24.7714 17.4145 25.3333 16 25.3333ZM22 16C21.6044 16 21.2178 15.8827 20.8889 15.6629C20.56 15.4432 20.3036 15.1308 20.1522 14.7654C20.0009 14.3999 19.9613 13.9978 20.0384 13.6098C20.1156 13.2219 20.3061 12.8655 20.5858 12.5858C20.8655 12.3061 21.2219 12.1156 21.6098 12.0384C21.9978 11.9613 22.3999 12.0009 22.7654 12.1522C23.1308 12.3036 23.4432 12.56 23.6629 12.8889C23.8827 13.2178 24 13.6044 24 14C24 14.5304 23.7893 15.0391 23.4142 15.4142C23.0391 15.7893 22.5304 16 22 16Z" fill="currentColor"/>
</svg>
