<svg viewBox="0 0 16 16" fill="none" xmlns="http://www.w3.org/2000/svg">
<path d="M8 0C6.41775 0 4.87103 0.469192 3.55544 1.34824C2.23985 2.22729 1.21447 3.47672 0.608967 4.93853C0.00346631 6.40034 -0.15496 8.00887 0.153721 9.56072C0.462403 11.1126 1.22433 12.538 2.34315 13.6569C3.46197 14.7757 4.88743 15.5376 6.43928 15.8463C7.99113 16.155 9.59966 15.9965 11.0615 15.391C12.5233 14.7855 13.7727 13.7602 14.6518 12.4446C15.5308 11.129 16 9.58225 16 8C16 5.87827 15.1571 3.84344 13.6569 2.34315C12.1566 0.842855 10.1217 0 8 0ZM4 7C4 6.80222 4.05865 6.60888 4.16853 6.44443C4.27842 6.27998 4.43459 6.15181 4.61732 6.07612C4.80005 6.00043 5.00111 5.98063 5.19509 6.01921C5.38908 6.0578 5.56726 6.15304 5.70711 6.29289C5.84696 6.43275 5.9422 6.61093 5.98079 6.80491C6.01937 6.99889 5.99957 7.19996 5.92388 7.38268C5.8482 7.56541 5.72002 7.72159 5.55557 7.83147C5.39112 7.94135 5.19779 8 5 8C4.73479 8 4.48043 7.89464 4.2929 7.70711C4.10536 7.51957 4 7.26522 4 7ZM8 12.6667C7.29276 12.6667 6.61448 12.3857 6.11439 11.8856C5.61429 11.3855 5.33334 10.7072 5.33334 10H10.6667C10.6667 10.7072 10.3857 11.3855 9.88562 11.8856C9.38552 12.3857 8.70725 12.6667 8 12.6667ZM11 8C10.8022 8 10.6089 7.94135 10.4444 7.83147C10.28 7.72159 10.1518 7.56541 10.0761 7.38268C10.0004 7.19996 9.98063 6.99889 10.0192 6.80491C10.0578 6.61093 10.153 6.43275 10.2929 6.29289C10.4327 6.15304 10.6109 6.0578 10.8049 6.01921C10.9989 5.98063 11.2 6.00043 11.3827 6.07612C11.5654 6.15181 11.7216 6.27998 11.8315 6.44443C11.9414 6.60888 12 6.80222 12 7C12 7.26522 11.8946 7.51957 11.7071 7.70711C11.5196 7.89464 11.2652 8 11 8Z" fill="currentColor"/>
</svg>
