<svg viewBox="0 0 32 32" fill="none" xmlns="http://www.w3.org/2000/svg">
<path d="M22.0395 13.0282C22.0395 12.3378 21.4798 11.7782 20.7895 11.7782C20.0991 11.7782 19.5395 12.3378 19.5395 13.0282V14.3966C19.5395 15.087 20.0991 15.6466 20.7895 15.6466C21.4798 15.6466 22.0395 15.087 22.0395 14.3966V13.0282Z" fill="currentColor"/>
<path d="M13.8289 13.0282C13.8289 12.3378 13.2693 11.7782 12.5789 11.7782C11.8886 11.7782 11.3289 12.3378 11.3289 13.0282V14.3966C11.3289 15.087 11.8886 15.6466 12.5789 15.6466C13.2693 15.6466 13.8289 15.087 13.8289 14.3966V13.0282Z" fill="currentColor"/>
<path d="M27.3563 2.02925C26.2518 1.42609 24.8676 1.83232 24.2641 2.93653L23.497 4.33795L22.0976 5.10268L22.0965 5.10328C21.7114 5.31315 21.3951 5.62968 21.1854 6.0149C20.5839 7.11993 20.9917 8.50321 22.0961 9.10537L22.0976 9.10617L23.497 9.8709L24.2638 11.2717C24.4732 11.6551 24.7887 11.9712 25.1721 12.1805C26.2766 12.7837 27.6603 12.3768 28.2637 11.2726L29.0311 9.87222L30.4304 9.10617L30.4319 9.10539C30.8168 8.89551 31.133 8.57906 31.3426 8.19397C31.9442 7.08881 31.5362 5.70536 30.4316 5.1033L30.4304 5.10268L29.0311 4.33795L28.2642 2.93717C28.0549 2.55377 27.7397 2.23862 27.3563 2.02925ZM26.264 4.48962L26.8679 5.59272C27.0773 5.97627 27.3929 6.29175 27.7764 6.50126L28.8805 7.10459L27.7803 7.70685L27.7774 7.70842C27.3927 7.91744 27.0767 8.23333 26.8676 8.61796L26.8658 8.6214L26.2641 9.7194L25.6623 8.62004L25.6604 8.61664C25.4513 8.23192 25.1352 7.91597 24.7504 7.70694L24.7477 7.70548L23.6479 7.10443L24.7516 6.50126C25.1351 6.29184 25.4507 5.97616 25.6602 5.59272L26.264 4.48962Z" fill="currentColor"/>
<path d="M13.1311 19.4351C12.6427 18.9471 11.8512 18.9474 11.3633 19.4358C10.8753 19.9241 10.8756 20.7156 11.364 21.2036C14.3024 24.1396 19.0641 24.1396 22.0025 21.2036C22.4909 20.7156 22.4912 19.9241 22.0032 19.4358C21.5153 18.9474 20.7238 18.9471 20.2355 19.4351C18.2732 21.3958 15.0933 21.3958 13.1311 19.4351Z" fill="currentColor"/>
<path d="M5.61841 16.6844C5.61841 10.573 10.5727 5.61866 16.6842 5.61866C17.3746 5.61866 17.9342 5.05901 17.9342 4.36866C17.9342 3.6783 17.3746 3.11866 16.6842 3.11866C9.19202 3.11866 3.11841 9.19227 3.11841 16.6844C3.11841 24.1766 9.19202 30.2502 16.6842 30.2502C24.1764 30.2502 30.25 24.1766 30.25 16.6844C30.25 15.9941 29.6903 15.4344 29 15.4344C28.3096 15.4344 27.75 15.9941 27.75 16.6844C27.75 22.7959 22.7957 27.7502 16.6842 27.7502C10.5727 27.7502 5.61841 22.7959 5.61841 16.6844Z" fill="currentColor"/>
</svg>
