<svg viewBox="0 0 32 32" fill="none" xmlns="http://www.w3.org/2000/svg">
<path d="M26.5 16C26.5 10.2124 21.7876 5.5 16 5.5C10.2111 5.5 5.5 10.2111 5.5 16C5.5 21.7889 10.2111 26.5 16 26.5C21.7888 26.5 26.5 21.7877 26.5 16ZM20 18.5C20.8284 18.5 21.5 19.1716 21.5 20C21.5 20.8284 20.8284 21.5 20 21.5H12C11.1716 21.5 10.5 20.8284 10.5 20C10.5 19.1716 11.1716 18.5 12 18.5H20ZM10.001 13.333V12C10.001 11.1717 10.6727 10.5002 11.501 10.5C12.3294 10.5 13.001 11.1716 13.001 12V13.333C13.001 14.1614 12.3294 14.833 11.501 14.833C10.6727 14.8328 10.001 14.1613 10.001 13.333ZM19.0039 13.333V12C19.0039 11.1716 19.6755 10.5 20.5039 10.5C21.3323 10.5 22.0039 11.1716 22.0039 12V13.333C22.0039 14.1614 21.3323 14.833 20.5039 14.833C19.6755 14.833 19.0039 14.1614 19.0039 13.333ZM29.5 16C29.5 23.4443 23.4459 29.5 16 29.5C8.55424 29.5 2.5 23.4458 2.5 16C2.5 8.55424 8.55424 2.5 16 2.5C23.4444 2.5 29.5 8.55557 29.5 16Z" fill="currentColor"/>
</svg>
