<svg viewBox="0 0 32 32" fill="none" xmlns="http://www.w3.org/2000/svg">
<path d="M14.332 20.582L14.3369 20.5869C14.3515 20.6043 14.3791 20.6362 14.418 20.6768C14.4972 20.7594 14.619 20.8747 14.7764 20.9893C15.0964 21.222 15.5111 21.4159 16 21.416C16.4885 21.4159 16.9023 21.2212 17.2227 20.9883C17.3803 20.8736 17.5027 20.7595 17.582 20.6768C17.6212 20.6359 17.6484 20.6044 17.6631 20.5869C17.6653 20.5843 17.6673 20.582 17.6689 20.5801C18.0837 20.0306 18.8658 19.9198 19.417 20.333C19.969 20.7473 20.0802 21.5309 19.666 22.083L18.666 21.333C19.5945 22.0296 19.6615 22.0791 19.666 22.083L19.6641 22.0869L19.6611 22.0908C19.659 22.0936 19.6559 22.0962 19.6533 22.0996C19.6481 22.1064 19.6421 22.1148 19.6348 22.124C19.62 22.1427 19.6004 22.1666 19.5771 22.1943C19.5307 22.2497 19.4671 22.3224 19.3867 22.4062C19.2265 22.5734 18.9939 22.7922 18.6934 23.0107C18.0971 23.4444 17.1774 23.9159 16 23.916C14.8223 23.9159 13.902 23.4445 13.3057 23.0107C13.0053 22.7922 12.7725 22.5734 12.6123 22.4062C12.5319 22.3223 12.4683 22.2487 12.4219 22.1934C12.3988 22.1658 12.379 22.1426 12.3643 22.124C12.3571 22.1149 12.3509 22.1063 12.3457 22.0996C12.3431 22.0963 12.3399 22.0925 12.3379 22.0898L12.335 22.0859L12.334 22.084C12.334 22.084 12.3686 22.056 13.333 21.333L12.333 22.083C11.9193 21.5307 12.031 20.7471 12.583 20.333C13.135 19.9191 13.9177 20.0306 14.332 20.582Z" fill="currentColor"/>
<path d="M11.334 13.417C12.024 13.4173 12.584 13.9769 12.584 14.667V16C12.5838 16.69 12.0239 17.2496 11.334 17.25C10.6437 17.25 10.0842 16.6902 10.084 16V14.667C10.084 13.9766 10.6436 13.417 11.334 13.417Z" fill="currentColor"/>
<path d="M20.667 13.417C21.3572 13.4172 21.917 13.9767 21.917 14.667V16C21.9168 16.6901 21.3571 17.2498 20.667 17.25C19.9767 17.25 19.4172 16.6902 19.417 16V14.667C19.417 13.9766 19.9766 13.417 20.667 13.417Z" fill="currentColor"/>
<path d="M16 2.75C23.3184 2.75 29.25 8.68164 29.25 16C29.25 23.3184 23.3184 29.25 16 29.25C8.68164 29.25 2.75 23.3184 2.75 16C2.75 8.68164 8.68164 2.75 16 2.75ZM16 5.25C10.0624 5.25 5.25 10.0624 5.25 16C5.25 21.9376 10.0624 26.75 16 26.75C21.9376 26.75 26.75 21.9376 26.75 16C26.75 10.0624 21.9376 5.25 16 5.25Z" fill="currentColor"/>
</svg>
