<svg viewBox="0 0 24 24" fill="none" xmlns="http://www.w3.org/2000/svg">
<path d="M13.2656 15.3213C13.6092 14.9486 14.1864 14.8894 14.6006 15.2002C15.0145 15.511 15.1191 16.0816 14.8574 16.5156L14.7998 16.6006L14.7979 16.6025C14.7972 16.6034 14.7966 16.6045 14.7959 16.6055C14.7942 16.6076 14.7921 16.6106 14.79 16.6133C14.786 16.6186 14.781 16.6247 14.7754 16.6318C14.764 16.6462 14.7492 16.6644 14.7314 16.6855C14.6957 16.7281 14.6465 16.7844 14.585 16.8486C14.4627 16.9761 14.2855 17.1422 14.0566 17.3086C13.6025 17.6389 12.9004 18 12 18C11.0995 18 10.3976 17.6389 9.94336 17.3086C9.71434 17.142 9.53726 16.9752 9.41504 16.8477C9.35352 16.7834 9.30425 16.7281 9.26855 16.6855C9.25074 16.6643 9.23603 16.6463 9.22461 16.6318C9.219 16.6247 9.21403 16.6186 9.20996 16.6133C9.2079 16.6106 9.20576 16.6076 9.2041 16.6055C9.20335 16.6045 9.20281 16.6034 9.20215 16.6025L9.2002 16.6006C9.19999 16.6002 9.20507 16.596 10 16L9.2002 16.6006C8.86891 16.1587 8.95851 15.5315 9.40039 15.2002C9.84213 14.869 10.4675 14.9589 10.7988 15.4004C10.7997 15.3997 10.7998 15.3994 10.7998 15.3994L10.7988 15.4004V15.3984L10.8008 15.4004C10.811 15.4126 10.8302 15.4354 10.8584 15.4648C10.9158 15.5248 11.0045 15.608 11.1191 15.6914C11.3524 15.861 11.6504 16 12 16C12.3493 16 12.6474 15.8611 12.8809 15.6914C12.9956 15.608 13.0841 15.5238 13.1416 15.4639C13.1695 15.4348 13.189 15.4126 13.1992 15.4004C13.2036 15.3952 13.2063 15.3916 13.207 15.3906C13.2068 15.3909 13.2067 15.3918 13.2061 15.3926C13.2055 15.3934 13.204 15.3943 13.2031 15.3955L13.2021 15.3975L13.2656 15.3213Z" fill="currentColor"/>
<path d="M8.5 10C9.05228 10 9.5 10.4477 9.5 11V12C9.5 12.5523 9.05228 13 8.5 13C7.94772 13 7.5 12.5523 7.5 12V11C7.5 10.4477 7.94772 10 8.5 10Z" fill="currentColor"/>
<path d="M15.5 10C16.0523 10 16.5 10.4477 16.5 11V12C16.5 12.5523 16.0523 13 15.5 13C14.9477 13 14.5 12.5523 14.5 12V11C14.5 10.4477 14.9477 10 15.5 10Z" fill="currentColor"/>
<path d="M12 2C17.5233 2 22 6.47672 22 12C22 17.5233 17.5233 22 12 22C6.47672 22 2 17.5233 2 12C2 6.47672 6.47672 2 12 2ZM12 4C7.58128 4 4 7.58128 4 12C4 16.4187 7.58128 20 12 20C16.4187 20 20 16.4187 20 12C20 7.58128 16.4187 4 12 4Z" fill="currentColor"/>
</svg>
