<svg viewBox="0 0 16 16" fill="none" xmlns="http://www.w3.org/2000/svg">
<path d="M13.25 8C13.25 5.10621 10.8938 2.75 8 2.75C5.10555 2.75 2.75 5.10555 2.75 8C2.75 10.8945 5.10555 13.25 8 13.25C10.8944 13.25 13.25 10.8938 13.25 8ZM10 9.25C10.4142 9.25 10.75 9.58579 10.75 10C10.75 10.4142 10.4142 10.75 10 10.75H6C5.58579 10.75 5.25 10.4142 5.25 10C5.25 9.58579 5.58579 9.25 6 9.25H10ZM5 6.66699V6C5 5.58579 5.33579 5.25 5.75 5.25C6.16401 5.25024 6.5 5.58593 6.5 6V6.66699C6.49982 7.08091 6.1639 7.41676 5.75 7.41699C5.3359 7.41699 5.00018 7.08106 5 6.66699ZM9.5 6.66699V6C9.5 5.58594 9.83599 5.25024 10.25 5.25C10.6642 5.25 11 5.58579 11 6V6.66699C10.9998 7.08106 10.6641 7.41699 10.25 7.41699C9.8361 7.41675 9.50018 7.08091 9.5 6.66699ZM14.75 8C14.75 11.7222 11.7229 14.75 8 14.75C4.27712 14.75 1.25 11.7229 1.25 8C1.25 4.27712 4.27712 1.25 8 1.25C11.7222 1.25 14.75 4.27779 14.75 8Z" fill="currentColor"/>
</svg>
