<svg viewBox="0 0 24 24" fill="none" xmlns="http://www.w3.org/2000/svg">
<path d="M19.0006 3.26881L18.6353 3.93617C18.4743 4.23082 18.2318 4.47345 17.9372 4.63443L17.2693 4.99941L17.9338 5.36254L17.9359 5.36369C18.2318 5.52445 18.4749 5.76744 18.6357 6.06331L18.637 6.06576L19.0007 6.73019L19.3643 6.06676L19.3657 6.06404C19.5265 5.76838 19.7694 5.52554 20.0651 5.36483L20.0675 5.36354L20.7323 4.99959L20.0644 4.63458C19.7697 4.47369 19.5275 4.2316 19.3665 3.93709M19.0006 3.26881L19.366 3.93617L19.0006 3.26881ZM17.4635 1.91173C17.9275 1.06318 18.9914 0.751074 19.8403 1.21467C20.135 1.37561 20.3773 1.61784 20.5382 1.91252L21.0864 2.91397L22.0867 3.46058C22.9361 3.92333 23.2504 4.9873 22.788 5.83698C22.6269 6.13282 22.384 6.37597 22.0884 6.53731L22.0867 6.53823L21.0864 7.08579L20.5383 8.08619C20.0743 8.93489 19.0099 9.24777 18.1609 8.78414C17.8665 8.62335 17.6244 8.38141 17.4635 8.08708L16.9148 7.08485L15.9146 6.53823C15.0653 6.07542 14.7509 5.01143 15.2133 4.16184C15.3745 3.86572 15.6177 3.62239 15.9137 3.46105L16.9148 2.91397L17.4635 1.91173ZM21.0198 7.12227L21.0217 7.1212L21.0198 7.12227ZM12 4.00019C7.58172 4.00019 4 7.58191 4 12.0002C4 16.4185 7.58172 20.0002 12 20.0002C16.4183 20.0002 20 16.4185 20 12.0002C20 11.4479 20.4477 11.0002 21 11.0002C21.5523 11.0002 22 11.4479 22 12.0002C22 17.523 17.5228 22.0002 12 22.0002C6.47716 22.0002 2 17.523 2 12.0002C2 6.47734 6.47716 2.00019 12 2.00019C12.5523 2.00019 13 2.4479 13 3.00019C13 3.55247 12.5523 4.00019 12 4.00019ZM9 8.32831C9.55228 8.32831 10 8.77603 10 9.32831V10.3283C10 10.8806 9.55228 11.3283 9 11.3283C8.44772 11.3283 8 10.8806 8 10.3283V9.32831C8 8.77603 8.44772 8.32831 9 8.32831ZM15 8.32831C15.5523 8.32831 16 8.77603 16 9.32831V10.3283C16 10.8806 15.5523 11.3283 15 11.3283C14.4477 11.3283 14 10.8806 14 10.3283V9.32831C14 8.77603 14.4477 8.32831 15 8.32831ZM8.05042 13.9496C8.44079 13.5589 9.07396 13.5587 9.46464 13.949C10.8648 15.3481 13.1338 15.3481 14.534 13.949C14.9247 13.5587 15.5578 13.5589 15.9482 13.9496C16.3386 14.3403 16.3383 14.9735 15.9476 15.3638C13.7665 17.5432 10.2321 17.5432 8.05099 15.3638C7.66031 14.9735 7.66006 14.3403 8.05042 13.9496Z" fill="currentColor"/>
</svg>
