<svg viewBox="0 0 24 24" fill="none" xmlns="http://www.w3.org/2000/svg">
<path d="M7.1026 2.48127C7.99579 1.86799 9.17268 1.85984 10.0743 2.46076C10.9674 3.05611 11.4111 4.13052 11.2032 5.18147L11.2042 5.18244C11.0716 5.92498 11.0685 6.68439 11.1934 7.42658C11.5578 7.78499 11.8243 8.2401 11.9532 8.74885L11.9854 8.90217C12.3173 9.04455 12.6257 9.24934 12.8907 9.51448L12.8917 9.5135L14.4844 11.1082L14.6299 11.2655C14.8254 11.4923 14.9809 11.7455 15.0958 12.0135L15.2794 12.035L15.4864 12.0653C16.0706 12.1711 16.5981 12.4529 17.0079 12.8592C17.6052 12.9258 18.2096 12.9062 18.8018 12.7967C19.8393 12.583 20.9059 13.009 21.5098 13.8817L21.6172 14.0496C22.0862 14.8497 22.1007 15.8392 21.6563 16.6531L21.5538 16.825L21.5381 16.8485C21.1926 17.3498 20.802 17.8186 20.3712 18.2488L20.3702 18.2498C20.0134 18.605 19.631 18.9334 19.2286 19.2352C19.1129 19.8727 18.6843 20.4359 18.045 20.6951L18.046 20.6961C16.0922 21.5038 13.9545 21.743 11.876 21.3973C11.6836 21.5465 11.4738 21.6755 11.2462 21.7733C10.5342 22.079 9.72865 22.0875 9.0108 21.7957C5.92002 20.5361 3.46758 18.0817 2.21002 14.9901L2.20905 14.9891C1.91769 14.2714 1.92609 13.4666 2.23151 12.7547C2.33007 12.525 2.45951 12.3129 2.61041 12.119C2.29796 10.2109 2.47708 8.25133 3.13678 6.42756C3.35902 5.79601 3.87521 5.34855 4.47858 5.18928C4.81619 4.67612 5.20133 4.19449 5.62799 3.75178L5.63092 3.74885L5.97369 3.41194C6.3231 3.08251 6.69426 2.77602 7.08405 2.49494L7.1026 2.48127ZM10.9219 10.6707C10.8314 10.6631 10.7389 10.6685 10.6485 10.6893L10.5235 10.7283L4.56647 13.0594L4.56744 13.0604C4.49326 13.0896 4.42438 13.1289 4.36139 13.1756C4.33602 13.1989 4.30913 13.2204 4.28131 13.241C4.19151 13.3251 4.11888 13.4276 4.0694 13.5428C3.97469 13.7636 3.97234 14.0136 4.06256 14.2362L4.27155 14.7156C5.37556 17.0815 7.33437 18.9517 9.76373 19.9422C9.98599 20.0324 10.2367 20.03 10.4571 19.9354C10.5781 19.8833 10.6843 19.805 10.7706 19.7088C10.7845 19.6909 10.7995 19.6739 10.8145 19.6571C10.8654 19.5908 10.9075 19.5175 10.9385 19.4383L13.2696 13.4774L13.3077 13.3514C13.3289 13.2588 13.3345 13.1647 13.3262 13.0721C13.3173 13.0313 13.3095 12.9901 13.3057 12.9481C13.2783 12.8313 13.2284 12.7194 13.1553 12.6209L13.0694 12.5213L11.4766 10.9276C11.3588 10.8097 11.2131 10.731 11.0577 10.6932C11.0117 10.6889 10.9665 10.6812 10.9219 10.6707ZM15.1319 14.2059L13.0508 19.5272C14.4774 19.6312 15.9146 19.4051 17.2491 18.8592L15.8155 14.6199C15.7152 14.3327 15.4767 14.1182 15.1866 14.0457L15.1319 14.2059ZM19.1973 14.7567L19.1661 14.7635C18.7862 14.8338 18.4022 14.8748 18.0176 14.8905L18.7442 17.0389C18.8168 16.9714 18.8887 16.9028 18.959 16.8328C19.2985 16.4937 19.6056 16.1237 19.879 15.7293C19.999 15.5388 20.0113 15.302 19.9141 15.1033L19.8653 15.0194C19.7352 14.8315 19.5165 14.7284 19.293 14.743L19.1973 14.7567ZM5.00592 7.14143C4.56907 8.36359 4.39179 9.65866 4.48248 10.9442L9.79401 8.86604L9.80084 8.86311C9.78488 8.8468 9.76832 8.8312 9.75104 8.81623C9.70828 8.78961 9.66733 8.76015 9.62897 8.72737C9.60807 8.71508 9.58658 8.70367 9.56451 8.69319L9.45807 8.65119C9.45167 8.64917 9.4449 8.64748 9.43854 8.64533L5.00592 7.14143ZM8.96491 4.12483C8.74597 3.97901 8.46067 3.97931 8.24225 4.12483C7.82132 4.42934 7.42755 4.77077 7.06549 5.14338C6.92645 5.28781 6.79466 5.43935 6.66705 5.59358L9.10358 6.41877C9.09847 5.88792 9.14163 5.35602 9.23541 4.83088L9.24127 4.80061C9.2957 4.54022 9.18629 4.27239 8.96491 4.12483Z" fill="currentColor"/>
</svg>
