<svg viewBox="0 0 32 32" fill="none" xmlns="http://www.w3.org/2000/svg">
<path d="M9.73858 3.23727C10.8694 2.58059 12.2853 2.6179 13.386 3.35153C14.5491 4.12697 15.1273 5.52583 14.8558 6.8945L14.8567 6.89547C14.6776 7.89849 14.6731 8.92432 14.8431 9.92672L14.846 9.94332C15.331 10.4135 15.6864 11.0131 15.8567 11.6855L15.9085 11.9287C16.3571 12.1148 16.7737 12.3883 17.1302 12.7451L19.2542 14.8701L19.4446 15.0752C19.71 15.3832 19.9193 15.728 20.0706 16.0937C20.0845 16.0958 20.0987 16.0995 20.1126 16.1015L20.3431 16.1279L20.3636 16.1308L20.6341 16.1699C21.4064 16.3099 22.1042 16.684 22.6419 17.2256C23.4551 17.3189 24.2788 17.2928 25.0853 17.1435C26.4359 16.8651 27.8242 17.4197 28.6107 18.5556L28.7513 18.7754C29.3614 19.8167 29.3804 21.1046 28.8021 22.164L28.6692 22.3867C28.6629 22.3965 28.6564 22.4073 28.6497 22.417C28.1919 23.0812 27.6737 23.7024 27.1028 24.2724L27.1019 24.2734C26.6212 24.7518 26.1061 25.1952 25.5628 25.6005C25.4222 26.4363 24.8645 27.1777 24.0286 27.5166L24.0296 27.5185C21.4289 28.5936 18.5819 28.9106 15.8157 28.4443C15.5568 28.6492 15.2709 28.8224 14.9622 28.955C14.0334 29.3539 12.9836 29.3639 12.0472 28.9834C8.0748 27.3646 4.89628 24.2593 3.18487 20.3379L3.02374 19.955C2.64333 19.0185 2.6535 17.968 3.05206 17.039C3.18591 16.7272 3.36014 16.4378 3.56768 16.1767C3.14747 13.6438 3.38181 11.0417 4.25421 8.61911C4.54026 7.78194 5.22374 7.19422 6.02276 6.99411C6.47455 6.30353 6.99047 5.65637 7.56378 5.06149L7.56671 5.05758L8.02081 4.61032C8.48419 4.17338 8.9765 3.76729 9.49346 3.3945L9.5169 3.37789L9.73858 3.23727ZM14.5804 14.1474C14.4477 14.1352 14.3125 14.1414 14.18 14.1718L14.0013 14.2275L6.05792 17.3359L6.05889 17.3369C5.95157 17.3791 5.85189 17.436 5.76104 17.5039C5.72727 17.535 5.69188 17.5643 5.6546 17.5918C5.52493 17.7124 5.42008 17.8595 5.34893 18.0254C5.21393 18.3402 5.21131 18.6962 5.34014 19.0136C6.75463 22.4914 9.51273 25.2511 12.9896 26.6679C13.3066 26.7967 13.6614 26.7932 13.9759 26.6582C14.1493 26.5836 14.3009 26.4712 14.4241 26.333C14.443 26.3086 14.4632 26.2855 14.4837 26.2627C14.557 26.1674 14.6178 26.0621 14.6624 25.9482L17.7708 18L17.8255 17.8213C17.8564 17.6866 17.8619 17.5497 17.8489 17.415C17.8366 17.3595 17.8272 17.3032 17.8226 17.2461C17.7696 17.0201 17.6566 16.8078 17.4857 16.6367L15.3616 14.5117C15.1903 14.3403 14.9777 14.2274 14.7513 14.1748C14.6935 14.1694 14.6364 14.1607 14.5804 14.1474ZM20.1907 18.6474L20.0989 18.9111L17.2825 26.1103C19.2498 26.2721 21.2361 25.9679 23.0745 25.208L23.0901 25.2011L23.0931 25.2002L23.095 25.1992C23.0958 25.1984 23.0968 25.1959 23.098 25.1933V25.1826L21.1683 19.4716C21.0183 19.0338 20.6436 18.7169 20.1937 18.6328C20.1922 18.6375 20.1922 18.6427 20.1907 18.6474ZM25.5794 19.5937L25.5403 19.6015C25.0014 19.7013 24.4563 19.7596 23.9105 19.7763L24.9544 22.8652C25.0846 22.7468 25.2134 22.6261 25.3382 22.5019C25.7948 22.0456 26.2089 21.5482 26.5765 21.0175C26.7523 20.7387 26.7696 20.3912 26.6273 20.1005L26.555 19.9785C26.3647 19.7038 26.0457 19.553 25.719 19.5742L25.5794 19.5937ZM6.61846 9.4277L6.61163 9.44821C6.00031 11.1381 5.76175 12.9337 5.90362 14.7129L13.0901 11.8994L13.2122 11.8554C13.1634 11.7934 13.1084 11.7368 13.0482 11.6855C12.9933 11.6514 12.941 11.6134 12.8919 11.5713C12.8587 11.5512 12.8247 11.5324 12.7894 11.5156L12.636 11.456C12.6279 11.4534 12.6197 11.45 12.6116 11.4472L6.66143 9.42868C6.64738 9.42761 6.63348 9.42533 6.61944 9.42379L6.61846 9.4277ZM11.9993 5.43161C11.6791 5.21821 11.262 5.21833 10.9427 5.43161C10.3767 5.84085 9.84736 6.29885 9.36065 6.79977C9.14552 7.02319 8.94098 7.25617 8.74639 7.49704L12.2239 8.67575C12.2092 7.93369 12.2647 7.19017 12.3958 6.45602L12.4026 6.41891C12.4826 6.03821 12.323 5.64743 11.9993 5.43161Z" fill="currentColor"/>
</svg>
