<svg viewBox="0 0 16 16" fill="none" xmlns="http://www.w3.org/2000/svg">
<path d="M15.596 6.054L6.26267 2.054C6.18 2.018 6.09 2 6 2C1.87733 2 0 4.41867 0 6.66667V13.3333C0 13.7013 0.298667 14 0.666667 14H15.3333C15.7013 14 16 13.7013 16 13.3333V6.66667C16 6.4 15.8413 6.15867 15.596 6.054ZM5.86533 3.334L12.0853 6H7.33333V9.66667C7.33333 10.2187 6.88533 10.6667 6.33333 10.6667C5.78133 10.6667 5.33333 10.2187 5.33333 9.66667V6H1.42333C1.72733 4.814 2.88533 3.37667 5.86533 3.334Z" fill="currentColor"/>
</svg>
