<svg viewBox="0 0 32 32" fill="none" xmlns="http://www.w3.org/2000/svg">
<path d="M31.192 12.108L12.5253 4.108C12.36 4.036 12.18 4 12 4C3.75467 4 0 8.83733 0 13.3333V26.6667C0 27.4027 0.597333 28 1.33333 28H30.6667C31.4027 28 32 27.4027 32 26.6667V13.3333C32 12.8 31.6827 12.3173 31.192 12.108ZM11.7307 6.668L24.1707 12H14.6667V19.3333C14.6667 20.4373 13.7707 21.3333 12.6667 21.3333C11.5627 21.3333 10.6667 20.4373 10.6667 19.3333V12H2.84667C3.45467 9.628 5.77067 6.75333 11.7307 6.668Z" fill="currentColor"/>
</svg>
