<svg viewBox="0 0 16 16" fill="none" xmlns="http://www.w3.org/2000/svg">
<path d="M4.80664 1.51067C5.41286 1.15869 6.17161 1.17815 6.76172 1.57121C7.38474 1.9865 7.69416 2.73555 7.54981 3.46867L7.55079 3.46965C7.46555 3.94686 7.46257 4.43462 7.54004 4.91203C7.7831 5.15827 7.96144 5.46689 8.04883 5.81145L8.0625 5.87395C8.27891 5.97202 8.4802 6.10887 8.6543 6.28313L9.71582 7.3466L9.81739 7.455C9.94228 7.59995 10.0425 7.76096 10.1201 7.93059L10.1826 7.93938L10.1953 7.94035C10.648 7.98911 11.0603 8.18872 11.376 8.49211C11.757 8.532 12.142 8.51899 12.5195 8.44914C13.2433 8.30076 13.9869 8.59822 14.4082 9.20695L14.4834 9.32414C14.8107 9.88262 14.8208 10.5733 14.5107 11.1415L14.4395 11.2616C14.4357 11.2675 14.4317 11.2735 14.4277 11.2792C14.1945 11.6176 13.9305 11.9341 13.6397 12.2245L13.6387 12.2255C13.4056 12.4575 13.1565 12.6726 12.8945 12.871C12.8041 13.3096 12.504 13.6944 12.0615 13.8739L12.0625 13.8749C10.7566 14.4148 9.32845 14.578 7.93848 14.3534C7.81287 14.4471 7.67755 14.5288 7.53125 14.5917C7.0361 14.8044 6.47582 14.8102 5.97657 14.6073C4.02508 13.8121 2.45119 12.3095 1.56446 10.4091L1.39649 10.0243C1.19377 9.52516 1.19871 8.96478 1.41114 8.46965C1.47482 8.32133 1.55704 8.18362 1.65235 8.05656C1.45057 6.78606 1.57183 5.48285 2.00879 4.26848C2.16046 3.82499 2.51474 3.5084 2.9336 3.38762C3.1572 3.05126 3.41086 2.73542 3.69141 2.44426L3.69336 2.44133L3.92481 2.21477C4.1605 1.99252 4.41089 1.78524 4.67383 1.59563L4.6875 1.58586L4.80664 1.51067ZM7.59278 7.34367C7.46759 7.21841 7.2874 7.16813 7.11817 7.20695L7.04688 7.22942L3.0752 8.78313L3.07618 8.7841C2.94784 8.83452 2.84452 8.9348 2.79004 9.06145C2.73573 9.18807 2.73446 9.3312 2.78614 9.45891L2.92383 9.77531C3.65118 11.3338 4.94152 12.5655 6.542 13.2177C6.6695 13.2695 6.812 13.268 6.93848 13.2138C7.0649 13.1594 7.16466 13.0558 7.21485 12.9277L8.76954 8.95402L8.79102 8.88176C8.82969 8.71217 8.77971 8.53169 8.6543 8.40617L7.59278 7.34367ZM10.166 9.5009L8.82032 12.9413C9.69503 12.9883 10.5731 12.8481 11.3945 12.5243L10.4658 9.77629L10.4365 9.70891C10.3807 9.60001 10.2883 9.51506 10.1768 9.46867L10.166 9.5009ZM12.8164 9.91887L12.793 9.92375C12.5722 9.9646 12.3494 9.99117 12.126 10.0048L12.5322 11.206L12.5801 11.162C12.8032 10.9391 13.005 10.6958 13.1846 10.4364C13.2462 10.3349 13.2525 10.2104 13.2012 10.1054L13.1748 10.0605C13.1048 9.95943 12.9874 9.90409 12.8672 9.91203L12.8164 9.91887ZM3.38868 4.86516C3.13338 5.61032 3.02386 6.39537 3.06446 7.17668L6.36426 5.88469C6.35626 5.8803 6.34911 5.87398 6.34082 5.87004L6.28028 5.8466C6.2754 5.84506 6.27048 5.84336 6.26563 5.84172L3.38868 4.86516ZM5.92969 2.81926C5.81209 2.74122 5.65939 2.74153 5.542 2.81926C5.26586 3.01918 5.0071 3.24271 4.76954 3.48723C4.70668 3.55253 4.64621 3.61998 4.58692 3.6884L5.98536 4.16203C5.98882 3.84216 6.01772 3.52234 6.07422 3.20598L6.07911 3.18352L6.08594 3.13078C6.09269 3.00814 6.03406 2.88883 5.92969 2.81926Z" fill="currentColor"/>
</svg>
