<svg viewBox="0 0 16 16" fill="none" xmlns="http://www.w3.org/2000/svg">
<path d="M8.00005 1.25C8.41414 1.25015 8.75005 1.58588 8.75005 2V2.58203L8.91509 2.41699C9.20791 2.12414 9.68271 2.12423 9.97564 2.41699C10.2685 2.70983 10.2684 3.18461 9.97564 3.47754L8.75005 4.70312V6.70117L10.4795 5.70215L10.9278 4.02734L10.9522 3.95508C11.0871 3.59973 11.4717 3.39673 11.8467 3.49707C12.2218 3.59749 12.4542 3.9656 12.3936 4.34082L12.377 4.41602L12.3165 4.64062L12.959 4.27051C13.3177 4.06375 13.7764 4.18639 13.9834 4.54492C14.1903 4.90343 14.0673 5.36213 13.709 5.56934L13.0665 5.93945L13.292 6.00098L13.0977 6.72461L12.9043 7.44922L11.2286 7.00098L9.49907 7.99902L11.2286 8.99805L12.9043 8.5498L12.9795 8.53418C13.3545 8.47368 13.7216 8.70548 13.8223 9.08008C13.9295 9.48018 13.6921 9.89185 13.292 9.99902L13.0655 10.0586L13.709 10.4307L13.7735 10.4717C14.0816 10.6941 14.1775 11.1189 13.9834 11.4551C13.7894 11.7911 13.374 11.9201 13.0274 11.7646L12.959 11.7295L12.3165 11.3574L12.377 11.584C12.484 11.984 12.2467 12.3948 11.8467 12.502C11.4466 12.6091 11.0349 12.3718 10.9278 11.9717L10.4795 10.2969L8.75005 9.29785V11.2959L9.97564 12.5225L10.0274 12.5791C10.2676 12.8737 10.2502 13.3085 9.97564 13.583C9.7009 13.8576 9.26624 13.8743 8.97173 13.6338L8.91509 13.583L8.75005 13.417V14C8.75005 14.4141 8.41414 14.7499 8.00005 14.75C7.58599 14.7498 7.25005 14.4141 7.25005 14V13.417L7.08501 13.583C6.79217 13.8757 6.31734 13.8757 6.02446 13.583C5.7317 13.2902 5.73172 12.8154 6.02446 12.5225L7.25005 11.2959V9.29883L5.51958 10.2979L5.07232 11.9717L4.34771 11.7773L3.6231 11.584L3.68267 11.3584L3.04204 11.7295C2.68343 11.9365 2.22481 11.8136 2.01763 11.4551C1.81049 11.0964 1.93338 10.6378 2.29204 10.4307L2.93462 10.0586L2.70806 9.99902L2.63482 9.97559C2.27964 9.84054 2.07736 9.45507 2.17778 9.08008C2.27851 8.70526 2.64641 8.47334 3.02153 8.53418L3.09673 8.5498L4.77153 8.99805L6.50005 7.99902L4.77056 7L3.09673 7.44922L3.02153 7.46582C2.64623 7.52664 2.27826 7.2941 2.17778 6.91895C2.0709 6.51908 2.3083 6.10827 2.70806 6.00098L2.93364 5.93945L2.29204 5.56934L2.22759 5.52734C1.91939 5.30494 1.82347 4.88116 2.01763 4.54492C2.21184 4.20877 2.62704 4.07958 2.97368 4.23535L3.04204 4.27051L3.68267 4.64062L3.6231 4.41602L3.60747 4.34082C3.54677 3.96567 3.77845 3.59763 4.15337 3.49707C4.52847 3.39683 4.9141 3.59963 5.04888 3.95508L5.07232 4.02734L5.51958 5.70117L7.25005 6.7002V4.70312L6.02446 3.47754L5.97271 3.4209C5.73241 3.12631 5.7499 2.69157 6.02446 2.41699C6.29908 2.1425 6.73385 2.125 7.02837 2.36523L7.08501 2.41699L7.25005 2.58203V2C7.25005 1.58589 7.58599 1.25018 8.00005 1.25Z" fill="currentColor"/>
<path d="M5.07232 11.9717C4.96521 12.3717 4.55344 12.609 4.15337 12.502C3.75359 12.3947 3.51616 11.9839 3.6231 11.584L5.07232 11.9717Z" fill="currentColor"/>
<path d="M13.292 6.00098C13.692 6.10813 13.9293 6.51895 13.8223 6.91895C13.7152 7.31899 13.3044 7.55623 12.9043 7.44922L13.292 6.00098Z" fill="currentColor"/>
</svg>
