<svg viewBox="0 0 24 24" fill="none" xmlns="http://www.w3.org/2000/svg">
<path d="M11.9997 2C12.552 2 12.9997 2.44772 12.9997 3V4.1748L13.4606 3.71387C13.851 3.32344 14.4841 3.32365 14.8747 3.71387C15.2652 4.10431 15.2651 4.73736 14.8747 5.12793L12.9997 7.00293V10.2666L15.8278 8.63281L16.5134 6.07422L16.5446 5.97656C16.7246 5.50296 17.238 5.23332 17.738 5.36719C18.2378 5.50122 18.5472 5.99111 18.4665 6.49121L18.445 6.5918L18.2761 7.21973L19.4997 6.51367L19.5905 6.4668C20.0527 6.259 20.6069 6.43167 20.8659 6.87988C21.1248 7.32828 20.9968 7.89398 20.5856 8.19043L20.4997 8.24609L19.2751 8.95215L19.906 9.12207L20.0036 9.15332C20.4772 9.33336 20.7469 9.84669 20.613 10.3467C20.4791 10.8466 19.9891 11.1559 19.489 11.0752L19.3884 11.0537L16.8259 10.3672L13.9987 11.999L16.8259 13.6318L19.3884 12.9463L19.489 12.9248C19.9891 12.8441 20.479 13.1534 20.613 13.6533C20.7468 14.1533 20.4772 14.6667 20.0036 14.8467L19.906 14.8779L19.2751 15.0459L20.4997 15.7539L20.5856 15.8096C20.9967 16.1061 21.1249 16.6717 20.8659 17.1201C20.6069 17.5686 20.0529 17.7402 19.5905 17.5322L19.4997 17.4863L18.2761 16.7793L18.445 17.4082L18.4665 17.5088C18.5472 18.0089 18.2378 18.4988 17.738 18.6328C17.238 18.7667 16.7246 18.497 16.5446 18.0234L16.5134 17.9258L15.8278 15.3652L12.9997 13.7324V16.9961L14.8747 18.8721L14.944 18.9482C15.2641 19.341 15.2407 19.9202 14.8747 20.2861C14.5085 20.6519 13.9294 20.6748 13.5368 20.3545L13.4606 20.2861L12.9997 19.8242V21C12.9997 21.5523 12.552 22 11.9997 22C11.4476 21.9998 10.9997 21.5522 10.9997 21V19.8242L10.5388 20.2861C10.1483 20.6764 9.51521 20.6765 9.12471 20.2861C8.7344 19.8957 8.73456 19.2626 9.12471 18.8721L10.9997 16.9961V13.7324L8.17158 15.3643L7.48701 17.9258C7.34414 18.4591 6.79577 18.7755 6.2624 18.6328C5.72908 18.4899 5.41259 17.9416 5.55537 17.4082L5.72334 16.7793L4.49971 17.4863C4.02151 17.7622 3.40961 17.5982 3.1335 17.1201C2.8575 16.6419 3.02164 16.0301 3.49971 15.7539L4.72334 15.0459L4.09443 14.8779L3.99678 14.8467C3.52311 14.6667 3.25351 14.1534 3.3874 13.6533C3.52136 13.1534 4.01126 12.844 4.51143 12.9248L4.61201 12.9463L7.17256 13.6318L9.99873 11.999L7.17354 10.3672L4.61201 11.0537C4.07855 11.1966 3.53031 10.8801 3.3874 10.3467C3.24454 9.81323 3.561 9.26498 4.09443 9.12207L4.72334 8.95312L3.49971 8.24609L3.41377 8.19043C3.00284 7.89394 2.87474 7.32819 3.1335 6.87988C3.39238 6.4316 3.94666 6.25916 4.40889 6.4668L4.49971 6.51367L5.72334 7.21973L5.55537 6.5918L5.53389 6.49121C5.45312 5.99104 5.76248 5.50115 6.2624 5.36719C6.76236 5.23345 7.27579 5.50299 7.45576 5.97656L7.48701 6.07422L8.17158 8.63379L10.9997 10.2666V7.00293L9.12471 5.12793L9.05537 5.05176C8.7356 4.659 8.75889 4.07976 9.12471 3.71387C9.49079 3.34795 10.0699 3.32539 10.4626 3.64551L10.5388 3.71387L10.9997 4.1748V3C10.9997 2.44781 11.4476 2.00015 11.9997 2Z" fill="currentColor"/>
</svg>
