<svg viewBox="0 0 32 32" fill="none" xmlns="http://www.w3.org/2000/svg">
<path d="M16.0002 2.75C16.6904 2.75018 17.2502 3.30975 17.2502 4V5.76758L18.0071 5.01074C18.4951 4.52271 19.2864 4.52278 19.7746 5.01074C20.2626 5.49878 20.2625 6.29012 19.7746 6.77832L17.2502 9.30273V13.834L21.175 11.5664L22.0979 8.12109L22.1369 7.99902C22.3618 7.40677 23.004 7.06994 23.6291 7.2373C24.2957 7.41604 24.6914 8.10088 24.5129 8.76758L24.2356 9.7998L26.0412 8.75781C26.639 8.4126 27.404 8.61713 27.7492 9.21484C28.0943 9.81264 27.889 10.5767 27.2912 10.9219L25.4836 11.9648L26.5197 12.2432L26.6418 12.2832C27.2337 12.5083 27.5709 13.1495 27.4035 13.7744C27.2361 14.3994 26.6235 14.7865 25.9983 14.6855L25.8733 14.6582L22.4211 13.7334L18.4983 15.999L22.4231 18.2656L25.8733 17.3428L25.9983 17.3154C26.6235 17.2144 27.2361 17.6015 27.4035 18.2266C27.5708 18.8515 27.2338 19.4927 26.6418 19.7178L26.5197 19.7568L25.4836 20.0332L27.2912 21.0771L27.3987 21.1465C27.9129 21.517 28.073 22.2245 27.7492 22.7852C27.4256 23.3454 26.7332 23.5604 26.1555 23.3008L26.0412 23.2422L24.2356 22.1992L24.5129 23.2334L24.5403 23.3584C24.6413 23.9836 24.254 24.5961 23.6291 24.7637C23.004 24.931 22.3619 24.5941 22.1369 24.002L22.0979 23.8799L21.175 20.4316L17.2502 18.165V22.6963L19.7746 25.2227C20.2625 25.7109 20.2628 26.5022 19.7746 26.9902C19.2864 27.4781 18.4951 27.4774 18.0071 26.9893L17.2502 26.2314V28C17.2502 28.6902 16.6904 29.2498 16.0002 29.25C15.31 29.2498 14.7502 28.6902 14.7502 28V26.2314L13.9934 26.9893L12.2258 25.2227L14.7502 22.6963V18.1641L10.8244 20.4307L9.90158 23.8799C9.7229 24.5465 9.03807 24.9422 8.37131 24.7637C7.70474 24.585 7.30913 23.9001 7.48752 23.2334L7.76389 22.1982L5.95822 23.2422L5.84396 23.3008C5.26638 23.56 4.5748 23.3451 4.25119 22.7852C3.90612 22.1874 4.11065 21.4224 4.70822 21.0771L6.51486 20.0332L5.48068 19.7568L5.35861 19.7178C4.76665 19.4927 4.42957 18.8515 4.59689 18.2266C4.76429 17.6015 5.37687 17.2144 6.00217 17.3154L6.12717 17.3428L9.57541 18.2656L13.4992 15.999L9.57834 13.7344L6.12717 14.6582L6.00217 14.6855C5.37693 14.7865 4.76435 14.3994 4.59689 13.7744C4.41839 13.1077 4.81405 12.4219 5.48068 12.2432L6.51486 11.9648L4.70822 10.9219L4.6008 10.8525C4.08722 10.4819 3.92769 9.77519 4.25119 9.21484C4.57477 8.65465 5.26627 8.43988 5.84396 8.69922L5.95822 8.75781L7.76291 9.7998L7.48752 8.76758L7.46018 8.64258C7.35901 8.01729 7.74637 7.40486 8.37131 7.2373C8.99635 7.06997 9.63753 7.40696 9.86252 7.99902L9.90158 8.12109L10.8244 11.5674L14.7502 13.835V9.30273L12.2258 6.77832L12.1399 6.68359C11.7394 6.1926 11.7682 5.46838 12.2258 5.01074C12.6835 4.55332 13.4078 4.52442 13.8987 4.9248L13.9934 5.01074L14.7502 5.76758V4C14.7502 3.30976 15.31 2.75019 16.0002 2.75Z" fill="currentColor"/>
<path d="M13.9934 26.9893C13.5054 27.4775 12.7141 27.4781 12.2258 26.9902C11.7376 26.5022 11.7378 25.7109 12.2258 25.2227L13.9934 26.9893Z" fill="currentColor"/>
</svg>
