<svg viewBox="0 0 16 16" fill="none" xmlns="http://www.w3.org/2000/svg">
<path d="M6.5 2.5C6.91421 2.5 7.25 2.83579 7.25 3.25V12.75C7.25 13.1642 6.91421 13.5 6.5 13.5C6.08579 13.5 5.75 13.1642 5.75 12.75V3.25C5.75 2.83579 6.08579 2.5 6.5 2.5Z" fill="currentColor"/>
<path d="M9.5 4C9.91421 4 10.25 4.33579 10.25 4.75V11.25C10.25 11.6642 9.91421 12 9.5 12C9.08579 12 8.75 11.6642 8.75 11.25V4.75C8.75 4.33579 9.08579 4 9.5 4Z" fill="currentColor"/>
<path d="M12.5 6C12.9142 6 13.25 6.33579 13.25 6.75V9.25C13.25 9.66421 12.9142 10 12.5 10C12.0858 10 11.75 9.66421 11.75 9.25V6.75C11.75 6.33579 12.0858 6 12.5 6Z" fill="currentColor"/>
<path d="M3.5 6.5C3.91421 6.5 4.25 6.83579 4.25 7.25V8.75C4.24974 9.16399 3.91405 9.5 3.5 9.5C3.08595 9.5 2.75026 9.16399 2.75 8.75V7.25C2.75 6.83579 3.08579 6.5 3.5 6.5Z" fill="currentColor"/>
</svg>
