<svg viewBox="0 0 24 24" fill="none" xmlns="http://www.w3.org/2000/svg">
<path d="M17.0033 14.0071V10.0045C17.0033 9.45221 17.451 9.00449 18.0033 9.00449C18.5556 9.00449 19.0033 9.45221 19.0033 10.0045V14.0071C19.0033 14.5594 18.5556 15.0071 18.0033 15.0071C17.451 15.0071 17.0033 14.5594 17.0033 14.0071Z" fill="currentColor"/>
<path d="M5 13.4966L5 10.5006C5 9.94827 5.44772 9.50055 6 9.50055C6.55228 9.50055 7 9.94827 7 10.5006L7 13.4966L6.99512 13.5992C6.94379 14.1033 6.51768 14.4966 6 14.4966C5.48232 14.4966 5.05621 14.1033 5.00488 13.5992L5 13.4966Z" fill="currentColor"/>
<path d="M9.00385 19V5C9.00385 4.44772 9.45157 4 10.0039 4C10.5561 4 11.0039 4.44772 11.0039 5V19C11.0039 19.5522 10.5561 20 10.0039 20C9.45157 20 9.00385 19.5522 9.00385 19Z" fill="currentColor"/>
<path d="M13.0021 17.0005V6.9977C13.0021 6.44541 13.4498 5.9977 14.0021 5.9977C14.5544 5.9977 15.0021 6.44541 15.0021 6.9977V17.0005C15.0021 17.5528 14.5544 18.0005 14.0021 18.0005C13.4498 18.0005 13.0021 17.5528 13.0021 17.0005Z" fill="currentColor"/>
</svg>
