<svg viewBox="0 0 32 32" fill="none" xmlns="http://www.w3.org/2000/svg">
<path d="M13 5C13.8284 5 14.5 5.67157 14.5 6.5V25.5C14.5 26.3284 13.8284 27 13 27C12.1716 27 11.5 26.3284 11.5 25.5V6.5C11.5 5.67157 12.1716 5 13 5Z" fill="currentColor"/>
<path d="M19 8C19.8284 8 20.5 8.67157 20.5 9.5V22.5001C20.5 23.3285 19.8284 24.0001 19 24.0001C18.1716 24.0001 17.5 23.3285 17.5 22.5001V9.5C17.5 8.67157 18.1716 8 19 8Z" fill="currentColor"/>
<path d="M25 12.0001C25.8284 12.0001 26.5 12.6717 26.5 13.5001V18.5C26.5 19.3284 25.8284 20 25 20C24.1716 20 23.5 19.3284 23.5 18.5V13.5001C23.5 12.6717 24.1716 12.0001 25 12.0001Z" fill="currentColor"/>
<path d="M7 13.0001C7.82843 13.0001 8.5 13.6717 8.5 14.5001V17.5001C8.49947 18.3281 7.8281 19.0001 7 19.0001C6.1719 19.0001 5.50053 18.3281 5.5 17.5001V14.5001C5.5 13.6717 6.17157 13.0001 7 13.0001Z" fill="currentColor"/>
</svg>
