<svg viewBox="0 0 32 32" fill="none" xmlns="http://www.w3.org/2000/svg">
<path d="M21 7H11V14.333C11 17.3665 13.4079 20 16 20C18.5922 20 21 17.3665 21 14.333V7ZM23.9932 14.585C24.5693 14.3726 24.9681 14.0633 25.249 13.7109C25.7093 13.1336 26.0049 12.2525 26.0049 11V10H24V14.333C24 14.4169 23.9957 14.5011 23.9932 14.585ZM6.00391 11C6.00391 12.2532 6.29923 13.1345 6.75879 13.7119C7.03824 14.063 7.43412 14.3709 8.00586 14.583C8.00335 14.4998 8 14.4163 8 14.333V10H6.00391V11ZM24 7H26.1182C27.6567 7 29.0047 8.21413 29.0049 9.83301V11C29.0049 12.6928 28.6069 14.3115 27.5947 15.5811C26.5822 16.8509 25.0966 17.5924 23.2734 17.8105C22.2283 20.2664 20.1326 22.2745 17.5 22.8389V25.0039H19.4951C20.3235 25.0039 20.9951 25.6755 20.9951 26.5039C20.9951 27.3323 20.3235 28.0039 19.4951 28.0039H12.4941C11.6657 28.0039 10.9941 27.3323 10.9941 26.5039C10.9941 25.6755 11.6657 25.0039 12.4941 25.0039H14.5V22.8389C11.8673 22.2744 9.77062 20.2665 8.72559 17.8105C6.90484 17.5921 5.4218 16.85 4.41113 15.5801C3.40084 14.3106 3.00391 12.6923 3.00391 11V9.83301C3.00409 8.21669 4.34795 7 5.8877 7H8V6.83301C8.00017 5.30446 9.21808 4.00015 10.7998 4H21.2002C22.782 4.00007 23.9998 5.30441 24 6.83301V7Z" fill="currentColor"/>
</svg>
