<svg viewBox="0 0 24 24" fill="none" xmlns="http://www.w3.org/2000/svg">
<path d="M18 7.5V10.6787C18 10.8483 17.9906 11.0176 17.9766 11.1865C18.4046 11.0237 18.7076 10.7841 18.9248 10.501C19.28 10.0379 19.5 9.34053 19.5 8.375V7.5H18ZM4.5 8.375C4.5 9.34053 4.72001 10.0379 5.0752 10.501C5.29226 10.7839 5.59483 11.0237 6.02246 11.1865C6.00846 11.0176 6.00001 10.8483 6 10.6787V7.5H4.5V8.375ZM16 5.00391L15.999 5.00293L15.9971 5H8.00293L8.00098 5.00293L8 5.00391V10.6787C8.00021 13.0129 9.88858 15.0967 12 15.0967C14.1114 15.0967 15.9998 13.0129 16 10.6787V5.00391ZM18 5.5H19.5C20.6046 5.5 21.5 6.39543 21.5 7.5V8.375C21.5 9.61861 21.22 10.7966 20.5127 11.7188C19.7965 12.6525 18.732 13.2052 17.4062 13.3623C16.5868 15.1739 14.9826 16.6288 13 17.002V19H15.0068C15.5591 19 16.0068 19.4477 16.0068 20C16.0067 20.5522 15.5591 21 15.0068 21H9.00391C8.45168 21 8.00401 20.5522 8.00391 20C8.00391 19.4477 8.45162 19 9.00391 19H11V17.002C9.01724 16.6288 7.41217 15.1741 6.59277 13.3623C5.26748 13.205 4.20336 12.6523 3.4873 11.7188C2.77999 10.7966 2.5 9.61861 2.5 8.375V7.5C2.5 6.39543 3.39543 5.5 4.5 5.5H6V5.00781C6.00013 3.90648 6.88797 3 8 3H16C17.112 3 17.9999 3.90648 18 5.00781V5.5Z" fill="currentColor"/>
</svg>
