<svg viewBox="0 0 16 16" fill="none" xmlns="http://www.w3.org/2000/svg">
<path d="M10.4939 3.5H5.4939V7.16699C5.49407 8.68363 6.69791 10 7.9939 10C9.2897 9.99967 10.4937 8.68344 10.4939 7.16699V3.5ZM11.99 7.29297C12.281 7.18674 12.4824 7.0326 12.6238 6.85547C12.8541 6.5668 13.0027 6.12618 13.0027 5.5V5H11.9939V7.16699C11.9939 7.209 11.9913 7.25097 11.99 7.29297ZM2.9978 5.5C2.9978 6.1264 3.14573 6.56677 3.37573 6.85547C3.51505 7.03033 3.71243 7.18299 3.99683 7.28906C3.99562 7.24837 3.9939 7.2077 3.9939 7.16699V5H2.9978V5.5ZM11.9939 3.5H13.0583C13.8274 3.5 14.5027 4.10696 14.5027 4.91699V5.5C14.5027 6.34658 14.3032 7.15621 13.7966 7.79102C13.2891 8.42704 12.544 8.79604 11.6296 8.9043C11.1079 10.1307 10.0627 11.1331 8.74878 11.417V12.5H9.83569C10.2499 12.5 10.5857 12.8358 10.5857 13.25C10.5857 13.6642 10.2499 14 9.83569 14H6.16479C5.75058 14 5.41479 13.6642 5.41479 13.25C5.41479 12.8358 5.75058 12.5 6.16479 12.5H7.24878V11.4199C5.92894 11.139 4.87803 10.1332 4.35522 8.90234C3.44709 8.79221 2.70658 8.42348 2.2019 7.79004C1.6964 7.15532 1.4978 6.34616 1.4978 5.5V4.91699C1.4978 4.10802 2.17068 3.50005 2.94019 3.5H3.9939V3.41699C3.9939 2.65264 4.60238 2.00006 5.39331 2H10.5935C11.3844 2.00005 11.9939 2.65263 11.9939 3.41699V3.5Z" fill="currentColor"/>
</svg>
