<svg viewBox="0 0 32 32" fill="none" xmlns="http://www.w3.org/2000/svg">
<path d="M16 2.61133C16.477 2.61145 16.9122 2.88318 17.122 3.31152L20.7451 10.7109L28.8486 11.9043C29.3179 11.9735 29.7074 12.3029 29.8545 12.7539C30.0014 13.2051 29.8806 13.7008 29.542 14.0332L23.6748 19.791L25.0595 27.9287C25.1394 28.3981 24.9462 28.8723 24.5605 29.1514C24.1746 29.4303 23.6629 29.4661 23.2422 29.2432L15.999 25.4043L8.7568 29.2432C8.33604 29.466 7.82527 29.4303 7.43942 29.1514C7.05359 28.8723 6.85953 28.3981 6.93942 27.9287L8.32321 19.79L2.457 14.0332C2.11863 13.7008 1.9976 13.205 2.1445 12.7539C2.29149 12.303 2.68119 11.9736 3.15036 11.9043L11.2519 10.7109L14.8769 3.31152L14.9658 3.1582C15.1963 2.81918 15.5825 2.61137 16 2.61133ZM13.208 12.4023C13.0268 12.772 12.6747 13.0288 12.2675 13.0889L6.00387 14.0107L10.542 18.4648C10.8341 18.7516 10.9671 19.1638 10.8984 19.5674L9.83004 25.8447L15.414 22.8857L15.5547 22.8223C15.8887 22.695 16.2647 22.7162 16.5849 22.8857L22.1689 25.8447L21.1006 19.5674C21.0319 19.1639 21.1649 18.7516 21.457 18.4648L25.9951 14.0107L19.7304 13.0889C19.3232 13.0287 18.9711 12.7711 18.79 12.4014L15.999 6.70312L13.208 12.4023Z" fill="currentColor"/>
</svg>
