<svg viewBox="0 0 12 12" fill="none" xmlns="http://www.w3.org/2000/svg">
<path fill-rule="evenodd" clip-rule="evenodd" d="M6.00004 0.900391C6.18181 0.900403 6.34792 1.00407 6.42786 1.16731L7.71504 3.7956L10.5935 4.2197C10.7722 4.24616 10.9207 4.37156 10.9767 4.54335C11.0326 4.71517 10.9865 4.90408 10.8576 5.03069L8.77249 7.07585L9.26541 9.96733C9.29565 10.146 9.22152 10.3261 9.07475 10.4324C8.92773 10.5387 8.73284 10.5526 8.57253 10.4677L6.00004 9.10426L3.42756 10.4677C3.26725 10.5526 3.07235 10.5387 2.92534 10.4324C2.77857 10.3261 2.70444 10.146 2.73468 9.96733L3.22667 7.07585L1.14245 5.03069C1.01355 4.90408 0.967483 4.71517 1.02341 4.54335C1.07937 4.37156 1.22788 4.24616 1.40659 4.2197L4.28412 3.7956L5.57223 1.16731C5.65219 1.00409 5.81829 0.900391 6.00004 0.900391Z" fill="currentColor"/>
</svg>
