<svg viewBox="0 0 16 16" fill="none" xmlns="http://www.w3.org/2000/svg">
<path d="M7.7004 2.54215C7.82235 2.29324 8.17709 2.29324 8.29903 2.54215L9.87911 5.76872C9.92742 5.86736 10.0214 5.9363 10.1301 5.95231L13.6691 6.47282C13.9416 6.51296 14.0513 6.84823 13.8547 7.04118L11.2912 9.5568C11.2133 9.63325 11.1772 9.74315 11.1955 9.85075L11.8 13.4025C11.8461 13.6749 11.5599 13.8822 11.3156 13.7531L8.15548 12.0783C8.05799 12.0268 7.94142 12.0267 7.84395 12.0783L4.6838 13.7531C4.43961 13.882 4.15334 13.6748 4.19942 13.4025L4.80391 9.85075C4.82222 9.7432 4.787 9.63325 4.70919 9.5568L2.14571 7.04118C1.94913 6.84824 2.05778 6.51296 2.33028 6.47282L5.86934 5.95231C5.97781 5.93621 6.07107 5.86718 6.11934 5.76872L7.7004 2.54215Z" fill="currentColor"/>
</svg>
