<svg viewBox="0 0 16 16" fill="none" xmlns="http://www.w3.org/2000/svg">
<path d="M7.99915 1.18066C8.28533 1.18068 8.54701 1.34366 8.67298 1.60059L10.4562 5.24121L14.4425 5.8291L14.5451 5.85156C14.7797 5.92077 14.9687 6.10116 15.046 6.33789C15.1342 6.60846 15.0614 6.90601 14.8585 7.10547L11.9708 9.93848L12.6525 13.9434C12.7004 14.2251 12.5842 14.5093 12.3527 14.6768C12.1213 14.844 11.815 14.8659 11.5626 14.7324L7.99915 12.8438L4.43665 14.7324C4.18424 14.866 3.87708 14.8441 3.64564 14.6768C3.4145 14.5093 3.29795 14.2248 3.34583 13.9434L4.02747 9.93848L1.14076 7.10547C0.937958 6.90613 0.865356 6.60931 0.953255 6.33887C1.0414 6.06825 1.27525 5.87074 1.55677 5.8291L5.54115 5.24121L7.3263 1.60059L7.37904 1.50879C7.51722 1.30549 7.74887 1.18087 7.99915 1.18066ZM6.71595 6.25586C6.62079 6.45002 6.44703 6.5928 6.24134 6.64941L6.1515 6.66797L3.26869 7.0918L5.35853 9.14355C5.53363 9.31558 5.61359 9.56269 5.5724 9.80469L5.08021 12.6924L7.64857 11.333L7.73255 11.2939C7.93292 11.2177 8.15863 11.2313 8.35072 11.333L10.9181 12.6924L10.4269 9.80469C10.3857 9.5627 10.4657 9.31557 10.6408 9.14355L12.7296 7.0918L9.84681 6.66797C9.60245 6.63186 9.39101 6.47771 9.28236 6.25586L7.99915 3.63477L6.71595 6.25586Z" fill="currentColor"/>
</svg>
