<svg viewBox="0 0 32 32" fill="none" xmlns="http://www.w3.org/2000/svg">
<path d="M15.4013 5.0843C15.6452 4.58647 16.3547 4.5865 16.5986 5.0843L19.7588 11.5374C19.8554 11.7347 20.0434 11.8716 20.2607 11.9036L27.3398 12.9466C27.8845 13.0272 28.1019 13.6956 27.709 14.0814L22.582 19.1136C22.4262 19.2665 22.355 19.4863 22.3916 19.7015L23.6006 26.804C23.6934 27.3493 23.1206 27.764 22.6318 27.5052L16.3125 24.1566C16.1174 24.0532 15.8836 24.0533 15.6884 24.1566L9.36911 27.5052C8.88032 27.7642 8.30656 27.3494 8.39938 26.804L9.60837 19.7015C9.64497 19.4863 9.57373 19.2665 9.41794 19.1136L4.29098 14.0814C3.89813 13.6955 4.11619 13.0269 4.6611 12.9466L11.7382 11.9036C11.9555 11.8716 12.1436 11.7347 12.2402 11.5374L15.4013 5.0843Z" fill="currentColor"/>
</svg>
