<svg viewBox="0 0 24 24" fill="none" xmlns="http://www.w3.org/2000/svg">
<path d="M11.5512 3.81322C11.7341 3.43986 12.2657 3.43987 12.4487 3.81322L14.8188 8.65307C14.8912 8.80104 15.0327 8.90347 15.1957 8.92748L20.5043 9.70971C20.9131 9.76992 21.0765 10.2719 20.7817 10.5613L16.9369 14.3357C16.8201 14.4504 16.7659 14.6147 16.7934 14.7761L17.7006 20.1033C17.7701 20.5122 17.3396 20.8229 16.9731 20.6287L12.2338 18.1179C12.0874 18.0403 11.9125 18.0403 11.766 18.1179L7.02678 20.6287C6.66023 20.8229 6.22974 20.5122 6.29924 20.1033L7.20647 14.7761C7.23391 14.6149 7.18047 14.4504 7.06389 14.3357L3.21819 10.5613C2.92331 10.2719 3.08677 9.76993 3.49553 9.70971L8.80412 8.92748C8.96688 8.90333 9.1077 8.80085 9.1801 8.65307L11.5512 3.81322Z" fill="currentColor"/>
</svg>
