<svg viewBox="0 0 12 12" fill="none" xmlns="http://www.w3.org/2000/svg">
<path d="M6.00004 0.895508C6.18181 0.89552 6.34792 0.999187 6.42786 1.16243L7.71504 3.79072L10.5935 4.21481C10.7722 4.24127 10.9207 4.36668 10.9767 4.53847C11.0326 4.71028 10.9865 4.89919 10.8576 5.02581L8.77249 7.07096L9.26541 9.96245C9.29565 10.1411 9.22152 10.3212 9.07475 10.4275C8.92773 10.5338 8.73284 10.5478 8.57253 10.4628L6.00004 9.09938L3.42756 10.4628C3.26725 10.5478 3.07235 10.5338 2.92534 10.4275C2.77857 10.3212 2.70444 10.1411 2.73468 9.96245L3.22667 7.07096L1.14245 5.02581C1.01355 4.89919 0.967483 4.71028 1.02341 4.53847C1.07937 4.36668 1.22788 4.24127 1.40659 4.21481L4.28412 3.79072L5.57223 1.16243C5.65219 0.999207 5.81829 0.895508 6.00004 0.895508ZM5.03001 4.43523C4.96098 4.57607 4.8262 4.67371 4.67102 4.69657L2.4938 5.01651L4.07208 6.56595C4.18317 6.67508 4.23387 6.83186 4.20786 6.9854L3.83585 9.16727L5.77684 8.13958C5.91629 8.06568 6.0838 8.06568 6.22325 8.13958L8.16331 9.16727L7.79223 6.9854C7.76622 6.83186 7.81692 6.67508 7.92801 6.56595L9.50536 5.01651L7.32814 4.69657C7.17306 4.6737 7.03912 4.57595 6.97007 4.43523L6.00004 2.45425L5.03001 4.43523Z" fill="currentColor"/>
</svg>
