<svg viewBox="0 0 24 24" fill="none" xmlns="http://www.w3.org/2000/svg">
<path d="M12.0001 1.89551C12.3818 1.89553 12.7306 2.11422 12.8985 2.45703L15.6016 7.97656L21.6456 8.86719C22.0212 8.92251 22.3337 9.18587 22.4513 9.54688C22.5685 9.90771 22.4711 10.3045 22.2003 10.5703L17.8223 14.8662L18.8565 20.9365C18.9202 21.312 18.7657 21.6919 18.4571 21.915C18.1484 22.138 17.7389 22.1665 17.4024 21.9883L12.0001 19.124L6.59773 21.9883C6.26121 22.1665 5.85168 22.1381 5.54305 21.915C5.23444 21.6919 5.07992 21.312 5.14363 20.9365L6.17684 14.8662L1.79988 10.5703C1.52908 10.3045 1.43165 9.9077 1.54891 9.54688C1.66648 9.18592 1.97902 8.92257 2.35457 8.86719L8.39656 7.97656L11.1016 2.45605L11.1729 2.33398C11.3573 2.06274 11.6661 1.89554 12.0001 1.89551ZM9.96199 9.3291C9.83517 9.58766 9.60405 9.77795 9.33016 9.85352L9.21004 9.87891L4.63582 10.5518L7.95027 13.8047C8.18385 14.0341 8.29036 14.3638 8.23543 14.6865L7.45516 19.2695L11.5323 17.1104L11.6446 17.0586C11.9118 16.957 12.2118 16.9747 12.4679 17.1104L16.544 19.2695L15.7647 14.6865C15.7098 14.3638 15.8164 14.0341 16.0499 13.8047L19.3634 10.5518L14.7891 9.87891C14.4634 9.83085 14.1821 9.62478 14.0372 9.3291L12.0001 5.16992L9.96199 9.3291Z" fill="currentColor"/>
</svg>
