<svg viewBox="0 0 32 32" fill="none" xmlns="http://www.w3.org/2000/svg">
<path d="M14.5 28.8369V26.1699C14.5 25.3415 15.1716 24.6699 16 24.6699C16.8284 24.67 17.5 25.3415 17.5 26.1699V28.8369C17.4998 29.6652 16.8283 30.3369 16 30.3369C15.1717 30.3369 14.5002 29.6652 14.5 28.8369ZM6.95898 23.0225C7.54477 22.4367 8.49527 22.4367 9.08105 23.0225C9.66654 23.6081 9.66637 24.5578 9.08105 25.1436L8.13379 26.0908C7.54804 26.6764 6.59844 26.6764 6.0127 26.0908C5.42697 25.5051 5.42709 24.5555 6.0127 23.9697L6.95898 23.0225ZM23.0225 23.0225C23.6082 22.4368 24.5577 22.4369 25.1436 23.0225L26.0908 23.9697C26.6763 24.5555 26.6765 25.5051 26.0908 26.0908C25.5051 26.6765 24.5555 26.6763 23.9697 26.0908L23.0225 25.1436C22.4369 24.5578 22.4368 23.6082 23.0225 23.0225ZM10.873 10.873C13.7042 8.04189 18.2946 8.04215 21.126 10.873C23.9573 13.7043 23.9573 18.2947 21.126 21.126C18.2947 23.9573 13.7043 23.9573 10.873 21.126C8.04215 18.2946 8.04188 13.7042 10.873 10.873ZM19.0049 12.9951C17.3452 11.3354 14.6548 11.3354 12.9951 12.9951C11.3354 14.6548 11.3354 17.3452 12.9951 19.0049C14.6549 20.6645 17.3452 20.6646 19.0049 19.0049C20.6646 17.3452 20.6645 14.6548 19.0049 12.9951ZM5.83691 14.5C6.66519 14.5002 7.33691 15.1717 7.33691 16C7.33688 16.8283 6.66517 17.4998 5.83691 17.5H3.16992C2.34152 17.5 1.66996 16.8284 1.66992 16C1.66992 15.1716 2.34149 14.5 3.16992 14.5H5.83691ZM28.8369 14.5C29.6652 14.5002 30.3369 15.1717 30.3369 16C30.3369 16.8283 29.6652 17.4998 28.8369 17.5H26.1699C25.3415 17.5 24.67 16.8284 24.6699 16C24.6699 15.1716 25.3415 14.5 26.1699 14.5H28.8369ZM6.0127 6.0127C6.59848 5.42691 7.548 5.42692 8.13379 6.0127L9.08105 6.95898C9.66675 7.54478 9.66681 8.4953 9.08105 9.08105C8.4953 9.66681 7.54478 9.66675 6.95898 9.08105L6.0127 8.13379C5.42693 7.548 5.42692 6.59848 6.0127 6.0127ZM23.9697 6.0127C24.5555 5.42709 25.5051 5.42697 26.0908 6.0127C26.6764 6.59844 26.6764 7.54804 26.0908 8.13379L25.1436 9.08105C24.5578 9.66637 23.6081 9.66654 23.0225 9.08105C22.4367 8.49527 22.4367 7.54477 23.0225 6.95898L23.9697 6.0127ZM14.5 5.83691V3.16992C14.5 2.34149 15.1716 1.66992 16 1.66992C16.8284 1.66996 17.5 2.34152 17.5 3.16992V5.83691C17.4998 6.66517 16.8283 7.33688 16 7.33691C15.1717 7.33691 14.5002 6.66519 14.5 5.83691Z" fill="currentColor"/>
</svg>
