<svg viewBox="0 0 24 24" fill="none" xmlns="http://www.w3.org/2000/svg">
<path d="M11 21.5V19.5C11 18.9477 11.4477 18.5 12 18.5C12.5523 18.5 13 18.9477 13 19.5V21.5C13 22.0523 12.5523 22.5 12 22.5C11.4477 22.5 11 22.0523 11 21.5ZM5.33789 17.1475C5.72833 16.7572 6.36148 16.7573 6.75195 17.1475C7.14248 17.538 7.14248 18.172 6.75195 18.5625L6.04199 19.2725C5.65151 19.6627 5.01839 19.6627 4.62793 19.2725C4.23741 18.8819 4.23741 18.2479 4.62793 17.8574L5.33789 17.1475ZM17.1475 17.1475C17.538 16.7569 18.172 16.757 18.5625 17.1475L19.2725 17.8574C19.663 18.2479 19.663 18.8819 19.2725 19.2725C18.8821 19.6628 18.249 19.6626 17.8584 19.2725L17.1475 18.5625C16.757 18.172 16.757 17.538 17.1475 17.1475ZM8.11133 8.11133C10.2592 5.96345 13.7408 5.96345 15.8887 8.11133C18.0366 10.2592 18.0365 13.7408 15.8887 15.8887C13.7408 18.0366 10.2592 18.0366 8.11133 15.8887C5.96345 13.7408 5.96345 10.2592 8.11133 8.11133ZM14.4746 9.52539C13.1078 8.15856 10.8922 8.15856 9.52539 9.52539C8.15856 10.8922 8.15856 13.1078 9.52539 14.4746C10.8922 15.8414 13.1078 15.8414 14.4746 14.4746C15.8414 13.1078 15.8414 10.8922 14.4746 9.52539ZM4.5 11C5.05228 11 5.5 11.4477 5.5 12C5.5 12.5523 5.05228 13 4.5 13H2.5C1.94772 13 1.5 12.5523 1.5 12C1.5 11.4477 1.94772 11 2.5 11H4.5ZM21.5 11C22.0523 11 22.5 11.4477 22.5 12C22.5 12.5523 22.0523 13 21.5 13H19.5C18.9477 13 18.5 12.5523 18.5 12C18.5 11.4477 18.9477 11 19.5 11H21.5ZM4.62793 4.62793C5.01844 4.23742 5.65146 4.23745 6.04199 4.62793L6.75195 5.33789C7.14248 5.72841 7.14248 6.36143 6.75195 6.75195C6.36143 7.14248 5.72842 7.14248 5.33789 6.75195L4.62793 6.04199C4.23745 5.65146 4.23742 5.01844 4.62793 4.62793ZM17.8574 4.62793C18.2479 4.23741 18.8819 4.23741 19.2725 4.62793C19.6627 5.01839 19.6627 5.65151 19.2725 6.04199L18.5625 6.75195C18.172 7.14248 17.538 7.14248 17.1475 6.75195C16.7573 6.36148 16.7572 5.72833 17.1475 5.33789L17.8574 4.62793ZM11 4.5V2.5C11 1.94772 11.4477 1.5 12 1.5C12.5523 1.5 13 1.94772 13 2.5V4.5C13 5.05228 12.5523 5.5 12 5.5C11.4477 5.5 11 5.05228 11 4.5Z" fill="currentColor"/>
</svg>
