<svg viewBox="0 0 16 16" fill="none" xmlns="http://www.w3.org/2000/svg">
<path d="M7.25307 14.4961V13.1621C7.25318 12.748 7.58908 12.4121 8.00342 12.4121C8.41776 12.4121 8.75366 12.748 8.75377 13.1621V14.4961C8.75353 14.9101 8.41767 15.2461 8.00342 15.2461C7.58916 15.2461 7.25331 14.9101 7.25307 14.4961ZM3.40066 11.5361C3.6936 11.2433 4.16866 11.2435 4.46171 11.5361C4.75474 11.829 4.75474 12.3038 4.46171 12.5967L3.98883 13.0703C3.69587 13.3631 3.22083 13.363 2.92778 13.0703C2.63475 12.7774 2.63475 12.3027 2.92778 12.0098L3.40066 11.5361ZM11.5412 11.5361C11.8342 11.2433 12.3092 11.2435 12.6023 11.5361L13.0761 12.0098C13.3691 12.3027 13.3691 12.7774 13.0761 13.0703C12.7831 13.3632 12.3081 13.3632 12.0151 13.0703L11.5412 12.5967C11.2484 12.3038 11.2483 11.8289 11.5412 11.5361ZM5.52764 5.52539C6.89512 4.15856 9.11172 4.15856 10.4792 5.52539C11.8467 6.89222 11.8467 9.10777 10.4792 10.4746C9.11172 11.8414 6.89512 11.8414 5.52764 10.4746C4.16017 9.10778 4.16017 6.89222 5.52764 5.52539ZM9.41815 6.58594C8.63673 5.80489 7.37011 5.80489 6.58869 6.58594C5.80728 7.36699 5.80728 8.63302 6.58869 9.41406C7.3701 10.1951 8.63673 10.1951 9.41815 9.41406C10.1996 8.63301 10.1996 7.36699 9.41815 6.58594ZM2.83399 7.25C3.2484 7.25 3.58434 7.58579 3.58434 8C3.58434 8.41421 3.2484 8.75 2.83399 8.75H1.50035C1.08594 8.75 0.75 8.41421 0.75 8C0.750003 7.58579 1.08595 7.25 1.50035 7.25H2.83399ZM14.4996 7.25C14.9141 7.25 15.25 7.58579 15.25 8C15.25 8.41421 14.9141 8.75 14.4996 8.75H13.166C12.7516 8.75 12.4157 8.41421 12.4157 8C12.4157 7.58579 12.7516 7.25 13.166 7.25H14.4996ZM2.92778 2.92676C3.22082 2.63387 3.6958 2.63387 3.98883 2.92676L4.46171 3.39941C4.75474 3.6923 4.75473 4.16707 4.46171 4.45996C4.16868 4.75285 3.6937 4.75285 3.40066 4.45996L2.92778 3.9873C2.63475 3.69441 2.63475 3.21965 2.92778 2.92676ZM12.0151 2.92676C12.3081 2.63386 12.7831 2.63386 13.0761 2.92676C13.3689 3.21967 13.3691 3.69448 13.0761 3.9873L12.6023 4.45996C12.3092 4.75285 11.8343 4.75285 11.5412 4.45996C11.2485 4.16705 11.2483 3.69222 11.5412 3.39941L12.0151 2.92676ZM7.25307 2.83301V1.5C7.25307 1.08579 7.58901 0.75 8.00342 0.75C8.41782 0.750005 8.75377 1.08579 8.75377 1.5V2.83301C8.75377 3.24722 8.41782 3.583 8.00342 3.58301C7.58901 3.58301 7.25307 3.24722 7.25307 2.83301Z" fill="currentColor"/>
</svg>
