<svg viewBox="0 0 32 32" fill="none" xmlns="http://www.w3.org/2000/svg">
<path d="M13.9336 8C14.0181 8.18421 14.1312 8.35428 14.2734 8.49902C14.5931 8.82432 15.0216 9.00195 15.4619 9.00195H16.5752C17.0155 9.00195 17.4441 8.8243 17.7637 8.49902C17.9059 8.35428 18.0191 8.1842 18.1035 8H13.9336ZM26 16.7578C26 16.5351 25.971 16.3123 25.9131 16.0947L24.5664 11.0361C24.3547 10.2409 23.7622 9.53917 22.9053 9.16016L21.1348 8.37598C20.9343 9.20886 20.5128 9.98012 19.9033 10.6006C19.0253 11.4942 17.8285 12.002 16.5752 12.002H15.4619C14.2086 12.002 13.0118 11.4942 12.1338 10.6006C11.5311 9.9871 11.1113 9.22643 10.9082 8.4043L9.1709 9.17383C8.32669 9.54721 7.73886 10.2349 7.51953 11.0166L6.09668 16.0889C6.03262 16.3172 6 16.5518 6 16.7861V21.5H8.5V16.5C8.50001 15.6717 9.17179 15.0002 10 15C10.8284 15 11.5 15.6716 11.5 16.5V23.8926C11.4966 24.2256 11.6959 24.4298 11.8604 24.4854C14.5826 25.1654 17.4135 25.1653 20.1357 24.4854C20.3003 24.4303 20.5005 24.2262 20.4971 23.8926C20.497 23.8877 20.4971 23.8828 20.4971 23.8779L20.4961 16.5C20.4961 15.6717 21.1679 15.0003 21.9961 15C22.8245 15 23.4961 15.6716 23.4961 16.5L23.4971 21.5H26V16.7578ZM29 21.9336C29 23.4706 27.6968 24.5 26.3496 24.5H23.4463C23.2306 25.8202 22.3137 26.9773 20.9629 27.3711C20.9455 27.3762 20.9277 27.3813 20.9102 27.3857C17.6808 28.2005 14.3162 28.2005 11.0869 27.3857C11.0694 27.3813 11.0516 27.3762 11.0342 27.3711C9.68336 26.9774 8.76649 25.8202 8.55078 24.5H5.65039C4.30318 24.5 3 23.4706 3 21.9336V16.7861C3 16.2768 3.07034 15.7701 3.20801 15.2793L4.63086 10.2061C5.10516 8.51568 6.33969 7.14613 7.95703 6.43066L9.97168 5.54004C10.7776 5.18357 11.6532 5.00002 12.5371 5H19.5713C20.4552 5 21.3317 5.18354 22.1377 5.54004L24.1191 6.41602C25.761 7.14218 27.0074 8.54228 27.4658 10.2646L28.8125 15.3232C28.9371 15.7915 29 16.2736 29 16.7578V21.9336Z" fill="currentColor"/>
</svg>
