<svg viewBox="0 0 24 24" fill="none" xmlns="http://www.w3.org/2000/svg">
<path d="M10.4805 5.01367C10.7786 5.33468 11.1672 5.5 11.5547 5.5H12.4453C12.8328 5.5 13.2214 5.33468 13.5195 5.01367C13.5236 5.00924 13.5272 5.00437 13.5312 5H10.4688C10.4728 5.00437 10.4764 5.00924 10.4805 5.01367ZM20 12.4893C20 12.279 19.9742 12.0693 19.9229 11.8652L18.8691 7.67871C18.6807 6.93019 18.163 6.30241 17.4561 5.97168L15.9043 5.24609C15.8634 5.22699 15.822 5.20931 15.7803 5.19238C15.7581 5.24742 15.7346 5.30243 15.709 5.35645C15.5189 5.75686 15.2543 6.08435 14.9844 6.375C14.3245 7.08546 13.4128 7.5 12.4453 7.5H11.5547C10.5872 7.5 9.67554 7.08546 9.01562 6.375C8.74564 6.08434 8.48105 5.75686 8.29102 5.35645C8.27025 5.31267 8.25092 5.26807 8.23242 5.22363C8.21523 5.23123 8.19771 5.23812 8.18066 5.24609L6.60449 5.9834C5.90785 6.30921 5.39429 6.92398 5.19922 7.65918L4.08594 11.8564C4.02919 12.0703 4.00003 12.2906 4 12.5117V17H6V12.0527C6.00001 11.5005 6.4478 11.0528 7 11.0527C7.55228 11.0527 8.00001 11.5004 8 12.0527V18.8115C7.99596 19.2049 8.23462 19.4832 8.48438 19.5615C10.7969 20.1445 13.2021 20.1443 15.5146 19.5615C15.7647 19.4836 16.0041 19.2054 16 18.8115V12.0527C16 11.5004 16.4477 11.0527 17 11.0527C17.5522 11.0528 18 11.5005 18 12.0527V17H20V12.4893ZM22 17.1055L21.9902 17.3008C21.8921 18.2601 21.0776 19 20.0996 19H17.9941C17.9237 20.1286 17.1921 21.155 16.0703 21.4844C16.0587 21.4878 16.0469 21.4912 16.0352 21.4941C13.3822 22.1682 10.6178 22.1682 7.96484 21.4941C7.95314 21.4912 7.94127 21.4878 7.92969 21.4844C6.80796 21.155 6.07627 20.1286 6.00586 19H3.90039C2.92241 19 2.10787 18.2601 2.00977 17.3008L2 17.1055V12.5117C2.00003 12.1175 2.05123 11.7249 2.15234 11.3438L3.2666 7.14551C3.61445 5.83506 4.52706 4.74707 5.75684 4.17188L7.33301 3.43457C7.7833 3.22397 8.26418 3.08944 8.75586 3.03223C8.83415 3.01254 8.9156 3 9 3C9.03496 3 9.06948 3.00236 9.10352 3.00586C9.16562 3.00335 9.22776 3 9.29004 3H14.7949C14.8382 3 14.8816 3.00269 14.9248 3.00391C14.9497 3.00206 14.9747 3 15 3C15.0635 3 15.1254 3.00725 15.1855 3.01855C15.7272 3.06449 16.2579 3.2035 16.752 3.43457L18.3027 4.16016C19.5512 4.74403 20.4726 5.85566 20.8086 7.19043L21.8623 11.377C21.9538 11.7406 22 12.1144 22 12.4893V17.1055Z" fill="currentColor"/>
</svg>
