<svg viewBox="0 0 16 16" fill="none" xmlns="http://www.w3.org/2000/svg">
<path d="M7.01318 2.99902C7.19766 3.15919 7.43574 3.24991 7.68506 3.25H8.30225C8.55157 3.24991 8.78965 3.15919 8.97412 2.99902H7.01318ZM13.4937 8.04297C13.4936 7.90623 13.4769 7.76963 13.4429 7.63672L12.7104 4.7793C12.5856 4.29187 12.2411 3.8779 11.7632 3.6582L10.686 3.16309C10.6736 3.15735 10.6605 3.1529 10.6479 3.14746C10.5222 3.47189 10.3308 3.77071 10.0786 4.02051C9.6062 4.48832 8.9672 4.7499 8.30225 4.75H7.68506C7.02011 4.7499 6.38111 4.48832 5.90869 4.02051C5.66193 3.77609 5.47211 3.48524 5.34619 3.16895L4.26611 3.66602C3.79529 3.88245 3.45304 4.28784 3.32373 4.7666L2.55029 7.63184C2.51263 7.77135 2.49365 7.9156 2.49365 8.05957V11.2656H3.74365V7.5C3.74372 7.08588 4.07954 6.75007 4.49365 6.75C4.90782 6.75 5.24359 7.08585 5.24365 7.5V12.2197C5.24122 12.4695 5.39139 12.6417 5.54248 12.6914C7.15466 13.097 8.83164 13.0969 10.4438 12.6914C10.5952 12.6421 10.7461 12.47 10.7437 12.2197V7.5C10.7437 7.08585 11.0795 6.75001 11.4937 6.75C11.9078 6.75008 12.2436 7.08589 12.2437 7.5V11.2656H13.4937V8.04297ZM14.9937 11.4053C14.9936 12.1731 14.3612 12.7656 13.6187 12.7656H12.1694C11.996 13.4025 11.5225 13.9397 10.856 14.1348C10.8473 14.1373 10.8383 14.1394 10.8296 14.1416C8.9649 14.6141 7.02241 14.6141 5.15771 14.1416C5.14897 14.1394 5.14001 14.1373 5.13135 14.1348C4.46481 13.9397 3.99132 13.4025 3.81787 12.7656H2.36865C1.62612 12.7656 0.993744 12.1731 0.993652 11.4053V8.05957C0.993652 7.78338 1.03004 7.50798 1.10205 7.24121L1.87549 4.37598C2.12317 3.45842 2.77222 2.70231 3.63916 2.30371L4.73389 1.7998C5.05789 1.65089 5.40383 1.55664 5.75732 1.51855C5.80929 1.50715 5.86306 1.50001 5.91846 1.5C5.9368 1.5 5.95513 1.50163 5.97314 1.50293C6.01928 1.501 6.06555 1.49902 6.11182 1.49902H9.93506C9.96798 1.49903 10.0008 1.50097 10.0337 1.50195C10.0453 1.50142 10.0571 1.5 10.0688 1.5C10.1071 1.50001 10.1445 1.50424 10.1812 1.50977C10.5722 1.53898 10.956 1.63572 11.313 1.7998L12.3901 2.29492C13.2701 2.69949 13.9242 3.47275 14.1636 4.40723L14.895 7.26465C14.9601 7.51898 14.9936 7.78054 14.9937 8.04297V11.4053Z" fill="currentColor"/>
</svg>
