<svg viewBox="0 0 32 32" fill="none" xmlns="http://www.w3.org/2000/svg">
<path d="M10.7945 18.7568C11.4246 18.821 11.9166 19.3539 11.9166 20.001C11.9162 20.6477 11.4244 21.1799 10.7945 21.2441L10.6666 21.251H7.99959C7.30967 21.2508 6.75003 20.6908 6.74959 20.001C6.74959 19.3107 7.3094 18.7512 7.99959 18.751H10.6666L10.7945 18.7568Z" fill="currentColor"/>
<path d="M24.1285 18.7568C24.7584 18.8212 25.2506 19.3541 25.2506 20.001C25.2502 20.6476 24.7582 21.1798 24.1285 21.2441L24.0006 21.251H21.3336C20.6435 21.251 20.084 20.691 20.0836 20.001C20.0836 19.3106 20.6432 18.751 21.3336 18.751H24.0006L24.1285 18.7568Z" fill="currentColor"/>
<path d="M18.4469 3.42676C19.5715 3.52532 20.514 4.34936 20.7486 5.47168L21.0152 6.75H21.1138L21.3121 6.75391C23.3495 6.8414 25.0951 8.2713 25.5719 10.2705L26.2574 13.1475L27.6969 12.7881L27.8228 12.7627C28.4497 12.6722 29.0556 13.0696 29.2125 13.6973C29.3795 14.3668 28.9727 15.0454 28.3033 15.2129L27.2437 15.4775L27.7115 15.9453L27.8912 16.1338C28.7632 17.0968 29.2495 18.3519 29.2496 19.6572V22.667C29.2495 23.4069 28.9991 24.0866 28.5826 24.6328V26.667C28.5825 28.0936 27.4263 29.25 25.9996 29.25H23.3326C21.9062 29.2496 20.7497 28.0934 20.7496 26.667V25.917H11.2496V26.667C11.2495 28.0936 10.0933 29.25 8.66658 29.25H5.99959C4.57312 29.2498 3.41668 28.0935 3.41658 26.667V24.6318C3.0005 24.0857 2.7497 23.4065 2.74959 22.667V19.6592C2.74959 18.2678 3.30244 16.9326 4.28572 15.9482L4.75545 15.4775L3.69686 15.2129L3.57381 15.1758C2.97824 14.9608 2.63019 14.3248 2.7867 13.6973C2.94366 13.0694 3.55037 12.672 4.17733 12.7627L4.30233 12.7881L5.77303 13.1553L6.57381 10.1543L6.62752 9.96777C7.22244 8.06094 8.99109 6.75003 11.0035 6.75H11.0084L11.3199 5.41309L11.3805 5.19824C11.7241 4.14422 12.7103 3.41628 13.8355 3.41602H18.2193L18.4469 3.42676ZM5.91658 26.667C5.91668 26.7128 5.95383 26.7498 5.99959 26.75H8.66658C8.71254 26.75 8.74949 26.7129 8.74959 26.667V25.917H5.99959C5.97183 25.917 5.94418 25.9148 5.91658 25.9141V26.667ZM25.9996 25.917H23.2496V26.667C23.2497 26.7127 23.2869 26.7496 23.3326 26.75H25.9996C26.0455 26.75 26.0825 26.7129 26.0826 26.667V25.9141C26.0551 25.9147 26.0272 25.917 25.9996 25.917ZM6.05428 17.7148C5.53935 18.2305 5.24959 18.9305 5.24959 19.6592V22.667C5.24972 22.8724 5.33245 23.059 5.46639 23.1943C5.46959 23.197 5.47298 23.1994 5.47615 23.2021C5.6113 23.3343 5.79564 23.4169 5.99959 23.417H25.9996C26.203 23.417 26.3869 23.3346 26.5221 23.2031C26.5254 23.2003 26.5285 23.1971 26.5318 23.1943C26.6662 23.0589 26.7495 22.8729 26.7496 22.667V19.6572L26.7359 19.3857C26.6824 18.8462 26.4701 18.3344 26.1265 17.915L25.9439 17.7129L24.815 16.584H7.18416L6.05428 17.7148ZM11.0035 9.25C10.1181 9.25003 9.33632 9.80817 9.04158 10.6299L8.98885 10.7979L8.11287 14.084H23.9117L23.1402 10.8496C22.9304 9.97022 22.1801 9.33382 21.2926 9.25781L21.1138 9.25H11.0035ZM13.8355 5.91699C13.8068 5.9172 13.7801 5.93187 13.7652 5.95508L13.7545 5.98145L13.5748 6.75H18.4615L18.3013 5.9834C18.2953 5.9543 18.2744 5.93139 18.2476 5.92188L18.2193 5.91699H13.8355Z" fill="currentColor"/>
</svg>
