<svg viewBox="0 0 16 16" fill="none" xmlns="http://www.w3.org/2000/svg">
<path d="M9.66667 0H6.33333C6.24493 0 6.16014 0.035119 6.09763 0.0976311C6.03512 0.160143 6 0.244928 6 0.333333V1.33333H10V0.333333C10 0.244928 9.96488 0.160143 9.90237 0.0976311C9.83986 0.035119 9.75507 0 9.66667 0Z" fill="currentColor"/>
<path d="M14.7207 6.72L15.414 7.414C15.5998 7.59975 15.7472 7.8203 15.8477 8.06303C15.9483 8.30577 16 8.56593 16 8.82867V14.6667C16 14.8435 15.9298 15.013 15.8047 15.1381C15.6797 15.2631 15.5101 15.3333 15.3333 15.3333H13.3333C13.1565 15.3333 12.987 15.2631 12.8619 15.1381C12.7369 15.013 12.6667 14.8435 12.6667 14.6667V13.3333H3.33333V14.6667C3.33333 14.8435 3.2631 15.013 3.13807 15.1381C3.01305 15.2631 2.84348 15.3333 2.66667 15.3333H0.666667C0.489856 15.3333 0.320286 15.2631 0.195262 15.1381C0.0702379 15.013 1.43746e-08 14.8435 1.43746e-08 14.6667V8.828C-6.35198e-05 8.29771 0.210479 7.78909 0.585333 7.414L1.28 6.71867L2.4 3.36733C2.5326 2.96969 2.78677 2.62376 3.12663 2.37841C3.46648 2.13306 3.87484 2.00069 4.294 2H11.706C12.1252 2.00069 12.5335 2.13306 12.8734 2.37841C13.2132 2.62376 13.4674 2.96969 13.6 3.36733L14.7207 6.72ZM3.90403 3.45917C3.79048 3.54102 3.70557 3.65653 3.66133 3.78933L2.70267 6.66667H13.2973L12.3387 3.78933C12.2944 3.65653 12.2095 3.54102 12.096 3.45917C11.9824 3.37733 11.846 3.3333 11.706 3.33333H4.294C4.15402 3.3333 4.01759 3.37733 3.90403 3.45917ZM4.56904 9.90237C4.63155 9.83986 4.66667 9.75507 4.66667 9.66667V9C4.66667 8.91159 4.63155 8.82681 4.56904 8.7643C4.50652 8.70179 4.42174 8.66667 4.33333 8.66667H2.33333C2.24493 8.66667 2.16014 8.70179 2.09763 8.7643C2.03512 8.82681 2 8.91159 2 9V9.66667C2 9.75507 2.03512 9.83986 2.09763 9.90237C2.16014 9.96488 2.24493 10 2.33333 10H4.33333C4.42174 10 4.50652 9.96488 4.56904 9.90237ZM11.431 9.90237C11.4935 9.96488 11.5783 10 11.6667 10H13.6667C13.7551 10 13.8399 9.96488 13.9024 9.90237C13.9649 9.83986 14 9.75507 14 9.66667V9C14 8.91159 13.9649 8.82681 13.9024 8.7643C13.8399 8.70179 13.7551 8.66667 13.6667 8.66667H11.6667C11.5783 8.66667 11.4935 8.70179 11.431 8.7643C11.3685 8.82681 11.3333 8.91159 11.3333 9V9.66667C11.3333 9.75507 11.3685 9.83986 11.431 9.90237Z" fill="currentColor"/>
</svg>
