<svg viewBox="0 0 16 16" fill="none" xmlns="http://www.w3.org/2000/svg">
<path d="M5.41016 9.25391C5.78818 9.29237 6.08285 9.61187 6.08301 10C6.08277 10.388 5.78811 10.7076 5.41016 10.7461L5.33301 10.75H4.00001C3.58596 10.75 3.25027 10.414 3.25001 10C3.25018 9.58594 3.58591 9.25 4.00001 9.25H5.33301L5.41016 9.25391Z" fill="currentColor"/>
<path d="M12.0772 9.25391C12.4551 9.29248 12.7498 9.61196 12.75 10C12.7498 10.388 12.455 10.7075 12.0772 10.7461L12 10.75H10.667C10.2529 10.75 9.91726 10.414 9.917 10C9.91717 9.58594 10.2529 9.25 10.667 9.25H12L12.0772 9.25391Z" fill="currentColor"/>
<path d="M9.23438 1.58984C9.81004 1.64023 10.2986 2.03675 10.4658 2.58984L10.4971 2.71094L10.6094 3.25195L10.7647 3.25879C11.7941 3.34719 12.664 4.08634 12.9072 5.10645L13.2207 6.42188L13.8184 6.27344C14.22 6.17308 14.6269 6.41682 14.7275 6.81836C14.8276 7.2199 14.5841 7.62792 14.1826 7.72852L13.8672 7.80664L13.9443 7.88379L14.127 8.08594C14.5278 8.57526 14.75 9.191 14.75 9.8291V11.334C14.7498 11.7163 14.6252 12.0686 14.417 12.3564V13.333C14.417 14.1154 13.7824 14.75 13 14.75H11.667C10.8846 14.75 10.25 14.1154 10.25 13.333V13.084H5.75001V13.333C5.75001 14.1154 5.11542 14.75 4.33301 14.75H3.00001C2.21772 14.7499 1.58301 14.1153 1.58301 13.333V12.3564C1.37485 12.0686 1.25018 11.7163 1.25001 11.334V9.8291C1.25009 9.10041 1.53973 8.4013 2.05469 7.88574L2.13282 7.80664L1.81837 7.72852L1.74512 7.70605C1.3874 7.57729 1.17853 7.1951 1.27247 6.81836C1.36679 6.44191 1.73043 6.20347 2.10645 6.25781L2.18165 6.27344L2.79688 6.42676L3.16602 5.04492L3.22657 4.85059C3.55721 3.92821 4.41745 3.29396 5.40333 3.25391L5.53809 2.67871L5.5713 2.56055C5.75982 1.98254 6.30086 1.58307 6.91798 1.58301H9.11036L9.23438 1.58984ZM3.08301 13.25H4.25001V13.084H3.08301V13.25ZM11.75 13.25H12.917V13.084H11.75V13.25ZM3.11524 8.94629C2.88156 9.18054 2.75009 9.49821 2.75001 9.8291V11.334C2.75045 11.4717 2.86221 11.584 3.00001 11.584H4.98048C4.98697 11.5838 4.99347 11.583 5.00001 11.583C5.00646 11.583 5.01312 11.5838 5.01954 11.584H10.9805C10.987 11.5838 10.9935 11.583 11 11.583C11.0065 11.583 11.013 11.5838 11.0195 11.584H13C13.1378 11.584 13.2496 11.4717 13.25 11.334V9.8291L13.2441 9.70508C13.2198 9.45983 13.123 9.22677 12.9668 9.03613L12.8838 8.94531L12.3565 8.41699H3.64454L3.11524 8.94629ZM5.50098 4.75C5.13773 4.75028 4.81399 4.96401 4.667 5.28613L4.61524 5.43066L4.21876 6.91699H11.7969L11.4482 5.4541C11.3621 5.09308 11.0689 4.82515 10.7129 4.76367L10.5566 4.75H5.50098ZM6.94532 3.25H9.07716L9.042 3.08398H6.98438L6.94532 3.25Z" fill="currentColor"/>
</svg>
