<svg viewBox="0 0 32 32" fill="none" xmlns="http://www.w3.org/2000/svg">
<path d="M19.3333 0H12.6667C12.4899 0 12.3203 0.0702379 12.1953 0.195262C12.0702 0.320286 12 0.489856 12 0.666667V2.66667H20V0.666667C20 0.489856 19.9298 0.320286 19.8047 0.195262C19.6797 0.0702379 19.5101 0 19.3333 0Z" fill="currentColor"/>
<path d="M29.4413 13.44L30.828 14.828C31.1996 15.1995 31.4944 15.6406 31.6955 16.1261C31.8966 16.6115 32.0001 17.1319 32 17.6573V29.3333C32 29.687 31.8595 30.0261 31.6095 30.2761C31.3594 30.5262 31.0203 30.6667 30.6667 30.6667H26.6667C26.313 30.6667 25.9739 30.5262 25.7239 30.2761C25.4738 30.0261 25.3333 29.687 25.3333 29.3333V26.6667H6.66667V29.3333C6.66667 29.687 6.52619 30.0261 6.27614 30.2761C6.02609 30.5262 5.68696 30.6667 5.33333 30.6667H1.33333C0.979711 30.6667 0.640573 30.5262 0.390524 30.2761C0.140476 30.0261 2.875e-08 29.687 2.875e-08 29.3333V17.656C-0.00012704 16.5954 0.420958 15.5782 1.17067 14.828L2.56 13.4373L4.8 6.73467C5.06519 5.93939 5.57355 5.24753 6.25326 4.75683C6.93297 4.26612 7.74967 4.00138 8.588 4H23.412C24.2503 4.00138 25.067 4.26612 25.7467 4.75683C26.4265 5.24753 26.9348 5.93939 27.2 6.73467L29.4413 13.44ZM7.80807 6.91834C7.58096 7.08203 7.41113 7.31306 7.32267 7.57867L5.40533 13.3333H26.5947L24.6773 7.57867C24.5889 7.31306 24.419 7.08203 24.1919 6.91834C23.9648 6.75465 23.692 6.6666 23.412 6.66667H8.588C8.30805 6.6666 8.03518 6.75465 7.80807 6.91834ZM9.13807 19.8047C9.2631 19.6797 9.33333 19.5101 9.33333 19.3333V18C9.33333 17.8232 9.2631 17.6536 9.13807 17.5286C9.01305 17.4036 8.84348 17.3333 8.66667 17.3333H4.66667C4.48986 17.3333 4.32029 17.4036 4.19526 17.5286C4.07024 17.6536 4 17.8232 4 18V19.3333C4 19.5101 4.07024 19.6797 4.19526 19.8047C4.32029 19.9298 4.48986 20 4.66667 20H8.66667C8.84348 20 9.01305 19.9298 9.13807 19.8047ZM22.8619 19.8047C22.987 19.9298 23.1565 20 23.3333 20H27.3333C27.5101 20 27.6797 19.9298 27.8047 19.8047C27.9298 19.6797 28 19.5101 28 19.3333V18C28 17.8232 27.9298 17.6536 27.8047 17.5286C27.6797 17.4036 27.5101 17.3333 27.3333 17.3333H23.3333C23.1565 17.3333 22.987 17.4036 22.8619 17.5286C22.7369 17.6536 22.6667 17.8232 22.6667 18V19.3333C22.6667 19.5101 22.7369 19.6797 22.8619 19.8047Z" fill="currentColor"/>
</svg>
