<svg viewBox="0 0 24 24" fill="none" xmlns="http://www.w3.org/2000/svg">
<path d="M8 14C8.55228 14 9 14.4477 9 15C9 15.5523 8.55228 16 8 16H6C5.44772 16 5 15.5523 5 15C5 14.4477 5.44772 14 6 14H8Z" fill="currentColor"/>
<path d="M18 14C18.5523 14 19 14.4477 19 15C19 15.5523 18.5523 16 18 16H16C15.4477 16 15 15.5523 15 15C15 14.4477 15.4477 14 16 14H18Z" fill="currentColor"/>
<path d="M13.8408 2.50781C14.7116 2.58408 15.4414 3.22184 15.623 4.09082L15.8125 5H15.835L16.1367 5.0127C17.6277 5.14074 18.887 6.21105 19.2393 7.68848L19.7393 9.78418L20.7578 9.53027C21.2935 9.39648 21.8358 9.72209 21.9697 10.2578C22.1035 10.7935 21.7779 11.3358 21.2422 11.4697L20.5547 11.6406L20.8281 11.9141L20.9648 12.0576C21.6293 12.7913 21.9999 13.7476 22 14.7422V17C22 17.5612 21.8122 18.0769 21.5 18.4941V20.001C21.4995 21.1051 20.6043 22.001 19.5 22.001H17.5C16.3957 22.001 15.5005 21.1051 15.5 20.001V19.5H8.5V20.001C8.49953 21.1051 7.60428 22.001 6.5 22.001H4.5C3.39572 22.001 2.50047 21.1051 2.5 20.001V18.4941C2.18782 18.0769 2 17.5612 2 17V14.7432C2.00013 13.6831 2.42066 12.6659 3.16992 11.916L3.44434 11.6406L2.75781 11.4697L2.65918 11.4404C2.18264 11.2684 1.90486 10.7599 2.03027 10.2578C2.15589 9.75536 2.6408 9.4369 3.14258 9.50977L3.24219 9.53027L4.28516 9.79102L4.87012 7.59961L4.95801 7.31738C5.44781 5.95189 6.73832 5.02042 8.20605 5.00098L8.42969 4.04492L8.47559 3.87891C8.74166 3.06276 9.50564 2.50008 10.377 2.5H13.665L13.8408 2.50781ZM4.5 20.001H6.5V19.5H4.5V20.001ZM17.5 20.001H19.5V19.5H17.5V20.001ZM4.58496 13.3301C4.21045 13.705 4.00013 14.2133 4 14.7432V17C4 17.2761 4.22386 17.5 4.5 17.5H19.5C19.7761 17.5 20 17.2761 20 17V14.7422L19.9902 14.5449C19.9513 14.1526 19.7967 13.7806 19.5469 13.4756L19.4141 13.3281L18.5859 12.5H5.41406L4.58496 13.3301ZM8.25293 7C7.61514 6.99999 7.0519 7.40214 6.83984 7.99414L6.80273 8.11426L6.16602 10.5H17.8545L17.2939 8.15234C17.143 7.51933 16.6036 7.06088 15.9648 7.00586L15.835 7H8.25293ZM10.2598 5H13.7695L13.665 4.5H10.377L10.2598 5Z" fill="currentColor"/>
</svg>
