<svg viewBox="0 0 24 24" fill="none" xmlns="http://www.w3.org/2000/svg">
<path d="M14.5 0H9.5C9.36739 0 9.24021 0.0526784 9.14645 0.146447C9.05268 0.240215 9 0.367392 9 0.5V2H15V0.5C15 0.367392 14.9473 0.240215 14.8536 0.146447C14.7598 0.0526784 14.6326 0 14.5 0Z" fill="currentColor"/>
<path d="M22.081 10.08L23.121 11.121C23.3997 11.3996 23.6208 11.7304 23.7716 12.0945C23.9224 12.4586 24 12.8489 24 13.243V22C24 22.2652 23.8946 22.5196 23.7071 22.7071C23.5196 22.8946 23.2652 23 23 23H20C19.7348 23 19.4804 22.8946 19.2929 22.7071C19.1054 22.5196 19 22.2652 19 22V20H5V22C5 22.2652 4.89464 22.5196 4.70711 22.7071C4.51957 22.8946 4.26522 23 4 23H1C0.734784 23 0.48043 22.8946 0.292893 22.7071C0.105357 22.5196 2.15628e-08 22.2652 2.15628e-08 22V13.242C-9.52796e-05 12.4466 0.315719 11.6836 0.878 11.121L1.92 10.078L3.6 5.051C3.79889 4.45454 4.18016 3.93565 4.68994 3.56762C5.19973 3.19959 5.81225 3.00104 6.441 3H17.559C18.1877 3.00104 18.8003 3.19959 19.3101 3.56762C19.8198 3.93565 20.2011 4.45454 20.4 5.051L22.081 10.08ZM5.85605 5.18876C5.68572 5.31153 5.55835 5.48479 5.492 5.684L4.054 10H19.946L18.508 5.684C18.4417 5.48479 18.3143 5.31153 18.144 5.18876C17.9736 5.06599 17.769 4.99995 17.559 5H6.441C6.23104 4.99995 6.02638 5.06599 5.85605 5.18876ZM6.85355 14.8536C6.94732 14.7598 7 14.6326 7 14.5V13.5C7 13.3674 6.94732 13.2402 6.85355 13.1464C6.75979 13.0527 6.63261 13 6.5 13H3.5C3.36739 13 3.24021 13.0527 3.14645 13.1464C3.05268 13.2402 3 13.3674 3 13.5V14.5C3 14.6326 3.05268 14.7598 3.14645 14.8536C3.24021 14.9473 3.36739 15 3.5 15H6.5C6.63261 15 6.75979 14.9473 6.85355 14.8536ZM17.1464 14.8536C17.2402 14.9473 17.3674 15 17.5 15H20.5C20.6326 15 20.7598 14.9473 20.8536 14.8536C20.9473 14.7598 21 14.6326 21 14.5V13.5C21 13.3674 20.9473 13.2402 20.8536 13.1464C20.7598 13.0527 20.6326 13 20.5 13H17.5C17.3674 13 17.2402 13.0527 17.1464 13.1464C17.0527 13.2402 17 13.3674 17 13.5V14.5C17 14.6326 17.0527 14.7598 17.1464 14.8536Z" fill="currentColor"/>
</svg>
