<svg viewBox="0 0 32 32" fill="none" xmlns="http://www.w3.org/2000/svg">
<path d="M6.66675 1.33301C4.45761 1.33301 2.66675 3.12387 2.66675 5.33301V16.3145L4.00008 18.9811V26.6663C4.00008 28.8755 5.79095 30.6663 8.00008 30.6663H9.33342V19.9997C9.33342 17.0542 11.7212 14.6663 14.6667 14.6663H26.6667V5.33301C26.6667 3.12387 24.8759 1.33301 22.6667 1.33301H6.66675ZM8.00008 10.6663V5.33301H21.3334V10.6663H8.00008Z" fill="currentColor"/>
<path d="M30.6667 27.9996C30.6667 29.4724 29.4729 30.6663 28.0001 30.6663H14.6667C13.194 30.6663 12.0001 29.4724 12.0001 27.9996V23.9996H30.6667V27.9996Z" fill="currentColor"/>
<path d="M30.6667 21.333V19.9997C30.6667 18.5269 29.4729 17.333 28.0001 17.333H14.6667C13.194 17.333 12.0001 18.5269 12.0001 19.9997V21.333H30.6667Z" fill="currentColor"/>
</svg>
