<svg viewBox="0 0 16 16" fill="none" xmlns="http://www.w3.org/2000/svg">
<path d="M4.19336 11.0811C4.48793 10.841 4.92276 10.8583 5.19727 11.1328L5.2002 11.1367C5.49294 11.4296 5.49299 11.9044 5.2002 12.1973L5.19727 12.2002C5.05669 12.3408 4.86581 12.4198 4.66699 12.4199C4.51791 12.4199 4.37323 12.3754 4.25098 12.2939L4.13672 12.2002L4.13281 12.1973C3.84007 11.9045 3.84023 11.4296 4.13281 11.1367L4.13672 11.1328L4.19336 11.0811Z" fill="currentColor"/>
<path d="M5.86035 11.0811C6.15482 10.8413 6.58882 10.8586 6.86328 11.1328L6.86719 11.1367C7.15976 11.4296 7.15991 11.9045 6.86719 12.1973L6.86328 12.2002C6.72265 12.3408 6.53185 12.4199 6.33301 12.4199C6.13419 12.4198 5.94331 12.3408 5.80273 12.2002L5.7998 12.1973C5.65925 12.0567 5.58016 11.8658 5.58008 11.667C5.58009 11.4682 5.65924 11.2773 5.7998 11.1367L5.80273 11.1328L5.86035 11.0811Z" fill="currentColor"/>
<path d="M7.52637 11.0811C7.8209 10.8409 8.2557 10.8584 8.53027 11.1328L8.5332 11.1367C8.82605 11.4296 8.82695 11.9044 8.53418 12.1973L8.53027 12.2002C8.38963 12.3409 8.19892 12.4199 8 12.4199C7.80107 12.4199 7.61038 12.3409 7.46973 12.2002L7.46582 12.1973C7.32532 12.0567 7.24716 11.8657 7.24707 11.667C7.24708 11.4681 7.32613 11.2774 7.4668 11.1367L7.46973 11.1328L7.52637 11.0811Z" fill="currentColor"/>
<path d="M4.66699 9.24707C4.8658 9.24716 5.05669 9.32621 5.19727 9.4668L5.2002 9.46973C5.34084 9.61038 5.41992 9.8011 5.41992 10C5.41992 10.1492 5.37549 10.2937 5.29395 10.416L5.2002 10.5303L5.19727 10.5332C4.90438 10.8261 4.42961 10.8261 4.13672 10.5332L4.13281 10.5303C3.99224 10.3896 3.91309 10.1988 3.91309 10C3.91309 9.80115 3.99224 9.61037 4.13281 9.46973L4.13672 9.4668L4.25098 9.37305C4.37327 9.29153 4.51785 9.24707 4.66699 9.24707Z" fill="currentColor"/>
<path d="M6.33301 9.24707C6.53193 9.24708 6.72263 9.32613 6.86328 9.4668L6.86719 9.46973L6.91895 9.52637C7.14312 9.80129 7.14312 10.1987 6.91895 10.4736L6.86719 10.5303L6.86328 10.5332C6.58874 10.8077 6.15493 10.8251 5.86035 10.585L5.80273 10.5342L5.7998 10.5303C5.65914 10.3896 5.58009 10.1989 5.58008 10C5.58008 9.80109 5.65915 9.61038 5.7998 9.46973L5.80273 9.4668L5.91699 9.37305C6.03929 9.2914 6.1838 9.24714 6.33301 9.24707Z" fill="currentColor"/>
<path d="M8 9.24707C8.19892 9.24708 8.38962 9.32613 8.53027 9.4668L8.53418 9.46973L8.58496 9.52637C8.80948 9.8014 8.80948 10.1986 8.58496 10.4736L8.5332 10.5303L8.53027 10.5332C8.25561 10.8079 7.82095 10.8254 7.52637 10.585L7.46973 10.5342L7.4668 10.5303C7.32613 10.3896 7.24708 10.1989 7.24707 10C7.24707 9.80109 7.32614 9.61038 7.4668 9.46973L7.46973 9.4668L7.58398 9.37305C7.70632 9.29144 7.85077 9.24707 8 9.24707Z" fill="currentColor"/>
<path d="M8 3.25C8.7824 3.25 9.41699 3.88459 9.41699 4.66699V7.33301C9.41699 8.11541 8.7824 8.75 8 8.75H4.66699C3.88459 8.75 3.25 8.11541 3.25 7.33301V4.66699C3.25 3.88459 3.88459 3.25 4.66699 3.25H8ZM4.75 7.25H7.91699V4.75H4.75V7.25Z" fill="currentColor"/>
<path d="M8.66699 1.25C10.0437 1.25016 11.1807 2.26246 11.3818 3.58301H12.667C13.8174 3.58318 14.75 4.51651 14.75 5.66699V10.333C14.75 11.4835 13.8174 12.4168 12.667 12.417H11.3818C11.1807 13.7375 10.0437 14.7498 8.66699 14.75H4C2.48122 14.75 1.25 13.5188 1.25 12V4C1.25 2.48122 2.48122 1.25 4 1.25H8.66699ZM4 2.75C3.30964 2.75 2.75 3.30964 2.75 4V12C2.75 12.6904 3.30964 13.25 4 13.25H8.66699C9.3572 13.2498 9.91699 12.6902 9.91699 12V4C9.91699 3.30975 9.3572 2.75018 8.66699 2.75H4ZM11.417 10.917H12.667C12.989 10.9168 13.25 10.6551 13.25 10.333V5.66699C13.25 5.34493 12.989 5.08318 12.667 5.08301H11.417V10.917Z" fill="currentColor"/>
</svg>
