<svg viewBox="0 0 32 32" fill="none" xmlns="http://www.w3.org/2000/svg">
<path d="M8.54395 22.3574C9.03491 21.9568 9.75908 21.9857 10.2168 22.4434L10.2236 22.4502C10.7116 22.9383 10.7116 23.7297 10.2236 24.2178L10.2168 24.2236C9.98237 24.4581 9.66458 24.5898 9.33301 24.5898C9.0015 24.5898 8.68361 24.4581 8.44922 24.2236L8.44238 24.2178C7.95442 23.7297 7.9546 22.9383 8.44238 22.4502L8.44922 22.4434L8.54395 22.3574Z" fill="currentColor"/>
<path d="M11.8779 22.3574C12.3689 21.957 13.0932 21.9857 13.5508 22.4434L13.5576 22.4502C14.0453 22.9383 14.0455 23.7297 13.5576 24.2178L13.5508 24.2236C13.3164 24.4581 12.9985 24.5898 12.667 24.5898C12.3356 24.5899 12.0176 24.4588 11.7832 24.2246L11.7764 24.2178C11.5421 23.9834 11.4102 23.6654 11.4102 23.334C11.4102 23.0025 11.542 22.6846 11.7764 22.4502L11.7832 22.4434L11.8779 22.3574Z" fill="currentColor"/>
<path d="M15.2109 22.3574C15.7019 21.9568 16.4261 21.9856 16.8838 22.4434L16.8906 22.4502C17.3786 22.9383 17.3786 23.7297 16.8906 24.2178L16.8838 24.2236C16.6494 24.4581 16.3316 24.5898 16 24.5898C15.6686 24.5898 15.3506 24.4589 15.1162 24.2246L15.1094 24.2178C14.8751 23.9834 14.7432 23.6654 14.7432 23.334C14.7432 23.0026 14.8752 22.6846 15.1094 22.4502L15.1162 22.4434L15.2109 22.3574Z" fill="currentColor"/>
<path d="M9.33301 18.7432C9.66453 18.7432 9.98238 18.875 10.2168 19.1094L10.2236 19.1162L10.3096 19.2109C10.6833 19.6693 10.6835 20.3309 10.3096 20.7891L10.2236 20.8838L10.2168 20.8906C9.98241 21.1248 9.66437 21.2559 9.33301 21.2559C9.04308 21.2558 8.76337 21.1557 8.54102 20.9736L8.44922 20.8906L8.44238 20.8838C7.95437 20.3957 7.95457 19.6044 8.44238 19.1162L8.44922 19.1094L8.54102 19.0264C8.76342 18.8441 9.04294 18.7432 9.33301 18.7432Z" fill="currentColor"/>
<path d="M12.667 18.7432C12.9984 18.7432 13.3164 18.875 13.5508 19.1094L13.5576 19.1162C14.0453 19.6044 14.0456 20.3958 13.5576 20.8838L13.5508 20.8906C13.3164 21.1249 12.9984 21.2558 12.667 21.2559C12.3356 21.2559 12.0176 21.1248 11.7832 20.8906L11.7764 20.8838C11.2882 20.3957 11.2883 19.6044 11.7764 19.1162L11.7832 19.1094L11.874 19.0264C12.0965 18.8439 12.3767 18.7432 12.667 18.7432Z" fill="currentColor"/>
<path d="M16 18.7432C16.3315 18.7432 16.6494 18.875 16.8838 19.1094L16.8906 19.1162C17.3786 19.6044 17.3787 20.3957 16.8906 20.8838L16.8838 20.8906C16.6494 21.1248 16.3314 21.2558 16 21.2559C15.6686 21.2558 15.3506 21.1249 15.1162 20.8906L15.1094 20.8838C14.6213 20.3957 14.6215 19.6044 15.1094 19.1162L15.1162 19.1094L15.208 19.0264C15.4304 18.8441 15.7099 18.7432 16 18.7432Z" fill="currentColor"/>
<path d="M16 6.75C17.4266 6.75 18.5828 7.90642 18.583 9.33301V14.667C18.5828 16.0936 17.4266 17.25 16 17.25H9.33301C7.90653 17.2498 6.75018 16.0935 6.75 14.667V9.33301C6.75018 7.90653 7.90653 6.75018 9.33301 6.75H16ZM9.33301 9.25C9.28724 9.25017 9.25017 9.28724 9.25 9.33301V14.667C9.25017 14.7128 9.28724 14.7498 9.33301 14.75H16C16.0459 14.75 16.0828 14.7129 16.083 14.667V9.33301C16.0828 9.28713 16.0459 9.25 16 9.25H9.33301Z" fill="currentColor"/>
<path d="M17.333 2.75C20.0354 2.75 22.2607 4.79189 22.5508 7.41699H25.334C27.4969 7.41726 29.25 9.17103 29.25 11.334V20.667C29.25 22.8299 27.4969 24.5837 25.334 24.584H22.5508C22.2603 27.2086 20.0351 29.25 17.333 29.25H8C5.10051 29.25 2.75 26.8995 2.75 24V8C2.75 5.10051 5.10051 2.75 8 2.75H17.333ZM8 5.25C6.48122 5.25 5.25 6.48122 5.25 8V24C5.25 25.5188 6.48122 26.75 8 26.75H17.333C18.8518 26.75 20.083 25.5188 20.083 24V8C20.083 6.48122 18.8518 5.25 17.333 5.25H8ZM22.583 22.084H25.334C26.1162 22.0837 26.75 21.4492 26.75 20.667V11.334C26.75 10.5517 26.1162 9.91726 25.334 9.91699H22.583V22.084Z" fill="currentColor"/>
</svg>
