<svg viewBox="0 0 16 16" fill="none" xmlns="http://www.w3.org/2000/svg">
<path d="M3.33325 0.666992C2.22869 0.666992 1.33325 1.56243 1.33325 2.66699V8.15773L1.99992 9.49106V13.3337C1.99992 14.4383 2.89535 15.3337 3.99992 15.3337H4.66659V10.0003C4.66659 8.52759 5.86049 7.33366 7.33325 7.33366H13.3333V2.66699C13.3333 1.56243 12.4379 0.666992 11.3333 0.666992H3.33325ZM3.99992 5.33366V2.66699H10.6666V5.33366H3.99992Z" fill="currentColor"/>
<path d="M15.3333 14.0003C15.3333 14.7367 14.7364 15.3336 14 15.3336H7.33333C6.59695 15.3336 6 14.7367 6 14.0003V12.0003H15.3333V14.0003Z" fill="currentColor"/>
<path d="M15.3333 10.0003V10.667H6V10.0003C6 9.26393 6.59695 8.66699 7.33333 8.66699H14C14.7364 8.66699 15.3333 9.26393 15.3333 10.0003Z" fill="currentColor"/>
</svg>
