<svg viewBox="0 0 24 24" fill="none" xmlns="http://www.w3.org/2000/svg">
<path d="M8.86914 16.7197C9.26192 16.3993 9.8409 16.422 10.207 16.7881L10.2119 16.793C10.6024 17.1835 10.6024 17.8165 10.2119 18.207L10.207 18.2119C9.81651 18.6024 9.18349 18.6024 8.79297 18.2119L8.78809 18.207C8.39756 17.8165 8.39756 17.1835 8.78809 16.793L8.79297 16.7881L8.86914 16.7197Z" fill="currentColor"/>
<path d="M11.3691 16.7197C11.7619 16.3993 12.3409 16.422 12.707 16.7881L12.7119 16.793C13.1024 17.1835 13.1024 17.8165 12.7119 18.207L12.707 18.2119C12.3165 18.6024 11.6835 18.6024 11.293 18.2119L11.2881 18.207C10.8976 17.8165 10.8976 17.1835 11.2881 16.793L11.293 16.7881L11.3691 16.7197Z" fill="currentColor"/>
<path d="M6.36914 16.7197C6.76192 16.3993 7.3409 16.422 7.70703 16.7881L7.71191 16.793C8.10244 17.1835 8.10244 17.8165 7.71191 18.207L7.70703 18.2119C7.3409 18.578 6.76192 18.6007 6.36914 18.2803L6.29297 18.2119L6.28809 18.207C5.89756 17.8165 5.89756 17.1835 6.28809 16.793L6.29297 16.7881L6.36914 16.7197Z" fill="currentColor"/>
<path d="M8.86914 14.2197C9.26192 13.8993 9.8409 13.922 10.207 14.2881L10.2119 14.293C10.6024 14.6835 10.6024 15.3165 10.2119 15.707L10.207 15.7119C9.81651 16.1024 9.18349 16.1024 8.79297 15.7119L8.78809 15.707C8.39756 15.3165 8.39756 14.6835 8.78809 14.293L8.79297 14.2881L8.86914 14.2197Z" fill="currentColor"/>
<path d="M11.3691 14.2197C11.7619 13.8993 12.3409 13.922 12.707 14.2881L12.7119 14.293C13.1024 14.6835 13.1024 15.3165 12.7119 15.707L12.707 15.7119C12.3165 16.1024 11.6835 16.1024 11.293 15.7119L11.2881 15.707C10.8976 15.3165 10.8976 14.6835 11.2881 14.293L11.293 14.2881L11.3691 14.2197Z" fill="currentColor"/>
<path d="M6.36914 14.2197C6.76192 13.8993 7.3409 13.922 7.70703 14.2881L7.71191 14.293C8.10244 14.6835 8.10244 15.3165 7.71191 15.707L7.70703 15.7119C7.3409 16.078 6.76192 16.1007 6.36914 15.7803L6.29297 15.7119L6.28809 15.707C5.89756 15.3165 5.89756 14.6835 6.28809 14.293L6.29297 14.2881L6.36914 14.2197Z" fill="currentColor"/>
<path d="M12 5C13.1046 5 14 5.89543 14 7V11C14 12.1046 13.1046 13 12 13H7C5.89543 13 5 12.1046 5 11V7C5 5.89543 5.89543 5 7 5H12ZM7 11H12V7H7V11Z" fill="currentColor"/>
<path d="M13 2C15.0398 2 16.7217 3.52692 16.9678 5.5H19C20.6569 5.5 22 6.84315 22 8.5V15.5C22 17.1569 20.6569 18.5 19 18.5H16.9678C16.7217 20.4731 15.0398 22 13 22H6C3.79086 22 2 20.2091 2 18V6C2 3.79086 3.79086 2 6 2H13ZM6 4C4.89543 4 4 4.89543 4 6V18C4 19.1046 4.89543 20 6 20H13C14.1046 20 15 19.1046 15 18V6C15 4.89543 14.1046 4 13 4H6ZM17 16.5H19C19.5523 16.5 20 16.0523 20 15.5V8.5C20 7.94772 19.5523 7.5 19 7.5H17V16.5Z" fill="currentColor"/>
</svg>
