<svg viewBox="0 0 32 32" fill="none" xmlns="http://www.w3.org/2000/svg">
<path d="M7.99609 28.0003H6.42969C4.45726 28.0003 2.99729 26.3366 2.99707 24.5189V15.43C2.99707 13.5135 4.58777 12.0081 6.46289 12.0081H7.99609V28.0003Z" fill="currentColor"/>
<path d="M15.7383 4.53643C16.5398 3.87175 17.5916 3.7438 18.3555 3.88604C18.7788 3.96495 19.2133 4.15989 19.4766 4.28643C19.7767 4.43072 20.0406 4.57859 20.168 4.65264L20.3965 4.79424C21.5021 5.51994 22.041 6.52644 22.2295 7.50616C22.4181 8.48682 22.2498 9.38711 22.1113 9.91436C22.0142 10.2843 21.8173 11.1577 21.6289 12.0081H23.5986C24.3377 12.0081 25.2028 12.1198 26.0176 12.3812C26.8088 12.635 27.7158 13.0829 28.3447 13.8714C29.3759 15.1641 29.746 16.8576 29.3369 18.4593C29.3198 18.5264 29.2977 18.5925 29.2715 18.6565L27.124 23.9017L27.1221 23.9007C26.1038 26.543 23.2827 28.0002 20.9893 28.0003H10.9961V11.4954L14.6348 5.73077C14.6791 5.66052 14.7298 5.59447 14.7852 5.53252C14.873 5.43419 14.9352 5.35985 14.9873 5.29717C15.0298 5.24599 15.1017 5.158 15.1611 5.08916C15.3241 4.90045 15.4847 4.74695 15.7383 4.53643Z" fill="currentColor"/>
</svg>
