<svg viewBox="0 0 16 16" fill="none" xmlns="http://www.w3.org/2000/svg">
<path d="M3.74609 13.9869L2.73242 13.9879C1.87631 13.9877 1.10318 13.3662 1.00977 12.4801L1 12.2994V7.69494C1.00021 6.75214 1.76486 5.984 2.71777 5.984H3.74609V13.9869Z" fill="currentColor"/>
<path d="M7.61914 2.25158C8.01988 1.91938 8.54587 1.8553 8.92773 1.92639C9.13932 1.9658 9.3566 2.0633 9.48828 2.12658C9.63836 2.19872 9.77028 2.27314 9.83398 2.31018L10.0527 2.45275C10.5309 2.80353 10.7798 3.26521 10.8789 3.7174C10.9858 4.20611 10.9146 4.65993 10.8408 4.94104C10.7922 5.12611 10.6936 5.56079 10.5996 5.984H11.5498C11.9192 5.98405 12.3516 6.03894 12.7588 6.16955C13.1544 6.29645 13.6083 6.52146 13.9229 6.91564C14.4382 7.56189 14.6223 8.40898 14.418 9.20959C14.4105 9.2386 14.4015 9.26761 14.3906 9.29553L13.3711 11.9147C12.8684 13.2482 11.4493 13.9868 10.2969 13.9869H5.24609V5.73107L7.06738 2.84826C7.08946 2.81337 7.11507 2.78042 7.14258 2.74963C7.18649 2.70047 7.21812 2.6628 7.24414 2.63146C7.26547 2.60578 7.30153 2.56213 7.33105 2.52795C7.41245 2.43375 7.49249 2.35671 7.61914 2.25158Z" fill="currentColor"/>
</svg>
