<svg viewBox="0 0 32 32" fill="none" xmlns="http://www.w3.org/2000/svg">
<path d="M24.0041 3.99023H25.5705C27.5429 3.99025 29.0029 5.65392 29.0031 7.47168V16.5605C29.003 18.477 27.4123 19.9824 25.5373 19.9824H24.0041V3.99023Z" fill="currentColor"/>
<path d="M16.2619 27.4541C15.4603 28.1187 14.4085 28.2467 13.6447 28.1045C13.2214 28.0256 12.7869 27.8306 12.5236 27.7041C12.2234 27.5598 11.9596 27.412 11.8322 27.3379L11.6037 27.1963C10.498 26.4706 9.95917 25.4641 9.77068 24.4844C9.58209 23.5038 9.75037 22.6035 9.88884 22.0762C9.98599 21.7063 10.1829 20.8328 10.3713 19.9824H8.40154C7.66245 19.9824 6.79736 19.8707 5.98259 19.6094C5.1914 19.3555 4.28443 18.9076 3.65544 18.1191C2.62428 16.8264 2.25423 15.133 2.66326 13.5312C2.68039 13.4642 2.70247 13.398 2.72869 13.334L4.87615 8.08887L4.8781 8.08984C5.89638 5.44749 8.71749 3.99036 11.0109 3.99023H21.0041V20.4951L17.3654 26.2598C17.3211 26.3299 17.2703 26.3961 17.215 26.458C17.1272 26.5563 17.0649 26.6307 17.0129 26.6934C16.9703 26.7446 16.8984 26.8326 16.839 26.9014C16.6761 27.09 16.5154 27.2436 16.2619 27.4541Z" fill="currentColor"/>
</svg>
