<svg viewBox="0 0 24 24" fill="none" xmlns="http://www.w3.org/2000/svg">
<path d="M5.99609 20.9997H4.47461C3.24843 20.9997 2.14645 20.1113 2.01367 18.8493L2 18.5925V11.4509C2.00009 10.0853 3.13466 9.00949 4.47461 9.00949H5.99609V20.9997Z" fill="currentColor"/>
<path d="M11.8838 3.49874C12.4504 3.02889 13.1986 2.93547 13.7432 3.03683C14.0433 3.09272 14.357 3.23329 14.5537 3.32785C14.7749 3.4342 14.9698 3.54292 15.0635 3.59738C16.0275 4.15768 16.3861 4.99734 16.4336 5.78195C16.4756 6.47745 16.2676 7.14356 16.1992 7.40402C16.121 7.70189 15.9622 8.37989 15.8164 9.00949H17.6992C18.242 9.00952 18.8773 9.09136 19.4746 9.28292C20.0564 9.46954 20.7109 9.79563 21.1611 10.3601C21.9102 11.2992 22.1789 12.5291 21.8818 13.6921C21.8725 13.7285 21.861 13.7644 21.8477 13.7995L20.2607 17.9753C19.5272 19.917 17.4517 20.9997 15.7666 20.9997H7.99609V8.3757L11.1338 4.28976L11.1816 4.23214C11.2488 4.15692 11.2971 4.10037 11.3369 4.05246C11.3703 4.01221 11.4223 3.9486 11.4658 3.89816C11.5822 3.76342 11.6975 3.65342 11.8838 3.49874Z" fill="currentColor"/>
</svg>
