<svg viewBox="0 0 24 24" fill="none" xmlns="http://www.w3.org/2000/svg">
<path d="M18.0041 3H19.5256C20.7518 3 21.8538 3.88839 21.9865 5.15039L22.0002 5.40723V12.5488C22 13.9143 20.8654 14.9902 19.5256 14.9902H18.0041V3Z" fill="currentColor"/>
<path d="M12.1164 20.501C11.5498 20.9707 10.8016 21.0642 10.257 20.9629C9.95698 20.907 9.6432 20.7664 9.4465 20.6719C9.2254 20.5656 9.03043 20.4568 8.93673 20.4023C7.97281 19.8421 7.61417 19.0023 7.56662 18.2178C7.52466 17.5225 7.7325 16.8564 7.80099 16.5957C7.87921 16.2979 8.03806 15.6197 8.1838 14.9902H6.30099C5.75825 14.9902 5.12283 14.9083 4.5256 14.7168C3.94391 14.5302 3.28933 14.204 2.83908 13.6396C2.09007 12.7006 1.82147 11.4705 2.11837 10.3076C2.12765 10.2713 2.13926 10.2352 2.15255 10.2002L3.73947 6.02441C4.47298 4.08269 6.54848 3.00004 8.23361 3H16.0041V15.624L12.8664 19.71L12.8186 19.7676C12.7514 19.8427 12.7031 19.8994 12.6633 19.9473C12.6299 19.9875 12.5779 20.0512 12.5344 20.1016C12.418 20.2362 12.3027 20.3464 12.1164 20.501Z" fill="currentColor"/>
</svg>
