<svg viewBox="0 0 16 16" fill="none" xmlns="http://www.w3.org/2000/svg">
<path d="M8.37962 13.6513C8.50638 13.5469 8.58625 13.4706 8.66771 13.377C8.69398 13.3468 8.72528 13.3093 8.74688 13.2834L8.75462 13.2742C8.78068 13.243 8.81218 13.2058 8.85619 13.1569C8.88377 13.1262 8.90926 13.0937 8.93138 13.059L10.9118 9.94593H13.281C14.234 9.94593 14.9988 9.18354 14.9988 8.24739V3.67625L14.989 3.49689C14.8956 2.61717 14.1224 2.00021 13.2663 2L5.70189 2.00097C4.5495 2.00108 3.13032 2.73432 2.62767 4.05823L1.60814 6.65839C1.59724 6.68621 1.58825 6.7148 1.5808 6.74371C1.37628 7.53863 1.56053 8.37938 2.07591 9.02104C2.39046 9.41251 2.84431 9.63572 3.23998 9.76173C3.6472 9.89141 4.0795 9.94588 4.44896 9.94593H5.39915C5.30517 10.3662 5.20655 10.7976 5.15794 10.9813C5.08412 11.2604 5.0129 11.7107 5.11986 12.1961C5.2189 12.6452 5.46771 13.1033 5.94603 13.4516L6.16478 13.5932C6.22842 13.6299 6.36027 13.7037 6.51048 13.7754C6.64215 13.8382 6.85937 13.935 7.07103 13.9742C7.45296 14.0448 7.97883 13.9813 8.37962 13.6513ZM7.42845 12.4996C7.42413 12.5014 7.41629 12.5039 7.40501 12.5064C7.39225 12.5091 7.37849 12.511 7.36595 12.5112C7.35706 12.5114 7.35067 12.5108 7.34757 12.5105C7.34331 12.5093 7.32758 12.5048 7.29857 12.4937C7.25907 12.4787 7.21144 12.4582 7.1599 12.4336C7.05639 12.3842 6.96121 12.3302 6.91869 12.3057C6.6953 12.1768 6.61827 12.0251 6.58568 11.8772C6.54704 11.7016 6.56962 11.5062 6.60814 11.3604C6.66891 11.1307 6.78489 10.6219 6.88158 10.1883C6.92863 9.97728 6.97228 9.77827 7.00516 9.62838L7.00951 9.60855L7.04955 9.42629L7.06029 9.37684L7.06322 9.36327L7.06419 9.36036V9.35842C7.11182 9.1386 7.05704 8.90905 6.91478 8.73407C6.7724 8.55898 6.55747 8.4568 6.3308 8.4568L4.44896 8.45777C4.21699 8.45772 3.9409 8.42073 3.69798 8.34337C3.4436 8.26232 3.30456 8.16253 3.24876 8.09324C3.02988 7.82083 2.95263 7.47148 3.02904 7.14023L4.02806 4.59047L4.03099 4.58272C4.2763 3.93683 5.06137 3.48926 5.70189 3.48914H9.74876V8.98711L7.69017 12.2204L7.66216 12.2521C7.63908 12.2783 7.61884 12.3012 7.6013 12.3222L7.56969 12.3601C7.55343 12.3796 7.54448 12.3903 7.53294 12.4036L7.53205 12.4046C7.51976 12.4188 7.50363 12.4373 7.42845 12.4996ZM13.4851 3.61129L13.4988 3.67625V8.24739C13.4988 8.35974 13.407 8.4568 13.281 8.4568H11.2488V3.48914H13.2663C13.3443 3.48924 13.4053 3.51876 13.4441 3.55506C13.4625 3.57231 13.4761 3.59123 13.4851 3.61129Z" fill="currentColor"/>
</svg>
