<svg viewBox="0 0 24 24" fill="none" xmlns="http://www.w3.org/2000/svg">
<path d="M12.1162 20.501C11.5496 20.9709 10.8015 21.0643 10.2569 20.9629C9.95673 20.907 9.64302 20.7664 9.44633 20.6719C9.2251 20.5655 9.03019 20.4568 8.93656 20.4023C7.97249 19.842 7.61391 19.0024 7.56644 18.2178C7.52865 17.5915 7.69345 16.9892 7.77659 16.6853C7.7858 16.6516 7.794 16.6217 7.80082 16.5957C7.87905 16.2978 8.03787 15.6198 8.18363 14.9902H6.30082C5.75805 14.9902 5.12269 14.9084 4.52543 14.7168C3.94367 14.5302 3.28916 14.2041 2.83891 13.6396C2.08983 12.7005 1.82116 11.4706 2.1182 10.3076C2.12751 10.2712 2.13904 10.2353 2.15238 10.2002L3.7393 6.02441C4.47281 4.08269 6.54831 3.00004 8.23344 3H19.5254C20.7516 3 21.8536 3.88839 21.9864 5.15039L22 5.40723V12.5488C22 13.9145 20.8654 14.9902 19.5254 14.9902H16.4903L12.8662 19.71L12.8184 19.7676C12.7512 19.8428 12.7029 19.8993 12.6631 19.9473L12.6361 19.9799C12.6052 20.0174 12.5673 20.0633 12.5342 20.1016C12.4178 20.2363 12.3026 20.3463 12.1162 20.501ZM10.8399 18.9619C10.9677 18.8558 10.9966 18.8228 11.0215 18.7939C11.0407 18.7717 11.0559 18.7534 11.0838 18.7197L11.125 18.6699C11.1694 18.6165 11.2242 18.5536 11.294 18.4746L14.9961 13.6523V5H8.23344C7.22999 5.00004 5.99883 5.69947 5.60941 6.73242L5.60844 6.73535L4.04984 10.8398C3.92376 11.3799 4.0489 11.9494 4.40238 12.3926C4.50746 12.5243 4.742 12.6861 5.13578 12.8125C5.514 12.9338 5.94134 12.9902 6.30082 12.9902H9.43949C9.74347 12.9902 10.031 13.1288 10.2207 13.3662C10.4105 13.6038 10.4823 13.9154 10.4151 14.2119L10.4141 14.2129L10.4092 14.2373L10.4033 14.2625L10.3926 14.3086L10.333 14.5693L10.2935 14.7427C10.2497 14.9349 10.1973 15.1645 10.1416 15.4053C9.99609 16.0344 9.8243 16.7649 9.73539 17.1035L9.71041 17.1981C9.62067 17.537 9.54574 17.8199 9.56254 18.0977C9.57043 18.2277 9.59935 18.3229 9.64262 18.3984C9.68346 18.4696 9.76309 18.5687 9.94242 18.6729C10.008 18.711 10.1544 18.7936 10.3135 18.8701C10.3927 18.9082 10.4671 18.9405 10.5303 18.9648C10.5864 18.9864 10.6167 18.9944 10.6231 18.9961C10.6468 19.0005 10.7004 19.0031 10.7608 18.9902L10.8399 18.9619ZM19.9922 5.33594C19.9567 5.16822 19.7973 5 19.5254 5H16.9961V12.9902H19.5254C19.8039 12.9902 20 12.7673 20 12.5488V5.40723L19.9922 5.33594Z" fill="currentColor"/>
</svg>
