<svg viewBox="0 0 16 16" fill="none" xmlns="http://www.w3.org/2000/svg">
<path d="M12.2536 2.00098L13.2673 2C14.1234 2.00021 14.8966 2.62168 14.99 3.50781L14.9997 3.68848V8.29297C14.9997 9.23594 14.235 10.0039 13.282 10.0039H12.2536V2.00098Z" fill="currentColor"/>
<path d="M8.3806 13.7363C7.97981 14.0687 7.45393 14.1326 7.072 14.0615C6.86034 14.0221 6.64313 13.9246 6.51146 13.8613C6.36125 13.7891 6.2294 13.7147 6.16575 13.6777L5.947 13.5352C5.46869 13.1843 5.21987 12.7228 5.12083 12.2705C5.01387 11.7816 5.08509 11.3279 5.15892 11.0469C5.20752 10.8617 5.30614 10.4272 5.40013 10.0039H4.44993C4.08047 10.0039 3.64818 9.94899 3.24095 9.81836C2.84528 9.69144 2.39144 9.46659 2.07689 9.07227C1.56151 8.42593 1.37726 7.57903 1.58177 6.77832C1.58923 6.7492 1.59822 6.7204 1.60911 6.69238L2.62864 4.07324C3.13129 2.73968 4.55047 2.00109 5.70286 2.00098H10.7536V10.2568L8.93236 13.1396C8.91024 13.1746 8.88474 13.2074 8.85716 13.2383C8.81316 13.2875 8.78166 13.3251 8.7556 13.3564C8.73429 13.3821 8.69829 13.4257 8.66868 13.46C8.58722 13.5543 8.50735 13.6311 8.3806 13.7363Z" fill="currentColor"/>
</svg>
