<svg viewBox="0 0 16 16" fill="none" xmlns="http://www.w3.org/2000/svg">
<path d="M7.61914 2.25161C7.49239 2.35682 7.41252 2.43369 7.33105 2.52798C7.30145 2.56226 7.26544 2.60584 7.24414 2.6315C7.21808 2.66288 7.18659 2.7004 7.14258 2.74966C7.11499 2.78054 7.0895 2.8133 7.06738 2.84829L5.08691 5.98404H2.71777C1.76473 5.98404 1 6.75199 1 7.69497V12.2995L1.00977 12.4801C1.10318 13.3663 1.87631 13.9877 2.73242 13.9879L10.2969 13.987C11.4493 13.9869 12.8684 13.2483 13.3711 11.9147L14.3906 9.29556C14.4015 9.26754 14.4105 9.23875 14.418 9.20962C14.6225 8.40891 14.4382 7.56202 13.9229 6.91568C13.6083 6.52135 13.1545 6.29651 12.7588 6.16958C12.3516 6.03895 11.9193 5.98409 11.5498 5.98404H10.5996C10.6936 5.56071 10.7922 5.1262 10.8408 4.94107C10.9146 4.66 10.9859 4.20635 10.8789 3.71744C10.7799 3.26512 10.5311 2.80366 10.0527 2.45279L9.83398 2.31021C9.77034 2.2732 9.63849 2.19882 9.48828 2.12661C9.35661 2.06333 9.1394 1.96585 8.92773 1.92642C8.5458 1.8553 8.01993 1.91926 7.61914 2.25161ZM8.57031 3.41177C8.57463 3.40995 8.58248 3.40736 8.59375 3.40494C8.60651 3.40221 8.62027 3.4003 8.63281 3.40005C8.6417 3.39989 8.64809 3.40042 8.6512 3.40076C8.64904 3.40015 8.64983 3.40038 8.65332 3.40103L8.6512 3.40076C8.65546 3.40198 8.67118 3.40649 8.7002 3.41763C8.73969 3.4328 8.78733 3.4534 8.83887 3.47818C8.94238 3.52793 9.03756 3.58236 9.08008 3.60708C9.30346 3.73685 9.38049 3.88974 9.41309 4.03872C9.45172 4.21553 9.42914 4.41239 9.39062 4.55923C9.32985 4.79059 9.21387 5.30316 9.11719 5.7399C9.07014 5.95241 9.0265 6.15282 8.99363 6.30378L8.98926 6.32388L8.94922 6.50747L8.93848 6.55728L8.93555 6.57095L8.93457 6.57388V6.57583C8.88694 6.79726 8.94172 7.02849 9.08398 7.20474C9.22637 7.38111 9.4413 7.48404 9.66797 7.48404L11.5498 7.48306C11.7818 7.48311 12.0579 7.52037 12.3008 7.59829C12.5552 7.67994 12.6942 7.78045 12.75 7.85025C12.9689 8.12465 13.0461 8.47654 12.9697 8.81021L11.9707 11.3786L11.9678 11.3864C11.7225 12.037 10.9374 12.4878 10.2969 12.4879H6.25V6.94986L8.30859 3.69302C8.34366 3.65279 8.37315 3.61975 8.39746 3.59048C8.43693 3.54296 8.44843 3.52858 8.46582 3.50845L8.46671 3.50742C8.479 3.49318 8.49513 3.47448 8.57031 3.41177ZM2.51367 12.3649L2.5 12.2995V7.69497C2.5 7.5818 2.59178 7.48404 2.71777 7.48404H4.75V12.4879H2.73242C2.65446 12.4878 2.59351 12.4581 2.55469 12.4215C2.5363 12.4042 2.52263 12.3851 2.51367 12.3649Z" fill="currentColor"/>
</svg>
