<svg viewBox="0 0 32 32" fill="none" xmlns="http://www.w3.org/2000/svg">
<path d="M16.2618 27.4639C16.5154 27.2533 16.676 27.0998 16.839 26.9111C16.8984 26.8423 16.9703 26.7543 17.0128 26.7031C17.0648 26.6404 17.1271 26.5661 17.2149 26.4678C17.2703 26.4058 17.321 26.3398 17.3653 26.2695L21.3272 19.9922H25.5372C27.4123 19.9922 29.003 18.4868 29.003 16.5703V7.48145C29.0029 5.66368 27.5429 3.99415 25.5704 3.99414H11.0108C8.71739 3.99422 5.89632 5.45721 4.87802 8.09961L4.87607 8.09863L2.72861 13.3438C2.70235 13.4079 2.68033 13.4739 2.66318 13.541C2.25407 15.1428 2.62416 16.8361 3.65537 18.1289C4.28437 18.9174 5.19129 19.3653 5.98251 19.6191C6.79733 19.8805 7.66234 19.9922 8.40146 19.9922H10.3712C10.1828 20.8427 9.98592 21.716 9.88876 22.0859C9.75028 22.6132 9.58198 23.5134 9.7706 24.4941C9.95906 25.4739 10.4979 26.4804 11.6036 27.2061L11.8321 27.3477C11.9595 27.4217 12.2233 27.5696 12.5235 27.7139C12.7868 27.8404 13.2213 28.0354 13.6446 28.1143C14.4085 28.2565 15.4602 28.1286 16.2618 27.4639ZM14.3614 25.1436C14.3532 25.1472 14.3367 25.153 14.3126 25.1582C14.2869 25.1637 14.2587 25.1665 14.2335 25.167C14.2172 25.1673 14.2057 25.1664 14.1995 25.1657C14.2023 25.1666 14.2005 25.1662 14.1944 25.165C14.1944 25.165 14.1967 25.1654 14.1995 25.1657C14.1928 25.1636 14.1609 25.1544 14.0997 25.1309C14.0208 25.1005 13.9263 25.0592 13.8233 25.0098C13.6163 24.9103 13.425 24.8034 13.3399 24.7539L13.1905 24.6572C12.8746 24.43 12.7641 24.1784 12.7159 23.9277C12.6484 23.5766 12.7038 23.1764 12.7901 22.8477C12.9118 22.3843 13.1428 21.3575 13.336 20.4824C13.4344 20.0369 13.5262 19.6184 13.5929 19.3115C13.6261 19.1583 13.6531 19.0327 13.672 18.9453C13.6814 18.9016 13.6884 18.867 13.6935 18.8438L13.6993 18.8174C13.7 18.8144 13.7013 18.8105 13.7013 18.8105V18.8076C13.7964 18.3647 13.6862 17.9023 13.4015 17.5498C13.1168 17.1976 12.6883 16.9923 12.2354 16.9922H8.40146C7.93742 16.9922 7.38562 16.9186 6.89951 16.7627C6.39008 16.5993 6.11158 16.3984 6.00009 16.2588C5.56875 15.718 5.41029 15.0267 5.55185 14.3682L7.65244 9.23535L7.66806 9.19629C8.1586 7.89481 9.72972 6.99423 11.0108 6.99414H19.0001V18.0596L14.8878 24.5752C14.8151 24.6585 14.7541 24.7271 14.7042 24.7871C14.6255 24.8818 14.6032 24.91 14.5685 24.9502C14.5437 24.9789 14.5145 25.0158 14.3614 25.1436ZM25.8565 7.12793C25.9513 7.22743 26.0029 7.35794 26.003 7.48145V16.5703C26.003 16.7661 25.8201 16.9922 25.5372 16.9922H22.0001V6.99414H25.5704C25.664 6.99415 25.7655 7.03254 25.8565 7.12793Z" fill="currentColor"/>
</svg>
