<svg viewBox="0 0 24 24" fill="none" xmlns="http://www.w3.org/2000/svg">
<path d="M11.8838 3.49875C11.6974 3.65344 11.5822 3.76341 11.4658 3.89816C11.4222 3.94862 11.3703 4.01222 11.3369 4.05246C11.2971 4.10039 11.2489 4.15691 11.1816 4.23215L11.1338 4.28976L7.50977 9.00949H4.47461C3.13465 9.00949 2.00006 10.0852 2 11.4509V18.5925L2.01367 18.8493C2.14645 20.1113 3.24843 20.9997 4.47461 20.9997H15.7666C17.4517 20.9997 19.5272 19.917 20.2607 17.9753L21.8477 13.7995C21.861 13.7644 21.8725 13.7285 21.8818 13.6921C22.1789 12.5291 21.9102 11.2993 21.1611 10.3601C20.7109 9.79562 20.0564 9.46955 19.4746 9.28293C18.8773 9.09136 18.242 9.00952 17.6992 9.00949H15.8164C15.9622 8.37988 16.121 7.7019 16.1992 7.40402C16.2676 7.1436 16.4756 6.4775 16.4336 5.78195C16.3861 4.99733 16.0276 4.1577 15.0635 3.59738C14.9698 3.54293 14.7749 3.43422 14.5537 3.32785C14.357 3.2333 14.0433 3.09272 13.7432 3.03684C13.1985 2.93547 12.4504 3.02887 11.8838 3.49875ZM13.1602 5.03781L13.2393 5.00949C13.2996 4.9966 13.3533 4.99926 13.377 5.00363C13.3833 5.00531 13.4136 5.01334 13.4697 5.03488C13.533 5.05918 13.6074 5.09157 13.6865 5.12961C13.8457 5.20611 13.9921 5.28876 14.0576 5.32687C14.2369 5.43105 14.3166 5.53012 14.3574 5.60129C14.4007 5.6768 14.4296 5.77207 14.4375 5.90207C14.4558 6.20526 14.3649 6.51467 14.2646 6.89621C14.1757 7.23479 14.0039 7.96536 13.8584 8.59445C13.7847 8.91292 13.7169 9.21188 13.667 9.43039L13.6074 9.69113C13.6004 9.72194 13.5946 9.74594 13.5908 9.76242L13.5859 9.78684L13.585 9.78781C13.5177 10.0844 13.5895 10.3959 13.7793 10.6335C13.9691 10.871 14.2566 11.0095 14.5605 11.0095H17.6992C18.0587 11.0095 18.486 11.0659 18.8643 11.1872C19.258 11.3136 19.4926 11.4754 19.5977 11.6071C19.9511 12.0504 20.0763 12.6199 19.9502 13.1599L18.3916 17.2644L18.3906 17.2673C18.0012 18.3003 16.7701 18.9997 15.7666 18.9997H9.00391V10.3474L12.7061 5.52512C12.7759 5.44608 12.8306 5.38321 12.875 5.3298C12.9325 5.26057 12.9515 5.23702 12.9785 5.20578C13.0034 5.17697 13.0324 5.14389 13.1602 5.03781ZM4.00781 18.6638L4 18.5925V11.4509C4.00006 11.2324 4.19614 11.0095 4.47461 11.0095H7.00391V18.9997H4.47461C4.20272 18.9997 4.04335 18.8315 4.00781 18.6638Z" fill="currentColor"/>
</svg>
