<svg viewBox="0 0 32 32" fill="none" xmlns="http://www.w3.org/2000/svg">
<path d="M15.7383 4.53643C15.4847 4.74695 15.3241 4.90045 15.1611 5.08917C15.1017 5.158 15.0298 5.24599 14.9873 5.29717C14.9352 5.35986 14.873 5.43419 14.7852 5.53253C14.7298 5.59448 14.6791 5.66052 14.6348 5.73077L10.6729 12.0081H6.46289C4.58777 12.0081 2.99707 13.5135 2.99707 15.43V24.5189C2.99724 26.3366 4.45722 28 6.42969 28H20.9893C23.2827 27.9999 26.1038 26.5431 27.1221 23.9007L27.124 23.9017L29.2715 18.6565C29.2977 18.5924 29.3198 18.5264 29.3369 18.4593C29.746 16.8575 29.3759 15.1642 28.3447 13.8714C27.7157 13.0829 26.8088 12.635 26.0176 12.3812C25.2028 12.1198 24.3378 12.0081 23.5986 12.0081H21.6289C21.8173 11.1576 22.0142 10.2843 22.1113 9.91436C22.2498 9.38709 22.4181 8.48687 22.2295 7.50616C22.041 6.5264 21.5022 5.51995 20.3965 4.79424L20.168 4.65264C20.0406 4.57858 19.7768 4.43075 19.4766 4.28643C19.2133 4.15988 18.7788 3.96494 18.3555 3.88604C17.5916 3.74381 16.5399 3.87174 15.7383 4.53643ZM17.6387 6.85674C17.6469 6.85313 17.6634 6.84727 17.6875 6.8421C17.7132 6.8366 17.7414 6.83376 17.7666 6.83331C17.7828 6.83304 17.7944 6.83393 17.8006 6.83461C17.7978 6.83373 17.7996 6.83413 17.8057 6.83526C17.8057 6.83526 17.8033 6.83491 17.8006 6.83461C17.8072 6.83669 17.8391 6.84589 17.9004 6.86944C17.9793 6.89975 18.0738 6.94106 18.1768 6.99053C18.3838 7.09005 18.5751 7.19694 18.6602 7.24639L18.8096 7.34307C19.1255 7.57025 19.2359 7.82191 19.2842 8.07257C19.3517 8.42367 19.2963 8.82389 19.21 9.15264C19.0883 9.616 18.8573 10.6428 18.6641 11.5179C18.5657 11.9634 18.4739 12.3819 18.4072 12.6888C18.3739 12.842 18.347 12.9676 18.3281 13.055C18.3187 13.0987 18.3117 13.1333 18.3066 13.1565L18.3008 13.1829C18.3001 13.1859 18.2988 13.1898 18.2988 13.1898V13.1927C18.2037 13.6356 18.3139 14.098 18.5986 14.4505C18.8833 14.8027 19.3118 15.008 19.7646 15.0081H23.5986C24.0627 15.0081 24.6145 15.0817 25.1006 15.2376C25.61 15.401 25.8885 15.6019 26 15.7415C26.4313 16.2823 26.5898 16.9736 26.4482 17.6321L24.3477 22.7649L24.332 22.804C23.8415 24.1055 22.2704 24.9999 20.9893 25H13V13.9407L17.1123 7.4251C17.185 7.34182 17.246 7.27325 17.2959 7.21319C17.3746 7.11846 17.3969 7.09032 17.4316 7.0501C17.4564 7.0214 17.4856 6.98448 17.6387 6.85674ZM6.14355 24.8724C6.04878 24.7729 5.99716 24.6424 5.99707 24.5189V15.43C5.99707 15.2342 6.17999 15.0081 6.46289 15.0081H10V25H6.42969C6.33609 25 6.2346 24.9678 6.14355 24.8724Z" fill="currentColor"/>
</svg>
