<svg viewBox="0 0 32 32" fill="none" xmlns="http://www.w3.org/2000/svg">
<path d="M13.111 4.25H18.8888C19.1319 4.25 19.3651 4.34658 19.537 4.51849C19.7089 4.69039 19.8054 4.92355 19.8054 5.16667V6.80556H12.1943V5.16667C12.1943 4.92355 12.2909 4.69039 12.4628 4.51849C12.6347 4.34658 12.8679 4.25 13.111 4.25ZM22.3054 6.80556V5.16667C22.3054 4.26051 21.9455 3.39147 21.3047 2.75072C20.664 2.10997 19.7949 1.75 18.8888 1.75H13.111C12.2048 1.75 11.3358 2.10997 10.6951 2.75072C10.0543 3.39147 9.69434 4.26051 9.69434 5.16667V6.80556H4.44434C3.75398 6.80556 3.19434 7.3652 3.19434 8.05556C3.19434 8.74591 3.75398 9.30556 4.44434 9.30556H5.361V26.1111C5.361 27.2088 5.79706 28.2616 6.57325 29.0377C7.34945 29.8139 8.40219 30.25 9.49989 30.25H22.4999C23.5976 30.25 24.6503 29.8139 25.4265 29.0377C26.2027 28.2616 26.6388 27.2088 26.6388 26.1111V9.30556H27.5554C28.2458 9.30556 28.8054 8.74591 28.8054 8.05556C28.8054 7.3652 28.2458 6.80556 27.5554 6.80556H22.3054ZM24.1388 9.30556V26.1111C24.1388 26.5458 23.9661 26.9626 23.6588 27.27C23.3514 27.5773 22.9346 27.75 22.4999 27.75H9.49989C9.06523 27.75 8.64837 27.5773 8.34102 27.27C8.03367 26.9626 7.861 26.5458 7.861 26.1111V9.30556H24.1388Z" fill="currentColor"/>
</svg>
