<svg viewBox="0 0 16 16" fill="none" xmlns="http://www.w3.org/2000/svg">
<path d="M6.75 3.25H9.25C9.3051 3.25 9.35464 3.27156 9.38858 3.30474C9.42194 3.33736 9.4375 3.37797 9.4375 3.41667V3.88889H6.5625V3.41667C6.5625 3.37797 6.57806 3.33736 6.61143 3.30474C6.64536 3.27156 6.6949 3.25 6.75 3.25ZM10.9375 3.88889V3.41667C10.9375 2.96913 10.7555 2.54343 10.4373 2.23223C10.1196 1.92159 9.69218 1.75 9.25 1.75H6.75C6.30782 1.75 5.88045 1.92159 5.56275 2.23223C5.24448 2.54343 5.0625 2.96913 5.0625 3.41667V3.88889H3C2.58579 3.88889 2.25 4.22468 2.25 4.63889C2.25 5.0531 2.58579 5.38889 3 5.38889H3.1875V12.2778C3.1875 12.8064 3.4024 13.3098 3.77928 13.6783C4.15558 14.0462 4.66244 14.25 5.1875 14.25H10.8125C11.3376 14.25 11.8444 14.0462 12.2207 13.6783C12.5976 13.3098 12.8125 12.8064 12.8125 12.2778V5.38889H13C13.4142 5.38889 13.75 5.0531 13.75 4.63889C13.75 4.22468 13.4142 3.88889 13 3.88889H10.9375ZM11.3125 5.38889V12.2778C11.3125 12.3975 11.264 12.5158 11.172 12.6058C11.0795 12.6962 10.9505 12.75 10.8125 12.75H5.1875C5.04952 12.75 4.92049 12.6962 4.82795 12.6058C4.73599 12.5158 4.6875 12.3975 4.6875 12.2778V5.38889H11.3125Z" fill="currentColor"/>
</svg>
