<svg viewBox="0 0 24 24" fill="none" xmlns="http://www.w3.org/2000/svg">
<path d="M10 4H14C14.1326 4 14.2598 4.05268 14.3536 4.14645C14.4473 4.24021 14.5 4.36739 14.5 4.5V5.5H9.5V4.5C9.5 4.36739 9.55268 4.24021 9.64645 4.14645C9.74021 4.05268 9.86739 4 10 4ZM16.5 5.5V4.5C16.5 3.83696 16.2366 3.20107 15.7678 2.73223C15.2989 2.26339 14.663 2 14 2H10C9.33696 2 8.70107 2.26339 8.23223 2.73223C7.76339 3.20107 7.5 3.83696 7.5 4.5V5.5H4C3.44772 5.5 3 5.94772 3 6.5C3 7.05228 3.44772 7.5 4 7.5H4.5V19C4.5 19.7957 4.81607 20.5587 5.37868 21.1213C5.94129 21.6839 6.70435 22 7.5 22H16.5C17.2956 22 18.0587 21.6839 18.6213 21.1213C19.1839 20.5587 19.5 19.7957 19.5 19V7.5H20C20.5523 7.5 21 7.05228 21 6.5C21 5.94772 20.5523 5.5 20 5.5H16.5ZM17.5 7.5V19C17.5 19.2652 17.3946 19.5196 17.2071 19.7071C17.0196 19.8946 16.7652 20 16.5 20H7.5C7.23478 20 6.98043 19.8946 6.79289 19.7071C6.60536 19.5196 6.5 19.2652 6.5 19V7.5H17.5Z" fill="currentColor"/>
</svg>
