<svg viewBox="0 0 16 16" fill="none" xmlns="http://www.w3.org/2000/svg">
<path d="M8 12.25C9.68364 12.25 11.4027 12.4763 12.75 12.9531C13.1405 13.0913 13.3452 13.5197 13.207 13.9102C13.0689 14.3005 12.6404 14.5052 12.25 14.3672C11.1119 13.9643 9.57351 13.75 8 13.75C6.42639 13.75 4.88784 13.9643 3.75 14.3672C3.35963 14.5052 2.93117 14.3005 2.79297 13.9102C2.65478 13.5197 2.85956 13.0914 3.25 12.9531C4.59705 12.4762 6.31632 12.25 8 12.25ZM13.5 3.66211C13.5 3.51029 13.3352 3.25 12.9521 3.25H3.04785C2.66481 3.25 2.5 3.51029 2.5 3.66211V9.33789C2.5 9.48971 2.66481 9.75 3.04785 9.75H12.9531C13.3357 9.74986 13.4999 9.48986 13.5 9.33984V3.66211ZM15 9.33789L14.9883 9.5459C14.8758 10.5648 13.9371 11.2499 12.9531 11.25H3.04785C1.9968 11.25 1 10.4699 1 9.33789V3.66211C1 2.53007 1.9968 1.75 3.04785 1.75H12.9521C14.0032 1.75 15 2.53007 15 3.66211V9.33789Z" fill="currentColor"/>
</svg>
