<svg viewBox="0 0 24 24" fill="none" xmlns="http://www.w3.org/2000/svg">
<path d="M12 18C14.6047 18 17.2564 18.3411 19.3262 19.0547C19.8481 19.2348 20.1253 19.8041 19.9453 20.3262C19.7652 20.8481 19.1958 21.1253 18.6738 20.9453C16.8774 20.326 14.4619 20 12 20C9.53788 20 7.12215 20.326 5.32617 20.9453C4.80415 21.1253 4.23484 20.8481 4.05469 20.3262C3.87466 19.8041 4.15185 19.2348 4.67383 19.0547C6.74328 18.341 9.39515 18 12 18ZM20 5.74316C20 5.39719 19.6781 5 19.1309 5H4.86914C4.32195 5 4 5.39719 4 5.74316V14.2568L4.01465 14.3887C4.08377 14.6963 4.39042 15 4.86914 15H19.1318C19.679 15 20.0003 14.6023 20 14.2588V5.74316ZM22 14.2568L21.9961 14.4043C21.9165 15.9093 20.6004 17 19.1318 17H4.86914C3.39874 17 2.0847 15.9087 2.00391 14.4043L2 14.2568V5.74316C2 4.16335 3.35124 3 4.86914 3H19.1309C20.6488 3 22 4.16335 22 5.74316V14.2568Z" fill="currentColor"/>
</svg>
