<svg viewBox="0 0 32 32" fill="none" xmlns="http://www.w3.org/2000/svg">
<path d="M16 23.583C19.3686 23.5831 22.8087 24.0399 25.5049 25.0039C26.2849 25.2828 26.6909 26.1409 26.4121 26.9209C26.1332 27.7009 25.2751 28.1078 24.4951 27.8291C22.2204 27.0158 19.1458 26.5831 16 26.583C12.854 26.583 9.77897 27.0149 7.50488 27.8281C6.72485 28.107 5.86685 27.7009 5.58789 26.9209C5.3091 26.1409 5.71515 25.2828 6.49512 25.0039C9.19086 24.0399 12.6313 23.583 16 23.583ZM26 7.76172C26 7.51323 25.7356 7.08315 25.1123 7.08301H6.8877C6.26437 7.08315 6 7.51323 6 7.76172V18.4043C6 18.6528 6.26437 19.0829 6.8877 19.083H25.1133C25.7369 19.083 26.0002 18.6522 26 18.4072V7.76172ZM29 18.4043L28.9951 18.6045C28.8852 20.6575 27.063 22.083 25.1133 22.083H6.8877C4.87262 22.0829 3 20.5629 3 18.4043V7.76172C3 5.60313 4.87262 4.08316 6.8877 4.08301H25.1123C27.1274 4.08316 29 5.60313 29 7.76172V18.4043Z" fill="currentColor"/>
</svg>
