<svg viewBox="0 0 16 16" fill="none" xmlns="http://www.w3.org/2000/svg">
<path d="M10.5822 4.38088C10.7713 4.0116 11.2235 3.86565 11.592 4.05497C14.8022 5.70545 14.8022 10.2565 11.592 11.907C11.2235 12.0961 10.7712 11.9503 10.5822 11.5811C10.3932 11.2118 10.539 10.7586 10.9074 10.5691C13.0305 9.47754 13.0305 6.48441 10.9074 5.39284C10.539 5.20343 10.3935 4.75015 10.5822 4.38088ZM4.36641 6.57313C3.20786 7.18089 3.20786 8.81824 4.36641 9.426L7.99726 11.3305V4.66861L4.36641 6.57313ZM9.49726 11.7533C9.49717 12.7011 8.4897 13.2867 7.66914 12.8563L3.67012 10.758C1.43958 9.5875 1.43952 6.41157 3.67012 5.24114L7.66914 3.14382C8.48963 2.71339 9.497 3.29819 9.49726 4.24582V11.7533Z" fill="currentColor"/>
</svg>
