<svg viewBox="0 0 32 32" fill="none" xmlns="http://www.w3.org/2000/svg">
<path d="M8.80138 12.6143C7.64457 13.2932 7.00125 14.592 7.00125 16C7.00125 17.408 7.64457 18.7068 8.80138 19.3858L15.998 23.6084V8.39063L8.80138 12.6143ZM25.4429 12.9395C26.0285 12.3538 26.9777 12.3537 27.5632 12.9395C28.1487 13.5252 28.1486 14.4748 27.5632 15.0606L26.6241 16L27.5632 16.9395C28.1487 17.5252 28.1486 18.4748 27.5632 19.0606C26.9777 19.6463 26.0285 19.6463 25.4429 19.0606L24.5038 18.1211L23.5647 19.0606C22.9791 19.6463 22.0299 19.6463 21.4443 19.0606C20.8587 18.4748 20.8587 17.5252 21.4443 16.9395L22.3834 16L21.4443 15.0606C20.8587 14.4748 20.8587 13.5252 21.4443 12.9395C22.0299 12.3538 22.9791 12.3537 23.5647 12.9395L24.5038 13.8789L25.4429 12.9395ZM18.997 24.3936C18.997 25.3009 18.555 26.1138 17.8499 26.5859C17.1307 27.0675 16.1477 27.1734 15.2795 26.6641L7.28435 21.9736C5.05295 20.6643 4.00232 18.2774 4.00232 16C4.00232 13.7226 5.05295 11.3357 7.28435 10.0264L15.2795 5.33595L15.4435 5.24708C16.2695 4.84093 17.1757 4.96268 17.8499 5.41407C18.555 5.8862 18.997 6.69908 18.997 7.60645V24.3936Z" fill="currentColor"/>
</svg>
