<svg viewBox="0 0 24 24" fill="none" xmlns="http://www.w3.org/2000/svg">
<path d="M16.1152 6.54266C16.3724 6.05459 16.9771 5.86652 17.4658 6.12333C22.1782 8.59945 22.1783 15.4013 17.4658 17.8773C16.9771 18.1341 16.3724 17.9461 16.1152 17.458C15.8581 16.97 16.0455 16.3661 16.5342 16.1093C19.8217 14.3819 19.8217 9.61875 16.5342 7.89135C16.0455 7.63459 15.8583 7.03069 16.1152 6.54266ZM6.40625 9.42339C4.53178 10.5018 4.53178 13.4988 6.40625 14.5773L12 17.7954V6.20427L6.40625 9.42339ZM14 18.1748C14 19.399 12.6994 20.503 11.4053 19.7585L5.40723 16.3083C2.19739 14.4615 2.19746 9.53924 5.40723 7.69242L11.4053 4.2412L11.5273 4.17684C12.7799 3.56638 13.9997 4.63924 14 5.82492V18.1748Z" fill="currentColor"/>
</svg>
