<svg viewBox="0 0 16 16" fill="none" xmlns="http://www.w3.org/2000/svg">
<path d="M4.36527 6.57313C3.20728 7.18089 3.20728 8.81824 4.36527 9.426L7.99438 11.3305V4.66861L4.36527 6.57313ZM12.7177 6.44688C13.0105 6.15358 13.4851 6.15345 13.7777 6.44688C14.0704 6.74034 14.0703 7.21619 13.7777 7.50973L13.3082 7.98048L13.7777 8.45123C14.0704 8.74469 14.0703 9.22053 13.7777 9.51408C13.485 9.80761 13.0105 9.80761 12.7177 9.51408L12.2482 9.04333L11.7787 9.51408C11.4859 9.80761 11.0114 9.80761 10.7187 9.51408C10.4259 9.22055 10.4259 8.74475 10.7187 8.45123L11.1882 7.98048L10.7187 7.50973C10.4259 7.2162 10.4259 6.7404 10.7187 6.44688C11.0114 6.15358 11.486 6.15345 11.7787 6.44688L12.2482 6.91763L12.7177 6.44688ZM9.49366 11.7533C9.49357 12.7011 8.48658 13.2867 7.66642 12.8563L3.66931 10.758C1.43985 9.5875 1.43979 6.41157 3.66931 5.24114L7.66642 3.14382C8.48652 2.71339 9.4934 3.29819 9.49366 4.24582V11.7533Z" fill="currentColor"/>
</svg>
