<svg viewBox="0 0 32 32" fill="none" xmlns="http://www.w3.org/2000/svg">
<path d="M21.1669 8.81544C21.545 8.0784 22.4491 7.78692 23.186 8.16505C29.6047 11.4588 29.6046 20.5411 23.186 23.835C22.449 24.2131 21.545 23.9217 21.1669 23.1846C20.789 22.4475 21.0794 21.5432 21.8162 21.165C26.0614 18.9867 26.0614 13.0134 21.8162 10.835C21.0794 10.4568 20.7889 9.55246 21.1669 8.81544ZM8.79966 12.6143C7.6427 13.2932 6.9993 14.592 6.9993 16C6.9993 17.408 7.6427 18.7068 8.79966 19.3858L15.9972 23.6084V8.39063L8.79966 12.6143ZM18.9965 24.3936C18.9965 25.3009 18.5545 26.1138 17.8493 26.5859C17.13 27.0675 16.1469 27.1734 15.2786 26.6641L7.28244 21.9736C5.05076 20.6643 4 18.2774 4 16C4 13.7226 5.05076 11.3357 7.28244 10.0264L15.2786 5.33595L15.4426 5.24708C16.2687 4.84093 17.175 4.96268 17.8493 5.41407C18.5545 5.88619 18.9965 6.69908 18.9965 7.60645V24.3936Z" fill="currentColor"/>
</svg>
