<svg viewBox="0 0 24 24" fill="none" xmlns="http://www.w3.org/2000/svg">
<path d="M6.40625 9.42339C4.53178 10.5018 4.53178 13.4988 6.40625 14.5773L12 17.7954V6.20427L6.40625 9.42339ZM19.292 9.29661C19.6825 8.90696 20.3156 8.9068 20.7061 9.29661C21.0965 9.68649 21.0963 10.3187 20.7061 10.7087L19.9131 11.5005L20.7061 12.2924C21.0965 12.6823 21.0963 13.3145 20.7061 13.7045C20.3155 14.0945 19.6825 14.0945 19.292 13.7045L18.499 12.9126L17.7061 13.7045C17.3155 14.0945 16.6825 14.0945 16.292 13.7045C15.9015 13.3145 15.9015 12.6824 16.292 12.2924L17.085 11.5005L16.292 10.7087C15.9015 10.3187 15.9015 9.68657 16.292 9.29661C16.6825 8.90696 17.3156 8.9068 17.7061 9.29661L18.499 10.0885L19.292 9.29661ZM14 18.1748C14 19.399 12.6994 20.503 11.4053 19.7585L5.40723 16.3083C2.19739 14.4615 2.19746 9.53924 5.40723 7.69242L11.4053 4.2412L11.5273 4.17684C12.7799 3.56638 13.9997 4.63924 14 5.82492V18.1748Z" fill="currentColor"/>
</svg>
