<svg viewBox="0 0 24 24" fill="none" xmlns="http://www.w3.org/2000/svg">
<path d="M17.5 1.25C18.2432 1.25 18.8587 1.7906 18.9775 2.5H20C20.5523 2.5 21 2.94772 21 3.5C21 4.05228 20.5523 4.5 20 4.5H19V5.5H20C20.5523 5.5 21 5.94772 21 6.5C21 7.05228 20.5523 7.5 20 7.5H18.9775C18.8584 8.20929 18.2432 8.75 17.5 8.75H16.25L16.083 8.74609C14.5337 8.66768 13.2714 7.50383 13.0391 6H12C8.13401 6 5 9.13401 5 13C5 16.866 8.13401 20 12 20C13.8565 20 15.6374 19.2629 16.9502 17.9502C18.2629 16.6374 19 14.8565 19 13C19 12.4477 19.4477 12 20 12C20.5523 12 21 12.4477 21 13C21 15.3869 20.0521 17.6764 18.3643 19.3643C16.6764 21.0521 14.3869 22 12 22C7.02944 22 3 17.9706 3 13C3 8.02944 7.02944 4 12 4H13.0381C13.2786 2.44244 14.6251 1.25 16.25 1.25H17.5ZM16.25 3.25C15.5596 3.25 15 3.80964 15 4.5V5.5L15.0068 5.62793C15.0709 6.25817 15.6028 6.75 16.25 6.75H17V3.25H16.25Z" fill="currentColor"/>
<path d="M12 8.5C12.5746 8.5 13.1213 8.74747 13.501 9.17871L15.0088 10.8906L15.1289 11.0342C16.2899 12.4832 16.2899 14.548 15.1289 15.9971L15.0088 16.1406C14.2476 17.0048 13.1516 17.5 12 17.5C10.9202 17.5 9.88953 17.0645 9.1377 16.2979L8.99121 16.1406C7.67001 14.6402 7.67001 12.391 8.99121 10.8906L10.499 9.17871L10.6484 9.02539C11.0153 8.68906 11.4971 8.5 12 8.5ZM10.4922 12.2129C9.83632 12.9577 9.83632 14.0735 10.4922 14.8184L10.6426 14.9727C11.0112 15.3103 11.495 15.5 12 15.5C12.5772 15.5 13.1263 15.2516 13.5078 14.8184L13.623 14.6748C14.1254 13.9849 14.1254 13.0463 13.623 12.3564L13.5078 12.2129L12 10.5L10.4922 12.2129Z" fill="currentColor"/>
</svg>
