<svg viewBox="0 0 16 16" fill="none" xmlns="http://www.w3.org/2000/svg">
<path d="M8.03795 1.92C8.0671 1.92146 8.09602 1.92395 8.12486 1.92879C8.14296 1.93183 8.1607 1.93614 8.17858 1.94051C8.20529 1.94704 8.23167 1.95445 8.25768 1.96395C8.27698 1.971 8.29554 1.97967 8.31432 1.98836C8.33817 1.9994 8.36181 2.01081 8.38463 2.0245C8.4151 2.04275 8.44533 2.06208 8.4735 2.08504L8.53014 2.1368L11.6542 5.26082L11.8378 5.45321C13.6708 7.48196 13.6091 10.6147 11.6542 12.5704C9.6357 14.5892 6.36314 14.5881 4.34459 12.5704C2.32552 10.552 2.32692 7.2795 4.34459 5.26082L7.46959 2.1368C7.52029 2.08613 7.57785 2.04591 7.63756 2.01278C7.66154 1.99947 7.68482 1.98517 7.70983 1.97469C7.72658 1.96767 7.74445 1.96384 7.76158 1.95809C7.78871 1.94898 7.8158 1.94058 7.84361 1.93465C7.86396 1.93032 7.88456 1.92849 7.90514 1.92586C7.93087 1.92257 7.95639 1.91867 7.98229 1.91805C8.00088 1.91761 8.01937 1.91907 8.03795 1.92ZM5.40318 6.3243C5.40122 6.32626 5.39833 6.32725 5.39635 6.32918C3.9724 7.76307 3.97562 10.0795 5.40514 11.5089C6.83839 12.9415 9.16138 12.9424 10.5936 11.5098C11.9815 10.1214 12.0245 7.89792 10.7235 6.45809L10.5936 6.32137L7.99986 3.72762L5.40318 6.3243Z" fill="currentColor"/>
</svg>
