<svg viewBox="0 0 24 24" fill="none" xmlns="http://www.w3.org/2000/svg">
<path d="M12.048 3.00098C12.0636 3.00172 12.0792 3.00341 12.0948 3.00488C12.1088 3.00621 12.1229 3.00687 12.1368 3.00879C12.3455 3.03737 12.5467 3.13261 12.7071 3.29297L17.3976 7.98242L17.4161 8.00293L17.6632 8.2627C20.3685 11.2567 20.2779 15.8793 17.3927 18.7656C14.4139 21.7455 9.58478 21.7437 6.60558 18.7656C3.62617 15.7868 3.62767 10.9576 6.60558 7.97852C6.60851 7.97558 6.61141 7.97261 6.61437 7.96973L11.2921 3.29297L11.3683 3.22461C11.3819 3.21345 11.3962 3.20271 11.4103 3.19238C11.4454 3.16669 11.4812 3.14261 11.5187 3.12207C11.6395 3.05576 11.7717 3.01754 11.9054 3.00488C11.921 3.00341 11.9366 3.00171 11.9523 3.00098H12.048ZM8.01671 9.39746L8.00499 9.40723C5.82197 11.607 5.82696 15.1593 8.01964 17.3516C10.2184 19.5493 13.7815 19.5495 15.9786 17.3516C18.1076 15.2216 18.1736 11.8113 16.1778 9.60254L15.9874 9.40137L15.9825 9.39746L11.9991 5.41406L8.01671 9.39746Z" fill="currentColor"/>
</svg>
