<svg viewBox="0 0 32 32" fill="none" xmlns="http://www.w3.org/2000/svg">
<path d="M16.0206 4.08415C16.0448 4.08454 16.0688 4.0853 16.0929 4.08708C16.1085 4.08824 16.1242 4.08925 16.1398 4.09099C16.1594 4.09318 16.1788 4.09665 16.1984 4.09978C16.2192 4.10311 16.2402 4.10613 16.2609 4.11052C16.2772 4.11399 16.2935 4.1181 16.3097 4.12224C16.33 4.12739 16.3502 4.13265 16.3702 4.13884C16.39 4.14494 16.4093 4.15224 16.4288 4.15935C16.4467 4.16586 16.4649 4.17153 16.4825 4.17888C16.501 4.18661 16.519 4.19561 16.5372 4.20427C16.5542 4.21231 16.5714 4.21984 16.588 4.22868C16.612 4.24147 16.635 4.25621 16.6583 4.27068C16.6691 4.27738 16.6799 4.28412 16.6906 4.29118C16.7242 4.31351 16.7574 4.33752 16.7892 4.36345L16.8839 4.44939L23.1378 10.7023C23.1466 10.7111 23.1547 10.7206 23.1632 10.7297L23.4894 11.0734C27.0667 15.0328 26.9474 21.1452 23.132 24.9621C19.193 28.9024 12.8071 28.9007 8.86731 24.9631C4.92671 21.024 4.92835 14.6373 8.86633 10.6974L15.1154 4.44939C15.1516 4.41315 15.1903 4.37966 15.2296 4.3488C15.286 4.30451 15.3448 4.26483 15.4064 4.23161C15.4249 4.22164 15.4441 4.21324 15.463 4.20427C15.4796 4.19637 15.496 4.18796 15.5128 4.18083C15.5716 4.15601 15.6322 4.13668 15.6935 4.12126C15.7061 4.11807 15.7188 4.11526 15.7316 4.11247C15.7536 4.10765 15.7757 4.1034 15.798 4.09978C15.8181 4.09649 15.8383 4.09329 15.8585 4.09099C15.8718 4.08948 15.8852 4.08914 15.8986 4.08806C15.9256 4.08587 15.9525 4.0846 15.9796 4.08415C15.9933 4.08393 16.0069 4.08393 16.0206 4.08415ZM10.63 12.4709C10.6285 12.4723 10.6266 12.4733 10.6251 12.4748L10.3654 12.7482C7.67464 15.7277 7.76432 20.325 10.6349 23.1945C13.5991 26.157 18.4024 26.1575 21.3644 23.1945C24.2342 20.3232 24.3231 15.7259 21.6329 12.7482L21.3732 12.4748L15.9991 7.10075L10.63 12.4709Z" fill="currentColor"/>
</svg>
