<svg viewBox="0 0 16 16" fill="none" xmlns="http://www.w3.org/2000/svg">
<path d="M11.667 0.75C12.1789 0.75015 12.605 1.10566 12.7178 1.58301H13.333L13.4102 1.58691C13.7882 1.62536 14.0828 1.94487 14.083 2.33301C14.083 2.72127 13.7883 3.04061 13.4102 3.0791L13.333 3.08301H12.75V3.58301H13.333L13.4102 3.58691C13.7882 3.62536 14.0828 3.94487 14.083 4.33301C14.083 4.72127 13.7883 5.04061 13.4102 5.0791L13.333 5.08301H12.7197C12.6068 5.5607 12.179 5.91684 11.667 5.91699H10.833L10.6035 5.90527C9.60738 5.80422 8.80362 5.05314 8.62207 4.08301H8C5.46903 4.08318 3.4173 6.13508 3.41699 8.66602C3.41699 11.1972 5.46884 13.2498 8 13.25C9.21549 13.2499 10.3817 12.7667 11.2412 11.9072C12.1006 11.0477 12.584 9.88148 12.584 8.66602C12.5843 8.25206 12.92 7.91602 13.334 7.91602C13.7477 7.91632 14.0837 8.25225 14.084 8.66602C14.084 10.2793 13.4425 11.827 12.3018 12.9678C11.161 14.1086 9.61331 14.7499 8 14.75C4.64042 14.7498 1.91699 12.0256 1.91699 8.66602C1.9173 5.30665 4.64061 2.58318 8 2.58301H8.62305C8.81872 1.53983 9.73308 0.750156 10.833 0.75H11.667ZM10.833 2.25C10.4189 2.25018 10.083 2.58589 10.083 3V3.32227C10.0831 3.32584 10.084 3.32942 10.084 3.33301C10.084 3.33619 10.083 3.3396 10.083 3.34277V3.66699L10.0869 3.74316C10.1252 4.12135 10.4448 4.41683 10.833 4.41699H11.25V2.25H10.833Z" fill="currentColor"/>
<path d="M8.15137 5.59082C8.45175 5.62308 8.73427 5.75101 8.95703 5.95508L9.06348 6.06348L10.0684 7.20508L10.2285 7.4043C10.9737 8.42798 10.9198 9.8472 10.0684 10.8145C9.5451 11.4084 8.79161 11.75 8 11.75C7.25782 11.75 6.54905 11.4507 6.03223 10.9238L5.93164 10.8154C5.02324 9.78369 5.02316 8.23677 5.93164 7.20508L6.93652 6.06348L7.04297 5.95508C7.30282 5.71704 7.64397 5.58301 8 5.58301L8.15137 5.59082ZM7.05762 8.19629C6.64813 8.66131 6.64822 9.35818 7.05762 9.82324L7.15137 9.91992C7.3818 10.131 7.68428 10.25 8 10.25C8.36089 10.25 8.70388 10.0941 8.94238 9.82324L9.01465 9.7334C9.32798 9.30264 9.32826 8.71675 9.01465 8.28613L8.94238 8.19629L8 7.125L7.05762 8.19629Z" fill="currentColor"/>
</svg>
