<svg viewBox="0 0 32 32" fill="none" xmlns="http://www.w3.org/2000/svg">
<path d="M23.333 1.75C24.3068 1.75 25.1098 2.47661 25.2324 3.41699H26.667L26.7949 3.42285C27.425 3.48706 27.917 4.01993 27.917 4.66699C27.9168 5.3139 27.4249 5.84595 26.7949 5.91016L26.667 5.91699H25.25V7.41699H26.667L26.7949 7.42285C27.425 7.48706 27.917 8.01993 27.917 8.66699C27.9168 9.3139 27.4249 9.84595 26.7949 9.91016L26.667 9.91699H25.2314C25.1086 10.8571 24.3066 11.583 23.333 11.583H21.667L21.4482 11.5781C19.3981 11.4743 17.7308 9.91749 17.4561 7.91699H16C10.7994 7.91712 6.58301 12.1334 6.58301 17.334C6.58332 22.5343 10.7996 26.7499 16 26.75C18.4972 26.7499 20.8923 25.7579 22.6582 23.9922C24.424 22.2264 25.4159 19.8312 25.416 17.334C25.416 16.6438 25.9759 16.0843 26.666 16.084C27.3564 16.084 27.916 16.6436 27.916 17.334C27.9159 20.4943 26.6605 23.5251 24.4258 25.7598C22.1911 27.9943 19.1603 29.2499 16 29.25C9.41891 29.2499 4.08332 23.915 4.08301 17.334C4.08301 10.7527 9.41872 5.41712 16 5.41699H17.458C17.7423 3.34572 19.5176 1.75 21.667 1.75H23.333ZM21.667 4.25C20.7005 4.25 19.917 5.0335 19.917 6V7.33301L19.9258 7.5127C20.0156 8.39493 20.761 9.08301 21.667 9.08301H22.75V4.25H21.667Z" fill="currentColor"/>
<path d="M16 11.417C16.742 11.417 17.4481 11.7362 17.9385 12.293L19.9492 14.5762L20.1074 14.7637C21.6312 16.6653 21.6312 19.3766 20.1074 21.2783L19.9492 21.4658C18.9502 22.6001 17.5116 23.25 16 23.25C14.5829 23.25 13.2299 22.6789 12.2432 21.6729L12.0508 21.4658C10.3169 19.4968 10.317 16.5452 12.0508 14.5762L14.0615 12.293L14.2549 12.0957C14.7288 11.6615 15.3506 11.417 16 11.417ZM15.9658 13.9248L15.9375 13.9453L13.9268 16.2285C13.0247 17.2531 13.0246 18.7889 13.9268 19.8135L14.0273 19.9219C14.5454 20.4502 15.2559 20.75 16 20.75C16.7935 20.75 17.5488 20.409 18.0732 19.8135L18.2314 19.6152C18.9222 18.6663 18.9222 17.3756 18.2314 16.4268L18.0732 16.2285L16.0625 13.9453C16.0467 13.9273 16.0239 13.917 16 13.917C15.988 13.917 15.9765 13.92 15.9658 13.9248Z" fill="currentColor"/>
</svg>
